<svg xmlns="http://www.w3.org/2000/svg" xmlns:xlink="http://www.w3.org/1999/xlink" xmlns:lucid="lucid" width="795.34" height="754.74"><g transform="translate(-260 -120)" lucid:page-tab-id="JFkFhjhcCspZ"><path d="M280 140h120v40H280z" stroke="#202124" fill="#fff"/><use xlink:href="#a" transform="matrix(1,0,0,1,285,145) translate(41.42578125000002 22.304687499999975)"/><path d="M400 140h120v40H400z" stroke="#202124" fill="#fff"/><use xlink:href="#b" transform="matrix(1,0,0,1,405,145) translate(19.04785156250005 22.304687499999975)"/><path d="M520 140h120v40H520z" stroke="#202124" fill="#fff"/><use xlink:href="#c" transform="matrix(1,0,0,1,525,145) translate(33.93066406250003 22.304687499999975)"/><path d="M280 180h360v40H280z" stroke="#202124" fill="#fff"/><use xlink:href="#d" transform="matrix(1,0,0,1,285,185) translate(124.05761718750009 22.304687499999975)"/><path d="M280 220h360v202H280z" stroke="#202124" fill="#fff" fill-opacity="0"/><use xlink:href="#e" transform="matrix(1,0,0,1,285,225) translate(0 13.33333333333331)"/><use xlink:href="#f" transform="matrix(1,0,0,1,285,225) translate(0 38.22222222222216)"/><use xlink:href="#g" transform="matrix(1,0,0,1,285,225) translate(26.66666666666662 38.22222222222216)"/><use xlink:href="#h" transform="matrix(1,0,0,1,285,225) translate(115.55555555555534 38.22222222222216)"/><use xlink:href="#i" transform="matrix(1,0,0,1,285,225) translate(142.22222222222197 38.22222222222216)"/><use xlink:href="#j" transform="matrix(1,0,0,1,285,225) translate(0 63.111111111111)"/><use xlink:href="#k" transform="matrix(1,0,0,1,285,225) translate(17.777777777777747 63.111111111111)"/><use xlink:href="#l" transform="matrix(1,0,0,1,285,225) translate(0 87.99999999999984)"/><use xlink:href="#m" transform="matrix(1,0,0,1,285,225) translate(17.777777777777747 87.99999999999984)"/><use xlink:href="#n" transform="matrix(1,0,0,1,285,225) translate(88.88888888888873 87.99999999999984)"/><use xlink:href="#o" transform="matrix(1,0,0,1,285,225) translate(106.66666666666647 87.99999999999984)"/><use xlink:href="#p" transform="matrix(1,0,0,1,285,225) translate(151.11111111111083 87.99999999999984)"/><use xlink:href="#q" transform="matrix(1,0,0,1,285,225) translate(186.66666666666632 87.99999999999984)"/><use xlink:href="#r" transform="matrix(1,0,0,1,285,225) translate(222.2222222222218 87.99999999999984)"/><use xlink:href="#s" transform="matrix(1,0,0,1,285,225) translate(0 112.88888888888869)"/><use xlink:href="#t" transform="matrix(1,0,0,1,285,225) translate(106.66666666666647 112.88888888888869)"/><use xlink:href="#u" transform="matrix(1,0,0,1,285,225) translate(151.11111111111083 112.88888888888869)"/><use xlink:href="#v" transform="matrix(1,0,0,1,285,225) translate(213.33333333333294 112.88888888888869)"/><use xlink:href="#w" transform="matrix(1,0,0,1,285,225) translate(239.99999999999957 112.88888888888869)"/><use xlink:href="#l" transform="matrix(1,0,0,1,285,225) translate(0 137.77777777777752)"/><use xlink:href="#x" transform="matrix(1,0,0,1,285,225) translate(17.777777777777747 137.77777777777752)"/><use xlink:href="#n" transform="matrix(1,0,0,1,285,225) translate(44.44444444444437 137.77777777777752)"/><use xlink:href="#y" transform="matrix(1,0,0,1,285,225) translate(62.222222222222115 137.77777777777752)"/><use xlink:href="#z" transform="matrix(1,0,0,1,285,225) translate(0 162.66666666666637)"/><use xlink:href="#A" transform="matrix(1,0,0,1,285,225) translate(17.777777777777747 162.66666666666637)"/><use xlink:href="#B" transform="matrix(1,0,0,1,285,225) translate(222.22222222222192 162.66666666666637)"/><use xlink:href="#C" transform="matrix(1,0,0,1,285,225) translate(302.2222222222218 162.66666666666637)"/><use xlink:href="#D" transform="matrix(1,0,0,1,285,225) translate(0 187.5555555555552)"/><path d="M680 140h120v40H680z" stroke="#202124" fill="#fff"/><use xlink:href="#a" transform="matrix(1,0,0,1,685,145) translate(41.42578125000002 22.304687499999975)"/><path d="M800 140h220v40H800z" stroke="#202124" fill="#fff"/><use xlink:href="#E" transform="matrix(1,0,0,1,805,145) translate(72.55859375000004 22.304687499999975)"/><path d="M680 180h340v40H680z" stroke="#202124" fill="#fff"/><use xlink:href="#F" transform="matrix(1,0,0,1,685,185) translate(111.04492187500009 22.304687499999975)"/><path d="M680 220h340v118.27H680z" stroke="#202124" fill="#fff" fill-opacity="0"/><use xlink:href="#G" transform="matrix(1,0,0,1,688,228) translate(0 13.33333333333331)"/><use xlink:href="#n" transform="matrix(1,0,0,1,688,228) translate(71.11111111111099 13.33333333333331)"/><use xlink:href="#o" transform="matrix(1,0,0,1,688,228) translate(88.88888888888873 13.33333333333331)"/><use xlink:href="#H" transform="matrix(1,0,0,1,688,228) translate(133.3333333333331 13.33333333333331)"/><use xlink:href="#u" transform="matrix(1,0,0,1,688,228) translate(168.88888888888857 13.33333333333331)"/><use xlink:href="#I" transform="matrix(1,0,0,1,688,228) translate(231.1111111111107 13.33333333333331)"/><use xlink:href="#J" transform="matrix(1,0,0,1,688,228) translate(0 38.22222222222216)"/><use xlink:href="#K" transform="matrix(1,0,0,1,688,228) translate(88.88888888888873 38.22222222222216)"/><use xlink:href="#L" transform="matrix(1,0,0,1,688,228) translate(177.77777777777746 38.22222222222216)"/><use xlink:href="#v" transform="matrix(1,0,0,1,688,228) translate(222.22222222222183 38.22222222222216)"/><use xlink:href="#w" transform="matrix(1,0,0,1,688,228) translate(248.88888888888846 38.22222222222216)"/><use xlink:href="#M" transform="matrix(1,0,0,1,688,228) translate(0 63.111111111111)"/><use xlink:href="#n" transform="matrix(1,0,0,1,688,228) translate(26.66666666666662 63.111111111111)"/><use xlink:href="#y" transform="matrix(1,0,0,1,688,228) translate(44.44444444444437 63.111111111111)"/><use xlink:href="#N" transform="matrix(1,0,0,1,688,228) translate(0 87.99999999999984)"/><use xlink:href="#O" transform="matrix(1,0,0,1,688,228) translate(204.44444444444417 87.99999999999984)"/><use xlink:href="#P" transform="matrix(1,0,0,1,688,228) translate(293.3333333333329 87.99999999999984)"/><path d="M508.24 499.52h320v40h-320z" stroke="#202124" fill="#fff"/><g><use xlink:href="#Q" transform="matrix(1,0,0,1,513.2428373915454,504.5234563293004) translate(82.1923828125001 22.304687499999975)"/></g><path d="M508.24 539.52h320v96.3h-320z" stroke="#202124" fill="#fff" fill-opacity="0"/><g><use xlink:href="#R" transform="matrix(1,0,0,1,518.2428373915454,549.5234563293004) translate(0 14.999999999999979)"/><use xlink:href="#S" transform="matrix(1,0,0,1,518.2428373915454,549.5234563293004) translate(79.99999999999989 14.999999999999979)"/><use xlink:href="#T" transform="matrix(1,0,0,1,518.2428373915454,549.5234563293004) translate(149.99999999999977 14.999999999999979)"/><use xlink:href="#U" transform="matrix(1,0,0,1,518.2428373915454,549.5234563293004) translate(0 42.999999999999936)"/><use xlink:href="#V" transform="matrix(1,0,0,1,518.2428373915454,549.5234563293004) translate(29.999999999999957 42.999999999999936)"/><use xlink:href="#W" transform="matrix(1,0,0,1,518.2428373915454,549.5234563293004) translate(109.99999999999984 42.999999999999936)"/><use xlink:href="#X" transform="matrix(1,0,0,1,518.2428373915454,549.5234563293004) translate(229.99999999999966 42.999999999999936)"/><use xlink:href="#Y" transform="matrix(1,0,0,1,518.2428373915454,549.5234563293004) translate(0 70.99999999999989)"/><use xlink:href="#Z" transform="matrix(1,0,0,1,518.2428373915454,549.5234563293004) translate(29.999999999999957 70.99999999999989)"/><use xlink:href="#aa" transform="matrix(1,0,0,1,518.2428373915454,549.5234563293004) translate(109.99999999999984 70.99999999999989)"/></g><path d="M508.24 459.52h80v40h-80z" stroke="#202124" fill="#fff"/><g><use xlink:href="#ab" transform="matrix(1,0,0,1,513.2428373915454,464.5234563293004) translate(-3.2666015624999503 21.835937499999993)"/></g><path d="M588.24 459.52h140v40h-140z" stroke="#202124" fill="#fff"/><g><use xlink:href="#ac" transform="matrix(1,0,0,1,593.2428373915454,464.5234563293004) translate(7.900390625000078 22.304687499999975)"/></g><path d="M728.24 459.52h100v40h-100z" stroke="#202124" fill="#fff"/><g><use xlink:href="#ad" transform="matrix(1,0,0,1,733.2428373915454,464.5234563293004) translate(6.84570312500005 22.304687499999975)"/></g><path d="M775.34 677.07h122.8v40h-122.8z" stroke="#202124" fill="#fff"/><g><use xlink:href="#ae" transform="matrix(1,0,0,1,780.3423134770367,682.070143971255) translate(3.140625000000071 22.304687499999975)"/></g><path d="M898.13 677.07h137.2v40h-137.2z" stroke="#202124" fill="#fff"/><g><use xlink:href="#af" transform="matrix(1,0,0,1,903.1324117172455,682.070143971255) translate(4.610351562500085 22.304687499999975)"/></g><path d="M775.34 717.07h260v40h-260z" stroke="#202124" fill="#fff"/><g><use xlink:href="#ag" transform="matrix(1,0,0,1,780.3423134770367,722.070143971255) translate(55.7373046875001 22.304687499999975)"/></g><path d="M775.34 757.07h260v87.27h-260z" stroke="#202124" fill="#fff" fill-opacity="0"/><g><use xlink:href="#ah" transform="matrix(1,0,0,1,783.3423134770367,765.070143971255) translate(0 13.33333333333331)"/><use xlink:href="#n" transform="matrix(1,0,0,1,783.3423134770367,765.070143971255) translate(26.66666666666662 13.33333333333331)"/><use xlink:href="#ai" transform="matrix(1,0,0,1,783.3423134770367,765.070143971255) translate(44.44444444444437 13.33333333333331)"/><use xlink:href="#aj" transform="matrix(1,0,0,1,783.3423134770367,765.070143971255) translate(115.55555555555536 13.33333333333331)"/><use xlink:href="#ak" transform="matrix(1,0,0,1,783.3423134770367,765.070143971255) translate(186.66666666666634 13.33333333333331)"/><use xlink:href="#al" transform="matrix(1,0,0,1,783.3423134770367,765.070143971255) translate(0 38.22222222222216)"/><use xlink:href="#am" transform="matrix(1,0,0,1,783.3423134770367,765.070143971255) translate(8.888888888888873 38.22222222222216)"/><use xlink:href="#an" transform="matrix(1,0,0,1,783.3423134770367,765.070143971255) translate(71.11111111111099 38.22222222222216)"/><use xlink:href="#ao" transform="matrix(1,0,0,1,783.3423134770367,765.070143971255) translate(115.55555555555534 38.22222222222216)"/><use xlink:href="#ap" transform="matrix(1,0,0,1,783.3423134770367,765.070143971255) translate(0 63.111111111111)"/><use xlink:href="#aq" transform="matrix(1,0,0,1,783.3423134770367,765.070143971255) translate(168.88888888888863 63.111111111111)"/><use xlink:href="#ar" transform="matrix(1,0,0,1,783.3423134770367,765.070143971255) translate(0 87.99999999999984)"/></g><path d="M307.16 676.92h120v40h-120z" stroke="#202124" fill="#fff"/><g><use xlink:href="#ae" transform="matrix(1,0,0,1,312.1614363670657,681.9224335776823) translate(1.640625000000071 22.304687499999975)"/></g><path d="M427.16 676.92h140v40h-140z" stroke="#202124" fill="#fff"/><g><use xlink:href="#as" transform="matrix(1,0,0,1,432.1614363670657,681.9224335776823) translate(5.610351562500085 22.304687499999975)"/></g><path d="M307.16 716.92h260v40h-260z" stroke="#202124" fill="#fff"/><g><use xlink:href="#at" transform="matrix(1,0,0,1,312.1614363670657,721.9224335776823) translate(58.7500000000001 22.304687499999975)"/></g><path d="M307.16 756.92h260v85.03h-260z" stroke="#202124" fill="#fff" fill-opacity="0"/><g><use xlink:href="#au" transform="matrix(1,0,0,1,315.1614363670657,764.9224335776823) translate(0 13.33333333333331)"/><use xlink:href="#av" transform="matrix(1,0,0,1,315.1614363670657,764.9224335776823) translate(62.22222222222211 13.33333333333331)"/><use xlink:href="#H" transform="matrix(1,0,0,1,315.1614363670657,764.9224335776823) translate(106.66666666666647 13.33333333333331)"/><use xlink:href="#aw" transform="matrix(1,0,0,1,315.1614363670657,764.9224335776823) translate(142.22222222222197 13.33333333333331)"/><use xlink:href="#ax" transform="matrix(1,0,0,1,315.1614363670657,764.9224335776823) translate(186.66666666666634 13.33333333333331)"/><use xlink:href="#ay" transform="matrix(1,0,0,1,315.1614363670657,764.9224335776823) translate(0 38.22222222222216)"/><use xlink:href="#az" transform="matrix(1,0,0,1,315.1614363670657,764.9224335776823) translate(115.55555555555534 38.22222222222216)"/><use xlink:href="#aA" transform="matrix(1,0,0,1,315.1614363670657,764.9224335776823) translate(151.11111111111083 38.22222222222216)"/><use xlink:href="#aB" transform="matrix(1,0,0,1,315.1614363670657,764.9224335776823) translate(0 63.111111111111)"/><use xlink:href="#aC" transform="matrix(1,0,0,1,315.1614363670657,764.9224335776823) translate(35.55555555555549 63.111111111111)"/><use xlink:href="#aD" transform="matrix(1,0,0,1,315.1614363670657,764.9224335776823) translate(62.222222222222115 63.111111111111)"/><use xlink:href="#an" transform="matrix(1,0,0,1,315.1614363670657,764.9224335776823) translate(106.66666666666649 63.111111111111)"/><use xlink:href="#aE" transform="matrix(1,0,0,1,315.1614363670657,764.9224335776823) translate(151.11111111111086 63.111111111111)"/></g><path d="M972.5 312.06v.04l-.04.58-.04.37m-.94 3.9l-.07.23-.4 1.04-.25.6m-1.8 3.58l-1 1.73m-2.2 3.36l-1.16 1.62m-2.4 3.22l-1.24 1.58m-2.47 3.17l-.14.16-1.12 1.4m-2.52 3.1l-1.26 1.58m-2.52 3.12l-1.26 1.56m-2.52 3.12l-1.26 1.56m-2.52 3.12l-1.26 1.56m-2.52 3.13l-1.26 1.57m-2.52 3.12l-1.26 1.55m-2.5 3.13l-1.16 1.64m-2.32 3.27l-1.16 1.63m-2.27 3.3l-1.1 1.7m-2.17 3.36l-.8 1.2-.27.48m-2.03 3.46l-1.02 1.73m-1.94 3.5l-.94 1.78m-1.84 3.56l-.87 1.82m-1.72 3.62l-.8 1.84m-1.58 3.7l-.7 1.86m-1.44 3.75l-.63 1.9m-1.26 3.8l-.55 1.93m-1.08 3.86l-.48 1.94m-.9 3.9l-.4 1.97m-.73 3.96l-.3 1.98m-.53 3.98l-.23 2m-.32 4l-.14 2m-.15 4l-.04 1v1m0 4v2.02m.02 4v2.02m.02 4v2m0 4.03l.02 2m0 4v2m.02 4.02v2m.02 4.02v2m0 4.02l.02 2m0 4v2.02m.02 4v2.02m.02 4v2.02m0 4l.02 2m0 4.03v2m.02 4v2.02m.02 4v2.02m0 4l.02 2m0 4.02v2m.02 4v2.02m.02 4v2.02m0 4l.02 2m0 4.03v2m.02 4v2m.02 4.02v2m0 4.02v2m.02 4.02v2m.02 4v2.02m0 4l.02 2.02m0 4v2.02m.02 4v2m.02 4.03v2m0 4l.02 2.02m0 4v2.02m.02 4v2m.02 4.02v2m0 4l.02 2.02m0 4v1M972.5 312.07l.02-.5M888.47 658.7l10.22 17.18 10.13-17.24M583.22 382.2v.35l-.06.65m-.75 3.95l-.18.66-.32.95-.13.3m-1.7 3.66l-.1.2-.7 1.16-.26.37m-2.35 3.26l-.3.4-1 1.14m-2.75 2.93l-1.25 1.24-.2.18m-3 2.68l-1.54 1.3m-3.16 2.5l-1.6 1.2m-3.28 2.35l-1.65 1.16m-3.33 2.26l-1.7 1.08m-3.4 2.17l-1.7 1.08m-3.4 2.17l-1.72 1.05m-3.44 2.1l-1.7 1.05m-3.45 2.1l-1.72 1.05m-3.44 2.1l-1.73 1.05m-3.44 2.1l-1.72 1.04m-3.43 2.1l-1.72 1.05m-3.44 2.1l-1.7 1.06m-3.45 2.1l-1.72 1.05m-3.44 2.1l-1.73 1.06m-3.44 2.1l-1.72 1.05m-3.3 2.3l-1.65 1.16m-3.3 2.3l-1.64 1.16m-3.2 2.46l-1.6 1.22m-3.17 2.5l-1.55 1.28m-3.1 2.6l-.2.16-1.3 1.17m-2.97 2.72l-.42.4-1.02 1m-2.86 2.84l-.07.07-1.3 1.4m-2.73 2.97l-.83.95-.48.58m-2.55 3.13l-1.2 1.6m-2.37 3.28l-1.14 1.66m-2.17 3.4l-.65 1.03-.4.7m-2 3.5l-.9 1.78m-1.8 3.62l-.86 1.82m-1.6 3.7l-.78 1.86m-1.43 3.77l-.7 1.9m-1.25 3.82l-.6 1.9m-1.1 3.88l-.54 1.95m-.96 3.9l-.45 1.98m-.85 3.94l-.37 1.98m-.73 3.97l-.26 1.37-.08.6m-.57 4l-.3 2m-.54 3.98l-.2 2m-.4 4.02l-.2 2m-.4 4l-.1 2.02m-.24 4.02l-.1 2m-.24 4.03l-.1 2m-.2 4.04l-.03 2m-.05 4.03l-.03 2.02m-.05 4.03l-.02 2m-.05 4.04l-.03 2.02m-.05 4.03l-.02 2m-.05 4.04l-.03 2.03m0 4.03l.02 2m.02 4.04v2.02m.04 4.03v2m.04 4.04v2m.04 4.04l.02 2m.02 4.04l.02 2.02m.02 4.02l.02 2.02m.02 4.03l.02 2m.02 4.04v1.02M583.22 382.2l.02-.5M416.8 658.7l10.3 17.15 10.08-17.28" stroke="#202124" fill="none"/><path d="M302.34 395.75l115.45-.32.7.02.68.05.68.08.68.1.67.14.68.17.67.18.7.23.67.28.7.3.72.34.74.4.76.45.78.5.83.6.86.66.93.78.97.9 1.05 1.06 1.15 1.24 1.26 1.5 1.4 1.82 1.64 2.3 1.93 2.97 2.42 4.08 3.38 6.34 26.48 54.4 4.62 7.8 4.1 6.32 3.8 5.33 3.55 4.6 3.4 4.02 3.3 3.56.82.83M302.36 395.75h-.52" stroke="#202124" fill="none"/><path d="M506.62 519.47l-13.8-5.86 6.07-7z" stroke="#202124" fill="#202124"/><path d="M689.74 322.74l117.03-.03.38.02.43.03.5.06.55.12.65.16.77.23.9.34 1.1.47 1.36.67 1.67.94 2.1 1.34 2.62 1.88 3.3 2.64 4.04 3.63 4.78 4.76 5.3 5.9 5.42 6.73 5.14 7.14 4.57 7.14 3.86 6.8 3.14 6.33 2.48 5.8 1.92 5.22 1.45 4.73 1.05 4.28.74 3.9.47 3.54.26 3.25.07 3v.7l-.27 6.63-.63 7.2-1.04 7.78-1.52 8.37-2.04 8.87-2.58 9.25-3.1 9.4-3.52 9.25-3.83 8.8-3.95 8-3.88 7.07-2.36 3.86M689.75 322.74h-.5" stroke="#202124" fill="none"/><path d="M830.54 520.93l4.48-14.32 7.56 5.38z" stroke="#202124" fill="#202124"/><defs><path fill="#333" d="M589-945c-131 0-219 81-264 174V0H140v-1536h185v585c82-101 189-151 320-151 229 0 346 129 346 387V0H806v-716c-2-153-65-229-217-229" id="aF"/><path fill="#333" d="M520 20C244 20 95-247 95-550c0-298 151-550 427-552 127 0 227 43 301 130v-564h185V0H838l-9-116C755-25 652 20 520 20zm48-965c-210 0-288 177-288 416 0 218 87 392 286 392 117 0 203-53 257-158v-497c-55-102-140-153-255-153" id="aG"/><path fill="#333" d="M341 0H156v-1536h185V0" id="aH"/><g id="a"><use transform="matrix(0.009765624999999986,0,0,0.009765624999999986,0,0)" xlink:href="#aF"/><use transform="matrix(0.009765624999999986,0,0,0.009765624999999986,11.015624999999984,0)" xlink:href="#aG"/><use transform="matrix(0.009765624999999986,0,0,0.009765624999999986,22.294921874999968,0)" xlink:href="#aH"/></g><path fill="#333" d="M704-1390c-164-38-297 28-288 194v114h231v143H416V0H231v-939H60v-143h171v-111c-12-274 208-416 483-347" id="aI"/><path fill="#333" d="M341 0H156v-1082h185V0zm-91-1264c-68 0-108-42-109-105 0-62 41-107 109-107s110 44 110 107-42 105-110 105" id="aJ"/><path fill="#333" d="M663-916c-163-27-288 18-338 148V0H140v-1082h180l3 125c61-97 147-145 258-145 36 0 63 5 82 14v172" id="aK"/><path fill="#333" d="M538-131c121 0 232-49 232-156 0-50-20-88-56-117-73-60-334-92-420-143-92-55-162-110-162-238 0-190 192-317 400-317 223 0 414 129 413 338H759c0-108-110-186-227-186-119 0-215 53-215 159 0 45 18 78 53 101 76 52 331 90 416 139 98 57 169 115 169 251C955-92 760 20 538 20c-176 0-314-68-386-174-38-55-57-115-57-179h185c6 129 116 202 258 202" id="aL"/><path fill="#333" d="M456 20C285 20 205-92 206-268v-671H9v-143h197v-262h185v262h202v143H391v671c-9 125 92 149 207 118V0c-49 13-96 20-142 20" id="aM"/><path fill="#333" d="M920 151H4V0h916v151" id="aN"/><path fill="#333" d="M503-687l240-395h216L605-547 970 0H756L506-405 256 0H41l365-547-354-535h214" id="aO"/><path fill="#333" d="M521 20C240 20 96-239 96-550c0-303 147-552 427-552 132 0 235 47 309 140l9-120h169V-26c4 277-183 454-459 452-165-1-334-81-400-187l96-111c79 98 176 147 291 147 180 1 288-109 286-290v-93C750-23 649 20 521 20zm48-965c-209 0-287 178-287 416 0 217 86 392 285 392 117 0 202-53 257-159v-494c-57-103-142-155-255-155" id="aP"/><g id="b"><use transform="matrix(0.009765624999999986,0,0,0.009765624999999986,0,0)" xlink:href="#aI"/><use transform="matrix(0.009765624999999986,0,0,0.009765624999999986,6.94335937499999,0)" xlink:href="#aJ"/><use transform="matrix(0.009765624999999986,0,0,0.009765624999999986,11.796874999999984,0)" xlink:href="#aK"/><use transform="matrix(0.009765624999999986,0,0,0.009765624999999986,18.56445312499997,0)" xlink:href="#aL"/><use transform="matrix(0.009765624999999986,0,0,0.009765624999999986,28.876953124999957,0)" xlink:href="#aM"/><use transform="matrix(0.009765624999999986,0,0,0.009765624999999986,35.41015624999995,0)" xlink:href="#aN"/><use transform="matrix(0.009765624999999986,0,0,0.009765624999999986,44.433593749999936,0)" xlink:href="#aM"/><use transform="matrix(0.009765624999999986,0,0,0.009765624999999986,50.96679687499993,0)" xlink:href="#aO"/><use transform="matrix(0.009765624999999986,0,0,0.009765624999999986,60.683593749999915,0)" xlink:href="#aP"/></g><path fill="#333" d="M330-983l-302-90 46-151 302 112-9-344h153l-10 349 297-110 46 152-307 91 198 271-124 94-186-288-180 281-125-91" id="aQ"/><path fill="#333" d="M491 20c-241-1-355-148-355-398v-704h185v699c0 164 67 246 200 246 141 0 235-53 282-158v-787h185V0H812l-4-107C736-22 630 20 491 20" id="aR"/><path fill="#333" d="M632-1102c291 0 422 251 422 573 0 297-141 548-419 549-131 0-235-42-310-125v521H140v-1498h169l9 120c75-93 180-140 314-140zm-53 971c207 0 290-180 290-419 0-218-92-395-292-395-112 0-196 50-252 149v517c55 99 140 148 254 148" id="aS"/><g id="c"><use transform="matrix(0.009765624999999986,0,0,0.009765624999999986,0,0)" xlink:href="#aQ"/><use transform="matrix(0.009765624999999986,0,0,0.009765624999999986,8.613281249999988,0)" xlink:href="#aR"/><use transform="matrix(0.009765624999999986,0,0,0.009765624999999986,19.63867187499997,0)" xlink:href="#aS"/><use transform="matrix(0.009765624999999986,0,0,0.009765624999999986,30.859374999999957,0)" xlink:href="#aG"/></g><path fill="#333" d="M663-1102c295 0 422 250 422 571 0 300-141 549-420 551-109 0-198-38-265-114v510H111v-1498h268l10 106c70-84 161-126 274-126zm133 550c0-175-53-315-209-315-91 0-153 35-187 104v443c35 71 98 107 189 107 138 0 207-113 207-339" id="aT"/><path fill="#333" d="M719-811c-143-24-279 1-319 103V0H111v-1082h273l8 129c74-124 180-175 331-136" id="aU"/><path fill="#333" d="M663-1102c295 0 423 246 423 571 0 313-131 551-421 551-117 0-211-45-281-135L371 0H111v-1536h289v551c67-78 154-117 263-117zm-71 889c164 0 209-139 205-339-3-189-44-315-207-315-92 0-155 38-190 113v427c35 76 99 114 192 114" id="aV"/><path fill="#333" d="M912 226H1V0h911v226" id="aW"/><path fill="#333" d="M355-556c-2 203 30 338 206 343 102 3 181-63 182-161h271C1001-128 821 17 566 20 242 24 66-212 66-554c0-320 184-548 498-548 262 0 451 167 450 423H743c-1-108-75-193-184-189-162 6-202 123-204 312" id="aX"/><path fill="#333" d="M416 0H126v-1536h290V0" id="aY"/><path fill="#333" d="M552-1102c254-4 435 134 435 383v469c1 103 15 180 43 233V0H738c-13-26-23-58-29-97C639-19 548 20 436 20 238 20 64-113 68-304c5-258 212-357 496-357h133c11-137-29-227-160-227-90 0-156 45-156 131H92c15-231 213-342 460-345zM357-325c0 76 61 124 142 124 88 0 168-45 198-105v-186H589c-152 2-232 51-232 167" id="aZ"/><path fill="#333" d="M416 0H126v-1082h290V0zM271-1212c-92 0-162-61-162-150s68-149 162-149c93 0 162 60 162 149s-70 150-162 150" id="ba"/><path fill="#333" d="M741-689c-2-124-40-177-163-178-82 0-141 34-178 102V0H111v-1082h271l9 121c77-94 180-141 311-141 139 0 235 55 287 165 76-110 184-165 325-165 249 0 348 151 348 411V0h-290v-690c-2-123-39-176-163-177-87 0-147 41-180 124l1 743H741v-689" id="bb"/><path fill="#333" d="M369-598c0 393 97 738 310 900l-56 153c-200-92-361-334-433-572-84-277-87-628-5-911 71-244 234-495 438-588l56 156c-205 153-310 488-310 862" id="bc"/><path fill="#333" d="M349-541c6-400-96-755-309-922l56-153c203 91 368 336 444 575 89 280 91 621 4 907-74 244-242 497-448 589L40 302c199-150 304-484 309-843" id="bd"/><g id="d"><use transform="matrix(0.009765624999999986,0,0,0.009765624999999986,0,0)" xlink:href="#aT"/><use transform="matrix(0.009765624999999986,0,0,0.009765624999999986,11.259765624999984,0)" xlink:href="#aU"/><use transform="matrix(0.009765624999999986,0,0,0.009765624999999986,18.55468749999997,0)" xlink:href="#aV"/><use transform="matrix(0.009765624999999986,0,0,0.009765624999999986,29.814453124999957,0)" xlink:href="#aW"/><use transform="matrix(0.009765624999999986,0,0,0.009765624999999986,38.74023437499994,0)" xlink:href="#aX"/><use transform="matrix(0.009765624999999986,0,0,0.009765624999999986,49.16992187499993,0)" xlink:href="#aY"/><use transform="matrix(0.009765624999999986,0,0,0.009765624999999986,54.47265624999992,0)" xlink:href="#aZ"/><use transform="matrix(0.009765624999999986,0,0,0.009765624999999986,65.1953124999999,0)" xlink:href="#ba"/><use transform="matrix(0.009765624999999986,0,0,0.009765624999999986,70.49804687499989,0)" xlink:href="#bb"/><use transform="matrix(0.009765624999999986,0,0,0.009765624999999986,87.81249999999986,0)" xlink:href="#bc"/><use transform="matrix(0.009765624999999986,0,0,0.009765624999999986,94.83398437499984,0)" xlink:href="#bd"/></g><path fill="#333" d="M175 0v-121h110V0H175" id="be"/><g id="e"><use transform="matrix(0.017777777777777747,0,0,0.017777777777777747,0,0)" xlink:href="#be"/><use transform="matrix(0.017777777777777747,0,0,0.017777777777777747,8.888888888888873,0)" xlink:href="#be"/><use transform="matrix(0.017777777777777747,0,0,0.017777777777777747,17.777777777777747,0)" xlink:href="#be"/></g><path fill="#333" d="M123-425v-50h169v425h116V0H115v-50h124v-375H123zm138-146c-24 0-43-20-43-45s19-42 43-42 41 16 41 42c0 25-17 45-41 45" id="bf"/><path fill="#333" d="M180-425H85v-50h95c-6-182 105-229 253-181l-12 51c-68-20-133-30-166 19-15 23-22 60-22 111h181v50H233v375h183V0H81v-50h99v-375" id="bg"/><g id="f"><use transform="matrix(0.017777777777777747,0,0,0.017777777777777747,0,0)" xlink:href="#bf"/><use transform="matrix(0.017777777777777747,0,0,0.017777777777777747,8.888888888888873,0)" xlink:href="#bg"/></g><path fill="#333" d="M376-317c-1-68-26-113-98-112-36 0-85 14-147 41V0H78v-664h53v225c137-72 298-64 298 122V0h-53v-317" id="bh"/><path fill="#333" d="M51-236c0-140 72-245 205-245 37 0 77 9 119 27v-210h53v581l10 87-51 6-10-53C327-8 281 9 239 9 111 8 51-99 51-236zm57-2c0 104 38 194 134 195 43 0 88-19 133-57v-300c-22-11-85-29-117-29-101 0-150 84-150 191" id="bi"/><path fill="#333" d="M109-614l-1-49 173-1v614h122V0H105v-50h123v-565" id="bj"/><path fill="#333" d="M413-128C413 31 212 30 78-23l13-52c66 22 117 33 153 33 64 1 113-28 113-86 0-74-43-71-121-93-84-24-148-44-148-139 0-144 200-143 319-91l-14 47c-57-19-102-28-137-28-60-1-112 20-112 72 0 69 52 67 129 91 88 27 140 41 140 141" id="bk"/><path fill="#333" d="M302 10c-122 0-142-75-142-192v-236H76v-50h84v-115l53-10v125h190v50H213v234c4 89 1 142 79 142 32 0 67-6 106-19l12 50c-39 14-75 21-108 21" id="bl"/><path fill="#333" d="M362-229c-109-9-247-23-246 89 0 65 34 97 102 97 48 0 121-44 144-67v-119zm0 177C335-29 268 9 217 9 123 9 60-42 60-135c0-94 72-147 168-146 51 0 95 2 134 6-4-109-9-154-111-154-45 0-97 11-158 32l-15-50c62-23 118-34 168-34 140 3 166 55 169 198 2 96-5 201 8 286l-51 5" id="bm"/><path fill="#333" d="M67-237c0-140 54-242 186-244 142-2 193 122 177 270H124c6 89 46 167 136 168 41 0 90-10 145-29l15 50C366-1 315 9 268 9 130 9 67-94 67-237zm190-193c-84 0-128 56-133 169h252c0-113-40-169-119-169" id="bn"/><g id="g"><use transform="matrix(0.017777777777777747,0,0,0.017777777777777747,0,0)" xlink:href="#bh"/><use transform="matrix(0.017777777777777747,0,0,0.017777777777777747,8.888888888888873,0)" xlink:href="#bi"/><use transform="matrix(0.017777777777777747,0,0,0.017777777777777747,17.777777777777747,0)" xlink:href="#bj"/><use transform="matrix(0.017777777777777747,0,0,0.017777777777777747,26.666666666666618,0)" xlink:href="#be"/><use transform="matrix(0.017777777777777747,0,0,0.017777777777777747,35.55555555555549,0)" xlink:href="#bk"/><use transform="matrix(0.017777777777777747,0,0,0.017777777777777747,44.444444444444365,0)" xlink:href="#bl"/><use transform="matrix(0.017777777777777747,0,0,0.017777777777777747,53.333333333333236,0)" xlink:href="#bm"/><use transform="matrix(0.017777777777777747,0,0,0.017777777777777747,62.22222222222211,0)" xlink:href="#bl"/><use transform="matrix(0.017777777777777747,0,0,0.017777777777777747,71.11111111111099,0)" xlink:href="#bn"/></g><path fill="#333" d="M25-207h449v44H25v-44zm0-168h449v44H25v-44" id="bo"/><g id="h"><use transform="matrix(0.017777777777777747,0,0,0.017777777777777747,0,0)" xlink:href="#bo"/><use transform="matrix(0.017777777777777747,0,0,0.017777777777777747,8.888888888888873,0)" xlink:href="#bo"/></g><path fill="#333" d="M250-481c127 0 191 82 191 245S377 9 250 9 59-73 59-236s64-245 191-245zM116-236c0 129 45 193 134 193s134-64 134-193-45-193-134-193-134 64-134 193" id="bp"/><path fill="#333" d="M52-238c0-141 69-243 204-243 35 0 75 12 119 35l2-29h51c1 166-2 336 3 498 4 114-79 176-186 177-53 0-113-13-180-40l18-50c66 25 118 38 157 38 91 0 151-56 136-160-3-18-1-31-1-40-49 34-94 51-136 51C109-2 52-99 52-238zm57 0c0 104 37 183 133 185 43 0 88-19 133-57v-280c-41-26-80-39-117-39-101 0-149 84-149 191" id="bq"/><path fill="#333" d="M374-317c0-63-31-114-96-112-32 0-82 15-149 44V0H76v-475h51l2 40c65-31 118-46 161-46 90 0 137 70 137 164V0h-53v-317" id="br"/><path fill="#333" d="M174 0v-121h110V0H174zm0-290v-121h110v121H174" id="bs"/><g id="i"><use transform="matrix(0.017777777777777747,0,0,0.017777777777777747,0,0)" xlink:href="#bj"/><use transform="matrix(0.017777777777777747,0,0,0.017777777777777747,8.888888888888873,0)" xlink:href="#bp"/><use transform="matrix(0.017777777777777747,0,0,0.017777777777777747,17.777777777777747,0)" xlink:href="#bq"/><use transform="matrix(0.017777777777777747,0,0,0.017777777777777747,26.666666666666618,0)" xlink:href="#bq"/><use transform="matrix(0.017777777777777747,0,0,0.017777777777777747,35.55555555555549,0)" xlink:href="#bf"/><use transform="matrix(0.017777777777777747,0,0,0.017777777777777747,44.444444444444365,0)" xlink:href="#br"/><use transform="matrix(0.017777777777777747,0,0,0.017777777777777747,53.333333333333236,0)" xlink:href="#bq"/><use transform="matrix(0.017777777777777747,0,0,0.017777777777777747,62.22222222222211,0)" xlink:href="#bs"/></g><path fill="#333" d="M432-422c-51 3-159 33-192 55v317h160V0H91v-50h94v-375H91v-50h147l2 58c37-24 136-60 192-64v59" id="bt"/><path fill="#333" d="M453-237C453-96 384 9 249 9c-37 0-77-9-119-27v210H77v-581l-9-87 50-6 9 54c49-35 95-53 139-53 129 1 187 106 187 244zm-57 1c0-104-37-191-132-193-42 0-87 19-134 57v300c22 11 85 29 117 29 102 0 149-85 149-193" id="bu"/><path fill="#333" d="M53-475h60L254-71h8l126-404h60L264 81c-40 103-41 119-170 125v-51c82-3 89-15 110-79l23-69" id="bv"/><path fill="#333" d="M0 128V85h500v43H0" id="bw"/><path fill="#333" d="M332 160C242 24 180-101 180-318c0-216 62-343 152-478l42 27c-83 128-139 245-139 451 0 204 56 324 139 450" id="bx"/><path fill="#333" d="M206 10C82 11 5-70 5-197c0-95 52-163 156-204-33-53-49-98-49-135-1-75 62-129 140-129 80 0 143 54 139 131-5 106-58 122-148 168l133 207c24-50 45-119 64-206l49 8c-16 88-43 168-80 240 21 35 54 73 80 106l-39 32c-32-37-57-70-75-97-51 57-107 86-169 86zm13-416c68-28 112-49 116-125 3-54-30-83-82-85-75-3-104 77-73 142 8 18 20 41 39 68zM62-197C62-72 174-1 281-60c26-14 48-32 65-55L184-362c-81 34-122 89-122 165" id="by"/><path fill="#333" d="M126 132C209 6 265-114 265-318c0-206-56-323-139-451l42-27c90 135 152 262 152 478 0 217-62 342-152 478" id="bz"/><g id="k"><use transform="matrix(0.017777777777777747,0,0,0.017777777777777747,0,0)" xlink:href="#bt"/><use transform="matrix(0.017777777777777747,0,0,0.017777777777777747,8.888888888888873,0)" xlink:href="#bn"/><use transform="matrix(0.017777777777777747,0,0,0.017777777777777747,17.777777777777747,0)" xlink:href="#bu"/><use transform="matrix(0.017777777777777747,0,0,0.017777777777777747,26.666666666666618,0)" xlink:href="#bj"/><use transform="matrix(0.017777777777777747,0,0,0.017777777777777747,35.55555555555549,0)" xlink:href="#bm"/><use transform="matrix(0.017777777777777747,0,0,0.017777777777777747,44.444444444444365,0)" xlink:href="#bv"/><use transform="matrix(0.017777777777777747,0,0,0.017777777777777747,53.333333333333236,0)" xlink:href="#bw"/><use transform="matrix(0.017777777777777747,0,0,0.017777777777777747,62.22222222222211,0)" xlink:href="#bk"/><use transform="matrix(0.017777777777777747,0,0,0.017777777777777747,71.11111111111099,0)" xlink:href="#bl"/><use transform="matrix(0.017777777777777747,0,0,0.017777777777777747,79.99999999999986,0)" xlink:href="#bm"/><use transform="matrix(0.017777777777777747,0,0,0.017777777777777747,88.88888888888873,0)" xlink:href="#bl"/><use transform="matrix(0.017777777777777747,0,0,0.017777777777777747,97.7777777777776,0)" xlink:href="#bn"/><use transform="matrix(0.017777777777777747,0,0,0.017777777777777747,106.66666666666647,0)" xlink:href="#bw"/><use transform="matrix(0.017777777777777747,0,0,0.017777777777777747,115.55555555555533,0)" xlink:href="#bf"/><use transform="matrix(0.017777777777777747,0,0,0.017777777777777747,124.44444444444422,0)" xlink:href="#br"/><use transform="matrix(0.017777777777777747,0,0,0.017777777777777747,133.3333333333331,0)" xlink:href="#bf"/><use transform="matrix(0.017777777777777747,0,0,0.017777777777777747,142.22222222222197,0)" xlink:href="#bl"/><use transform="matrix(0.017777777777777747,0,0,0.017777777777777747,151.11111111111086,0)" xlink:href="#bx"/><use transform="matrix(0.017777777777777747,0,0,0.017777777777777747,159.99999999999974,0)" xlink:href="#by"/><use transform="matrix(0.017777777777777747,0,0,0.017777777777777747,168.88888888888863,0)" xlink:href="#bh"/><use transform="matrix(0.017777777777777747,0,0,0.017777777777777747,177.77777777777754,0)" xlink:href="#bi"/><use transform="matrix(0.017777777777777747,0,0,0.017777777777777747,186.6666666666664,0)" xlink:href="#bj"/><use transform="matrix(0.017777777777777747,0,0,0.017777777777777747,195.5555555555553,0)" xlink:href="#be"/><use transform="matrix(0.017777777777777747,0,0,0.017777777777777747,204.44444444444417,0)" xlink:href="#bt"/><use transform="matrix(0.017777777777777747,0,0,0.017777777777777747,213.33333333333306,0)" xlink:href="#bk"/><use transform="matrix(0.017777777777777747,0,0,0.017777777777777747,222.22222222222192,0)" xlink:href="#bz"/></g><g id="m"><use transform="matrix(0.017777777777777747,0,0,0.017777777777777747,0,0)" xlink:href="#bn"/><use transform="matrix(0.017777777777777747,0,0,0.017777777777777747,8.888888888888873,0)" xlink:href="#br"/><use transform="matrix(0.017777777777777747,0,0,0.017777777777777747,17.777777777777747,0)" xlink:href="#bl"/><use transform="matrix(0.017777777777777747,0,0,0.017777777777777747,26.666666666666618,0)" xlink:href="#bt"/><use transform="matrix(0.017777777777777747,0,0,0.017777777777777747,35.55555555555549,0)" xlink:href="#bf"/><use transform="matrix(0.017777777777777747,0,0,0.017777777777777747,44.444444444444365,0)" xlink:href="#bn"/><use transform="matrix(0.017777777777777747,0,0,0.017777777777777747,53.333333333333236,0)" xlink:href="#bk"/></g><use transform="matrix(0.017777777777777747,0,0,0.017777777777777747,0,0)" xlink:href="#bo" id="n"/><path fill="#333" d="M81-239c0-146 61-241 201-242 44 0 88 7 131 21v140h-54v-99c-142-44-221 39-221 181 0 109 40 194 143 195 30 0 72-9 125-28l15 50C368-1 322 9 282 9 143 9 81-94 81-239" id="bA"/><g id="o"><use transform="matrix(0.017777777777777747,0,0,0.017777777777777747,0,0)" xlink:href="#bk"/><use transform="matrix(0.017777777777777747,0,0,0.017777777777777747,8.888888888888873,0)" xlink:href="#bA"/><use transform="matrix(0.017777777777777747,0,0,0.017777777777777747,17.777777777777747,0)" xlink:href="#bm"/><use transform="matrix(0.017777777777777747,0,0,0.017777777777777747,26.666666666666618,0)" xlink:href="#br"/></g><path fill="#333" d="M451-452c4 189-130 224-327 212V0H69v-655h147c156 2 232 48 235 203zm-58 1c0-121-55-152-177-154h-92v315h92c121-1 177-41 177-161" id="bB"/><path fill="#333" d="M444-465c0 105-42 149-120 184 45 86 87 180 124 281h-60c-37-97-77-187-120-269-70 5-89 3-152 3V0H61v-655h147c155 3 236 39 236 190zm-58 0c0-150-123-141-270-140v289c148 5 270-4 270-149" id="bC"/><path fill="#333" d="M456-185C456-33 368-3 212 0H67v-655h154c137 1 215 39 217 170 0 76-37 125-111 148 82 20 129 55 129 152zM122-49c144 2 276 8 276-136 0-81-55-122-166-122H122v258zm259-440c0-131-131-118-259-117v250c131 3 259 9 259-133" id="bD"/><g id="p"><use transform="matrix(0.017777777777777747,0,0,0.017777777777777747,0,0)" xlink:href="#bB"/><use transform="matrix(0.017777777777777747,0,0,0.017777777777777747,8.888888888888873,0)" xlink:href="#bC"/><use transform="matrix(0.017777777777777747,0,0,0.017777777777777747,17.777777777777747,0)" xlink:href="#bD"/></g><g id="q"><use transform="matrix(0.017777777777777747,0,0,0.017777777777777747,0,0)" xlink:href="#bg"/><use transform="matrix(0.017777777777777747,0,0,0.017777777777777747,8.888888888888873,0)" xlink:href="#bp"/><use transform="matrix(0.017777777777777747,0,0,0.017777777777777747,17.777777777777747,0)" xlink:href="#bt"/></g><path fill="#333" d="M173 0v-112h95c5 121-5 175-77 255l-27-24c30-44 46-84 49-119h-40" id="bE"/><g id="r"><use transform="matrix(0.017777777777777747,0,0,0.017777777777777747,0,0)" xlink:href="#bn"/><use transform="matrix(0.017777777777777747,0,0,0.017777777777777747,8.888888888888873,0)" xlink:href="#br"/><use transform="matrix(0.017777777777777747,0,0,0.017777777777777747,17.777777777777747,0)" xlink:href="#bl"/><use transform="matrix(0.017777777777777747,0,0,0.017777777777777747,26.666666666666618,0)" xlink:href="#bt"/><use transform="matrix(0.017777777777777747,0,0,0.017777777777777747,35.55555555555549,0)" xlink:href="#bf"/><use transform="matrix(0.017777777777777747,0,0,0.017777777777777747,44.444444444444365,0)" xlink:href="#bn"/><use transform="matrix(0.017777777777777747,0,0,0.017777777777777747,53.333333333333236,0)" xlink:href="#bk"/><use transform="matrix(0.017777777777777747,0,0,0.017777777777777747,62.22222222222211,0)" xlink:href="#bE"/></g><g id="t"><use transform="matrix(0.017777777777777747,0,0,0.017777777777777747,0,0)" xlink:href="#bh"/><use transform="matrix(0.017777777777777747,0,0,0.017777777777777747,8.888888888888873,0)" xlink:href="#bp"/><use transform="matrix(0.017777777777777747,0,0,0.017777777777777747,17.777777777777747,0)" xlink:href="#bj"/><use transform="matrix(0.017777777777777747,0,0,0.017777777777777747,26.666666666666618,0)" xlink:href="#bi"/></g><path fill="#333" d="M127-155c0 63 30 113 95 112 32 0 82-17 150-50v-382h53V0h-51l-2-41C308-8 255 9 212 9 122 9 74-61 74-155v-320h53v320" id="bF"/><path fill="#333" d="M359-475h60c-47 75-100 149-161 222 41 59 97 143 167 253h-60c-53-87-102-160-145-221l-70 9V0H97v-664h53v404l65-10c47-61 95-130 144-205" id="bG"/><g id="u"><use transform="matrix(0.017777777777777747,0,0,0.017777777777777747,0,0)" xlink:href="#bA"/><use transform="matrix(0.017777777777777747,0,0,0.017777777777777747,8.888888888888873,0)" xlink:href="#bh"/><use transform="matrix(0.017777777777777747,0,0,0.017777777777777747,17.777777777777747,0)" xlink:href="#bF"/><use transform="matrix(0.017777777777777747,0,0,0.017777777777777747,26.666666666666618,0)" xlink:href="#br"/><use transform="matrix(0.017777777777777747,0,0,0.017777777777777747,35.55555555555549,0)" xlink:href="#bG"/><use transform="matrix(0.017777777777777747,0,0,0.017777777777777747,44.444444444444365,0)" xlink:href="#bk"/></g><g id="v"><use transform="matrix(0.017777777777777747,0,0,0.017777777777777747,0,0)" xlink:href="#bf"/><use transform="matrix(0.017777777777777747,0,0,0.017777777777777747,8.888888888888873,0)" xlink:href="#br"/></g><g id="w"><use transform="matrix(0.017777777777777747,0,0,0.017777777777777747,0,0)" xlink:href="#bh"/><use transform="matrix(0.017777777777777747,0,0,0.017777777777777747,8.888888888888873,0)" xlink:href="#bi"/><use transform="matrix(0.017777777777777747,0,0,0.017777777777777747,17.777777777777747,0)" xlink:href="#bj"/></g><g id="x"><use transform="matrix(0.017777777777777747,0,0,0.017777777777777747,0,0)" xlink:href="#br"/><use transform="matrix(0.017777777777777747,0,0,0.017777777777777747,8.888888888888873,0)" xlink:href="#bk"/></g><g id="y"><use transform="matrix(0.017777777777777747,0,0,0.017777777777777747,0,0)" xlink:href="#bn"/><use transform="matrix(0.017777777777777747,0,0,0.017777777777777747,8.888888888888873,0)" xlink:href="#br"/><use transform="matrix(0.017777777777777747,0,0,0.017777777777777747,17.777777777777747,0)" xlink:href="#bl"/><use transform="matrix(0.017777777777777747,0,0,0.017777777777777747,26.666666666666618,0)" xlink:href="#bt"/><use transform="matrix(0.017777777777777747,0,0,0.017777777777777747,35.55555555555549,0)" xlink:href="#bf"/><use transform="matrix(0.017777777777777747,0,0,0.017777777777777747,44.444444444444365,0)" xlink:href="#bn"/><use transform="matrix(0.017777777777777747,0,0,0.017777777777777747,53.333333333333236,0)" xlink:href="#bk"/><use transform="matrix(0.017777777777777747,0,0,0.017777777777777747,62.22222222222211,0)" xlink:href="#be"/><use transform="matrix(0.017777777777777747,0,0,0.017777777777777747,71.11111111111099,0)" xlink:href="#bf"/><use transform="matrix(0.017777777777777747,0,0,0.017777777777777747,79.99999999999986,0)" xlink:href="#br"/><use transform="matrix(0.017777777777777747,0,0,0.017777777777777747,88.88888888888873,0)" xlink:href="#bl"/><use transform="matrix(0.017777777777777747,0,0,0.017777777777777747,97.7777777777776,0)" xlink:href="#bp"/><use transform="matrix(0.017777777777777747,0,0,0.017777777777777747,106.66666666666647,0)" xlink:href="#bw"/><use transform="matrix(0.017777777777777747,0,0,0.017777777777777747,115.55555555555533,0)" xlink:href="#bt"/><use transform="matrix(0.017777777777777747,0,0,0.017777777777777747,124.44444444444422,0)" xlink:href="#bn"/><use transform="matrix(0.017777777777777747,0,0,0.017777777777777747,133.3333333333331,0)" xlink:href="#bu"/><use transform="matrix(0.017777777777777747,0,0,0.017777777777777747,142.22222222222197,0)" xlink:href="#bj"/><use transform="matrix(0.017777777777777747,0,0,0.017777777777777747,151.11111111111086,0)" xlink:href="#bm"/><use transform="matrix(0.017777777777777747,0,0,0.017777777777777747,159.99999999999974,0)" xlink:href="#bv"/><use transform="matrix(0.017777777777777747,0,0,0.017777777777777747,168.88888888888863,0)" xlink:href="#bw"/><use transform="matrix(0.017777777777777747,0,0,0.017777777777777747,177.77777777777754,0)" xlink:href="#br"/><use transform="matrix(0.017777777777777747,0,0,0.017777777777777747,186.6666666666664,0)" xlink:href="#bp"/><use transform="matrix(0.017777777777777747,0,0,0.017777777777777747,195.5555555555553,0)" xlink:href="#bi"/><use transform="matrix(0.017777777777777747,0,0,0.017777777777777747,204.44444444444417,0)" xlink:href="#bn"/><use transform="matrix(0.017777777777777747,0,0,0.017777777777777747,213.33333333333306,0)" xlink:href="#bk"/><use transform="matrix(0.017777777777777747,0,0,0.017777777777777747,222.22222222222192,0)" xlink:href="#bx"/><use transform="matrix(0.017777777777777747,0,0,0.017777777777777747,231.11111111111083,0)" xlink:href="#bz"/></g><path fill="#333" d="M442-383c-51 5-143 35-179 56v237h146V0H81v-92h77v-291H81v-92h180l2 48c39-23 123-50 179-56v100" id="bH"/><path fill="#333" d="M49-237c0-149 66-244 204-246 160-3 222 126 199 296H160c4 137 147 118 254 83l21 87C400-4 314 11 268 11 122 11 49-72 49-237zm208-153c-72 0-93 43-97 119h185c0-79-29-119-88-119" id="bI"/><path fill="#333" d="M472-238c2 159-72 248-223 249-24 0-54-7-89-21v202H57c-3-221 7-456-6-667l100-7 6 44c45-30 84-45 119-45 147 3 195 89 196 245zm-111 2c0-172-98-181-201-107v238c107 50 201 13 201-131" id="bJ"/><path fill="#333" d="M99-575l-1-91 213-1v577h112V0H95v-90h113v-486" id="bK"/><path fill="#333" d="M151-141c0 92 147 47 181 13v-70c-81-7-182-19-181 57zm107-342c138 2 175 54 177 193 1 100-5 207 11 291L343 11l-10-46C277-4 233 11 200 11 93 11 40-40 40-141c0-149 146-155 292-141-2-72-11-101-76-104-51-1-147 17-184 30l-19-95c70-21 138-32 205-32" id="bL"/><path fill="#333" d="M29-475h112L256-89h8l97-386h109C413-287 369-74 299 102c-33 83-106 108-231 104v-93c80 0 118-14 136-69" id="bM"/><path fill="#333" d="M0 176V85h500v91H0" id="bN"/><path fill="#333" d="M264-390c-57 0-91-1-91 42 0 15 7 27 19 34 32 18 184 49 208 80 24 18 36 49 36 93 0 101-62 151-186 151-58 0-120-11-187-32l22-91c63 20 114 30 151 30 60 0 91-1 96-47-6-49-34-44-86-60-109-34-177-35-177-150 0-95 61-143 184-143 53 0 114 9 183 26l-19 95c-66-19-117-28-153-28" id="bO"/><path fill="#333" d="M208 10C90 8 54-59 53-185v-290h103v284c-4 137 104 115 181 62v-346h103V0H340l-2-35c-53 30-97 45-130 45" id="bP"/><path fill="#333" d="M203-274c-7-77 10-114-31-114-10 0-25 7-44 22V0H23v-475h98l3 27c45-48 115-46 151 3 35-25 65-38 92-38 96 0 111 54 111 165V0H376v-274c-6-79 6-114-39-114-10 0-23 7-38 20 8 39 4 148 5 205H203v-111" id="bQ"/><g id="A"><use transform="matrix(0.017777777777777747,0,0,0.017777777777777747,0,0)" xlink:href="#bH"/><use transform="matrix(0.017777777777777747,0,0,0.017777777777777747,8.888888888888873,0)" xlink:href="#bI"/><use transform="matrix(0.017777777777777747,0,0,0.017777777777777747,17.777777777777747,0)" xlink:href="#bJ"/><use transform="matrix(0.017777777777777747,0,0,0.017777777777777747,26.666666666666618,0)" xlink:href="#bK"/><use transform="matrix(0.017777777777777747,0,0,0.017777777777777747,35.55555555555549,0)" xlink:href="#bL"/><use transform="matrix(0.017777777777777747,0,0,0.017777777777777747,44.444444444444365,0)" xlink:href="#bM"/><use transform="matrix(0.017777777777777747,0,0,0.017777777777777747,53.333333333333236,0)" xlink:href="#bN"/><use transform="matrix(0.017777777777777747,0,0,0.017777777777777747,62.22222222222211,0)" xlink:href="#bH"/><use transform="matrix(0.017777777777777747,0,0,0.017777777777777747,71.11111111111099,0)" xlink:href="#bI"/><use transform="matrix(0.017777777777777747,0,0,0.017777777777777747,79.99999999999986,0)" xlink:href="#bO"/><use transform="matrix(0.017777777777777747,0,0,0.017777777777777747,88.88888888888873,0)" xlink:href="#bP"/><use transform="matrix(0.017777777777777747,0,0,0.017777777777777747,97.7777777777776,0)" xlink:href="#bQ"/><use transform="matrix(0.017777777777777747,0,0,0.017777777777777747,106.66666666666647,0)" xlink:href="#bI"/><use transform="matrix(0.017777777777777747,0,0,0.017777777777777747,115.55555555555533,0)" xlink:href="#bx"/><use transform="matrix(0.017777777777777747,0,0,0.017777777777777747,124.44444444444422,0)" xlink:href="#bn"/><use transform="matrix(0.017777777777777747,0,0,0.017777777777777747,133.3333333333331,0)" xlink:href="#br"/><use transform="matrix(0.017777777777777747,0,0,0.017777777777777747,142.22222222222197,0)" xlink:href="#bl"/><use transform="matrix(0.017777777777777747,0,0,0.017777777777777747,151.11111111111086,0)" xlink:href="#bt"/><use transform="matrix(0.017777777777777747,0,0,0.017777777777777747,159.99999999999974,0)" xlink:href="#bf"/><use transform="matrix(0.017777777777777747,0,0,0.017777777777777747,168.88888888888863,0)" xlink:href="#bn"/><use transform="matrix(0.017777777777777747,0,0,0.017777777777777747,177.77777777777754,0)" xlink:href="#bk"/><use transform="matrix(0.017777777777777747,0,0,0.017777777777777747,186.6666666666664,0)" xlink:href="#bE"/></g><g id="B"><use transform="matrix(0.017777777777777747,0,0,0.017777777777777747,0,0)" xlink:href="#by"/><use transform="matrix(0.017777777777777747,0,0,0.017777777777777747,8.888888888888873,0)" xlink:href="#bh"/><use transform="matrix(0.017777777777777747,0,0,0.017777777777777747,17.777777777777747,0)" xlink:href="#bi"/><use transform="matrix(0.017777777777777747,0,0,0.017777777777777747,26.666666666666618,0)" xlink:href="#bj"/><use transform="matrix(0.017777777777777747,0,0,0.017777777777777747,35.55555555555549,0)" xlink:href="#be"/><use transform="matrix(0.017777777777777747,0,0,0.017777777777777747,44.444444444444365,0)" xlink:href="#bt"/><use transform="matrix(0.017777777777777747,0,0,0.017777777777777747,53.333333333333236,0)" xlink:href="#bk"/><use transform="matrix(0.017777777777777747,0,0,0.017777777777777747,62.22222222222211,0)" xlink:href="#bE"/></g><use transform="matrix(0.017777777777777747,0,0,0.017777777777777747,0,0)" xlink:href="#bz" id="C"/><g id="D"><use transform="matrix(0.017777777777777747,0,0,0.017777777777777747,0,0)" xlink:href="#be"/><use transform="matrix(0.017777777777777747,0,0,0.017777777777777747,8.888888888888873,0)" xlink:href="#be"/><use transform="matrix(0.017777777777777747,0,0,0.017777777777777747,17.777777777777747,0)" xlink:href="#be"/></g><path fill="#333" d="M665-137c214 0 337-121 336-332v-987h193v990c-3 300-218 486-529 486-309 0-526-181-525-484v-992h190v986c-1 210 123 333 335 333" id="bR"/><path fill="#333" d="M599-131c141 0 220-65 285-146l113 88C906-50 770 20 589 20 281 21 93-214 93-545c0-223 93-397 233-485 74-48 154-72 240-72 300 2 449 218 445 537v77H278c0 197 129 357 321 357zm227-509c-3-180-88-310-260-310-170 0-264 140-282 310h542" id="bS"/><path fill="#333" d="M688-137c238 0 323-102 359-325h193c-32 297-228 482-552 482-361 0-569-299-569-680 0-197 8-360 73-497 88-186 257-317 513-319 316-2 509 195 535 488h-193c-31-212-118-330-342-330-272 0-397 224-393 523v141c-3 282 115 517 376 517" id="bT"/><path fill="#333" d="M634-1102c292 0 422 254 422 573 0 298-143 547-420 549-137 0-242-48-317-145L310 0H140v-1536h185v573c75-93 178-139 309-139zm-44 965c207 0 281-175 281-413 0-224-79-395-283-395-122 0-210 57-263 170v468c57 113 145 170 265 170" id="bU"/><g id="E"><use transform="matrix(0.009765624999999986,0,0,0.009765624999999986,0,0)" xlink:href="#bR"/><use transform="matrix(0.009765624999999986,0,0,0.009765624999999986,12.968749999999982,0)" xlink:href="#aL"/><use transform="matrix(0.009765624999999986,0,0,0.009765624999999986,23.281249999999968,0)" xlink:href="#bS"/><use transform="matrix(0.009765624999999986,0,0,0.009765624999999986,33.87695312499996,0)" xlink:href="#aK"/><use transform="matrix(0.009765624999999986,0,0,0.009765624999999986,40.64453124999995,0)" xlink:href="#bT"/><use transform="matrix(0.009765624999999986,0,0,0.009765624999999986,53.662109374999936,0)" xlink:href="#bU"/><path fill="#333" d="M-1 .98h66.88v.98H-1z"/></g><path fill="#333" d="M1031-175C952-60 797 20 609 20 287 20 60-206 72-543c12-330 180-559 505-559 309 0 482 214 477 537v118H365c15 134 115 234 263 234 111 0 198-40 261-121zM770-644c5-139-62-226-194-224-130 1-191 97-208 224h402" id="bV"/><path fill="#333" d="M515-409l200-673h310L590 168c-66 202-236 321-472 250V199c127 7 198-15 230-107l34-89L3-1082h311" id="bW"/><g id="F"><use transform="matrix(0.009765624999999986,0,0,0.009765624999999986,0,0)" xlink:href="#aT"/><use transform="matrix(0.009765624999999986,0,0,0.009765624999999986,11.259765624999984,0)" xlink:href="#aU"/><use transform="matrix(0.009765624999999986,0,0,0.009765624999999986,18.55468749999997,0)" xlink:href="#aV"/><use transform="matrix(0.009765624999999986,0,0,0.009765624999999986,29.814453124999957,0)" xlink:href="#aW"/><use transform="matrix(0.009765624999999986,0,0,0.009765624999999986,38.74023437499994,0)" xlink:href="#aU"/><use transform="matrix(0.009765624999999986,0,0,0.009765624999999986,45.84960937499993,0)" xlink:href="#bV"/><use transform="matrix(0.009765624999999986,0,0,0.009765624999999986,56.66015624999991,0)" xlink:href="#aT"/><use transform="matrix(0.009765624999999986,0,0,0.009765624999999986,67.9199218749999,0)" xlink:href="#aY"/><use transform="matrix(0.009765624999999986,0,0,0.009765624999999986,73.22265624999989,0)" xlink:href="#aZ"/><use transform="matrix(0.009765624999999986,0,0,0.009765624999999986,83.79882812499989,0)" xlink:href="#bW"/><use transform="matrix(0.009765624999999986,0,0,0.009765624999999986,93.83789062499987,0)" xlink:href="#bc"/><use transform="matrix(0.009765624999999986,0,0,0.009765624999999986,100.85937499999984,0)" xlink:href="#bd"/></g><g id="G"><use transform="matrix(0.017777777777777747,0,0,0.017777777777777747,0,0)" xlink:href="#bn"/><use transform="matrix(0.017777777777777747,0,0,0.017777777777777747,8.888888888888873,0)" xlink:href="#br"/><use transform="matrix(0.017777777777777747,0,0,0.017777777777777747,17.777777777777747,0)" xlink:href="#bl"/><use transform="matrix(0.017777777777777747,0,0,0.017777777777777747,26.666666666666618,0)" xlink:href="#bt"/><use transform="matrix(0.017777777777777747,0,0,0.017777777777777747,35.55555555555549,0)" xlink:href="#bf"/><use transform="matrix(0.017777777777777747,0,0,0.017777777777777747,44.444444444444365,0)" xlink:href="#bn"/><use transform="matrix(0.017777777777777747,0,0,0.017777777777777747,53.333333333333236,0)" xlink:href="#bk"/></g><g id="H"><use transform="matrix(0.017777777777777747,0,0,0.017777777777777747,0,0)" xlink:href="#bl"/><use transform="matrix(0.017777777777777747,0,0,0.017777777777777747,8.888888888888873,0)" xlink:href="#bh"/><use transform="matrix(0.017777777777777747,0,0,0.017777777777777747,17.777777777777747,0)" xlink:href="#bn"/></g><g id="I"><use transform="matrix(0.017777777777777747,0,0,0.017777777777777747,0,0)" xlink:href="#bl"/><use transform="matrix(0.017777777777777747,0,0,0.017777777777777747,8.888888888888873,0)" xlink:href="#bh"/><use transform="matrix(0.017777777777777747,0,0,0.017777777777777747,17.777777777777747,0)" xlink:href="#bm"/><use transform="matrix(0.017777777777777747,0,0,0.017777777777777747,26.666666666666618,0)" xlink:href="#bl"/></g><path fill="#333" d="M454-244c0 140-72 254-205 253-39 0-79-10-120-29l-2 20H77v-664h53v235c50-35 95-52 136-52 130 1 188 98 188 237zm-57 1c0-105-38-184-134-186-43 0-88 19-133 57v300c22 11 85 29 117 29 100 0 150-94 150-200" id="bX"/><path fill="#333" d="M225-318c-2-64-4-112-59-112-23 0-49 11-78 32V0H35v-475h50l3 30c33-24 59-36 77-36 44 0 74 14 91 43 37-29 70-43 98-43 96 2 113 62 113 163V0h-53v-318c-2-64-3-112-58-112-23 0-51 11-84 32 11 71 4 165 6 246h-53v-166" id="bY"/><g id="K"><use transform="matrix(0.017777777777777747,0,0,0.017777777777777747,0,0)" xlink:href="#bu"/><use transform="matrix(0.017777777777777747,0,0,0.017777777777777747,8.888888888888873,0)" xlink:href="#bt"/><use transform="matrix(0.017777777777777747,0,0,0.017777777777777747,17.777777777777747,0)" xlink:href="#bX"/><use transform="matrix(0.017777777777777747,0,0,0.017777777777777747,26.666666666666618,0)" xlink:href="#bw"/><use transform="matrix(0.017777777777777747,0,0,0.017777777777777747,35.55555555555549,0)" xlink:href="#bA"/><use transform="matrix(0.017777777777777747,0,0,0.017777777777777747,44.444444444444365,0)" xlink:href="#bj"/><use transform="matrix(0.017777777777777747,0,0,0.017777777777777747,53.333333333333236,0)" xlink:href="#bm"/><use transform="matrix(0.017777777777777747,0,0,0.017777777777777747,62.22222222222211,0)" xlink:href="#bf"/><use transform="matrix(0.017777777777777747,0,0,0.017777777777777747,71.11111111111099,0)" xlink:href="#bY"/></g><g id="L"><use transform="matrix(0.017777777777777747,0,0,0.017777777777777747,0,0)" xlink:href="#bh"/><use transform="matrix(0.017777777777777747,0,0,0.017777777777777747,8.888888888888873,0)" xlink:href="#bn"/><use transform="matrix(0.017777777777777747,0,0,0.017777777777777747,17.777777777777747,0)" xlink:href="#bj"/><use transform="matrix(0.017777777777777747,0,0,0.017777777777777747,26.666666666666618,0)" xlink:href="#bi"/></g><g id="M"><use transform="matrix(0.017777777777777747,0,0,0.017777777777777747,0,0)" xlink:href="#br"/><use transform="matrix(0.017777777777777747,0,0,0.017777777777777747,8.888888888888873,0)" xlink:href="#bk"/></g><g id="N"><use transform="matrix(0.017777777777777747,0,0,0.017777777777777747,0,0)" xlink:href="#bH"/><use transform="matrix(0.017777777777777747,0,0,0.017777777777777747,8.888888888888873,0)" xlink:href="#bI"/><use transform="matrix(0.017777777777777747,0,0,0.017777777777777747,17.777777777777747,0)" xlink:href="#bJ"/><use transform="matrix(0.017777777777777747,0,0,0.017777777777777747,26.666666666666618,0)" xlink:href="#bK"/><use transform="matrix(0.017777777777777747,0,0,0.017777777777777747,35.55555555555549,0)" xlink:href="#bL"/><use transform="matrix(0.017777777777777747,0,0,0.017777777777777747,44.444444444444365,0)" xlink:href="#bM"/><use transform="matrix(0.017777777777777747,0,0,0.017777777777777747,53.333333333333236,0)" xlink:href="#bN"/><use transform="matrix(0.017777777777777747,0,0,0.017777777777777747,62.22222222222211,0)" xlink:href="#bH"/><use transform="matrix(0.017777777777777747,0,0,0.017777777777777747,71.11111111111099,0)" xlink:href="#bI"/><use transform="matrix(0.017777777777777747,0,0,0.017777777777777747,79.99999999999986,0)" xlink:href="#bO"/><use transform="matrix(0.017777777777777747,0,0,0.017777777777777747,88.88888888888873,0)" xlink:href="#bP"/><use transform="matrix(0.017777777777777747,0,0,0.017777777777777747,97.7777777777776,0)" xlink:href="#bQ"/><use transform="matrix(0.017777777777777747,0,0,0.017777777777777747,106.66666666666647,0)" xlink:href="#bI"/><use transform="matrix(0.017777777777777747,0,0,0.017777777777777747,115.55555555555533,0)" xlink:href="#bx"/><use transform="matrix(0.017777777777777747,0,0,0.017777777777777747,124.44444444444422,0)" xlink:href="#bn"/><use transform="matrix(0.017777777777777747,0,0,0.017777777777777747,133.3333333333331,0)" xlink:href="#br"/><use transform="matrix(0.017777777777777747,0,0,0.017777777777777747,142.22222222222197,0)" xlink:href="#bl"/><use transform="matrix(0.017777777777777747,0,0,0.017777777777777747,151.11111111111086,0)" xlink:href="#bt"/><use transform="matrix(0.017777777777777747,0,0,0.017777777777777747,159.99999999999974,0)" xlink:href="#bf"/><use transform="matrix(0.017777777777777747,0,0,0.017777777777777747,168.88888888888863,0)" xlink:href="#bn"/><use transform="matrix(0.017777777777777747,0,0,0.017777777777777747,177.77777777777754,0)" xlink:href="#bk"/><use transform="matrix(0.017777777777777747,0,0,0.017777777777777747,186.6666666666664,0)" xlink:href="#bE"/></g><g id="O"><use transform="matrix(0.017777777777777747,0,0,0.017777777777777747,0,0)" xlink:href="#by"/><use transform="matrix(0.017777777777777747,0,0,0.017777777777777747,8.888888888888873,0)" xlink:href="#bh"/><use transform="matrix(0.017777777777777747,0,0,0.017777777777777747,17.777777777777747,0)" xlink:href="#bi"/><use transform="matrix(0.017777777777777747,0,0,0.017777777777777747,26.666666666666618,0)" xlink:href="#bj"/><use transform="matrix(0.017777777777777747,0,0,0.017777777777777747,35.55555555555549,0)" xlink:href="#be"/><use transform="matrix(0.017777777777777747,0,0,0.017777777777777747,44.444444444444365,0)" xlink:href="#bt"/><use transform="matrix(0.017777777777777747,0,0,0.017777777777777747,53.333333333333236,0)" xlink:href="#bk"/><use transform="matrix(0.017777777777777747,0,0,0.017777777777777747,62.22222222222211,0)" xlink:href="#bE"/></g><use transform="matrix(0.017777777777777747,0,0,0.017777777777777747,0,0)" xlink:href="#bz" id="P"/><path fill="#333" d="M529-185c94 0 168-33 168-114 0-35-18-63-53-83s-91-39-168-55C219-491 90-600 90-765c0-208 203-337 432-337 246 0 451 124 453 349H686c-2-91-62-143-165-143-86 0-151 41-153 117 0 32 16 57 46 77 63 43 257 69 335 100 151 60 229 153 229 291C978-13 554 93 282-28 162-81 60-190 56-344h274c5 106 86 159 199 159" id="bZ"/><path fill="#333" d="M463 20c-241-1-359-147-359-393v-709h289v699c0 113 51 169 154 169 98 0 165-34 202-102v-766h290V0H767l-8-110C688-23 589 20 463 20" id="ca"/><g id="Q"><use transform="matrix(0.009765624999999986,0,0,0.009765624999999986,0,0)" xlink:href="#aU"/><use transform="matrix(0.009765624999999986,0,0,0.009765624999999986,7.1093749999999885,0)" xlink:href="#bV"/><use transform="matrix(0.009765624999999986,0,0,0.009765624999999986,17.91992187499997,0)" xlink:href="#aT"/><use transform="matrix(0.009765624999999986,0,0,0.009765624999999986,29.179687499999957,0)" xlink:href="#aY"/><use transform="matrix(0.009765624999999986,0,0,0.009765624999999986,34.48242187499995,0)" xlink:href="#aZ"/><use transform="matrix(0.009765624999999986,0,0,0.009765624999999986,45.058593749999936,0)" xlink:href="#bW"/><use transform="matrix(0.009765624999999986,0,0,0.009765624999999986,55.09765624999992,0)" xlink:href="#aW"/><use transform="matrix(0.009765624999999986,0,0,0.009765624999999986,64.02343749999991,0)" xlink:href="#aU"/><use transform="matrix(0.009765624999999986,0,0,0.009765624999999986,71.1328124999999,0)" xlink:href="#bV"/><use transform="matrix(0.009765624999999986,0,0,0.009765624999999986,81.94335937499989,0)" xlink:href="#bZ"/><use transform="matrix(0.009765624999999986,0,0,0.009765624999999986,92.22656249999987,0)" xlink:href="#ca"/><use transform="matrix(0.009765624999999986,0,0,0.009765624999999986,103.41796874999986,0)" xlink:href="#bb"/><use transform="matrix(0.009765624999999986,0,0,0.009765624999999986,120.73242187499983,0)" xlink:href="#bV"/><use transform="matrix(0.009765624999999986,0,0,0.009765624999999986,131.5429687499998,0)" xlink:href="#bc"/><use transform="matrix(0.009765624999999986,0,0,0.009765624999999986,138.5644531249998,0)" xlink:href="#bd"/></g><path fill="#333" d="M82 0v-655h341v49H137v248h259v49H137v260h289V0H82" id="cb"/><path fill="#333" d="M60-475h69l121 196 120-196h67L287-241 446 0h-68L250-203 123 0H55l161-241" id="cc"/><g id="R"><use transform="matrix(0.019999999999999973,0,0,0.019999999999999973,0,0)" xlink:href="#cb"/><use transform="matrix(0.019999999999999973,0,0,0.019999999999999973,9.999999999999986,0)" xlink:href="#cc"/><use transform="matrix(0.019999999999999973,0,0,0.019999999999999973,19.99999999999997,0)" xlink:href="#bn"/><use transform="matrix(0.019999999999999973,0,0,0.019999999999999973,29.999999999999957,0)" xlink:href="#bA"/><use transform="matrix(0.019999999999999973,0,0,0.019999999999999973,39.99999999999994,0)" xlink:href="#bF"/><use transform="matrix(0.019999999999999973,0,0,0.019999999999999973,49.99999999999993,0)" xlink:href="#bl"/><use transform="matrix(0.019999999999999973,0,0,0.019999999999999973,59.999999999999915,0)" xlink:href="#bn"/></g><g id="S"><use transform="matrix(0.019999999999999973,0,0,0.019999999999999973,0,0)" xlink:href="#bt"/><use transform="matrix(0.019999999999999973,0,0,0.019999999999999973,9.999999999999986,0)" xlink:href="#bn"/><use transform="matrix(0.019999999999999973,0,0,0.019999999999999973,19.99999999999997,0)" xlink:href="#bu"/><use transform="matrix(0.019999999999999973,0,0,0.019999999999999973,29.999999999999957,0)" xlink:href="#bj"/><use transform="matrix(0.019999999999999973,0,0,0.019999999999999973,39.99999999999994,0)" xlink:href="#bm"/><use transform="matrix(0.019999999999999973,0,0,0.019999999999999973,49.99999999999993,0)" xlink:href="#bv"/></g><g id="T"><use transform="matrix(0.019999999999999973,0,0,0.019999999999999973,0,0)" xlink:href="#bm"/><use transform="matrix(0.019999999999999973,0,0,0.019999999999999973,9.999999999999986,0)" xlink:href="#bj"/><use transform="matrix(0.019999999999999973,0,0,0.019999999999999973,19.99999999999997,0)" xlink:href="#bq"/><use transform="matrix(0.019999999999999973,0,0,0.019999999999999973,29.999999999999957,0)" xlink:href="#bp"/><use transform="matrix(0.019999999999999973,0,0,0.019999999999999973,39.99999999999994,0)" xlink:href="#bt"/><use transform="matrix(0.019999999999999973,0,0,0.019999999999999973,49.99999999999993,0)" xlink:href="#bf"/><use transform="matrix(0.019999999999999973,0,0,0.019999999999999973,59.999999999999915,0)" xlink:href="#bl"/><use transform="matrix(0.019999999999999973,0,0,0.019999999999999973,69.9999999999999,0)" xlink:href="#bh"/><use transform="matrix(0.019999999999999973,0,0,0.019999999999999973,79.99999999999989,0)" xlink:href="#bY"/></g><path fill="#333" d="M390-292L44-502l27-41 379 235v32L71-31 45-72" id="cd"/><g id="U"><use transform="matrix(0.019999999999999973,0,0,0.019999999999999973,0,0)" xlink:href="#bo"/><use transform="matrix(0.019999999999999973,0,0,0.019999999999999973,9.999999999999986,0)" xlink:href="#cd"/></g><g id="V"><use transform="matrix(0.019999999999999973,0,0,0.019999999999999973,0,0)" xlink:href="#bF"/><use transform="matrix(0.019999999999999973,0,0,0.019999999999999973,9.999999999999986,0)" xlink:href="#bu"/><use transform="matrix(0.019999999999999973,0,0,0.019999999999999973,19.99999999999997,0)" xlink:href="#bi"/><use transform="matrix(0.019999999999999973,0,0,0.019999999999999973,29.999999999999957,0)" xlink:href="#bm"/><use transform="matrix(0.019999999999999973,0,0,0.019999999999999973,39.99999999999994,0)" xlink:href="#bl"/><use transform="matrix(0.019999999999999973,0,0,0.019999999999999973,49.99999999999993,0)" xlink:href="#bn"/><use transform="matrix(0.019999999999999973,0,0,0.019999999999999973,59.999999999999915,0)" xlink:href="#bk"/></g><path fill="#333" d="M232-42c81 1 145-49 142-131-4-106-46-113-148-141-106-30-169-63-172-184-4-177 220-197 370-136l-14 51c-113-45-296-56-296 85 0 101 52 108 150 138 108 34 166 56 169 186 2 115-90 186-206 184-45 0-103-10-172-29l13-51c68 19 123 28 164 28" id="ce"/><g id="W"><use transform="matrix(0.019999999999999973,0,0,0.019999999999999973,0,0)" xlink:href="#bC"/><use transform="matrix(0.019999999999999973,0,0,0.019999999999999973,9.999999999999986,0)" xlink:href="#bn"/><use transform="matrix(0.019999999999999973,0,0,0.019999999999999973,19.99999999999997,0)" xlink:href="#bu"/><use transform="matrix(0.019999999999999973,0,0,0.019999999999999973,29.999999999999957,0)" xlink:href="#bj"/><use transform="matrix(0.019999999999999973,0,0,0.019999999999999973,39.99999999999994,0)" xlink:href="#bm"/><use transform="matrix(0.019999999999999973,0,0,0.019999999999999973,49.99999999999993,0)" xlink:href="#bv"/><use transform="matrix(0.019999999999999973,0,0,0.019999999999999973,59.999999999999915,0)" xlink:href="#ce"/><use transform="matrix(0.019999999999999973,0,0,0.019999999999999973,69.9999999999999,0)" xlink:href="#bl"/><use transform="matrix(0.019999999999999973,0,0,0.019999999999999973,79.99999999999989,0)" xlink:href="#bm"/><use transform="matrix(0.019999999999999973,0,0,0.019999999999999973,89.99999999999987,0)" xlink:href="#bl"/><use transform="matrix(0.019999999999999973,0,0,0.019999999999999973,99.99999999999986,0)" xlink:href="#bn"/></g><g id="X"><use transform="matrix(0.019999999999999973,0,0,0.019999999999999973,0,0)" xlink:href="#bm"/><use transform="matrix(0.019999999999999973,0,0,0.019999999999999973,9.999999999999986,0)" xlink:href="#br"/><use transform="matrix(0.019999999999999973,0,0,0.019999999999999973,19.99999999999997,0)" xlink:href="#bi"/></g><path fill="#333" d="M53-475h60L244-48h18l126-427h60L303 0H203" id="cf"/><g id="Z"><use transform="matrix(0.019999999999999973,0,0,0.019999999999999973,0,0)" xlink:href="#bf"/><use transform="matrix(0.019999999999999973,0,0,0.019999999999999973,9.999999999999986,0)" xlink:href="#br"/><use transform="matrix(0.019999999999999973,0,0,0.019999999999999973,19.99999999999997,0)" xlink:href="#cf"/><use transform="matrix(0.019999999999999973,0,0,0.019999999999999973,29.999999999999957,0)" xlink:href="#bp"/><use transform="matrix(0.019999999999999973,0,0,0.019999999999999973,39.99999999999994,0)" xlink:href="#bG"/><use transform="matrix(0.019999999999999973,0,0,0.019999999999999973,49.99999999999993,0)" xlink:href="#bn"/><use transform="matrix(0.019999999999999973,0,0,0.019999999999999973,59.999999999999915,0)" xlink:href="#bk"/></g><path fill="#333" d="M281 10C102 10 55-122 55-327c0-208 42-338 227-338 52 0 104 8 157 25v132h-55v-89c-29-11-63-16-102-16-146 0-168 114-168 284 0 100 14 173 42 218 57 91 162 76 276 41l13 52C390 1 336 10 281 10" id="cg"/><g id="aa"><use transform="matrix(0.019999999999999973,0,0,0.019999999999999973,0,0)" xlink:href="#cg"/><use transform="matrix(0.019999999999999973,0,0,0.019999999999999973,9.999999999999986,0)" xlink:href="#bm"/><use transform="matrix(0.019999999999999973,0,0,0.019999999999999973,19.99999999999997,0)" xlink:href="#bj"/><use transform="matrix(0.019999999999999973,0,0,0.019999999999999973,29.999999999999957,0)" xlink:href="#bj"/><use transform="matrix(0.019999999999999973,0,0,0.019999999999999973,39.99999999999994,0)" xlink:href="#bX"/><use transform="matrix(0.019999999999999973,0,0,0.019999999999999973,49.99999999999993,0)" xlink:href="#bm"/><use transform="matrix(0.019999999999999973,0,0,0.019999999999999973,59.999999999999915,0)" xlink:href="#bA"/><use transform="matrix(0.019999999999999973,0,0,0.019999999999999973,69.9999999999999,0)" xlink:href="#bG"/></g><path fill="#333" d="M1288 0h-193L362-1122V0H169v-1456h193l735 1127v-1127h191V0" id="ch"/><path fill="#333" d="M584 20C278 26 81-227 91-551c10-320 175-545 491-551 308-5 503 247 494 573-9 322-175 543-492 549zm-2-970c-208 0-305 185-305 421 0 216 106 398 307 398 211 0 307-186 307-420 0-214-109-399-309-399" id="ci"/><path fill="#333" d="M631-137c179 0 314-70 314-231 0-71-25-127-75-166s-141-77-272-115c-165-47-285-106-360-175s-112-154-112-255c0-245 231-397 495-397 206 0 369 89 449 218 43 68 65 142 65 223H942c0-184-129-283-321-283-172 0-299 76-301 236 0 59 26 109 76 150s135 78 256 113c205 59 345 116 436 256 35 53 50 119 50 193-2 256-231 398-507 390C333 12 90-129 80-422h193c0 187 160 285 358 285" id="cj"/><g id="ab"><use transform="matrix(0.009765624999999986,0,0,0.009765624999999986,0,0)" xlink:href="#ch"/><use transform="matrix(0.009765624999999986,0,0,0.009765624999999986,14.25781249999998,0)" xlink:href="#ci"/><use transform="matrix(0.009765624999999986,0,0,0.009765624999999986,25.664062499999964,0)" xlink:href="#aG"/><use transform="matrix(0.009765624999999986,0,0,0.009765624999999986,36.94335937499995,0)" xlink:href="#bS"/><use transform="matrix(0.009765624999999986,0,0,0.009765624999999986,47.53906249999993,0)" xlink:href="#cj"/><use transform="matrix(0.009765624999999986,0,0,0.009765624999999986,59.40429687499992,0)" xlink:href="#bS"/><use transform="matrix(0.009765624999999986,0,0,0.009765624999999986,69.99999999999991,0)" xlink:href="#aM"/></g><path fill="#333" d="M1161-1018c0 201-122 330-278 388l342 618V0h-206L703-589H361V0H168v-1456h482c310-2 511 139 511 438zm-193 0c0-187-120-280-313-280H361v552h295c179 3 313-101 312-272" id="ck"/><path fill="#333" d="M561-1102c238-4 403 126 403 351v498c0 99 13 178 38 237V0H808c-11-21-19-59-26-114C696-25 593 20 474 20c-199 0-368-130-365-320 4-251 214-359 490-356h180v-85c-1-135-86-212-229-212-115 0-232 67-233 171H131c20-205 206-316 430-320zM294-326c0 117 90 185 207 185 122 0 239-75 278-162v-222H634c-227 0-340 66-340 199" id="cl"/><path fill="#333" d="M494-271l252-811h198L509 167C425 381 299 474 84 421V271c167 16 242-37 283-173l41-110L22-1082h202" id="cm"/><g id="ac"><use transform="matrix(0.009765624999999986,0,0,0.009765624999999986,0,0)" xlink:href="#aQ"/><use transform="matrix(0.009765624999999986,0,0,0.009765624999999986,8.613281249999988,0)" xlink:href="#ck"/><use transform="matrix(0.009765624999999986,0,0,0.009765624999999986,20.92773437499997,0)" xlink:href="#bS"/><use transform="matrix(0.009765624999999986,0,0,0.009765624999999986,31.523437499999954,0)" xlink:href="#aS"/><use transform="matrix(0.009765624999999986,0,0,0.009765624999999986,42.744140624999936,0)" xlink:href="#aH"/><use transform="matrix(0.009765624999999986,0,0,0.009765624999999986,47.59765624999993,0)" xlink:href="#cl"/><use transform="matrix(0.009765624999999986,0,0,0.009765624999999986,58.33007812499993,0)" xlink:href="#cm"/><use transform="matrix(0.009765624999999986,0,0,0.009765624999999986,67.79296874999991,0)" xlink:href="#cj"/><use transform="matrix(0.009765624999999986,0,0,0.009765624999999986,79.6582031249999,0)" xlink:href="#aM"/><use transform="matrix(0.009765624999999986,0,0,0.009765624999999986,86.19140624999987,0)" xlink:href="#cl"/><use transform="matrix(0.009765624999999986,0,0,0.009765624999999986,97.07031249999989,0)" xlink:href="#aM"/><use transform="matrix(0.009765624999999986,0,0,0.009765624999999986,103.60351562499986,0)" xlink:href="#bS"/></g><path fill="#333" d="M277-555c0 244 77 420 297 424 127 2 249-93 255-210h175C980-127 805 20 574 20 258 20 81-222 92-562c11-319 164-533 481-540 237-5 426 165 431 392H829c-7-133-115-242-256-240-209 4-296 166-296 395" id="cn"/><path fill="#333" d="M442-501L326-380V0H141v-1536h185v929c135-169 291-317 436-475h225L566-630 1036 0H819" id="co"/><g id="ad"><use transform="matrix(0.009765624999999986,0,0,0.009765624999999986,0,0)" xlink:href="#bT"/><use transform="matrix(0.009765624999999986,0,0,0.009765624999999986,13.017578124999982,0)" xlink:href="#cl"/><use transform="matrix(0.009765624999999986,0,0,0.009765624999999986,23.896484374999964,0)" xlink:href="#aH"/><use transform="matrix(0.009765624999999986,0,0,0.009765624999999986,28.749999999999957,0)" xlink:href="#aH"/><use transform="matrix(0.009765624999999986,0,0,0.009765624999999986,33.60351562499995,0)" xlink:href="#bU"/><use transform="matrix(0.009765624999999986,0,0,0.009765624999999986,44.824218749999936,0)" xlink:href="#cl"/><use transform="matrix(0.009765624999999986,0,0,0.009765624999999986,55.70312499999992,0)" xlink:href="#cn"/><use transform="matrix(0.009765624999999986,0,0,0.009765624999999986,66.17187499999991,0)" xlink:href="#co"/></g><g id="ae"><use transform="matrix(0.009765624999999986,0,0,0.009765624999999986,0,0)" xlink:href="#ck"/><use transform="matrix(0.009765624999999986,0,0,0.009765624999999986,12.314453124999982,0)" xlink:href="#bS"/><use transform="matrix(0.009765624999999986,0,0,0.009765624999999986,22.910156249999968,0)" xlink:href="#aS"/><use transform="matrix(0.009765624999999986,0,0,0.009765624999999986,34.13085937499995,0)" xlink:href="#aH"/><use transform="matrix(0.009765624999999986,0,0,0.009765624999999986,38.98437499999994,0)" xlink:href="#cl"/><use transform="matrix(0.009765624999999986,0,0,0.009765624999999986,49.71679687499993,0)" xlink:href="#cm"/><use transform="matrix(0.009765624999999986,0,0,0.009765624999999986,59.179687499999915,0)" xlink:href="#ch"/><use transform="matrix(0.009765624999999986,0,0,0.009765624999999986,73.4374999999999,0)" xlink:href="#ci"/><use transform="matrix(0.009765624999999986,0,0,0.009765624999999986,84.84374999999989,0)" xlink:href="#aG"/><use transform="matrix(0.009765624999999986,0,0,0.009765624999999986,96.12304687499986,0)" xlink:href="#bS"/></g><path fill="#333" d="M1240-945c-141 0-250 95-250 227V0H804v-709c0-157-77-236-231-236-121 0-204 52-249 155V0H139v-1082h175l5 120c79-93 186-140 321-140 151 0 254 58 309 174 69-98 181-174 345-174 237 0 362 126 362 377V0h-185v-714c-2-159-67-231-231-231" id="cp"/><g id="af"><use transform="matrix(0.009765624999999986,0,0,0.009765624999999986,0,0)" xlink:href="#ck"/><use transform="matrix(0.009765624999999986,0,0,0.009765624999999986,12.314453124999982,0)" xlink:href="#bS"/><use transform="matrix(0.009765624999999986,0,0,0.009765624999999986,22.910156249999968,0)" xlink:href="#aL"/><use transform="matrix(0.009765624999999986,0,0,0.009765624999999986,33.22265624999996,0)" xlink:href="#aR"/><use transform="matrix(0.009765624999999986,0,0,0.009765624999999986,44.24804687499994,0)" xlink:href="#cp"/><use transform="matrix(0.009765624999999986,0,0,0.009765624999999986,61.777343749999915,0)" xlink:href="#bS"/><use transform="matrix(0.009765624999999986,0,0,0.009765624999999986,72.3730468749999,0)" xlink:href="#cj"/><use transform="matrix(0.009765624999999986,0,0,0.009765624999999986,84.23828124999989,0)" xlink:href="#aM"/><use transform="matrix(0.009765624999999986,0,0,0.009765624999999986,90.77148437499987,0)" xlink:href="#cl"/><use transform="matrix(0.009765624999999986,0,0,0.009765624999999986,101.65039062499986,0)" xlink:href="#aM"/><use transform="matrix(0.009765624999999986,0,0,0.009765624999999986,108.18359374999984,0)" xlink:href="#bS"/></g><g id="ag"><use transform="matrix(0.009765624999999986,0,0,0.009765624999999986,0,0)" xlink:href="#aT"/><use transform="matrix(0.009765624999999986,0,0,0.009765624999999986,11.259765624999984,0)" xlink:href="#aU"/><use transform="matrix(0.009765624999999986,0,0,0.009765624999999986,18.55468749999997,0)" xlink:href="#aV"/><use transform="matrix(0.009765624999999986,0,0,0.009765624999999986,29.814453124999957,0)" xlink:href="#aW"/><use transform="matrix(0.009765624999999986,0,0,0.009765624999999986,38.74023437499994,0)" xlink:href="#aU"/><use transform="matrix(0.009765624999999986,0,0,0.009765624999999986,45.84960937499993,0)" xlink:href="#bV"/><use transform="matrix(0.009765624999999986,0,0,0.009765624999999986,56.66015624999991,0)" xlink:href="#aT"/><use transform="matrix(0.009765624999999986,0,0,0.009765624999999986,67.9199218749999,0)" xlink:href="#aY"/><use transform="matrix(0.009765624999999986,0,0,0.009765624999999986,73.22265624999989,0)" xlink:href="#aZ"/><use transform="matrix(0.009765624999999986,0,0,0.009765624999999986,83.79882812499989,0)" xlink:href="#bW"/><use transform="matrix(0.009765624999999986,0,0,0.009765624999999986,93.83789062499987,0)" xlink:href="#aW"/><use transform="matrix(0.009765624999999986,0,0,0.009765624999999986,102.76367187499983,0)" xlink:href="#aX"/><use transform="matrix(0.009765624999999986,0,0,0.009765624999999986,113.19335937499982,0)" xlink:href="#aV"/><use transform="matrix(0.009765624999999986,0,0,0.009765624999999986,124.45312499999983,0)" xlink:href="#bc"/><use transform="matrix(0.009765624999999986,0,0,0.009765624999999986,131.4746093749998,0)" xlink:href="#bd"/></g><path fill="#333" d="M87-425v-50h326l5 41L149-50h272V0H86l-8-41 268-384H87" id="cq"/><g id="ah"><use transform="matrix(0.017777777777777747,0,0,0.017777777777777747,0,0)" xlink:href="#cq"/><use transform="matrix(0.017777777777777747,0,0,0.017777777777777747,8.888888888888873,0)" xlink:href="#bh"/></g><g id="ai"><use transform="matrix(0.017777777777777747,0,0,0.017777777777777747,0,0)" xlink:href="#cg"/><use transform="matrix(0.017777777777777747,0,0,0.017777777777777747,8.888888888888873,0)" xlink:href="#bp"/><use transform="matrix(0.017777777777777747,0,0,0.017777777777777747,17.777777777777747,0)" xlink:href="#bY"/><use transform="matrix(0.017777777777777747,0,0,0.017777777777777747,26.666666666666618,0)" xlink:href="#bu"/><use transform="matrix(0.017777777777777747,0,0,0.017777777777777747,35.55555555555549,0)" xlink:href="#bF"/><use transform="matrix(0.017777777777777747,0,0,0.017777777777777747,44.444444444444365,0)" xlink:href="#bl"/><use transform="matrix(0.017777777777777747,0,0,0.017777777777777747,53.333333333333236,0)" xlink:href="#bn"/></g><g id="aj"><use transform="matrix(0.017777777777777747,0,0,0.017777777777777747,0,0)" xlink:href="#bF"/><use transform="matrix(0.017777777777777747,0,0,0.017777777777777747,8.888888888888873,0)" xlink:href="#bu"/><use transform="matrix(0.017777777777777747,0,0,0.017777777777777747,17.777777777777747,0)" xlink:href="#bi"/><use transform="matrix(0.017777777777777747,0,0,0.017777777777777747,26.666666666666618,0)" xlink:href="#bm"/><use transform="matrix(0.017777777777777747,0,0,0.017777777777777747,35.55555555555549,0)" xlink:href="#bl"/><use transform="matrix(0.017777777777777747,0,0,0.017777777777777747,44.444444444444365,0)" xlink:href="#bn"/><use transform="matrix(0.017777777777777747,0,0,0.017777777777777747,53.333333333333236,0)" xlink:href="#bi"/></g><path fill="#333" d="M70-605v-50h360v40L135-50h311V0H70v-40l294-565H70" id="cr"/><path fill="#333" d="M111 0v-50h113v-555H111v-50h279v50H279v555h111V0H111" id="cs"/><path fill="#333" d="M419-51V0H91v-655h55v604h273" id="ct"/><g id="ak"><use transform="matrix(0.017777777777777747,0,0,0.017777777777777747,0,0)" xlink:href="#cr"/><use transform="matrix(0.017777777777777747,0,0,0.017777777777777747,8.888888888888873,0)" xlink:href="#cs"/><use transform="matrix(0.017777777777777747,0,0,0.017777777777777747,17.777777777777747,0)" xlink:href="#ct"/></g><g id="am"><use transform="matrix(0.017777777777777747,0,0,0.017777777777777747,0,0)" xlink:href="#bh"/><use transform="matrix(0.017777777777777747,0,0,0.017777777777777747,8.888888888888873,0)" xlink:href="#bn"/><use transform="matrix(0.017777777777777747,0,0,0.017777777777777747,17.777777777777747,0)" xlink:href="#bm"/><use transform="matrix(0.017777777777777747,0,0,0.017777777777777747,26.666666666666618,0)" xlink:href="#bi"/><use transform="matrix(0.017777777777777747,0,0,0.017777777777777747,35.55555555555549,0)" xlink:href="#bn"/><use transform="matrix(0.017777777777777747,0,0,0.017777777777777747,44.444444444444365,0)" xlink:href="#bt"/></g><g id="an"><use transform="matrix(0.017777777777777747,0,0,0.017777777777777747,0,0)" xlink:href="#bg"/><use transform="matrix(0.017777777777777747,0,0,0.017777777777777747,8.888888888888873,0)" xlink:href="#bt"/><use transform="matrix(0.017777777777777747,0,0,0.017777777777777747,17.777777777777747,0)" xlink:href="#bp"/><use transform="matrix(0.017777777777777747,0,0,0.017777777777777747,26.666666666666618,0)" xlink:href="#bY"/></g><g id="ao"><use transform="matrix(0.017777777777777747,0,0,0.017777777777777747,0,0)" xlink:href="#bC"/><use transform="matrix(0.017777777777777747,0,0,0.017777777777777747,8.888888888888873,0)" xlink:href="#bn"/><use transform="matrix(0.017777777777777747,0,0,0.017777777777777747,17.777777777777747,0)" xlink:href="#bk"/><use transform="matrix(0.017777777777777747,0,0,0.017777777777777747,26.666666666666618,0)" xlink:href="#bF"/><use transform="matrix(0.017777777777777747,0,0,0.017777777777777747,35.55555555555549,0)" xlink:href="#bY"/><use transform="matrix(0.017777777777777747,0,0,0.017777777777777747,44.444444444444365,0)" xlink:href="#bn"/><use transform="matrix(0.017777777777777747,0,0,0.017777777777777747,53.333333333333236,0)" xlink:href="#ce"/><use transform="matrix(0.017777777777777747,0,0,0.017777777777777747,62.22222222222211,0)" xlink:href="#bl"/><use transform="matrix(0.017777777777777747,0,0,0.017777777777777747,71.11111111111099,0)" xlink:href="#bm"/><use transform="matrix(0.017777777777777747,0,0,0.017777777777777747,79.99999999999986,0)" xlink:href="#bl"/><use transform="matrix(0.017777777777777747,0,0,0.017777777777777747,88.88888888888873,0)" xlink:href="#bn"/></g><path fill="#333" d="M248 10C121 10 54-64 54-189v-466h55v459c0 103 47 154 141 154s141-63 141-154v-459h55v466c0 129-69 199-198 199" id="cu"/><path fill="#333" d="M394 0v-103L109-551h-3V0H51v-655h54l286 453h3v-453h55V0h-55" id="cv"/><g id="ap"><use transform="matrix(0.017777777777777747,0,0,0.017777777777777747,0,0)" xlink:href="#cu"/><use transform="matrix(0.017777777777777747,0,0,0.017777777777777747,8.888888888888873,0)" xlink:href="#bk"/><use transform="matrix(0.017777777777777747,0,0,0.017777777777777747,17.777777777777747,0)" xlink:href="#bn"/><use transform="matrix(0.017777777777777747,0,0,0.017777777777777747,26.666666666666618,0)" xlink:href="#bt"/><use transform="matrix(0.017777777777777747,0,0,0.017777777777777747,35.55555555555549,0)" xlink:href="#cg"/><use transform="matrix(0.017777777777777747,0,0,0.017777777777777747,44.444444444444365,0)" xlink:href="#bX"/><path fill="#333" d="M-.9.9h55.12v.88H-.88z"/><use transform="matrix(0.017777777777777747,0,0,0.017777777777777747,53.333333333333236,0)" xlink:href="#bx"/><use transform="matrix(0.017777777777777747,0,0,0.017777777777777747,62.22222222222211,0)" xlink:href="#bC"/><use transform="matrix(0.017777777777777747,0,0,0.017777777777777747,71.11111111111099,0)" xlink:href="#bn"/><use transform="matrix(0.017777777777777747,0,0,0.017777777777777747,79.99999999999986,0)" xlink:href="#bu"/><use transform="matrix(0.017777777777777747,0,0,0.017777777777777747,88.88888888888873,0)" xlink:href="#bj"/><use transform="matrix(0.017777777777777747,0,0,0.017777777777777747,97.7777777777776,0)" xlink:href="#bm"/><use transform="matrix(0.017777777777777747,0,0,0.017777777777777747,106.66666666666647,0)" xlink:href="#bv"/><use transform="matrix(0.017777777777777747,0,0,0.017777777777777747,115.55555555555533,0)" xlink:href="#cv"/><use transform="matrix(0.017777777777777747,0,0,0.017777777777777747,124.44444444444422,0)" xlink:href="#bp"/><use transform="matrix(0.017777777777777747,0,0,0.017777777777777747,133.3333333333331,0)" xlink:href="#bi"/><use transform="matrix(0.017777777777777747,0,0,0.017777777777777747,142.22222222222197,0)" xlink:href="#bn"/><use transform="matrix(0.017777777777777747,0,0,0.017777777777777747,151.11111111111086,0)" xlink:href="#bE"/></g><g id="aq"><use transform="matrix(0.017777777777777747,0,0,0.017777777777777747,0,0)" xlink:href="#cq"/><use transform="matrix(0.017777777777777747,0,0,0.017777777777777747,8.888888888888873,0)" xlink:href="#bh"/><use transform="matrix(0.017777777777777747,0,0,0.017777777777777747,17.777777777777747,0)" xlink:href="#bz"/></g><path fill="#999" d="M1161-1018c0 201-122 330-278 388l342 618V0h-206L703-589H361V0H168v-1456h482c310-2 511 139 511 438zm-193 0c0-187-120-280-313-280H361v552h295c179 3 313-101 312-272" id="cw"/><path fill="#999" d="M599-131c141 0 220-65 285-146l113 88C906-50 770 20 589 20 281 21 93-214 93-545c0-223 93-397 233-485 74-48 154-72 240-72 300 2 449 218 445 537v77H278c0 197 129 357 321 357zm227-509c-3-180-88-310-260-310-170 0-264 140-282 310h542" id="cx"/><path fill="#999" d="M538-131c121 0 232-49 232-156 0-50-20-88-56-117-73-60-334-92-420-143-92-55-162-110-162-238 0-190 192-317 400-317 223 0 414 129 413 338H759c0-108-110-186-227-186-119 0-215 53-215 159 0 45 18 78 53 101 76 52 331 90 416 139 98 57 169 115 169 251C955-92 760 20 538 20c-176 0-314-68-386-174-38-55-57-115-57-179h185c6 129 116 202 258 202" id="cy"/><path fill="#999" d="M491 20c-241-1-355-148-355-398v-704h185v699c0 164 67 246 200 246 141 0 235-53 282-158v-787h185V0H812l-4-107C736-22 630 20 491 20" id="cz"/><path fill="#999" d="M1240-945c-141 0-250 95-250 227V0H804v-709c0-157-77-236-231-236-121 0-204 52-249 155V0H139v-1082h175l5 120c79-93 186-140 321-140 151 0 254 58 309 174 69-98 181-174 345-174 237 0 362 126 362 377V0h-185v-714c-2-159-67-231-231-231" id="cA"/><path fill="#999" d="M631-137c179 0 314-70 314-231 0-71-25-127-75-166s-141-77-272-115c-165-47-285-106-360-175s-112-154-112-255c0-245 231-397 495-397 206 0 369 89 449 218 43 68 65 142 65 223H942c0-184-129-283-321-283-172 0-299 76-301 236 0 59 26 109 76 150s135 78 256 113c205 59 345 116 436 256 35 53 50 119 50 193-2 256-231 398-507 390C333 12 90-129 80-422h193c0 187 160 285 358 285" id="cB"/><path fill="#999" d="M456 20C285 20 205-92 206-268v-671H9v-143h197v-262h185v262h202v143H391v671c-9 125 92 149 207 118V0c-49 13-96 20-142 20" id="cC"/><path fill="#999" d="M561-1102c238-4 403 126 403 351v498c0 99 13 178 38 237V0H808c-11-21-19-59-26-114C696-25 593 20 474 20c-199 0-368-130-365-320 4-251 214-359 490-356h180v-85c-1-135-86-212-229-212-115 0-232 67-233 171H131c20-205 206-316 430-320zM294-326c0 117 90 185 207 185 122 0 239-75 278-162v-222H634c-227 0-340 66-340 199" id="cD"/><g id="as"><use transform="matrix(0.009765624999999986,0,0,0.009765624999999986,0,0)" xlink:href="#cw"/><use transform="matrix(0.009765624999999986,0,0,0.009765624999999986,12.314453124999982,0)" xlink:href="#cx"/><use transform="matrix(0.009765624999999986,0,0,0.009765624999999986,22.910156249999968,0)" xlink:href="#cy"/><use transform="matrix(0.009765624999999986,0,0,0.009765624999999986,33.22265624999996,0)" xlink:href="#cz"/><use transform="matrix(0.009765624999999986,0,0,0.009765624999999986,44.24804687499994,0)" xlink:href="#cA"/><use transform="matrix(0.009765624999999986,0,0,0.009765624999999986,61.777343749999915,0)" xlink:href="#cx"/><use transform="matrix(0.009765624999999986,0,0,0.009765624999999986,72.3730468749999,0)" xlink:href="#cB"/><use transform="matrix(0.009765624999999986,0,0,0.009765624999999986,84.23828124999989,0)" xlink:href="#cC"/><use transform="matrix(0.009765624999999986,0,0,0.009765624999999986,90.77148437499987,0)" xlink:href="#cD"/><use transform="matrix(0.009765624999999986,0,0,0.009765624999999986,101.65039062499986,0)" xlink:href="#cC"/><use transform="matrix(0.009765624999999986,0,0,0.009765624999999986,108.18359374999984,0)" xlink:href="#cx"/></g><g id="at"><use transform="matrix(0.009765624999999986,0,0,0.009765624999999986,0,0)" xlink:href="#aT"/><use transform="matrix(0.009765624999999986,0,0,0.009765624999999986,11.259765624999984,0)" xlink:href="#aU"/><use transform="matrix(0.009765624999999986,0,0,0.009765624999999986,18.55468749999997,0)" xlink:href="#aV"/><use transform="matrix(0.009765624999999986,0,0,0.009765624999999986,29.814453124999957,0)" xlink:href="#aW"/><use transform="matrix(0.009765624999999986,0,0,0.009765624999999986,38.74023437499994,0)" xlink:href="#aX"/><use transform="matrix(0.009765624999999986,0,0,0.009765624999999986,49.16992187499993,0)" xlink:href="#aY"/><use transform="matrix(0.009765624999999986,0,0,0.009765624999999986,54.47265624999992,0)" xlink:href="#aZ"/><use transform="matrix(0.009765624999999986,0,0,0.009765624999999986,65.1953124999999,0)" xlink:href="#ba"/><use transform="matrix(0.009765624999999986,0,0,0.009765624999999986,70.49804687499989,0)" xlink:href="#bb"/><use transform="matrix(0.009765624999999986,0,0,0.009765624999999986,87.81249999999986,0)" xlink:href="#aW"/><use transform="matrix(0.009765624999999986,0,0,0.009765624999999986,96.73828124999984,0)" xlink:href="#aX"/><use transform="matrix(0.009765624999999986,0,0,0.009765624999999986,107.16796874999983,0)" xlink:href="#aV"/><use transform="matrix(0.009765624999999986,0,0,0.009765624999999986,118.42773437499982,0)" xlink:href="#bc"/><use transform="matrix(0.009765624999999986,0,0,0.009765624999999986,125.4492187499998,0)" xlink:href="#bd"/></g><g id="au"><use transform="matrix(0.017777777777777747,0,0,0.017777777777777747,0,0)" xlink:href="#cb"/><use transform="matrix(0.017777777777777747,0,0,0.017777777777777747,8.888888888888873,0)" xlink:href="#br"/><use transform="matrix(0.017777777777777747,0,0,0.017777777777777747,17.777777777777747,0)" xlink:href="#bk"/><use transform="matrix(0.017777777777777747,0,0,0.017777777777777747,26.666666666666618,0)" xlink:href="#bF"/><use transform="matrix(0.017777777777777747,0,0,0.017777777777777747,35.55555555555549,0)" xlink:href="#bt"/><use transform="matrix(0.017777777777777747,0,0,0.017777777777777747,44.444444444444365,0)" xlink:href="#bn"/></g><g id="av"><use transform="matrix(0.017777777777777747,0,0,0.017777777777777747,0,0)" xlink:href="#bl"/><use transform="matrix(0.017777777777777747,0,0,0.017777777777777747,8.888888888888873,0)" xlink:href="#bh"/><use transform="matrix(0.017777777777777747,0,0,0.017777777777777747,17.777777777777747,0)" xlink:href="#bm"/><use transform="matrix(0.017777777777777747,0,0,0.017777777777777747,26.666666666666618,0)" xlink:href="#bl"/></g><g id="aw"><use transform="matrix(0.017777777777777747,0,0,0.017777777777777747,0,0)" xlink:href="#bX"/><use transform="matrix(0.017777777777777747,0,0,0.017777777777777747,8.888888888888873,0)" xlink:href="#bp"/><use transform="matrix(0.017777777777777747,0,0,0.017777777777777747,17.777777777777747,0)" xlink:href="#bi"/><use transform="matrix(0.017777777777777747,0,0,0.017777777777777747,26.666666666666618,0)" xlink:href="#bv"/></g><g id="ax"><use transform="matrix(0.017777777777777747,0,0,0.017777777777777747,0,0)" xlink:href="#bp"/><use transform="matrix(0.017777777777777747,0,0,0.017777777777777747,8.888888888888873,0)" xlink:href="#bg"/></g><path fill="#333" d="M221-463v-217h53v217h-53" id="cE"/><g id="ay"><use transform="matrix(0.017777777777777747,0,0,0.017777777777777747,0,0)" xlink:href="#bC"/><use transform="matrix(0.017777777777777747,0,0,0.017777777777777747,8.888888888888873,0)" xlink:href="#bn"/><use transform="matrix(0.017777777777777747,0,0,0.017777777777777747,17.777777777777747,0)" xlink:href="#bu"/><use transform="matrix(0.017777777777777747,0,0,0.017777777777777747,26.666666666666618,0)" xlink:href="#bj"/><use transform="matrix(0.017777777777777747,0,0,0.017777777777777747,35.55555555555549,0)" xlink:href="#bm"/><use transform="matrix(0.017777777777777747,0,0,0.017777777777777747,44.444444444444365,0)" xlink:href="#bv"/><use transform="matrix(0.017777777777777747,0,0,0.017777777777777747,53.333333333333236,0)" xlink:href="#cv"/><use transform="matrix(0.017777777777777747,0,0,0.017777777777777747,62.22222222222211,0)" xlink:href="#bp"/><use transform="matrix(0.017777777777777747,0,0,0.017777777777777747,71.11111111111099,0)" xlink:href="#bi"/><use transform="matrix(0.017777777777777747,0,0,0.017777777777777747,79.99999999999986,0)" xlink:href="#bn"/><use transform="matrix(0.017777777777777747,0,0,0.017777777777777747,88.88888888888873,0)" xlink:href="#cE"/><use transform="matrix(0.017777777777777747,0,0,0.017777777777777747,97.7777777777776,0)" xlink:href="#bk"/></g><g id="az"><use transform="matrix(0.017777777777777747,0,0,0.017777777777777747,0,0)" xlink:href="#bj"/><use transform="matrix(0.017777777777777747,0,0,0.017777777777777747,8.888888888888873,0)" xlink:href="#bp"/><use transform="matrix(0.017777777777777747,0,0,0.017777777777777747,17.777777777777747,0)" xlink:href="#bq"/></g><g id="aA"><use transform="matrix(0.017777777777777747,0,0,0.017777777777777747,0,0)" xlink:href="#bn"/><use transform="matrix(0.017777777777777747,0,0,0.017777777777777747,8.888888888888873,0)" xlink:href="#br"/><use transform="matrix(0.017777777777777747,0,0,0.017777777777777747,17.777777777777747,0)" xlink:href="#bl"/><use transform="matrix(0.017777777777777747,0,0,0.017777777777777747,26.666666666666618,0)" xlink:href="#bt"/><use transform="matrix(0.017777777777777747,0,0,0.017777777777777747,35.55555555555549,0)" xlink:href="#bv"/></g><g id="aB"><use transform="matrix(0.017777777777777747,0,0,0.017777777777777747,0,0)" xlink:href="#bA"/><use transform="matrix(0.017777777777777747,0,0,0.017777777777777747,8.888888888888873,0)" xlink:href="#bm"/><use transform="matrix(0.017777777777777747,0,0,0.017777777777777747,17.777777777777747,0)" xlink:href="#br"/></g><g id="aC"><use transform="matrix(0.017777777777777747,0,0,0.017777777777777747,0,0)" xlink:href="#bX"/><use transform="matrix(0.017777777777777747,0,0,0.017777777777777747,8.888888888888873,0)" xlink:href="#bn"/></g><g id="aD"><use transform="matrix(0.017777777777777747,0,0,0.017777777777777747,0,0)" xlink:href="#bt"/><use transform="matrix(0.017777777777777747,0,0,0.017777777777777747,8.888888888888873,0)" xlink:href="#bn"/><use transform="matrix(0.017777777777777747,0,0,0.017777777777777747,17.777777777777747,0)" xlink:href="#bm"/><use transform="matrix(0.017777777777777747,0,0,0.017777777777777747,26.666666666666618,0)" xlink:href="#bi"/></g><path fill="#333" d="M48 0v-655h53l141 367h15l141-367h53V0h-54v-508h-4L288-237h-77L106-509h-4V0H48" id="cF"/><g id="aE"><use transform="matrix(0.017777777777777747,0,0,0.017777777777777747,0,0)" xlink:href="#bB"/><use transform="matrix(0.017777777777777747,0,0,0.017777777777777747,8.888888888888873,0)" xlink:href="#cF"/><use transform="matrix(0.017777777777777747,0,0,0.017777777777777747,17.777777777777747,0)" xlink:href="#cb"/><use transform="matrix(0.017777777777777747,0,0,0.017777777777777747,26.666666666666618,0)" xlink:href="#cF"/><use transform="matrix(0.017777777777777747,0,0,0.017777777777777747,35.55555555555549,0)" xlink:href="#be"/></g></defs></g></svg>