<svg xmlns="http://www.w3.org/2000/svg" xmlns:xlink="http://www.w3.org/1999/xlink" xmlns:lucid="lucid" width="766" height="546.87"><g transform="translate(-271.94176079397204 -1999.8998742560132)" lucid:page-tab-id="qUeFI-x9sEUJ"><path d="M797.95 2051.9l.06 6.5" stroke="#202124" stroke-width="2" fill="none"/><path d="M798.95 2051.9l-2 .03v-1.03h2z" fill="#202124"/><path d="M798.14 2073.66l-4.76-14.22 9.27-.1z" stroke="#202124" stroke-width="2" fill="#202124"/><path d="M898.04 2399v8.32M898.04 2399.02V2398" stroke="#202124" stroke-width="2" fill="none"/><path d="M898.04 2422.58l-4.63-14.26h9.28z" stroke="#202124" stroke-width="2" fill="#202124"/><path d="M496.44 2122.34h-.75l-1.7.12-1.66.17-1.62.24-1.58.3-1.55.36-1.53.43-1.5.5-1.5.54-1.48.63-1.48.7-1.46.75-1.46.85-1.47.93-1.46 1.02-1.48 1.12-1.5 1.23-1.5 1.35-1.5 1.48-1.53 1.62-1.54 1.8-1.56 1.96-1.58 2.17-1.6 2.4-1.6 2.65-1.6 2.93-1.6 3.23-1.6 3.58-1.56 3.95-1.5 4.35-1.45 4.77-1.35 5.2-1.2 5.65-1.02 6.06-.8 6.4-.57 6.7-.3 6.9v6.94l.3 6.9.56 6.7.8 6.4 1.04 6.05 1.2 5.64 1.33 5.2 1.43 4.77 1.5 4.35 1.57 3.95 1.6 3.57 1.6 3.23 1.6 2.93 1.6 2.64 1.6 2.4 1.57 2.17 1.56 1.98 1.54 1.78 1.53 1.63 1.5 1.47 1.5 1.35 1.5 1.23 1.47 1.12 1.47 1.02 1.46.92 1.46.84.96.5" stroke="#202124" stroke-width="2" fill="none"/><path d="M497.44 2123.3l-1 .04-.05-2 1.04-.03z" fill="#202124"/><path d="M494.3 2298.58l-14.96 1.18 2.16-9z" stroke="#202124" stroke-width="2" fill="#202124"/><path d="M496.44 2299.35h-.72l-1.67.12-1.63.17-1.58.23-1.55.3-1.54.36-1.5.42-1.48.48-1.46.54-1.45.6-1.45.7-1.44.74-1.43.85-1.44.9-1.43 1-1.46 1.1-1.44 1.22-1.48 1.33-1.48 1.45-1.5 1.6-1.52 1.76-1.53 1.94-1.55 2.13-1.56 2.36-1.58 2.6-1.57 2.87-1.6 3.18-1.55 3.5-1.54 3.9-1.47 4.27-1.42 4.7-1.3 5.1-1.18 5.55-1 5.95-.8 6.3-.55 6.6-.28 6.75v6.83l.27 6.76.55 6.58.8 6.3 1 5.95 1.18 5.55 1.3 5.1 1.43 4.7 1.5 4.27 1.52 3.88 1.56 3.52 1.6 3.17 1.57 2.88 1.57 2.6 1.56 2.35 1.55 2.13 1.54 1.94 1.5 1.75 1.5 1.6 1.5 1.46 1.46 1.32 1.46 1.2 1.45 1.1 1.44 1 1.45.93 1.44.83.64.35" stroke="#202124" stroke-width="2" fill="none"/><path d="M497.44 2300.33l-1 .02-.05-2 1.04-.02z" fill="#202124"/><path d="M494.3 2472.52l-14.96 1.12 2.2-9z" stroke="#202124" stroke-width="2" fill="#202124"/><path d="M696.93 2019.9h202.02v31H696.93z" stroke="#000" stroke-opacity="0" fill="#fff" fill-opacity="0"/><use xlink:href="#a" transform="matrix(1,0,0,1,701.932704912437,2024.8998742560132) translate(9.053710937500142 18.55468749999997)"/><use xlink:href="#b" transform="matrix(1,0,0,1,701.932704912437,2024.8998742560132) translate(90.6162109375 18.55468749999997)"/><use xlink:href="#c" transform="matrix(1,0,0,1,701.932704912437,2024.8998742560132) translate(145.15722656249991 18.55468749999997)"/><path d="M291.94 2136.43H439.4v153.23H291.95z" stroke="#000" stroke-opacity="0" fill="#fff" fill-opacity="0"/><use xlink:href="#d" transform="matrix(1,0,0,1,291.94176079397204,2136.426435238209) translate(52.01953125000014 47.42968749999997)"/><use xlink:href="#e" transform="matrix(1,0,0,1,291.94176079397204,2136.426435238209) translate(100.75000000000007 47.42968749999997)"/><use xlink:href="#f" transform="matrix(1,0,0,1,291.94176079397204,2136.426435238209) translate(6.150390625000199 70.86718749999994)"/><use xlink:href="#g" transform="matrix(1,0,0,1,291.94176079397204,2136.426435238209) translate(86.79492187500009 70.86718749999994)"/><use xlink:href="#h" transform="matrix(1,0,0,1,291.94176079397204,2136.426435238209) translate(22.19531250000017 94.30468749999991)"/><use xlink:href="#i" transform="matrix(1,0,0,1,291.94176079397204,2136.426435238209) translate(81.63867187500009 94.30468749999991)"/><use xlink:href="#j" transform="matrix(1,0,0,1,291.94176079397204,2136.426435238209) translate(16.68750000000017 117.74218749999989)"/><use xlink:href="#k" transform="matrix(1,0,0,1,291.94176079397204,2136.426435238209) translate(69.90039062500009 117.74218749999989)"/><use xlink:href="#l" transform="matrix(1,0,0,1,291.94176079397204,2136.426435238209) translate(87.28320312500007 117.74218749999989)"/><path d="M301.13 2318.76h133V2472h-133z" stroke="#000" stroke-opacity="0" fill="#fff" fill-opacity="0"/><use xlink:href="#d" transform="matrix(1,0,0,1,301.12643444985656,2318.7647960850973) translate(23.136718750000142 71.49218749999997)"/><use xlink:href="#m" transform="matrix(1,0,0,1,301.12643444985656,2318.7647960850973) translate(71.86718750000007 71.49218749999997)"/><use xlink:href="#n" transform="matrix(1,0,0,1,301.12643444985656,2318.7647960850973) translate(6.798828125000185 94.92968749999994)"/><use xlink:href="#k" transform="matrix(1,0,0,1,301.12643444985656,2318.7647960850973) translate(55.900390625000114 94.92968749999994)"/><use xlink:href="#l" transform="matrix(1,0,0,1,301.12643444985656,2318.7647960850973) translate(73.28320312500009 94.92968749999994)"/><path d="M497.94 2083.93h520V2160h-520z" stroke="#202124" fill="#e5e5e5"/><path d="M497.94 2076.9h19.92v7.03h-19.92zM517.86 2076.9h20.08v7.03h-20.08zM537.94 2076.9h19.92v7.03h-19.92zM557.86 2076.9h20.08v7.03h-20.08zM577.94 2076.9h19.92v7.03h-19.92zM597.86 2076.9h20.08v7.03h-20.08zM617.94 2076.9h19.92v7.03h-19.92zM637.86 2076.9h20.08v7.03h-20.08zM657.94 2076.9h19.92v7.03h-19.92zM677.86 2076.9h20.08v7.03h-20.08zM697.94 2076.9h19.92v7.03h-19.92zM717.86 2076.9h20.08v7.03h-20.08zM737.94 2076.9h19.92v7.03h-19.92zM757.86 2076.9h20.08v7.03h-20.08zM777.94 2076.9h19.92v7.03h-19.92zM797.86 2076.9h20.08v7.03h-20.08zM817.94 2076.9h19.92v7.03h-19.92zM837.86 2076.9h20.08v7.03h-20.08zM857.94 2076.9h19.92v7.03h-19.92zM877.86 2076.9h20.08v7.03h-20.08zM897.94 2076.9h19.92v7.03h-19.92zM917.86 2076.9h20.08v7.03h-20.08zM937.94 2076.9h19.92v7.03h-19.92zM957.86 2076.9h20.08v7.03h-20.08zM977.94 2076.9h19.92v7.03h-19.92zM997.86 2076.9h20.08v7.03h-20.08z" stroke="#202124" fill="#fff"/><path d="M497.94 2083.93h19.92V2160h-19.92z" stroke="#202124" fill="#b2d6ef"/><path d="M517.86 2083.93h73.47V2160h-73.47z" stroke="#202124" fill="#b2b2b2"/><path d="M591.33 2083.93h6.53V2160h-6.53z" stroke="#202124" fill="#fff"/><path d="M597.86 2083.93h19.92V2160h-19.92z" stroke="#202124" fill="#b2d6ef"/><path d="M617.78 2083.93h120.16V2160H617.78z" stroke="#202124" fill="#b2b2b2"/><path d="M737.94 2083.93h19.92V2160h-19.92z" stroke="#202124" fill="#b2d6ef"/><path d="M757.94 2083.93h26.25V2160h-26.26z" stroke="#202124" fill="#b2b2b2"/><path d="M784.2 2083.93h13.66V2160H784.2z" stroke="#202124" fill="#fff"/><path d="M797.86 2083.93h20.08V2160h-20.08z" stroke="#202124" fill="#ffbbb1"/><path d="M797.94 2083.93h20.08V2160h-20.08z" stroke="#000" stroke-opacity="0" fill="#fff" fill-opacity="0"/><use xlink:href="#o" transform="matrix(1,0,0,1,802.9398458291091,2088.928307487827) translate(1.1325954861111205 14.43142361111108)"/><use xlink:href="#o" transform="matrix(1,0,0,1,802.9398458291091,2088.928307487827) translate(1.1325954861111205 32.66059027777771)"/><use xlink:href="#o" transform="matrix(1,0,0,1,802.9398458291091,2088.928307487827) translate(1.1325954861111205 50.889756944444336)"/><use xlink:href="#o" transform="matrix(1,0,0,1,802.9398458291091,2088.928307487827) translate(1.1325954861111205 69.11892361111097)"/><use xlink:href="#p" transform="matrix(1,0,0,1,802.9398458291091,2088.928307487827) translate(5.5 87.3480902777776)"/><path d="M497.94 2258.66h520V2340h-520z" stroke="#202124" fill="#e5e5e5"/><path d="M497.94 2251.14h19.92v7.52h-19.92zM517.86 2251.14h20.08v7.52h-20.08zM537.94 2251.14h19.92v7.52h-19.92zM557.86 2251.14h20.08v7.52h-20.08zM577.94 2251.14h19.92v7.52h-19.92zM597.86 2251.14h20.08v7.52h-20.08zM617.94 2251.14h19.92v7.52h-19.92zM637.86 2251.14h20.08v7.52h-20.08zM657.94 2251.14h19.92v7.52h-19.92zM677.86 2251.14h20.08v7.52h-20.08zM697.94 2251.14h19.92v7.52h-19.92zM717.86 2251.14h20.08v7.52h-20.08zM737.94 2251.14h19.92v7.52h-19.92zM757.86 2251.14h20.08v7.52h-20.08zM777.94 2251.14h19.92v7.52h-19.92zM797.86 2251.14h20.08v7.52h-20.08zM817.94 2251.14h19.92v7.52h-19.92zM837.86 2251.14h20.08v7.52h-20.08zM857.94 2251.14h19.92v7.52h-19.92zM877.86 2251.14h20.08v7.52h-20.08zM897.94 2251.14h19.92v7.52h-19.92zM917.86 2251.14h20.08v7.52h-20.08zM937.94 2251.14h19.92v7.52h-19.92zM957.86 2251.14h20.08v7.52h-20.08zM977.94 2251.14h19.92v7.52h-19.92zM997.86 2251.14h20.08v7.52h-20.08z" stroke="#202124" fill="#fff"/><path d="M497.94 2258.66h19.92V2340h-19.92z" stroke="#202124" fill="#b2d6ef"/><path d="M517.86 2258.66h73.47V2340h-73.47z" stroke="#202124" fill="#b2b2b2"/><path d="M591.33 2258.66h6.45V2340h-6.45z" stroke="#202124" fill="#fff"/><path d="M597.86 2258.66h19.92V2340h-19.92z" stroke="#202124" fill="#b2d6ef"/><path d="M617.78 2258.66h120.16V2340H617.78z" stroke="#202124" fill="#b2b2b2"/><path d="M737.94 2258.66h19.92V2340h-19.92z" stroke="#202124" fill="#b2d6ef"/><path d="M757.94 2258.66h26.25V2340h-26.26zM817.94 2258.66h77.33V2340h-77.33z" stroke="#202124" fill="#b2b2b2"/><path d="M784.2 2258.66h13.66V2340H784.2zM895.27 2258.66h2.67V2340h-2.67z" stroke="#202124" fill="#fff"/><path d="M797.94 2258.66h20.08V2340h-20.08z" stroke="#202124" fill="#ffbbb1"/><path d="M798.02 2258.66h20.08V2340h-20.08z" stroke="#000" stroke-opacity="0" fill="#fff" fill-opacity="0"/><use xlink:href="#o" transform="matrix(1,0,0,1,803.0178048917769,2263.6577324498066) translate(1.1325954861111205 14.43142361111108)"/><use xlink:href="#o" transform="matrix(1,0,0,1,803.0178048917769,2263.6577324498066) translate(1.1325954861111205 32.66059027777771)"/><use xlink:href="#o" transform="matrix(1,0,0,1,803.0178048917769,2263.6577324498066) translate(1.1325954861111205 50.889756944444336)"/><use xlink:href="#o" transform="matrix(1,0,0,1,803.0178048917769,2263.6577324498066) translate(1.1325954861111205 69.11892361111097)"/><use xlink:href="#p" transform="matrix(1,0,0,1,803.0178048917769,2263.6577324498066) translate(5.5 87.3480902777776)"/><path d="M497.94 2432.86h520v80.86h-520z" stroke="#202124" fill="#e5e5e5"/><path d="M497.94 2425.38h19.92v7.48h-19.92zM517.86 2425.38h20.08v7.48h-20.08zM537.94 2425.38h19.92v7.48h-19.92zM557.86 2425.38h20.08v7.48h-20.08zM577.94 2425.38h19.92v7.48h-19.92zM597.86 2425.38h20.08v7.48h-20.08zM617.94 2425.38h19.92v7.48h-19.92zM637.86 2425.38h20.08v7.48h-20.08zM657.94 2425.38h19.92v7.48h-19.92zM677.86 2425.38h20.08v7.48h-20.08zM697.94 2425.38h19.92v7.48h-19.92zM717.86 2425.38h20.08v7.48h-20.08zM737.94 2425.38h19.92v7.48h-19.92zM757.86 2425.38h20.08v7.48h-20.08zM777.94 2425.38h19.92v7.48h-19.92zM797.86 2425.38h20.08v7.48h-20.08zM817.94 2425.38h19.92v7.48h-19.92zM837.86 2425.38h20.08v7.48h-20.08zM857.94 2425.38h19.92v7.48h-19.92zM877.86 2425.38h20.08v7.48h-20.08zM897.94 2425.38h19.92v7.48h-19.92zM917.86 2425.38h20.08v7.48h-20.08zM937.94 2425.38h19.92v7.48h-19.92zM957.86 2425.38h20.08v7.48h-20.08zM977.94 2425.38h19.92v7.48h-19.92zM997.86 2425.38h20.08v7.48h-20.08z" stroke="#202124" fill="#fff"/><path d="M497.94 2432.86h19.92v80.86h-19.92z" stroke="#202124" fill="#b2d6ef"/><path d="M517.86 2432.86h73.47v80.86h-73.47z" stroke="#202124" fill="#b2b2b2"/><path d="M591.33 2432.86h6.45v80.86h-6.45z" stroke="#202124" fill="#fff"/><path d="M597.86 2432.86h19.92v80.86h-19.92z" stroke="#202124" fill="#b2d6ef"/><path d="M617.78 2432.86h120.16v80.86H617.78z" stroke="#202124" fill="#b2b2b2"/><path d="M737.94 2432.86h19.92v80.86h-19.92z" stroke="#202124" fill="#b2d6ef"/><path d="M757.94 2432.86h26.25v80.86h-26.26zM817.94 2432.86h77.33v80.86h-77.33z" stroke="#202124" fill="#b2b2b2"/><path d="M784.2 2432.86h13.66v80.86H784.2zM895.27 2432.86h2.67v80.86h-2.67z" stroke="#202124" fill="#fff"/><path d="M897.94 2432.86h20.08v80.86h-20.08z" stroke="#202124" fill="#ffbbb1"/><path d="M898.02 2432.86h20.08v80.86h-20.08z" stroke="#000" stroke-opacity="0" fill="#fff" fill-opacity="0"/><g><use xlink:href="#o" transform="matrix(1,0,0,1,903.0178048917771,2437.8560390136004) translate(1.1325954861111205 14.43142361111108)"/><use xlink:href="#o" transform="matrix(1,0,0,1,903.0178048917771,2437.8560390136004) translate(1.1325954861111205 32.66059027777771)"/><use xlink:href="#o" transform="matrix(1,0,0,1,903.0178048917771,2437.8560390136004) translate(1.1325954861111205 50.889756944444336)"/><use xlink:href="#o" transform="matrix(1,0,0,1,903.0178048917771,2437.8560390136004) translate(1.1325954861111205 69.11892361111097)"/><use xlink:href="#p" transform="matrix(1,0,0,1,903.0178048917771,2437.8560390136004) translate(5.5 87.3480902777776)"/></g><path d="M897.94 2258.66h20.08V2340h-20.08z" stroke="#202124" fill="#ffbbb1"/><path d="M898.02 2258.66h20.08V2340h-20.08z" stroke="#000" stroke-opacity="0" fill="#fff" fill-opacity="0"/><g><use xlink:href="#o" transform="matrix(1,0,0,1,903.0178048917771,2263.657732449832) translate(1.1325954861111205 14.43142361111108)"/><use xlink:href="#o" transform="matrix(1,0,0,1,903.0178048917771,2263.657732449832) translate(1.1325954861111205 32.66059027777771)"/><use xlink:href="#o" transform="matrix(1,0,0,1,903.0178048917771,2263.657732449832) translate(1.1325954861111205 50.889756944444336)"/><use xlink:href="#o" transform="matrix(1,0,0,1,903.0178048917771,2263.657732449832) translate(1.1325954861111205 69.11892361111097)"/><use xlink:href="#p" transform="matrix(1,0,0,1,903.0178048917771,2263.657732449832) translate(5.5 87.3480902777776)"/></g><path d="M798.17 2432.86h19.93v80.86h-19.93z" stroke="#202124" fill="#b2d6ef"/><path d="M797.83 2226.14l.06 6.5M797.83 2226.16v-1.02" stroke="#202124" stroke-width="2" fill="none"/><path d="M798.03 2247.9l-4.77-14.22 9.27-.08z" stroke="#202124" stroke-width="2" fill="#202124"/><defs><path fill="#333" d="M456 20C285 20 205-92 206-268v-671H9v-143h197v-262h185v262h202v143H391v671c-9 125 92 149 207 118V0c-49 13-96 20-142 20" id="q"/><path fill="#333" d="M663-916c-163-27-288 18-338 148V0H140v-1082h180l3 125c61-97 147-145 258-145 36 0 63 5 82 14v172" id="r"/><path fill="#333" d="M561-1102c238-4 403 126 403 351v498c0 99 13 178 38 237V0H808c-11-21-19-59-26-114C696-25 593 20 474 20c-199 0-368-130-365-320 4-251 214-359 490-356h180v-85c-1-135-86-212-229-212-115 0-232 67-233 171H131c20-205 206-316 430-320zM294-326c0 117 90 185 207 185 122 0 239-75 278-162v-222H634c-227 0-340 66-340 199" id="s"/><path fill="#333" d="M497-251l268-831h189L566 0H425L33-1082h189" id="t"/><path fill="#333" d="M599-131c141 0 220-65 285-146l113 88C906-50 770 20 589 20 281 21 93-214 93-545c0-223 93-397 233-485 74-48 154-72 240-72 300 2 449 218 445 537v77H278c0 197 129 357 321 357zm227-509c-3-180-88-310-260-310-170 0-264 140-282 310h542" id="u"/><path fill="#333" d="M538-131c121 0 232-49 232-156 0-50-20-88-56-117-73-60-334-92-420-143-92-55-162-110-162-238 0-190 192-317 400-317 223 0 414 129 413 338H759c0-108-110-186-227-186-119 0-215 53-215 159 0 45 18 78 53 101 76 52 331 90 416 139 98 57 169 115 169 251C955-92 760 20 538 20c-176 0-314-68-386-174-38-55-57-115-57-179h185c6 129 116 202 258 202" id="v"/><path fill="#333" d="M341 0H156v-1536h185V0" id="w"/><g id="a"><use transform="matrix(0.009765624999999984,0,0,0.009765624999999984,0,0)" xlink:href="#q"/><use transform="matrix(0.009765624999999984,0,0,0.009765624999999984,6.533203124999989,0)" xlink:href="#r"/><use transform="matrix(0.009765624999999984,0,0,0.009765624999999984,12.910156249999979,0)" xlink:href="#s"/><use transform="matrix(0.009765624999999984,0,0,0.009765624999999984,23.64257812499996,0)" xlink:href="#t"/><use transform="matrix(0.009765624999999984,0,0,0.009765624999999984,33.20312499999994,0)" xlink:href="#u"/><use transform="matrix(0.009765624999999984,0,0,0.009765624999999984,43.79882812499993,0)" xlink:href="#r"/><use transform="matrix(0.009765624999999984,0,0,0.009765624999999984,50.56640624999992,0)" xlink:href="#v"/><use transform="matrix(0.009765624999999984,0,0,0.009765624999999984,60.8789062499999,0)" xlink:href="#s"/><use transform="matrix(0.009765624999999984,0,0,0.009765624999999984,71.75781249999989,0)" xlink:href="#w"/></g><path fill="#333" d="M584 20C278 26 81-227 91-551c10-320 175-545 491-551 308-5 503 247 494 573-9 322-175 543-492 549zm-2-970c-208 0-305 185-305 421 0 216 106 398 307 398 211 0 307-186 307-420 0-214-109-399-309-399" id="x"/><path fill="#333" d="M632-1102c291 0 422 251 422 573 0 297-141 548-419 549-131 0-235-42-310-125v521H140v-1498h169l9 120c75-93 180-140 314-140zm-53 971c207 0 290-180 290-419 0-218-92-395-292-395-112 0-196 50-252 149v517c55 99 140 148 254 148" id="y"/><g id="b"><use transform="matrix(0.009765624999999984,0,0,0.009765624999999984,0,0)" xlink:href="#v"/><use transform="matrix(0.009765624999999984,0,0,0.009765624999999984,10.312499999999984,0)" xlink:href="#q"/><use transform="matrix(0.009765624999999984,0,0,0.009765624999999984,16.65039062499997,0)" xlink:href="#x"/><use transform="matrix(0.009765624999999984,0,0,0.009765624999999984,28.056640624999954,0)" xlink:href="#y"/><use transform="matrix(0.009765624999999984,0,0,0.009765624999999984,39.277343749999936,0)" xlink:href="#v"/></g><path fill="#333" d="M589-945c-131 0-219 81-264 174V0H140v-1536h185v585c82-101 189-151 320-151 229 0 346 129 346 387V0H806v-716c-2-153-65-229-217-229" id="z"/><g id="c"><use transform="matrix(0.009765624999999984,0,0,0.009765624999999984,0,0)" xlink:href="#z"/><use transform="matrix(0.009765624999999984,0,0,0.009765624999999984,11.015624999999982,0)" xlink:href="#u"/><use transform="matrix(0.009765624999999984,0,0,0.009765624999999984,21.611328124999964,0)" xlink:href="#r"/><use transform="matrix(0.009765624999999984,0,0,0.009765624999999984,28.193359374999954,0)" xlink:href="#u"/></g><path fill="#333" d="M1098-255l208-827h185L1176 0h-150L763-820 507 0H357L43-1082h184l213 810 252-810h149" id="A"/><path fill="#333" d="M341 0H156v-1082h185V0zm-91-1264c-68 0-108-42-109-105 0-62 41-107 109-107s110 44 110 107-42 105-110 105" id="B"/><g id="d"><use transform="matrix(0.009765624999999986,0,0,0.009765624999999986,0,0)" xlink:href="#A"/><use transform="matrix(0.009765624999999986,0,0,0.009765624999999986,15.029296874999979,0)" xlink:href="#r"/><use transform="matrix(0.009765624999999986,0,0,0.009765624999999986,21.796874999999968,0)" xlink:href="#B"/><use transform="matrix(0.009765624999999986,0,0,0.009765624999999986,26.65039062499996,0)" xlink:href="#q"/><use transform="matrix(0.009765624999999986,0,0,0.009765624999999986,33.18359374999995,0)" xlink:href="#u"/></g><path fill="#333" d="M634-1102c292 0 422 254 422 573 0 298-143 547-420 549-137 0-242-48-317-145L310 0H140v-1536h185v573c75-93 178-139 309-139zm-44 965c207 0 281-175 281-413 0-224-79-395-283-395-122 0-210 57-263 170v468c57 113 145 170 265 170" id="C"/><path fill="#333" d="M520 20C244 20 95-247 95-550c0-298 151-550 427-552 127 0 227 43 301 130v-564h185V0H838l-9-116C755-25 652 20 520 20zm48-965c-210 0-288 177-288 416 0 218 87 392 286 392 117 0 203-53 257-158v-497c-55-102-140-153-255-153" id="D"/><path fill="#333" d="M494-271l252-811h198L509 167C425 381 299 474 84 421V271c167 16 242-37 283-173l41-110L22-1082h202" id="E"/><path fill="#333" d="M134 290L29 218c97-132 105-239 98-437h181c1 144 5 239-50 347-34 67-74 121-124 162" id="F"/><g id="e"><use transform="matrix(0.009765624999999986,0,0,0.009765624999999986,0,0)" xlink:href="#C"/><use transform="matrix(0.009765624999999986,0,0,0.009765624999999986,11.220703124999984,0)" xlink:href="#x"/><use transform="matrix(0.009765624999999986,0,0,0.009765624999999986,22.626953124999968,0)" xlink:href="#D"/><use transform="matrix(0.009765624999999986,0,0,0.009765624999999986,33.90624999999995,0)" xlink:href="#E"/><use transform="matrix(0.009765624999999986,0,0,0.009765624999999986,42.32421874999994,0)" xlink:href="#F"/></g><path fill="#333" d="M589-945c-131 0-219 81-264 174V0H140v-1082h175l6 136c83-104 191-156 324-156 229 0 346 129 346 387V0H806v-716c-2-153-65-229-217-229" id="G"/><path fill="#333" d="M521 20C240 20 96-239 96-550c0-303 147-552 427-552 132 0 235 47 309 140l9-120h169V-26c4 277-183 454-459 452-165-1-334-81-400-187l96-111c79 98 176 147 291 147 180 1 288-109 286-290v-93C750-23 649 20 521 20zm48-965c-209 0-287 178-287 416 0 217 86 392 285 392 117 0 202-53 257-159v-494c-57-103-142-155-255-155" id="H"/><g id="f"><use transform="matrix(0.009765624999999986,0,0,0.009765624999999986,0,0)" xlink:href="#y"/><use transform="matrix(0.009765624999999986,0,0,0.009765624999999986,11.220703124999984,0)" xlink:href="#s"/><use transform="matrix(0.009765624999999986,0,0,0.009765624999999986,22.099609374999968,0)" xlink:href="#D"/><use transform="matrix(0.009765624999999986,0,0,0.009765624999999986,33.37890624999995,0)" xlink:href="#D"/><use transform="matrix(0.009765624999999986,0,0,0.009765624999999986,44.658203124999936,0)" xlink:href="#B"/><use transform="matrix(0.009765624999999986,0,0,0.009765624999999986,49.51171874999993,0)" xlink:href="#G"/><use transform="matrix(0.009765624999999986,0,0,0.009765624999999986,60.546874999999915,0)" xlink:href="#H"/><use transform="matrix(0.009765624999999986,0,0,0.009765624999999986,71.7675781249999,0)" xlink:href="#F"/></g><path fill="#333" d="M314-151h633V0H88v-136l597-793H97v-153h820v131" id="I"/><g id="g"><use transform="matrix(0.009765624999999986,0,0,0.009765624999999986,0,0)" xlink:href="#I"/><use transform="matrix(0.009765624999999986,0,0,0.009765624999999986,9.755859374999986,0)" xlink:href="#u"/><use transform="matrix(0.009765624999999986,0,0,0.009765624999999986,20.35156249999997,0)" xlink:href="#r"/><use transform="matrix(0.009765624999999986,0,0,0.009765624999999986,26.92382812499996,0)" xlink:href="#x"/><use transform="matrix(0.009765624999999986,0,0,0.009765624999999986,38.33007812499994,0)" xlink:href="#u"/><use transform="matrix(0.009765624999999986,0,0,0.009765624999999986,48.92578124999993,0)" xlink:href="#D"/></g><path fill="#333" d="M704-1390c-164-38-297 28-288 194v114h231v143H416V0H231v-939H60v-143h171v-111c-12-274 208-416 483-347" id="J"/><g id="h"><use transform="matrix(0.009765624999999986,0,0,0.009765624999999986,0,0)" xlink:href="#J"/><use transform="matrix(0.009765624999999986,0,0,0.009765624999999986,6.94335937499999,0)" xlink:href="#x"/><use transform="matrix(0.009765624999999986,0,0,0.009765624999999986,18.349609374999975,0)" xlink:href="#w"/><use transform="matrix(0.009765624999999986,0,0,0.009765624999999986,23.203124999999968,0)" xlink:href="#w"/><use transform="matrix(0.009765624999999986,0,0,0.009765624999999986,28.05664062499996,0)" xlink:href="#x"/><use transform="matrix(0.009765624999999986,0,0,0.009765624999999986,39.46289062499994,0)" xlink:href="#A"/></g><path fill="#333" d="M225-872c-71 0-114-43-114-108 0-67 42-112 114-112s116 45 116 112c-1 65-45 108-116 108zM146 290L41 218c97-132 105-239 98-437h181c1 144 5 239-50 347-34 67-74 121-124 162" id="K"/><g id="i"><use transform="matrix(0.009765624999999986,0,0,0.009765624999999986,0,0)" xlink:href="#z"/><use transform="matrix(0.009765624999999986,0,0,0.009765624999999986,11.015624999999984,0)" xlink:href="#u"/><use transform="matrix(0.009765624999999986,0,0,0.009765624999999986,21.611328124999975,0)" xlink:href="#s"/><use transform="matrix(0.009765624999999986,0,0,0.009765624999999986,32.49023437499996,0)" xlink:href="#D"/><use transform="matrix(0.009765624999999986,0,0,0.009765624999999986,43.76953124999994,0)" xlink:href="#u"/><use transform="matrix(0.009765624999999986,0,0,0.009765624999999986,54.36523437499993,0)" xlink:href="#r"/><use transform="matrix(0.009765624999999986,0,0,0.009765624999999986,61.13281249999992,0)" xlink:href="#K"/></g><path fill="#333" d="M972-643H361V0H169v-1456h902v158H361v498h611v157" id="L"/><path fill="#333" d="M491 20c-241-1-355-148-355-398v-704h185v699c0 164 67 246 200 246 141 0 235-53 282-158v-787h185V0H812l-4-107C736-22 630 20 491 20" id="M"/><g id="j"><use transform="matrix(0.009765624999999986,0,0,0.009765624999999986,0,0)" xlink:href="#L"/><use transform="matrix(0.009765624999999986,0,0,0.009765624999999986,11.054687499999984,0)" xlink:href="#w"/><use transform="matrix(0.009765624999999986,0,0,0.009765624999999986,15.908203124999977,0)" xlink:href="#M"/><use transform="matrix(0.009765624999999986,0,0,0.009765624999999986,26.93359374999996,0)" xlink:href="#v"/><use transform="matrix(0.009765624999999986,0,0,0.009765624999999986,37.24609374999994,0)" xlink:href="#z"/></g><path fill="#333" d="M572 20C306 25 99-136 101-391c0-70 20-134 59-193s113-127 223-205c-65-79-108-142-130-190s-33-96-33-143c-3-220 144-354 364-354 187 0 349 127 346 308-3 212-172 290-307 398l324 387c45-87 68-183 68-289h167c0 170-41 311-123 423L1267 0h-222l-97-115C862-36 726 17 572 20zM286-391c0 162 118 260 286 260 98 0 188-37 269-112L486-668c-110 72-200 183-200 277zm297-933c-109 0-180 87-178 196 0 64 39 144 118 240 93-79 236-119 236-280 0-91-82-156-176-156" id="N"/><use transform="matrix(0.009765624999999986,0,0,0.009765624999999986,0,0)" xlink:href="#N" id="k"/><path fill="#333" d="M277-555c0 244 77 420 297 424 127 2 249-93 255-210h175C980-127 805 20 574 20 258 20 81-222 92-562c11-319 164-533 481-540 237-5 426 165 431 392H829c-7-133-115-242-256-240-209 4-296 166-296 395" id="O"/><g id="l"><use transform="matrix(0.009765624999999986,0,0,0.009765624999999986,0,0)" xlink:href="#v"/><use transform="matrix(0.009765624999999986,0,0,0.009765624999999986,10.312499999999986,0)" xlink:href="#J"/><use transform="matrix(0.009765624999999986,0,0,0.009765624999999986,17.021484374999975,0)" xlink:href="#u"/><use transform="matrix(0.009765624999999986,0,0,0.009765624999999986,27.61718749999996,0)" xlink:href="#G"/><use transform="matrix(0.009765624999999986,0,0,0.009765624999999986,38.65234374999994,0)" xlink:href="#O"/><use transform="matrix(0.009765624999999986,0,0,0.009765624999999986,49.12109374999993,0)" xlink:href="#u"/></g><g id="m"><use transform="matrix(0.009765624999999986,0,0,0.009765624999999986,0,0)" xlink:href="#z"/><use transform="matrix(0.009765624999999986,0,0,0.009765624999999986,11.015624999999984,0)" xlink:href="#u"/><use transform="matrix(0.009765624999999986,0,0,0.009765624999999986,21.611328124999975,0)" xlink:href="#s"/><use transform="matrix(0.009765624999999986,0,0,0.009765624999999986,32.49023437499996,0)" xlink:href="#D"/><use transform="matrix(0.009765624999999986,0,0,0.009765624999999986,43.76953124999994,0)" xlink:href="#u"/><use transform="matrix(0.009765624999999986,0,0,0.009765624999999986,54.36523437499993,0)" xlink:href="#r"/></g><g id="n"><use transform="matrix(0.009765624999999986,0,0,0.009765624999999986,0,0)" xlink:href="#J"/><use transform="matrix(0.009765624999999986,0,0,0.009765624999999986,6.94335937499999,0)" xlink:href="#w"/><use transform="matrix(0.009765624999999986,0,0,0.009765624999999986,11.796874999999984,0)" xlink:href="#M"/><use transform="matrix(0.009765624999999986,0,0,0.009765624999999986,22.822265624999964,0)" xlink:href="#v"/><use transform="matrix(0.009765624999999986,0,0,0.009765624999999986,33.13476562499995,0)" xlink:href="#z"/></g><path fill="#333" d="M574-1476c351 0 454 237 460 615v240c0 217-37 378-111 483S733 20 576 20c-346 0-454-246-461-616v-247c0-214 37-373 111-477s190-156 348-156zm275 905c0-337 59-752-275-753-95 0-160 38-207 107-80 118-66 409-67 625 0 157 22 273 68 348s115 113 208 113c91 0 160-35 204-106s69-182 69-334" id="P"/><use transform="matrix(0.007595486111111095,0,0,0.007595486111111095,0,0)" xlink:href="#P" id="o"/></defs></g></svg>