<svg xmlns="http://www.w3.org/2000/svg" xmlns:xlink="http://www.w3.org/1999/xlink" xmlns:lucid="lucid" width="575.84" height="615.5"><g transform="translate(-290.83688341870254 -3840)" lucid:page-tab-id="TUeFqcWnyFPZ"><path d="M437.22 3860h50.84v51.3h-50.84z" stroke="#202124" fill="#fff"/><use xlink:href="#a" transform="matrix(1,0,0,1,442.22217340269066,3865) translate(14.884765625000007 29.054687499999975)"/><path d="M488.06 3860h50.84v51.3h-50.84z" stroke="#202124" fill="#fff"/><use xlink:href="#b" transform="matrix(1,0,0,1,493.0599245360701,3865) translate(14.884765625000007 29.054687499999975)"/><path d="M538.9 3860h50.84v51.3H538.9z" stroke="#202124" fill="#fff"/><use xlink:href="#c" transform="matrix(1,0,0,1,543.8976756694498,3865) translate(14.884765625000007 29.054687499999975)"/><path d="M589.74 3860h50.83v51.3h-50.83z" stroke="#202124" fill="#fff"/><use xlink:href="#d" transform="matrix(1,0,0,1,594.7354268028294,3865) translate(14.884765625000007 29.054687499999975)"/><path d="M640.57 3860h50.84v51.3h-50.83z" stroke="#202124" fill="#fff"/><use xlink:href="#e" transform="matrix(1,0,0,1,645.5731779362089,3865) translate(14.884765625000007 29.054687499999975)"/><path d="M691.4 3860h50.85v51.3H691.4z" stroke="#202124" fill="#fff"/><use xlink:href="#f" transform="matrix(1,0,0,1,696.4109290695884,3865) translate(14.884765625000007 29.054687499999975)"/><path d="M742.25 3860h50.84v51.3h-50.85z" stroke="#202124" fill="#fff"/><use xlink:href="#g" transform="matrix(1,0,0,1,747.248680202968,3865) translate(14.884765625000007 29.054687499999975)"/><path d="M361.02 3869.05h61.05v33.18h-61.05z" stroke="#000" stroke-opacity="0" fill="#fff" fill-opacity="0"/><use xlink:href="#h" transform="matrix(1,0,0,1,366.02447811659806,3874.054140295205) translate(-7.271484374999957 18.835937499999993)"/><path d="M319.6 4029.46h489.43M319.63 4029.46h-1.03M809 4029.46h1.03M505 3979.62v269.14M505 3979.65v-1.03M505 4248.73v1.03" stroke="#202124" stroke-width="2" fill="none"/><path d="M310.84 3972.44h155.13v57.02H310.84z" stroke="#000" stroke-opacity="0" fill="#fff" fill-opacity="0"/><use xlink:href="#i" transform="matrix(1,0,0,1,315.83688341870254,3977.4432203887595) translate(50.30664062500014 30.554687499999975)"/><use xlink:href="#j" transform="matrix(1,0,0,1,315.83688341870254,3977.4432203887595) translate(92.55273437500009 30.554687499999975)"/><path d="M321.5 4029.46h144.47v50.87H321.5z" stroke="#000" stroke-opacity="0" fill="#fff" fill-opacity="0"/><use xlink:href="#k" transform="matrix(1,0,0,1,326.5103572428562,4034.459170444599) translate(0 26.242187499999975)"/><path d="M352.5 4063.35h118.6v50.84H352.5z" stroke="#000" stroke-opacity="0" fill="#fff" fill-opacity="0"/><use xlink:href="#l" transform="matrix(1,0,0,1,357.49258818039135,4068.3510045335183) translate(86.79296875000003 26.242187499999975)"/><path d="M352.5 4105.72h118.6v50.83H352.5z" stroke="#000" stroke-opacity="0" fill="#fff" fill-opacity="0"/><use xlink:href="#m" transform="matrix(1,0,0,1,357.49258818039135,4110.715797144669) translate(86.79296875000003 26.242187499999975)"/><path d="M352.5 4148.08h118.6v50.84H352.5z" stroke="#000" stroke-opacity="0" fill="#fff" fill-opacity="0"/><use xlink:href="#n" transform="matrix(1,0,0,1,357.49258818039135,4153.080589755818) translate(86.79296875000003 26.242187499999975)"/><path d="M358.32 4035.96h147.42v44.78H358.32z" stroke="#000" stroke-opacity="0" fill="#fff" fill-opacity="0"/><use xlink:href="#o" transform="matrix(1,0,0,1,363.32288179119223,4040.9605587154424) translate(0 21.245659722222193)"/><use xlink:href="#p" transform="matrix(1,0,0,1,363.32288179119223,4040.9605587154424) translate(77.06163194444422 21.245659722222193)"/><use xlink:href="#q" transform="matrix(1,0,0,1,363.32288179119223,4040.9605587154424) translate(102.15386284722192 21.245659722222193)"/><path d="M319.6 4200.33h489.43M319.63 4200.33h-1.03M809 4200.33h1.03" stroke="#202124" stroke-width="2" fill="none"/><path d="M310.84 4198.92h155.13v57H310.84z" stroke="#000" stroke-opacity="0" fill="#fff" fill-opacity="0"/><use xlink:href="#r" transform="matrix(1,0,0,1,315.83688341870254,4203.918340889197) translate(111.28320312500006 30.554687499999975)"/><path d="M498.56 4198.92h204.48v57H498.56z" stroke="#000" stroke-opacity="0" fill="#fff" fill-opacity="0"/><use xlink:href="#s" transform="matrix(1,0,0,1,503.5627834363513,4203.918340889197) translate(0 30.554687499999975)"/><use xlink:href="#t" transform="matrix(1,0,0,1,503.5627834363513,4203.918340889197) translate(31.796874999999957 30.554687499999975)"/><use xlink:href="#u" transform="matrix(1,0,0,1,503.5627834363513,4203.918340889197) translate(52.36328124999993 30.554687499999975)"/><use xlink:href="#t" transform="matrix(1,0,0,1,503.5627834363513,4203.918340889197) translate(68.54492187499991 30.554687499999975)"/><use xlink:href="#v" transform="matrix(1,0,0,1,503.5627834363513,4203.918340889197) translate(89.11132812499989 30.554687499999975)"/><use xlink:href="#t" transform="matrix(1,0,0,1,503.5627834363513,4203.918340889197) translate(105.29296874999986 30.554687499999975)"/><use xlink:href="#w" transform="matrix(1,0,0,1,503.5627834363513,4203.918340889197) translate(125.85937499999983 30.554687499999975)"/><path d="M498.56 3972.44h310.8v57.02h-310.8z" stroke="#000" stroke-opacity="0" fill="#fff" fill-opacity="0"/><use xlink:href="#x" transform="matrix(1,0,0,1,503.56278343635137,3977.4432203887586) translate(0 30.554687499999975)"/><use xlink:href="#t" transform="matrix(1,0,0,1,503.56278343635137,3977.4432203887586) translate(31.796874999999957 30.554687499999975)"/><use xlink:href="#y" transform="matrix(1,0,0,1,503.56278343635137,3977.4432203887586) translate(52.36328124999993 30.554687499999975)"/><use xlink:href="#t" transform="matrix(1,0,0,1,503.56278343635137,3977.4432203887586) translate(68.54492187499991 30.554687499999975)"/><use xlink:href="#z" transform="matrix(1,0,0,1,503.56278343635137,3977.4432203887586) translate(89.11132812499989 30.554687499999975)"/><use xlink:href="#t" transform="matrix(1,0,0,1,503.56278343635137,3977.4432203887586) translate(105.29296874999986 30.554687499999975)"/><use xlink:href="#A" transform="matrix(1,0,0,1,503.56278343635137,3977.4432203887586) translate(125.85937499999983 30.554687499999975)"/><use xlink:href="#t" transform="matrix(1,0,0,1,503.56278343635137,3977.4432203887586) translate(142.0410156249998 30.554687499999975)"/><use xlink:href="#B" transform="matrix(1,0,0,1,503.56278343635137,3977.4432203887586) translate(162.60742187499977 30.554687499999975)"/><use xlink:href="#t" transform="matrix(1,0,0,1,503.56278343635137,3977.4432203887586) translate(178.78906249999974 30.554687499999975)"/><use xlink:href="#u" transform="matrix(1,0,0,1,503.56278343635137,3977.4432203887586) translate(199.35546874999972 30.554687499999975)"/><use xlink:href="#t" transform="matrix(1,0,0,1,503.56278343635137,3977.4432203887586) translate(215.5371093749997 30.554687499999975)"/><use xlink:href="#C" transform="matrix(1,0,0,1,503.56278343635137,3977.4432203887586) translate(236.10351562499966 30.554687499999975)"/><use xlink:href="#t" transform="matrix(1,0,0,1,503.56278343635137,3977.4432203887586) translate(252.28515624999963 30.554687499999975)"/><use xlink:href="#D" transform="matrix(1,0,0,1,503.56278343635137,3977.4432203887586) translate(272.8515624999996 30.554687499999975)"/><path d="M498.56 4102.63H653.7v57H498.56z" stroke="#000" stroke-opacity="0" fill="#fff" fill-opacity="0"/><use xlink:href="#E" transform="matrix(1,0,0,1,503.5627834363514,4107.626697683438) translate(0 30.554687499999975)"/><path d="M783.43 4096.5l-5.06 8.46-5.48 10.12-6.64 13.6-23.94 53.34-3.52 6.5-2.96 4.96-2.64 4.03-2.44 3.4-2.3 2.93-2.2 2.58-2.12 2.3-2.1 2.07-2.04 1.87-2.04 1.7-2.05 1.58-2.05 1.45-2.08 1.34-2.12 1.24-2.16 1.15-2.24 1.06-2.3.98-2.4.9-2.5.83-2.63.75-1.12.27-.22-.98 1.1-.26 2.58-.74 2.47-.82 2.35-.9 2.27-.96 2.2-1.04 2.12-1.13 2.08-1.22 2.05-1.3 2.02-1.43 2-1.55 2.02-1.68 2.03-1.86 2.05-2.03 2.1-2.25 2.17-2.55 2.26-2.9 2.42-3.36 2.6-4 2.95-4.92 3.5-6.45 23.92-53.3 6.65-13.65 5.5-10.15 5.08-8.5 1.83-2.78h1.2zm-3.98-140.07l8 .83 7 1.03 6.72 1.27 6.92 1.62 6.6 1.8 5.85 1.87 4.6 1.67 3.67 1.52 3.02 1.4 2.5 1.28 2.13 1.2 1.8 1.13 1.55 1.07 1.36 1 1.18.97 1.04.94.93.9.82.86.74.84.65.82.6.8.53.8.48.8.44.78.4.78.34.78.32.78.28.8.25.8.2.8.18.83.15.86.12.87.08.9.04.95v.98l-.03 1.02-.08 1.1-.14 1.14-.2 1.23-.27 1.33-.36 1.44-.48 1.58-.6 1.75-.77 1.97-.98 2.25-1.3 2.63-1.7 3.14-2.35 3.93-3.45 5.26-5.86 8.13-25.25 32.88h-1.26l25.7-33.48 5.84-8.1 3.43-5.22 2.33-3.9 1.7-3.1 1.26-2.6.97-2.2.75-1.93.58-1.7.46-1.55.35-1.4.27-1.28.2-1.2.12-1.1.08-1.04.04-1v-.93l-.05-.9-.08-.86-.1-.83-.15-.8-.17-.78-.2-.78-.24-.76-.28-.75-.3-.74-.33-.75-.4-.74-.4-.74-.46-.75-.52-.75-.57-.78-.63-.8-.7-.8-.8-.83-.9-.87-1-.9-1.16-.93-1.32-1-1.52-1.03-1.77-1.1-2.08-1.18-2.47-1.27-2.98-1.38-3.64-1.5-4.55-1.66-5.8-1.83-6.6-1.82-6.86-1.6-6.67-1.27-6.98-1.03-7.95-.82-10.32-.63-144.2 1.44v-1l144.23-1.44z" fill="#5e5e5e"/><path d="M624.87 3958.24h-.5l-.02-1h.5zM694.33 4230.06l-14.75-2.73 13.54-6.46z" fill="#5e5e5e"/><path d="M694.92 4230.68l-16.94-3.14 15.55-7.42zm-13.73-3.56l12.55 2.32-1.04-7.82z" fill="#5e5e5e"/><use xlink:href="#F" transform="matrix(1,0,0,1,743.3857620164547,4064.543411823105) translate(0.005000000000002558 22.677951388888886)"/><use xlink:href="#G" transform="matrix(1,0,0,1,743.3857620164547,4064.543411823105) translate(28.42405381944444 22.677951388888886)"/><use xlink:href="#H" transform="matrix(1,0,0,1,743.3857620164547,4064.543411823105) translate(77.7545659722222 22.677951388888886)"/><path d="M600.1 3988.63l24.6-30.8M600.1 3988.62l-.33.4M624.68 3957.83l.32-.4M715.27 3989.14l25.26-31.74M715.28 3989.13l-.32.4M740.52 3957.4l.32-.4M790.42 3989.22l19.05-26.5M790.42 3989.2l-.3.43M809.47 3962.73l.3-.42" stroke="#5e5e5e" fill="none"/><path d="M556.6 4335.8v99.3M556.6 4335.84v-1.03M556.6 4435.1v1M403.53 4385.57h382.4M403.55 4385.57h-1.02M785.9 4385.57h1.04" stroke="#202124" stroke-width="2" fill="none"/><path d="M384.52 4385.57h155.13v49.93H384.52z" stroke="#000" stroke-opacity="0" fill="#fff" fill-opacity="0"/><use xlink:href="#I" transform="matrix(1,0,0,1,389.515319650534,4390.5681352087295) translate(38.939453125000156 26.054687499999975)"/><use xlink:href="#J" transform="matrix(1,0,0,1,389.515319650534,4390.5681352087295) translate(112.34765625000004 26.054687499999975)"/><path d="M384.52 4334.83h155.13v50.74H384.52z" stroke="#000" stroke-opacity="0" fill="#fff" fill-opacity="0"/><use xlink:href="#K" transform="matrix(1,0,0,1,389.5153196505339,4339.832856054549) translate(41.74218750000014 26.242187499999975)"/><use xlink:href="#L" transform="matrix(1,0,0,1,389.5153196505339,4339.832856054549) translate(91.30273437500007 26.242187499999975)"/><path d="M607.28 4335.8v99.27M607.28 4335.84v-1.03M607.28 4435.04v1.03M657.13 4335.8v99.43M657.13 4335.84v-1.03M657.13 4435.2v1.03M709.1 4335.8v99.43M709.1 4335.84v-1.03M709.1 4435.2v1.03M759.2 4335.8v99.33M759.2 4335.84v-1.03M759.2 4435.1v1.03" stroke="#202124" stroke-width="2" fill="none"/><path d="M657.52 4334.83h51.6v50.74h-51.6z" fill="#fff" fill-opacity="0"/><use xlink:href="#M" transform="matrix(1,0,0,1,662.5190949806688,4339.83285605455) translate(12.303710937500012 26.242187499999975)"/><path d="M606.68 4334.83h51.6v50.74h-51.6z" fill="#fff" fill-opacity="0"/><use xlink:href="#M" transform="matrix(1,0,0,1,611.6813438472892,4339.83285605455) translate(12.303710937500012 26.242187499999975)"/><path d="M708.36 4334.83h51.6v50.74h-51.6z" fill="#fff" fill-opacity="0"/><use xlink:href="#M" transform="matrix(1,0,0,1,713.3568461140484,4339.83285605455) translate(12.303710937500012 26.242187499999975)"/><path d="M658.12 4385.57h51.6v44.88h-51.6z" fill="#fff" fill-opacity="0"/><g><use xlink:href="#N" transform="matrix(1,0,0,1,663.120945061137,4390.568135208729) translate(15.262695312500007 25.117187499999975)"/></g><path d="M607.28 4385.57h51.6v44.88h-51.6z" fill="#fff" fill-opacity="0"/><g><use xlink:href="#O" transform="matrix(1,0,0,1,612.2831939277576,4390.568135208729) translate(15.262695312500007 25.117187499999975)"/></g><path d="M708.96 4385.57h51.6v44.88h-51.6z" fill="#fff" fill-opacity="0"/><g><use xlink:href="#P" transform="matrix(1,0,0,1,713.9586961945167,4390.568135208729) translate(15.262695312500007 25.117187499999975)"/></g><path d="M556.45 4385.57h51.6v44.88h-51.6z" fill="#fff" fill-opacity="0"/><g><use xlink:href="#Q" transform="matrix(1,0,0,1,561.445442794378,4390.568135208729) translate(15.262695312500007 25.117187499999975)"/></g><path d="M556.45 4334.83h50.83v50.74h-50.83z" stroke="#000" stroke-opacity="0" fill="#fff" fill-opacity="0"/><g><use xlink:href="#b" transform="matrix(1,0,0,1,561.4454427943779,4339.832856054549) translate(14.884765625000007 26.242187499999975)"/></g><path d="M528.36 4240.5l75.98 27.5 7.24 3.23 3.5 1.8 2.06 1.2 1.34.9.92.7.67.55.5.47.4.4.3.35.23.3.2.3.14.25.13.23.1.22.08.2.07.2.05.2.04.17.04.17.02.17v.51l-.02.17-.03.17-.03.17-.05.2-.06.17-.08.18-.1.2-.1.2-.14.22-.16.24-.2.27-.25.28-.3.32-.4.35-.5.4-.65.5-.2.14-29.58 21.05-2.8 2.88-1.58 2.18-1.4 2.62-1.22 3.52v.05M528.38 4240.5l-.5-.17" stroke="#5e5e5e" fill="none"/><path d="M582.56 4331.7l-4.7-14.23 9.28-.04z" stroke="#5e5e5e" fill="#5e5e5e"/><g><use xlink:href="#R" transform="matrix(1,0,0,1,629.3764222793103,4262.530582544339) translate(0.0049999999999954525 22.677951388888886)"/><use xlink:href="#S" transform="matrix(1,0,0,1,629.3764222793103,4262.530582544339) translate(27.576614583333324 22.677951388888886)"/><use xlink:href="#T" transform="matrix(1,0,0,1,629.3764222793103,4262.530582544339) translate(74.09028645833331 22.677951388888886)"/><use xlink:href="#U" transform="matrix(1,0,0,1,629.3764222793103,4262.530582544339) translate(93.8678472222222 22.677951388888886)"/><use xlink:href="#V" transform="matrix(1,0,0,1,629.3764222793103,4262.530582544339) translate(165.69727430555554 22.677951388888886)"/></g><path d="M546.7 4292.46l3.65.27 2.38.28 1.8.3 1.43.3 1.2.3 1.06.3.93.3.84.34.75.33.7.34.67.37.62.37.6.4.56.4.55.42.53.45.52.5.5.5.52.56.5.6.5.65.5.73.53.8.53.9.54 1.03.57 1.2.6 1.38.63 1.7.7 2.08.77 2.7.9 3.7 1.1 5.6 1.48 9.68-1 .15-1.46-9.66-1.1-5.55-.88-3.67-.77-2.66-.68-2.06-.63-1.64-.6-1.36-.54-1.15-.52-.98-.5-.86-.5-.77-.48-.7-.48-.62-.48-.56-.47-.52-.5-.5-.48-.44-.5-.43-.52-.4-.53-.38-.56-.36-.57-.36-.63-.34-.67-.32-.72-.32-.8-.3-.88-.3-1-.3-1.18-.3-1.4-.28-1.74-.28-2.34-.27-3.62-.27-28.23-1.23v-1zM500 4143l-1.02.33-10.73 3.15-11.38 2.82-43.17 7.7-7.9 1.6-5.08 1.24-3.94 1.15-3.32 1.12-2.9 1.12-2.65 1.15-2.42 1.17-2.3 1.23-2.17 1.3-2.1 1.38-2.07 1.47-2.03 1.6-2.03 1.7-2.05 1.9-2.07 2.1-2.14 2.32-1 1.2-1.78 2.24-1.6 2.24-1.4 2.23-1.28 2.2-1.12 2.22-.98 2.2-.85 2.2-.74 2.2-.6 2.22-.5 2.22-.37 2.22-.27 2.23-.16 2.23-.04 2.26.08 2.26.2 2.3.3 2.32.44 2.34.56 2.38.7 2.4.84 2.44 1 2.47 1.15 2.5 1.32 2.56 1.53 2.58 1.72 2.62 1.96 2.66 2.2 2.7 2.44 2.72 2.75 2.76 3.06 2.78 3.4 2.8 3.8 2.8 4.2 2.8 4.67 2.8 1.55.82h-2.12l-4.63-2.76-4.25-2.83-3.83-2.83-3.44-2.83-3.1-2.8-2.78-2.8-2.5-2.77-2.22-2.74-1.98-2.7-1.75-2.66-1.55-2.63-1.36-2.58-1.2-2.56-1-2.5-.86-2.5-.7-2.45-.58-2.42-.44-2.4-.32-2.36-.2-2.35-.07-2.33.04-2.3.16-2.3.27-2.3.4-2.26.5-2.26.6-2.26.75-2.25.87-2.25 1-2.26 1.14-2.25 1.3-2.25 1.44-2.27 1.62-2.27 1.8-2.27 1.04-1.22 2.16-2.35 2.1-2.12 2.1-1.92 2.05-1.74 2.07-1.6 2.1-1.5 2.14-1.4 2.22-1.33 2.32-1.25 2.48-1.2 2.67-1.17 2.95-1.12 3.35-1.14 4-1.17 5.1-1.26 7.94-1.6 43.16-7.68 11.33-2.8 10.67-3.14 1-.34z" fill="#5e5e5e"/><path d="M576.46 4332.7l-1 .15-.07-.5.98-.16zM501.86 4146.72l-3.1-8.74 15-.38z" fill="#5e5e5e"/><path d="M501.6 4147.53l-3.53-10.04 17.22-.44zm-2.13-9.07l2.63 7.44 10.14-7.76z" fill="#5e5e5e"/><g><use xlink:href="#W" transform="matrix(1,0,0,1,384.95821552458636,4267.6951877299325) translate(0.0049999999999954525 22.677951388888886)"/><use xlink:href="#X" transform="matrix(1,0,0,1,384.95821552458636,4267.6951877299325) translate(27.970494791666653 22.677951388888886)"/><use xlink:href="#Y" transform="matrix(1,0,0,1,384.95821552458636,4267.6951877299325) translate(99.63282118055552 22.677951388888886)"/></g><path d="M542.3 4130.92l78.22.12 13.27-.24 1.83.07 1.22.1 1 .12.96.16 1.06.22 1.4.37 16.77 5.3 1.8.58 1.7.67 1.66.75 1.58.83 1.54.92 1.5 1 1.43 1.07 1.4 1.17 1.33 1.26 1.3 1.36 1.24 1.45 1.2 1.57 1.14 1.67 1.08 1.8 1.02 1.9.95 2.02.87 2.16.77 2.28.67 2.4.58 2.54.43 2.65.3 2.75.17 2.86v2.97l-.17 3.02-.33 3.08-.52 3.13-.7 3.17-.88 3.16-1.07 3.15-1.26 3.13-1.44 3.1-1.63 3.05-1.8 2.98-2 2.92-2.18 2.84-2.37 2.75-1.1 1.16M542.3 4130.92h-.5" stroke="#5e5e5e" fill="none"/><path d="M654.92 4227.85l7.98-12.7 5.94 7.1z" stroke="#5e5e5e" fill="#5e5e5e"/><g><use xlink:href="#Z" transform="matrix(1,0,0,1,558.9227165211928,4098.179280824996) translate(0.0049999999999954525 22.677951388888886)"/><use xlink:href="#aa" transform="matrix(1,0,0,1,558.9227165211928,4098.179280824996) translate(27.863072916666653 22.677951388888886)"/><use xlink:href="#ab" transform="matrix(1,0,0,1,558.9227165211928,4098.179280824996) translate(125.52149305555552 22.677951388888886)"/></g><path d="M498.56 4057.17h310.8v57.02h-310.8z" stroke="#000" stroke-opacity="0" fill="#fff" fill-opacity="0"/><g><use xlink:href="#ac" transform="matrix(1,0,0,1,503.56278343635137,4062.172805611058) translate(0 30.554687499999975)"/></g><path d="M498.56 4141.9h310.8v57.02h-310.8z" stroke="#000" stroke-opacity="0" fill="#fff" fill-opacity="0"/><g><use xlink:href="#ac" transform="matrix(1,0,0,1,503.56278343635137,4146.9023908333575) translate(0 30.554687499999975)"/></g><defs><path fill="#333" d="M729 0H543v-1233l-373 137v-168l530-199h29V0" id="ad"/><use transform="matrix(0.009765624999999986,0,0,0.009765624999999986,0,0)" xlink:href="#ad" id="a"/><path fill="#333" d="M569-1476c255 0 440 146 439 390 0 143-91 314-274 512L344-151h731V0H121v-133l504-560c75-85 125-155 155-207 105-184 6-424-211-424-183 0-293 113-291 297H93c-3-270 199-449 476-449" id="ae"/><use transform="matrix(0.009765624999999986,0,0,0.009765624999999986,0,0)" xlink:href="#ae" id="b"/><path fill="#333" d="M832-402c-1-179-119-264-303-265H390v-151h139c164 0 281-91 281-250 0-171-85-256-255-256-154 0-265 99-263 250H107c-4-235 205-402 448-402 266 0 444 150 440 412-2 148-109 272-229 317 147 45 249 158 251 341 3 262-197 426-461 426C299 20 91-135 94-384h186c-2 156 116 253 276 253 176 0 277-96 276-271" id="af"/><use transform="matrix(0.009765624999999986,0,0,0.009765624999999986,0,0)" xlink:href="#af" id="c"/><path fill="#333" d="M902-489h202v151H902V0H716v-338H53v-109l652-1009h197v967zm-639 0h453v-714l-22 40" id="ag"/><use transform="matrix(0.009765624999999986,0,0,0.009765624999999986,0,0)" xlink:href="#ag" id="d"/><path fill="#333" d="M884-462c0-185-111-323-291-323-113 0-183 39-239 93l-148-38 74-726h746v171H437l-44 397c71-42 152-63 243-63 273-2 433 205 433 487 0 293-170 484-461 484-260 0-436-159-454-403h175c20 156 111 252 279 252 182 0 276-140 276-331" id="ah"/><use transform="matrix(0.009765624999999986,0,0,0.009765624999999986,0,0)" xlink:href="#ah" id="e"/><path fill="#333" d="M132-554c0-555 187-908 715-903v157c-320-8-501 179-526 477 77-88 181-132 314-132 259 0 417 214 417 480 0 286-172 495-451 495-293 0-469-266-469-574zm737 88c0-181-95-335-265-335-133 0-252 96-286 200v68c-6 207 101 397 283 400 175 3 268-150 268-333" id="ai"/><use transform="matrix(0.009765624999999986,0,0,0.009765624999999986,0,0)" xlink:href="#ai" id="f"/><path fill="#333" d="M1061-1352L458 0H264l601-1304H77v-152h984v104" id="aj"/><use transform="matrix(0.009765624999999986,0,0,0.009765624999999986,0,0)" xlink:href="#aj" id="g"/><path fill="#333" d="M688-137c238 0 323-102 359-325h193c-32 297-228 482-552 482-361 0-569-299-569-680 0-197 8-360 73-497 88-186 257-317 513-319 316-2 509 195 535 488h-193c-31-212-118-330-342-330-272 0-397 224-393 523v141c-3 282 115 517 376 517" id="ak"/><path fill="#333" d="M589-945c-131 0-219 81-264 174V0H140v-1536h185v585c82-101 189-151 320-151 229 0 346 129 346 387V0H806v-716c-2-153-65-229-217-229" id="al"/><path fill="#333" d="M491 20c-241-1-355-148-355-398v-704h185v699c0 164 67 246 200 246 141 0 235-53 282-158v-787h185V0H812l-4-107C736-22 630 20 491 20" id="am"/><path fill="#333" d="M589-945c-131 0-219 81-264 174V0H140v-1082h175l6 136c83-104 191-156 324-156 229 0 346 129 346 387V0H806v-716c-2-153-65-229-217-229" id="an"/><path fill="#333" d="M442-501L326-380V0H141v-1536h185v929c135-169 291-317 436-475h225L566-630 1036 0H819" id="ao"/><path fill="#333" d="M538-131c121 0 232-49 232-156 0-50-20-88-56-117-73-60-334-92-420-143-92-55-162-110-162-238 0-190 192-317 400-317 223 0 414 129 413 338H759c0-108-110-186-227-186-119 0-215 53-215 159 0 45 18 78 53 101 76 52 331 90 416 139 98 57 169 115 169 251C955-92 760 20 538 20c-176 0-314-68-386-174-38-55-57-115-57-179h185c6 129 116 202 258 202" id="ap"/><g id="h"><use transform="matrix(0.009765624999999986,0,0,0.009765624999999986,0,0)" xlink:href="#ak"/><use transform="matrix(0.009765624999999986,0,0,0.009765624999999986,13.017578124999982,0)" xlink:href="#al"/><use transform="matrix(0.009765624999999986,0,0,0.009765624999999986,24.033203124999964,0)" xlink:href="#am"/><use transform="matrix(0.009765624999999986,0,0,0.009765624999999986,35.05859374999995,0)" xlink:href="#an"/><use transform="matrix(0.009765624999999986,0,0,0.009765624999999986,46.093749999999936,0)" xlink:href="#ao"/><use transform="matrix(0.009765624999999986,0,0,0.009765624999999986,56.23046874999992,0)" xlink:href="#ap"/></g><path fill="#333" d="M1098-255l208-827h185L1176 0h-150L763-820 507 0H357L43-1082h184l213 810 252-810h149" id="aq"/><path fill="#333" d="M561-1102c238-4 403 126 403 351v498c0 99 13 178 38 237V0H808c-11-21-19-59-26-114C696-25 593 20 474 20c-199 0-368-130-365-320 4-251 214-359 490-356h180v-85c-1-135-86-212-229-212-115 0-232 67-233 171H131c20-205 206-316 430-320zM294-326c0 117 90 185 207 185 122 0 239-75 278-162v-222H634c-227 0-340 66-340 199" id="ar"/><path fill="#333" d="M341 0H156v-1082h185V0zm-91-1264c-68 0-108-42-109-105 0-62 41-107 109-107s110 44 110 107-42 105-110 105" id="as"/><path fill="#333" d="M456 20C285 20 205-92 206-268v-671H9v-143h197v-262h185v262h202v143H391v671c-9 125 92 149 207 118V0c-49 13-96 20-142 20" id="at"/><g id="i"><use transform="matrix(0.009765624999999986,0,0,0.009765624999999986,0,0)" xlink:href="#aq"/><use transform="matrix(0.009765624999999986,0,0,0.009765624999999986,15.029296874999979,0)" xlink:href="#ar"/><use transform="matrix(0.009765624999999986,0,0,0.009765624999999986,25.908203124999964,0)" xlink:href="#as"/><use transform="matrix(0.009765624999999986,0,0,0.009765624999999986,30.761718749999957,0)" xlink:href="#at"/></g><path fill="#333" d="M663-916c-163-27-288 18-338 148V0H140v-1082h180l3 125c61-97 147-145 258-145 36 0 63 5 82 14v172" id="au"/><path fill="#333" d="M599-131c141 0 220-65 285-146l113 88C906-50 770 20 589 20 281 21 93-214 93-545c0-223 93-397 233-485 74-48 154-72 240-72 300 2 449 218 445 537v77H278c0 197 129 357 321 357zm227-509c-3-180-88-310-260-310-170 0-264 140-282 310h542" id="av"/><path fill="#333" d="M632-1102c291 0 422 251 422 573 0 297-141 548-419 549-131 0-235-42-310-125v521H140v-1498h169l9 120c75-93 180-140 314-140zm-53 971c207 0 290-180 290-419 0-218-92-395-292-395-112 0-196 50-252 149v517c55 99 140 148 254 148" id="aw"/><path fill="#333" d="M341 0H156v-1536h185V0" id="ax"/><path fill="#333" d="M494-271l252-811h198L509 167C425 381 299 474 84 421V271c167 16 242-37 283-173l41-110L22-1082h202" id="ay"/><g id="j"><use transform="matrix(0.009765624999999986,0,0,0.009765624999999986,0,0)" xlink:href="#au"/><use transform="matrix(0.009765624999999986,0,0,0.009765624999999986,6.58203124999999,0)" xlink:href="#av"/><use transform="matrix(0.009765624999999986,0,0,0.009765624999999986,17.177734374999975,0)" xlink:href="#aw"/><use transform="matrix(0.009765624999999986,0,0,0.009765624999999986,28.398437499999954,0)" xlink:href="#ax"/><use transform="matrix(0.009765624999999986,0,0,0.009765624999999986,33.25195312499995,0)" xlink:href="#ar"/><use transform="matrix(0.009765624999999986,0,0,0.009765624999999986,43.984374999999936,0)" xlink:href="#ay"/></g><path fill="#333" d="M704-1390c-164-38-297 28-288 194v114h231v143H416V0H231v-939H60v-143h171v-111c-12-274 208-416 483-347" id="az"/><path fill="#333" d="M248 11c-71 0-114-43-114-108 0-67 42-112 114-112s116 45 116 112c-1 65-45 108-116 108zm1-883c-71 0-114-43-114-108 0-67 42-112 114-112s116 45 116 112c-1 65-45 108-116 108" id="aA"/><g id="k"><use transform="matrix(0.009765624999999986,0,0,0.009765624999999986,0,0)" xlink:href="#az"/><use transform="matrix(0.009765624999999986,0,0,0.009765624999999986,6.94335937499999,0)" xlink:href="#am"/><use transform="matrix(0.009765624999999986,0,0,0.009765624999999986,17.968749999999975,0)" xlink:href="#ax"/><use transform="matrix(0.009765624999999986,0,0,0.009765624999999986,22.822265624999968,0)" xlink:href="#ax"/><use transform="matrix(0.009765624999999986,0,0,0.009765624999999986,27.67578124999996,0)" xlink:href="#aA"/></g><path fill="#333" d="M986-814H152v-161h834v161zm0 415H152v-160h834v160" id="aB"/><path fill="#333" d="M574-1476c351 0 454 237 460 615v240c0 217-37 378-111 483S733 20 576 20c-346 0-454-246-461-616v-247c0-214 37-373 111-477s190-156 348-156zm275 905c0-337 59-752-275-753-95 0-160 38-207 107-80 118-66 409-67 625 0 157 22 273 68 348s115 113 208 113c91 0 160-35 204-106s69-182 69-334" id="aC"/><g id="l"><use transform="matrix(0.009765624999999986,0,0,0.009765624999999986,0,0)" xlink:href="#aB"/><use transform="matrix(0.009765624999999986,0,0,0.009765624999999986,10.976562499999984,0)" xlink:href="#aC"/></g><g id="m"><use transform="matrix(0.009765624999999986,0,0,0.009765624999999986,0,0)" xlink:href="#aB"/><use transform="matrix(0.009765624999999986,0,0,0.009765624999999986,10.976562499999984,0)" xlink:href="#ad"/></g><g id="n"><use transform="matrix(0.009765624999999986,0,0,0.009765624999999986,0,0)" xlink:href="#aB"/><use transform="matrix(0.009765624999999986,0,0,0.009765624999999986,10.976562499999984,0)" xlink:href="#ae"/></g><path fill="#333" d="M277-555c0 244 77 420 297 424 127 2 249-93 255-210h175C980-127 805 20 574 20 258 20 81-222 92-562c11-319 164-533 481-540 237-5 426 165 431 392H829c-7-133-115-242-256-240-209 4-296 166-296 395" id="aD"/><path fill="#333" d="M258 11c-71 0-114-43-114-108 0-67 42-112 114-112s116 45 116 112c-1 65-45 108-116 108" id="aE"/><path fill="#333" d="M1240-945c-141 0-250 95-250 227V0H804v-709c0-157-77-236-231-236-121 0-204 52-249 155V0H139v-1082h175l5 120c79-93 186-140 321-140 151 0 254 58 309 174 69-98 181-174 345-174 237 0 362 126 362 377V0h-185v-714c-2-159-67-231-231-231" id="aF"/><path fill="#333" d="M503-687l240-395h216L605-547 970 0H756L506-405 256 0H41l365-547-354-535h214" id="aG"/><path fill="#333" d="M920 151H4V0h916v151" id="aH"/><path fill="#333" d="M521 20C240 20 96-239 96-550c0-303 147-552 427-552 132 0 235 47 309 140l9-120h169V-26c4 277-183 454-459 452-165-1-334-81-400-187l96-111c79 98 176 147 291 147 180 1 288-109 286-290v-93C750-23 649 20 521 20zm48-965c-209 0-287 178-287 416 0 217 86 392 285 392 117 0 202-53 257-159v-494c-57-103-142-155-255-155" id="aI"/><g id="o"><use transform="matrix(0.005425347222222206,0,0,0.005425347222222206,0,0)" xlink:href="#aD"/><use transform="matrix(0.005425347222222206,0,0,0.005425347222222206,5.8159722222222054,0)" xlink:href="#al"/><use transform="matrix(0.005425347222222206,0,0,0.005425347222222206,11.935763888888854,0)" xlink:href="#am"/><use transform="matrix(0.005425347222222206,0,0,0.005425347222222206,18.060980902777725,0)" xlink:href="#an"/><use transform="matrix(0.005425347222222206,0,0,0.005425347222222206,24.19162326388882,0)" xlink:href="#ao"/><use transform="matrix(0.005425347222222206,0,0,0.005425347222222206,29.82313368055547,0)" xlink:href="#aE"/><use transform="matrix(0.005425347222222206,0,0,0.005425347222222206,32.747395833333236,0)" xlink:href="#aF"/><use transform="matrix(0.005425347222222206,0,0,0.005425347222222206,42.4858940972221,0)" xlink:href="#ar"/><use transform="matrix(0.005425347222222206,0,0,0.005425347222222206,48.52973090277764,0)" xlink:href="#aG"/><use transform="matrix(0.005425347222222206,0,0,0.005425347222222206,54.03645833333318,0)" xlink:href="#aH"/><use transform="matrix(0.005425347222222206,0,0,0.005425347222222206,59.049479166666494,0)" xlink:href="#at"/><use transform="matrix(0.005425347222222206,0,0,0.005425347222222206,62.67903645833315,0)" xlink:href="#aG"/><use transform="matrix(0.005425347222222206,0,0,0.005425347222222206,68.07725694444424,0)" xlink:href="#aI"/></g><path fill="#333" d="M584 20C278 26 81-227 91-551c10-320 175-545 491-551 308-5 503 247 494 573-9 322-175 543-492 549zm-2-970c-208 0-305 185-305 421 0 216 106 398 307 398 211 0 307-186 307-420 0-214-109-399-309-399" id="aJ"/><path fill="#333" d="M520 20C244 20 95-247 95-550c0-298 151-550 427-552 127 0 227 43 301 130v-564h185V0H838l-9-116C755-25 652 20 520 20zm48-965c-210 0-288 177-288 416 0 218 87 392 286 392 117 0 203-53 257-158v-497c-55-102-140-153-255-153" id="aK"/><g id="p"><use transform="matrix(0.005425347222222206,0,0,0.005425347222222206,0,0)" xlink:href="#aF"/><use transform="matrix(0.005425347222222206,0,0,0.005425347222222206,9.73849826388886,0)" xlink:href="#aJ"/><use transform="matrix(0.005425347222222206,0,0,0.005425347222222206,16.075303819444397,0)" xlink:href="#aK"/></g><use transform="matrix(0.005425347222222206,0,0,0.005425347222222206,0,0)" xlink:href="#af" id="q"/><g id="r"><use transform="matrix(0.009765624999999986,0,0,0.009765624999999986,0,0)" xlink:href="#az"/><use transform="matrix(0.009765624999999986,0,0,0.009765624999999986,6.94335937499999,0)" xlink:href="#au"/><use transform="matrix(0.009765624999999986,0,0,0.009765624999999986,13.52539062499998,0)" xlink:href="#av"/><use transform="matrix(0.009765624999999986,0,0,0.009765624999999986,24.121093749999964,0)" xlink:href="#av"/></g><path fill="#202124" d="M1481-651H145v-151h1336v151" id="aL"/><path fill="#202124" d="M569-1476c255 0 440 146 439 390 0 143-91 314-274 512L344-151h731V0H121v-133l504-560c75-85 125-155 155-207 105-184 6-424-211-424-183 0-293 113-291 297H93c-3-270 199-449 476-449" id="aM"/><g id="s"><use transform="matrix(0.009765624999999986,0,0,0.009765624999999986,0,0)" xlink:href="#aL"/><use transform="matrix(0.009765624999999986,0,0,0.009765624999999986,15.615234374999979,0)" xlink:href="#aM"/></g><use transform="matrix(0.009765624999999986,0,0,0.009765624999999986,0,0)" xlink:href="#aL" id="t"/><path fill="#202124" d="M884-462c0-185-111-323-291-323-113 0-183 39-239 93l-148-38 74-726h746v171H437l-44 397c71-42 152-63 243-63 273-2 433 205 433 487 0 293-170 484-461 484-260 0-436-159-454-403h175c20 156 111 252 279 252 182 0 276-140 276-331" id="aN"/><use transform="matrix(0.009765624999999986,0,0,0.009765624999999986,0,0)" xlink:href="#aN" id="u"/><path fill="#202124" d="M1061-1352L458 0H264l601-1304H77v-152h984v104" id="aO"/><use transform="matrix(0.009765624999999986,0,0,0.009765624999999986,0,0)" xlink:href="#aO" id="v"/><path fill="#202124" d="M253-1536c2 169-14 319-21 479H103l1-479h149" id="aP"/><g id="w"><use transform="matrix(0.009765624999999986,0,0,0.009765624999999986,0,0)" xlink:href="#aM"/><use transform="matrix(0.00683593749999999,0,0,0.00683593749999999,11.230468749999984,-6.49414062499999)" xlink:href="#aP"/></g><path fill="#202124" d="M574-1476c351 0 454 237 460 615v240c0 217-37 378-111 483S733 20 576 20c-346 0-454-246-461-616v-247c0-214 37-373 111-477s190-156 348-156zm275 905c0-337 59-752-275-753-95 0-160 38-207 107-80 118-66 409-67 625 0 157 22 273 68 348s115 113 208 113c91 0 160-35 204-106s69-182 69-334" id="aQ"/><g id="x"><use transform="matrix(0.009765624999999986,0,0,0.009765624999999986,0,0)" xlink:href="#aL"/><use transform="matrix(0.009765624999999986,0,0,0.009765624999999986,15.615234374999979,0)" xlink:href="#aQ"/></g><path fill="#202124" d="M729 0H543v-1233l-373 137v-168l530-199h29V0" id="aR"/><use transform="matrix(0.009765624999999986,0,0,0.009765624999999986,0,0)" xlink:href="#aR" id="y"/><use transform="matrix(0.009765624999999986,0,0,0.009765624999999986,0,0)" xlink:href="#aM" id="z"/><path fill="#202124" d="M832-402c-1-179-119-264-303-265H390v-151h139c164 0 281-91 281-250 0-171-85-256-255-256-154 0-265 99-263 250H107c-4-235 205-402 448-402 266 0 444 150 440 412-2 148-109 272-229 317 147 45 249 158 251 341 3 262-197 426-461 426C299 20 91-135 94-384h186c-2 156 116 253 276 253 176 0 277-96 276-271" id="aS"/><use transform="matrix(0.009765624999999986,0,0,0.009765624999999986,0,0)" xlink:href="#aS" id="A"/><path fill="#202124" d="M902-489h202v151H902V0H716v-338H53v-109l652-1009h197v967zm-639 0h453v-714l-22 40" id="aT"/><use transform="matrix(0.009765624999999986,0,0,0.009765624999999986,0,0)" xlink:href="#aT" id="B"/><path fill="#202124" d="M132-554c0-555 187-908 715-903v157c-320-8-501 179-526 477 77-88 181-132 314-132 259 0 417 214 417 480 0 286-172 495-451 495-293 0-469-266-469-574zm737 88c0-181-95-335-265-335-133 0-252 96-286 200v68c-6 207 101 397 283 400 175 3 268-150 268-333" id="aU"/><use transform="matrix(0.009765624999999986,0,0,0.009765624999999986,0,0)" xlink:href="#aU" id="C"/><use transform="matrix(0.009765624999999986,0,0,0.009765624999999986,0,0)" xlink:href="#aO" id="D"/><g id="E"><use transform="matrix(0.009765624999999986,0,0,0.009765624999999986,0,0)" xlink:href="#aL"/><use transform="matrix(0.009765624999999986,0,0,0.009765624999999986,15.615234374999979,0)" xlink:href="#aM"/></g><path fill="#5e5e5e" d="M952-300H426L326 0H7l542-1456h278L1372 0h-319zM507-543h364l-183-545" id="aV"/><path fill="#5e5e5e" d="M248 11c-71 0-114-43-114-108 0-67 42-112 114-112s116 45 116 112c-1 65-45 108-116 108zm1-883c-71 0-114-43-114-108 0-67 42-112 114-112s116 45 116 112c-1 65-45 108-116 108" id="aW"/><g id="F"><use transform="matrix(0.011935763888888886,0,0,0.011935763888888886,0,0)" xlink:href="#aV"/><use transform="matrix(0.011935763888888886,0,0,0.011935763888888886,16.447482638888886,0)" xlink:href="#aW"/></g><path fill="#5e5e5e" d="M704-1390c-164-38-297 28-288 194v114h231v143H416V0H231v-939H60v-143h171v-111c-12-274 208-416 483-347" id="aX"/><path fill="#5e5e5e" d="M341 0H156v-1082h185V0zm-91-1264c-68 0-108-42-109-105 0-62 41-107 109-107s110 44 110 107-42 105-110 105" id="aY"/><path fill="#5e5e5e" d="M663-916c-163-27-288 18-338 148V0H140v-1082h180l3 125c61-97 147-145 258-145 36 0 63 5 82 14v172" id="aZ"/><path fill="#5e5e5e" d="M538-131c121 0 232-49 232-156 0-50-20-88-56-117-73-60-334-92-420-143-92-55-162-110-162-238 0-190 192-317 400-317 223 0 414 129 413 338H759c0-108-110-186-227-186-119 0-215 53-215 159 0 45 18 78 53 101 76 52 331 90 416 139 98 57 169 115 169 251C955-92 760 20 538 20c-176 0-314-68-386-174-38-55-57-115-57-179h185c6 129 116 202 258 202" id="ba"/><path fill="#5e5e5e" d="M456 20C285 20 205-92 206-268v-671H9v-143h197v-262h185v262h202v143H391v671c-9 125 92 149 207 118V0c-49 13-96 20-142 20" id="bb"/><g id="G"><use transform="matrix(0.011935763888888886,0,0,0.011935763888888886,0,0)" xlink:href="#aX"/><use transform="matrix(0.011935763888888886,0,0,0.011935763888888886,8.486328124999998,0)" xlink:href="#aY"/><use transform="matrix(0.011935763888888886,0,0,0.011935763888888886,14.418402777777775,0)" xlink:href="#aZ"/><use transform="matrix(0.011935763888888886,0,0,0.011935763888888886,22.68988715277777,0)" xlink:href="#ba"/><use transform="matrix(0.011935763888888886,0,0,0.011935763888888886,35.294053819444436,0)" xlink:href="#bb"/></g><path fill="#5e5e5e" d="M521 20C240 20 96-239 96-550c0-303 147-552 427-552 132 0 235 47 309 140l9-120h169V-26c4 277-183 454-459 452-165-1-334-81-400-187l96-111c79 98 176 147 291 147 180 1 288-109 286-290v-93C750-23 649 20 521 20zm48-965c-209 0-287 178-287 416 0 217 86 392 285 392 117 0 202-53 257-159v-494c-57-103-142-155-255-155" id="bc"/><path fill="#5e5e5e" d="M277-555c0 244 77 420 297 424 127 2 249-93 255-210h175C980-127 805 20 574 20 258 20 81-222 92-562c11-319 164-533 481-540 237-5 426 165 431 392H829c-7-133-115-242-256-240-209 4-296 166-296 395" id="bd"/><g id="H"><use transform="matrix(0.011935763888888886,0,0,0.011935763888888886,0,0)" xlink:href="#bc"/><use transform="matrix(0.011935763888888886,0,0,0.011935763888888886,13.71419270833333,0)" xlink:href="#bd"/></g><path fill="#333" d="M355-556c-2 203 30 338 206 343 102 3 181-63 182-161h271C1001-128 821 17 566 20 242 24 66-212 66-554c0-320 184-548 498-548 262 0 451 167 450 423H743c-1-108-75-193-184-189-162 6-202 123-204 312" id="be"/><path fill="#333" d="M579 20C257 20 58-214 66-551c8-331 182-551 511-551 324 0 514 231 514 572 0 319-198 550-512 550zm-2-888c-169 0-222 141-222 338 0 181 61 317 224 317 170 0 223-137 223-338 0-178-64-317-225-317" id="bf"/><path fill="#333" d="M741-689c-2-124-40-177-163-178-82 0-141 34-178 102V0H111v-1082h271l9 121c77-94 180-141 311-141 139 0 235 55 287 165 76-110 184-165 325-165 249 0 348 151 348 411V0h-290v-690c-2-123-39-176-163-177-87 0-147 41-180 124l1 743H741v-689" id="bg"/><path fill="#333" d="M416 0H126v-1082h290V0zM271-1212c-92 0-162-61-162-150s68-149 162-149c93 0 162 60 162 149s-70 150-162 150" id="bh"/><path fill="#333" d="M457-330c2 83 25 111 111 112 32 0 60-2 85-7V-6c-57 17-115 26-175 26-203 0-310-102-310-307v-583H10v-212h158v-266h289v266h185v212H457v540" id="bi"/><g id="I"><use transform="matrix(0.009765624999999986,0,0,0.009765624999999986,0,0)" xlink:href="#be"/><use transform="matrix(0.009765624999999986,0,0,0.009765624999999986,10.429687499999986,0)" xlink:href="#bf"/><use transform="matrix(0.009765624999999986,0,0,0.009765624999999986,21.738281249999975,0)" xlink:href="#bg"/><use transform="matrix(0.009765624999999986,0,0,0.009765624999999986,39.05273437499994,0)" xlink:href="#bg"/><use transform="matrix(0.009765624999999986,0,0,0.009765624999999986,56.36718749999991,0)" xlink:href="#bh"/><use transform="matrix(0.009765624999999986,0,0,0.009765624999999986,61.6699218749999,0)" xlink:href="#bi"/></g><path fill="#333" d="M529-185c94 0 168-33 168-114 0-35-18-63-53-83s-91-39-168-55C219-491 90-600 90-765c0-208 203-337 432-337 246 0 451 124 453 349H686c-2-91-62-143-165-143-86 0-151 41-153 117 0 32 16 57 46 77 63 43 257 69 335 100 151 60 229 153 229 291C978-13 554 93 282-28 162-81 60-190 56-344h274c5 106 86 159 199 159" id="bj"/><path fill="#333" d="M416 0H126v-1536h290V0" id="bk"/><g id="J"><use transform="matrix(0.009765624999999986,0,0,0.009765624999999986,0,0)" xlink:href="#bj"/><use transform="matrix(0.009765624999999986,0,0,0.009765624999999986,10.283203124999986,0)" xlink:href="#bk"/><use transform="matrix(0.009765624999999986,0,0,0.009765624999999986,15.585937499999979,0)" xlink:href="#bf"/><use transform="matrix(0.009765624999999986,0,0,0.009765624999999986,26.894531249999964,0)" xlink:href="#bi"/></g><path fill="#333" d="M663-1102c295 0 422 250 422 571 0 300-141 549-420 551-109 0-198-38-265-114v510H111v-1498h268l10 106c70-84 161-126 274-126zm133 550c0-175-53-315-209-315-91 0-153 35-187 104v443c35 71 98 107 189 107 138 0 207-113 207-339" id="bl"/><path fill="#333" d="M1031-175C952-60 797 20 609 20 287 20 60-206 72-543c12-330 180-559 505-559 309 0 482 214 477 537v118H365c15 134 115 234 263 234 111 0 198-40 261-121zM770-644c5-139-62-226-194-224-130 1-191 97-208 224h402" id="bm"/><path fill="#333" d="M750-692c-1-124-48-174-173-175-81 0-142 35-183 104V0H105v-1082h272l9 125c77-97 181-145 311-145 244 0 342 151 342 403V0H750v-692" id="bn"/><g id="K"><use transform="matrix(0.009765624999999986,0,0,0.009765624999999986,0,0)" xlink:href="#bf"/><use transform="matrix(0.009765624999999986,0,0,0.009765624999999986,11.308593749999984,0)" xlink:href="#bl"/><use transform="matrix(0.009765624999999986,0,0,0.009765624999999986,22.568359374999968,0)" xlink:href="#bm"/><use transform="matrix(0.009765624999999986,0,0,0.009765624999999986,33.37890624999995,0)" xlink:href="#bn"/></g><path fill="#333" d="M750-685c-1-124-48-182-173-182-85 0-146 33-184 98V0H104v-1536h289v572c77-92 173-138 289-138 235 0 357 136 357 409V0H750v-685" id="bo"/><path fill="#333" d="M463 20c-241-1-359-147-359-393v-709h289v699c0 113 51 169 154 169 98 0 165-34 202-102v-766h290V0H767l-8-110C688-23 589 20 463 20" id="bp"/><path fill="#333" d="M504-434L400-330V0H111v-1536h289v851c106-137 222-264 333-397h347L689-631 1114 0H782" id="bq"/><g id="L"><use transform="matrix(0.009765624999999986,0,0,0.009765624999999986,0,0)" xlink:href="#be"/><use transform="matrix(0.009765624999999986,0,0,0.009765624999999986,10.429687499999986,0)" xlink:href="#bo"/><use transform="matrix(0.009765624999999986,0,0,0.009765624999999986,21.621093749999975,0)" xlink:href="#bp"/><use transform="matrix(0.009765624999999986,0,0,0.009765624999999986,32.81249999999996,0)" xlink:href="#bn"/><use transform="matrix(0.009765624999999986,0,0,0.009765624999999986,44.01367187499994,0)" xlink:href="#bq"/></g><path fill="#333" d="M176 0v-125h654v-1308h125v1308h654V0H175" id="br"/><use transform="matrix(0.009765624999999986,0,0,0.009765624999999986,0,0)" xlink:href="#br" id="M"/><path fill="#333" d="M576-1476c284-5 474 140 474 413 0 72-17 146-56 220-110 211-361 428-523 610h626V0H99v-198l471-502c65-71 110-134 144-185 92-140 43-358-143-358-134 0-213 107-211 245H70c11-295 206-473 506-478" id="bs"/><use transform="matrix(0.009765624999999986,0,0,0.009765624999999986,0,0)" xlink:href="#bs" id="N"/><path fill="#333" d="M801 0H512v-1114l-345 107v-235l603-216h31V0" id="bt"/><use transform="matrix(0.009765624999999986,0,0,0.009765624999999986,0,0)" xlink:href="#bt" id="O"/><path fill="#333" d="M566-213c130 0 220-75 220-199 0-145-80-218-240-218H393v-226h154c138 3 214-73 216-201 1-118-78-186-197-186-103 0-197 64-195 164H82c11-259 212-391 477-397 286-6 493 142 493 415 0 151-107 263-221 313 147 51 242 159 244 340 3 272-230 428-516 428C289 20 61-138 64-399h289c-3 111 100 186 213 186" id="bu"/><use transform="matrix(0.009765624999999986,0,0,0.009765624999999986,0,0)" xlink:href="#bu" id="P"/><path fill="#333" d="M586-1476c342 0 491 246 493 606v268c2 370-143 622-491 622C246 20 97-227 95-587v-268c-2-372 145-621 491-621zm204 926c0-199 18-488-50-610-58-105-243-107-304-4-71 121-52 402-52 600 0 119 19 205 48 264 54 112 254 115 309 4 28-57 49-140 49-254" id="bv"/><use transform="matrix(0.009765624999999986,0,0,0.009765624999999986,0,0)" xlink:href="#bv" id="Q"/><path fill="#5e5e5e" d="M1212-428C1211-131 1004 0 696 0H130v-1456h510c318-1 539 108 539 399 0 155-89 264-208 308 141 33 242 151 241 321zM687-241c132 2 225-65 225-190 0-133-69-203-207-203H430v393h257zm192-786c0-145-86-186-239-186H430v367h222c151-3 227-63 227-181" id="bw"/><g id="R"><use transform="matrix(0.011935763888888886,0,0,0.011935763888888886,0,0)" xlink:href="#bw"/><use transform="matrix(0.011935763888888886,0,0,0.011935763888888886,15.600043402777775,0)" xlink:href="#aW"/></g><path fill="#5e5e5e" d="M341 0H156v-1536h185V0" id="bx"/><path fill="#5e5e5e" d="M584 20C278 26 81-227 91-551c10-320 175-545 491-551 308-5 503 247 494 573-9 322-175 543-492 549zm-2-970c-208 0-305 185-305 421 0 216 106 398 307 398 211 0 307-186 307-420 0-214-109-399-309-399" id="by"/><g id="S"><use transform="matrix(0.011935763888888886,0,0,0.011935763888888886,0,0)" xlink:href="#ba"/><use transform="matrix(0.011935763888888886,0,0,0.011935763888888886,12.604166666666664,0)" xlink:href="#bx"/><use transform="matrix(0.011935763888888886,0,0,0.011935763888888886,18.536241319444443,0)" xlink:href="#by"/><use transform="matrix(0.011935763888888886,0,0,0.011935763888888886,32.477213541666664,0)" xlink:href="#bb"/></g><path fill="#5e5e5e" d="M574-1476c351 0 454 237 460 615v240c0 217-37 378-111 483S733 20 576 20c-346 0-454-246-461-616v-247c0-214 37-373 111-477s190-156 348-156zm275 905c0-337 59-752-275-753-95 0-160 38-207 107-80 118-66 409-67 625 0 157 22 273 68 348s115 113 208 113c91 0 160-35 204-106s69-182 69-334" id="bz"/><use transform="matrix(0.011935763888888886,0,0,0.011935763888888886,0,0)" xlink:href="#bz" id="T"/><path fill="#5e5e5e" d="M589-945c-131 0-219 81-264 174V0H140v-1082h175l6 136c83-104 191-156 324-156 229 0 346 129 346 387V0H806v-716c-2-153-65-229-217-229" id="bA"/><path fill="#5e5e5e" d="M599-131c141 0 220-65 285-146l113 88C906-50 770 20 589 20 281 21 93-214 93-545c0-223 93-397 233-485 74-48 154-72 240-72 300 2 449 218 445 537v77H278c0 197 129 357 321 357zm227-509c-3-180-88-310-260-310-170 0-264 140-282 310h542" id="bB"/><path fill="#5e5e5e" d="M520 20C244 20 95-247 95-550c0-298 151-550 427-552 127 0 227 43 301 130v-564h185V0H838l-9-116C755-25 652 20 520 20zm48-965c-210 0-288 177-288 416 0 218 87 392 286 392 117 0 203-53 257-158v-497c-55-102-140-153-255-153" id="bC"/><g id="U"><use transform="matrix(0.011935763888888886,0,0,0.011935763888888886,0,0)" xlink:href="#bA"/><use transform="matrix(0.011935763888888886,0,0,0.011935763888888886,13.487413194444441,0)" xlink:href="#bB"/><use transform="matrix(0.011935763888888886,0,0,0.011935763888888886,26.437717013888882,0)" xlink:href="#bB"/><use transform="matrix(0.011935763888888886,0,0,0.011935763888888886,39.38802083333332,0)" xlink:href="#bC"/><use transform="matrix(0.011935763888888886,0,0,0.011935763888888886,53.173828124999986,0)" xlink:href="#ba"/></g><path fill="#5e5e5e" d="M589-945c-131 0-219 81-264 174V0H140v-1536h185v585c82-101 189-151 320-151 229 0 346 129 346 387V0H806v-716c-2-153-65-229-217-229" id="bD"/><path fill="#5e5e5e" d="M491 20c-241-1-355-148-355-398v-704h185v699c0 164 67 246 200 246 141 0 235-53 282-158v-787h185V0H812l-4-107C736-22 630 20 491 20" id="bE"/><path fill="#5e5e5e" d="M442-501L326-380V0H141v-1536h185v929c135-169 291-317 436-475h225L566-630 1036 0H819" id="bF"/><g id="V"><use transform="matrix(0.011935763888888886,0,0,0.011935763888888886,0,0)" xlink:href="#bd"/><use transform="matrix(0.011935763888888886,0,0,0.011935763888888886,12.795138888888886,0)" xlink:href="#bD"/><use transform="matrix(0.011935763888888886,0,0,0.011935763888888886,26.25868055555555,0)" xlink:href="#bE"/><use transform="matrix(0.011935763888888886,0,0,0.011935763888888886,39.7341579861111,0)" xlink:href="#bA"/><use transform="matrix(0.011935763888888886,0,0,0.011935763888888886,53.22157118055554,0)" xlink:href="#bF"/></g><path fill="#5e5e5e" d="M687-225c189-1 272-84 286-260h300c-19 311-251 505-586 505C296 20 86-277 86-686c0-466 174-782 605-790 340-6 557 198 584 514H975c-15-183-92-268-284-268-100 0-173 38-225 108-63 84-76 264-76 443 0 157 24 272 72 345s122 109 225 109" id="bG"/><g id="W"><use transform="matrix(0.011935763888888886,0,0,0.011935763888888886,0,0)" xlink:href="#bG"/><use transform="matrix(0.011935763888888886,0,0,0.011935763888888886,15.993923611111107,0)" xlink:href="#aW"/></g><g id="X"><use transform="matrix(0.011935763888888886,0,0,0.011935763888888886,0,0)" xlink:href="#bd"/><use transform="matrix(0.011935763888888886,0,0,0.011935763888888886,12.795138888888886,0)" xlink:href="#bD"/><use transform="matrix(0.011935763888888886,0,0,0.011935763888888886,26.25868055555555,0)" xlink:href="#bE"/><use transform="matrix(0.011935763888888886,0,0,0.011935763888888886,39.7341579861111,0)" xlink:href="#bA"/><use transform="matrix(0.011935763888888886,0,0,0.011935763888888886,53.22157118055554,0)" xlink:href="#bF"/></g><g id="Y"><use transform="matrix(0.011935763888888886,0,0,0.011935763888888886,0,0)" xlink:href="#aX"/><use transform="matrix(0.011935763888888886,0,0,0.011935763888888886,8.486328124999998,0)" xlink:href="#bE"/><use transform="matrix(0.011935763888888886,0,0,0.011935763888888886,21.96180555555555,0)" xlink:href="#bx"/><use transform="matrix(0.011935763888888886,0,0,0.011935763888888886,27.89388020833333,0)" xlink:href="#bx"/></g><path fill="#5e5e5e" d="M130 0v-1456h448c435 14 673 299 665 762-5 285-130 500-319 606C822-31 708 0 581 0H130zm809-685c9-311-79-526-361-528H430v972h145c252-2 356-181 364-444" id="bH"/><g id="Z"><use transform="matrix(0.011935763888888886,0,0,0.011935763888888886,0,0)" xlink:href="#bH"/><use transform="matrix(0.011935763888888886,0,0,0.011935763888888886,15.886501736111107,0)" xlink:href="#aW"/></g><path fill="#5e5e5e" d="M497-251l268-831h189L566 0H425L33-1082h189" id="bI"/><path fill="#5e5e5e" d="M561-1102c238-4 403 126 403 351v498c0 99 13 178 38 237V0H808c-11-21-19-59-26-114C696-25 593 20 474 20c-199 0-368-130-365-320 4-251 214-359 490-356h180v-85c-1-135-86-212-229-212-115 0-232 67-233 171H131c20-205 206-316 430-320zM294-326c0 117 90 185 207 185 122 0 239-75 278-162v-222H634c-227 0-340 66-340 199" id="bJ"/><g id="aa"><use transform="matrix(0.011935763888888886,0,0,0.011935763888888886,0,0)" xlink:href="#bB"/><use transform="matrix(0.011935763888888886,0,0,0.011935763888888886,12.795138888888886,0)" xlink:href="#bI"/><use transform="matrix(0.011935763888888886,0,0,0.011935763888888886,24.480251736111107,0)" xlink:href="#bB"/><use transform="matrix(0.011935763888888886,0,0,0.011935763888888886,37.43055555555555,0)" xlink:href="#bA"/><use transform="matrix(0.011935763888888886,0,0,0.011935763888888886,50.917968749999986,0)" xlink:href="#bb"/><use transform="matrix(0.011935763888888886,0,0,0.011935763888888886,58.90299479166666,0)" xlink:href="#bE"/><use transform="matrix(0.011935763888888886,0,0,0.011935763888888886,72.37847222222221,0)" xlink:href="#bJ"/><use transform="matrix(0.011935763888888886,0,0,0.011935763888888886,85.67491319444443,0)" xlink:href="#bx"/></g><g id="ab"><use transform="matrix(0.011935763888888886,0,0,0.011935763888888886,0,0)" xlink:href="#bc"/><use transform="matrix(0.011935763888888886,0,0,0.011935763888888886,13.71419270833333,0)" xlink:href="#bd"/></g><use transform="matrix(0.009765624999999986,0,0,0.009765624999999986,0,0)" xlink:href="#aL" id="ac"/></defs></g></svg>