<svg xmlns="http://www.w3.org/2000/svg" xmlns:xlink="http://www.w3.org/1999/xlink" xmlns:lucid="lucid" width="766.85" height="503.32"><g transform="translate(-266.99484130405114 -3780)" lucid:page-tab-id="JUeFc64-hEZi"><path d="M326.36 3800H430.5v80H326.37z" stroke="#202124" fill="#b2d6ef"/><use xlink:href="#a" transform="matrix(1,0,0,1,328.3639130971851,3802.0000000000023) translate(27.428710937500036 32.80468749999997)"/><use xlink:href="#b" transform="matrix(1,0,0,1,328.3639130971851,3802.0000000000023) translate(19.93359375000004 56.24218749999994)"/><path d="M430.5 3800h249.17v80H430.5z" stroke="#202124" fill="#999"/><use xlink:href="#c" transform="matrix(1,0,0,1,432.5113383896795,3802) translate(57.8193359375001 32.80468749999997)"/><use xlink:href="#d" transform="matrix(1,0,0,1,432.5113383896795,3802) translate(101.31542968750003 56.24218749999994)"/><path d="M433.84 3938.35h560V4020h-560z" stroke="#202124" fill="#e5e5e5"/><path d="M433.84 3930.8h19.93v7.55h-19.93zM453.77 3930.8h20.07v7.55h-20.07zM473.84 3930.8h19.93v7.55h-19.93zM493.77 3930.8h20.07v7.55h-20.07zM513.84 3930.8h19.93v7.55h-19.93zM533.77 3930.8h20.07v7.55h-20.07zM553.84 3930.8h19.93v7.55h-19.93zM573.77 3930.8h20.07v7.55h-20.07zM593.84 3930.8h19.93v7.55h-19.93zM613.77 3930.8h20.07v7.55h-20.07zM633.84 3930.8h19.93v7.55h-19.93zM653.77 3930.8h20.07v7.55h-20.07zM673.84 3930.8h19.93v7.55h-19.93zM693.77 3930.8h20.07v7.55h-20.07zM713.84 3930.8h19.93v7.55h-19.93zM733.77 3930.8h20.07v7.55h-20.07zM753.84 3930.8h19.93v7.55h-19.93zM773.77 3930.8h20.07v7.55h-20.07zM793.84 3930.8h19.93v7.55h-19.93zM813.77 3930.8h20.07v7.55h-20.07zM833.84 3930.8h19.93v7.55h-19.93zM853.77 3930.8h20.07v7.55h-20.07zM873.84 3930.8h19.93v7.55h-19.93zM893.77 3930.8h20.07v7.55h-20.07zM913.84 3930.8h19.93v7.55h-19.93zM933.77 3930.8h20.07v7.55h-20.07zM953.84 3930.8h19.93v7.55h-19.93zM973.77 3930.8h20.07v7.55h-20.07z" stroke="#202124" fill="#fff"/><path d="M433.84 3938.35h19.93V4020h-19.93z" stroke="#202124" fill="#b2d6ef"/><path d="M453.77 3938.35h73.46V4020h-73.46z" stroke="#202124" fill="#b2b2b2"/><path d="M527.23 3938.35h6.54V4020h-6.54z" stroke="#202124" fill="#fff"/><path d="M533.77 3938.35h19.92V4020h-19.93z" stroke="#202124" fill="#b2d6ef"/><path d="M553.7 3938.35h120.14V4020H553.7z" stroke="#202124" fill="#b2b2b2"/><path d="M673.84 3938.35h19.93V4020h-19.93z" stroke="#202124" fill="#b2d6ef"/><path d="M693.84 3938.35h26.26V4020h-26.26z" stroke="#202124" fill="#b2b2b2"/><path d="M720.1 3938.35h13.67V4020H720.1z" stroke="#202124" fill="#fff"/><path d="M733.77 3938.35h20.07V4020h-20.07z" stroke="#202124" fill="#ffbbb1"/><path d="M733.84 3938.35h20.08V4020h-20.08z" stroke="#000" stroke-opacity="0" fill="#fff" fill-opacity="0"/><use xlink:href="#e" transform="matrix(1,0,0,1,738.8434639850149,3943.3500507064764) translate(1.1325954861111205 14.43142361111108)"/><use xlink:href="#e" transform="matrix(1,0,0,1,738.8434639850149,3943.3500507064764) translate(1.1325954861111205 32.66059027777771)"/><use xlink:href="#e" transform="matrix(1,0,0,1,738.8434639850149,3943.3500507064764) translate(1.1325954861111205 50.889756944444336)"/><use xlink:href="#e" transform="matrix(1,0,0,1,738.8434639850149,3943.3500507064764) translate(1.1325954861111205 69.11892361111097)"/><use xlink:href="#f" transform="matrix(1,0,0,1,738.8434639850149,3943.3500507064764) translate(5.5 87.3480902777776)"/><path d="M679.67 3800h174.17v80H679.67z" stroke="#202124" fill="#fff"/><use xlink:href="#g" transform="matrix(1,0,0,1,681.6666338553995,3802.0000000000027) translate(38.26855468750007 18.554687499999975)"/><use xlink:href="#h" transform="matrix(1,0,0,1,681.6666338553995,3802.0000000000027) translate(114.98730468749996 18.554687499999975)"/><use xlink:href="#i" transform="matrix(1,0,0,1,681.6666338553995,3802.0000000000027) translate(40.915039062500064 41.99218749999994)"/><use xlink:href="#j" transform="matrix(1,0,0,1,681.6666338553995,3802.0000000000027) translate(83.9423828125 41.99218749999994)"/><use xlink:href="#k" transform="matrix(1,0,0,1,681.6666338553995,3802.0000000000027) translate(49.76757812500005 65.42968749999991)"/><path d="M326.65 3880.18l106.55 50.3M326.66 3880.18l-.46-.2M433.2 3930.48l.46.22M853.63 3880.1L594 3930.7M853.62 3880.1l.5-.1M594 3930.7l-.5.1" stroke="#202124" fill="none"/><path d="M378.7 4155.22h158.73v68.95H378.7z" stroke="#202124" fill="#e5e5e5"/><path d="M378.7 4147h158.73v8.22H378.7z" stroke="#202124" fill="#fff"/><path d="M537.43 4155.22h158.74v68.95H537.43z" stroke="#202124" fill="#e5e5e5"/><path d="M537.43 4147h158.74v8.22H537.43z" stroke="#202124" fill="#fff"/><path d="M696.12 4155.22h158.74v68.95H696.12z" stroke="#202124" fill="#e5e5e5"/><path d="M696.12 4147h158.74v8.22H696.12z" stroke="#202124" fill="#fff"/><path d="M854.86 4155.22h158.75v68.95H854.87z" stroke="#202124" fill="#e5e5e5"/><path d="M854.86 4147h158.75v8.22H854.87z" stroke="#202124" fill="#fff"/><path d="M287 4164.43h80.4v51.66H287z" stroke="#000" stroke-opacity="0" fill="#fff" fill-opacity="0"/><use xlink:href="#l" transform="matrix(1,0,0,1,291.99484130405114,4169.428049645125) translate(18.638888888888978 16.493055555555525)"/><use xlink:href="#m" transform="matrix(1,0,0,1,291.99484130405114,4169.428049645125) translate(1.703125000000128 37.32638888888882)"/><path d="M538.44 4224.17H697.2v39.15H538.43z" stroke="#000" stroke-opacity="0" fill="#fff" fill-opacity="0"/><use xlink:href="#n" transform="matrix(1,0,0,1,543.4426006872052,4229.167835448421) translate(36.843750000000064 20.243055555555525)"/><use xlink:href="#o" transform="matrix(1,0,0,1,543.4426006872052,4229.167835448421) translate(91.22743055555553 20.243055555555525)"/><path d="M695.65 4224.17H854.4v39.15H695.64z" stroke="#000" stroke-opacity="0" fill="#fff" fill-opacity="0"/><use xlink:href="#n" transform="matrix(1,0,0,1,700.6467995493058,4229.167835448421) translate(36.843750000000064 20.243055555555525)"/><use xlink:href="#p" transform="matrix(1,0,0,1,700.6467995493058,4229.167835448421) translate(91.22743055555553 20.243055555555525)"/><path d="M855.1 4224.17h158.74v39.15H855.1z" stroke="#000" stroke-opacity="0" fill="#fff" fill-opacity="0"/><use xlink:href="#n" transform="matrix(1,0,0,1,860.0995725455173,4229.167835448421) translate(36.843750000000064 20.243055555555525)"/><use xlink:href="#q" transform="matrix(1,0,0,1,860.0995725455173,4229.167835448421) translate(91.22743055555553 20.243055555555525)"/><path d="M855.1 4155.22h5.7v68.95h-5.7z" stroke="#202124" fill="#b2d6ef"/><path d="M860.8 4155.22h20.96v68.95H860.8z" stroke="#202124" fill="#b2b2b2"/><path d="M881.76 4155.22h1.86v68.95h-1.86z" stroke="#202124" fill="#fff"/><path d="M883.62 4155.22h5.7v68.95h-5.7z" stroke="#202124" fill="#b2d6ef"/><path d="M889.3 4155.22h34.3v68.95h-34.3z" stroke="#202124" fill="#b2b2b2"/><path d="M923.6 4155.22h5.7v68.95h-5.7z" stroke="#202124" fill="#b2d6ef"/><path d="M929.32 4155.22h7.5v68.95h-7.5z" stroke="#202124" fill="#b2b2b2"/><path d="M936.82 4155.22h3.9v68.95h-3.9z" stroke="#202124" fill="#fff"/><path d="M940.72 4155.22h5.73v68.95h-5.73z" stroke="#202124" fill="#ffbbb1"/><path d="M940.74 4155.22h5.73v68.95h-5.73z" stroke="#000" stroke-opacity="0" fill="#fff" fill-opacity="0"/><path d="M696.12 4155.22h5.68v68.95h-5.68z" stroke="#202124" fill="#b2d6ef"/><path d="M701.8 4155.22h34.3v68.95h-34.3z" stroke="#202124" fill="#b2b2b2"/><path d="M737.97 4155.22h5.7v68.95h-5.7z" stroke="#202124" fill="#ffbbb1"/><path d="M736.1 4155.22h1.87v68.95h-1.86z" stroke="#202124" fill="#fff"/><path d="M537.43 4155.22h5.7v68.95h-5.7z" stroke="#202124" fill="#ffbbb1"/><path d="M434 4020.2l420.5 126.6M434 4020.2l-.5-.13M854.5 4146.8l.48.15M993.84 4020.14l19.7 126.55M993.84 4020.15l-.08-.5M1013.52 4146.68l.08.5" stroke="#202124" fill="none"/><path d="M378.74 4155.22h5.7v68.95h-5.7z" stroke="#202124" fill="#b2d6ef"/><path d="M384.43 4155.22h72.14v68.95h-72.14z" stroke="#202124" fill="#999"/><path d="M459.78 4155.22h5.7v68.95h-5.7z" stroke="#202124" fill="#b2d6ef"/><path d="M465.47 4155.22h11.1v68.95h-11.1z" stroke="#202124" fill="#999"/><path d="M456.57 4155.22h3.2v68.95h-3.2z" stroke="#202124" fill="#fff"/><path d="M476.57 4155.22h5.68v68.95h-5.68z" stroke="#202124" fill="#b2d6ef"/><path d="M482.25 4155.22h11.1v68.95h-11.1z" stroke="#202124" fill="#999"/><path d="M493.35 4155.22h5.7v68.95h-5.7z" stroke="#202124" fill="#b2d6ef"/><path d="M499.04 4155.22h5.68v68.95h-5.68z" stroke="#202124" fill="#999"/><path d="M504.72 4155.22h5.7v68.95h-5.7z" stroke="#202124" fill="#b2d6ef"/><path d="M510.4 4155.22h5.7v68.95h-5.7z" stroke="#202124" fill="#999"/><path d="M515.9 4155.22h5.68v68.95h-5.7z" stroke="#202124" fill="#b2d6ef"/><path d="M521.58 4155.22h5.68v68.95h-5.68z" stroke="#202124" fill="#999"/><path d="M526.2 4155.22h5.7v68.95h-5.7z" stroke="#202124" fill="#b2d6ef"/><path d="M531.9 4155.22h5.7v68.95h-5.7z" stroke="#202124" fill="#999"/><path d="M289.5 4048.66h212.75v55.66H289.5z" stroke="#000" stroke-opacity="0" fill="#fff" fill-opacity="0"/><g><use xlink:href="#r" transform="matrix(1,0,0,1,294.5026326235001,4053.6642063701847) translate(0 18.554687499999975)"/><use xlink:href="#s" transform="matrix(1,0,0,1,294.5026326235001,4053.6642063701847) translate(70.11718749999989 18.554687499999975)"/><use xlink:href="#t" transform="matrix(1,0,0,1,294.5026326235001,4053.6642063701847) translate(0 41.99218749999994)"/><use xlink:href="#u" transform="matrix(1,0,0,1,294.5026326235001,4053.6642063701847) translate(25.527343749999964 41.99218749999994)"/><use xlink:href="#v" transform="matrix(1,0,0,1,294.5026326235001,4053.6642063701847) translate(84.16015624999989 41.99218749999994)"/></g><path d="M783.56 4054.77H991.4v57.5H783.55z" stroke="#000" stroke-opacity="0" fill="#fff" fill-opacity="0"/><g><use xlink:href="#w" transform="matrix(1,0,0,1,788.5598265072546,4059.7682424868317) translate(0 18.554687499999975)"/><use xlink:href="#x" transform="matrix(1,0,0,1,788.5598265072546,4059.7682424868317) translate(68.24218749999991 18.554687499999975)"/><use xlink:href="#y" transform="matrix(1,0,0,1,788.5598265072546,4059.7682424868317) translate(175.21484374999977 18.554687499999975)"/><use xlink:href="#z" transform="matrix(1,0,0,1,788.5598265072546,4059.7682424868317) translate(0 41.99218749999994)"/><use xlink:href="#A" transform="matrix(1,0,0,1,788.5598265072546,4059.7682424868317) translate(43.281249999999936 41.99218749999994)"/></g><path d="M876 4060.58l-114.64-33.32M875.98 4060.58l.5.14" stroke="#202124" fill="none"/><path d="M747.2 4023.14l14.98-.47-2.6 8.9z" stroke="#202124" fill="#202124"/><path d="M400.92 4109.87l77.65 27.85M400.94 4109.88l-.5-.18" stroke="#202124" fill="none"/><path d="M492.47 4142.7l-15-.45 3.14-8.72z" stroke="#202124" fill="#202124"/><path d="M378.44 4224.17H537.2v39.15H378.43z" stroke="#000" stroke-opacity="0" fill="#fff" fill-opacity="0"/><g><use xlink:href="#n" transform="matrix(1,0,0,1,383.4426006872052,4229.167835448421) translate(36.843750000000064 20.243055555555525)"/><use xlink:href="#B" transform="matrix(1,0,0,1,383.4426006872052,4229.167835448421) translate(91.22743055555553 20.243055555555525)"/></g><defs><path fill="#333" d="M569-1476c255 0 440 146 439 390 0 143-91 314-274 512L344-151h731V0H121v-133l504-560c75-85 125-155 155-207 105-184 6-424-211-424-183 0-293 113-291 297H93c-3-270 199-449 476-449" id="C"/><path fill="#333" d="M884-462c0-185-111-323-291-323-113 0-183 39-239 93l-148-38 74-726h746v171H437l-44 397c71-42 152-63 243-63 273-2 433 205 433 487 0 293-170 484-461 484-260 0-436-159-454-403h175c20 156 111 252 279 252 182 0 276-140 276-331" id="D"/><path fill="#333" d="M132-554c0-555 187-908 715-903v157c-320-8-501 179-526 477 77-88 181-132 314-132 259 0 417 214 417 480 0 286-172 495-451 495-293 0-469-266-469-574zm737 88c0-181-95-335-265-335-133 0-252 96-286 200v68c-6 207 101 397 283 400 175 3 268-150 268-333" id="E"/><path fill="#333" d="M1160-420C1159-145 963 0 674 0H169v-1456h476c294-1 476 112 476 388 0 153-99 253-216 302 146 38 255 167 255 346zM678-157c171 2 289-95 289-261 0-175-95-263-286-263H361v524h317zm250-912c-2-172-104-229-283-229H361v463h290c157 3 278-84 277-234" id="F"/><g id="a"><use transform="matrix(0.009765624999999986,0,0,0.009765624999999986,0,0)" xlink:href="#C"/><use transform="matrix(0.009765624999999986,0,0,0.009765624999999986,11.230468749999984,0)" xlink:href="#D"/><use transform="matrix(0.009765624999999986,0,0,0.009765624999999986,22.460937499999968,0)" xlink:href="#E"/><use transform="matrix(0.009765624999999986,0,0,0.009765624999999986,33.69140624999995,0)" xlink:href="#F"/></g><path fill="#333" d="M589-945c-131 0-219 81-264 174V0H140v-1536h185v585c82-101 189-151 320-151 229 0 346 129 346 387V0H806v-716c-2-153-65-229-217-229" id="G"/><path fill="#333" d="M599-131c141 0 220-65 285-146l113 88C906-50 770 20 589 20 281 21 93-214 93-545c0-223 93-397 233-485 74-48 154-72 240-72 300 2 449 218 445 537v77H278c0 197 129 357 321 357zm227-509c-3-180-88-310-260-310-170 0-264 140-282 310h542" id="H"/><path fill="#333" d="M561-1102c238-4 403 126 403 351v498c0 99 13 178 38 237V0H808c-11-21-19-59-26-114C696-25 593 20 474 20c-199 0-368-130-365-320 4-251 214-359 490-356h180v-85c-1-135-86-212-229-212-115 0-232 67-233 171H131c20-205 206-316 430-320zM294-326c0 117 90 185 207 185 122 0 239-75 278-162v-222H634c-227 0-340 66-340 199" id="I"/><path fill="#333" d="M520 20C244 20 95-247 95-550c0-298 151-550 427-552 127 0 227 43 301 130v-564h185V0H838l-9-116C755-25 652 20 520 20zm48-965c-210 0-288 177-288 416 0 218 87 392 286 392 117 0 203-53 257-158v-497c-55-102-140-153-255-153" id="J"/><path fill="#333" d="M663-916c-163-27-288 18-338 148V0H140v-1082h180l3 125c61-97 147-145 258-145 36 0 63 5 82 14v172" id="K"/><g id="b"><use transform="matrix(0.009765624999999986,0,0,0.009765624999999986,0,0)" xlink:href="#G"/><use transform="matrix(0.009765624999999986,0,0,0.009765624999999986,11.015624999999984,0)" xlink:href="#H"/><use transform="matrix(0.009765624999999986,0,0,0.009765624999999986,21.611328124999975,0)" xlink:href="#I"/><use transform="matrix(0.009765624999999986,0,0,0.009765624999999986,32.49023437499996,0)" xlink:href="#J"/><use transform="matrix(0.009765624999999986,0,0,0.009765624999999986,43.76953124999994,0)" xlink:href="#H"/><use transform="matrix(0.009765624999999986,0,0,0.009765624999999986,54.36523437499993,0)" xlink:href="#K"/></g><path fill="#fff" d="M497-251l268-831h189L566 0H425L33-1082h189" id="L"/><path fill="#fff" d="M561-1102c238-4 403 126 403 351v498c0 99 13 178 38 237V0H808c-11-21-19-59-26-114C696-25 593 20 474 20c-199 0-368-130-365-320 4-251 214-359 490-356h180v-85c-1-135-86-212-229-212-115 0-232 67-233 171H131c20-205 206-316 430-320zM294-326c0 117 90 185 207 185 122 0 239-75 278-162v-222H634c-227 0-340 66-340 199" id="M"/><path fill="#fff" d="M663-916c-163-27-288 18-338 148V0H140v-1082h180l3 125c61-97 147-145 258-145 36 0 63 5 82 14v172" id="N"/><path fill="#fff" d="M341 0H156v-1082h185V0zm-91-1264c-68 0-108-42-109-105 0-62 41-107 109-107s110 44 110 107-42 105-110 105" id="O"/><path fill="#fff" d="M634-1102c292 0 422 254 422 573 0 298-143 547-420 549-137 0-242-48-317-145L310 0H140v-1536h185v573c75-93 178-139 309-139zm-44 965c207 0 281-175 281-413 0-224-79-395-283-395-122 0-210 57-263 170v468c57 113 145 170 265 170" id="P"/><path fill="#fff" d="M341 0H156v-1536h185V0" id="Q"/><path fill="#fff" d="M599-131c141 0 220-65 285-146l113 88C906-50 770 20 589 20 281 21 93-214 93-545c0-223 93-397 233-485 74-48 154-72 240-72 300 2 449 218 445 537v77H278c0 197 129 357 321 357zm227-509c-3-180-88-310-260-310-170 0-264 140-282 310h542" id="R"/><path fill="#fff" d="M525-543H37v-151h488v151" id="S"/><path fill="#fff" d="M589-945c-131 0-219 81-264 174V0H140v-1082h175l6 136c83-104 191-156 324-156 229 0 346 129 346 387V0H806v-716c-2-153-65-229-217-229" id="T"/><path fill="#fff" d="M521 20C240 20 96-239 96-550c0-303 147-552 427-552 132 0 235 47 309 140l9-120h169V-26c4 277-183 454-459 452-165-1-334-81-400-187l96-111c79 98 176 147 291 147 180 1 288-109 286-290v-93C750-23 649 20 521 20zm48-965c-209 0-287 178-287 416 0 217 86 392 285 392 117 0 202-53 257-159v-494c-57-103-142-155-255-155" id="U"/><path fill="#fff" d="M456 20C285 20 205-92 206-268v-671H9v-143h197v-262h185v262h202v143H391v671c-9 125 92 149 207 118V0c-49 13-96 20-142 20" id="V"/><path fill="#fff" d="M589-945c-131 0-219 81-264 174V0H140v-1536h185v585c82-101 189-151 320-151 229 0 346 129 346 387V0H806v-716c-2-153-65-229-217-229" id="W"/><g id="c"><use transform="matrix(0.009765624999999986,0,0,0.009765624999999986,0,0)" xlink:href="#L"/><use transform="matrix(0.009765624999999986,0,0,0.009765624999999986,9.541015624999986,0)" xlink:href="#M"/><use transform="matrix(0.009765624999999986,0,0,0.009765624999999986,20.41992187499997,0)" xlink:href="#N"/><use transform="matrix(0.009765624999999986,0,0,0.009765624999999986,27.18749999999996,0)" xlink:href="#O"/><use transform="matrix(0.009765624999999986,0,0,0.009765624999999986,32.04101562499996,0)" xlink:href="#M"/><use transform="matrix(0.009765624999999986,0,0,0.009765624999999986,42.919921874999936,0)" xlink:href="#P"/><use transform="matrix(0.009765624999999986,0,0,0.009765624999999986,54.14062499999993,0)" xlink:href="#Q"/><use transform="matrix(0.009765624999999986,0,0,0.009765624999999986,58.99414062499992,0)" xlink:href="#R"/><use transform="matrix(0.009765624999999986,0,0,0.009765624999999986,69.58984374999991,0)" xlink:href="#S"/><use transform="matrix(0.009765624999999986,0,0,0.009765624999999986,75.1074218749999,0)" xlink:href="#Q"/><use transform="matrix(0.009765624999999986,0,0,0.009765624999999986,79.96093749999989,0)" xlink:href="#R"/><use transform="matrix(0.009765624999999986,0,0,0.009765624999999986,90.55664062499987,0)" xlink:href="#T"/><use transform="matrix(0.009765624999999986,0,0,0.009765624999999986,101.59179687499986,0)" xlink:href="#U"/><use transform="matrix(0.009765624999999986,0,0,0.009765624999999986,112.81249999999984,0)" xlink:href="#V"/><use transform="matrix(0.009765624999999986,0,0,0.009765624999999986,119.34570312499983,0)" xlink:href="#W"/></g><path fill="#fff" d="M584 20C278 26 81-227 91-551c10-320 175-545 491-551 308-5 503 247 494 573-9 322-175 543-492 549zm-2-970c-208 0-305 185-305 421 0 216 106 398 307 398 211 0 307-186 307-420 0-214-109-399-309-399" id="X"/><path fill="#fff" d="M520 20C244 20 95-247 95-550c0-298 151-550 427-552 127 0 227 43 301 130v-564h185V0H838l-9-116C755-25 652 20 520 20zm48-965c-210 0-288 177-288 416 0 218 87 392 286 392 117 0 203-53 257-158v-497c-55-102-140-153-255-153" id="Y"/><path fill="#fff" d="M494-271l252-811h198L509 167C425 381 299 474 84 421V271c167 16 242-37 283-173l41-110L22-1082h202" id="Z"/><g id="d"><use transform="matrix(0.009765624999999986,0,0,0.009765624999999986,0,0)" xlink:href="#P"/><use transform="matrix(0.009765624999999986,0,0,0.009765624999999986,11.220703124999984,0)" xlink:href="#X"/><use transform="matrix(0.009765624999999986,0,0,0.009765624999999986,22.626953124999968,0)" xlink:href="#Y"/><use transform="matrix(0.009765624999999986,0,0,0.009765624999999986,33.90624999999995,0)" xlink:href="#Z"/></g><path fill="#333" d="M574-1476c351 0 454 237 460 615v240c0 217-37 378-111 483S733 20 576 20c-346 0-454-246-461-616v-247c0-214 37-373 111-477s190-156 348-156zm275 905c0-337 59-752-275-753-95 0-160 38-207 107-80 118-66 409-67 625 0 157 22 273 68 348s115 113 208 113c91 0 160-35 204-106s69-182 69-334" id="aa"/><use transform="matrix(0.007595486111111095,0,0,0.007595486111111095,0,0)" xlink:href="#aa" id="e"/><path fill="#333" d="M632-1102c291 0 422 251 422 573 0 297-141 548-419 549-131 0-235-42-310-125v521H140v-1498h169l9 120c75-93 180-140 314-140zm-53 971c207 0 290-180 290-419 0-218-92-395-292-395-112 0-196 50-252 149v517c55 99 140 148 254 148" id="ab"/><path fill="#333" d="M341 0H156v-1082h185V0zm-91-1264c-68 0-108-42-109-105 0-62 41-107 109-107s110 44 110 107-42 105-110 105" id="ac"/><path fill="#333" d="M589-945c-131 0-219 81-264 174V0H140v-1082h175l6 136c83-104 191-156 324-156 229 0 346 129 346 387V0H806v-716c-2-153-65-229-217-229" id="ad"/><path fill="#333" d="M521 20C240 20 96-239 96-550c0-303 147-552 427-552 132 0 235 47 309 140l9-120h169V-26c4 277-183 454-459 452-165-1-334-81-400-187l96-111c79 98 176 147 291 147 180 1 288-109 286-290v-93C750-23 649 20 521 20zm48-965c-209 0-287 178-287 416 0 217 86 392 285 392 117 0 202-53 257-159v-494c-57-103-142-155-255-155" id="ae"/><g id="g"><use transform="matrix(0.009765624999999986,0,0,0.009765624999999986,0,0)" xlink:href="#ab"/><use transform="matrix(0.009765624999999986,0,0,0.009765624999999986,11.220703124999984,0)" xlink:href="#I"/><use transform="matrix(0.009765624999999986,0,0,0.009765624999999986,22.099609374999968,0)" xlink:href="#J"/><use transform="matrix(0.009765624999999986,0,0,0.009765624999999986,33.37890624999995,0)" xlink:href="#J"/><use transform="matrix(0.009765624999999986,0,0,0.009765624999999986,44.658203124999936,0)" xlink:href="#ac"/><use transform="matrix(0.009765624999999986,0,0,0.009765624999999986,49.51171874999993,0)" xlink:href="#ad"/><use transform="matrix(0.009765624999999986,0,0,0.009765624999999986,60.546874999999915,0)" xlink:href="#ae"/></g><path fill="#333" d="M456 20C285 20 205-92 206-268v-671H9v-143h197v-262h185v262h202v143H391v671c-9 125 92 149 207 118V0c-49 13-96 20-142 20" id="af"/><path fill="#333" d="M584 20C278 26 81-227 91-551c10-320 175-545 491-551 308-5 503 247 494 573-9 322-175 543-492 549zm-2-970c-208 0-305 185-305 421 0 216 106 398 307 398 211 0 307-186 307-420 0-214-109-399-309-399" id="ag"/><g id="h"><use transform="matrix(0.009765624999999986,0,0,0.009765624999999986,0,0)" xlink:href="#af"/><use transform="matrix(0.009765624999999986,0,0,0.009765624999999986,6.337890624999991,0)" xlink:href="#ag"/></g><path fill="#333" d="M503-687l240-395h216L605-547 970 0H756L506-405 256 0H41l365-547-354-535h214" id="ah"/><g id="i"><use transform="matrix(0.009765624999999986,0,0,0.009765624999999986,0,0)" xlink:href="#ad"/><use transform="matrix(0.009765624999999986,0,0,0.009765624999999986,11.035156249999984,0)" xlink:href="#H"/><use transform="matrix(0.009765624999999986,0,0,0.009765624999999986,21.630859374999975,0)" xlink:href="#ah"/><use transform="matrix(0.009765624999999986,0,0,0.009765624999999986,31.542968749999954,0)" xlink:href="#af"/></g><g id="j"><use transform="matrix(0.009765624999999986,0,0,0.009765624999999986,0,0)" xlink:href="#C"/><use transform="matrix(0.009765624999999986,0,0,0.009765624999999986,11.230468749999984,0)" xlink:href="#D"/><use transform="matrix(0.009765624999999986,0,0,0.009765624999999986,22.460937499999968,0)" xlink:href="#E"/><use transform="matrix(0.009765624999999986,0,0,0.009765624999999986,33.69140624999995,0)" xlink:href="#F"/></g><path fill="#333" d="M1240-945c-141 0-250 95-250 227V0H804v-709c0-157-77-236-231-236-121 0-204 52-249 155V0H139v-1082h175l5 120c79-93 186-140 321-140 151 0 254 58 309 174 69-98 181-174 345-174 237 0 362 126 362 377V0h-185v-714c-2-159-67-231-231-231" id="ai"/><path fill="#333" d="M491 20c-241-1-355-148-355-398v-704h185v699c0 164 67 246 200 246 141 0 235-53 282-158v-787h185V0H812l-4-107C736-22 630 20 491 20" id="aj"/><path fill="#333" d="M341 0H156v-1536h185V0" id="ak"/><g id="k"><use transform="matrix(0.009765624999999986,0,0,0.009765624999999986,0,0)" xlink:href="#ai"/><use transform="matrix(0.009765624999999986,0,0,0.009765624999999986,17.529296874999975,0)" xlink:href="#aj"/><use transform="matrix(0.009765624999999986,0,0,0.009765624999999986,28.55468749999996,0)" xlink:href="#ak"/><use transform="matrix(0.009765624999999986,0,0,0.009765624999999986,33.40820312499995,0)" xlink:href="#af"/><use transform="matrix(0.009765624999999986,0,0,0.009765624999999986,39.94140624999994,0)" xlink:href="#ac"/><use transform="matrix(0.009765624999999986,0,0,0.009765624999999986,44.794921874999936,0)" xlink:href="#ab"/><use transform="matrix(0.009765624999999986,0,0,0.009765624999999986,56.01562499999992,0)" xlink:href="#ak"/><use transform="matrix(0.009765624999999986,0,0,0.009765624999999986,60.869140624999915,0)" xlink:href="#H"/></g><path fill="#333" d="M1216-1011c-1 297-202 441-512 441H361V0H169v-1456h537c297-6 510 164 510 445zm-192 2c1-178-126-288-307-289H361v571h345c196 1 318-92 318-282" id="al"/><path fill="#333" d="M417-1456L893-268l476-1188h249V0h-192c-4-403 4-794 18-1179L966 0H819L342-1176c15 384 23 773 19 1176H169v-1456h248" id="am"/><path fill="#333" d="M992-673H361v516h733V0H169v-1456h915v158H361v468h631v157" id="an"/><g id="l"><use transform="matrix(0.00868055555555554,0,0,0.00868055555555554,0,0)" xlink:href="#al"/><use transform="matrix(0.00868055555555554,0,0,0.00868055555555554,11.215277777777757,0)" xlink:href="#am"/><use transform="matrix(0.00868055555555554,0,0,0.00868055555555554,26.736111111111065,0)" xlink:href="#an"/><use transform="matrix(0.00868055555555554,0,0,0.00868055555555554,36.840277777777715,0)" xlink:href="#am"/></g><g id="m"><use transform="matrix(0.00868055555555554,0,0,0.00868055555555554,0,0)" xlink:href="#ai"/><use transform="matrix(0.00868055555555554,0,0,0.00868055555555554,15.581597222222195,0)" xlink:href="#I"/><use transform="matrix(0.00868055555555554,0,0,0.00868055555555554,25.251736111111065,0)" xlink:href="#ab"/><use transform="matrix(0.00868055555555554,0,0,0.00868055555555554,35.22569444444438,0)" xlink:href="#ab"/><use transform="matrix(0.00868055555555554,0,0,0.00868055555555554,45.19965277777769,0)" xlink:href="#ac"/><use transform="matrix(0.00868055555555554,0,0,0.00868055555555554,49.5138888888888,0)" xlink:href="#ad"/><use transform="matrix(0.00868055555555554,0,0,0.00868055555555554,59.32291666666656,0)" xlink:href="#ae"/></g><path fill="#333" d="M688-137c238 0 323-102 359-325h193c-32 297-228 482-552 482-361 0-569-299-569-680 0-197 8-360 73-497 88-186 257-317 513-319 316-2 509 195 535 488h-193c-31-212-118-330-342-330-272 0-397 224-393 523v141c-3 282 115 517 376 517" id="ao"/><path fill="#333" d="M442-501L326-380V0H141v-1536h185v929c135-169 291-317 436-475h225L566-630 1036 0H819" id="ap"/><g id="n"><use transform="matrix(0.00868055555555554,0,0,0.00868055555555554,0,0)" xlink:href="#ao"/><use transform="matrix(0.00868055555555554,0,0,0.00868055555555554,11.571180555555536,0)" xlink:href="#G"/><use transform="matrix(0.00868055555555554,0,0,0.00868055555555554,21.362847222222186,0)" xlink:href="#aj"/><use transform="matrix(0.00868055555555554,0,0,0.00868055555555554,31.163194444444393,0)" xlink:href="#ad"/><use transform="matrix(0.00868055555555554,0,0,0.00868055555555554,40.97222222222216,0)" xlink:href="#ap"/></g><path fill="#333" d="M765-410H501L421 0H278l80-410H119v-137h265l69-354H195v-139h285l82-416h143l-82 416h264l82-416h144l-82 416h204v139h-231l-69 354h225v137H909L829 0H685zM527-547h264l69-354H596" id="aq"/><g id="o"><use transform="matrix(0.00868055555555554,0,0,0.00868055555555554,0,0)" xlink:href="#aq"/><use transform="matrix(0.00868055555555554,0,0,0.00868055555555554,10.946180555555536,0)" xlink:href="#C"/></g><path fill="#333" d="M832-402c-1-179-119-264-303-265H390v-151h139c164 0 281-91 281-250 0-171-85-256-255-256-154 0-265 99-263 250H107c-4-235 205-402 448-402 266 0 444 150 440 412-2 148-109 272-229 317 147 45 249 158 251 341 3 262-197 426-461 426C299 20 91-135 94-384h186c-2 156 116 253 276 253 176 0 277-96 276-271" id="ar"/><g id="p"><use transform="matrix(0.00868055555555554,0,0,0.00868055555555554,0,0)" xlink:href="#aq"/><use transform="matrix(0.00868055555555554,0,0,0.00868055555555554,10.946180555555536,0)" xlink:href="#ar"/></g><path fill="#333" d="M902-489h202v151H902V0H716v-338H53v-109l652-1009h197v967zm-639 0h453v-714l-22 40" id="as"/><g id="q"><use transform="matrix(0.00868055555555554,0,0,0.00868055555555554,0,0)" xlink:href="#aq"/><use transform="matrix(0.00868055555555554,0,0,0.00868055555555554,10.946180555555536,0)" xlink:href="#as"/></g><path fill="#333" d="M277-555c0 244 77 420 297 424 127 2 249-93 255-210h175C980-127 805 20 574 20 258 20 81-222 92-562c11-319 164-533 481-540 237-5 426 165 431 392H829c-7-133-115-242-256-240-209 4-296 166-296 395" id="at"/><g id="r"><use transform="matrix(0.009765624999999986,0,0,0.009765624999999986,0,0)" xlink:href="#ac"/><use transform="matrix(0.009765624999999986,0,0,0.009765624999999986,4.853515624999993,0)" xlink:href="#ai"/><use transform="matrix(0.009765624999999986,0,0,0.009765624999999986,22.382812499999968,0)" xlink:href="#ab"/><use transform="matrix(0.009765624999999986,0,0,0.009765624999999986,33.60351562499995,0)" xlink:href="#ak"/><use transform="matrix(0.009765624999999986,0,0,0.009765624999999986,38.45703124999994,0)" xlink:href="#ac"/><use transform="matrix(0.009765624999999986,0,0,0.009765624999999986,43.310546874999936,0)" xlink:href="#at"/><use transform="matrix(0.009765624999999986,0,0,0.009765624999999986,53.77929687499992,0)" xlink:href="#ac"/><use transform="matrix(0.009765624999999986,0,0,0.009765624999999986,58.632812499999915,0)" xlink:href="#af"/></g><g id="s"><use transform="matrix(0.009765624999999986,0,0,0.009765624999999986,0,0)" xlink:href="#af"/><use transform="matrix(0.009765624999999986,0,0,0.009765624999999986,6.533203124999991,0)" xlink:href="#H"/><use transform="matrix(0.009765624999999986,0,0,0.009765624999999986,17.12890624999998,0)" xlink:href="#K"/><use transform="matrix(0.009765624999999986,0,0,0.009765624999999986,23.896484374999964,0)" xlink:href="#ai"/><use transform="matrix(0.009765624999999986,0,0,0.009765624999999986,41.42578124999994,0)" xlink:href="#ac"/><use transform="matrix(0.009765624999999986,0,0,0.009765624999999986,46.279296874999936,0)" xlink:href="#ad"/><use transform="matrix(0.009765624999999986,0,0,0.009765624999999986,57.31445312499992,0)" xlink:href="#I"/><use transform="matrix(0.009765624999999986,0,0,0.009765624999999986,68.1933593749999,0)" xlink:href="#af"/><use transform="matrix(0.009765624999999986,0,0,0.009765624999999986,74.72656249999989,0)" xlink:href="#ac"/><use transform="matrix(0.009765624999999986,0,0,0.009765624999999986,79.58007812499989,0)" xlink:href="#ag"/><use transform="matrix(0.009765624999999986,0,0,0.009765624999999986,90.98632812499987,0)" xlink:href="#ad"/></g><path fill="#333" d="M634-1102c292 0 422 254 422 573 0 298-143 547-420 549-137 0-242-48-317-145L310 0H140v-1536h185v573c75-93 178-139 309-139zm-44 965c207 0 281-175 281-413 0-224-79-395-283-395-122 0-210 57-263 170v468c57 113 145 170 265 170" id="au"/><path fill="#333" d="M494-271l252-811h198L509 167C425 381 299 474 84 421V271c167 16 242-37 283-173l41-110L22-1082h202" id="av"/><g id="t"><use transform="matrix(0.009765624999999986,0,0,0.009765624999999986,0,0)" xlink:href="#au"/><use transform="matrix(0.009765624999999986,0,0,0.009765624999999986,11.113281249999984,0)" xlink:href="#av"/></g><g id="u"><use transform="matrix(0.009765624999999986,0,0,0.009765624999999986,0,0)" xlink:href="#at"/><use transform="matrix(0.009765624999999986,0,0,0.009765624999999986,10.468749999999986,0)" xlink:href="#G"/><use transform="matrix(0.009765624999999986,0,0,0.009765624999999986,21.484374999999968,0)" xlink:href="#aj"/><use transform="matrix(0.009765624999999986,0,0,0.009765624999999986,32.50976562499996,0)" xlink:href="#ad"/><use transform="matrix(0.009765624999999986,0,0,0.009765624999999986,43.54492187499995,0)" xlink:href="#ap"/></g><g id="v"><use transform="matrix(0.009765624999999986,0,0,0.009765624999999986,0,0)" xlink:href="#ak"/><use transform="matrix(0.009765624999999986,0,0,0.009765624999999986,4.853515624999993,0)" xlink:href="#H"/><use transform="matrix(0.009765624999999986,0,0,0.009765624999999986,15.449218749999979,0)" xlink:href="#ad"/><use transform="matrix(0.009765624999999986,0,0,0.009765624999999986,26.48437499999996,0)" xlink:href="#ae"/><use transform="matrix(0.009765624999999986,0,0,0.009765624999999986,37.70507812499995,0)" xlink:href="#af"/><use transform="matrix(0.009765624999999986,0,0,0.009765624999999986,44.23828124999994,0)" xlink:href="#G"/></g><g id="w"><use transform="matrix(0.009765624999999986,0,0,0.009765624999999986,0,0)" xlink:href="#H"/><use transform="matrix(0.009765624999999986,0,0,0.009765624999999986,10.595703124999986,0)" xlink:href="#ah"/><use transform="matrix(0.009765624999999986,0,0,0.009765624999999986,20.50781249999997,0)" xlink:href="#ab"/><use transform="matrix(0.009765624999999986,0,0,0.009765624999999986,31.72851562499996,0)" xlink:href="#ak"/><use transform="matrix(0.009765624999999986,0,0,0.009765624999999986,36.58203124999995,0)" xlink:href="#ac"/><use transform="matrix(0.009765624999999986,0,0,0.009765624999999986,41.43554687499994,0)" xlink:href="#at"/><use transform="matrix(0.009765624999999986,0,0,0.009765624999999986,51.90429687499993,0)" xlink:href="#ac"/><use transform="matrix(0.009765624999999986,0,0,0.009765624999999986,56.75781249999992,0)" xlink:href="#af"/></g><g id="x"><use transform="matrix(0.009765624999999986,0,0,0.009765624999999986,0,0)" xlink:href="#af"/><use transform="matrix(0.009765624999999986,0,0,0.009765624999999986,6.533203124999991,0)" xlink:href="#H"/><use transform="matrix(0.009765624999999986,0,0,0.009765624999999986,17.12890624999998,0)" xlink:href="#K"/><use transform="matrix(0.009765624999999986,0,0,0.009765624999999986,23.896484374999964,0)" xlink:href="#ai"/><use transform="matrix(0.009765624999999986,0,0,0.009765624999999986,41.42578124999994,0)" xlink:href="#ac"/><use transform="matrix(0.009765624999999986,0,0,0.009765624999999986,46.279296874999936,0)" xlink:href="#ad"/><use transform="matrix(0.009765624999999986,0,0,0.009765624999999986,57.31445312499992,0)" xlink:href="#I"/><use transform="matrix(0.009765624999999986,0,0,0.009765624999999986,68.1933593749999,0)" xlink:href="#af"/><use transform="matrix(0.009765624999999986,0,0,0.009765624999999986,74.72656249999989,0)" xlink:href="#ac"/><use transform="matrix(0.009765624999999986,0,0,0.009765624999999986,79.58007812499989,0)" xlink:href="#ag"/><use transform="matrix(0.009765624999999986,0,0,0.009765624999999986,90.98632812499987,0)" xlink:href="#ad"/></g><g id="y"><use transform="matrix(0.009765624999999986,0,0,0.009765624999999986,0,0)" xlink:href="#au"/><use transform="matrix(0.009765624999999986,0,0,0.009765624999999986,11.113281249999984,0)" xlink:href="#av"/></g><path fill="#333" d="M314-151h633V0H88v-136l597-793H97v-153h820v131" id="aw"/><g id="z"><use transform="matrix(0.009765624999999986,0,0,0.009765624999999986,0,0)" xlink:href="#aw"/><use transform="matrix(0.009765624999999986,0,0,0.009765624999999986,9.755859374999986,0)" xlink:href="#H"/><use transform="matrix(0.009765624999999986,0,0,0.009765624999999986,20.35156249999997,0)" xlink:href="#K"/><use transform="matrix(0.009765624999999986,0,0,0.009765624999999986,26.92382812499996,0)" xlink:href="#ag"/></g><g id="A"><use transform="matrix(0.009765624999999986,0,0,0.009765624999999986,0,0)" xlink:href="#G"/><use transform="matrix(0.009765624999999986,0,0,0.009765624999999986,11.015624999999984,0)" xlink:href="#H"/><use transform="matrix(0.009765624999999986,0,0,0.009765624999999986,21.611328124999975,0)" xlink:href="#I"/><use transform="matrix(0.009765624999999986,0,0,0.009765624999999986,32.49023437499996,0)" xlink:href="#J"/><use transform="matrix(0.009765624999999986,0,0,0.009765624999999986,43.76953124999994,0)" xlink:href="#H"/><use transform="matrix(0.009765624999999986,0,0,0.009765624999999986,54.36523437499993,0)" xlink:href="#K"/></g><path fill="#333" d="M729 0H543v-1233l-373 137v-168l530-199h29V0" id="ax"/><g id="B"><use transform="matrix(0.00868055555555554,0,0,0.00868055555555554,0,0)" xlink:href="#aq"/><use transform="matrix(0.00868055555555554,0,0,0.00868055555555554,10.946180555555536,0)" xlink:href="#ax"/></g></defs></g></svg>