<svg xmlns="http://www.w3.org/2000/svg" xmlns:xlink="http://www.w3.org/1999/xlink" xmlns:lucid="lucid" width="818.49" height="312.36"><g transform="translate(-260.9535728274735 -59.99999999999996)" lucid:page-tab-id="BTeFElFehcEP"><path d="M520.36 200.06c-6.22 0-11.26 5.04-11.26 11.26v46.6c0 6.2 5.04 11.24 11.26 11.24h33.76c6.22 0 11.26-5.04 11.26-11.25v-46.58c0-6.22-5.04-11.26-11.26-11.26z" stroke="#333" stroke-width="3" fill="#fff"/><use xlink:href="#a" transform="matrix(1,0,0,1,517.1014885657462,208.062638361511) translate(1.8525390625000249 22.117187500000007)"/><use xlink:href="#b" transform="matrix(1,0,0,1,517.1014885657462,208.062638361511) translate(-3.7919921874999645 45.55468749999997)"/><path d="M667.18 200.06c-7.63 0-13.82 6.2-13.82 13.82v41.46c0 7.63 6.2 13.82 13.82 13.82h58.37c7.63 0 13.8-6.2 13.8-13.82v-41.46c0-7.63-6.17-13.82-13.8-13.82z" stroke="#333" stroke-width="3" fill="#fff"/><use xlink:href="#c" transform="matrix(1,0,0,1,661.3586917314597,208.06263836151078) translate(-4.778320312499943 33.83593749999999)"/><path d="M859.97 200.06c-5.62 0-10.17 4.55-10.17 10.17V259c0 5.6 4.55 10.16 10.17 10.16h30.48c5.62 0 10.17-4.55 10.17-10.16v-48.77c0-5.62-4.55-10.17-10.17-10.17z" stroke="#333" stroke-width="3" fill="#fff"/><use xlink:href="#d" transform="matrix(1,0,0,1,857.8030017217349,208.062638361511) translate(-3.4521484374999716 33.83593749999999)"/><path d="M998.3 200.06c-7.63 0-13.82 6.2-13.82 13.82v41.46c0 7.63 6.2 13.82 13.82 13.82h47.33c7.63 0 13.82-6.2 13.82-13.82v-41.46c0-7.63-6.2-13.82-13.82-13.82z" stroke="#333" stroke-width="3" fill="#fff"/><use xlink:href="#e" transform="matrix(1,0,0,1,992.4813334878374,208.062638361511) translate(-3.4052734374999574 33.83593749999999)"/><path d="M567.88 234.6h65.48" stroke="#999" stroke-width="2" fill="none"/><path d="M567.9 235.6h-1.02v-2h1.02z" fill="#999"/><path d="M648.62 234.6l-14.26 4.65v-9.27z" stroke="#999" stroke-width="2" fill="#999"/><use xlink:href="#f" transform="matrix(1,0,0,1,578.0519924829749,209.77810256065865) translate(0.004999999999999005 16.493055555555557)"/><path d="M741.86 234.6h87.94" stroke="#999" stroke-width="2" fill="none"/><path d="M741.9 235.6h-1.04v-2h1.03z" fill="#999"/><path d="M845.07 234.6l-14.27 4.65v-9.27z" stroke="#999" stroke-width="2" fill="#999"/><use xlink:href="#g" transform="matrix(1,0,0,1,748.9328045587664,188.94476922719738) translate(0.005000000000002558 16.493055555555557)"/><use xlink:href="#h" transform="matrix(1,0,0,1,748.9328045587664,188.94476922719738) translate(51.91472222222223 16.493055555555557)"/><use xlink:href="#i" transform="matrix(1,0,0,1,748.9328045587664,188.94476922719738) translate(4.636076388888895 37.32638888888889)"/><use xlink:href="#j" transform="matrix(1,0,0,1,748.9328045587664,188.94476922719738) translate(25.191631944444453 37.32638888888889)"/><path d="M903.12 234.63l61.36 1.03" stroke="#333" stroke-width="2" fill="none"/><path d="M903.16 233.63l-.03 2-1-.02v-2z" fill="#333"/><path d="M979.75 235.92l-14.35 4.4.16-9.28z" stroke="#333" stroke-width="2" fill="#333"/><use xlink:href="#k" transform="matrix(1,0,0,1,910.9276809300865,210.34479896361572) translate(0.004999999999999005 16.493055555555557)"/><path d="M1022.94 271.68v.48l-.1 1.45-.15 1.42-.2 1.38-.27 1.35-.3 1.32-.37 1.3-.42 1.3-.48 1.27-.53 1.26-.6 1.26-.64 1.25-.73 1.26-.8 1.25-.87 1.26-.95 1.26-1.05 1.26-1.14 1.27-1.26 1.3-1.38 1.28-1.5 1.3-1.68 1.33-1.83 1.33-2 1.33-2.24 1.35-2.46 1.35-2.72 1.35-3 1.33-3.32 1.32-3.64 1.27-4 1.2-4.36 1.1-4.7 1.02-5.08.85-5.36.68-5.6.47-5.74.24h-5.8l-5.75-.24-5.6-.47-5.35-.68-5.06-.86-4.72-1-4.36-1.1-4-1.2-3.64-1.28-3.3-1.3-3-1.34-2.73-1.35-2.46-1.36-2.22-1.34-2.02-1.35-1.83-1.33-1.67-1.32-1.5-1.3-1.4-1.3-1.25-1.28-1.13-1.27-1.05-1.27-.95-1.24-.87-1.25-.32-.5 1.7-1.06.3.46.8 1.18.9 1.2 1 1.2 1.1 1.2 1.2 1.22 1.3 1.24 1.46 1.25 1.6 1.26 1.76 1.28 1.95 1.3 2.16 1.3 2.4 1.3 2.64 1.33 2.93 1.3 3.23 1.28 3.56 1.24 3.92 1.17 4.27 1.1 4.64.98 4.97.84 5.27.66 5.52.46 5.66.24h5.72l5.66-.24 5.52-.46 5.27-.67 4.97-.85 4.64-.98 4.3-1.1 3.9-1.18 3.57-1.25 3.23-1.28 2.93-1.3 2.64-1.3 2.4-1.32 2.15-1.3 1.95-1.3 1.76-1.3 1.6-1.25 1.45-1.26 1.32-1.23 1.2-1.22 1.1-1.2.98-1.2.9-1.2.83-1.18.75-1.18.68-1.17.62-1.18.55-1.18.5-1.2.45-1.2.4-1.2.33-1.23.3-1.24.24-1.27.2-1.3.13-1.32.08-1.37v-.43z" fill="#333"/><path d="M1022.94 271.7l-2-.03.02-1h2zM884.57 286.16l-8.9 2.6.45-15z" fill="#333"/><path d="M886.17 286.73l-11.54 3.38.58-19.44zm-9.46.68l6.27-1.8-5.94-8.73z" fill="#333"/><use xlink:href="#l" transform="matrix(1,0,0,1,913.2129651828144,289.82277301457844) translate(0.005000000000002558 16.493055555555557)"/><path d="M866.34 286.94l-20.87 32.75h-2.37l21.56-33.84z" fill="#333"/><path fill="#333"/><path d="M869.97 288l-7.9-4.88 11.44-9.7z" fill="#333"/><path d="M870.6 289.56l-10.22-6.3 14.83-12.6zm-6.83-6.57l5.55 3.42 2.5-10.25z" fill="#333"/><use xlink:href="#m" transform="matrix(1,0,0,1,796.1195572320213,319.68915044120166) translate(14.879131944444449 16.493055555555557)"/><use xlink:href="#n" transform="matrix(1,0,0,1,796.1195572320213,319.68915044120166) translate(0.005000000000002558 37.32638888888889)"/><path d="M843.2 280.15l-23 12-29.6 13.9-26.8 11.22-24.6 9.12-22.9 7.4-21.62 6-20.7 4.83-20.1 3.8-19.9 2.92-20.15 2.1-21.06 1.28-23.16.44-28.5-.67-7.65-.37-22.18-1.64-16.38-1.92-13.64-2.18-12.13-2.47-5.4-1.33h1.55v-1.68l4.3 1.06 12.04 2.45 13.54 2.17 16.3 1.9 22.12 1.63 7.58.37 28.46.67 23.07-.44 20.96-1.28 20.07-2.08 19.82-2.9 20.03-3.8 20.6-4.8 21.54-5.98 22.83-7.4 24.53-9.1 26.72-11.2 29.52-13.85 22.97-11.97zM357 294.03l14.95 8.9h-3.9l-12.1-7.2-36.16-23.68 1.1-1.68z" fill="#999"/><path d="M319.8 272.06l-2.12-1.4h3.05zM845.8 282.88l-4.35-8.18 14.77-2.62z" fill="#999"/><path d="M845.58 284.57l-5.66-10.6 19.15-3.4zm-2.6-9.12l3.07 5.75 7.3-7.6z" fill="#999"/><use xlink:href="#o" transform="matrix(1,0,0,1,352.16587789491814,302.93176683032135) translate(0.005000000000002558 16.493055555555557)"/><use xlink:href="#p" transform="matrix(1,0,0,1,352.16587789491814,302.93176683032135) translate(73.2515277777778 16.493055555555557)"/><use xlink:href="#q" transform="matrix(1,0,0,1,352.16587789491814,302.93176683032135) translate(30.313159722222238 37.32638888888889)"/><use xlink:href="#r" transform="matrix(1,0,0,1,352.16587789491814,302.93176683032135) translate(44.47114583333335 37.32638888888889)"/><path d="M833.55 266.98L831 268.7l-17.38 10.77-16.35 9.2-15.37 7.84-14.47 6.63-13.62 5.55-12.82 4.6-12.1 3.8-11.45 3.06-10.82 2.42-10.25 1.84-9.74 1.33-9.26.87-8.84.46-8.45.1-8.1-.27-7.75-.6-7.46-.85-7.2-1.15-6.94-1.4-6.72-1.65-6.52-1.9-6.33-2.14-6.16-2.36-6-2.6-5.88-2.84-5.76-3.1-5.64-3.33-5.53-3.6-5.45-3.87-5.36-4.17-5.3-4.47-5.2-4.8-5.17-5.18-4.42-4.8 1.47-1.36 4.4 4.78 5.1 5.1 5.15 4.76 5.22 4.42 5.3 4.1 5.37 3.84 5.46 3.55 5.56 3.3 5.68 3.04 5.8 2.82 5.93 2.57 6.08 2.33 6.26 2.1 6.44 1.88 6.64 1.65 6.86 1.4 7.1 1.12 7.4.85 7.67.57 8 .25 8.36-.1 8.76-.44 9.18-.86 9.66-1.32 10.17-1.82 10.76-2.4 11.35-3.04 12.04-3.76 12.75-4.6 13.54-5.5 14.4-6.6 15.3-7.78 16.26-9.17 17.3-10.72 2.53-1.7z" fill="#999"/><path d="M538.67 270.74l-1.47 1.35-1.32-1.44h2.72zM836.42 269.42l-5.2-7.67 14.4-4.17z" fill="#999"/><path d="M836.36 271.12l-6.74-9.95 18.68-5.4zm-3.54-8.8l3.66 5.4 6.47-8.32z" fill="#999"/><use xlink:href="#s" transform="matrix(1,0,0,1,601.3949638515803,298.2448342216336) translate(0.005000000000002558 16.493055555555557)"/><use xlink:href="#t" transform="matrix(1,0,0,1,601.3949638515803,298.2448342216336) translate(28.833125000000006 16.493055555555557)"/><path d="M282.2 86c0-3.3 2.68-6 6-6h62.87c3.3 0 6 2.7 6 6v57.1c0 3.3-2.7 6-6 6H288.2c-3.32 0-6-2.7-6-6z" stroke="#333" stroke-width="3" fill="#fff"/><use xlink:href="#u" transform="matrix(1,0,0,1,296.19553702882956,93.99999999999996) translate(-11.96386718749995 27.835937499999993)"/><path d="M1019.5 114.47l2.54 2.53.92 3.42v77.14h-2v-76.88l-.7-2.64-1.8-1.78-2.63-.7h-535.4v-2h535.67zm-642.43 1.08v-2h45.8v2z" fill="#999"/><path d="M1022.96 198.56h-2v-1.02h2zM376.07 119.18l-14.27-4.63 14.27-4.64z" fill="#999"/><path d="M377.07 120.56l-18.5-6 18.5-6.02zm-12.03-6l10.03 3.25v-6.5z" fill="#999"/><path d="M872.76 114.47l2.53 2.53.9 3.42v77.14h-2v-76.88l-.7-2.64-1.78-1.78-2.64-.7H480.43v-2h388.9zm-495.7 1.08v-2h45.8v2z" fill="#999"/><path d="M876.2 198.56h-2v-1.02h2zM376.07 119.18l-14.27-4.63 14.27-4.64z" fill="#999"/><path d="M377.07 120.56l-18.5-6 18.5-6.02zm-12.03-6l10.03 3.25v-6.5zM693.9 114.47l2.54 2.53.92 3.42v77.14h-2v-76.88l-.7-2.64-1.8-1.78-2.63-.7h-209.8v-2H690.5zm-316.83 1.08v-2h45.8v2z" fill="#999"/><path d="M697.36 198.56h-2v-1.02h2zM376.07 119.18l-14.27-4.63 14.27-4.64z" fill="#999"/><path d="M377.07 120.56l-18.5-6 18.5-6.02zm-12.03-6l10.03 3.25v-6.5z" fill="#999"/><path d="M534.8 114.47l2.5 2.53.94 3.42v77.14h-2v-76.88l-.72-2.64-1.77-1.78-2.64-.7h-50.67v-2h50.94zm-157.73 1.08v-2h45.8v2z" fill="#999"/><path d="M538.24 198.56h-2v-1.02h2zM376.07 119.18l-14.27-4.63 14.27-4.64z" fill="#999"/><path d="M377.07 120.56l-18.5-6 18.5-6.02zm-12.03-6l10.03 3.25v-6.5z" fill="#999"/><use xlink:href="#v" transform="matrix(1,0,0,1,422.87329158683366,93.71546424580487) translate(0.004999999999999005 16.493055555555557)"/><use xlink:href="#w" transform="matrix(1,0,0,1,422.87329158683366,93.71546424580487) translate(6.979826388888888 37.32638888888889)"/><path d="M280.95 206.06c0-3.3 2.7-6 6-6h65.1c3.3 0 6 2.7 6 6v57.1c0 3.3-2.7 6-6 6h-65.1c-3.3 0-6-2.7-6-6z" stroke="#333" stroke-width="3" fill="#fff"/><g><use xlink:href="#x" transform="matrix(1,0,0,1,294.9535728274735,214.062638361511) translate(-4.399414062499961 27.835937499999993)"/></g><path d="M319.63 151.6l-.08 28.46" stroke="#999" stroke-width="2" fill="none"/><path d="M320.63 151.63h-2v-1.03h2z" fill="#999"/><path d="M319.5 195.33l-4.6-14.28 9.28.02z" stroke="#999" stroke-width="2" fill="#999"/><path d="M376.13 235.6h-15.58v-2h15.58zm112.97 0h-16.68v-2h16.68z" fill="#999"/><path d="M360.58 235.6h-1.03v-2h1.03zM504.37 234.6l-14.27 4.65v-9.27z" fill="#999"/><path d="M507.6 234.6l-18.5 6.02V228.6zm-16.5 3.27l10.03-3.26-10.03-3.25z" fill="#999"/><g><use xlink:href="#y" transform="matrix(1,0,0,1,376.13265002317934,213.77810258118603) translate(13.723749999999995 16.493055555555557)"/><use xlink:href="#z" transform="matrix(1,0,0,1,376.13265002317934,213.77810258118603) translate(0.005000000000002558 37.32638888888889)"/><use xlink:href="#A" transform="matrix(1,0,0,1,376.13265002317934,213.77810258118603) translate(44.27583333333334 37.32638888888889)"/><use xlink:href="#r" transform="matrix(1,0,0,1,376.13265002317934,213.77810258118603) translate(57.945972222222224 37.32638888888889)"/></g><defs><path fill="#333" d="M1098-255l208-827h185L1176 0h-150L763-820 507 0H357L43-1082h184l213 810 252-810h149" id="B"/><path fill="#333" d="M561-1102c238-4 403 126 403 351v498c0 99 13 178 38 237V0H808c-11-21-19-59-26-114C696-25 593 20 474 20c-199 0-368-130-365-320 4-251 214-359 490-356h180v-85c-1-135-86-212-229-212-115 0-232 67-233 171H131c20-205 206-316 430-320zM294-326c0 117 90 185 207 185 122 0 239-75 278-162v-222H634c-227 0-340 66-340 199" id="C"/><path fill="#333" d="M341 0H156v-1082h185V0zm-91-1264c-68 0-108-42-109-105 0-62 41-107 109-107s110 44 110 107-42 105-110 105" id="D"/><path fill="#333" d="M456 20C285 20 205-92 206-268v-671H9v-143h197v-262h185v262h202v143H391v671c-9 125 92 149 207 118V0c-49 13-96 20-142 20" id="E"/><g id="a"><use transform="matrix(0.009765624999999986,0,0,0.009765624999999986,0,0)" xlink:href="#B"/><use transform="matrix(0.009765624999999986,0,0,0.009765624999999986,15.029296874999979,0)" xlink:href="#C"/><use transform="matrix(0.009765624999999986,0,0,0.009765624999999986,25.908203124999964,0)" xlink:href="#D"/><use transform="matrix(0.009765624999999986,0,0,0.009765624999999986,30.761718749999957,0)" xlink:href="#E"/></g><path fill="#333" d="M277-555c0 244 77 420 297 424 127 2 249-93 255-210h175C980-127 805 20 574 20 258 20 81-222 92-562c11-319 164-533 481-540 237-5 426 165 431 392H829c-7-133-115-242-256-240-209 4-296 166-296 395" id="F"/><path fill="#333" d="M341 0H156v-1536h185V0" id="G"/><path fill="#333" d="M1240-945c-141 0-250 95-250 227V0H804v-709c0-157-77-236-231-236-121 0-204 52-249 155V0H139v-1082h175l5 120c79-93 186-140 321-140 151 0 254 58 309 174 69-98 181-174 345-174 237 0 362 126 362 377V0h-185v-714c-2-159-67-231-231-231" id="H"/><g id="b"><use transform="matrix(0.009765624999999986,0,0,0.009765624999999986,0,0)" xlink:href="#F"/><use transform="matrix(0.009765624999999986,0,0,0.009765624999999986,10.468749999999986,0)" xlink:href="#G"/><use transform="matrix(0.009765624999999986,0,0,0.009765624999999986,15.322265624999979,0)" xlink:href="#C"/><use transform="matrix(0.009765624999999986,0,0,0.009765624999999986,26.201171874999964,0)" xlink:href="#D"/><use transform="matrix(0.009765624999999986,0,0,0.009765624999999986,31.054687499999957,0)" xlink:href="#H"/></g><path fill="#333" d="M663-916c-163-27-288 18-338 148V0H140v-1082h180l3 125c61-97 147-145 258-145 36 0 63 5 82 14v172" id="I"/><path fill="#333" d="M599-131c141 0 220-65 285-146l113 88C906-50 770 20 589 20 281 21 93-214 93-545c0-223 93-397 233-485 74-48 154-72 240-72 300 2 449 218 445 537v77H278c0 197 129 357 321 357zm227-509c-3-180-88-310-260-310-170 0-264 140-282 310h542" id="J"/><path fill="#333" d="M632-1102c291 0 422 251 422 573 0 297-141 548-419 549-131 0-235-42-310-125v521H140v-1498h169l9 120c75-93 180-140 314-140zm-53 971c207 0 290-180 290-419 0-218-92-395-292-395-112 0-196 50-252 149v517c55 99 140 148 254 148" id="K"/><path fill="#333" d="M494-271l252-811h198L509 167C425 381 299 474 84 421V271c167 16 242-37 283-173l41-110L22-1082h202" id="L"/><path fill="#333" d="M589-945c-131 0-219 81-264 174V0H140v-1082h175l6 136c83-104 191-156 324-156 229 0 346 129 346 387V0H806v-716c-2-153-65-229-217-229" id="M"/><path fill="#333" d="M521 20C240 20 96-239 96-550c0-303 147-552 427-552 132 0 235 47 309 140l9-120h169V-26c4 277-183 454-459 452-165-1-334-81-400-187l96-111c79 98 176 147 291 147 180 1 288-109 286-290v-93C750-23 649 20 521 20zm48-965c-209 0-287 178-287 416 0 217 86 392 285 392 117 0 202-53 257-159v-494c-57-103-142-155-255-155" id="N"/><g id="c"><use transform="matrix(0.009765624999999986,0,0,0.009765624999999986,0,0)" xlink:href="#I"/><use transform="matrix(0.009765624999999986,0,0,0.009765624999999986,6.58203124999999,0)" xlink:href="#J"/><use transform="matrix(0.009765624999999986,0,0,0.009765624999999986,17.177734374999975,0)" xlink:href="#K"/><use transform="matrix(0.009765624999999986,0,0,0.009765624999999986,28.398437499999954,0)" xlink:href="#G"/><use transform="matrix(0.009765624999999986,0,0,0.009765624999999986,33.25195312499995,0)" xlink:href="#C"/><use transform="matrix(0.009765624999999986,0,0,0.009765624999999986,43.984374999999936,0)" xlink:href="#L"/><use transform="matrix(0.009765624999999986,0,0,0.009765624999999986,53.44726562499992,0)" xlink:href="#D"/><use transform="matrix(0.009765624999999986,0,0,0.009765624999999986,58.300781249999915,0)" xlink:href="#M"/><use transform="matrix(0.009765624999999986,0,0,0.009765624999999986,69.3359374999999,0)" xlink:href="#N"/></g><path fill="#333" d="M584 20C278 26 81-227 91-551c10-320 175-545 491-551 308-5 503 247 494 573-9 322-175 543-492 549zm-2-970c-208 0-305 185-305 421 0 216 106 398 307 398 211 0 307-186 307-420 0-214-109-399-309-399" id="O"/><path fill="#333" d="M314-151h633V0H88v-136l597-793H97v-153h820v131" id="P"/><g id="d"><use transform="matrix(0.009765624999999986,0,0,0.009765624999999986,0,0)" xlink:href="#M"/><use transform="matrix(0.009765624999999986,0,0,0.009765624999999986,11.035156249999984,0)" xlink:href="#O"/><use transform="matrix(0.009765624999999986,0,0,0.009765624999999986,22.285156249999968,0)" xlink:href="#P"/><use transform="matrix(0.009765624999999986,0,0,0.009765624999999986,32.19726562499996,0)" xlink:href="#D"/><use transform="matrix(0.009765624999999986,0,0,0.009765624999999986,37.05078124999995,0)" xlink:href="#G"/></g><g id="e"><use transform="matrix(0.009765624999999986,0,0,0.009765624999999986,0,0)" xlink:href="#G"/><use transform="matrix(0.009765624999999986,0,0,0.009765624999999986,4.853515624999993,0)" xlink:href="#O"/><use transform="matrix(0.009765624999999986,0,0,0.009765624999999986,16.25976562499998,0)" xlink:href="#N"/><use transform="matrix(0.009765624999999986,0,0,0.009765624999999986,27.480468749999964,0)" xlink:href="#N"/><use transform="matrix(0.009765624999999986,0,0,0.009765624999999986,38.70117187499995,0)" xlink:href="#D"/><use transform="matrix(0.009765624999999986,0,0,0.009765624999999986,43.55468749999995,0)" xlink:href="#M"/><use transform="matrix(0.009765624999999986,0,0,0.009765624999999986,54.58984374999993,0)" xlink:href="#N"/></g><path fill="#333" d="M520 20C244 20 95-247 95-550c0-298 151-550 427-552 127 0 227 43 301 130v-564h185V0H838l-9-116C755-25 652 20 520 20zm48-965c-210 0-288 177-288 416 0 218 87 392 286 392 117 0 203-53 257-158v-497c-55-102-140-153-255-153" id="Q"/><g id="f"><use transform="matrix(0.008680555555555556,0,0,0.008680555555555556,0,0)" xlink:href="#F"/><use transform="matrix(0.008680555555555556,0,0,0.008680555555555556,9.305555555555555,0)" xlink:href="#G"/><use transform="matrix(0.008680555555555556,0,0,0.008680555555555556,13.619791666666668,0)" xlink:href="#C"/><use transform="matrix(0.008680555555555556,0,0,0.008680555555555556,23.289930555555557,0)" xlink:href="#D"/><use transform="matrix(0.008680555555555556,0,0,0.008680555555555556,27.604166666666668,0)" xlink:href="#H"/><use transform="matrix(0.008680555555555556,0,0,0.008680555555555556,43.18576388888889,0)" xlink:href="#J"/><use transform="matrix(0.008680555555555556,0,0,0.008680555555555556,52.60416666666667,0)" xlink:href="#Q"/></g><g id="g"><use transform="matrix(0.008680555555555556,0,0,0.008680555555555556,0,0)" xlink:href="#I"/><use transform="matrix(0.008680555555555556,0,0,0.008680555555555556,5.850694444444445,0)" xlink:href="#J"/><use transform="matrix(0.008680555555555556,0,0,0.008680555555555556,15.269097222222223,0)" xlink:href="#K"/><use transform="matrix(0.008680555555555556,0,0,0.008680555555555556,25.243055555555557,0)" xlink:href="#G"/><use transform="matrix(0.008680555555555556,0,0,0.008680555555555556,29.557291666666668,0)" xlink:href="#C"/><use transform="matrix(0.008680555555555556,0,0,0.008680555555555556,39.09722222222223,0)" xlink:href="#L"/></g><g id="h"><use transform="matrix(0.008680555555555556,0,0,0.008680555555555556,0,0)" xlink:href="#Q"/><use transform="matrix(0.008680555555555556,0,0,0.008680555555555556,10.026041666666668,0)" xlink:href="#O"/><use transform="matrix(0.008680555555555556,0,0,0.008680555555555556,20.164930555555557,0)" xlink:href="#M"/><use transform="matrix(0.008680555555555556,0,0,0.008680555555555556,29.973958333333336,0)" xlink:href="#J"/></g><g id="i"><use transform="matrix(0.008680555555555556,0,0,0.008680555555555556,0,0)" xlink:href="#O"/><use transform="matrix(0.008680555555555556,0,0,0.008680555555555556,10.13888888888889,0)" xlink:href="#I"/></g><path fill="#333" d="M634-1102c292 0 422 254 422 573 0 298-143 547-420 549-137 0-242-48-317-145L310 0H140v-1536h185v573c75-93 178-139 309-139zm-44 965c207 0 281-175 281-413 0-224-79-395-283-395-122 0-210 57-263 170v468c57 113 145 170 265 170" id="R"/><g id="j"><use transform="matrix(0.008680555555555556,0,0,0.008680555555555556,0,0)" xlink:href="#C"/><use transform="matrix(0.008680555555555556,0,0,0.008680555555555556,9.67013888888889,0)" xlink:href="#R"/><use transform="matrix(0.008680555555555556,0,0,0.008680555555555556,19.64409722222222,0)" xlink:href="#O"/><use transform="matrix(0.008680555555555556,0,0,0.008680555555555556,29.78298611111111,0)" xlink:href="#I"/><use transform="matrix(0.008680555555555556,0,0,0.008680555555555556,36.232638888888886,0)" xlink:href="#E"/><use transform="matrix(0.008680555555555556,0,0,0.008680555555555556,42.03993055555555,0)" xlink:href="#J"/><use transform="matrix(0.008680555555555556,0,0,0.008680555555555556,51.45833333333333,0)" xlink:href="#Q"/></g><path fill="#333" d="M491 20c-241-1-355-148-355-398v-704h185v699c0 164 67 246 200 246 141 0 235-53 282-158v-787h185V0H812l-4-107C736-22 630 20 491 20" id="S"/><g id="k"><use transform="matrix(0.008680555555555556,0,0,0.008680555555555556,0,0)" xlink:href="#H"/><use transform="matrix(0.008680555555555556,0,0,0.008680555555555556,15.581597222222223,0)" xlink:href="#O"/><use transform="matrix(0.008680555555555556,0,0,0.008680555555555556,25.720486111111118,0)" xlink:href="#S"/><use transform="matrix(0.008680555555555556,0,0,0.008680555555555556,35.520833333333336,0)" xlink:href="#M"/><use transform="matrix(0.008680555555555556,0,0,0.008680555555555556,45.329861111111114,0)" xlink:href="#E"/></g><g id="l"><use transform="matrix(0.008680555555555556,0,0,0.008680555555555556,0,0)" xlink:href="#S"/><use transform="matrix(0.008680555555555556,0,0,0.008680555555555556,9.800347222222223,0)" xlink:href="#M"/><use transform="matrix(0.008680555555555556,0,0,0.008680555555555556,19.609375,0)" xlink:href="#H"/><use transform="matrix(0.008680555555555556,0,0,0.008680555555555556,35.19097222222222,0)" xlink:href="#O"/><use transform="matrix(0.008680555555555556,0,0,0.008680555555555556,45.329861111111114,0)" xlink:href="#S"/><use transform="matrix(0.008680555555555556,0,0,0.008680555555555556,55.130208333333336,0)" xlink:href="#M"/><use transform="matrix(0.008680555555555556,0,0,0.008680555555555556,64.93923611111111,0)" xlink:href="#E"/></g><g id="m"><use transform="matrix(0.008680555555555556,0,0,0.008680555555555556,0,0)" xlink:href="#K"/><use transform="matrix(0.008680555555555556,0,0,0.008680555555555556,9.973958333333334,0)" xlink:href="#O"/><use transform="matrix(0.008680555555555556,0,0,0.008680555555555556,20.11284722222222,0)" xlink:href="#O"/><use transform="matrix(0.008680555555555556,0,0,0.008680555555555556,30.25173611111111,0)" xlink:href="#G"/></g><g id="n"><use transform="matrix(0.008680555555555556,0,0,0.008680555555555556,0,0)" xlink:href="#F"/><use transform="matrix(0.008680555555555556,0,0,0.008680555555555556,9.305555555555555,0)" xlink:href="#I"/><use transform="matrix(0.008680555555555556,0,0,0.008680555555555556,15.15625,0)" xlink:href="#J"/><use transform="matrix(0.008680555555555556,0,0,0.008680555555555556,24.57465277777778,0)" xlink:href="#C"/><use transform="matrix(0.008680555555555556,0,0,0.008680555555555556,34.24479166666667,0)" xlink:href="#E"/><use transform="matrix(0.008680555555555556,0,0,0.008680555555555556,40.052083333333336,0)" xlink:href="#D"/><use transform="matrix(0.008680555555555556,0,0,0.008680555555555556,44.36631944444444,0)" xlink:href="#O"/><use transform="matrix(0.008680555555555556,0,0,0.008680555555555556,54.50520833333334,0)" xlink:href="#M"/></g><path fill="#333" d="M538-131c121 0 232-49 232-156 0-50-20-88-56-117-73-60-334-92-420-143-92-55-162-110-162-238 0-190 192-317 400-317 223 0 414 129 413 338H759c0-108-110-186-227-186-119 0-215 53-215 159 0 45 18 78 53 101 76 52 331 90 416 139 98 57 169 115 169 251C955-92 760 20 538 20c-176 0-314-68-386-174-38-55-57-115-57-179h185c6 129 116 202 258 202" id="T"/><path fill="#333" d="M589-945c-131 0-219 81-264 174V0H140v-1536h185v585c82-101 189-151 320-151 229 0 346 129 346 387V0H806v-716c-2-153-65-229-217-229" id="U"/><g id="o"><use transform="matrix(0.008680555555555556,0,0,0.008680555555555556,0,0)" xlink:href="#K"/><use transform="matrix(0.008680555555555556,0,0,0.008680555555555556,9.973958333333334,0)" xlink:href="#I"/><use transform="matrix(0.008680555555555556,0,0,0.008680555555555556,15.824652777777779,0)" xlink:href="#J"/><use transform="matrix(0.008680555555555556,0,0,0.008680555555555556,25.243055555555557,0)" xlink:href="#F"/><use transform="matrix(0.008680555555555556,0,0,0.008680555555555556,34.548611111111114,0)" xlink:href="#I"/><use transform="matrix(0.008680555555555556,0,0,0.008680555555555556,40.21701388888889,0)" xlink:href="#C"/><use transform="matrix(0.008680555555555556,0,0,0.008680555555555556,49.887152777777786,0)" xlink:href="#T"/><use transform="matrix(0.008680555555555556,0,0,0.008680555555555556,59.05381944444446,0)" xlink:href="#U"/></g><g id="p"><use transform="matrix(0.008680555555555556,0,0,0.008680555555555556,0,0)" xlink:href="#T"/><use transform="matrix(0.008680555555555556,0,0,0.008680555555555556,9.166666666666668,0)" xlink:href="#E"/><use transform="matrix(0.008680555555555556,0,0,0.008680555555555556,14.973958333333336,0)" xlink:href="#C"/><use transform="matrix(0.008680555555555556,0,0,0.008680555555555556,24.644097222222225,0)" xlink:href="#E"/><use transform="matrix(0.008680555555555556,0,0,0.008680555555555556,30.451388888888893,0)" xlink:href="#J"/></g><path fill="#333" d="M986-814H152v-161h834v161zm0 415H152v-160h834v160" id="V"/><use transform="matrix(0.008680555555555556,0,0,0.008680555555555556,0,0)" xlink:href="#V" id="q"/><path fill="#333" d="M750-692c-1-124-48-174-173-175-81 0-142 35-183 104V0H105v-1082h272l9 125c77-97 181-145 311-145 244 0 342 151 342 403V0H750v-692" id="W"/><path fill="#333" d="M579 20C257 20 58-214 66-551c8-331 182-551 511-551 324 0 514 231 514 572 0 319-198 550-512 550zm-2-888c-169 0-222 141-222 338 0 181 61 317 224 317 170 0 223-137 223-338 0-178-64-317-225-317" id="X"/><path fill="#333" d="M443-233h529V0H74v-176l509-672H89v-234h867v171" id="Y"/><path fill="#333" d="M416 0H126v-1082h290V0zM271-1212c-92 0-162-61-162-150s68-149 162-149c93 0 162 60 162 149s-70 150-162 150" id="Z"/><path fill="#333" d="M416 0H126v-1536h290V0" id="aa"/><g id="r"><use transform="matrix(0.008680555555555556,0,0,0.008680555555555556,0,0)" xlink:href="#W"/><use transform="matrix(0.008680555555555556,0,0,0.008680555555555556,9.956597222222223,0)" xlink:href="#X"/><use transform="matrix(0.008680555555555556,0,0,0.008680555555555556,19.869791666666668,0)" xlink:href="#Y"/><use transform="matrix(0.008680555555555556,0,0,0.008680555555555556,28.914930555555557,0)" xlink:href="#Z"/><use transform="matrix(0.008680555555555556,0,0,0.008680555555555556,33.62847222222222,0)" xlink:href="#aa"/></g><g id="s"><use transform="matrix(0.008680555555555556,0,0,0.008680555555555556,0,0)" xlink:href="#G"/><use transform="matrix(0.008680555555555556,0,0,0.008680555555555556,4.314236111111112,0)" xlink:href="#O"/><use transform="matrix(0.008680555555555556,0,0,0.008680555555555556,14.453125,0)" xlink:href="#N"/></g><g id="t"><use transform="matrix(0.008680555555555556,0,0,0.008680555555555556,0,0)" xlink:href="#C"/><use transform="matrix(0.008680555555555556,0,0,0.008680555555555556,9.67013888888889,0)" xlink:href="#R"/><use transform="matrix(0.008680555555555556,0,0,0.008680555555555556,19.64409722222222,0)" xlink:href="#C"/><use transform="matrix(0.008680555555555556,0,0,0.008680555555555556,29.31423611111111,0)" xlink:href="#M"/><use transform="matrix(0.008680555555555556,0,0,0.008680555555555556,39.123263888888886,0)" xlink:href="#Q"/><use transform="matrix(0.008680555555555556,0,0,0.008680555555555556,49.14930555555556,0)" xlink:href="#O"/><use transform="matrix(0.008680555555555556,0,0,0.008680555555555556,59.288194444444436,0)" xlink:href="#M"/><use transform="matrix(0.008680555555555556,0,0,0.008680555555555556,69.09722222222223,0)" xlink:href="#J"/><use transform="matrix(0.008680555555555556,0,0,0.008680555555555556,78.515625,0)" xlink:href="#Q"/></g><g id="u"><use transform="matrix(0.009765624999999986,0,0,0.009765624999999986,0,0)" xlink:href="#F"/><use transform="matrix(0.009765624999999986,0,0,0.009765624999999986,10.468749999999986,0)" xlink:href="#I"/><use transform="matrix(0.009765624999999986,0,0,0.009765624999999986,16.845703124999975,0)" xlink:href="#C"/><use transform="matrix(0.009765624999999986,0,0,0.009765624999999986,27.724609374999957,0)" xlink:href="#T"/><use transform="matrix(0.009765624999999986,0,0,0.009765624999999986,38.03710937499994,0)" xlink:href="#U"/><use transform="matrix(0.009765624999999986,0,0,0.009765624999999986,49.05273437499993,0)" xlink:href="#J"/><use transform="matrix(0.009765624999999986,0,0,0.009765624999999986,59.648437499999915,0)" xlink:href="#Q"/></g><g id="v"><use transform="matrix(0.008680555555555556,0,0,0.008680555555555556,0,0)" xlink:href="#T"/><use transform="matrix(0.008680555555555556,0,0,0.008680555555555556,9.166666666666668,0)" xlink:href="#L"/><use transform="matrix(0.008680555555555556,0,0,0.008680555555555556,17.578125,0)" xlink:href="#T"/><use transform="matrix(0.008680555555555556,0,0,0.008680555555555556,26.744791666666668,0)" xlink:href="#E"/><use transform="matrix(0.008680555555555556,0,0,0.008680555555555556,32.552083333333336,0)" xlink:href="#J"/><use transform="matrix(0.008680555555555556,0,0,0.008680555555555556,41.970486111111114,0)" xlink:href="#H"/></g><g id="w"><use transform="matrix(0.008680555555555556,0,0,0.008680555555555556,0,0)" xlink:href="#F"/><use transform="matrix(0.008680555555555556,0,0,0.008680555555555556,9.305555555555555,0)" xlink:href="#I"/><use transform="matrix(0.008680555555555556,0,0,0.008680555555555556,14.973958333333334,0)" xlink:href="#C"/><use transform="matrix(0.008680555555555556,0,0,0.008680555555555556,24.644097222222225,0)" xlink:href="#T"/><use transform="matrix(0.008680555555555556,0,0,0.008680555555555556,33.810763888888886,0)" xlink:href="#U"/></g><g id="x"><use transform="matrix(0.009765624999999986,0,0,0.009765624999999986,0,0)" xlink:href="#D"/><use transform="matrix(0.009765624999999986,0,0,0.009765624999999986,4.853515624999993,0)" xlink:href="#H"/><use transform="matrix(0.009765624999999986,0,0,0.009765624999999986,22.382812499999968,0)" xlink:href="#K"/><use transform="matrix(0.009765624999999986,0,0,0.009765624999999986,33.60351562499995,0)" xlink:href="#O"/><use transform="matrix(0.009765624999999986,0,0,0.009765624999999986,45.009765624999936,0)" xlink:href="#I"/><use transform="matrix(0.009765624999999986,0,0,0.009765624999999986,52.26562499999993,0)" xlink:href="#E"/></g><g id="y"><use transform="matrix(0.008680555555555556,0,0,0.008680555555555556,0,0)" xlink:href="#K"/><use transform="matrix(0.008680555555555556,0,0,0.008680555555555556,9.973958333333334,0)" xlink:href="#I"/><use transform="matrix(0.008680555555555556,0,0,0.008680555555555556,15.824652777777779,0)" xlink:href="#J"/><use transform="matrix(0.008680555555555556,0,0,0.008680555555555556,25.243055555555557,0)" xlink:href="#F"/><use transform="matrix(0.008680555555555556,0,0,0.008680555555555556,34.548611111111114,0)" xlink:href="#I"/><use transform="matrix(0.008680555555555556,0,0,0.008680555555555556,40.21701388888889,0)" xlink:href="#C"/><use transform="matrix(0.008680555555555556,0,0,0.008680555555555556,49.887152777777786,0)" xlink:href="#T"/><use transform="matrix(0.008680555555555556,0,0,0.008680555555555556,59.05381944444446,0)" xlink:href="#U"/></g><g id="z"><use transform="matrix(0.008680555555555556,0,0,0.008680555555555556,0,0)" xlink:href="#T"/><use transform="matrix(0.008680555555555556,0,0,0.008680555555555556,9.166666666666668,0)" xlink:href="#E"/><use transform="matrix(0.008680555555555556,0,0,0.008680555555555556,14.973958333333336,0)" xlink:href="#C"/><use transform="matrix(0.008680555555555556,0,0,0.008680555555555556,24.644097222222225,0)" xlink:href="#E"/><use transform="matrix(0.008680555555555556,0,0,0.008680555555555556,30.451388888888893,0)" xlink:href="#J"/></g><path fill="#202124" d="M986-399H455L313-155l-95-59 108-185H152v-160h267l149-255H152v-161h510l153-262 95 59-119 203h195v161H697L549-559h437v160" id="ab"/><use transform="matrix(0.008246527777777776,0,0,0.008246527777777776,0,0)" xlink:href="#ab" id="A"/></defs></g></svg>