<svg xmlns="http://www.w3.org/2000/svg" xmlns:xlink="http://www.w3.org/1999/xlink" xmlns:lucid="lucid" width="740" height="540.91"><g transform="translate(-291.41732283464563 -48.69489348963265)" lucid:page-tab-id="XXjFTIdv9o4M"><path d="M501.9 249.55L696 260.22l-2.16 39.4-194.13-10.66z" stroke="#000" stroke-opacity="0" fill="#fff" fill-opacity="0"/><use xlink:href="#a" transform="matrix(0.9984937783759082,0.0548650575922657,-0.0548650575922657,0.9984937783759082,506.6117998166325,254.82118497246137) translate(27.3681640625001 22.304687499999975)"/><path d="M723.2 348.5h121.14v38.35H723.2z" stroke="#000" stroke-opacity="0" fill="#fff" fill-opacity="0"/><use xlink:href="#b" transform="matrix(1,0,0,1,728.1942575295634,353.4854294050745) translate(0 22.179687499999975)"/><use xlink:href="#c" transform="matrix(1,0,0,1,728.1942575295634,353.4854294050745) translate(78.01757812499989 22.179687499999975)"/><path d="M520.8 477.96h165.1v30.1H520.8z" stroke="#000" stroke-opacity="0" fill="#fff" fill-opacity="0"/><use xlink:href="#d" transform="matrix(1,0,0,1,525.8043623009423,482.96131393190984) translate(0 18.554687499999975)"/><path d="M703.48 311.92L896 295.88l3.3 39.58-192.53 16.03z" stroke="#000" stroke-opacity="0" fill="#fff" fill-opacity="0"/><use xlink:href="#e" transform="matrix(0.9965502046539652,-0.08299210567361369,0.08299210567361369,0.9965502046539652,708.8736169776877,316.4851680105511) translate(77.18554687500003 22.304687499999975)"/><path d="M699.26 296.17l184.57 9.9M699.27 296.17l-.5-.02" stroke="#202124" fill="none"/><path d="M898.57 306.85l-14.5 3.87.5-9.26z" stroke="#202124" fill="#202124"/><path d="M719.02 263.85l173.8 13.42-3.05 39.5-173.8-13.42z" stroke="#000" stroke-opacity="0" fill="#fff" fill-opacity="0"/><use xlink:href="#f" transform="matrix(0.9970299015952735,0.07701542264325467,-0.07701542264325467,0.9970299015952735,723.6207330928808,269.21623379461556) translate(18.2958984375001 22.304687499999975)"/><path d="M715.23 339.45l183.7-10.22" stroke="#202124" fill="none"/><path d="M700.5 340.27l13.97-5.42.52 9.26z" stroke="#202124" fill="#202124"/><path d="M898.9 329.23l.53-.03M699.26 411.26l184.57 9.9M699.27 411.26l-.5-.02" stroke="#202124" fill="none"/><path d="M898.57 421.94l-14.5 3.87.5-9.25z" stroke="#202124" fill="#202124"/><path d="M719.02 378.94l173.8 13.42-3.05 39.5-173.8-13.42z" stroke="#000" stroke-opacity="0" fill="#fff" fill-opacity="0"/><use xlink:href="#g" transform="matrix(0.9970299015952735,0.07701542264325467,-0.07701542264325467,0.9970299015952735,723.6207330928806,384.3061743936535) translate(16.8164062500001 22.304687499999975)"/><path d="M715.23 441.76l183.7-10.23" stroke="#202124" fill="none"/><path d="M700.5 442.58l13.97-5.42.52 9.25z" stroke="#202124" fill="#202124"/><path d="M898.9 431.53l.53-.02M515.23 454.54l183.7-10.22" stroke="#202124" fill="none"/><path d="M500.5 455.36l13.97-5.42.52 9.26z" stroke="#202124" fill="#202124"/><path d="M698.9 444.32l.53-.03M499.83 479.06h19.65M499.85 479.06h-.52M519.47 479.06h.5M515.4 504.22h4.26" stroke="#202124" fill="none"/><path d="M500.65 504.22l14.26-4.63v9.26z" stroke="#202124" fill="#202124"/><path d="M519.65 504.22h.5M519.8 479.3V504M519.8 479.32v-.52M519.8 504v.5M499.8 285.8l183.32 9.36M499.8 285.8l-.5-.04" stroke="#202124" fill="none"/><path d="M697.87 295.92l-14.5 3.9.5-9.26z" stroke="#202124" fill="#202124"/><path d="M699.83 349.2h19.75M699.85 349.2h-.52M719.56 349.2h.52M715.4 381.27h4.06" stroke="#202124" fill="none"/><path d="M700.65 381.27l14.26-4.64v9.28z" stroke="#202124" fill="#202124"/><path d="M719.45 381.27h.5M719.63 349.37v31.4M719.63 349.38v-.5M719.63 380.76v.52" stroke="#202124" fill="none"/><path d="M522.23 207.02H687.3v30.1H522.24z" stroke="#000" stroke-opacity="0" fill="#fff" fill-opacity="0"/><use xlink:href="#h" transform="matrix(1,0,0,1,527.2323353641821,212.02110119916662) translate(0 18.554687499999975)"/><path d="M501.26 208.12h19.65M501.27 208.12h-.5M520.9 208.12h.5M516.84 233.28h4.25" stroke="#202124" fill="none"/><path d="M502.08 233.28l14.26-4.63v9.27z" stroke="#202124" fill="#202124"/><path d="M521.08 233.28h.5M521.24 208.36v24.7M521.24 208.38v-.52M521.24 233.05v.5" stroke="#202124" fill="none"/><path d="M522.23 158.03H687.3v30.1H522.24z" stroke="#000" stroke-opacity="0" fill="#fff" fill-opacity="0"/><use xlink:href="#i" transform="matrix(1,0,0,1,527.2323353641821,163.03155786223215) translate(0 18.554687499999975)"/><path d="M501.26 159.13h19.65M501.27 159.13h-.5M520.9 159.13h.5M516.84 184.3h4.25" stroke="#202124" fill="none"/><path d="M502.08 184.3l14.26-4.64v9.27z" stroke="#202124" fill="#202124"/><path d="M521.08 184.3h.5M521.24 159.37v24.7M521.24 159.4v-.53M521.24 184.06v.5M398.47 562l101.75-10.15" stroke="#202124" fill="none"/><path d="M383.78 563.45l13.74-6.03.9 9.23z" stroke="#202124" fill="#202124"/><path d="M500.2 551.86l.52-.05M416.94 109.68l67.5 8.88M416.95 109.68l-.5-.07" stroke="#202124" fill="none"/><path d="M499.07 120.48l-14.75 2.74 1.2-9.2z" stroke="#202124" fill="#202124"/><path d="M314.25 85.12h100.08v39.46H314.25z" stroke="#000" stroke-opacity="0" fill="#fff" fill-opacity="0"/><use xlink:href="#j" transform="matrix(1,0,0,1,319.2490516455482,90.11655757667431) translate(3.312500000000057 22.304687499999975)"/><use xlink:href="#k" transform="matrix(1,0,0,1,319.2490516455482,90.11655757667431) translate(43.908203125 22.304687499999975)"/><g class="lucid-layer" lucid:layer-id="2~jFBmxEsqmJ" display="block"><path d="M311.42 138.64h100v20l-10 10h-90z" fill="#fff"/><path d="M411.42 138.64v20l-10 10h-90" stroke="#202124" fill="none"/><path d="M311.42 138.64h700v392.78h-700z" stroke="#202124" fill="none"/><use xlink:href="#l" transform="matrix(1,0,0,1,319.41732283464563,138.63928566495423) translate(18.602539062500032 21.835937499999993)"/><use xlink:href="#m" transform="matrix(1,0,0,1,323.41732283464563,176.63928566495423) translate(0 18.554687499999975)"/><use xlink:href="#n" transform="matrix(1,0,0,1,323.41732283464563,176.63928566495423) translate(51.29882812499993 18.554687499999975)"/><use xlink:href="#o" transform="matrix(1,0,0,1,323.41732283464563,176.63928566495423) translate(0 41.99218749999994)"/><use xlink:href="#k" transform="matrix(1,0,0,1,323.41732283464563,176.63928566495423) translate(22.695312499999968 41.99218749999994)"/><path d="M440.9 68.7h117.4v31.55H440.9z" stroke="#202124" fill="#fff"/><use xlink:href="#p" transform="matrix(1,0,0,1,440.89501971438483,68.69489348963265) translate(11.004999999999997 19.41)"/><path d="M640 68.7h117.4v31.55H640z" stroke="#202124" fill="#fff"/><use xlink:href="#q" transform="matrix(1,0,0,1,640,68.69489348963265) translate(23.029999999999994 19.41)"/><path d="M840 68.7h120v31.55H840z" stroke="#202124" fill="#fff"/><use xlink:href="#r" transform="matrix(1,0,0,1,840,68.69489348963265) translate(44.555 19.41)"/><path d="M499.6 101.25v480.02" stroke="#202124" fill="none"/><path d="M500.1 101.26h-1v-.5h1z" fill="#202124"/><path d="M499.6 581.26v.5M698.7 101.25v478.52" stroke="#202124" fill="none"/><path d="M699.2 101.26h-1v-.5h1z" fill="#202124"/><path d="M698.7 579.76v.5M900 101.25v477.4" stroke="#202124" fill="none"/><path d="M900.5 101.26h-1v-.5h1z" fill="#202124"/><path d="M900 578.64v.5" stroke="#202124" fill="none"/></g><defs><path fill="#333" d="M314-151h633V0H88v-136l597-793H97v-153h820v131" id="s"/><path fill="#333" d="M704-1390c-164-38-297 28-288 194v114h231v143H416V0H231v-939H60v-143h171v-111c-12-274 208-416 483-347" id="t"/><path fill="#333" d="M538-131c121 0 232-49 232-156 0-50-20-88-56-117-73-60-334-92-420-143-92-55-162-110-162-238 0-190 192-317 400-317 223 0 414 129 413 338H759c0-108-110-186-227-186-119 0-215 53-215 159 0 45 18 78 53 101 76 52 331 90 416 139 98 57 169 115 169 251C955-92 760 20 538 20c-176 0-314-68-386-174-38-55-57-115-57-179h185c6 129 116 202 258 202" id="u"/><path fill="#333" d="M920 151H4V0h916v151" id="v"/><path fill="#333" d="M341 0H156v-1536h185V0" id="w"/><path fill="#333" d="M584 20C278 26 81-227 91-551c10-320 175-545 491-551 308-5 503 247 494 573-9 322-175 543-492 549zm-2-970c-208 0-305 185-305 421 0 216 106 398 307 398 211 0 307-186 307-420 0-214-109-399-309-399" id="x"/><path fill="#333" d="M521 20C240 20 96-239 96-550c0-303 147-552 427-552 132 0 235 47 309 140l9-120h169V-26c4 277-183 454-459 452-165-1-334-81-400-187l96-111c79 98 176 147 291 147 180 1 288-109 286-290v-93C750-23 649 20 521 20zm48-965c-209 0-287 178-287 416 0 217 86 392 285 392 117 0 202-53 257-159v-494c-57-103-142-155-255-155" id="y"/><path fill="#333" d="M1098-255l208-827h185L1176 0h-150L763-820 507 0H357L43-1082h184l213 810 252-810h149" id="z"/><path fill="#333" d="M663-916c-163-27-288 18-338 148V0H140v-1082h180l3 125c61-97 147-145 258-145 36 0 63 5 82 14v172" id="A"/><path fill="#333" d="M341 0H156v-1082h185V0zm-91-1264c-68 0-108-42-109-105 0-62 41-107 109-107s110 44 110 107-42 105-110 105" id="B"/><path fill="#333" d="M456 20C285 20 205-92 206-268v-671H9v-143h197v-262h185v262h202v143H391v671c-9 125 92 149 207 118V0c-49 13-96 20-142 20" id="C"/><path fill="#333" d="M599-131c141 0 220-65 285-146l113 88C906-50 770 20 589 20 281 21 93-214 93-545c0-223 93-397 233-485 74-48 154-72 240-72 300 2 449 218 445 537v77H278c0 197 129 357 321 357zm227-509c-3-180-88-310-260-310-170 0-264 140-282 310h542" id="D"/><path fill="#333" d="M319-664C304-226 428 158 661 357l-38 113c-89-49-172-133-254-248C142-97 71-578 194-1025c67-244 240-513 429-618l38 122c-201 153-330 502-342 857" id="E"/><path fill="#333" d="M38 357C331 141 457-487 337-984c-53-219-157-429-299-546l39-113c190 106 362 378 431 621 75 268 76 597 0 868C440 88 266 365 77 470" id="F"/><g id="a"><use transform="matrix(0.009765624999999986,0,0,0.009765624999999986,0,0)" xlink:href="#s"/><use transform="matrix(0.009765624999999986,0,0,0.009765624999999986,9.912109374999986,0)" xlink:href="#t"/><use transform="matrix(0.009765624999999986,0,0,0.009765624999999986,16.855468749999975,0)" xlink:href="#u"/><use transform="matrix(0.009765624999999986,0,0,0.009765624999999986,27.16796874999996,0)" xlink:href="#v"/><use transform="matrix(0.009765624999999986,0,0,0.009765624999999986,36.19140624999995,0)" xlink:href="#w"/><use transform="matrix(0.009765624999999986,0,0,0.009765624999999986,41.04492187499994,0)" xlink:href="#x"/><use transform="matrix(0.009765624999999986,0,0,0.009765624999999986,52.45117187499993,0)" xlink:href="#y"/><use transform="matrix(0.009765624999999986,0,0,0.009765624999999986,63.67187499999992,0)" xlink:href="#v"/><use transform="matrix(0.009765624999999986,0,0,0.009765624999999986,72.6953124999999,0)" xlink:href="#z"/><use transform="matrix(0.009765624999999986,0,0,0.009765624999999986,87.72460937499989,0)" xlink:href="#A"/><use transform="matrix(0.009765624999999986,0,0,0.009765624999999986,94.49218749999987,0)" xlink:href="#B"/><use transform="matrix(0.009765624999999986,0,0,0.009765624999999986,99.34570312499986,0)" xlink:href="#C"/><use transform="matrix(0.009765624999999986,0,0,0.009765624999999986,105.87890624999984,0)" xlink:href="#D"/><use transform="matrix(0.009765624999999986,0,0,0.009765624999999986,116.47460937499983,0)" xlink:href="#E"/><use transform="matrix(0.009765624999999986,0,0,0.009765624999999986,123.3105468749998,0)" xlink:href="#F"/></g><path fill="#333" d="M589-945c-131 0-219 81-264 174V0H140v-1082h175l6 136c83-104 191-156 324-156 229 0 346 129 346 387V0H806v-716c-2-153-65-229-217-229" id="G"/><path fill="#333" d="M561-1102c238-4 403 126 403 351v498c0 99 13 178 38 237V0H808c-11-21-19-59-26-114C696-25 593 20 474 20c-199 0-368-130-365-320 4-251 214-359 490-356h180v-85c-1-135-86-212-229-212-115 0-232 67-233 171H131c20-205 206-316 430-320zM294-326c0 117 90 185 207 185 122 0 239-75 278-162v-222H634c-227 0-340 66-340 199" id="H"/><g id="b"><use transform="matrix(0.009765624999999986,0,0,0.009765624999999986,0,0)" xlink:href="#B"/><use transform="matrix(0.009765624999999986,0,0,0.009765624999999986,4.853515624999993,0)" xlink:href="#G"/><use transform="matrix(0.009765624999999986,0,0,0.009765624999999986,15.888671874999977,0)" xlink:href="#B"/><use transform="matrix(0.009765624999999986,0,0,0.009765624999999986,20.74218749999997,0)" xlink:href="#C"/><use transform="matrix(0.009765624999999986,0,0,0.009765624999999986,27.275390624999964,0)" xlink:href="#B"/><use transform="matrix(0.009765624999999986,0,0,0.009765624999999986,32.12890624999996,0)" xlink:href="#H"/><use transform="matrix(0.009765624999999986,0,0,0.009765624999999986,43.007812499999936,0)" xlink:href="#w"/><use transform="matrix(0.009765624999999986,0,0,0.009765624999999986,47.86132812499993,0)" xlink:href="#B"/><use transform="matrix(0.009765624999999986,0,0,0.009765624999999986,52.71484374999992,0)" xlink:href="#s"/><use transform="matrix(0.009765624999999986,0,0,0.009765624999999986,62.470703124999915,0)" xlink:href="#D"/></g><path fill="#333" d="M375 0H183v-1456h192V0" id="I"/><path fill="#333" d="M1175-1298H707V0H516v-1298H49v-158h1126v158" id="J"/><path fill="#333" d="M644-898l349-558h226L759-734 1230 0h-228L644-568 284 0H57l472-734-461-722h225" id="K"/><g id="c"><use transform="matrix(0.009765624999999986,0,0,0.009765624999999986,0,0)" xlink:href="#I"/><use transform="matrix(0.009765624999999986,0,0,0.009765624999999986,5.156249999999992,0)" xlink:href="#J"/><use transform="matrix(0.009765624999999986,0,0,0.009765624999999986,17.089843749999975,0)" xlink:href="#K"/></g><path fill="#333" d="M520 20C244 20 95-247 95-550c0-298 151-550 427-552 127 0 227 43 301 130v-564h185V0H838l-9-116C755-25 652 20 520 20zm48-965c-210 0-288 177-288 416 0 218 87 392 286 392 117 0 203-53 257-158v-497c-55-102-140-153-255-153" id="L"/><path fill="#333" d="M1240-945c-141 0-250 95-250 227V0H804v-709c0-157-77-236-231-236-121 0-204 52-249 155V0H139v-1082h175l5 120c79-93 186-140 321-140 151 0 254 58 309 174 69-98 181-174 345-174 237 0 362 126 362 377V0h-185v-714c-2-159-67-231-231-231" id="M"/><path fill="#333" d="M491 20c-241-1-355-148-355-398v-704h185v699c0 164 67 246 200 246 141 0 235-53 282-158v-787h185V0H812l-4-107C736-22 630 20 491 20" id="N"/><path fill="#333" d="M503-687l240-395h216L605-547 970 0H756L506-405 256 0H41l365-547-354-535h214" id="O"/><path fill="#333" d="M277-555c0 244 77 420 297 424 127 2 249-93 255-210h175C980-127 805 20 574 20 258 20 81-222 92-562c11-319 164-533 481-540 237-5 426 165 431 392H829c-7-133-115-242-256-240-209 4-296 166-296 395" id="P"/><g id="d"><use transform="matrix(0.009765624999999986,0,0,0.009765624999999986,0,0)" xlink:href="#L"/><use transform="matrix(0.009765624999999986,0,0,0.009765624999999986,11.279296874999984,0)" xlink:href="#M"/><use transform="matrix(0.009765624999999986,0,0,0.009765624999999986,28.808593749999957,0)" xlink:href="#N"/><use transform="matrix(0.009765624999999986,0,0,0.009765624999999986,39.83398437499994,0)" xlink:href="#v"/><use transform="matrix(0.009765624999999986,0,0,0.009765624999999986,48.85742187499993,0)" xlink:href="#C"/><use transform="matrix(0.009765624999999986,0,0,0.009765624999999986,55.39062499999992,0)" xlink:href="#O"/><use transform="matrix(0.009765624999999986,0,0,0.009765624999999986,65.30273437499991,0)" xlink:href="#v"/><use transform="matrix(0.009765624999999986,0,0,0.009765624999999986,74.3261718749999,0)" xlink:href="#P"/><use transform="matrix(0.009765624999999986,0,0,0.009765624999999986,84.79492187499989,0)" xlink:href="#x"/><use transform="matrix(0.009765624999999986,0,0,0.009765624999999986,96.20117187499986,0)" xlink:href="#M"/><use transform="matrix(0.009765624999999986,0,0,0.009765624999999986,113.73046874999984,0)" xlink:href="#M"/><use transform="matrix(0.009765624999999986,0,0,0.009765624999999986,131.25976562499983,0)" xlink:href="#B"/><use transform="matrix(0.009765624999999986,0,0,0.009765624999999986,136.11328124999983,0)" xlink:href="#C"/><use transform="matrix(0.009765624999999986,0,0,0.009765624999999986,142.64648437499983,0)" xlink:href="#E"/><use transform="matrix(0.009765624999999986,0,0,0.009765624999999986,149.48242187499983,0)" xlink:href="#F"/></g><g id="e"><use transform="matrix(0.009765624999999986,0,0,0.009765624999999986,0,0)" xlink:href="#I"/><use transform="matrix(0.009765624999999986,0,0,0.009765624999999986,5.156249999999992,0)" xlink:href="#J"/><use transform="matrix(0.009765624999999986,0,0,0.009765624999999986,17.089843749999975,0)" xlink:href="#K"/></g><g id="f"><use transform="matrix(0.009765624999999986,0,0,0.009765624999999986,0,0)" xlink:href="#s"/><use transform="matrix(0.009765624999999986,0,0,0.009765624999999986,9.912109374999986,0)" xlink:href="#B"/><use transform="matrix(0.009765624999999986,0,0,0.009765624999999986,14.765624999999979,0)" xlink:href="#w"/><use transform="matrix(0.009765624999999986,0,0,0.009765624999999986,19.61914062499997,0)" xlink:href="#v"/><use transform="matrix(0.009765624999999986,0,0,0.009765624999999986,28.64257812499996,0)" xlink:href="#B"/><use transform="matrix(0.009765624999999986,0,0,0.009765624999999986,33.49609374999995,0)" xlink:href="#C"/><use transform="matrix(0.009765624999999986,0,0,0.009765624999999986,40.02929687499994,0)" xlink:href="#O"/><use transform="matrix(0.009765624999999986,0,0,0.009765624999999986,49.94140624999993,0)" xlink:href="#v"/><use transform="matrix(0.009765624999999986,0,0,0.009765624999999986,58.964843749999915,0)" xlink:href="#P"/><use transform="matrix(0.009765624999999986,0,0,0.009765624999999986,69.4335937499999,0)" xlink:href="#A"/><use transform="matrix(0.009765624999999986,0,0,0.009765624999999986,76.01562499999989,0)" xlink:href="#D"/><use transform="matrix(0.009765624999999986,0,0,0.009765624999999986,86.61132812499987,0)" xlink:href="#H"/><use transform="matrix(0.009765624999999986,0,0,0.009765624999999986,97.49023437499986,0)" xlink:href="#C"/><use transform="matrix(0.009765624999999986,0,0,0.009765624999999986,104.02343749999986,0)" xlink:href="#D"/><use transform="matrix(0.009765624999999986,0,0,0.009765624999999986,114.61914062499984,0)" xlink:href="#E"/><use transform="matrix(0.009765624999999986,0,0,0.009765624999999986,121.45507812499982,0)" xlink:href="#F"/></g><g id="g"><use transform="matrix(0.009765624999999986,0,0,0.009765624999999986,0,0)" xlink:href="#s"/><use transform="matrix(0.009765624999999986,0,0,0.009765624999999986,9.912109374999986,0)" xlink:href="#B"/><use transform="matrix(0.009765624999999986,0,0,0.009765624999999986,14.765624999999979,0)" xlink:href="#w"/><use transform="matrix(0.009765624999999986,0,0,0.009765624999999986,19.61914062499997,0)" xlink:href="#v"/><use transform="matrix(0.009765624999999986,0,0,0.009765624999999986,28.64257812499996,0)" xlink:href="#B"/><use transform="matrix(0.009765624999999986,0,0,0.009765624999999986,33.49609374999995,0)" xlink:href="#C"/><use transform="matrix(0.009765624999999986,0,0,0.009765624999999986,40.02929687499994,0)" xlink:href="#O"/><use transform="matrix(0.009765624999999986,0,0,0.009765624999999986,49.94140624999993,0)" xlink:href="#v"/><use transform="matrix(0.009765624999999986,0,0,0.009765624999999986,58.964843749999915,0)" xlink:href="#H"/><use transform="matrix(0.009765624999999986,0,0,0.009765624999999986,69.8437499999999,0)" xlink:href="#u"/><use transform="matrix(0.009765624999999986,0,0,0.009765624999999986,80.15624999999989,0)" xlink:href="#u"/><use transform="matrix(0.009765624999999986,0,0,0.009765624999999986,90.46874999999987,0)" xlink:href="#B"/><use transform="matrix(0.009765624999999986,0,0,0.009765624999999986,95.32226562499986,0)" xlink:href="#y"/><use transform="matrix(0.009765624999999986,0,0,0.009765624999999986,106.54296874999984,0)" xlink:href="#G"/><use transform="matrix(0.009765624999999986,0,0,0.009765624999999986,117.57812499999983,0)" xlink:href="#E"/><use transform="matrix(0.009765624999999986,0,0,0.009765624999999986,124.41406249999983,0)" xlink:href="#F"/></g><g id="h"><use transform="matrix(0.009765624999999986,0,0,0.009765624999999986,0,0)" xlink:href="#L"/><use transform="matrix(0.009765624999999986,0,0,0.009765624999999986,11.279296874999984,0)" xlink:href="#M"/><use transform="matrix(0.009765624999999986,0,0,0.009765624999999986,28.808593749999957,0)" xlink:href="#N"/><use transform="matrix(0.009765624999999986,0,0,0.009765624999999986,39.83398437499994,0)" xlink:href="#v"/><use transform="matrix(0.009765624999999986,0,0,0.009765624999999986,48.85742187499993,0)" xlink:href="#z"/><use transform="matrix(0.009765624999999986,0,0,0.009765624999999986,63.88671874999991,0)" xlink:href="#A"/><use transform="matrix(0.009765624999999986,0,0,0.009765624999999986,70.6542968749999,0)" xlink:href="#B"/><use transform="matrix(0.009765624999999986,0,0,0.009765624999999986,75.50781249999989,0)" xlink:href="#C"/><use transform="matrix(0.009765624999999986,0,0,0.009765624999999986,82.04101562499987,0)" xlink:href="#D"/><use transform="matrix(0.009765624999999986,0,0,0.009765624999999986,92.63671874999984,0)" xlink:href="#E"/><use transform="matrix(0.009765624999999986,0,0,0.009765624999999986,99.47265624999984,0)" xlink:href="#F"/></g><path fill="#333" d="M634-1102c292 0 422 254 422 573 0 298-143 547-420 549-137 0-242-48-317-145L310 0H140v-1536h185v573c75-93 178-139 309-139zm-44 965c207 0 281-175 281-413 0-224-79-395-283-395-122 0-210 57-263 170v468c57 113 145 170 265 170" id="Q"/><g id="i"><use transform="matrix(0.009765624999999986,0,0,0.009765624999999986,0,0)" xlink:href="#L"/><use transform="matrix(0.009765624999999986,0,0,0.009765624999999986,11.279296874999984,0)" xlink:href="#M"/><use transform="matrix(0.009765624999999986,0,0,0.009765624999999986,28.808593749999957,0)" xlink:href="#N"/><use transform="matrix(0.009765624999999986,0,0,0.009765624999999986,39.83398437499994,0)" xlink:href="#v"/><use transform="matrix(0.009765624999999986,0,0,0.009765624999999986,48.85742187499993,0)" xlink:href="#C"/><use transform="matrix(0.009765624999999986,0,0,0.009765624999999986,55.39062499999992,0)" xlink:href="#O"/><use transform="matrix(0.009765624999999986,0,0,0.009765624999999986,65.30273437499991,0)" xlink:href="#v"/><use transform="matrix(0.009765624999999986,0,0,0.009765624999999986,74.3261718749999,0)" xlink:href="#Q"/><use transform="matrix(0.009765624999999986,0,0,0.009765624999999986,85.54687499999987,0)" xlink:href="#D"/><use transform="matrix(0.009765624999999986,0,0,0.009765624999999986,96.14257812499986,0)" xlink:href="#y"/><use transform="matrix(0.009765624999999986,0,0,0.009765624999999986,107.36328124999987,0)" xlink:href="#B"/><use transform="matrix(0.009765624999999986,0,0,0.009765624999999986,112.21679687499986,0)" xlink:href="#G"/><use transform="matrix(0.009765624999999986,0,0,0.009765624999999986,123.25195312499984,0)" xlink:href="#E"/><use transform="matrix(0.009765624999999986,0,0,0.009765624999999986,130.08789062499983,0)" xlink:href="#F"/></g><path fill="#333" d="M651-255l416-1201h210L737 0H567L28-1456h209" id="R"/><path fill="#333" d="M972-643H361V0H169v-1456h902v158H361v498h611v157" id="S"/><path fill="#333" d="M631-137c179 0 314-70 314-231 0-71-25-127-75-166s-141-77-272-115c-165-47-285-106-360-175s-112-154-112-255c0-245 231-397 495-397 206 0 369 89 449 218 43 68 65 142 65 223H942c0-184-129-283-321-283-172 0-299 76-301 236 0 59 26 109 76 150s135 78 256 113c205 59 345 116 436 256 35 53 50 119 50 193-2 256-231 398-507 390C333 12 90-129 80-422h193c0 187 160 285 358 285" id="T"/><g id="j"><use transform="matrix(0.009765624999999986,0,0,0.009765624999999986,0,0)" xlink:href="#R"/><use transform="matrix(0.009765624999999986,0,0,0.009765624999999986,12.724609374999982,0)" xlink:href="#S"/><use transform="matrix(0.009765624999999986,0,0,0.009765624999999986,23.779296874999964,0)" xlink:href="#T"/></g><g id="k"><use transform="matrix(0.009765624999999986,0,0,0.009765624999999986,0,0)" xlink:href="#z"/><use transform="matrix(0.009765624999999986,0,0,0.009765624999999986,15.029296874999979,0)" xlink:href="#A"/><use transform="matrix(0.009765624999999986,0,0,0.009765624999999986,21.796874999999968,0)" xlink:href="#B"/><use transform="matrix(0.009765624999999986,0,0,0.009765624999999986,26.65039062499996,0)" xlink:href="#C"/><use transform="matrix(0.009765624999999986,0,0,0.009765624999999986,33.18359374999995,0)" xlink:href="#D"/></g><path fill="#333" d="M362-157h690V0H169v-1456h193v1299" id="U"/><path fill="#333" d="M632-1102c291 0 422 251 422 573 0 297-141 548-419 549-131 0-235-42-310-125v521H140v-1498h169l9 120c75-93 180-140 314-140zm-53 971c207 0 290-180 290-419 0-218-92-395-292-395-112 0-196 50-252 149v517c55 99 140 148 254 148" id="V"/><g id="l"><use transform="matrix(0.009765624999999986,0,0,0.009765624999999986,0,0)" xlink:href="#U"/><use transform="matrix(0.009765624999999986,0,0,0.009765624999999986,10.761718749999984,0)" xlink:href="#x"/><use transform="matrix(0.009765624999999986,0,0,0.009765624999999986,22.167968749999968,0)" xlink:href="#x"/><use transform="matrix(0.009765624999999986,0,0,0.009765624999999986,33.57421874999995,0)" xlink:href="#V"/></g><path fill="#333" d="M589-945c-131 0-219 81-264 174V0H140v-1536h185v585c82-101 189-151 320-151 229 0 346 129 346 387V0H806v-716c-2-153-65-229-217-229" id="W"/><g id="m"><use transform="matrix(0.009765624999999986,0,0,0.009765624999999986,0,0)" xlink:href="#z"/><use transform="matrix(0.009765624999999986,0,0,0.009765624999999986,15.029296874999979,0)" xlink:href="#W"/><use transform="matrix(0.009765624999999986,0,0,0.009765624999999986,26.044921874999964,0)" xlink:href="#B"/><use transform="matrix(0.009765624999999986,0,0,0.009765624999999986,30.898437499999957,0)" xlink:href="#w"/><use transform="matrix(0.009765624999999986,0,0,0.009765624999999986,35.75195312499995,0)" xlink:href="#D"/></g><g id="n"><use transform="matrix(0.009765624999999986,0,0,0.009765624999999986,0,0)" xlink:href="#M"/><use transform="matrix(0.009765624999999986,0,0,0.009765624999999986,17.529296874999975,0)" xlink:href="#x"/><use transform="matrix(0.009765624999999986,0,0,0.009765624999999986,28.935546874999957,0)" xlink:href="#A"/><use transform="matrix(0.009765624999999986,0,0,0.009765624999999986,35.51757812499995,0)" xlink:href="#D"/></g><g id="o"><use transform="matrix(0.009765624999999986,0,0,0.009765624999999986,0,0)" xlink:href="#C"/><use transform="matrix(0.009765624999999986,0,0,0.009765624999999986,6.337890624999991,0)" xlink:href="#x"/></g><path d="M9 0v-24l116-142H16v-24h144v24L44-24h123V0H9" id="X"/><path d="M101-234c-31-9-42 10-38 44h38v23H63V0H32v-167H5v-23h27c-7-52 17-82 69-68v24" id="Y"/><path d="M135-143c-3-34-86-38-87 0 15 53 115 12 119 90S17 21 10-45l28-5c4 36 97 45 98 0-10-56-113-15-118-90-4-57 82-63 122-42 12 7 21 19 24 35" id="Z"/><path d="M-5 72V49h209v23H-5" id="aa"/><path d="M108 0H70L1-190h34L89-25l56-165h34" id="ab"/><path d="M117-194c89-4 53 116 60 194h-32v-121c0-31-8-49-39-48C34-167 62-67 57 0H25l-1-190h30c1 10-1 24 2 32 11-22 29-35 61-36" id="ac"/><path d="M100-194c62-1 85 37 85 99 1 63-27 99-86 99S16-35 15-95c0-66 28-99 85-99zM99-20c44 1 53-31 53-75 0-43-8-75-51-75s-53 32-53 75 10 74 51 75" id="ad"/><path d="M115-194c55 1 70 41 70 98S169 2 115 4C84 4 66-9 55-30l1 105H24l-1-265h31l2 30c10-21 28-34 59-34zm-8 174c40 0 45-34 45-75s-6-73-45-74c-42 0-51 32-51 76 0 43 10 73 51 73" id="ae"/><path d="M33 0v-38h34V0H33" id="af"/><path d="M96-169c-40 0-48 33-48 73s9 75 48 75c24 0 41-14 43-38l32 2c-6 37-31 61-74 61-59 0-76-41-82-99-10-93 101-131 147-64 4 7 5 14 7 22l-32 3c-4-21-16-35-41-35" id="ag"/><g id="p"><use transform="matrix(0.05,0,0,0.05,0,0)" xlink:href="#X"/><use transform="matrix(0.05,0,0,0.05,9,0)" xlink:href="#Y"/><use transform="matrix(0.05,0,0,0.05,14,0)" xlink:href="#Z"/><use transform="matrix(0.05,0,0,0.05,23,0)" xlink:href="#aa"/><use transform="matrix(0.05,0,0,0.05,33,0)" xlink:href="#ab"/><use transform="matrix(0.05,0,0,0.05,42,0)" xlink:href="#ac"/><use transform="matrix(0.05,0,0,0.05,52,0)" xlink:href="#ad"/><use transform="matrix(0.05,0,0,0.05,62,0)" xlink:href="#ae"/><use transform="matrix(0.05,0,0,0.05,72,0)" xlink:href="#Z"/><use transform="matrix(0.05,0,0,0.05,81,0)" xlink:href="#af"/><use transform="matrix(0.05,0,0,0.05,86,0)" xlink:href="#ag"/><path d="M-.9 1.25h96.8v1.32H-.9z"/></g><path d="M24 0v-261h32V0H24" id="ah"/><path d="M177-190C167-65 218 103 67 71c-23-6-38-20-44-43l32-5c15 47 100 32 89-28v-30C133-14 115 1 83 1 29 1 15-40 15-95c0-56 16-97 71-98 29-1 48 16 59 35 1-10 0-23 2-32h30zM94-22c36 0 50-32 50-73 0-42-14-75-50-75-39 0-46 34-46 75s6 73 46 73" id="ai"/><g id="q"><use transform="matrix(0.05,0,0,0.05,0,0)" xlink:href="#X"/><use transform="matrix(0.05,0,0,0.05,9,0)" xlink:href="#Y"/><use transform="matrix(0.05,0,0,0.05,14,0)" xlink:href="#Z"/><use transform="matrix(0.05,0,0,0.05,23,0)" xlink:href="#aa"/><use transform="matrix(0.05,0,0,0.05,33,0)" xlink:href="#ah"/><use transform="matrix(0.05,0,0,0.05,36.95,0)" xlink:href="#ad"/><use transform="matrix(0.05,0,0,0.05,46.95,0)" xlink:href="#ai"/><use transform="matrix(0.05,0,0,0.05,56.95,0)" xlink:href="#af"/><use transform="matrix(0.05,0,0,0.05,61.95,0)" xlink:href="#ag"/><path d="M-.9 1.25h72.75v1.32H-.9z"/></g><path d="M24-231v-30h32v30H24zM24 0v-190h32V0H24" id="aj"/><g id="r"><use transform="matrix(0.05,0,0,0.05,0,0)" xlink:href="#X"/><use transform="matrix(0.05,0,0,0.05,9,0)" xlink:href="#aj"/><use transform="matrix(0.05,0,0,0.05,12.949999999999998,0)" xlink:href="#ah"/><use transform="matrix(0.05,0,0,0.05,16.9,0)" xlink:href="#af"/><use transform="matrix(0.05,0,0,0.05,21.9,0)" xlink:href="#ag"/><path d="M-.9 1.25h32.7v1.32H-.9z"/></g></defs></g></svg>