<svg xmlns="http://www.w3.org/2000/svg" xmlns:xlink="http://www.w3.org/1999/xlink" xmlns:lucid="lucid" width="657.36" height="656.69"><g transform="translate(-256.90439629158936 -1860)" lucid:page-tab-id="4TeFW-VZW2dL"><path d="M539.23 1881v377.9M539.23 1881.03V1880M539.23 2258.87v1.02M351.97 1946.2H899M352 1946.2h-1.03M898.97 1946.2H900" stroke="#202124" stroke-width="2" fill="none"/><path d="M360.6 1886c0-3.3 2.7-6 6-6h186.7c3.3 0 6 2.7 6 6v60.1c0 3.3-2.7 6-6 6H366.6c-3.3 0-6-2.7-6-6z" stroke="#000" stroke-opacity="0" stroke-width="3" fill="#fff" fill-opacity="0"/><use xlink:href="#a" transform="matrix(1,0,0,1,375.6095456494563,1895) translate(41.66308593750006 29.304687499999975)"/><path d="M589.1 1881l-1.15 377.9M589.1 1881.03V1880M587.95 2258.87v1.02" stroke="#202124" stroke-width="2" fill="none"/><path d="M539.46 1886c0-3.3 2.68-6 6-6h37c3.3 0 6 2.7 6 6v60.1c0 3.3-2.7 6-6 6h-37c-3.32 0-6-2.7-6-6z" stroke="#000" stroke-opacity="0" stroke-width="3" fill="#fff" fill-opacity="0"/><use xlink:href="#b" transform="matrix(-1.8369701987210297e-16,-1,1,-1.8369701987210297e-16,554.4585994334125,1937.0904085768543) translate(-1.6396484374999645 18.554687499999975)"/><path d="M587.64 1886c0-3.3 2.7-6 6-6h37.53c3.3 0 6 2.7 6 6v60.1c0 3.3-2.7 6-6 6h-37.53c-3.3 0-6-2.7-6-6z" stroke="#000" stroke-opacity="0" stroke-width="3" fill="#fff" fill-opacity="0"/><use xlink:href="#c" transform="matrix(-1.8369701987210297e-16,-1,1,-1.8369701987210297e-16,602.6448670294903,1937.0904085768548) translate(7.422851562500021 18.554687499999975)"/><path d="M636.66 1881v377.9M636.66 1881.03V1880M636.66 2258.87v1.02" stroke="#202124" stroke-width="2" fill="none"/><path d="M636.66 1886c0-3.3 2.7-6 6-6h198.6c3.3 0 6 2.7 6 6v60.1c0 3.3-2.7 6-6 6h-198.6c-3.3 0-6-2.7-6-6z" stroke="#000" stroke-opacity="0" stroke-width="3" fill="#fff" fill-opacity="0"/><use xlink:href="#d" transform="matrix(1,0,0,1,651.6615765601883,1895) translate(41.86718750000007 18.554687499999975)"/><use xlink:href="#e" transform="matrix(1,0,0,1,651.6615765601883,1895) translate(33.08300781250008 41.99218749999994)"/><use xlink:href="#f" transform="matrix(1,0,0,1,651.6615765601883,1895) translate(66.09082031250003 41.99218749999994)"/><path d="M276.9 1887.85c0-3.3 2.7-6 6-6h52.96c3.3 0 6 2.7 6 6V2254c0 3.3-2.7 6-6 6H282.9c-3.3 0-6-2.7-6-6z" fill="none"/><path d="M341.86 2260c-5.53 0-10-4.48-10-10v-169.07c0-5.53-4.48-10-10-10 5.52 0 10-4.48 10-10v-169.08c0-5.52 4.47-10 10-10" stroke="#202124" stroke-width="3" fill="none"/><use xlink:href="#g" transform="matrix(-1.8369701987210297e-16,-1,1,-1.8369701987210297e-16,281.90439629158936,2255) translate(139.61230468750006 19.335937499999993)"/><use xlink:href="#h" transform="matrix(-1.8369701987210297e-16,-1,1,-1.8369701987210297e-16,281.90439629158936,2255) translate(189.4560546875 19.335937499999993)"/><path d="M507.34 2302.45v192.24M507.34 2302.48v-1.03M507.34 2494.66v1.03M352.16 2349.38H779M352.18 2349.38h-1.02M778.97 2349.38H780" stroke="#202124" stroke-width="2" fill="none"/><path d="M328.26 2306c0-3.3 2.7-6 6-6h187.2c3.3 0 6 2.7 6 6v43.18c0 3.3-2.7 6-6 6h-187.2c-3.3 0-6-2.7-6-6z" stroke="#000" stroke-opacity="0" stroke-width="3" fill="#fff" fill-opacity="0"/><use xlink:href="#i" transform="matrix(1,0,0,1,343.2622454449996,2315) translate(29.028320312500078 20.179687499999975)"/><use xlink:href="#j" transform="matrix(1,0,0,1,343.2622454449996,2315) translate(112.81738281249997 20.179687499999975)"/><path d="M524.52 2306c0-3.3 2.7-6 6-6h199.13c3.3 0 6 2.7 6 6v38.7c0 3.3-2.7 6-6 6H530.52c-3.3 0-6-2.7-6-6z" stroke="#000" stroke-opacity="0" stroke-width="3" fill="#fff" fill-opacity="0"/><use xlink:href="#k" transform="matrix(1,0,0,1,539.5203511821165,2315.0000000000005) translate(17.5429687500001 18.554687499999975)"/><use xlink:href="#l" transform="matrix(1,0,0,1,539.5203511821165,2315.0000000000005) translate(77.62109375000001 18.554687499999975)"/><path d="M525.62 2473.2c0 2.05-1.65 3.7-3.7 3.7-2.03 0-3.7-1.65-3.7-3.7 0-2.03 1.67-3.68 3.7-3.68 2.05 0 3.7 1.65 3.7 3.7z" stroke="#202124" stroke-width="3" fill="#202124"/><path d="M399.27 2371.88c0-3.3 2.7-6 6-6h37.24c3.33 0 6 2.7 6 6v29.93c0 3.32-2.67 6-6 6h-37.23c-3.3 0-6-2.68-6-6z" stroke="#000" stroke-opacity="0" stroke-width="3" fill="#fff" fill-opacity="0"/><use xlink:href="#m" transform="matrix(1,0,0,1,414.2694972923056,2380.881437677524) translate(4.384765625000008 18.554687499999975)"/><path d="M399.27 2413.8c0-3.3 2.7-6 6-6h37.24c3.33 0 6 2.7 6 6v29.94c0 3.3-2.67 6-6 6h-37.23c-3.3 0-6-2.7-6-6z" stroke="#000" stroke-opacity="0" stroke-width="3" fill="#fff" fill-opacity="0"/><use xlink:href="#n" transform="matrix(1,0,0,1,414.2694972923056,2422.810543893163) translate(4.384765625000008 18.554687499999975)"/><path d="M399.27 2455.74c0-3.3 2.7-6 6-6h37.24c3.33 0 6 2.7 6 6v29.93c0 3.3-2.67 6-6 6h-37.23c-3.3 0-6-2.7-6-6z" stroke="#000" stroke-opacity="0" stroke-width="3" fill="#fff" fill-opacity="0"/><use xlink:href="#o" transform="matrix(1,0,0,1,414.2694972923056,2464.7396501088015) translate(4.384765625000008 18.554687499999975)"/><path d="M276.9 2306c0-3.3 2.7-6 6-6h53.12c3.32 0 6 2.7 6 6v184.7c0 3.3-2.68 6-6 6H282.9c-3.3 0-6-2.7-6-6z" fill="none"/><path d="M342.02 2496.7c-5.52 0-10-4.5-10-10v-78.36c0-5.52-4.48-10-10-10 5.52 0 10-4.47 10-10V2310c0-5.52 4.48-10 10-10" stroke="#202124" stroke-width="3" fill="none"/><use xlink:href="#p" transform="matrix(-1.8369701987210297e-16,-1,1,-1.8369701987210297e-16,281.9043962915898,2491.689066524609) translate(54.59375000000006 19.835937499999993)"/><path d="M642.7 2435.73c0 9-7.28 16.28-16.27 16.28-9 0-16.28-7.28-16.28-16.27 0-9 7.3-16.28 16.28-16.28 9 0 16.28 7.3 16.28 16.28z" stroke="#202124" stroke-width="3" fill="#ffeca9"/><use xlink:href="#m" transform="matrix(1,0,0,1,615.1497364929605,2424.453548422169) translate(5.884765625000008 18.554687499999975)"/><path d="M761.7 2435.45c0 9-7.28 16.28-16.27 16.28-9 0-16.28-7.3-16.28-16.28 0-9 7.3-16.28 16.28-16.28 9 0 16.28 7.3 16.28 16.28z" stroke="#202124" stroke-width="3" fill="#d1bcd2"/><use xlink:href="#n" transform="matrix(1,0,0,1,734.1484401379828,2424.167242190913) translate(5.884765625000008 18.554687499999975)"/><path d="M645.22 2435.73h63.95" stroke="#202124" stroke-width="2" fill="none"/><path d="M645.25 2434.73v2h-1.16l.12-1-.13-1z" fill="#202124"/><path d="M724.44 2435.74l-14.27 4.63v-9.27z" stroke="#202124" stroke-width="2" fill="#202124"/><path d="M525.62 2435.45c0 2.04-1.65 3.7-3.7 3.7-2.03 0-3.7-1.66-3.7-3.7s1.67-3.7 3.7-3.7c2.05 0 3.7 1.66 3.7 3.7z" stroke="#202124" stroke-width="3" fill="#202124"/><path d="M528.24 2435.45l61.9.22" stroke="#202124" stroke-width="2" fill="none"/><path d="M528.27 2434.45v2h-1.44l.4-1-.4-1z" fill="#202124"/><path d="M605.4 2435.72l-14.28 4.6.03-9.28z" stroke="#202124" stroke-width="2" fill="#202124"/><path d="M584.22 2390.3c0 9-7.28 16.28-16.27 16.28-9 0-16.28-7.3-16.28-16.28 0-9 7.28-16.28 16.28-16.28s16.27 7.3 16.27 16.28z" stroke="#202124" stroke-width="3" fill="#b2d6ef"/><use xlink:href="#q" transform="matrix(1,0,0,1,556.6657176510824,2379.0211250939014) translate(5.884765625000008 18.554687499999975)"/><path d="M642.83 2390.3c0 9-7.3 16.28-16.28 16.28-9 0-16.28-7.3-16.28-16.28 0-9 7.3-16.28 16.28-16.28 9 0 16.28 7.3 16.28 16.28z" stroke="#202124" stroke-width="3" fill="#ffeca9"/><use xlink:href="#m" transform="matrix(1,0,0,1,615.2714670490017,2379.0211250939014) translate(5.884765625000008 18.554687499999975)"/><path d="M701.44 2390.3c0 9-7.3 16.28-16.28 16.28-9 0-16.28-7.3-16.28-16.28 0-9 7.3-16.28 16.28-16.28 9 0 16.28 7.3 16.28 16.28z" stroke="#202124" stroke-width="3" fill="#99d5ca"/><use xlink:href="#r" transform="matrix(1,0,0,1,673.8772164469209,2379.0211250939014) translate(5.884765625000008 18.554687499999975)"/><path d="M760.04 2390.3c0 9-7.3 16.28-16.28 16.28-9 0-16.28-7.3-16.28-16.28 0-9 7.3-16.28 16.28-16.28 9 0 16.28 7.3 16.28 16.28z" stroke="#202124" stroke-width="3" fill="#d1bcd2"/><use xlink:href="#n" transform="matrix(1,0,0,1,732.48296584484,2379.0211250939014) translate(5.884765625000008 18.554687499999975)"/><path d="M586.74 2390.3l3.56.06" stroke="#202124" stroke-width="2" fill="none"/><path d="M586.78 2389.3l-.03 2h-1.14l.14-1-.13-1z" fill="#202124"/><path d="M605.56 2390.55l-14.32 4.46.1-9.26z" stroke="#202124" stroke-width="2" fill="#202124"/><path d="M645.34 2390.3h3.52" stroke="#202124" stroke-width="2" fill="none"/><path d="M645.37 2391.3h-1.16l.14-1-.13-1h1.17z" fill="#202124"/><path d="M664.13 2390.3l-14.27 4.64v-9.27z" stroke="#202124" stroke-width="2" fill="#202124"/><path d="M703.95 2390.3h3.52" stroke="#202124" stroke-width="2" fill="none"/><path d="M703.97 2391.3h-1.15l.13-1-.13-1h1.15z" fill="#202124"/><path d="M722.73 2390.3l-14.26 4.64v-9.27z" stroke="#202124" stroke-width="2" fill="#202124"/><path d="M525.62 2390.3c0 2.04-1.65 3.7-3.7 3.7-2.03 0-3.7-1.66-3.7-3.7s1.67-3.7 3.7-3.7c2.05 0 3.7 1.66 3.7 3.7z" stroke="#202124" stroke-width="3" fill="#202124"/><path d="M528.24 2390.3h3.4" stroke="#202124" stroke-width="2" fill="none"/><path d="M528.27 2391.3h-1.44l.4-1-.4-1h1.44z" fill="#202124"/><path d="M546.92 2390.3l-14.27 4.64v-9.27z" stroke="#202124" stroke-width="2" fill="#202124"/><path d="M360.92 2199.66c0-3.3 2.7-6 6-6h181.6c3.3 0 6 2.7 6 6v29.18c0 3.3-2.7 6-6 6H366.9c-3.3 0-6-2.7-6-6z" stroke="#000" stroke-opacity="0" stroke-width="3" fill="#fff" fill-opacity="0"/><use xlink:href="#s" transform="matrix(1,0,0,1,360.92441524010695,2193.659018355007) translate(0 25.69531249999998)"/><use xlink:href="#t" transform="matrix(1,0,0,1,360.92441524010695,2193.659018355007) translate(60.205078124999915 25.69531249999998)"/><path d="M360.6 2159.36c0-3.32 2.7-6 6-6h181.6c3.3 0 6 2.68 6 6v29.18c0 3.3-2.7 6-6 6H366.6c-3.3 0-6-2.7-6-6z" stroke="#000" stroke-opacity="0" stroke-width="3" fill="#fff" fill-opacity="0"/><use xlink:href="#s" transform="matrix(1,0,0,1,360.6095456494563,2153.3585707563398) translate(0 25.69531249999998)"/><use xlink:href="#u" transform="matrix(1,0,0,1,360.6095456494563,2153.3585707563398) translate(60.205078124999915 25.69531249999998)"/><path d="M655.6 2128.58c0 2.07-1.65 3.75-3.7 3.75-2.02 0-3.67-1.68-3.67-3.75 0-2.07 1.65-3.74 3.68-3.74 2.05 0 3.7 1.67 3.7 3.74z" stroke="#202124" stroke-width="3" fill="#202124"/><path d="M360.6 2114c0-3.32 2.7-6 6-6h181.6c3.3 0 6 2.68 6 6v29.17c0 3.32-2.7 6-6 6H366.6c-3.3 0-6-2.68-6-6z" stroke="#000" stroke-opacity="0" stroke-width="3" fill="#fff" fill-opacity="0"/><use xlink:href="#v" transform="matrix(1,0,0,1,360.6095456494563,2107.991962133083) translate(0 25.69531249999998)"/><use xlink:href="#w" transform="matrix(1,0,0,1,360.6095456494563,2107.991962133083) translate(60.205078124999915 25.69531249999998)"/><use xlink:href="#x" transform="matrix(1,0,0,1,360.6095456494563,2107.991962133083) translate(108.36914062499984 25.69531249999998)"/><use xlink:href="#t" transform="matrix(1,0,0,1,360.6095456494563,2107.991962133083) translate(144.49218749999977 25.69531249999998)"/><path d="M577.42 2128.58c0 9.13-7.27 16.52-16.23 16.52-8.98 0-16.25-7.4-16.25-16.52s7.27-16.5 16.24-16.5c8.95 0 16.22 7.38 16.22 16.5z" stroke="#202124" stroke-width="3" fill="#d1bcd2"/><use xlink:href="#n" transform="matrix(1,0,0,1,549.9479631923451,2117.0657352946573) translate(5.884765625000008 18.554687499999975)"/><path d="M586.8 2109.8c0-3.3 2.68-6 6-6h37.12c3.3 0 6 2.7 6 6v37.56c0 3.3-2.7 6-6 6H592.8c-3.32 0-6-2.7-6-6z" stroke="#000" stroke-opacity="0" stroke-width="3" fill="#fff" fill-opacity="0"/><use xlink:href="#o" transform="matrix(1,0,0,1,601.7972217403099,2118.8071682023206) translate(4.384765625000008 18.554687499999975)"/><path d="M655.6 2081.5c0 2.08-1.65 3.75-3.7 3.75-2.02 0-3.67-1.67-3.67-3.74 0-2.06 1.65-3.74 3.68-3.74 2.05 0 3.7 1.68 3.7 3.75z" stroke="#202124" stroke-width="3" fill="#202124"/><path d="M360.6 2066.92c0-3.32 2.7-6 6-6h181.6c3.3 0 6 2.68 6 6v29.18c0 3.3-2.7 6-6 6H366.6c-3.3 0-6-2.7-6-6z" stroke="#000" stroke-opacity="0" stroke-width="3" fill="#fff" fill-opacity="0"/><use xlink:href="#v" transform="matrix(1,0,0,1,360.6095456494563,2060.9181297067644) translate(0 25.69531249999998)"/><use xlink:href="#y" transform="matrix(1,0,0,1,360.6095456494563,2060.9181297067644) translate(60.205078124999915 25.69531249999998)"/><use xlink:href="#x" transform="matrix(1,0,0,1,360.6095456494563,2060.9181297067644) translate(108.36914062499984 25.69531249999998)"/><use xlink:href="#u" transform="matrix(1,0,0,1,360.6095456494563,2060.9181297067644) translate(144.49218749999977 25.69531249999998)"/><path d="M578.66 2081.5c0 9.13-7.28 16.53-16.24 16.53-8.97 0-16.24-7.4-16.24-16.52 0-9.1 7.27-16.5 16.24-16.5 8.96 0 16.24 7.4 16.24 16.5z" stroke="#202124" stroke-width="3" fill="#ffeca9"/><use xlink:href="#m" transform="matrix(1,0,0,1,551.1783393139223,2069.991902868339) translate(5.884765625000008 18.554687499999975)"/><path d="M586.8 2062.73c0-3.3 2.68-6 6-6h37.12c3.3 0 6 2.7 6 6v37.55c0 3.32-2.7 6-6 6H592.8c-3.32 0-6-2.68-6-6z" stroke="#000" stroke-opacity="0" stroke-width="3" fill="#fff" fill-opacity="0"/><use xlink:href="#o" transform="matrix(1,0,0,1,601.7972217403099,2071.733335776002) translate(4.384765625000008 18.554687499999975)"/><path d="M655.6 2034.44c0 2.06-1.65 3.74-3.7 3.74-2.02 0-3.67-1.68-3.67-3.74 0-2.07 1.65-3.75 3.68-3.75 2.05 0 3.7 1.67 3.7 3.74z" stroke="#202124" stroke-width="3" fill="#202124"/><path d="M360.6 2019.84c0-3.3 2.7-6 6-6h181.6c3.3 0 6 2.7 6 6v29.2c0 3.3-2.7 6-6 6H366.6c-3.3 0-6-2.7-6-6z" stroke="#000" stroke-opacity="0" stroke-width="3" fill="#fff" fill-opacity="0"/><use xlink:href="#z" transform="matrix(1,0,0,1,360.6095456494563,2013.8442972804462) translate(0 25.69531249999998)"/><use xlink:href="#t" transform="matrix(1,0,0,1,360.6095456494563,2013.8442972804462) translate(72.2460937499999 25.69531249999998)"/><path d="M578.8 2034.44c0 9.12-7.28 16.5-16.24 16.5-8.97 0-16.24-7.38-16.24-16.5 0-9.13 7.27-16.52 16.24-16.52 8.96 0 16.23 7.4 16.23 16.52z" stroke="#202124" stroke-width="3" fill="#99d5ca"/><use xlink:href="#r" transform="matrix(1,0,0,1,551.3169197554348,2022.9180704420205) translate(5.884765625000008 18.554687499999975)"/><path d="M586.8 2015.66c0-3.3 2.68-6 6-6h37.12c3.3 0 6 2.7 6 6v37.55c0 3.32-2.7 6-6 6H592.8c-3.32 0-6-2.68-6-6z" stroke="#000" stroke-opacity="0" stroke-width="3" fill="#fff" fill-opacity="0"/><use xlink:href="#n" transform="matrix(1,0,0,1,601.7972217403099,2024.659503349684) translate(4.384765625000008 18.554687499999975)"/><path d="M655.6 1987.36c0 2.07-1.65 3.75-3.7 3.75-2.02 0-3.67-1.67-3.67-3.74 0-2.07 1.65-3.74 3.68-3.74 2.05 0 3.7 1.67 3.7 3.74z" stroke="#202124" stroke-width="3" fill="#202124"/><path d="M360.6 1972.77c0-3.3 2.7-6 6-6h181.6c3.3 0 6 2.7 6 6v29.18c0 3.32-2.7 6-6 6H366.6c-3.3 0-6-2.68-6-6z" stroke="#000" stroke-opacity="0" stroke-width="3" fill="#fff" fill-opacity="0"/><use xlink:href="#z" transform="matrix(1,0,0,1,360.6095456494563,1966.7704648541278) translate(0 25.69531249999998)"/><use xlink:href="#u" transform="matrix(1,0,0,1,360.6095456494563,1966.7704648541278) translate(72.2460937499999 25.69531249999998)"/><path d="M578.8 1987.36c0 9.12-7.28 16.52-16.24 16.52-8.97 0-16.24-7.4-16.24-16.52s7.27-16.52 16.24-16.52c8.96 0 16.23 7.4 16.23 16.52z" stroke="#202124" stroke-width="3" fill="#b2d6ef"/><use xlink:href="#q" transform="matrix(1,0,0,1,551.3169197554348,1975.844238015702) translate(5.884765625000008 18.554687499999975)"/><path d="M586.8 1968.6c0-3.33 2.68-6 6-6h37.12c3.3 0 6 2.67 6 6v37.54c0 3.3-2.7 6-6 6H592.8c-3.32 0-6-2.7-6-6z" stroke="#000" stroke-opacity="0" stroke-width="3" fill="#fff" fill-opacity="0"/><use xlink:href="#n" transform="matrix(1,0,0,1,601.7972217403099,1977.5856709233656) translate(4.384765625000008 18.554687499999975)"/><path d="M718.58 2169.88c0 9.12-7.27 16.5-16.24 16.5-8.97 0-16.24-7.38-16.24-16.5 0-9.13 7.27-16.52 16.24-16.52 8.97 0 16.24 7.4 16.24 16.52z" stroke="#202124" stroke-width="3" fill="#b2d6ef"/><use xlink:href="#q" transform="matrix(1,0,0,1,691.0989565629679,2158.35857075634) translate(5.884765625000008 18.554687499999975)"/><path d="M777.03 2169.88c0 9.12-7.27 16.5-16.23 16.5-8.97 0-16.24-7.38-16.24-16.5 0-9.13 7.27-16.52 16.24-16.52 8.96 0 16.23 7.4 16.23 16.52z" stroke="#202124" stroke-width="3" fill="#ffeca9"/><use xlink:href="#m" transform="matrix(1,0,0,1,749.5570336970052,2158.35857075634) translate(5.884765625000008 18.554687499999975)"/><path d="M721.1 2169.9l3.48.03" stroke="#202124" stroke-width="2" fill="none"/><path d="M721.13 2168.9l-.03 2-1.14-.03.13-1-.14-1z" fill="#202124"/><path d="M739.85 2170.13l-14.33 4.45.12-9.27z" stroke="#202124" stroke-width="2" fill="#202124"/><path d="M655.6 2169.88c0 2.06-1.65 3.74-3.7 3.74-2.02 0-3.67-1.68-3.67-3.74 0-2.07 1.65-3.75 3.68-3.75 2.05 0 3.7 1.68 3.7 3.75z" stroke="#202124" stroke-width="3" fill="#202124"/><path d="M658.22 2169.88h7.86" stroke="#202124" stroke-width="2" fill="none"/><path d="M658.24 2170.88h-1.43l.42-1-.4-1h1.42z" fill="#202124"/><path d="M681.35 2169.88l-14.27 4.63v-9.26z" stroke="#202124" stroke-width="2" fill="#202124"/><path d="M718.9 2214.25c0 9.12-7.28 16.52-16.25 16.52-8.97 0-16.24-7.4-16.24-16.52s7.28-16.52 16.25-16.52c8.97 0 16.24 7.4 16.24 16.52z" stroke="#202124" stroke-width="3" fill="#b2d6ef"/><use xlink:href="#q" transform="matrix(1,0,0,1,691.4138261536186,2202.7327915165815) translate(5.884765625000008 18.554687499999975)"/><path d="M777.35 2214.25c0 9.12-7.27 16.52-16.24 16.52-8.96 0-16.23-7.4-16.23-16.52s7.27-16.52 16.24-16.52c8.98 0 16.25 7.4 16.25 16.52z" stroke="#202124" stroke-width="3" fill="#ffeca9"/><use xlink:href="#m" transform="matrix(1,0,0,1,749.871903287656,2202.7327915165815) translate(5.884765625000008 18.554687499999975)"/><path d="M835.8 2214.25c0 9.12-7.26 16.52-16.23 16.52s-16.24-7.4-16.24-16.52 7.27-16.52 16.24-16.52c8.97 0 16.24 7.4 16.24 16.52z" stroke="#202124" stroke-width="3" fill="#99d5ca"/><use xlink:href="#r" transform="matrix(1,0,0,1,808.3299804216933,2202.7327915165815) translate(5.884765625000008 18.554687499999975)"/><path d="M894.26 2214.25c0 9.12-7.27 16.52-16.23 16.52-8.97 0-16.24-7.4-16.24-16.52s7.26-16.52 16.23-16.52c8.96 0 16.23 7.4 16.23 16.52z" stroke="#202124" stroke-width="3" fill="#d1bcd2"/><g><use xlink:href="#n" transform="matrix(1,0,0,1,866.7880575557308,2202.7327915165815) translate(5.884765625000008 18.554687499999975)"/></g><path d="M721.4 2214.26l3.5.05" stroke="#202124" stroke-width="2" fill="none"/><path d="M721.44 2213.26l-.02 2h-1.15l.13-1-.13-1z" fill="#202124"/><path d="M740.16 2214.5l-14.32 4.46.12-9.27z" stroke="#202124" stroke-width="2" fill="#202124"/><path d="M779.86 2214.25h3.46" stroke="#202124" stroke-width="2" fill="none"/><path d="M779.9 2215.25h-1.17l.13-1-.13-1h1.16z" fill="#202124"/><path d="M798.58 2214.25l-14.26 4.64v-9.3z" stroke="#202124" stroke-width="2" fill="#202124"/><path d="M838.32 2214.25h3.45" stroke="#202124" stroke-width="2" fill="none"/><path d="M838.35 2215.25h-1.16l.12-1-.13-1h1.15z" fill="#202124"/><path d="M857.04 2214.25l-14.27 4.64v-9.3z" stroke="#202124" stroke-width="2" fill="#202124"/><path d="M655.9 2214.25c0 2.07-1.64 3.75-3.67 3.75-2.03 0-3.68-1.68-3.68-3.75 0-2.07 1.65-3.75 3.68-3.75 2.03 0 3.68 1.68 3.68 3.75z" stroke="#202124" stroke-width="3" fill="#202124"/><path d="M658.53 2214.25h7.87" stroke="#202124" stroke-width="2" fill="none"/><path d="M658.56 2215.25h-1.44l.4-1-.4-1h1.44z" fill="#202124"/><path d="M681.66 2214.25l-14.26 4.64v-9.3z" stroke="#202124" stroke-width="2" fill="#202124"/><defs><path fill="#333" d="M579 20C257 20 58-214 66-551c8-331 182-551 511-551 324 0 514 231 514 572 0 319-198 550-512 550zm-2-888c-169 0-222 141-222 338 0 181 61 317 224 317 170 0 223-137 223-338 0-178-64-317-225-317" id="A"/><path fill="#333" d="M663-1102c295 0 422 250 422 571 0 300-141 549-420 551-109 0-198-38-265-114v510H111v-1498h268l10 106c70-84 161-126 274-126zm133 550c0-175-53-315-209-315-91 0-153 35-187 104v443c35 71 98 107 189 107 138 0 207-113 207-339" id="B"/><path fill="#333" d="M1031-175C952-60 797 20 609 20 287 20 60-206 72-543c12-330 180-559 505-559 309 0 482 214 477 537v118H365c15 134 115 234 263 234 111 0 198-40 261-121zM770-644c5-139-62-226-194-224-130 1-191 97-208 224h402" id="C"/><path fill="#333" d="M719-811c-143-24-279 1-319 103V0H111v-1082h273l8 129c74-124 180-175 331-136" id="D"/><path fill="#333" d="M552-1102c254-4 435 134 435 383v469c1 103 15 180 43 233V0H738c-13-26-23-58-29-97C639-19 548 20 436 20 238 20 64-113 68-304c5-258 212-357 496-357h133c11-137-29-227-160-227-90 0-156 45-156 131H92c15-231 213-342 460-345zM357-325c0 76 61 124 142 124 88 0 168-45 198-105v-186H589c-152 2-232 51-232 167" id="E"/><path fill="#333" d="M457-330c2 83 25 111 111 112 32 0 60-2 85-7V-6c-57 17-115 26-175 26-203 0-310-102-310-307v-583H10v-212h158v-266h289v266h185v212H457v540" id="F"/><path fill="#333" d="M416 0H126v-1082h290V0zM271-1212c-92 0-162-61-162-150s68-149 162-149c93 0 162 60 162 149s-70 150-162 150" id="G"/><path fill="#333" d="M750-692c-1-124-48-174-173-175-81 0-142 35-183 104V0H105v-1082h272l9 125c77-97 181-145 311-145 244 0 342 151 342 403V0H750v-692" id="H"/><g id="a"><use transform="matrix(0.009765624999999986,0,0,0.009765624999999986,0,0)" xlink:href="#A"/><use transform="matrix(0.009765624999999986,0,0,0.009765624999999986,11.308593749999984,0)" xlink:href="#B"/><use transform="matrix(0.009765624999999986,0,0,0.009765624999999986,22.568359374999968,0)" xlink:href="#C"/><use transform="matrix(0.009765624999999986,0,0,0.009765624999999986,33.37890624999995,0)" xlink:href="#D"/><use transform="matrix(0.009765624999999986,0,0,0.009765624999999986,40.38085937499994,0)" xlink:href="#E"/><use transform="matrix(0.009765624999999986,0,0,0.009765624999999986,51.10351562499993,0)" xlink:href="#F"/><use transform="matrix(0.009765624999999986,0,0,0.009765624999999986,57.861328124999915,0)" xlink:href="#G"/><use transform="matrix(0.009765624999999986,0,0,0.009765624999999986,63.16406249999992,0)" xlink:href="#A"/><use transform="matrix(0.009765624999999986,0,0,0.009765624999999986,74.4726562499999,0)" xlink:href="#H"/></g><path fill="#333" d="M515-409l200-673h310L590 168c-66 202-236 321-472 250V199c127 7 198-15 230-107l34-89L3-1082h311" id="I"/><g id="b"><use transform="matrix(0.009765624999999986,0,0,0.009765624999999986,0,0)" xlink:href="#C"/><use transform="matrix(0.009765624999999986,0,0,0.009765624999999986,10.810546874999984,0)" xlink:href="#H"/><use transform="matrix(0.009765624999999986,0,0,0.009765624999999986,22.011718749999968,0)" xlink:href="#F"/><use transform="matrix(0.009765624999999986,0,0,0.009765624999999986,28.769531249999957,0)" xlink:href="#D"/><use transform="matrix(0.009765624999999986,0,0,0.009765624999999986,36.24023437499994,0)" xlink:href="#I"/></g><path fill="#333" d="M523-759l182-323h309L706-552 1027 0H717L524-340 332 0H21l321-552-307-530h310" id="J"/><path fill="#333" d="M505 20C221 18 69-239 69-549c0-302 153-553 438-553 119 0 211 41 277 122l12-102h262V-36c-8 305-208 458-520 462-160 1-335-76-403-170L263 80c72 81 159 121 262 121 172 1 260-107 243-294C701-18 614 20 505 20zm76-887c-165 0-223 147-223 339 0 172 66 314 221 314 88 0 151-33 189-99v-455c-39-66-101-99-187-99" id="K"/><g id="c"><use transform="matrix(0.009765624999999986,0,0,0.009765624999999986,0,0)" xlink:href="#F"/><use transform="matrix(0.009765624999999986,0,0,0.009765624999999986,6.75781249999999,0)" xlink:href="#J"/><use transform="matrix(0.009765624999999986,0,0,0.009765624999999986,16.738281249999975,0)" xlink:href="#K"/></g><path fill="#333" d="M355-556c-2 203 30 338 206 343 102 3 181-63 182-161h271C1001-128 821 17 566 20 242 24 66-212 66-554c0-320 184-548 498-548 262 0 451 167 450 423H743c-1-108-75-193-184-189-162 6-202 123-204 312" id="L"/><path fill="#333" d="M741-689c-2-124-40-177-163-178-82 0-141 34-178 102V0H111v-1082h271l9 121c77-94 180-141 311-141 139 0 235 55 287 165 76-110 184-165 325-165 249 0 348 151 348 411V0h-290v-690c-2-123-39-176-163-177-87 0-147 41-180 124l1 743H741v-689" id="M"/><path fill="#333" d="M488 20C204 20 66-234 66-549c0-305 140-551 424-553 105 0 192 39 261 118v-552h290V0H780l-14-115C694-25 601 20 488 20zM355-528c0 176 51 314 207 314 89 0 152-38 189-113v-427c-36-75-98-113-187-113-139 0-209 113-209 339" id="N"/><g id="d"><use transform="matrix(0.009765624999999986,0,0,0.009765624999999986,0,0)" xlink:href="#L"/><use transform="matrix(0.009765624999999986,0,0,0.009765624999999986,10.429687499999986,0)" xlink:href="#A"/><use transform="matrix(0.009765624999999986,0,0,0.009765624999999986,21.738281249999975,0)" xlink:href="#M"/><use transform="matrix(0.009765624999999986,0,0,0.009765624999999986,39.05273437499994,0)" xlink:href="#M"/><use transform="matrix(0.009765624999999986,0,0,0.009765624999999986,56.36718749999991,0)" xlink:href="#G"/><use transform="matrix(0.009765624999999986,0,0,0.009765624999999986,61.6699218749999,0)" xlink:href="#F"/><use transform="matrix(0.009765624999999986,0,0,0.009765624999999986,68.4277343749999,0)" xlink:href="#F"/><use transform="matrix(0.009765624999999986,0,0,0.009765624999999986,75.18554687499989,0)" xlink:href="#C"/><use transform="matrix(0.009765624999999986,0,0,0.009765624999999986,85.99609374999987,0)" xlink:href="#N"/></g><path fill="#333" d="M416 0H126v-1536h290V0" id="O"/><g id="e"><use transform="matrix(0.009765624999999986,0,0,0.009765624999999986,0,0)" xlink:href="#O"/><use transform="matrix(0.009765624999999986,0,0,0.009765624999999986,5.302734374999993,0)" xlink:href="#A"/><use transform="matrix(0.009765624999999986,0,0,0.009765624999999986,16.61132812499998,0)" xlink:href="#K"/></g><path fill="#333" d="M529-185c94 0 168-33 168-114 0-35-18-63-53-83s-91-39-168-55C219-491 90-600 90-765c0-208 203-337 432-337 246 0 451 124 453 349H686c-2-91-62-143-165-143-86 0-151 41-153 117 0 32 16 57 46 77 63 43 257 69 335 100 151 60 229 153 229 291C978-13 554 93 282-28 162-81 60-190 56-344h274c5 106 86 159 199 159" id="P"/><path fill="#333" d="M463 20c-241-1-359-147-359-393v-709h289v699c0 113 51 169 154 169 98 0 165-34 202-102v-766h290V0H767l-8-110C688-23 589 20 463 20" id="Q"/><g id="f"><use transform="matrix(0.009765624999999986,0,0,0.009765624999999986,0,0)" xlink:href="#P"/><use transform="matrix(0.009765624999999986,0,0,0.009765624999999986,10.283203124999986,0)" xlink:href="#F"/><use transform="matrix(0.009765624999999986,0,0,0.009765624999999986,17.041015624999975,0)" xlink:href="#D"/><use transform="matrix(0.009765624999999986,0,0,0.009765624999999986,24.335937499999964,0)" xlink:href="#Q"/><use transform="matrix(0.009765624999999986,0,0,0.009765624999999986,35.52734374999995,0)" xlink:href="#L"/><use transform="matrix(0.009765624999999986,0,0,0.009765624999999986,45.957031249999936,0)" xlink:href="#F"/><use transform="matrix(0.009765624999999986,0,0,0.009765624999999986,52.71484374999992,0)" xlink:href="#Q"/><use transform="matrix(0.009765624999999986,0,0,0.009765624999999986,63.906249999999915,0)" xlink:href="#D"/><use transform="matrix(0.009765624999999986,0,0,0.009765624999999986,71.0156249999999,0)" xlink:href="#C"/></g><path fill="#333" d="M1052-393l142-689h279L1197 0H955L750-681 545 0H304L28-1082h279l141 688 198-688h209" id="R"/><g id="g"><use transform="matrix(0.009765624999999986,0,0,0.009765624999999986,0,0)" xlink:href="#R"/><use transform="matrix(0.009765624999999986,0,0,0.009765624999999986,14.697265624999979,0)" xlink:href="#D"/><use transform="matrix(0.009765624999999986,0,0,0.009765624999999986,21.992187499999968,0)" xlink:href="#G"/><use transform="matrix(0.009765624999999986,0,0,0.009765624999999986,27.29492187499996,0)" xlink:href="#F"/><use transform="matrix(0.009765624999999986,0,0,0.009765624999999986,34.05273437499995,0)" xlink:href="#C"/></g><path fill="#333" d="M750-685c-1-124-48-182-173-182-85 0-146 33-184 98V0H104v-1536h289v572c77-92 173-138 289-138 235 0 357 136 357 409V0H750v-685" id="S"/><g id="h"><use transform="matrix(0.009765624999999986,0,0,0.009765624999999986,0,0)" xlink:href="#B"/><use transform="matrix(0.009765624999999986,0,0,0.009765624999999986,11.259765624999984,0)" xlink:href="#E"/><use transform="matrix(0.009765624999999986,0,0,0.009765624999999986,21.982421874999968,0)" xlink:href="#F"/><use transform="matrix(0.009765624999999986,0,0,0.009765624999999986,28.74023437499996,0)" xlink:href="#S"/></g><g id="i"><use transform="matrix(0.009765624999999986,0,0,0.009765624999999986,0,0)" xlink:href="#B"/><use transform="matrix(0.009765624999999986,0,0,0.009765624999999986,11.259765624999984,0)" xlink:href="#D"/><use transform="matrix(0.009765624999999986,0,0,0.009765624999999986,18.36914062499997,0)" xlink:href="#C"/><use transform="matrix(0.009765624999999986,0,0,0.009765624999999986,29.179687499999957,0)" xlink:href="#L"/><use transform="matrix(0.009765624999999986,0,0,0.009765624999999986,39.60937499999994,0)" xlink:href="#D"/><use transform="matrix(0.009765624999999986,0,0,0.009765624999999986,46.61132812499992,0)" xlink:href="#E"/><use transform="matrix(0.009765624999999986,0,0,0.009765624999999986,57.33398437499992,0)" xlink:href="#P"/><use transform="matrix(0.009765624999999986,0,0,0.009765624999999986,67.6171874999999,0)" xlink:href="#S"/></g><g id="j"><use transform="matrix(0.009765624999999986,0,0,0.009765624999999986,0,0)" xlink:href="#F"/><use transform="matrix(0.009765624999999986,0,0,0.009765624999999986,6.75781249999999,0)" xlink:href="#J"/><use transform="matrix(0.009765624999999986,0,0,0.009765624999999986,16.738281249999975,0)" xlink:href="#K"/></g><g id="k"><use transform="matrix(0.009765624999999986,0,0,0.009765624999999986,0,0)" xlink:href="#D"/><use transform="matrix(0.009765624999999986,0,0,0.009765624999999986,7.1093749999999885,0)" xlink:href="#C"/><use transform="matrix(0.009765624999999986,0,0,0.009765624999999986,17.91992187499997,0)" xlink:href="#B"/><use transform="matrix(0.009765624999999986,0,0,0.009765624999999986,29.179687499999957,0)" xlink:href="#O"/><use transform="matrix(0.009765624999999986,0,0,0.009765624999999986,34.48242187499995,0)" xlink:href="#E"/><use transform="matrix(0.009765624999999986,0,0,0.009765624999999986,45.058593749999936,0)" xlink:href="#I"/></g><path fill="#333" d="M489 20C202 20 66-232 66-551c0-308 139-551 425-551 116 0 208 44 277 133l19-113h254V416H751V-93C684-18 597 20 489 20zM355-530c-1 177 53 317 208 317 89 0 151-35 188-106v-447c-51-122-269-140-341-21-34 56-55 140-55 257" id="T"/><g id="l"><use transform="matrix(0.009765624999999986,0,0,0.009765624999999986,0,0)" xlink:href="#P"/><use transform="matrix(0.009765624999999986,0,0,0.009765624999999986,10.283203124999986,0)" xlink:href="#C"/><use transform="matrix(0.009765624999999986,0,0,0.009765624999999986,21.09374999999997,0)" xlink:href="#T"/><use transform="matrix(0.009765624999999986,0,0,0.009765624999999986,32.39257812499996,0)" xlink:href="#Q"/><use transform="matrix(0.009765624999999986,0,0,0.009765624999999986,43.58398437499995,0)" xlink:href="#C"/><use transform="matrix(0.009765624999999986,0,0,0.009765624999999986,54.39453124999993,0)" xlink:href="#H"/><use transform="matrix(0.009765624999999986,0,0,0.009765624999999986,65.59570312499991,0)" xlink:href="#L"/><use transform="matrix(0.009765624999999986,0,0,0.009765624999999986,76.0253906249999,0)" xlink:href="#C"/></g><path fill="#333" d="M832-402c-1-179-119-264-303-265H390v-151h139c164 0 281-91 281-250 0-171-85-256-255-256-154 0-265 99-263 250H107c-4-235 205-402 448-402 266 0 444 150 440 412-2 148-109 272-229 317 147 45 249 158 251 341 3 262-197 426-461 426C299 20 91-135 94-384h186c-2 156 116 253 276 253 176 0 277-96 276-271" id="U"/><use transform="matrix(0.009765624999999986,0,0,0.009765624999999986,0,0)" xlink:href="#U" id="m"/><path fill="#333" d="M902-489h202v151H902V0H716v-338H53v-109l652-1009h197v967zm-639 0h453v-714l-22 40" id="V"/><use transform="matrix(0.009765624999999986,0,0,0.009765624999999986,0,0)" xlink:href="#V" id="n"/><path fill="#333" d="M884-462c0-185-111-323-291-323-113 0-183 39-239 93l-148-38 74-726h746v171H437l-44 397c71-42 152-63 243-63 273-2 433 205 433 487 0 293-170 484-461 484-260 0-436-159-454-403h175c20 156 111 252 279 252 182 0 276-140 276-331" id="W"/><use transform="matrix(0.009765624999999986,0,0,0.009765624999999986,0,0)" xlink:href="#W" id="o"/><path fill="#333" d="M516-353l201-729h302L654 0H378L13-1082h302" id="X"/><g id="p"><use transform="matrix(0.009765624999999986,0,0,0.009765624999999986,0,0)" xlink:href="#D"/><use transform="matrix(0.009765624999999986,0,0,0.009765624999999986,7.1093749999999885,0)" xlink:href="#C"/><use transform="matrix(0.009765624999999986,0,0,0.009765624999999986,17.91992187499997,0)" xlink:href="#L"/><use transform="matrix(0.009765624999999986,0,0,0.009765624999999986,28.349609374999954,0)" xlink:href="#A"/><use transform="matrix(0.009765624999999986,0,0,0.009765624999999986,39.51171874999994,0)" xlink:href="#X"/><use transform="matrix(0.009765624999999986,0,0,0.009765624999999986,49.49218749999993,0)" xlink:href="#C"/><use transform="matrix(0.009765624999999986,0,0,0.009765624999999986,60.302734374999915,0)" xlink:href="#D"/><use transform="matrix(0.009765624999999986,0,0,0.009765624999999986,67.7734374999999,0)" xlink:href="#I"/></g><path fill="#333" d="M729 0H543v-1233l-373 137v-168l530-199h29V0" id="Y"/><use transform="matrix(0.009765624999999986,0,0,0.009765624999999986,0,0)" xlink:href="#Y" id="q"/><path fill="#333" d="M569-1476c255 0 440 146 439 390 0 143-91 314-274 512L344-151h731V0H121v-133l504-560c75-85 125-155 155-207 105-184 6-424-211-424-183 0-293 113-291 297H93c-3-270 199-449 476-449" id="Z"/><use transform="matrix(0.009765624999999986,0,0,0.009765624999999986,0,0)" xlink:href="#Z" id="r"/><path fill="#333" d="M637-1147c132 1 237 25 336 66v180c-92-53-190-92-322-92-145 0-248 35-248 164 0 50 15 87 46 112 23 30 197 67 303 86 166 30 278 123 278 307 0 239-191 356-446 353-140-2-251-31-371-70v-190c114 58 228 103 375 106 145 3 253-56 256-188 3-87-90-149-253-179-210-38-374-93-374-319 0-232 173-338 420-336" id="aa"/><path fill="#333" d="M1153-1120C1010-750 884-433 741-52c-66 176-110 283-133 322-55 94-138 156-276 156H184V272c97 0 188 7 236-47 29-33 70-112 117-243L104-1120h195l332 876 327-876h195" id="ab"/><path fill="#333" d="M711-1147c253 0 340 178 340 453V0H866v-694c-1-183-51-293-219-293-189 0-268 148-268 354V0H195v-1120h184v168c60-118 165-195 332-195" id="ac"/><path fill="#333" d="M748-127c144 0 233-46 313-121v191C974-6 875 28 748 29c-351 3-553-232-553-588 0-357 202-591 553-588 129 2 222 35 313 86v193c-88-76-165-123-313-123-245 0-359 174-359 432 0 257 115 432 359 432" id="ad"/><g id="s"><use transform="matrix(0.009765624999999986,0,0,0.009765624999999986,0,0)" xlink:href="#aa"/><use transform="matrix(0.009765624999999986,0,0,0.009765624999999986,12.041015624999982,0)" xlink:href="#ab"/><use transform="matrix(0.009765624999999986,0,0,0.009765624999999986,24.082031249999964,0)" xlink:href="#ac"/><use transform="matrix(0.009765624999999986,0,0,0.009765624999999986,36.12304687499994,0)" xlink:href="#ad"/></g><path fill="#333" d="M889-1493h190L293 190H102" id="ae"/><path fill="#333" d="M934-430c0-206-112-282-326-283H369v547h239c220-2 326-58 326-264zm-53-684c0-168-96-213-277-213H369v450h235c186-1 277-59 277-237zm256 704C1133-113 928 1 608 0H166v-1493h442c280-3 477 118 477 379 0 189-93 290-262 315 190 26 317 174 314 389" id="af"/><g id="t"><use transform="matrix(0.009765624999999986,0,0,0.009765624999999986,0,0)" xlink:href="#ae"/><use transform="matrix(0.009765624999999986,0,0,0.009765624999999986,12.041015624999982,0)" xlink:href="#af"/></g><path fill="#333" d="M616-1315L403-551h426zm-122-178h245L1196 0H987L877-389H354L246 0H37" id="ag"/><g id="u"><use transform="matrix(0.009765624999999986,0,0,0.009765624999999986,0,0)" xlink:href="#ae"/><use transform="matrix(0.009765624999999986,0,0,0.009765624999999986,12.041015624999982,0)" xlink:href="#ag"/></g><path fill="#333" d="M651-1147c298 0 466 229 461 541v90H315c-4 242 129 392 365 389 156-2 268-51 389-113v183C949-8 828 27 678 29c-351 3-555-232-555-588 0-338 200-588 528-588zm277 487c-4-201-91-331-285-331-193 0-305 144-321 332" id="ah"/><path fill="#333" d="M711-1147c253 0 340 178 340 453V0H866v-694c-1-183-51-293-219-293-189 0-268 148-268 354V0H195v-1556h184v604c60-118 165-195 332-195" id="ai"/><path fill="#333" d="M616-991c-93 0-161 39-212 109-92 126-92 520 0 646 52 70 119 109 212 109 94 0 161-39 213-109 93-126 92-520 0-646-52-70-119-109-213-109zM137-559c0-353 146-588 479-588s480 235 480 588c0 355-145 588-480 588-334 0-479-234-479-588" id="aj"/><g id="v"><use transform="matrix(0.009765624999999986,0,0,0.009765624999999986,0,0)" xlink:href="#ah"/><use transform="matrix(0.009765624999999986,0,0,0.009765624999999986,12.041015624999982,0)" xlink:href="#ad"/><use transform="matrix(0.009765624999999986,0,0,0.009765624999999986,24.082031249999964,0)" xlink:href="#ai"/><use transform="matrix(0.009765624999999986,0,0,0.009765624999999986,36.12304687499994,0)" xlink:href="#aj"/></g><path fill="#333" d="M850-236c87-126 87-521 0-646-49-70-112-109-201-109s-154 38-203 109c-89 127-89 518 0 645 49 71 114 110 203 110s152-39 201-109zM676 29c-146 0-244-69-299-170V0H193v-1556h184v579c53-101 154-170 301-170 297 0 434 260 434 584 0 329-136 592-436 592" id="ak"/><path fill="#333" d="M547-125c229-2 340-186 327-438H641c-189 0-321 55-324 225-3 137 91 215 230 213zm-332-944c167-71 431-115 615-37 106 45 186 120 213 246 11 49 16 123 16 221V0H874v-166C800-42 695 26 508 29c-220 3-378-138-375-355 4-274 199-382 494-381h247c6-204-80-285-282-284-149 1-272 46-377 106v-184" id="al"/><path fill="#333" d="M915-1147c102 0 174 26 240 70v188c-71-55-140-88-254-88-243 0-354 165-354 420V0H362v-1120h185v219c55-146 178-246 368-246" id="am"/><g id="w"><use transform="matrix(0.009765624999999986,0,0,0.009765624999999986,0,0)" xlink:href="#ak"/><use transform="matrix(0.009765624999999986,0,0,0.009765624999999986,12.041015624999982,0)" xlink:href="#al"/><use transform="matrix(0.009765624999999986,0,0,0.009765624999999986,24.082031249999964,0)" xlink:href="#am"/></g><path fill="#333" d="M88-961v-182l1057 418v166L88-141v-183l850-317" id="an"/><g id="x"><use transform="matrix(0.009765624999999986,0,0,0.009765624999999986,0,0)" xlink:href="#an"/><use transform="matrix(0.009765624999999986,0,0,0.009765624999999986,12.041015624999982,0)" xlink:href="#an"/></g><path fill="#333" d="M494-1120c-16-286 77-439 348-436h221v153H854c-136 2-174 46-176 184v99h385v143H678V0H494v-977H195v-143h299" id="ao"/><g id="y"><use transform="matrix(0.009765624999999986,0,0,0.009765624999999986,0,0)" xlink:href="#ao"/><use transform="matrix(0.009765624999999986,0,0,0.009765624999999986,12.041015624999982,0)" xlink:href="#aj"/><use transform="matrix(0.009765624999999986,0,0,0.009765624999999986,24.082031249999964,0)" xlink:href="#aj"/></g><path fill="#333" d="M807 0C529-4 430-92 430-369v-608H131v-143h299v-318h184v318h418v143H614v608c2 165 49 222 211 222h207V0H807" id="ap"/><path fill="#333" d="M535 29c-255 0-340-177-340-453v-694h184v694c1 183 52 293 219 293 191 0 268-148 268-354v-633h185V0H866v-168C807-50 701 29 535 29" id="aq"/><g id="z"><use transform="matrix(0.009765624999999986,0,0,0.009765624999999986,0,0)" xlink:href="#ap"/><use transform="matrix(0.009765624999999986,0,0,0.009765624999999986,12.041015624999982,0)" xlink:href="#aj"/><use transform="matrix(0.009765624999999986,0,0,0.009765624999999986,24.082031249999964,0)" xlink:href="#aq"/><use transform="matrix(0.009765624999999986,0,0,0.009765624999999986,36.12304687499994,0)" xlink:href="#ad"/><use transform="matrix(0.009765624999999986,0,0,0.009765624999999986,48.16406249999993,0)" xlink:href="#ai"/></g></defs></g></svg>