<svg xmlns="http://www.w3.org/2000/svg" xmlns:xlink="http://www.w3.org/1999/xlink" xmlns:lucid="lucid" width="699.83" height="347.78"><g transform="translate(-260 -9080)" lucid:page-tab-id="IVeFHl0rHzA4"><path d="M280 9189.85c0-3.3 2.7-6 6-6h94.7c3.3 0 6 2.7 6 6v50.7c0 3.3-2.7 6-6 6H286c-3.3 0-6-2.7-6-6z" stroke="#000" stroke-width="2" fill="#fff" fill-opacity="0"/><use xlink:href="#a" transform="matrix(1,0,0,1,288,9191.854901718565) translate(7.550781250000057 18.554687499999975)"/><use xlink:href="#b" transform="matrix(1,0,0,1,288,9191.854901718565) translate(39.669921875000014 18.554687499999975)"/><use xlink:href="#c" transform="matrix(1,0,0,1,288,9191.854901718565) translate(4.708984375000057 41.99218749999994)"/><use xlink:href="#d" transform="matrix(1,0,0,1,288,9191.854901718565) translate(63.66406249999998 41.99218749999994)"/><path d="M456.6 9131.36c0-3.3 2.68-6 6-6h165.64c3.3 0 6 2.7 6 6V9159c0 3.32-2.7 6-6 6H462.6c-3.32 0-6-2.68-6-6z" fill="#ffeca9"/><path d="M461.1 9125.77l1.5-.4h1.97m7.9 0h3.93m7.9 0h3.93m7.9 0h3.93m7.9 0h3.94m7.88 0h3.95m7.88 0h3.96m7.9 0h3.93m7.88 0h3.94m7.9 0h3.93m7.9 0h3.93m7.9 0h3.93m7.9 0h3.95m7.88 0h3.95m7.88 0h1.98l1.5.4m4.1 4.1l.4 1.5v2.3m0 9.2v4.62m0 9.2v2.3l-.4 1.5m-4.1 4.1l-1.5.4h-1.98m-7.88 0h-3.95m-7.88 0h-3.95m-7.9 0h-3.93m-7.9 0h-3.93m-7.9 0h-3.93m-7.88 0h-3.94m-7.9 0h-3.93m-7.9 0h-3.94m-7.87 0h-3.95m-7.88 0h-3.95m-7.9 0h-3.93m-7.9 0h-3.93m-7.9 0h-3.94m-7.9 0h-1.96l-1.5-.4m-4.1-4.1l-.4-1.5v-2.3m0-9.2v-4.62m0-9.2v-2.32l.4-1.5" stroke="#000" stroke-width="2" fill="none"/><use xlink:href="#e" transform="matrix(1,0,0,1,461.5978128383788,9130.363122248793) translate(57.920898437500036 22.304687499999975)"/><path d="M456.6 9201.27c0-3.3 2.68-6 6-6h165.64c3.3 0 6 2.7 6 6v27.64c0 3.33-2.7 6-6 6H462.6c-3.32 0-6-2.67-6-6z" stroke="#000" stroke-width="2" fill="#c1e4f7"/><use xlink:href="#f" transform="matrix(1,0,0,1,461.5978128383788,9200.272098599546) translate(25.762695312500085 22.304687499999975)"/><path d="M456.6 9271.18c0-3.3 2.68-6 6-6h165.64c3.3 0 6 2.7 6 6v27.64c0 3.32-2.7 6-6 6H462.6c-3.32 0-6-2.68-6-6z" stroke="#000" stroke-width="2" fill="#fff" fill-opacity="0"/><use xlink:href="#g" transform="matrix(1,0,0,1,461.5978128383788,9270.181074950302) translate(35.51855468750008 22.304687499999975)"/><path d="M725.83 9106c0-3.3 2.7-6 6-6h202c3.3 0 6 2.7 6 6v29.95c0 3.3-2.7 6-6 6h-202c-3.3 0-6-2.7-6-6z" stroke="#000" stroke-width="2" fill="#c1e4f7"/><use xlink:href="#h" transform="matrix(1,0,0,1,730.8303894410366,9105) translate(38.8603515625001 22.554687499999975)"/><use xlink:href="#i" transform="matrix(1,0,0,1,730.8303894410366,9105) translate(65.31542968750006 22.554687499999975)"/><use xlink:href="#j" transform="matrix(1,0,0,1,730.8303894410366,9105) translate(138.58691406249994 22.554687499999975)"/><path d="M725.83 9159.63c0-3.32 2.7-6 6-6h202c3.3 0 6 2.68 6 6v43.92c0 3.32-2.7 6-6 6h-202c-3.3 0-6-2.68-6-6z" stroke="#000" stroke-width="2" fill="#99d5ca"/><use xlink:href="#k" transform="matrix(1,0,0,1,730.8303894410366,9158.62686733671) translate(36.653320312500085 18.554687499999975)"/><use xlink:href="#l" transform="matrix(1,0,0,1,730.8303894410366,9158.62686733671) translate(78.89941406250003 18.554687499999975)"/><use xlink:href="#m" transform="matrix(1,0,0,1,730.8303894410366,9158.62686733671) translate(108.96777343749999 18.554687499999975)"/><use xlink:href="#n" transform="matrix(1,0,0,1,730.8303894410366,9158.62686733671) translate(21.555664062500114 41.99218749999994)"/><use xlink:href="#o" transform="matrix(1,0,0,1,730.8303894410366,9158.62686733671) translate(66.06738281250006 41.99218749999994)"/><use xlink:href="#p" transform="matrix(1,0,0,1,730.8303894410366,9158.62686733671) translate(102.1806640625 41.99218749999994)"/><path d="M725.83 9227.24c0-3.32 2.7-6 6-6h202c3.3 0 6 2.68 6 6v43.92c0 3.32-2.7 6-6 6h-202c-3.3 0-6-2.68-6-6z" stroke="#000" stroke-width="2" fill="#99d5ca"/><use xlink:href="#k" transform="matrix(1,0,0,1,730.8303894410366,9226.23552994357) translate(9.348632812500142 18.554687499999975)"/><use xlink:href="#l" transform="matrix(1,0,0,1,730.8303894410366,9226.23552994357) translate(51.594726562500085 18.554687499999975)"/><use xlink:href="#q" transform="matrix(1,0,0,1,730.8303894410366,9226.23552994357) translate(81.66308593750004 18.554687499999975)"/><use xlink:href="#r" transform="matrix(1,0,0,1,730.8303894410366,9226.23552994357) translate(126.17480468749997 18.554687499999975)"/><use xlink:href="#s" transform="matrix(1,0,0,1,730.8303894410366,9226.23552994357) translate(36.4726562500001 41.99218749999994)"/><path d="M725.83 9294.84c0-3.3 2.7-6 6-6h202c3.3 0 6 2.7 6 6v27.1c0 3.32-2.7 6-6 6h-202c-3.3 0-6-2.68-6-6z" fill="#99d5ca"/><path d="M730.33 9289.25l1.5-.4h1.98m7.93 0h3.96m7.9 0h3.98m7.92 0h3.96m7.92 0h3.96m7.92 0h3.96m7.92 0h3.96m7.93 0H817m7.9 0h3.97m7.92 0h3.95m7.92 0h3.96m7.92 0h3.97m7.92 0h3.96m7.92 0h3.96m7.92 0h3.96m7.92 0h3.96m7.93 0h3.96m7.92 0h1.98l1.5.4m4.1 4.1l.4 1.5v2.25m0 9.04v4.52m0 9.03v2.25l-.4 1.5m-4.1 4.1l-1.5.4h-1.98m-7.92 0h-3.96m-7.93 0h-3.96m-7.92 0h-3.96m-7.92 0h-3.96m-7.92 0h-3.96m-7.92 0h-3.97m-7.92 0h-3.96m-7.92 0h-3.96m-7.93 0h-3.96m-7.9 0h-3.97m-7.93 0h-3.96m-7.92 0h-3.96m-7.92 0h-3.96m-7.92 0h-3.96m-7.92 0h-3.97m-7.9 0h-3.97m-7.92 0h-1.97l-1.5-.4m-4.1-4.1l-.4-1.5v-2.26m0-9.04v-4.52m0-9.04v-2.26l.4-1.5" stroke="#000" stroke-width="2" fill="none"/><use xlink:href="#t" transform="matrix(1,0,0,1,730.8303894410365,9293.84419255043) translate(13.132812500000128 22.304687499999975)"/><use xlink:href="#q" transform="matrix(1,0,0,1,730.8303894410365,9293.84419255043) translate(64.40234375000006 22.304687499999975)"/><use xlink:href="#u" transform="matrix(1,0,0,1,730.8303894410365,9293.84419255043) translate(108.91406249999999 22.304687499999975)"/><path d="M388.7 9215.16l.7-.02 1.6-.18 1.56-.28 1.5-.38 1.47-.5 1.47-.6 1.47-.73 1.5-.9 1.56-1.08 1.63-1.33 1.76-1.64 1.93-2.07 2.2-2.74 2.64-3.83 3.64-6.2 16.26-31.2 2.65-3.84 2.2-2.74 1.92-2.07 1.75-1.64 1.64-1.3 1.55-1.1 1.52-.9 1.47-.72 1.45-.6 1.48-.5 1.5-.38 1.54-.28 1.62-.18.7-.02" stroke="#202124" stroke-width="2" fill="none"/><path d="M388.75 9216.16l-1.06.04v-2l.98-.04zM455.6 9146.18h-1.03v-2h1.03z" fill="#202124"/><path d="M388.7 9215.2l65.9-.1" stroke="#202124" stroke-width="2" fill="none"/><path d="M388.72 9216.2h-1.03v-2h1zM455.6 9216.1h-1.03v-2h1.03z" fill="#202124"/><path d="M388.7 9215.23l.7.03 1.63.17 1.56.28 1.5.4 1.47.5 1.48.6 1.48.75 1.5.9 1.57 1.1 1.65 1.33 1.77 1.66 1.94 2.1 2.22 2.78 2.7 3.92 3.76 6.45 15.78 30.26 2.7 3.92 2.2 2.78 1.95 2.1 1.77 1.66 1.64 1.33 1.57 1.1 1.5.9 1.5.74 1.46.6 1.5.5 1.5.38 1.55.3 1.63.16.72.03" stroke="#202124" stroke-width="2" fill="none"/><path d="M388.75 9214.23l-.07 2-1-.03v-2zM455.6 9284v2h-1.03v-2z" fill="#202124"/><path d="M636.24 9284.97l.5-.03.74-.08.73-.1.73-.14.7-.17.73-.2.72-.24.73-.26.74-.3.74-.35.76-.4.78-.46.8-.5.8-.57.86-.65.9-.73.9-.85.98-.95 1.03-1.1 1.1-1.27 1.16-1.48 1.27-1.75 1.4-2.1 1.5-2.5 1.72-3.12 1.94-3.92 2.26-5.1 2.76-7 3.65-10.53 6.64-22.34 13.7-47.96 3.65-10.53 2.76-6.98 2.27-5.1 1.95-3.93 1.7-3.12 1.53-2.52 1.38-2.1 1.27-1.73 1.18-1.5 1.1-1.26 1.02-1.1.98-.95.92-.83.9-.75.84-.64.82-.56.8-.5.77-.46.75-.4.75-.34.73-.3.73-.28.7-.23.72-.2.72-.17.72-.14.73-.1.72-.08.5-.04" stroke="#202124" stroke-width="2" fill="none"/><path d="M636.28 9285.98l-1.04.02v-2l1-.02zM724.83 9121.97h-1.03v-2h1.03z" fill="#202124"/><path d="M636.24 9284.98h.38l1.33-.1 1.3-.17 1.25-.2 1.23-.27 1.22-.34 1.2-.4 1.2-.46 1.22-.52 1.22-.6 1.22-.7 1.26-.77 1.3-.9 1.33-1.02 1.4-1.17 1.45-1.36 1.55-1.58 1.66-1.88 1.8-2.25 2-2.76 2.27-3.48 2.7-4.6 3.53-6.76 7.23-15.84 10.3-22.96 3.54-6.76 2.7-4.6 2.27-3.5 2-2.74 1.8-2.25 1.67-1.87 1.54-1.6 1.47-1.35 1.4-1.17 1.33-1.02 1.3-.9 1.25-.78 1.23-.68 1.22-.6 1.2-.53 1.2-.46 1.2-.4 1.23-.33 1.24-.28 1.26-.22 1.3-.16 1.32-.1h.38" stroke="#202124" stroke-width="2" fill="none"/><path d="M636.3 9285.98l-1.06.02v-2l1-.02zM724.83 9182.6h-1.03v-2h1.03z" fill="#202124"/><path d="M636.24 9284.97l3.4-.1 3.9-.3 3.5-.5 3.24-.65 3.03-.77 2.9-.92 2.8-1.06 2.8-1.25 2.88-1.47 3.1-1.82 3.66-2.44 6.3-4.77 10.9-8.42 3.65-2.43 3.1-1.82 2.87-1.47 2.8-1.25 2.8-1.06 2.88-.92 3.03-.77 3.24-.64 3.52-.5 3.9-.32 3.4-.1" stroke="#202124" stroke-width="2" fill="none"/><path d="M636.3 9285.97l-1.06.03v-2l1-.03zM724.83 9250.2h-1.03v-2h1.03z" fill="#202124"/><path d="M636.24 9285.03l5.5.15 5.45.45 4.73.66 4.24.83 3.96 1.02 3.86 1.22 4.03 1.53 4.9 2.2 19.1 9.4 4.04 1.53 3.86 1.22 3.96 1.02 4.24.84 4.73.67 5.45.45 5.5.15" stroke="#202124" stroke-width="2" fill="none"/><path d="M636.3 9284.03l-.06 2-1-.03v-2zM724.83 9307.4v2h-1.03v-2z" fill="#202124"/><path d="M315.67 9366.98c0-3.3 2.68-6 6-6h77.16c3.32 0 6 2.7 6 6v27.05c0 3.32-2.68 6-6 6h-77.16c-3.32 0-6-2.68-6-6z" stroke="#000" stroke-width="2" fill="#ffeca9"/><g><use xlink:href="#v" transform="matrix(1,0,0,1,318.66643115528296,9363.981524003284) translate(18.818576388888886 22.868055555555557)"/></g><path d="M433.37 9366.98c0-3.3 2.68-6 6-6h77.16c3.32 0 6 2.7 6 6v27.05c0 3.32-2.68 6-6 6h-77.16c-3.32 0-6-2.68-6-6z" stroke="#000" stroke-width="2" fill="#c1e4f7"/><g><use xlink:href="#w" transform="matrix(1,0,0,1,436.3656539677166,9363.981524003284) translate(28.83159722222222 22.868055555555557)"/></g><path d="M551.06 9362.67c0-3.3 2.7-6 6-6h77.17c3.3 0 6 2.7 6 6v35.67c0 3.3-2.7 6-6 6h-77.17c-3.3 0-6-2.7-6-6z" stroke="#000" stroke-width="2" fill="#99d5ca"/><g><use xlink:href="#x" transform="matrix(1,0,0,1,554.0648767801501,9359.673616272836) translate(9.443576388888886 16.493055555555557)"/><use xlink:href="#y" transform="matrix(1,0,0,1,554.0648767801501,9359.673616272836) translate(25.663194444444443 37.32638888888889)"/></g><path d="M697.3 9366.98c0-3.3 2.68-6 6-6h77.16c3.32 0 6 2.7 6 6v27.05c0 3.32-2.68 6-6 6H703.3c-3.32 0-6-2.68-6-6z" stroke="#000" stroke-width="2" fill="#fff" fill-opacity="0"/><g><use xlink:href="#z" transform="matrix(1,0,0,1,700.2972445168103,9363.981524003284) translate(2.5338541666666643 22.868055555555557)"/></g><path d="M815 9366.98c0-3.3 2.68-6 6-6h77.16c3.32 0 6 2.7 6 6v27.05c0 3.32-2.68 6-6 6H821c-3.32 0-6-2.68-6-6z" fill="#fff" fill-opacity="0"/><path d="M819.5 9361.4l1.5-.42h2.14m8.57 0h4.3m8.57 0h4.3m8.57 0h4.28m8.58 0h4.28m8.58 0h4.3m8.56 0h2.14l1.5.4m4.1 4.1l.4 1.5v2.26m0 9v4.52m0 9.02v2.25l-.4 1.5m-4.1 4.1l-1.5.4h-2.14m-8.57 0h-4.3m-8.57 0h-4.28m-8.58 0h-4.28m-8.58 0h-4.3m-8.56 0h-4.3m-8.56 0H821l-1.5-.4m-4.1-4.1l-.4-1.5v-2.25m0-9.02v-4.5m0-9.02v-2.26l.4-1.5" stroke="#000" stroke-width="2" fill="none"/><g><use xlink:href="#A" transform="matrix(1,0,0,1,817.9964673292438,9363.981524003284) translate(13.141493055555557 22.868055555555557)"/></g><path d="M669.76 9345.23c0 .55-.44 1-1 1-.55 0-1-.45-1-1s.45-1 1-1c.56 0 1 .45 1 1zm0 3.92c0 .55-.44 1-1 1-.55 0-1-.45-1-1s.45-1 1-1c.56 0 1 .45 1 1zm0 3.92c0 .55-.44 1-1 1-.55 0-1-.45-1-1s.45-1 1-1c.56 0 1 .45 1 1zm0 3.92c0 .54-.44 1-1 1-.55 0-1-.46-1-1 0-.56.45-1 1-1 .56 0 1 .44 1 1zm0 3.9c0 .56-.44 1-1 1-.55 0-1-.44-1-1 0-.54.45-1 1-1 .56 0 1 .46 1 1zm0 3.93c0 .55-.44 1-1 1-.55 0-1-.45-1-1s.45-1 1-1c.56 0 1 .45 1 1zm0 3.92c0 .55-.44 1-1 1-.55 0-1-.45-1-1s.45-1 1-1c.56 0 1 .45 1 1zm0 3.92c0 .55-.44 1-1 1-.55 0-1-.45-1-1s.45-1 1-1c.56 0 1 .45 1 1zm0 3.92c0 .54-.44 1-1 1-.55 0-1-.46-1-1 0-.56.45-1 1-1 .56 0 1 .44 1 1zm0 3.9c0 .56-.44 1-1 1-.55 0-1-.44-1-1 0-.55.45-1 1-1 .56 0 1 .45 1 1zm0 3.93c0 .55-.44 1-1 1-.55 0-1-.45-1-1 0-.56.45-1 1-1 .56 0 1 .44 1 1zm0 3.92c0 .55-.44 1-1 1-.55 0-1-.45-1-1 0-.56.45-1 1-1 .56 0 1 .44 1 1zm0 3.92c0 .55-.44 1-1 1-.55 0-1-.45-1-1 0-.56.45-1 1-1 .56 0 1 .44 1 1zm0 3.9c0 .57-.44 1-1 1-.55 0-1-.43-1-1 0-.54.45-1 1-1 .56 0 1 .46 1 1zm0 3.93c0 .56-.44 1-1 1-.55 0-1-.44-1-1 0-.55.45-1 1-1 .56 0 1 .45 1 1zm0 3.92c0 .56-.44 1-1 1-.55 0-1-.44-1-1 0-.55.45-1 1-1 .56 0 1 .45 1 1zm0 3.92c0 .56-.44 1-1 1-.55 0-1-.44-1-1 0-.55.45-1 1-1 .56 0 1 .45 1 1zm0 3.92c0 .56-.44 1-1 1-.55 0-1-.44-1-1 0-.55.45-1 1-1 .56 0 1 .45 1 1z" fill="#202124"/><path d="M668.76 9345.26v-1.03M668.76 9415.76v1.02" stroke="#202124" stroke-width="2" fill="none"/><defs><path fill="#333" d="M314-151h633V0H88v-136l597-793H97v-153h820v131" id="B"/><path fill="#333" d="M704-1390c-164-38-297 28-288 194v114h231v143H416V0H231v-939H60v-143h171v-111c-12-274 208-416 483-347" id="C"/><path fill="#333" d="M538-131c121 0 232-49 232-156 0-50-20-88-56-117-73-60-334-92-420-143-92-55-162-110-162-238 0-190 192-317 400-317 223 0 414 129 413 338H759c0-108-110-186-227-186-119 0-215 53-215 159 0 45 18 78 53 101 76 52 331 90 416 139 98 57 169 115 169 251C955-92 760 20 538 20c-176 0-314-68-386-174-38-55-57-115-57-179h185c6 129 116 202 258 202" id="D"/><g id="a"><use transform="matrix(0.009765624999999986,0,0,0.009765624999999986,0,0)" xlink:href="#B"/><use transform="matrix(0.009765624999999986,0,0,0.009765624999999986,9.912109374999986,0)" xlink:href="#C"/><use transform="matrix(0.009765624999999986,0,0,0.009765624999999986,16.855468749999975,0)" xlink:href="#D"/></g><path fill="#333" d="M1098-255l208-827h185L1176 0h-150L763-820 507 0H357L43-1082h184l213 810 252-810h149" id="E"/><path fill="#333" d="M663-916c-163-27-288 18-338 148V0H140v-1082h180l3 125c61-97 147-145 258-145 36 0 63 5 82 14v172" id="F"/><path fill="#333" d="M341 0H156v-1082h185V0zm-91-1264c-68 0-108-42-109-105 0-62 41-107 109-107s110 44 110 107-42 105-110 105" id="G"/><path fill="#333" d="M456 20C285 20 205-92 206-268v-671H9v-143h197v-262h185v262h202v143H391v671c-9 125 92 149 207 118V0c-49 13-96 20-142 20" id="H"/><path fill="#333" d="M599-131c141 0 220-65 285-146l113 88C906-50 770 20 589 20 281 21 93-214 93-545c0-223 93-397 233-485 74-48 154-72 240-72 300 2 449 218 445 537v77H278c0 197 129 357 321 357zm227-509c-3-180-88-310-260-310-170 0-264 140-282 310h542" id="I"/><g id="b"><use transform="matrix(0.009765624999999986,0,0,0.009765624999999986,0,0)" xlink:href="#E"/><use transform="matrix(0.009765624999999986,0,0,0.009765624999999986,15.029296874999979,0)" xlink:href="#F"/><use transform="matrix(0.009765624999999986,0,0,0.009765624999999986,21.796874999999968,0)" xlink:href="#G"/><use transform="matrix(0.009765624999999986,0,0,0.009765624999999986,26.65039062499996,0)" xlink:href="#H"/><use transform="matrix(0.009765624999999986,0,0,0.009765624999999986,33.18359374999995,0)" xlink:href="#I"/></g><path fill="#333" d="M497-251l268-831h189L566 0H425L33-1082h189" id="J"/><path fill="#333" d="M589-945c-131 0-219 81-264 174V0H140v-1082h175l6 136c83-104 191-156 324-156 229 0 346 129 346 387V0H806v-716c-2-153-65-229-217-229" id="K"/><path fill="#333" d="M584 20C278 26 81-227 91-551c10-320 175-545 491-551 308-5 503 247 494 573-9 322-175 543-492 549zm-2-970c-208 0-305 185-305 421 0 216 106 398 307 398 211 0 307-186 307-420 0-214-109-399-309-399" id="L"/><path fill="#333" d="M520 20C244 20 95-247 95-550c0-298 151-550 427-552 127 0 227 43 301 130v-564h185V0H838l-9-116C755-25 652 20 520 20zm48-965c-210 0-288 177-288 416 0 218 87 392 286 392 117 0 203-53 257-158v-497c-55-102-140-153-255-153" id="M"/><g id="c"><use transform="matrix(0.009765624999999986,0,0,0.009765624999999986,0,0)" xlink:href="#J"/><use transform="matrix(0.009765624999999986,0,0,0.009765624999999986,9.687499999999986,0)" xlink:href="#K"/><use transform="matrix(0.009765624999999986,0,0,0.009765624999999986,20.72265624999997,0)" xlink:href="#L"/><use transform="matrix(0.009765624999999986,0,0,0.009765624999999986,32.12890624999996,0)" xlink:href="#M"/><use transform="matrix(0.009765624999999986,0,0,0.009765624999999986,43.40820312499995,0)" xlink:href="#I"/></g><path fill="#333" d="M632-1102c291 0 422 251 422 573 0 297-141 548-419 549-131 0-235-42-310-125v521H140v-1498h169l9 120c75-93 180-140 314-140zm-53 971c207 0 290-180 290-419 0-218-92-395-292-395-112 0-196 50-252 149v517c55 99 140 148 254 148" id="N"/><g id="d"><use transform="matrix(0.009765624999999986,0,0,0.009765624999999986,0,0)" xlink:href="#L"/><use transform="matrix(0.009765624999999986,0,0,0.009765624999999986,11.406249999999984,0)" xlink:href="#N"/></g><path fill="#333" d="M561-1102c238-4 403 126 403 351v498c0 99 13 178 38 237V0H808c-11-21-19-59-26-114C696-25 593 20 474 20c-199 0-368-130-365-320 4-251 214-359 490-356h180v-85c-1-135-86-212-229-212-115 0-232 67-233 171H131c20-205 206-316 430-320zM294-326c0 117 90 185 207 185 122 0 239-75 278-162v-222H634c-227 0-340 66-340 199" id="O"/><path fill="#333" d="M494-271l252-811h198L509 167C425 381 299 474 84 421V271c167 16 242-37 283-173l41-110L22-1082h202" id="P"/><path fill="#333" d="M277-555c0 244 77 420 297 424 127 2 249-93 255-210h175C980-127 805 20 574 20 258 20 81-222 92-562c11-319 164-533 481-540 237-5 426 165 431 392H829c-7-133-115-242-256-240-209 4-296 166-296 395" id="Q"/><g id="e"><use transform="matrix(0.009765624999999986,0,0,0.009765624999999986,0,0)" xlink:href="#O"/><use transform="matrix(0.009765624999999986,0,0,0.009765624999999986,10.878906249999984,0)" xlink:href="#D"/><use transform="matrix(0.009765624999999986,0,0,0.009765624999999986,21.19140624999997,0)" xlink:href="#P"/><use transform="matrix(0.009765624999999986,0,0,0.009765624999999986,30.654296874999957,0)" xlink:href="#K"/><use transform="matrix(0.009765624999999986,0,0,0.009765624999999986,41.68945312499994,0)" xlink:href="#Q"/></g><path fill="#333" d="M920 151H4V0h916v151" id="R"/><path fill="#333" d="M341 0H156v-1536h185V0" id="S"/><path fill="#333" d="M521 20C240 20 96-239 96-550c0-303 147-552 427-552 132 0 235 47 309 140l9-120h169V-26c4 277-183 454-459 452-165-1-334-81-400-187l96-111c79 98 176 147 291 147 180 1 288-109 286-290v-93C750-23 649 20 521 20zm48-965c-209 0-287 178-287 416 0 217 86 392 285 392 117 0 202-53 257-159v-494c-57-103-142-155-255-155" id="T"/><g id="f"><use transform="matrix(0.009765624999999986,0,0,0.009765624999999986,0,0)" xlink:href="#B"/><use transform="matrix(0.009765624999999986,0,0,0.009765624999999986,9.912109374999986,0)" xlink:href="#C"/><use transform="matrix(0.009765624999999986,0,0,0.009765624999999986,16.855468749999975,0)" xlink:href="#D"/><use transform="matrix(0.009765624999999986,0,0,0.009765624999999986,27.16796874999996,0)" xlink:href="#R"/><use transform="matrix(0.009765624999999986,0,0,0.009765624999999986,36.19140624999995,0)" xlink:href="#S"/><use transform="matrix(0.009765624999999986,0,0,0.009765624999999986,41.04492187499994,0)" xlink:href="#L"/><use transform="matrix(0.009765624999999986,0,0,0.009765624999999986,52.45117187499993,0)" xlink:href="#T"/><use transform="matrix(0.009765624999999986,0,0,0.009765624999999986,63.67187499999992,0)" xlink:href="#R"/><use transform="matrix(0.009765624999999986,0,0,0.009765624999999986,72.6953124999999,0)" xlink:href="#E"/><use transform="matrix(0.009765624999999986,0,0,0.009765624999999986,87.72460937499989,0)" xlink:href="#F"/><use transform="matrix(0.009765624999999986,0,0,0.009765624999999986,94.49218749999987,0)" xlink:href="#G"/><use transform="matrix(0.009765624999999986,0,0,0.009765624999999986,99.34570312499986,0)" xlink:href="#H"/><use transform="matrix(0.009765624999999986,0,0,0.009765624999999986,105.87890624999984,0)" xlink:href="#I"/></g><path fill="#333" d="M1240-945c-141 0-250 95-250 227V0H804v-709c0-157-77-236-231-236-121 0-204 52-249 155V0H139v-1082h175l5 120c79-93 186-140 321-140 151 0 254 58 309 174 69-98 181-174 345-174 237 0 362 126 362 377V0h-185v-714c-2-159-67-231-231-231" id="U"/><g id="g"><use transform="matrix(0.009765624999999986,0,0,0.009765624999999986,0,0)" xlink:href="#B"/><use transform="matrix(0.009765624999999986,0,0,0.009765624999999986,9.912109374999986,0)" xlink:href="#G"/><use transform="matrix(0.009765624999999986,0,0,0.009765624999999986,14.765624999999979,0)" xlink:href="#S"/><use transform="matrix(0.009765624999999986,0,0,0.009765624999999986,19.61914062499997,0)" xlink:href="#R"/><use transform="matrix(0.009765624999999986,0,0,0.009765624999999986,28.64257812499996,0)" xlink:href="#Q"/><use transform="matrix(0.009765624999999986,0,0,0.009765624999999986,39.11132812499994,0)" xlink:href="#L"/><use transform="matrix(0.009765624999999986,0,0,0.009765624999999986,50.51757812499993,0)" xlink:href="#U"/><use transform="matrix(0.009765624999999986,0,0,0.009765624999999986,68.0468749999999,0)" xlink:href="#U"/><use transform="matrix(0.009765624999999986,0,0,0.009765624999999986,85.57617187499987,0)" xlink:href="#G"/><use transform="matrix(0.009765624999999986,0,0,0.009765624999999986,90.42968749999986,0)" xlink:href="#H"/></g><g id="h"><use transform="matrix(0.009765624999999986,0,0,0.009765624999999986,0,0)" xlink:href="#C"/><use transform="matrix(0.009765624999999986,0,0,0.009765624999999986,6.94335937499999,0)" xlink:href="#G"/><use transform="matrix(0.009765624999999986,0,0,0.009765624999999986,11.796874999999984,0)" xlink:href="#S"/><use transform="matrix(0.009765624999999986,0,0,0.009765624999999986,16.650390624999975,0)" xlink:href="#S"/></g><g id="i"><use transform="matrix(0.009765624999999986,0,0,0.009765624999999986,0,0)" xlink:href="#Q"/><use transform="matrix(0.009765624999999986,0,0,0.009765624999999986,10.468749999999986,0)" xlink:href="#L"/><use transform="matrix(0.009765624999999986,0,0,0.009765624999999986,21.87499999999997,0)" xlink:href="#U"/><use transform="matrix(0.009765624999999986,0,0,0.009765624999999986,39.40429687499994,0)" xlink:href="#U"/><use transform="matrix(0.009765624999999986,0,0,0.009765624999999986,56.93359374999992,0)" xlink:href="#G"/><use transform="matrix(0.009765624999999986,0,0,0.009765624999999986,61.7871093749999,0)" xlink:href="#H"/></g><g id="j"><use transform="matrix(0.009765624999999986,0,0,0.009765624999999986,0,0)" xlink:href="#S"/><use transform="matrix(0.009765624999999986,0,0,0.009765624999999986,4.853515624999993,0)" xlink:href="#G"/><use transform="matrix(0.009765624999999986,0,0,0.009765624999999986,9.707031249999986,0)" xlink:href="#D"/><use transform="matrix(0.009765624999999986,0,0,0.009765624999999986,20.01953124999997,0)" xlink:href="#H"/></g><g id="k"><use transform="matrix(0.009765624999999986,0,0,0.009765624999999986,0,0)" xlink:href="#E"/><use transform="matrix(0.009765624999999986,0,0,0.009765624999999986,15.029296874999979,0)" xlink:href="#O"/><use transform="matrix(0.009765624999999986,0,0,0.009765624999999986,25.908203124999964,0)" xlink:href="#G"/><use transform="matrix(0.009765624999999986,0,0,0.009765624999999986,30.761718749999957,0)" xlink:href="#H"/></g><g id="l"><use transform="matrix(0.009765624999999986,0,0,0.009765624999999986,0,0)" xlink:href="#C"/><use transform="matrix(0.009765624999999986,0,0,0.009765624999999986,6.94335937499999,0)" xlink:href="#L"/><use transform="matrix(0.009765624999999986,0,0,0.009765624999999986,18.349609374999975,0)" xlink:href="#F"/></g><path fill="#333" d="M491 20c-241-1-355-148-355-398v-704h185v699c0 164 67 246 200 246 141 0 235-53 282-158v-787h185V0H812l-4-107C736-22 630 20 491 20" id="V"/><g id="m"><use transform="matrix(0.009765624999999986,0,0,0.009765624999999986,0,0)" xlink:href="#G"/><use transform="matrix(0.009765624999999986,0,0,0.009765624999999986,4.853515624999993,0)" xlink:href="#D"/><use transform="matrix(0.009765624999999986,0,0,0.009765624999999986,15.166015624999979,0)" xlink:href="#D"/><use transform="matrix(0.009765624999999986,0,0,0.009765624999999986,25.478515624999964,0)" xlink:href="#V"/><use transform="matrix(0.009765624999999986,0,0,0.009765624999999986,36.50390624999995,0)" xlink:href="#I"/><use transform="matrix(0.009765624999999986,0,0,0.009765624999999986,47.099609374999936,0)" xlink:href="#M"/></g><path fill="#333" d="M362-157h690V0H169v-1456h193v1299" id="W"/><path fill="#333" d="M483-459l28 192 41-173 288-1016h162l281 1016 40 176 31-196 226-996h193L1420 0h-175L945-1061l-23-111-23 111L588 0H413L61-1456h192" id="X"/><path fill="#333" d="M1160-420C1159-145 963 0 674 0H169v-1456h476c294-1 476 112 476 388 0 153-99 253-216 302 146 38 255 167 255 346zM678-157c171 2 289-95 289-261 0-175-95-263-286-263H361v524h317zm250-912c-2-172-104-229-283-229H361v463h290c157 3 278-84 277-234" id="Y"/><g id="n"><use transform="matrix(0.009765624999999986,0,0,0.009765624999999986,0,0)" xlink:href="#W"/><use transform="matrix(0.009765624999999986,0,0,0.009765624999999986,9.365234374999986,0)" xlink:href="#X"/><use transform="matrix(0.009765624999999986,0,0,0.009765624999999986,27.10937499999996,0)" xlink:href="#Y"/></g><path fill="#333" d="M313-157h833V0H86v-144l798-1154H99v-158h1015v141" id="Z"/><path fill="#333" d="M375 0H183v-1456h192V0" id="aa"/><path fill="#333" d="M703-1476c426 0 599 333 586 795-11 408-187 701-584 701-422 0-587-333-587-793 0-282 106-507 280-617 89-56 190-86 305-86zm2 1333c312 0 393-279 393-632 0-308-116-536-395-536-269 0-394 232-394 523v107c-4 298 123 538 396 538" id="ab"/><g id="o"><use transform="matrix(0.009765624999999986,0,0,0.009765624999999986,0,0)" xlink:href="#Z"/><use transform="matrix(0.009765624999999986,0,0,0.009765624999999986,11.972656249999982,0)" xlink:href="#aa"/><use transform="matrix(0.009765624999999986,0,0,0.009765624999999986,17.412109374999975,0)" xlink:href="#ab"/></g><path fill="#333" d="M319-664C304-226 428 158 661 357l-38 113c-89-49-172-133-254-248C142-97 71-578 194-1025c67-244 240-513 429-618l38 122c-201 153-330 502-342 857" id="ac"/><path fill="#333" d="M38 357C331 141 457-487 337-984c-53-219-157-429-299-546l39-113c190 106 362 378 431 621 75 268 76 597 0 868C440 88 266 365 77 470" id="ad"/><g id="p"><use transform="matrix(0.009765624999999986,0,0,0.009765624999999986,0,0)" xlink:href="#ac"/><use transform="matrix(0.009765624999999986,0,0,0.009765624999999986,6.83593749999999,0)" xlink:href="#Q"/><use transform="matrix(0.009765624999999986,0,0,0.009765624999999986,17.304687499999975,0)" xlink:href="#J"/><use transform="matrix(0.009765624999999986,0,0,0.009765624999999986,26.99218749999996,0)" xlink:href="#R"/><use transform="matrix(0.009765624999999986,0,0,0.009765624999999986,36.01562499999995,0)" xlink:href="#E"/><use transform="matrix(0.009765624999999986,0,0,0.009765624999999986,51.04492187499993,0)" xlink:href="#O"/><use transform="matrix(0.009765624999999986,0,0,0.009765624999999986,61.923828124999915,0)" xlink:href="#G"/><use transform="matrix(0.009765624999999986,0,0,0.009765624999999986,66.77734374999991,0)" xlink:href="#H"/><use transform="matrix(0.009765624999999986,0,0,0.009765624999999986,73.3105468749999,0)" xlink:href="#ad"/></g><g id="q"><use transform="matrix(0.009765624999999986,0,0,0.009765624999999986,0,0)" xlink:href="#W"/><use transform="matrix(0.009765624999999986,0,0,0.009765624999999986,9.365234374999986,0)" xlink:href="#X"/><use transform="matrix(0.009765624999999986,0,0,0.009765624999999986,27.10937499999996,0)" xlink:href="#Y"/></g><g id="r"><use transform="matrix(0.009765624999999986,0,0,0.009765624999999986,0,0)" xlink:href="#H"/><use transform="matrix(0.009765624999999986,0,0,0.009765624999999986,6.533203124999991,0)" xlink:href="#G"/><use transform="matrix(0.009765624999999986,0,0,0.009765624999999986,11.386718749999984,0)" xlink:href="#U"/><use transform="matrix(0.009765624999999986,0,0,0.009765624999999986,28.916015624999957,0)" xlink:href="#I"/><use transform="matrix(0.009765624999999986,0,0,0.009765624999999986,39.51171874999994,0)" xlink:href="#L"/><use transform="matrix(0.009765624999999986,0,0,0.009765624999999986,50.91796874999993,0)" xlink:href="#V"/><use transform="matrix(0.009765624999999986,0,0,0.009765624999999986,61.943359374999915,0)" xlink:href="#H"/></g><g id="s"><use transform="matrix(0.009765624999999986,0,0,0.009765624999999986,0,0)" xlink:href="#ac"/><use transform="matrix(0.009765624999999986,0,0,0.009765624999999986,6.83593749999999,0)" xlink:href="#Q"/><use transform="matrix(0.009765624999999986,0,0,0.009765624999999986,17.304687499999975,0)" xlink:href="#J"/><use transform="matrix(0.009765624999999986,0,0,0.009765624999999986,26.99218749999996,0)" xlink:href="#R"/><use transform="matrix(0.009765624999999986,0,0,0.009765624999999986,36.01562499999995,0)" xlink:href="#H"/><use transform="matrix(0.009765624999999986,0,0,0.009765624999999986,42.548828124999936,0)" xlink:href="#G"/><use transform="matrix(0.009765624999999986,0,0,0.009765624999999986,47.402343749999936,0)" xlink:href="#U"/><use transform="matrix(0.009765624999999986,0,0,0.009765624999999986,64.93164062499991,0)" xlink:href="#I"/><use transform="matrix(0.009765624999999986,0,0,0.009765624999999986,75.5273437499999,0)" xlink:href="#M"/><use transform="matrix(0.009765624999999986,0,0,0.009765624999999986,86.8066406249999,0)" xlink:href="#E"/><use transform="matrix(0.009765624999999986,0,0,0.009765624999999986,101.83593749999986,0)" xlink:href="#O"/><use transform="matrix(0.009765624999999986,0,0,0.009765624999999986,112.71484374999984,0)" xlink:href="#G"/><use transform="matrix(0.009765624999999986,0,0,0.009765624999999986,117.56835937499983,0)" xlink:href="#H"/><use transform="matrix(0.009765624999999986,0,0,0.009765624999999986,124.10156249999983,0)" xlink:href="#ad"/></g><path fill="#333" d="M589-945c-131 0-219 81-264 174V0H140v-1536h185v585c82-101 189-151 320-151 229 0 346 129 346 387V0H806v-716c-2-153-65-229-217-229" id="ae"/><g id="t"><use transform="matrix(0.009765624999999986,0,0,0.009765624999999986,0,0)" xlink:href="#L"/><use transform="matrix(0.009765624999999986,0,0,0.009765624999999986,11.406249999999984,0)" xlink:href="#H"/><use transform="matrix(0.009765624999999986,0,0,0.009765624999999986,17.939453124999975,0)" xlink:href="#ae"/><use transform="matrix(0.009765624999999986,0,0,0.009765624999999986,28.955078124999957,0)" xlink:href="#I"/><use transform="matrix(0.009765624999999986,0,0,0.009765624999999986,39.55078124999994,0)" xlink:href="#F"/></g><g id="u"><use transform="matrix(0.009765624999999986,0,0,0.009765624999999986,0,0)" xlink:href="#L"/><use transform="matrix(0.009765624999999986,0,0,0.009765624999999986,11.259765624999984,0)" xlink:href="#J"/><use transform="matrix(0.009765624999999986,0,0,0.009765624999999986,20.82031249999997,0)" xlink:href="#I"/><use transform="matrix(0.009765624999999986,0,0,0.009765624999999986,31.416015624999954,0)" xlink:href="#F"/><use transform="matrix(0.009765624999999986,0,0,0.009765624999999986,38.18359374999995,0)" xlink:href="#ae"/><use transform="matrix(0.009765624999999986,0,0,0.009765624999999986,49.199218749999936,0)" xlink:href="#I"/><use transform="matrix(0.009765624999999986,0,0,0.009765624999999986,59.79492187499992,0)" xlink:href="#O"/><use transform="matrix(0.009765624999999986,0,0,0.009765624999999986,70.6738281249999,0)" xlink:href="#M"/></g><g id="v"><use transform="matrix(0.008680555555555556,0,0,0.008680555555555556,0,0)" xlink:href="#O"/><use transform="matrix(0.008680555555555556,0,0,0.008680555555555556,9.67013888888889,0)" xlink:href="#D"/><use transform="matrix(0.008680555555555556,0,0,0.008680555555555556,18.836805555555557,0)" xlink:href="#P"/><use transform="matrix(0.008680555555555556,0,0,0.008680555555555556,27.248263888888893,0)" xlink:href="#K"/><use transform="matrix(0.008680555555555556,0,0,0.008680555555555556,37.05729166666667,0)" xlink:href="#Q"/></g><path fill="#333" d="M1175-1298H707V0H516v-1298H49v-158h1126v158" id="af"/><path fill="#333" d="M644-898l349-558h226L759-734 1230 0h-228L644-568 284 0H57l472-734-461-722h225" id="ag"/><g id="w"><use transform="matrix(0.008680555555555556,0,0,0.008680555555555556,0,0)" xlink:href="#aa"/><use transform="matrix(0.008680555555555556,0,0,0.008680555555555556,4.583333333333334,0)" xlink:href="#af"/><use transform="matrix(0.008680555555555556,0,0,0.008680555555555556,15.190972222222223,0)" xlink:href="#ag"/></g><path fill="#333" d="M525-543H37v-151h488v151" id="ah"/><g id="x"><use transform="matrix(0.008680555555555556,0,0,0.008680555555555556,0,0)" xlink:href="#Z"/><use transform="matrix(0.008680555555555556,0,0,0.008680555555555556,10.64236111111111,0)" xlink:href="#aa"/><use transform="matrix(0.008680555555555556,0,0,0.008680555555555556,15.477430555555555,0)" xlink:href="#W"/><use transform="matrix(0.008680555555555556,0,0,0.008680555555555556,25.04340277777778,0)" xlink:href="#ah"/><use transform="matrix(0.008680555555555556,0,0,0.008680555555555556,29.947916666666668,0)" xlink:href="#W"/><use transform="matrix(0.008680555555555556,0,0,0.008680555555555556,38.27256944444444,0)" xlink:href="#X"/><use transform="matrix(0.008680555555555556,0,0,0.008680555555555556,54.04513888888889,0)" xlink:href="#Y"/></g><g id="y"><use transform="matrix(0.008680555555555556,0,0,0.008680555555555556,0,0)" xlink:href="#L"/><use transform="matrix(0.008680555555555556,0,0,0.008680555555555556,10.13888888888889,0)" xlink:href="#K"/><use transform="matrix(0.008680555555555556,0,0,0.008680555555555556,19.947916666666668,0)" xlink:href="#S"/><use transform="matrix(0.008680555555555556,0,0,0.008680555555555556,24.26215277777778,0)" xlink:href="#P"/></g><g id="z"><use transform="matrix(0.008680555555555556,0,0,0.008680555555555556,0,0)" xlink:href="#U"/><use transform="matrix(0.008680555555555556,0,0,0.008680555555555556,15.581597222222223,0)" xlink:href="#I"/><use transform="matrix(0.008680555555555556,0,0,0.008680555555555556,25,0)" xlink:href="#O"/><use transform="matrix(0.008680555555555556,0,0,0.008680555555555556,34.670138888888886,0)" xlink:href="#D"/><use transform="matrix(0.008680555555555556,0,0,0.008680555555555556,43.83680555555556,0)" xlink:href="#V"/><use transform="matrix(0.008680555555555556,0,0,0.008680555555555556,53.63715277777778,0)" xlink:href="#F"/><use transform="matrix(0.008680555555555556,0,0,0.008680555555555556,59.48784722222222,0)" xlink:href="#I"/><use transform="matrix(0.008680555555555556,0,0,0.008680555555555556,68.90625,0)" xlink:href="#M"/></g><g id="A"><use transform="matrix(0.008680555555555556,0,0,0.008680555555555556,0,0)" xlink:href="#M"/><use transform="matrix(0.008680555555555556,0,0,0.008680555555555556,10.026041666666668,0)" xlink:href="#I"/><use transform="matrix(0.008680555555555556,0,0,0.008680555555555556,19.444444444444446,0)" xlink:href="#F"/><use transform="matrix(0.008680555555555556,0,0,0.008680555555555556,25.460069444444446,0)" xlink:href="#G"/><use transform="matrix(0.008680555555555556,0,0,0.008680555555555556,29.774305555555557,0)" xlink:href="#J"/><use transform="matrix(0.008680555555555556,0,0,0.008680555555555556,38.27256944444444,0)" xlink:href="#I"/><use transform="matrix(0.008680555555555556,0,0,0.008680555555555556,47.69097222222222,0)" xlink:href="#M"/></g></defs></g></svg>