<svg xmlns="http://www.w3.org/2000/svg" xmlns:xlink="http://www.w3.org/1999/xlink" xmlns:lucid="lucid" width="775.36" height="814.5"><g transform="translate(-235.6445312500002 -9119.889111429518)" lucid:page-tab-id="wVeFyTs_.SeO"><path d="M443.4 9139.9h535.68v40h-535.7z" stroke="#202124" fill="#fff"/><use xlink:href="#a" transform="matrix(1,0,0,1,448.3890153043786,9144.889111429518) translate(245.32421875000003 22.30468749999997)"/><path d="M438.57 9220H840v40H438.57z" stroke="#202124" fill="#fff"/><use xlink:href="#b" transform="matrix(1,0,0,1,443.5668527797939,9225) translate(181.91308593750003 22.30468749999997)"/><path d="M856.57 9220h122.5v40h-122.5z" stroke="#202124" fill="#fff"/><use xlink:href="#c" transform="matrix(1,0,0,1,861.5650590730231,9225) translate(30.420898437500043 22.30468749999997)"/><path d="M438.57 9260h161.7v40h-161.7z" stroke="#202124" fill="#fff"/><use xlink:href="#d" transform="matrix(1,0,0,1,443.566852779794,9265) translate(61.18554687500003 22.30468749999997)"/><path d="M621.24 9260H840v40H621.24z" stroke="#202124" fill="#fff"/><use xlink:href="#e" transform="matrix(1,0,0,1,626.2449236268071,9265) translate(61.05273437500007 22.30468749999997)"/><use xlink:href="#f" transform="matrix(1,0,0,1,626.2449236268071,9265) translate(94.17773437500001 22.30468749999997)"/><path d="M543.93 9340h155.42v40H543.93z" stroke="#202124" fill="#fff"/><use xlink:href="#g" transform="matrix(1,0,0,1,548.9258741649513,9345) translate(26.701171875000078 22.30468749999997)"/><path d="M749.53 9340h155.42v40H749.53z" stroke="#202124" fill="#fff"/><use xlink:href="#h" transform="matrix(1,0,0,1,754.5282284326653,9345) translate(36.37402343750006 22.30468749999997)"/><path d="M543.93 9400h155.42v40H543.93z" stroke="#202124" fill="#fff"/><use xlink:href="#i" transform="matrix(1,0,0,1,548.9258741649513,9405) translate(53.93261718750003 22.30468749999997)"/><path d="M465.64 9540H785.7v40H465.65z" stroke="#202124" fill="#fff"/><use xlink:href="#j" transform="matrix(1,0,0,1,470.6367531955628,9545) translate(136.80859375000003 22.30468749999997)"/><path d="M466.45 9600h89.78v40h-89.78z" stroke="#202124" fill="#fff"/><use xlink:href="#k" transform="matrix(1,0,0,1,471.4493119249348,9605) translate(11.884765625000043 22.30468749999997)"/><path d="M580.23 9600H670v40h-89.77z" stroke="#202124" fill="#fff"/><use xlink:href="#k" transform="matrix(1,0,0,1,585.2300187050837,9605) translate(11.884765625000043 22.30468749999997)"/><path d="M696.35 9600h89.78v40h-89.78z" stroke="#202124" fill="#fff"/><use xlink:href="#k" transform="matrix(1,0,0,1,701.3484067263661,9605) translate(11.884765625000043 22.30468749999997)"/><path d="M538.82 9680h188.22v40H538.82z" stroke="#202124" fill="#fff"/><use xlink:href="#l" transform="matrix(1,0,0,1,543.8232905320244,9685) translate(18.591796875000114 22.30468749999997)"/><use xlink:href="#m" transform="matrix(1,0,0,1,543.8232905320244,9685) translate(82.44921875 22.30468749999997)"/><path d="M440.6 9760h383.6v40H440.6z" stroke="#202124" fill="#fff"/><use xlink:href="#n" transform="matrix(1,0,0,1,445.61336935453323,9765) translate(127.4736328125001 22.30468749999997)"/><path d="M440.9 9874.38H980v40H440.9z" stroke="#202124" fill="#fff"/><use xlink:href="#o" transform="matrix(1,0,0,1,445.893542918787,9879.384178204617) translate(240.60058593750003 22.30468749999997)"/><path d="M840.75 9820H980v40H840.75z" stroke="#202124" fill="#fff"/><use xlink:href="#p" transform="matrix(1,0,0,1,845.7500192432553,9825) translate(8.071289062500092 22.30468749999997)"/><use xlink:href="#q" transform="matrix(1,0,0,1,845.7500192432553,9825) translate(61.6845703125 22.30468749999997)"/><path d="M872.17 9500H940v40h-67.83z" stroke="#202124" fill="#fff"/><use xlink:href="#r" transform="matrix(1,0,0,1,877.1652283875262,9505) translate(13.418945312500025 22.30468749999997)"/><path d="M440.9 9680h97.44v40H440.9z" stroke="#202124" fill="#fff"/><use xlink:href="#s" transform="matrix(1,0,0,1,445.8935429187869,9685) translate(11.571614583333414 20.119791666666636)"/><use xlink:href="#t" transform="matrix(1,0,0,1,445.8935429187869,9685) translate(48.16015624999999 20.119791666666636)"/><path d="M727.04 9680h97.45v40h-97.46z" stroke="#202124" fill="#fff"/><use xlink:href="#s" transform="matrix(1,0,0,1,732.042286060399,9685) translate(11.571614583333414 20.119791666666636)"/><use xlink:href="#t" transform="matrix(1,0,0,1,732.042286060399,9685) translate(48.16015624999999 20.119791666666636)"/><path d="M490.12 9759h-1v-8.58h1zm0-29.42h-1V9721h1zM490.12 9721h-1v-.5h1zM490.12 9759.5h-1v-.5h1z" fill="#202124"/><use xlink:href="#u" transform="matrix(1,0,0,1,477.404958791757,9729.58362583041) translate(0.005000000000000782 16.493055555555557)"/><path d="M776.27 9759h-1v-8.58h1zm0-29.42h-1V9721h1zM776.27 9721h-1v-.5h1zM776.27 9759.5h-1v-.5h1z" fill="#202124"/><use xlink:href="#u" transform="matrix(1,0,0,1,763.5537019333693,9729.58362583041) translate(0.005000000000000782 16.493055555555557)"/><path d="M632.9 9759h-1v-8.58h1zm0-29.42h-1V9721h1zM632.9 9759.5h-1v-.5h1zM632.9 9721h-1v-.5h1z" fill="#202124"/><use xlink:href="#v" transform="matrix(1,0,0,1,610.0515876904433,9729.583040836258) translate(0.004999999999999005 16.493055555555557)"/><path d="M730.15 9300.67l-108.04 38.66" stroke="#202124" fill="none"/><path d="M730.3 9301.14l-.22-.64h2.03zM622.18 9339.5h-2.03l1.8-.64z" fill="#202124"/><path d="M731.1 9300.7l95.67 38.6" stroke="#202124" fill="none"/><path d="M730.9 9301.16l-1.6-.66h1.88zM828.57 9339.5h-1.88l.25-.66z" fill="#202124"/><path d="M621.64 9381v18" stroke="#202124" fill="none"/><path d="M622.14 9381h-1v-.5h1zM622.14 9399.5h-1v-.5h1z" fill="#202124"/><path d="M620 9440.67v98.83M620 9440.68v-.5M620 9539.5v.5M714.78 9480.68l-93.65 59.05M714.77 9480.7l.44-.28M621.14 9539.73l-.43.27M777 9440.48l-4.13 2.67m-4.13 2.67l-8.27 5.34m-4.14 2.67l-8.27 5.34m-4.13 2.68l-8.27 5.34m-4.13 2.66l-8.27 5.34m-4.14 2.67l-4.13 2.67M777 9440.5l.43-.3M715 9480.53l-.43.28M526.6 9482.73l93.68 56.3M526.6 9482.74l-.44-.27M620.27 9539.03l.44.26M458.15 9440.26l4.6 2.86m4.6 2.85l9.2 5.7m4.6 2.86l9.2 5.7m4.58 2.87l9.2 5.7m4.6 2.86l9.2 5.7m4.6 2.86l4.6 2.86" stroke="#202124" fill="none"/><path d="M457.9 9440.7l-1.12-.7h1.55z" fill="#202124"/><path d="M527.1 9483.07l.45.27" stroke="#202124" fill="none"/><path d="M430.56 9400h33.2v40h-33.2z" stroke="#000" stroke-opacity="0" fill="#fff" fill-opacity="0"/><use xlink:href="#w" transform="matrix(1,0,0,1,435.5607614391864,9405) translate(5.24495442708334 22.677951388888864)"/><path d="M765.6 9400h33.2v40h-33.2z" stroke="#000" stroke-opacity="0" fill="#fff" fill-opacity="0"/><use xlink:href="#x" transform="matrix(1,0,0,1,770.6052701884093,9405) translate(6.473144531250009 22.30468749999997)"/><path d="M827.5 9380.92l78.3 118.16" stroke="#202124" fill="none"/><path d="M827.94 9380.65l-.84.55-.46-.7h1.2zM906.68 9499.5h-1.2l-.1-.15.84-.55z" fill="#202124"/><path d="M932.13 9419.25l-25.73 79.77M932.13 9419.27l.15-.5" stroke="#202124" fill="none"/><path d="M906.88 9499.17l-.1.33h-1.06l.2-.64z" fill="#202124"/><path d="M944.52 9378.97l-1.44 4.68m-1.44 4.67l-2.88 9.35m-1.43 4.67l-2.88 9.35m-1.44 4.66l-2.86 9.35m-1.44 4.68l-1.44 4.67M944.5 9378.98l.16-.5M927.27 9435.04l-.15.5" stroke="#202124" fill="none"/><path d="M927.38 9340.07h33.2v40h-33.2z" stroke="#000" stroke-opacity="0" fill="#fff" fill-opacity="0"/><use xlink:href="#y" transform="matrix(1,0,0,1,932.3767451098149,9345.066009079903) translate(6.473144531250009 22.30468749999997)"/><path d="M920.15 9260.48l24.22 79.1M920.15 9260.5l-.15-.5" stroke="#202124" fill="none"/><path d="M945.04 9340.07H944l-.1-.35.95-.3z" fill="#202124"/><path d="M847.16 9671.56h57.8v56.88h-57.8z" stroke="#202124" fill="#fff"/><use xlink:href="#z" transform="matrix(1,0,0,1,852.1599208060095,9676.5625) translate(-0.04296874999996447 18.617187500000007)"/><use xlink:href="#A" transform="matrix(1,0,0,1,852.1599208060095,9676.5625) translate(8.282226562500025 42.05468749999997)"/><path d="M921.3 9671.56h57.78v56.88h-57.8z" stroke="#202124" fill="#fff"/><use xlink:href="#z" transform="matrix(1,0,0,1,926.2946390858635,9676.5625) translate(-0.04296874999996447 18.617187500000007)"/><use xlink:href="#A" transform="matrix(1,0,0,1,926.2946390858635,9676.5625) translate(8.282226562500025 42.05468749999997)"/><path d="M876.65 9670.7l-.97-.24 12.48-54.26h1.03zm29.8-129.6L894 9595.36h-1.03l12.53-54.48z" fill="#202124"/><path d="M906.45 9541.1l-.97-.2.1-.4h1.02zM876.66 9670.67l-.1.4h-1.02l.14-.62z" fill="#202124"/><use xlink:href="#u" transform="matrix(1,0,0,1,878.8549244137538,9595.364583333334) translate(0.005000000000000782 16.493055555555557)"/><path d="M950.5 9670.43l-.94.32-18.43-54.55h1.05zm-25.36-75.07h-1.05l-18.33-54.23.95-.32z" fill="#202124"/><path d="M906.72 9540.83l-.95.32-.22-.65h1.06zM950.72 9671.06h-1.06l-.1-.32.94-.32z" fill="#202124"/><use xlink:href="#u" transform="matrix(1,0,0,1,915.9222835536808,9595.364583333334) translate(0.005000000000000782 16.493055555555557)"/><path d="M466.2 9639.73l72.68 40.03M466.2 9639.73l-.44-.24M538.87 9679.75l.45.25M785.9 9640.36l-58 39.2M785.9 9640.36l.43-.28M727.92 9679.55l-.43.3M625.18 9580.58l-113.35 18.84" stroke="#202124" fill="none"/><path d="M628.72 9580.5l-3.47.58-.1-.58h3.57zM511.86 9599.5h-3.56l3.46-.58z" fill="#202124"/><path d="M625.67 9581v18" stroke="#202124" fill="none"/><path d="M626.17 9581h-1v-.5h1zM626.17 9599.5h-1v-.5h1z" fill="#202124"/><path d="M626.17 9580.58l114.58 18.84" stroke="#202124" fill="none"/><path d="M626.1 9581.08l-3.47-.57h3.56zM744.28 9599.5h-3.56l.1-.58z" fill="#202124"/><path d="M440.6 9820h383.6v40H440.6z" stroke="#202124" fill="#fff"/><use xlink:href="#B" transform="matrix(1,0,0,1,445.61336935453323,9825) translate(134.87597656250009 22.30468749999997)"/><use xlink:href="#C" transform="matrix(1,0,0,1,445.61336935453323,9825) translate(189.1923828125 22.30468749999997)"/><path d="M632.4 9819v-18" stroke="#202124" fill="none"/><path d="M632.9 9819.5h-1v-.5h1zM632.9 9801h-1v-.5h1z" fill="#202124"/><path d="M910.2 9819.03l-33.45-89.62" stroke="#202124" fill="none"/><path d="M910.9 9819.5h-1.06l-.1-.3.92-.36zM877.22 9729.24l-.94.35-.24-.66h1.07z" fill="#202124"/><path d="M910.58 9819.04l39.2-89.64" stroke="#202124" fill="none"/><path d="M911.04 9819.23l-.12.27h-1.1l.3-.67zM950.22 9729.6l-.9-.4.1-.26h1.1z" fill="#202124"/><path d="M280 9160h112.14v80H280z" stroke="#000" stroke-opacity="0" stroke-width="2" fill="#fff" fill-opacity="0"/><use xlink:href="#D" transform="matrix(1,0,0,1,285,9165) translate(32.9121093750001 29.492187499999975)"/><use xlink:href="#E" transform="matrix(1,0,0,1,285,9165) translate(38.771484375000085 52.92968749999994)"/><use xlink:href="#F" transform="matrix(1,0,0,1,285,9165) translate(71.89648437500003 52.92968749999994)"/><path d="M399.1 9200h4.04m8.05 0h8.05m8.05 0h8.06m8.05 0h8.06m8.06 0h8.05m8.06 0h8.05m8.05 0h8.06m8.04 0h8.06m8.05 0H532m8.06 0h8.05m8.07 0h8.05m8.05 0h8.06m8.05 0h8.06m8.05 0h8.04m8.06 0h8.05m8.06 0h8.06m8.05 0h8.07m8.05 0h8.06m8.05 0h8.05m8.06 0h8.05m8.05 0h8.05m8.05 0h8.06m8.06 0h8.06m8.05 0h8.05m8.06 0h8.05m8.06 0h8.04m8.05 0h8.05m8.05 0h8.06m8.05 0h8.06m8.06 0h8.05m8.06 0h8.05m8.05 0h8.06m8.04 0h8.06m8.05 0h8.05m8.06 0h8.05m8.07 0h8.05m8.05 0H979M399.14 9200h-1.03M978.97 9200H980" stroke="#999" stroke-width="2" fill="none"/><path d="M260 9299.9h99.96v40.1H260z" stroke="#000" stroke-opacity="0" stroke-width="2" fill="#fff" fill-opacity="0"/><use xlink:href="#G" transform="matrix(1,0,0,1,265,9304.889111429402) translate(3.1054687500001137 22.429687499999975)"/><use xlink:href="#H" transform="matrix(1,0,0,1,265,9304.889111429402) translate(36.230468750000064 22.429687499999975)"/><path d="M365.82 9319.94h3.94m7.9 0h7.87m7.9 0h7.87m7.9 0h7.87m7.9 0h7.87m7.9 0h7.87m7.9 0h7.88m7.9 0h7.87m7.9 0h7.87m7.9 0h7.87m7.88 0h7.88m7.9 0h7.87m7.9 0H559m7.9 0h7.87m7.9 0h7.87m7.9 0h7.87m7.9 0h7.88m7.9 0h7.87m7.88 0h7.9m7.87 0h7.9m7.87 0h7.9m7.87 0h7.9m7.87 0h7.9m7.88 0h7.9m7.87 0h7.9m7.87 0h7.9m7.87 0h7.88m7.88 0h7.9m7.87 0h7.9m7.87 0h7.9m7.87 0h3.94M365.85 9319.94h-1.03M838.9 9319.94h1" stroke="#999" stroke-width="2" fill="none"/><path d="M260 9512.7h161.08v67.3H260z" stroke="#000" stroke-opacity="0" stroke-width="2" fill="#fff" fill-opacity="0"/><use xlink:href="#I" transform="matrix(1,0,0,1,265,9517.708333333334) translate(-7.355468749999801 24.117187500000007)"/><use xlink:href="#J" transform="matrix(1,0,0,1,265,9517.708333333334) translate(3.181640625000199 47.55468749999997)"/><use xlink:href="#K" transform="matrix(1,0,0,1,265,9517.708333333334) translate(35.574218750000156 47.55468749999997)"/><use xlink:href="#L" transform="matrix(1,0,0,1,265,9517.708333333334) translate(58.87500000000013 47.55468749999997)"/><use xlink:href="#M" transform="matrix(1,0,0,1,265,9517.708333333334) translate(91.30664062500009 47.55468749999997)"/><path d="M425.8 9551.15l3.92-.2m7.78-1.07l3-.7 3.5-1.14 1-.43m6.92-3.68l.9-.58 2.98-2.33 2.2-2.05m5.48-5.6l5.4-5.7m5.4-5.7l2.12-2.24 3.77-2.94m6.65-4.18l2.66-1.43 4.38-2.05m7.27-2.96l.06-.02 7.38-2.47m7.56-2.14l4.65-1.26 2.96-.63m7.7-1.63l2.57-.55 5.15-.8m7.77-1.2l1.08-.16 6.73-.66m7.83-.63l6.25-.26h1.6m7.85 0h7.85m7.86 0h7.86m7.86 0h7.86m7.85 0h7.86m7.85 0H649m7.86 0h7.86m7.85 0h7.86m7.85 0h7.86m7.86 0h7.85m7.86 0h3.94M425.83 9551.15l-1.03.05M723.6 9493.7h1.04" stroke="#999" stroke-width="2" fill="none"/><path d="M280 9580h135.58v160H280z" stroke="#000" stroke-opacity="0" stroke-width="2" fill="#fff" fill-opacity="0"/><g><use xlink:href="#N" transform="matrix(1,0,0,1,285,9585) translate(67.09375000000009 60.74218749999997)"/><use xlink:href="#O" transform="matrix(1,0,0,1,285,9585) translate(6.1562500000001705 84.17968749999994)"/><use xlink:href="#P" transform="matrix(1,0,0,1,285,9585) translate(70.33593750000009 107.61718749999991)"/></g><path d="M417 9660.22h4.06m8.14 0h8.13m8.13 0h8.14m8.13 0h8.14m8.13 0h8.13m8.14 0h8.13m8.13 0h8.14m8.13 0h8.14m8.13 0h8.13m8.14 0h8.13m8.14 0h8.14m8.13 0H600m8.14 0h8.13m8.14 0h8.14m8.14 0h8.13m8.14 0h8.14m8.13 0h8.15m8.13 0h8.13m8.15 0h8.13m8.13 0h8.15m8.13 0h8.14m8.13 0h8.13m8.14 0h4.06M417.02 9660.22H416M774.86 9660.22h1.02M261 9460h10.26m10.25 0h41m10.26 0h20.5m10.25 0h41m10.26 0h20.5m10.25 0h41m10.26 0h20.5m10.25 0h41m10.26 0h20.5m10.25 0h41m10.26 0h20.5m10.24 0h41m10.25 0h20.5m10.25 0h41m10.25 0h20.5m10.25 0h41m10.25 0h20.5m10.25 0h41m10.25 0H999M261.04 9460H260M998.97 9460h1.03" stroke="#999" stroke-width="2" fill="none"/><path d="M260 9420.58h184.64v40H260z" stroke="#000" stroke-opacity="0" fill="#fff" fill-opacity="0"/><g><use xlink:href="#Q" transform="matrix(1,0,0,1,265,9425.58234561208) translate(0 22.304687499999975)"/><use xlink:href="#R" transform="matrix(1,0,0,1,265,9425.58234561208) translate(33.53515624999996 22.304687499999975)"/></g><path d="M260 9460.58h183.6v40H260z" stroke="#000" stroke-opacity="0" fill="#fff" fill-opacity="0"/><g><use xlink:href="#Q" transform="matrix(1,0,0,1,265,9465.58234561208) translate(0 22.304687499999975)"/><use xlink:href="#S" transform="matrix(1,0,0,1,265,9465.58234561208) translate(33.53515624999996 22.304687499999975)"/></g><defs><path fill="#333" d="M313-157h833V0H86v-144l798-1154H99v-158h1015v141" id="T"/><path fill="#333" d="M1216-1011c-1 297-202 441-512 441H361V0H169v-1456h537c297-6 510 164 510 445zm-192 2c1-178-126-288-307-289H361v571h345c196 1 318-92 318-282" id="U"/><path fill="#333" d="M362-157h690V0H169v-1456h193v1299" id="V"/><g id="a"><use transform="matrix(0.009765624999999984,0,0,0.009765624999999984,0,0)" xlink:href="#T"/><use transform="matrix(0.009765624999999984,0,0,0.009765624999999984,11.97265624999998,0)" xlink:href="#U"/><use transform="matrix(0.009765624999999984,0,0,0.009765624999999984,24.58984374999996,0)" xlink:href="#V"/></g><path fill="#333" d="M375 0H183v-1456h192V0" id="W"/><g id="b"><use transform="matrix(0.009765624999999984,0,0,0.009765624999999984,0,0)" xlink:href="#T"/><use transform="matrix(0.009765624999999984,0,0,0.009765624999999984,11.97265624999998,0)" xlink:href="#W"/><use transform="matrix(0.009765624999999984,0,0,0.009765624999999984,17.41210937499997,0)" xlink:href="#V"/></g><path fill="#333" d="M561-1102c238-4 403 126 403 351v498c0 99 13 178 38 237V0H808c-11-21-19-59-26-114C696-25 593 20 474 20c-199 0-368-130-365-320 4-251 214-359 490-356h180v-85c-1-135-86-212-229-212-115 0-232 67-233 171H131c20-205 206-316 430-320zM294-326c0 117 90 185 207 185 122 0 239-75 278-162v-222H634c-227 0-340 66-340 199" id="X"/><path fill="#333" d="M538-131c121 0 232-49 232-156 0-50-20-88-56-117-73-60-334-92-420-143-92-55-162-110-162-238 0-190 192-317 400-317 223 0 414 129 413 338H759c0-108-110-186-227-186-119 0-215 53-215 159 0 45 18 78 53 101 76 52 331 90 416 139 98 57 169 115 169 251C955-92 760 20 538 20c-176 0-314-68-386-174-38-55-57-115-57-179h185c6 129 116 202 258 202" id="Y"/><path fill="#333" d="M494-271l252-811h198L509 167C425 381 299 474 84 421V271c167 16 242-37 283-173l41-110L22-1082h202" id="Z"/><path fill="#333" d="M589-945c-131 0-219 81-264 174V0H140v-1082h175l6 136c83-104 191-156 324-156 229 0 346 129 346 387V0H806v-716c-2-153-65-229-217-229" id="aa"/><path fill="#333" d="M277-555c0 244 77 420 297 424 127 2 249-93 255-210h175C980-127 805 20 574 20 258 20 81-222 92-562c11-319 164-533 481-540 237-5 426 165 431 392H829c-7-133-115-242-256-240-209 4-296 166-296 395" id="ab"/><g id="c"><use transform="matrix(0.009765624999999984,0,0,0.009765624999999984,0,0)" xlink:href="#X"/><use transform="matrix(0.009765624999999984,0,0,0.009765624999999984,10.878906249999982,0)" xlink:href="#Y"/><use transform="matrix(0.009765624999999984,0,0,0.009765624999999984,21.191406249999964,0)" xlink:href="#Z"/><use transform="matrix(0.009765624999999984,0,0,0.009765624999999984,30.65429687499995,0)" xlink:href="#aa"/><use transform="matrix(0.009765624999999984,0,0,0.009765624999999984,41.689453124999936,0)" xlink:href="#ab"/></g><path fill="#333" d="M1175-1298H707V0H516v-1298H49v-158h1126v158" id="ac"/><path fill="#333" d="M644-898l349-558h226L759-734 1230 0h-228L644-568 284 0H57l472-734-461-722h225" id="ad"/><g id="d"><use transform="matrix(0.009765624999999984,0,0,0.009765624999999984,0,0)" xlink:href="#W"/><use transform="matrix(0.009765624999999984,0,0,0.009765624999999984,5.15624999999999,0)" xlink:href="#ac"/><use transform="matrix(0.009765624999999984,0,0,0.009765624999999984,17.08984374999997,0)" xlink:href="#ad"/></g><g id="e"><use transform="matrix(0.009765624999999984,0,0,0.009765624999999984,0,0)" xlink:href="#T"/><use transform="matrix(0.009765624999999984,0,0,0.009765624999999984,11.97265624999998,0)" xlink:href="#W"/><use transform="matrix(0.009765624999999984,0,0,0.009765624999999984,17.41210937499997,0)" xlink:href="#V"/></g><path fill="#333" d="M497-251l268-831h189L566 0H425L33-1082h189" id="ae"/><path fill="#333" d="M456 20C285 20 205-92 206-268v-671H9v-143h197v-262h185v262h202v143H391v671c-9 125 92 149 207 118V0c-49 13-96 20-142 20" id="af"/><path fill="#333" d="M634-1102c292 0 422 254 422 573 0 298-143 547-420 549-137 0-242-48-317-145L310 0H140v-1536h185v573c75-93 178-139 309-139zm-44 965c207 0 281-175 281-413 0-224-79-395-283-395-122 0-210 57-263 170v468c57 113 145 170 265 170" id="ag"/><path fill="#333" d="M341 0H156v-1536h185V0" id="ah"/><path fill="#333" d="M599-131c141 0 220-65 285-146l113 88C906-50 770 20 589 20 281 21 93-214 93-545c0-223 93-397 233-485 74-48 154-72 240-72 300 2 449 218 445 537v77H278c0 197 129 357 321 357zm227-509c-3-180-88-310-260-310-170 0-264 140-282 310h542" id="ai"/><g id="f"><use transform="matrix(0.009765624999999984,0,0,0.009765624999999984,0,0)" xlink:href="#ae"/><use transform="matrix(0.009765624999999984,0,0,0.009765624999999984,9.687499999999984,0)" xlink:href="#af"/><use transform="matrix(0.009765624999999984,0,0,0.009765624999999984,16.22070312499997,0)" xlink:href="#X"/><use transform="matrix(0.009765624999999984,0,0,0.009765624999999984,27.099609374999954,0)" xlink:href="#ag"/><use transform="matrix(0.009765624999999984,0,0,0.009765624999999984,38.320312499999936,0)" xlink:href="#ah"/><use transform="matrix(0.009765624999999984,0,0,0.009765624999999984,43.17382812499993,0)" xlink:href="#ai"/></g><path fill="#333" d="M525-543H37v-151h488v151" id="aj"/><path fill="#333" d="M417-1456L893-268l476-1188h249V0h-192c-4-403 4-794 18-1179L966 0H819L342-1176c15 384 23 773 19 1176H169v-1456h248" id="ak"/><path fill="#333" d="M992-673H361v516h733V0H169v-1456h915v158H361v468h631v157" id="al"/><g id="g"><use transform="matrix(0.009765624999999984,0,0,0.009765624999999984,0,0)" xlink:href="#T"/><use transform="matrix(0.009765624999999984,0,0,0.009765624999999984,11.97265624999998,0)" xlink:href="#W"/><use transform="matrix(0.009765624999999984,0,0,0.009765624999999984,17.41210937499997,0)" xlink:href="#V"/><use transform="matrix(0.009765624999999984,0,0,0.009765624999999984,28.173828124999954,0)" xlink:href="#aj"/><use transform="matrix(0.009765624999999984,0,0,0.009765624999999984,33.69140624999994,0)" xlink:href="#U"/><use transform="matrix(0.009765624999999984,0,0,0.009765624999999984,46.30859374999993,0)" xlink:href="#ak"/><use transform="matrix(0.009765624999999984,0,0,0.009765624999999984,63.769531249999886,0)" xlink:href="#al"/><use transform="matrix(0.009765624999999984,0,0,0.009765624999999984,75.13671874999987,0)" xlink:href="#ak"/></g><path fill="#333" d="M483-459l28 192 41-173 288-1016h162l281 1016 40 176 31-196 226-996h193L1420 0h-175L945-1061l-23-111-23 111L588 0H413L61-1456h192" id="am"/><path fill="#333" d="M1160-420C1159-145 963 0 674 0H169v-1456h476c294-1 476 112 476 388 0 153-99 253-216 302 146 38 255 167 255 346zM678-157c171 2 289-95 289-261 0-175-95-263-286-263H361v524h317zm250-912c-2-172-104-229-283-229H361v463h290c157 3 278-84 277-234" id="an"/><g id="h"><use transform="matrix(0.009765624999999984,0,0,0.009765624999999984,0,0)" xlink:href="#T"/><use transform="matrix(0.009765624999999984,0,0,0.009765624999999984,11.97265624999998,0)" xlink:href="#W"/><use transform="matrix(0.009765624999999984,0,0,0.009765624999999984,17.41210937499997,0)" xlink:href="#V"/><use transform="matrix(0.009765624999999984,0,0,0.009765624999999984,28.173828124999954,0)" xlink:href="#aj"/><use transform="matrix(0.009765624999999984,0,0,0.009765624999999984,33.69140624999994,0)" xlink:href="#V"/><use transform="matrix(0.009765624999999984,0,0,0.009765624999999984,43.05664062499993,0)" xlink:href="#am"/><use transform="matrix(0.009765624999999984,0,0,0.009765624999999984,60.8007812499999,0)" xlink:href="#an"/></g><path fill="#333" d="M1288 0h-193v-673H361V0H169v-1456h192v626h734v-626h193V0" id="ao"/><path fill="#333" d="M1222-777c17 480-206 763-650 777H169v-1456h411c408 9 627 269 642 679zm-190 4c3-312-149-522-447-525H361v1141h202c308 0 473-209 469-531v-85" id="ap"/><g id="i"><use transform="matrix(0.009765624999999984,0,0,0.009765624999999984,0,0)" xlink:href="#ao"/><use transform="matrix(0.009765624999999984,0,0,0.009765624999999984,14.257812499999977,0)" xlink:href="#ap"/><use transform="matrix(0.009765624999999984,0,0,0.009765624999999984,27.373046874999957,0)" xlink:href="#V"/></g><path fill="#333" d="M1161-1018c0 201-122 330-278 388l342 618V0h-206L703-589H361V0H168v-1456h482c310-2 511 139 511 438zm-193 0c0-187-120-280-313-280H361v552h295c179 3 313-101 312-272" id="aq"/><g id="j"><use transform="matrix(0.009765624999999984,0,0,0.009765624999999984,0,0)" xlink:href="#U"/><use transform="matrix(0.009765624999999984,0,0,0.009765624999999984,12.61718749999998,0)" xlink:href="#aq"/><use transform="matrix(0.009765624999999984,0,0,0.009765624999999984,24.93164062499996,0)" xlink:href="#an"/></g><path fill="#333" d="M688-137c238 0 323-102 359-325h193c-32 297-228 482-552 482-361 0-569-299-569-680 0-197 8-360 73-497 88-186 257-317 513-319 316-2 509 195 535 488h-193c-31-212-118-330-342-330-272 0-397 224-393 523v141c-3 282 115 517 376 517" id="ar"/><path fill="#333" d="M589-945c-131 0-219 81-264 174V0H140v-1536h185v585c82-101 189-151 320-151 229 0 346 129 346 387V0H806v-716c-2-153-65-229-217-229" id="as"/><path fill="#333" d="M491 20c-241-1-355-148-355-398v-704h185v699c0 164 67 246 200 246 141 0 235-53 282-158v-787h185V0H812l-4-107C736-22 630 20 491 20" id="at"/><path fill="#333" d="M442-501L326-380V0H141v-1536h185v929c135-169 291-317 436-475h225L566-630 1036 0H819" id="au"/><g id="k"><use transform="matrix(0.009765624999999984,0,0,0.009765624999999984,0,0)" xlink:href="#ar"/><use transform="matrix(0.009765624999999984,0,0,0.009765624999999984,13.017578124999979,0)" xlink:href="#as"/><use transform="matrix(0.009765624999999984,0,0,0.009765624999999984,24.03320312499996,0)" xlink:href="#at"/><use transform="matrix(0.009765624999999984,0,0,0.009765624999999984,35.05859374999994,0)" xlink:href="#aa"/><use transform="matrix(0.009765624999999984,0,0,0.009765624999999984,46.09374999999993,0)" xlink:href="#au"/></g><g id="l"><use transform="matrix(0.009765624999999984,0,0,0.009765624999999984,0,0)" xlink:href="#U"/><use transform="matrix(0.009765624999999984,0,0,0.009765624999999984,12.61718749999998,0)" xlink:href="#ak"/><use transform="matrix(0.009765624999999984,0,0,0.009765624999999984,30.07812499999995,0)" xlink:href="#al"/><use transform="matrix(0.009765624999999984,0,0,0.009765624999999984,41.44531249999992,0)" xlink:href="#ak"/></g><path fill="#333" d="M1240-945c-141 0-250 95-250 227V0H804v-709c0-157-77-236-231-236-121 0-204 52-249 155V0H139v-1082h175l5 120c79-93 186-140 321-140 151 0 254 58 309 174 69-98 181-174 345-174 237 0 362 126 362 377V0h-185v-714c-2-159-67-231-231-231" id="av"/><path fill="#333" d="M632-1102c291 0 422 251 422 573 0 297-141 548-419 549-131 0-235-42-310-125v521H140v-1498h169l9 120c75-93 180-140 314-140zm-53 971c207 0 290-180 290-419 0-218-92-395-292-395-112 0-196 50-252 149v517c55 99 140 148 254 148" id="aw"/><path fill="#333" d="M341 0H156v-1082h185V0zm-91-1264c-68 0-108-42-109-105 0-62 41-107 109-107s110 44 110 107-42 105-110 105" id="ax"/><path fill="#333" d="M521 20C240 20 96-239 96-550c0-303 147-552 427-552 132 0 235 47 309 140l9-120h169V-26c4 277-183 454-459 452-165-1-334-81-400-187l96-111c79 98 176 147 291 147 180 1 288-109 286-290v-93C750-23 649 20 521 20zm48-965c-209 0-287 178-287 416 0 217 86 392 285 392 117 0 202-53 257-159v-494c-57-103-142-155-255-155" id="ay"/><g id="m"><use transform="matrix(0.009765624999999984,0,0,0.009765624999999984,0,0)" xlink:href="#av"/><use transform="matrix(0.009765624999999984,0,0,0.009765624999999984,17.52929687499997,0)" xlink:href="#X"/><use transform="matrix(0.009765624999999984,0,0,0.009765624999999984,28.408203124999954,0)" xlink:href="#aw"/><use transform="matrix(0.009765624999999984,0,0,0.009765624999999984,39.628906249999936,0)" xlink:href="#aw"/><use transform="matrix(0.009765624999999984,0,0,0.009765624999999984,50.84960937499992,0)" xlink:href="#ax"/><use transform="matrix(0.009765624999999984,0,0,0.009765624999999984,55.70312499999991,0)" xlink:href="#aa"/><use transform="matrix(0.009765624999999984,0,0,0.009765624999999984,66.73828124999989,0)" xlink:href="#ay"/></g><path fill="#333" d="M177 125H18l608-1581h158" id="az"/><path fill="#333" d="M520 20C244 20 95-247 95-550c0-298 151-550 427-552 127 0 227 43 301 130v-564h185V0H838l-9-116C755-25 652 20 520 20zm48-965c-210 0-288 177-288 416 0 218 87 392 286 392 117 0 203-53 257-158v-497c-55-102-140-153-255-153" id="aA"/><path fill="#333" d="M1288 0h-193L362-1122V0H169v-1456h193l735 1127v-1127h191V0" id="aB"/><g id="n"><use transform="matrix(0.009765624999999984,0,0,0.009765624999999984,0,0)" xlink:href="#az"/><use transform="matrix(0.009765624999999984,0,0,0.009765624999999984,8.242187499999988,0)" xlink:href="#aA"/><use transform="matrix(0.009765624999999984,0,0,0.009765624999999984,19.52148437499997,0)" xlink:href="#ai"/><use transform="matrix(0.009765624999999984,0,0,0.009765624999999984,29.990234374999954,0)" xlink:href="#ae"/><use transform="matrix(0.009765624999999984,0,0,0.009765624999999984,39.677734374999936,0)" xlink:href="#az"/><use transform="matrix(0.009765624999999984,0,0,0.009765624999999984,47.91992187499992,0)" xlink:href="#aw"/><use transform="matrix(0.009765624999999984,0,0,0.009765624999999984,59.14062499999989,0)" xlink:href="#av"/><use transform="matrix(0.009765624999999984,0,0,0.009765624999999984,76.66992187499987,0)" xlink:href="#ai"/><use transform="matrix(0.009765624999999984,0,0,0.009765624999999984,87.26562499999986,0)" xlink:href="#av"/><use transform="matrix(0.009765624999999984,0,0,0.009765624999999984,104.79492187499983,0)" xlink:href="#aB"/></g><path fill="#333" d="M314-151h633V0H88v-136l597-793H97v-153h820v131" id="aC"/><path fill="#333" d="M584 20C278 26 81-227 91-551c10-320 175-545 491-551 308-5 503 247 494 573-9 322-175 543-492 549zm-2-970c-208 0-305 185-305 421 0 216 106 398 307 398 211 0 307-186 307-420 0-214-109-399-309-399" id="aD"/><g id="o"><use transform="matrix(0.009765624999999984,0,0,0.009765624999999984,0,0)" xlink:href="#aC"/><use transform="matrix(0.009765624999999984,0,0,0.009765624999999984,9.912109374999984,0)" xlink:href="#aw"/><use transform="matrix(0.009765624999999984,0,0,0.009765624999999984,21.132812499999964,0)" xlink:href="#aD"/><use transform="matrix(0.009765624999999984,0,0,0.009765624999999984,32.53906249999994,0)" xlink:href="#aD"/><use transform="matrix(0.009765624999999984,0,0,0.009765624999999984,43.94531249999993,0)" xlink:href="#ah"/></g><path fill="#333" d="M703-1476c426 0 599 333 586 795-11 408-187 701-584 701-422 0-587-333-587-793 0-282 106-507 280-617 89-56 190-86 305-86zm2 1333c312 0 393-279 393-632 0-308-116-536-395-536-269 0-394 232-394 523v107c-4 298 123 538 396 538" id="aE"/><path fill="#333" d="M663-916c-163-27-288 18-338 148V0H140v-1082h180l3 125c61-97 147-145 258-145 36 0 63 5 82 14v172" id="aF"/><g id="p"><use transform="matrix(0.009765624999999984,0,0,0.009765624999999984,0,0)" xlink:href="#aE"/><use transform="matrix(0.009765624999999984,0,0,0.009765624999999984,13.749999999999979,0)" xlink:href="#af"/><use transform="matrix(0.009765624999999984,0,0,0.009765624999999984,20.283203124999968,0)" xlink:href="#as"/><use transform="matrix(0.009765624999999984,0,0,0.009765624999999984,31.29882812499995,0)" xlink:href="#ai"/><use transform="matrix(0.009765624999999984,0,0,0.009765624999999984,41.894531249999936,0)" xlink:href="#aF"/></g><path fill="#333" d="M651-255l416-1201h210L737 0H567L28-1456h209" id="aG"/><g id="q"><use transform="matrix(0.009765624999999984,0,0,0.009765624999999984,0,0)" xlink:href="#aG"/><use transform="matrix(0.009765624999999984,0,0,0.009765624999999984,12.72460937499998,0)" xlink:href="#ap"/><use transform="matrix(0.009765624999999984,0,0,0.009765624999999984,25.839843749999957,0)" xlink:href="#al"/><use transform="matrix(0.009765624999999984,0,0,0.009765624999999984,37.20703124999994,0)" xlink:href="#aG"/><use transform="matrix(0.009765624999999984,0,0,0.009765624999999984,49.93164062499992,0)" xlink:href="#Y"/></g><g id="r"><use transform="matrix(0.009765624999999984,0,0,0.009765624999999984,0,0)" xlink:href="#T"/><use transform="matrix(0.009765624999999984,0,0,0.009765624999999984,11.97265624999998,0)" xlink:href="#W"/><use transform="matrix(0.009765624999999984,0,0,0.009765624999999984,17.41210937499997,0)" xlink:href="#aE"/></g><g id="s"><use transform="matrix(0.0065104166666666505,0,0,0.0065104166666666505,0,0)" xlink:href="#aG"/><use transform="matrix(0.0065104166666666505,0,0,0.0065104166666666505,8.483072916666645,0)" xlink:href="#ap"/><use transform="matrix(0.0065104166666666505,0,0,0.0065104166666666505,17.226562499999957,0)" xlink:href="#al"/><use transform="matrix(0.0065104166666666505,0,0,0.0065104166666666505,24.80468749999994,0)" xlink:href="#aG"/></g><g id="t"><use transform="matrix(0.0065104166666666505,0,0,0.0065104166666666505,0,0)" xlink:href="#ah"/><use transform="matrix(0.0065104166666666505,0,0,0.0065104166666666505,3.2356770833333255,0)" xlink:href="#X"/><use transform="matrix(0.0065104166666666505,0,0,0.0065104166666666505,10.488281249999973,0)" xlink:href="#ag"/><use transform="matrix(0.0065104166666666505,0,0,0.0065104166666666505,17.968749999999954,0)" xlink:href="#ai"/><use transform="matrix(0.0065104166666666505,0,0,0.0065104166666666505,25.03255208333327,0)" xlink:href="#ah"/></g><g id="u"><use transform="matrix(0.008680555555555556,0,0,0.008680555555555556,0,0)" xlink:href="#ag"/><use transform="matrix(0.008680555555555556,0,0,0.008680555555555556,9.973958333333334,0)" xlink:href="#ax"/><use transform="matrix(0.008680555555555556,0,0,0.008680555555555556,14.288194444444446,0)" xlink:href="#aD"/></g><g id="v"><use transform="matrix(0.008680555555555556,0,0,0.008680555555555556,0,0)" xlink:href="#aA"/><use transform="matrix(0.008680555555555556,0,0,0.008680555555555556,10.026041666666668,0)" xlink:href="#ax"/><use transform="matrix(0.008680555555555556,0,0,0.008680555555555556,14.340277777777779,0)" xlink:href="#aF"/><use transform="matrix(0.008680555555555556,0,0,0.008680555555555556,20.19097222222222,0)" xlink:href="#ai"/><use transform="matrix(0.008680555555555556,0,0,0.008680555555555556,29.609375,0)" xlink:href="#ab"/><use transform="matrix(0.008680555555555556,0,0,0.008680555555555556,38.91493055555556,0)" xlink:href="#af"/></g><path fill="#333" d="M258 11c-71 0-114-43-114-108 0-67 42-112 114-112s116 45 116 112c-1 65-45 108-116 108" id="aH"/><g id="w"><use transform="matrix(0.008355034722222213,0,0,0.008355034722222213,0,3.9686414930555514)" xlink:href="#aH"/><use transform="matrix(0.008355034722222213,0,0,0.008355034722222213,4.503363715277773,3.9686414930555514)" xlink:href="#aH"/><use transform="matrix(0.008355034722222213,0,0,0.008355034722222213,9.006727430555546,3.9686414930555514)" xlink:href="#aH"/></g><g id="x"><use transform="matrix(0.006835937499999989,0,0,0.006835937499999989,0,3.2470703124999947)" xlink:href="#aH"/><use transform="matrix(0.006835937499999989,0,0,0.006835937499999989,3.684570312499994,3.2470703124999947)" xlink:href="#aH"/><use transform="matrix(0.006835937499999989,0,0,0.006835937499999989,7.369140624999988,3.2470703124999947)" xlink:href="#aH"/></g><g id="y"><use transform="matrix(0.006835937499999989,0,0,0.006835937499999989,0,-6.494140624999989)" xlink:href="#aH"/><use transform="matrix(0.006835937499999989,0,0,0.006835937499999989,3.684570312499994,-6.494140624999989)" xlink:href="#aH"/><use transform="matrix(0.006835937499999989,0,0,0.006835937499999989,7.369140624999988,-6.494140624999989)" xlink:href="#aH"/></g><g id="z"><use transform="matrix(0.009765624999999984,0,0,0.009765624999999984,0,0)" xlink:href="#ag"/><use transform="matrix(0.009765624999999984,0,0,0.009765624999999984,11.220703124999982,0)" xlink:href="#ah"/><use transform="matrix(0.009765624999999984,0,0,0.009765624999999984,16.074218749999975,0)" xlink:href="#aD"/><use transform="matrix(0.009765624999999984,0,0,0.009765624999999984,27.480468749999957,0)" xlink:href="#ab"/><use transform="matrix(0.009765624999999984,0,0,0.009765624999999984,37.94921874999994,0)" xlink:href="#au"/></g><g id="A"><use transform="matrix(0.009765624999999984,0,0,0.009765624999999984,0,0)" xlink:href="#aA"/><use transform="matrix(0.009765624999999984,0,0,0.009765624999999984,11.279296874999982,0)" xlink:href="#ai"/><use transform="matrix(0.009765624999999984,0,0,0.009765624999999984,21.748046874999964,0)" xlink:href="#ae"/></g><path fill="#333" d="M631-137c179 0 314-70 314-231 0-71-25-127-75-166s-141-77-272-115c-165-47-285-106-360-175s-112-154-112-255c0-245 231-397 495-397 206 0 369 89 449 218 43 68 65 142 65 223H942c0-184-129-283-321-283-172 0-299 76-301 236 0 59 26 109 76 150s135 78 256 113c205 59 345 116 436 256 35 53 50 119 50 193-2 256-231 398-507 390C333 12 90-129 80-422h193c0 187 160 285 358 285" id="aI"/><path fill="#333" d="M730-137c145 0 253-29 323-105v-327H716v-156h528v534C1148-51 964 20 729 20c-394 0-598-279-607-678v-127c-5-410 194-690 585-691 310-1 499 171 537 447h-192c-36-193-151-289-344-289-285 0-393 220-393 528v119c-5 296 140 534 415 534" id="aJ"/><g id="B"><use transform="matrix(0.009765624999999984,0,0,0.009765624999999984,0,0)" xlink:href="#aI"/><use transform="matrix(0.009765624999999984,0,0,0.009765624999999984,11.86523437499998,0)" xlink:href="#V"/><use transform="matrix(0.009765624999999984,0,0,0.009765624999999984,21.992187499999964,0)" xlink:href="#aE"/><use transform="matrix(0.009765624999999984,0,0,0.009765624999999984,35.74218749999994,0)" xlink:href="#aJ"/></g><g id="C"><use transform="matrix(0.009765624999999984,0,0,0.009765624999999984,0,0)" xlink:href="#aG"/><use transform="matrix(0.009765624999999984,0,0,0.009765624999999984,12.72460937499998,0)" xlink:href="#ap"/><use transform="matrix(0.009765624999999984,0,0,0.009765624999999984,25.839843749999957,0)" xlink:href="#al"/><use transform="matrix(0.009765624999999984,0,0,0.009765624999999984,37.20703124999994,0)" xlink:href="#aG"/></g><path fill="#5e5e5e" d="M992-673H361v516h733V0H169v-1456h915v158H361v468h631v157" id="aK"/><path fill="#5e5e5e" d="M503-687l240-395h216L605-547 970 0H756L506-405 256 0H41l365-547-354-535h214" id="aL"/><path fill="#5e5e5e" d="M341 0H156v-1082h185V0zm-91-1264c-68 0-108-42-109-105 0-62 41-107 109-107s110 44 110 107-42 105-110 105" id="aM"/><path fill="#5e5e5e" d="M538-131c121 0 232-49 232-156 0-50-20-88-56-117-73-60-334-92-420-143-92-55-162-110-162-238 0-190 192-317 400-317 223 0 414 129 413 338H759c0-108-110-186-227-186-119 0-215 53-215 159 0 45 18 78 53 101 76 52 331 90 416 139 98 57 169 115 169 251C955-92 760 20 538 20c-176 0-314-68-386-174-38-55-57-115-57-179h185c6 129 116 202 258 202" id="aN"/><path fill="#5e5e5e" d="M456 20C285 20 205-92 206-268v-671H9v-143h197v-262h185v262h202v143H391v671c-9 125 92 149 207 118V0c-49 13-96 20-142 20" id="aO"/><path fill="#5e5e5e" d="M589-945c-131 0-219 81-264 174V0H140v-1082h175l6 136c83-104 191-156 324-156 229 0 346 129 346 387V0H806v-716c-2-153-65-229-217-229" id="aP"/><path fill="#5e5e5e" d="M521 20C240 20 96-239 96-550c0-303 147-552 427-552 132 0 235 47 309 140l9-120h169V-26c4 277-183 454-459 452-165-1-334-81-400-187l96-111c79 98 176 147 291 147 180 1 288-109 286-290v-93C750-23 649 20 521 20zm48-965c-209 0-287 178-287 416 0 217 86 392 285 392 117 0 202-53 257-159v-494c-57-103-142-155-255-155" id="aQ"/><g id="D"><use transform="matrix(0.009765624999999986,0,0,0.009765624999999986,0,0)" xlink:href="#aK"/><use transform="matrix(0.009765624999999986,0,0,0.009765624999999986,11.367187499999984,0)" xlink:href="#aL"/><use transform="matrix(0.009765624999999986,0,0,0.009765624999999986,21.279296874999968,0)" xlink:href="#aM"/><use transform="matrix(0.009765624999999986,0,0,0.009765624999999986,26.132812499999964,0)" xlink:href="#aN"/><use transform="matrix(0.009765624999999986,0,0,0.009765624999999986,36.44531249999995,0)" xlink:href="#aO"/><use transform="matrix(0.009765624999999986,0,0,0.009765624999999986,42.978515624999936,0)" xlink:href="#aM"/><use transform="matrix(0.009765624999999986,0,0,0.009765624999999986,47.83203124999993,0)" xlink:href="#aP"/><use transform="matrix(0.009765624999999986,0,0,0.009765624999999986,58.86718749999992,0)" xlink:href="#aQ"/></g><path fill="#5e5e5e" d="M313-157h833V0H86v-144l798-1154H99v-158h1015v141" id="aR"/><path fill="#5e5e5e" d="M375 0H183v-1456h192V0" id="aS"/><path fill="#5e5e5e" d="M362-157h690V0H169v-1456h193v1299" id="aT"/><g id="E"><use transform="matrix(0.009765624999999986,0,0,0.009765624999999986,0,0)" xlink:href="#aR"/><use transform="matrix(0.009765624999999986,0,0,0.009765624999999986,11.972656249999982,0)" xlink:href="#aS"/><use transform="matrix(0.009765624999999986,0,0,0.009765624999999986,17.412109374999975,0)" xlink:href="#aT"/></g><path fill="#5e5e5e" d="M973-380H363L226 0H28l556-1456h168L1309 0h-197zM421-538h495l-248-681" id="aU"/><path fill="#5e5e5e" d="M1216-1011c-1 297-202 441-512 441H361V0H169v-1456h537c297-6 510 164 510 445zm-192 2c1-178-126-288-307-289H361v571h345c196 1 318-92 318-282" id="aV"/><g id="F"><use transform="matrix(0.009765624999999986,0,0,0.009765624999999986,0,0)" xlink:href="#aU"/><use transform="matrix(0.009765624999999986,0,0,0.009765624999999986,13.046874999999982,0)" xlink:href="#aV"/><use transform="matrix(0.009765624999999986,0,0,0.009765624999999986,25.664062499999964,0)" xlink:href="#aS"/></g><g id="G"><use transform="matrix(0.009765624999999986,0,0,0.009765624999999986,0,0)" xlink:href="#aR"/><use transform="matrix(0.009765624999999986,0,0,0.009765624999999986,11.972656249999982,0)" xlink:href="#aS"/><use transform="matrix(0.009765624999999986,0,0,0.009765624999999986,17.412109374999975,0)" xlink:href="#aT"/></g><path fill="#5e5e5e" d="M497-251l268-831h189L566 0H425L33-1082h189" id="aW"/><path fill="#5e5e5e" d="M561-1102c238-4 403 126 403 351v498c0 99 13 178 38 237V0H808c-11-21-19-59-26-114C696-25 593 20 474 20c-199 0-368-130-365-320 4-251 214-359 490-356h180v-85c-1-135-86-212-229-212-115 0-232 67-233 171H131c20-205 206-316 430-320zM294-326c0 117 90 185 207 185 122 0 239-75 278-162v-222H634c-227 0-340 66-340 199" id="aX"/><path fill="#5e5e5e" d="M634-1102c292 0 422 254 422 573 0 298-143 547-420 549-137 0-242-48-317-145L310 0H140v-1536h185v573c75-93 178-139 309-139zm-44 965c207 0 281-175 281-413 0-224-79-395-283-395-122 0-210 57-263 170v468c57 113 145 170 265 170" id="aY"/><path fill="#5e5e5e" d="M341 0H156v-1536h185V0" id="aZ"/><path fill="#5e5e5e" d="M599-131c141 0 220-65 285-146l113 88C906-50 770 20 589 20 281 21 93-214 93-545c0-223 93-397 233-485 74-48 154-72 240-72 300 2 449 218 445 537v77H278c0 197 129 357 321 357zm227-509c-3-180-88-310-260-310-170 0-264 140-282 310h542" id="ba"/><g id="H"><use transform="matrix(0.009765624999999986,0,0,0.009765624999999986,0,0)" xlink:href="#aW"/><use transform="matrix(0.009765624999999986,0,0,0.009765624999999986,9.687499999999986,0)" xlink:href="#aO"/><use transform="matrix(0.009765624999999986,0,0,0.009765624999999986,16.22070312499998,0)" xlink:href="#aX"/><use transform="matrix(0.009765624999999986,0,0,0.009765624999999986,27.099609374999964,0)" xlink:href="#aY"/><use transform="matrix(0.009765624999999986,0,0,0.009765624999999986,38.32031249999995,0)" xlink:href="#aZ"/><use transform="matrix(0.009765624999999986,0,0,0.009765624999999986,43.17382812499995,0)" xlink:href="#ba"/></g><path fill="#5e5e5e" d="M663-916c-163-27-288 18-338 148V0H140v-1082h180l3 125c61-97 147-145 258-145 36 0 63 5 82 14v172" id="bb"/><path fill="#5e5e5e" d="M525-543H37v-151h488v151" id="bc"/><path fill="#5e5e5e" d="M277-555c0 244 77 420 297 424 127 2 249-93 255-210h175C980-127 805 20 574 20 258 20 81-222 92-562c11-319 164-533 481-540 237-5 426 165 431 392H829c-7-133-115-242-256-240-209 4-296 166-296 395" id="bd"/><path fill="#5e5e5e" d="M584 20C278 26 81-227 91-551c10-320 175-545 491-551 308-5 503 247 494 573-9 322-175 543-492 549zm-2-970c-208 0-305 185-305 421 0 216 106 398 307 398 211 0 307-186 307-420 0-214-109-399-309-399" id="be"/><path fill="#5e5e5e" d="M520 20C244 20 95-247 95-550c0-298 151-550 427-552 127 0 227 43 301 130v-564h185V0H838l-9-116C755-25 652 20 520 20zm48-965c-210 0-288 177-288 416 0 218 87 392 286 392 117 0 203-53 257-158v-497c-55-102-140-153-255-153" id="bf"/><g id="I"><use transform="matrix(0.009765624999999986,0,0,0.009765624999999986,0,0)" xlink:href="#aQ"/><use transform="matrix(0.009765624999999986,0,0,0.009765624999999986,11.220703124999984,0)" xlink:href="#aX"/><use transform="matrix(0.009765624999999986,0,0,0.009765624999999986,22.099609374999968,0)" xlink:href="#bb"/><use transform="matrix(0.009765624999999986,0,0,0.009765624999999986,28.867187499999957,0)" xlink:href="#aY"/><use transform="matrix(0.009765624999999986,0,0,0.009765624999999986,40.08789062499994,0)" xlink:href="#aX"/><use transform="matrix(0.009765624999999986,0,0,0.009765624999999986,50.96679687499993,0)" xlink:href="#aQ"/><use transform="matrix(0.009765624999999986,0,0,0.009765624999999986,62.187499999999915,0)" xlink:href="#ba"/><use transform="matrix(0.009765624999999986,0,0,0.009765624999999986,72.7832031249999,0)" xlink:href="#bc"/><use transform="matrix(0.009765624999999986,0,0,0.009765624999999986,78.30078124999989,0)" xlink:href="#bd"/><use transform="matrix(0.009765624999999986,0,0,0.009765624999999986,88.76953124999987,0)" xlink:href="#be"/><use transform="matrix(0.009765624999999986,0,0,0.009765624999999986,100.17578124999986,0)" xlink:href="#aZ"/><use transform="matrix(0.009765624999999986,0,0,0.009765624999999986,105.02929687499984,0)" xlink:href="#aZ"/><use transform="matrix(0.009765624999999986,0,0,0.009765624999999986,109.88281249999986,0)" xlink:href="#ba"/><use transform="matrix(0.009765624999999986,0,0,0.009765624999999986,120.47851562499984,0)" xlink:href="#bd"/><use transform="matrix(0.009765624999999986,0,0,0.009765624999999986,130.94726562499983,0)" xlink:href="#aO"/><use transform="matrix(0.009765624999999986,0,0,0.009765624999999986,137.48046874999983,0)" xlink:href="#ba"/><use transform="matrix(0.009765624999999986,0,0,0.009765624999999986,148.07617187499983,0)" xlink:href="#bf"/></g><g id="J"><use transform="matrix(0.009765624999999986,0,0,0.009765624999999986,0,0)" xlink:href="#aN"/><use transform="matrix(0.009765624999999986,0,0,0.009765624999999986,10.312499999999986,0)" xlink:href="#ba"/><use transform="matrix(0.009765624999999986,0,0,0.009765624999999986,20.90820312499997,0)" xlink:href="#aO"/></g><path fill="#5e5e5e" d="M704-1390c-164-38-297 28-288 194v114h231v143H416V0H231v-939H60v-143h171v-111c-12-274 208-416 483-347" id="bg"/><g id="K"><use transform="matrix(0.009765624999999986,0,0,0.009765624999999986,0,0)" xlink:href="#be"/><use transform="matrix(0.009765624999999986,0,0,0.009765624999999986,11.406249999999984,0)" xlink:href="#bg"/></g><g id="L"><use transform="matrix(0.009765624999999986,0,0,0.009765624999999986,0,0)" xlink:href="#aZ"/><use transform="matrix(0.009765624999999986,0,0,0.009765624999999986,4.853515624999993,0)" xlink:href="#be"/><use transform="matrix(0.009765624999999986,0,0,0.009765624999999986,16.25976562499998,0)" xlink:href="#aQ"/></g><g id="M"><use transform="matrix(0.009765624999999986,0,0,0.009765624999999986,0,0)" xlink:href="#ba"/><use transform="matrix(0.009765624999999986,0,0,0.009765624999999986,10.595703124999986,0)" xlink:href="#aP"/><use transform="matrix(0.009765624999999986,0,0,0.009765624999999986,21.630859374999975,0)" xlink:href="#aO"/><use transform="matrix(0.009765624999999986,0,0,0.009765624999999986,28.164062499999964,0)" xlink:href="#bb"/><use transform="matrix(0.009765624999999986,0,0,0.009765624999999986,34.93164062499996,0)" xlink:href="#aM"/><use transform="matrix(0.009765624999999986,0,0,0.009765624999999986,39.78515624999995,0)" xlink:href="#ba"/><use transform="matrix(0.009765624999999986,0,0,0.009765624999999986,50.380859374999936,0)" xlink:href="#aN"/></g><path fill="#5e5e5e" d="M417-1456L893-268l476-1188h249V0h-192c-4-403 4-794 18-1179L966 0H819L342-1176c15 384 23 773 19 1176H169v-1456h248" id="bh"/><g id="N"><use transform="matrix(0.009765624999999986,0,0,0.009765624999999986,0,0)" xlink:href="#aV"/><use transform="matrix(0.009765624999999986,0,0,0.009765624999999986,12.617187499999982,0)" xlink:href="#bh"/><use transform="matrix(0.009765624999999986,0,0,0.009765624999999986,30.078124999999957,0)" xlink:href="#aK"/><use transform="matrix(0.009765624999999986,0,0,0.009765624999999986,41.44531249999994,0)" xlink:href="#bh"/></g><path fill="#5e5e5e" d="M632-1102c291 0 422 251 422 573 0 297-141 548-419 549-131 0-235-42-310-125v521H140v-1498h169l9 120c75-93 180-140 314-140zm-53 971c207 0 290-180 290-419 0-218-92-395-292-395-112 0-196 50-252 149v517c55 99 140 148 254 148" id="bi"/><path fill="#5e5e5e" d="M1240-945c-141 0-250 95-250 227V0H804v-709c0-157-77-236-231-236-121 0-204 52-249 155V0H139v-1082h175l5 120c79-93 186-140 321-140 151 0 254 58 309 174 69-98 181-174 345-174 237 0 362 126 362 377V0h-185v-714c-2-159-67-231-231-231" id="bj"/><g id="O"><use transform="matrix(0.009765624999999986,0,0,0.009765624999999986,0,0)" xlink:href="#bi"/><use transform="matrix(0.009765624999999986,0,0,0.009765624999999986,11.220703124999984,0)" xlink:href="#bb"/><use transform="matrix(0.009765624999999986,0,0,0.009765624999999986,17.792968749999975,0)" xlink:href="#be"/><use transform="matrix(0.009765624999999986,0,0,0.009765624999999986,29.199218749999957,0)" xlink:href="#aQ"/><use transform="matrix(0.009765624999999986,0,0,0.009765624999999986,40.41992187499994,0)" xlink:href="#bb"/><use transform="matrix(0.009765624999999986,0,0,0.009765624999999986,46.796874999999936,0)" xlink:href="#aX"/><use transform="matrix(0.009765624999999986,0,0,0.009765624999999986,57.675781249999915,0)" xlink:href="#bj"/><use transform="matrix(0.009765624999999986,0,0,0.009765624999999986,75.2050781249999,0)" xlink:href="#bj"/><use transform="matrix(0.009765624999999986,0,0,0.009765624999999986,92.73437499999987,0)" xlink:href="#aM"/><use transform="matrix(0.009765624999999986,0,0,0.009765624999999986,97.58789062499986,0)" xlink:href="#aP"/><use transform="matrix(0.009765624999999986,0,0,0.009765624999999986,108.62304687499984,0)" xlink:href="#aQ"/></g><g id="P"><use transform="matrix(0.009765624999999986,0,0,0.009765624999999986,0,0)" xlink:href="#bj"/><use transform="matrix(0.009765624999999986,0,0,0.009765624999999986,17.529296874999975,0)" xlink:href="#be"/><use transform="matrix(0.009765624999999986,0,0,0.009765624999999986,28.935546874999957,0)" xlink:href="#bf"/><use transform="matrix(0.009765624999999986,0,0,0.009765624999999986,40.21484374999994,0)" xlink:href="#ba"/><use transform="matrix(0.009765624999999986,0,0,0.009765624999999986,50.81054687499993,0)" xlink:href="#aZ"/></g><g id="Q"><use transform="matrix(0.009765624999999986,0,0,0.009765624999999986,0,0)" xlink:href="#bi"/><use transform="matrix(0.009765624999999986,0,0,0.009765624999999986,11.220703124999984,0)" xlink:href="#ba"/><use transform="matrix(0.009765624999999986,0,0,0.009765624999999986,21.816406249999975,0)" xlink:href="#bb"/></g><path fill="#5e5e5e" d="M494-271l252-811h198L509 167C425 381 299 474 84 421V271c167 16 242-37 283-173l41-110L22-1082h202" id="bk"/><g id="R"><use transform="matrix(0.009765624999999986,0,0,0.009765624999999986,0,0)" xlink:href="#bg"/><use transform="matrix(0.009765624999999986,0,0,0.009765624999999986,6.94335937499999,0)" xlink:href="#aM"/><use transform="matrix(0.009765624999999986,0,0,0.009765624999999986,11.796874999999984,0)" xlink:href="#aZ"/><use transform="matrix(0.009765624999999986,0,0,0.009765624999999986,16.650390624999975,0)" xlink:href="#ba"/><use transform="matrix(0.009765624999999986,0,0,0.009765624999999986,27.24609374999996,0)" xlink:href="#aN"/><use transform="matrix(0.009765624999999986,0,0,0.009765624999999986,37.55859374999994,0)" xlink:href="#bk"/><use transform="matrix(0.009765624999999986,0,0,0.009765624999999986,47.021484374999936,0)" xlink:href="#aN"/><use transform="matrix(0.009765624999999986,0,0,0.009765624999999986,57.33398437499992,0)" xlink:href="#aO"/><use transform="matrix(0.009765624999999986,0,0,0.009765624999999986,63.86718749999991,0)" xlink:href="#ba"/><use transform="matrix(0.009765624999999986,0,0,0.009765624999999986,74.46289062499989,0)" xlink:href="#bj"/></g><g id="S"><use transform="matrix(0.009765624999999986,0,0,0.009765624999999986,0,0)" xlink:href="#bi"/><use transform="matrix(0.009765624999999986,0,0,0.009765624999999986,11.220703124999984,0)" xlink:href="#be"/><use transform="matrix(0.009765624999999986,0,0,0.009765624999999986,22.626953124999968,0)" xlink:href="#be"/><use transform="matrix(0.009765624999999986,0,0,0.009765624999999986,34.03320312499995,0)" xlink:href="#aZ"/></g></defs></g></svg>