<svg xmlns="http://www.w3.org/2000/svg" xmlns:xlink="http://www.w3.org/1999/xlink" xmlns:lucid="lucid" width="560.65" height="341.07"><g transform="translate(-379.530687681463 -180)" lucid:page-tab-id="UgkFtBwGayzR"><path d="M700 262.67c0-3.3 2.7-6 6-6h208.18c3.32 0 6 2.7 6 6v226.7c0 3.3-2.68 6-6 6H706c-3.3 0-6-2.7-6-6z" fill-opacity="0"/><path d="M704.5 257.08l1.5-.4h2.04m8.17 0h4.1m8.15 0h4.08m8.17 0h4.08m8.16 0h4.1m8.15 0h4.07m8.17 0h4.08m8.16 0h4.08m8.17 0H806m8.17 0h4.1m8.15 0h4.08m8.17 0h4.08m8.16 0h4.1m8.16 0h4.08m8.16 0h4.1m8.15 0h4.08m8.17 0h4.08m8.16 0h2.04l1.5.4m4.1 4.1l.4 1.5v1.98m0 7.96v3.97m0 7.95v3.97m0 7.96v3.97m0 7.96v4m0 7.94v3.98m0 7.95v3.98m0 7.95v3.98m0 7.95v3.98m0 7.96v3.98m0 7.95v3.97m0 7.95v3.98m0 7.95v3.98m0 7.95v3.98m0 7.96v3.97m0 7.95v3.97m0 7.96v3.97m0 7.96v3.98m0 7.96v3.98m0 7.95v2l-.4 1.5m-4.1 4.08l-1.5.4h-2.04m-8.16 0h-4.08m-8.17 0h-4.08m-8.16 0h-4.1m-8.16 0h-4.08m-8.17 0h-4.1m-8.15 0h-4.08m-8.17 0h-4.08m-8.16 0h-4.1m-8.15 0h-4.07m-8.17 0h-4.08m-8.16 0h-4.08m-8.17 0h-4.08m-8.17 0h-4.1m-8.15 0h-4.08m-8.17 0h-4.08m-8.16 0h-4.1m-8.16 0H706l-1.5-.4m-4.1-4.1l-.4-1.5v-1.98m0-7.95v-3.98m0-7.96v-3.97m0-7.95v-3.97m0-7.96v-3.97m0-7.96v-3.98m0-7.96v-3.98m0-7.95v-3.98m0-7.95v-3.98m0-7.95V380m0-7.96v-3.98m0-7.95v-3.97m0-7.95v-3.98m0-7.95v-3.98m0-7.95v-3.98m0-7.95v-4m0-7.95v-3.97m0-7.96v-3.97m0-7.96v-3.98m0-7.96v-2l.4-1.5" stroke="#999" stroke-width="2" fill="none"/><path d="M400 206c0-3.3 2.7-6 6-6h148c3.3 0 6 2.7 6 6v28c0 3.3-2.7 6-6 6H406c-3.3 0-6-2.7-6-6z" stroke="#202124" fill="#fff"/><use xlink:href="#a" transform="matrix(1,0,0,1,405,205) translate(51.01562500000003 22.304687499999975)"/><path d="M440 286c0-3.3 2.7-6 6-6h148c3.3 0 6 2.7 6 6v28c0 3.3-2.7 6-6 6H446c-3.3 0-6-2.7-6-6z" stroke="#202124" fill="#fff"/><use xlink:href="#b" transform="matrix(1,0,0,1,445,285) translate(33.64257812500006 22.304687499999975)"/><use xlink:href="#c" transform="matrix(1,0,0,1,445,285) translate(76.728515625 22.304687499999975)"/><path d="M399.53 366c0-3.3 2.7-6 6-6H454c3.3 0 6 2.7 6 6v28c0 3.3-2.7 6-6 6h-48.47c-3.3 0-6-2.7-6-6z" stroke="#202124" fill="#fff"/><use xlink:href="#d" transform="matrix(1,0,0,1,404.530687681463,365) translate(6.808593750000028 22.304687499999975)"/><path d="M720 206c0-3.3 2.7-6 6-6h167.3c3.32 0 6 2.7 6 6v28c0 3.3-2.68 6-6 6H726c-3.3 0-6-2.7-6-6z" stroke="#202124" fill="#fff"/><use xlink:href="#e" transform="matrix(1,0,0,1,725,205) translate(40.04394531250007 22.304687499999975)"/><path d="M720 286c0-3.3 2.7-6 6-6h167.3c3.32 0 6 2.7 6 6v28c0 3.3-2.68 6-6 6H726c-3.3 0-6-2.7-6-6z" stroke="#202124" fill="#fff"/><use xlink:href="#f" transform="matrix(1,0,0,1,725,285) translate(25.981445312500085 22.304687499999975)"/><path d="M720 346c0-3.3 2.7-6 6-6h167.3c3.32 0 6 2.7 6 6v28c0 3.3-2.68 6-6 6H726c-3.3 0-6-2.7-6-6z" stroke="#202124" fill="#fff"/><use xlink:href="#g" transform="matrix(1,0,0,1,725,345) translate(49.79980468750005 22.304687499999975)"/><path d="M720 406c0-3.3 2.7-6 6-6h167.3c3.32 0 6 2.7 6 6v28c0 3.3-2.68 6-6 6H726c-3.3 0-6-2.7-6-6z" stroke="#202124" fill="#fff"/><use xlink:href="#h" transform="matrix(1,0,0,1,725,405) translate(56.09863281250004 22.304687499999975)"/><path d="M521.16 366.23c0-3.3 2.7-6 6-6h58.24c3.3 0 6 2.7 6 6v28c0 3.32-2.7 6-6 6h-58.24c-3.3 0-6-2.68-6-6z" stroke="#202124" fill="#fff"/><use xlink:href="#i" transform="matrix(1,0,0,1,526.1625409334204,365.2325081866841) translate(11.432617187500025 22.304687499999975)"/><path d="M503.6 386.23c0-3.3 2.7-6 6-6h58.24c3.3 0 6 2.7 6 6v28c0 3.32-2.7 6-6 6H509.6c-3.3 0-6-2.68-6-6z" stroke="#202124" fill="#fff"/><use xlink:href="#i" transform="matrix(1,0,0,1,508.6038768936032,385.2325081866841) translate(11.432617187500025 22.304687499999975)"/><path d="M486.05 406.23c0-3.3 2.68-6 6-6h58.23c3.3 0 6 2.7 6 6v28c0 3.32-2.7 6-6 6h-58.23c-3.32 0-6-2.68-6-6z" stroke="#202124" fill="#fff"/><use xlink:href="#i" transform="matrix(1,0,0,1,491.0452128537861,405.2325081866841) translate(11.432617187500025 22.304687499999975)"/><path d="M702 459.04H919.7v27.6H702z" stroke="#000" stroke-opacity="0" fill="#fff" fill-opacity="0"/><use xlink:href="#j" transform="matrix(1,0,0,1,706.9859328708218,464.0436552227989) translate(0 16.493055555555525)"/><use xlink:href="#k" transform="matrix(1,0,0,1,706.9859328708218,464.0436552227989) translate(54.661458333333236 16.493055555555525)"/><use xlink:href="#l" transform="matrix(1,0,0,1,706.9859328708218,464.0436552227989) translate(70.1128472222221 16.493055555555525)"/><use xlink:href="#m" transform="matrix(1,0,0,1,706.9859328708218,464.0436552227989) translate(115.39930555555534 16.493055555555525)"/><path d="M561 220h142.12" stroke="#202124" fill="none"/><path d="M561 220.5h-.5v-1h.5z" fill="#202124"/><path d="M717.88 220l-14.26 4.64v-9.28z" stroke="#202124" fill="#202124"/><path d="M520 241v22.12" stroke="#202124" fill="none"/><path d="M520.5 241h-1v-.5h1z" fill="#202124"/><path d="M520 277.88l-4.64-14.26h9.28z" stroke="#202124" fill="#202124"/><path d="M429.77 241v102.12" stroke="#202124" fill="none"/><path d="M430.27 241h-1v-.5h1z" fill="#202124"/><path d="M429.77 357.88l-4.64-14.26h9.27z" stroke="#202124" fill="#202124"/><path d="M520.34 320.87l24.82 26.83" stroke="#202124" fill="none"/><path d="M520.72 320.54l-.74.68-.66-.72h1.36z" fill="#202124"/><path d="M555.18 358.54l-13.1-7.32 6.82-6.3z" stroke="#202124" fill="#202124"/><path d="M520 321l.48 42.85" stroke="#202124" fill="none"/><path d="M520.5 321l-1 .02v-.52h1z" fill="#202124"/><path d="M520.64 378.6l-4.8-14.2 9.28-.1z" stroke="#202124" fill="#202124"/><path d="M519.85 320.98l-19.83 63.12" stroke="#202124" fill="none"/><path d="M520.32 321.14l-.95-.3.1-.34h1.05z" fill="#202124"/><path d="M495.6 398.2l-.16-15 8.85 2.77z" stroke="#202124" fill="#202124"/><path d="M520.8 365.66c0 .14-.1.25-.25.25-.14 0-.25-.1-.25-.24 0-.14.1-.25.25-.25.14 0 .25.12.25.26zm-1 0c0 .13-.1.24-.25.24-.14 0-.25-.1-.25-.25 0-.13.1-.25.25-.25.14 0 .25.12.25.25zm-1 0c0 .13-.1.24-.25.24-.14 0-.25-.1-.25-.25 0-.14.1-.25.25-.25.14 0 .25.1.25.25zm-1-.02c0 .14-.1.25-.25.25-.14 0-.25-.12-.25-.26 0-.13.1-.25.25-.25.14 0 .25.1.25.24zm-1 0c0 .14-.1.25-.25.25-.13 0-.25-.12-.25-.26s.12-.25.25-.25c.14 0 .25.1.25.24zm-1 0c0 .13-.1.25-.25.25-.13 0-.25-.13-.25-.26 0-.14.12-.25.25-.25.14 0 .25.1.25.24zm-1 0c0 .13-.1.24-.24.24-.14 0-.25-.1-.25-.25 0-.14.12-.25.26-.25.13 0 .25.1.25.25zm-1 0c0 .13-.1.24-.24.24-.14 0-.25-.1-.25-.25 0-.14.12-.25.26-.25.13 0 .25.1.25.25zm-1-.02c0 .14-.1.25-.24.25-.14 0-.25-.1-.25-.25 0-.13.12-.25.26-.25s.25.12.25.25zm-1 0c0 .14-.1.25-.24.25-.14 0-.25-.1-.25-.25 0-.14.12-.25.26-.25s.25.1.25.25zm-1 0c0 .13-.1.25-.24.25-.14 0-.25-.12-.25-.25 0-.14.12-.25.26-.25s.25.1.25.25zm-1 0c0 .13-.1.24-.24.24-.14 0-.25-.1-.25-.25 0-.13.12-.24.26-.24s.25.1.25.25zm-1 0c0 .13-.1.24-.24.24-.14 0-.25-.1-.25-.25 0-.13.12-.24.26-.24s.25.1.25.25zm-1-.02c0 .14-.1.25-.24.25-.14 0-.25-.1-.25-.25 0-.14.12-.25.26-.25s.25.1.25.25zm-1 0c0 .14-.1.25-.24.25-.13 0-.25-.1-.25-.25 0-.14.13-.25.26-.25.14 0 .25.1.25.25zm-1 0c0 .13-.1.24-.24.24-.13 0-.25-.1-.25-.25 0-.14.13-.26.26-.26.14 0 .25.12.25.25zm-.98 0c0 .13-.12.24-.25.24-.14 0-.25-.1-.25-.25s.1-.26.25-.26c.13 0 .25.1.25.25zm-1 0c0 .12-.12.24-.25.24-.14 0-.25-.12-.25-.25 0-.15.1-.26.25-.26.13 0 .25.1.25.25zm-1-.02c0 .14-.1.25-.25.25-.14 0-.25-.1-.25-.25 0-.14.1-.25.25-.25.14 0 .25.1.25.25zm-1 0c0 .14-.1.25-.25.25-.14 0-.25-.1-.25-.25 0-.14.1-.25.25-.25.14 0 .25.1.25.25zm-1 0c0 .13-.1.24-.25.24-.14 0-.25-.1-.25-.25 0-.13.1-.25.25-.25.14 0 .25.12.25.25zm-1 0c0 .13-.1.24-.25.24-.14 0-.25-.1-.25-.25 0-.14.1-.25.25-.25.14 0 .25.1.25.25zm-1 0c0 .12-.1.24-.25.24-.14 0-.25-.12-.25-.25 0-.14.1-.25.25-.25.14 0 .25.1.25.25zm-1-.02c0 .14-.1.25-.25.25-.14 0-.25-.1-.25-.24 0-.14.1-.25.25-.25.14 0 .25.12.25.26zm-1 0c0 .13-.1.25-.25.25-.14 0-.25-.1-.25-.24 0-.14.1-.25.25-.25.14 0 .25.12.25.26zm-1 0c0 .13-.1.24-.25.24-.13 0-.25-.1-.25-.25 0-.14.12-.25.25-.25.14 0 .25.1.25.25zm-1 0c0 .13-.1.24-.25.24-.13 0-.25-.1-.25-.25 0-.14.12-.25.25-.25.14 0 .25.1.25.25zm-1-.02c0 .14-.1.25-.24.25-.14 0-.25-.12-.25-.26 0-.13.1-.25.25-.25.13 0 .25.1.25.24zm-1 0c0 .14-.1.25-.24.25-.14 0-.25-.12-.25-.26s.1-.25.25-.25c.13 0 .25.1.25.24zm-1 0c0 .13-.1.25-.24.25-.14 0-.25-.13-.25-.26 0-.14.1-.25.25-.25.14 0 .25.1.25.24zm-1 0c0 .13-.1.24-.24.24-.14 0-.25-.1-.25-.25 0-.14.1-.25.25-.25.14 0 .25.1.25.25zm-1 0c0 .13-.1.24-.24.24-.14 0-.25-.1-.25-.25 0-.14.1-.25.25-.25.14 0 .25.1.25.25zm-1-.02c0 .14-.1.25-.24.25-.14 0-.25-.1-.25-.25 0-.13.1-.25.25-.25.14 0 .25.12.25.25zm-1 0c0 .14-.1.25-.24.25-.14 0-.25-.1-.25-.25 0-.14.1-.25.25-.25.14 0 .25.1.25.25zm-1 0c0 .13-.1.24-.24.24-.14 0-.25-.1-.25-.25 0-.12.1-.24.25-.24.14 0 .25.12.25.25zm-1 0c0 .13-.1.24-.24.24-.13 0-.25-.1-.25-.25 0-.13.12-.24.25-.24.14 0 .25.1.25.25zm-1 0c0 .12-.1.24-.24.24-.13 0-.25-.12-.25-.25s.12-.24.25-.24c.14 0 .25.1.25.25zm-.98-.02c0 .14-.12.25-.25.25-.15 0-.26-.1-.26-.25 0-.14.1-.25.25-.25.12 0 .24.1.24.25zm-1 0c0 .14-.12.25-.25.25-.15 0-.26-.1-.26-.25 0-.14.1-.25.25-.25.12 0 .24.1.24.25zm-1 0c0 .13-.1.24-.25.24s-.26-.1-.26-.25c0-.14.1-.26.25-.26.13 0 .24.12.24.25zm-1 0c0 .13-.1.24-.25.24s-.26-.1-.26-.25.1-.26.25-.26c.13 0 .24.1.24.25zm-1 0c0 .12-.1.24-.25.24s-.26-.12-.26-.25c0-.15.1-.26.25-.26.13 0 .24.1.24.25zm-1-.02c0 .14-.1.25-.25.25s-.26-.1-.26-.25c0-.14.1-.25.25-.25.13 0 .24.1.24.25zm-1 0c0 .14-.1.25-.25.25s-.26-.1-.26-.25c0-.14.1-.25.25-.25.13 0 .24.1.24.25zm-1 0c0 .13-.1.24-.25.24s-.26-.1-.26-.25c0-.14.1-.25.25-.25.13 0 .24.1.24.25zm-1 0c0 .13-.1.24-.25.24s-.26-.1-.26-.25c0-.14.1-.25.25-.25.13 0 .24.1.24.25zm-1-.02c0 .14-.1.25-.25.25-.14 0-.26-.1-.26-.24 0-.13.12-.25.25-.25s.24.13.24.26zm-1 0c0 .14-.1.25-.25.25-.14 0-.26-.1-.26-.24 0-.14.12-.25.25-.25s.24.12.24.26zm-1 0c0 .13-.1.25-.24.25-.14 0-.25-.1-.25-.24 0-.14.1-.25.25-.25.13 0 .25.12.25.26zm-1 0c0 .13-.1.24-.24.24-.14 0-.25-.1-.25-.25 0-.14.1-.25.25-.25.13 0 .25.1.25.25zm-1 0c0 .13-.1.24-.24.24-.14 0-.25-.1-.25-.25 0-.14.1-.25.25-.25.14 0 .25.1.25.25zm-1-.02c0 .14-.1.25-.24.25-.14 0-.25-.12-.25-.26 0-.13.1-.25.25-.25.14 0 .25.1.25.24zm-1 0c0 .14-.1.25-.24.25-.14 0-.25-.12-.25-.26s.1-.25.25-.25c.14 0 .25.1.25.24zm-1 0c0 .13-.1.25-.24.25-.14 0-.25-.13-.25-.26 0-.14.1-.25.25-.25.14 0 .25.1.25.24zm-1 0c0 .13-.1.24-.24.24-.14 0-.25-.1-.25-.25 0-.14.1-.25.25-.25.14 0 .25.1.25.25zm-1 0c0 .12-.1.24-.24.24-.14 0-.25-.12-.25-.25 0-.14.1-.25.25-.25.14 0 .25.1.25.25zm-1-.02c0 .14-.1.25-.24.25-.13 0-.25-.1-.25-.25 0-.14.12-.25.25-.25.14 0 .25.1.25.25zm-1 0c0 .14-.1.25-.24.25-.13 0-.25-.1-.25-.25 0-.14.12-.25.25-.25.14 0 .25.1.25.25zm-.98 0c0 .13-.12.24-.25.24s-.24-.1-.24-.25c0-.12.1-.24.25-.24.14 0 .26.12.26.25zm-1 0c0 .13-.12.24-.25.24s-.24-.1-.24-.25c0-.13.1-.24.25-.24.14 0 .26.1.26.25z" fill="#202124"/><path d="M520.87 365.4l-.14.5h-.2v-.5zM460.6 365.16v.5h-.18l-.13-.5zM503.1 389.42c0 .14-.1.25-.25.25-.13 0-.25-.1-.25-.25 0-.14.12-.25.25-.25.14 0 .25.1.25.25zm-1 0c0 .13-.1.25-.25.25-.14 0-.25-.12-.25-.25 0-.14.1-.25.25-.25.14 0 .25.1.25.25zm-1 0c0 .13-.1.24-.25.24-.14 0-.25-.1-.25-.25 0-.13.1-.24.25-.24.14 0 .25.1.25.25zm-1 0c0 .13-.12.24-.25.24-.14 0-.25-.1-.25-.25 0-.13.1-.24.25-.24.13 0 .25.1.25.25zm-1-.02c0 .14-.12.25-.26.25-.13 0-.25-.1-.25-.25 0-.14.1-.25.24-.25.14 0 .25.1.25.25zm-1 0c0 .14-.12.25-.26.25s-.25-.1-.25-.25c0-.14.1-.25.24-.25.14 0 .25.1.25.25zm-1 0c0 .13-.12.24-.26.24s-.25-.1-.25-.25c0-.14.1-.26.24-.26.14 0 .25.12.25.25zm-1 0c0 .13-.13.24-.26.24-.14 0-.25-.1-.25-.25s.1-.26.24-.26c.13 0 .25.1.25.25zm-1.02 0c0 .12-.1.24-.25.24-.13 0-.25-.12-.25-.25 0-.15.12-.26.25-.26.14 0 .25.1.25.25zm-1-.02c0 .14-.1.25-.25.25-.14 0-.25-.1-.25-.25 0-.14.1-.25.25-.25.14 0 .25.1.25.25zm-1 0c0 .14-.1.25-.25.25-.14 0-.25-.1-.25-.25 0-.14.1-.25.25-.25.14 0 .25.1.25.25zm-1 0c0 .13-.12.24-.25.24-.14 0-.25-.1-.25-.25 0-.13.1-.25.25-.25.13 0 .25.12.25.25zm-1 0c0 .13-.12.24-.26.24-.13 0-.25-.1-.25-.25 0-.14.12-.25.25-.25.14 0 .25.1.25.25zm-1 0c0 .12-.12.24-.26.24s-.25-.12-.25-.25c0-.14.1-.25.25-.25.14 0 .25.1.25.25zm-1-.02c0 .14-.12.25-.26.25s-.25-.1-.25-.24c0-.14.1-.25.25-.25.14 0 .25.12.25.26zm-1 0c0 .14-.13.25-.26.25-.14 0-.25-.1-.25-.24 0-.14.1-.25.25-.25.13 0 .25.12.25.26zm-1.02 0c0 .13-.1.24-.25.24-.12 0-.24-.1-.24-.25 0-.14.12-.25.25-.25.15 0 .26.1.26.25zm-1 0c0 .13-.1.24-.25.24-.13 0-.24-.1-.24-.25 0-.14.1-.25.25-.25s.26.1.26.25zm-1-.02c0 .14-.1.25-.25.25-.13 0-.24-.12-.24-.26 0-.13.1-.25.25-.25s.26.1.26.24zm-1 0c0 .14-.12.25-.25.25s-.24-.12-.24-.26.1-.25.25-.25c.14 0 .26.1.26.24zm-1 0c0 .13-.12.25-.26.25-.13 0-.25-.13-.25-.26 0-.14.12-.25.25-.25.14 0 .25.1.25.24zm-1 0c0 .13-.12.24-.26.24s-.25-.1-.25-.25c0-.14.1-.25.25-.25.14 0 .25.1.25.25zm-1 0c0 .13-.12.24-.26.24s-.25-.1-.25-.25c0-.14.1-.25.25-.25.14 0 .25.1.25.25zm-1-.02c0 .14-.12.25-.26.25s-.25-.1-.25-.25c0-.13.1-.25.25-.25.14 0 .25.12.25.25zm-1.02 0c0 .14-.1.25-.25.25-.14 0-.26-.1-.26-.25 0-.14.12-.25.25-.25s.24.1.24.25zm-1 0c0 .13-.1.25-.25.25s-.26-.12-.26-.25c0-.14.1-.25.25-.25.13 0 .24.1.24.25zm-1 0c0 .13-.1.24-.25.24s-.26-.1-.26-.25c0-.13.1-.24.25-.24.13 0 .24.1.24.25zm-1 0c0 .13-.1.24-.25.24s-.26-.1-.26-.25c0-.13.1-.24.25-.24.13 0 .24.1.24.25zm-1-.02c0 .14-.12.25-.26.25-.13 0-.25-.1-.25-.25 0-.14.12-.25.25-.25.14 0 .25.1.25.25zm-1 0c0 .14-.12.25-.26.25s-.25-.1-.25-.25c0-.14.1-.25.25-.25.14 0 .25.1.25.25zm-1 0c0 .13-.12.24-.26.24s-.25-.1-.25-.25c0-.14.1-.26.25-.26.14 0 .25.12.25.25zm-1 0c0 .13-.12.24-.26.24s-.25-.1-.25-.25.1-.26.25-.26c.14 0 .25.1.25.25zm-1.02 0c0 .12-.1.24-.25.24-.13 0-.25-.12-.25-.25 0-.15.12-.26.25-.26.14 0 .25.1.25.25zm-1-.02c0 .14-.1.25-.25.25-.14 0-.25-.1-.25-.25 0-.14.1-.25.25-.25.14 0 .25.1.25.25zm-1 0c0 .14-.1.25-.25.25-.14 0-.25-.1-.25-.25 0-.14.1-.25.25-.25.14 0 .25.1.25.25zm-1 0c0 .13-.1.24-.25.24-.14 0-.25-.1-.25-.25 0-.13.1-.25.25-.25.14 0 .25.12.25.25zm-1 0c0 .13-.12.24-.26.24-.13 0-.25-.1-.25-.25 0-.14.13-.25.26-.25.14 0 .25.1.25.25zm-1 0c0 .12-.12.24-.26.24s-.25-.12-.25-.25c0-.14.12-.25.26-.25s.25.1.25.25zm-1-.02c0 .14-.12.25-.26.25s-.25-.1-.25-.24c0-.14.12-.25.26-.25s.25.12.25.26zm-1 0c0 .13-.12.25-.26.25s-.25-.1-.25-.24c0-.14.12-.25.26-.25s.25.12.25.26zm-1.02 0c0 .13-.1.24-.25.24-.13 0-.25-.1-.25-.25 0-.14.12-.25.25-.25.14 0 .25.1.25.25zm-1 0c0 .13-.1.24-.25.24-.14 0-.25-.1-.25-.25 0-.14.1-.25.25-.25.14 0 .25.1.25.25z" fill="#202124"/><path d="M503.1 389.17v.5h-.25v-.5zM460.76 389v.5h-.26v-.5zM485.6 420.08c0 .14-.12.25-.26.25-.13 0-.25-.1-.25-.25 0-.13.1-.25.24-.25.14 0 .25.12.25.25zm-.82-.6c0 .14-.1.25-.25.25-.14 0-.25-.1-.25-.25 0-.14.1-.25.25-.25.14 0 .25.1.25.25zm-.8-.6c0 .14-.13.25-.26.25-.14 0-.25-.1-.25-.25 0-.14.1-.25.25-.25.13 0 .25.1.25.25zm-.83-.6c0 .14-.1.25-.25.25-.14 0-.25-.1-.25-.25 0-.14.1-.25.25-.25.14 0 .25.1.25.25zm-.8-.6c0 .13-.13.25-.26.25-.15 0-.26-.12-.26-.25 0-.14.1-.25.25-.25.12 0 .24.1.24.25zm-.83-.6c0 .13-.1.24-.25.24-.14 0-.25-.1-.25-.25 0-.13.1-.25.25-.25.14 0 .25.12.25.25zm-.8-.6c0 .13-.12.24-.26.24s-.25-.1-.25-.25c0-.14.12-.25.26-.25s.25.1.25.25zm-.83-.6c0 .13-.12.24-.26.24s-.25-.1-.25-.25c0-.14.1-.25.24-.25.14 0 .25.1.25.25zm-.82-.6c0 .13-.1.24-.25.24-.14 0-.25-.1-.25-.25 0-.14.1-.25.25-.25.14 0 .25.1.25.25zm-.82-.6c0 .12-.1.24-.25.24-.12 0-.24-.12-.24-.25 0-.14.12-.25.25-.25.15 0 .26.1.26.25zm-.8-.62c0 .14-.12.25-.26.25s-.25-.1-.25-.24c0-.13.1-.25.25-.25.14 0 .25.13.25.26zm-.83-.6c0 .14-.1.25-.25.25-.13 0-.25-.1-.25-.24 0-.14.12-.25.25-.25.14 0 .25.12.25.26zm-.8-.6c0 .14-.12.25-.26.25s-.25-.1-.25-.24c0-.14.1-.25.25-.25.14 0 .25.12.25.26zm-.82-.6c0 .14-.1.25-.24.25-.14 0-.25-.1-.25-.24 0-.14.12-.25.26-.25.13 0 .25.12.25.26zm-.8-.6c0 .13-.12.25-.26.25s-.25-.1-.25-.24c0-.14.1-.25.24-.25.14 0 .25.12.25.26zm-.82-.6c0 .13-.12.24-.25.24-.14 0-.25-.1-.25-.25 0-.13.1-.25.25-.25.13 0 .25.12.25.25zm-.82-.6c0 .13-.1.24-.25.24-.13 0-.24-.1-.24-.25 0-.14.1-.25.25-.25s.26.1.26.25zm-.8-.6c0 .13-.12.24-.26.24s-.25-.1-.25-.25c0-.14.1-.25.25-.25.14 0 .25.1.25.25zm-.83-.6c0 .13-.1.24-.25.24-.13 0-.25-.1-.25-.25 0-.14.12-.25.25-.25.14 0 .25.1.25.25zm-.8-.6c0 .12-.12.24-.26.24s-.25-.12-.25-.25c0-.14.1-.25.25-.25.14 0 .25.1.25.25zm-.83-.62c0 .14-.1.25-.25.25-.13 0-.25-.12-.25-.26 0-.13.12-.25.25-.25.14 0 .25.1.25.24zm-.8-.6c0 .14-.12.25-.26.25s-.25-.12-.25-.26.1-.25.24-.25c.14 0 .25.1.25.24zm-.82-.6c0 .14-.12.25-.25.25-.14 0-.25-.12-.25-.26s.1-.25.25-.25c.13 0 .25.1.25.24zm-.82-.6c0 .14-.1.25-.25.25-.13 0-.24-.12-.24-.26s.1-.25.25-.25.26.1.26.24zm-.8-.6c0 .13-.13.25-.26.25-.14 0-.25-.13-.25-.26 0-.14.1-.25.25-.25.13 0 .25.1.25.24zm-.83-.6c0 .13-.1.24-.25.24-.14 0-.25-.1-.25-.25 0-.14.1-.25.25-.25.14 0 .25.1.25.25zm-.8-.6c0 .13-.12.24-.26.24s-.25-.1-.25-.25c0-.14.1-.25.25-.25.14 0 .25.1.25.25zm-.83-.6c0 .13-.1.24-.25.24-.14 0-.25-.1-.25-.25 0-.14.1-.25.25-.25.14 0 .25.1.25.25zm-.8-.6c0 .12-.12.24-.26.24s-.25-.12-.25-.25c0-.14.1-.25.24-.25.14 0 .25.1.25.25zm-.83-.62c0 .14-.1.25-.25.25-.13 0-.25-.1-.25-.25 0-.13.12-.25.25-.25.14 0 .25.12.25.25zm-.8-.6c0 .14-.12.25-.26.25-.13 0-.24-.1-.24-.25 0-.14.1-.25.25-.25s.26.1.26.25zm-.83-.6c0 .14-.1.25-.25.25-.14 0-.26-.1-.26-.25 0-.14.12-.25.25-.25s.24.1.24.25zm-.8-.6c0 .14-.12.25-.26.25s-.25-.1-.25-.25c0-.14.1-.25.25-.25.14 0 .25.1.25.25zm-.82-.6c0 .13-.12.25-.25.25-.14 0-.25-.12-.25-.25 0-.14.1-.25.25-.25.13 0 .25.1.25.25z" fill="#202124"/><path d="M485.55 419.92v.62l-.36-.26.3-.4zM457.8 399.42l-.3.4-.24-.18h.03l.33-.35z" fill="#202124"/><path d="M809.65 241v22.12" stroke="#202124" fill="none"/><path d="M810.15 241h-1v-.5h1z" fill="#202124"/><path d="M809.65 277.88l-4.63-14.26h9.27z" stroke="#202124" fill="#202124"/><path d="M809.65 321v2.12" stroke="#202124" fill="none"/><path d="M810.15 321h-1v-.5h1z" fill="#202124"/><path d="M809.65 337.88l-4.63-14.26h9.27z" stroke="#202124" fill="#202124"/><path d="M809.65 381v2.12" stroke="#202124" fill="none"/><path d="M810.15 381h-1v-.5h1z" fill="#202124"/><path d="M809.65 397.88l-4.63-14.26h9.27z" stroke="#202124" fill="#202124"/><path d="M674.34 371.04l10 15.1 6.3 8.74 4.58 5.77 3.5 4.07 2.8 3 2.3 2.25 1.93 1.74 1.65 1.37 1.43 1.1 1.26.86 1.1.7 1 .58.9.48.8.4.75.3.68.25.64.2.6.18.55.14.52.1.58.08-.43 2.97-.65-.1-.65-.13-.68-.16-.72-.2-.75-.23-.8-.3-.87-.36-.93-.43-1-.53-1.1-.64-1.23-.77-1.35-.94-1.53-1.18-1.75-1.44-2.03-1.83-2.4-2.34-2.88-3.07-3.6-4.17-4.64-5.87-6.4-8.85-10.05-15.2-14.7-24.05h3.5zm-75.6-104.75l.67.05.7.1.73.15.76.2.78.25.84.33.9.4.96.5 1.05.64 1.15.8 1.27.97.78.64 1.27 1.15 1.53 1.5 1.9 2 2.4 2.8 3.23 4.1 4.68 6.46 10.76 17.58h-3.52l-9.74-15.92-4.57-6.32-3.15-4-2.33-2.7-1.8-1.9-1.46-1.43-1.18-1.07-.7-.57-1.14-.9-1-.68-.9-.54-.83-.42-.75-.34-.68-.26-.63-.2-.6-.16-.55-.1-.54-.1-.5-.03-.5-.03h-.48l-.47.05-.46.07-.46.1-.47.1-.47.16-.5.2-.5.22-.5.27-.56.33-.58.4-.62.46-.65.57-.7.7-.78.83-.84 1.02-.93 1.27-1.04 1.6-1.16 2.06-1.33 2.67-1.5 3.54-1.75 4.8-2 6.67-2.22 9.4-2.34 13.18-2.03 16.84-.15 2.44-3-.2.17-2.52 2.05-17 2.37-13.35 2.27-9.58 2.04-6.84 1.8-4.97 1.58-3.7 1.4-2.83 1.25-2.2 1.13-1.75 1.03-1.4.96-1.17.87-.96.83-.8.8-.68.74-.58.7-.5.7-.4.68-.36.66-.3.65-.25.64-.2.63-.17.64-.13.63-.1.65-.04.65-.03z" fill="#202124"/><path d="M719.5 418.5v3l-1.57-.03.06-3zM575.6 340.87l-5.33 14-3.92-14.46z" fill="#202124"/><path d="M577.74 339.47l-7.7 20.26-5.68-20.92zm-7.23 10.57l2.97-7.78-5.13-.25z" fill="#202124"/><g><use xlink:href="#n" transform="matrix(1,0,0,1,612.349544146027,306.9353492985383) translate(5.269756944444445 16.493055555555557)"/><use xlink:href="#o" transform="matrix(1,0,0,1,612.349544146027,306.9353492985383) translate(43.941631944444445 16.493055555555557)"/><use xlink:href="#p" transform="matrix(1,0,0,1,612.349544146027,306.9353492985383) translate(0.005000000000002558 37.32638888888889)"/><use xlink:href="#q" transform="matrix(1,0,0,1,612.349544146027,306.9353492985383) translate(53.15604166666667 37.32638888888889)"/></g><path d="M480.12 450.23H693.9v50.84H480.12z" stroke="#000" stroke-opacity="0" fill="#fff" fill-opacity="0"/><g><use xlink:href="#j" transform="matrix(1,0,0,1,485.1180776070821,455.2273381027505) translate(33.75694444444474 16.493055555555525)"/><use xlink:href="#r" transform="matrix(1,0,0,1,485.1180776070821,455.2273381027505) translate(88.41840277777797 16.493055555555525)"/><use xlink:href="#s" transform="matrix(1,0,0,1,485.1180776070821,455.2273381027505) translate(112.76736111111127 16.493055555555525)"/><use xlink:href="#t" transform="matrix(1,0,0,1,485.1180776070821,455.2273381027505) translate(151.73437500000009 16.493055555555525)"/><use xlink:href="#u" transform="matrix(1,0,0,1,485.1180776070821,455.2273381027505) translate(44.7986111111114 37.32638888888882)"/><use xlink:href="#r" transform="matrix(1,0,0,1,485.1180776070821,455.2273381027505) translate(90.08506944444466 37.32638888888882)"/><use xlink:href="#s" transform="matrix(1,0,0,1,485.1180776070821,455.2273381027505) translate(114.43402777777794 37.32638888888882)"/><use xlink:href="#v" transform="matrix(1,0,0,1,485.1180776070821,455.2273381027505) translate(153.40104166666674 37.32638888888882)"/></g><defs><path fill="#333" d="M538-131c121 0 232-49 232-156 0-50-20-88-56-117-73-60-334-92-420-143-92-55-162-110-162-238 0-190 192-317 400-317 223 0 414 129 413 338H759c0-108-110-186-227-186-119 0-215 53-215 159 0 45 18 78 53 101 76 52 331 90 416 139 98 57 169 115 169 251C955-92 760 20 538 20c-176 0-314-68-386-174-38-55-57-115-57-179h185c6 129 116 202 258 202" id="w"/><path fill="#333" d="M632-1102c291 0 422 251 422 573 0 297-141 548-419 549-131 0-235-42-310-125v521H140v-1498h169l9 120c75-93 180-140 314-140zm-53 971c207 0 290-180 290-419 0-218-92-395-292-395-112 0-196 50-252 149v517c55 99 140 148 254 148" id="x"/><path fill="#333" d="M561-1102c238-4 403 126 403 351v498c0 99 13 178 38 237V0H808c-11-21-19-59-26-114C696-25 593 20 474 20c-199 0-368-130-365-320 4-251 214-359 490-356h180v-85c-1-135-86-212-229-212-115 0-232 67-233 171H131c20-205 206-316 430-320zM294-326c0 117 90 185 207 185 122 0 239-75 278-162v-222H634c-227 0-340 66-340 199" id="y"/><path fill="#333" d="M920 151H4V0h916v151" id="z"/><path fill="#333" d="M456 20C285 20 205-92 206-268v-671H9v-143h197v-262h185v262h202v143H391v671c-9 125 92 149 207 118V0c-49 13-96 20-142 20" id="A"/><g id="a"><use transform="matrix(0.009765624999999986,0,0,0.009765624999999986,0,0)" xlink:href="#w"/><use transform="matrix(0.009765624999999986,0,0,0.009765624999999986,10.312499999999986,0)" xlink:href="#x"/><use transform="matrix(0.009765624999999986,0,0,0.009765624999999986,21.533203124999968,0)" xlink:href="#y"/><use transform="matrix(0.009765624999999986,0,0,0.009765624999999986,32.41210937499996,0)" xlink:href="#z"/><use transform="matrix(0.009765624999999986,0,0,0.009765624999999986,41.43554687499994,0)" xlink:href="#A"/></g><path fill="#333" d="M1288 0h-193v-673H361V0H169v-1456h192v626h734v-626h193V0" id="B"/><path fill="#333" d="M1222-777c17 480-206 763-650 777H169v-1456h411c408 9 627 269 642 679zm-190 4c3-312-149-522-447-525H361v1141h202c308 0 473-209 469-531v-85" id="C"/><path fill="#333" d="M362-157h690V0H169v-1456h193v1299" id="D"/><g id="b"><use transform="matrix(0.009765624999999986,0,0,0.009765624999999986,0,0)" xlink:href="#B"/><use transform="matrix(0.009765624999999986,0,0,0.009765624999999986,14.25781249999998,0)" xlink:href="#C"/><use transform="matrix(0.009765624999999986,0,0,0.009765624999999986,27.373046874999964,0)" xlink:href="#D"/></g><path fill="#333" d="M1240-945c-141 0-250 95-250 227V0H804v-709c0-157-77-236-231-236-121 0-204 52-249 155V0H139v-1082h175l5 120c79-93 186-140 321-140 151 0 254 58 309 174 69-98 181-174 345-174 237 0 362 126 362 377V0h-185v-714c-2-159-67-231-231-231" id="E"/><g id="c"><use transform="matrix(0.009765624999999986,0,0,0.009765624999999986,0,0)" xlink:href="#E"/><use transform="matrix(0.009765624999999986,0,0,0.009765624999999986,17.529296874999975,0)" xlink:href="#y"/><use transform="matrix(0.009765624999999986,0,0,0.009765624999999986,28.408203124999954,0)" xlink:href="#x"/></g><path fill="#333" d="M1216-1011c-1 297-202 441-512 441H361V0H169v-1456h537c297-6 510 164 510 445zm-192 2c1-178-126-288-307-289H361v571h345c196 1 318-92 318-282" id="F"/><path fill="#333" d="M1161-1018c0 201-122 330-278 388l342 618V0h-206L703-589H361V0H168v-1456h482c310-2 511 139 511 438zm-193 0c0-187-120-280-313-280H361v552h295c179 3 313-101 312-272" id="G"/><path fill="#333" d="M1160-420C1159-145 963 0 674 0H169v-1456h476c294-1 476 112 476 388 0 153-99 253-216 302 146 38 255 167 255 346zM678-157c171 2 289-95 289-261 0-175-95-263-286-263H361v524h317zm250-912c-2-172-104-229-283-229H361v463h290c157 3 278-84 277-234" id="H"/><g id="d"><use transform="matrix(0.009765624999999986,0,0,0.009765624999999986,0,0)" xlink:href="#F"/><use transform="matrix(0.009765624999999986,0,0,0.009765624999999986,12.617187499999982,0)" xlink:href="#G"/><use transform="matrix(0.009765624999999986,0,0,0.009765624999999986,24.931640624999964,0)" xlink:href="#H"/></g><path fill="#333" d="M520 20C244 20 95-247 95-550c0-298 151-550 427-552 127 0 227 43 301 130v-564h185V0H838l-9-116C755-25 652 20 520 20zm48-965c-210 0-288 177-288 416 0 218 87 392 286 392 117 0 203-53 257-158v-497c-55-102-140-153-255-153" id="I"/><path fill="#333" d="M341 0H156v-1536h185V0" id="J"/><path fill="#333" d="M584 20C278 26 81-227 91-551c10-320 175-545 491-551 308-5 503 247 494 573-9 322-175 543-492 549zm-2-970c-208 0-305 185-305 421 0 216 106 398 307 398 211 0 307-186 307-420 0-214-109-399-309-399" id="K"/><g id="e"><use transform="matrix(0.009765624999999986,0,0,0.009765624999999986,0,0)" xlink:href="#I"/><use transform="matrix(0.009765624999999986,0,0,0.009765624999999986,11.279296874999984,0)" xlink:href="#w"/><use transform="matrix(0.009765624999999986,0,0,0.009765624999999986,21.591796874999975,0)" xlink:href="#J"/><use transform="matrix(0.009765624999999986,0,0,0.009765624999999986,26.44531249999996,0)" xlink:href="#z"/><use transform="matrix(0.009765624999999986,0,0,0.009765624999999986,35.46874999999995,0)" xlink:href="#x"/><use transform="matrix(0.009765624999999986,0,0,0.009765624999999986,46.689453124999936,0)" xlink:href="#K"/><use transform="matrix(0.009765624999999986,0,0,0.009765624999999986,58.095703124999915,0)" xlink:href="#K"/><use transform="matrix(0.009765624999999986,0,0,0.009765624999999986,69.5019531249999,0)" xlink:href="#J"/><use transform="matrix(0.009765624999999986,0,0,0.009765624999999986,74.35546874999989,0)" xlink:href="#z"/><use transform="matrix(0.009765624999999986,0,0,0.009765624999999986,83.37890624999986,0)" xlink:href="#A"/></g><path fill="#333" d="M599-131c141 0 220-65 285-146l113 88C906-50 770 20 589 20 281 21 93-214 93-545c0-223 93-397 233-485 74-48 154-72 240-72 300 2 449 218 445 537v77H278c0 197 129 357 321 357zm227-509c-3-180-88-310-260-310-170 0-264 140-282 310h542" id="L"/><g id="f"><use transform="matrix(0.009765624999999986,0,0,0.009765624999999986,0,0)" xlink:href="#I"/><use transform="matrix(0.009765624999999986,0,0,0.009765624999999986,11.279296874999984,0)" xlink:href="#w"/><use transform="matrix(0.009765624999999986,0,0,0.009765624999999986,21.591796874999975,0)" xlink:href="#J"/><use transform="matrix(0.009765624999999986,0,0,0.009765624999999986,26.44531249999996,0)" xlink:href="#z"/><use transform="matrix(0.009765624999999986,0,0,0.009765624999999986,35.46874999999995,0)" xlink:href="#I"/><use transform="matrix(0.009765624999999986,0,0,0.009765624999999986,46.748046874999936,0)" xlink:href="#y"/><use transform="matrix(0.009765624999999986,0,0,0.009765624999999986,57.626953124999915,0)" xlink:href="#A"/><use transform="matrix(0.009765624999999986,0,0,0.009765624999999986,64.16015624999991,0)" xlink:href="#y"/><use transform="matrix(0.009765624999999986,0,0,0.009765624999999986,75.0390624999999,0)" xlink:href="#w"/><use transform="matrix(0.009765624999999986,0,0,0.009765624999999986,85.35156249999987,0)" xlink:href="#L"/><use transform="matrix(0.009765624999999986,0,0,0.009765624999999986,95.94726562499986,0)" xlink:href="#A"/><use transform="matrix(0.009765624999999986,0,0,0.009765624999999986,102.48046874999986,0)" xlink:href="#z"/><use transform="matrix(0.009765624999999986,0,0,0.009765624999999986,111.50390624999984,0)" xlink:href="#A"/></g><path fill="#333" d="M634-1102c292 0 422 254 422 573 0 298-143 547-420 549-137 0-242-48-317-145L310 0H140v-1536h185v573c75-93 178-139 309-139zm-44 965c207 0 281-175 281-413 0-224-79-395-283-395-122 0-210 57-263 170v468c57 113 145 170 265 170" id="M"/><path fill="#333" d="M19 279c92 0 127-48 127-150v-1211h185V125c0 208-94 312-283 312-41 0-78-6-113-18V271c21 5 49 8 84 8zm216-1543c-68 0-107-42-108-105 0-61 42-107 108-107 68 0 110 44 110 107s-42 105-110 105" id="N"/><g id="g"><use transform="matrix(0.009765624999999986,0,0,0.009765624999999986,0,0)" xlink:href="#K"/><use transform="matrix(0.009765624999999986,0,0,0.009765624999999986,11.406249999999984,0)" xlink:href="#M"/><use transform="matrix(0.009765624999999986,0,0,0.009765624999999986,22.626953124999968,0)" xlink:href="#N"/><use transform="matrix(0.009765624999999986,0,0,0.009765624999999986,27.40234374999996,0)" xlink:href="#w"/><use transform="matrix(0.009765624999999986,0,0,0.009765624999999986,37.71484374999994,0)" xlink:href="#L"/><use transform="matrix(0.009765624999999986,0,0,0.009765624999999986,48.31054687499993,0)" xlink:href="#A"/><use transform="matrix(0.009765624999999986,0,0,0.009765624999999986,54.84374999999992,0)" xlink:href="#z"/><use transform="matrix(0.009765624999999986,0,0,0.009765624999999986,63.86718749999991,0)" xlink:href="#A"/></g><path fill="#333" d="M314-151h633V0H88v-136l597-793H97v-153h820v131" id="O"/><path fill="#333" d="M341 0H156v-1082h185V0zm-91-1264c-68 0-108-42-109-105 0-62 41-107 109-107s110 44 110 107-42 105-110 105" id="P"/><path fill="#333" d="M521 20C240 20 96-239 96-550c0-303 147-552 427-552 132 0 235 47 309 140l9-120h169V-26c4 277-183 454-459 452-165-1-334-81-400-187l96-111c79 98 176 147 291 147 180 1 288-109 286-290v-93C750-23 649 20 521 20zm48-965c-209 0-287 178-287 416 0 217 86 392 285 392 117 0 202-53 257-159v-494c-57-103-142-155-255-155" id="Q"/><g id="h"><use transform="matrix(0.009765624999999986,0,0,0.009765624999999986,0,0)" xlink:href="#O"/><use transform="matrix(0.009765624999999986,0,0,0.009765624999999986,9.912109374999986,0)" xlink:href="#P"/><use transform="matrix(0.009765624999999986,0,0,0.009765624999999986,14.765624999999979,0)" xlink:href="#J"/><use transform="matrix(0.009765624999999986,0,0,0.009765624999999986,19.61914062499997,0)" xlink:href="#K"/><use transform="matrix(0.009765624999999986,0,0,0.009765624999999986,31.025390624999957,0)" xlink:href="#Q"/><use transform="matrix(0.009765624999999986,0,0,0.009765624999999986,42.24609374999994,0)" xlink:href="#z"/><use transform="matrix(0.009765624999999986,0,0,0.009765624999999986,51.26953124999993,0)" xlink:href="#A"/></g><g id="i"><use transform="matrix(0.009765624999999986,0,0,0.009765624999999986,0,0)" xlink:href="#B"/><use transform="matrix(0.009765624999999986,0,0,0.009765624999999986,14.25781249999998,0)" xlink:href="#C"/><use transform="matrix(0.009765624999999986,0,0,0.009765624999999986,27.373046874999964,0)" xlink:href="#D"/></g><path fill="#5e5e5e" d="M561-1102c238-4 403 126 403 351v498c0 99 13 178 38 237V0H808c-11-21-19-59-26-114C696-25 593 20 474 20c-199 0-368-130-365-320 4-251 214-359 490-356h180v-85c-1-135-86-212-229-212-115 0-232 67-233 171H131c20-205 206-316 430-320zM294-326c0 117 90 185 207 185 122 0 239-75 278-162v-222H634c-227 0-340 66-340 199" id="R"/><path fill="#5e5e5e" d="M341 0H156v-1536h185V0" id="S"/><path fill="#5e5e5e" d="M584 20C278 26 81-227 91-551c10-320 175-545 491-551 308-5 503 247 494 573-9 322-175 543-492 549zm-2-970c-208 0-305 185-305 421 0 216 106 398 307 398 211 0 307-186 307-420 0-214-109-399-309-399" id="T"/><path fill="#5e5e5e" d="M277-555c0 244 77 420 297 424 127 2 249-93 255-210h175C980-127 805 20 574 20 258 20 81-222 92-562c11-319 164-533 481-540 237-5 426 165 431 392H829c-7-133-115-242-256-240-209 4-296 166-296 395" id="U"/><path fill="#5e5e5e" d="M253-1536c2 169-14 319-21 479H103l1-479h149" id="V"/><path fill="#5e5e5e" d="M520 20C244 20 95-247 95-550c0-298 151-550 427-552 127 0 227 43 301 130v-564h185V0H838l-9-116C755-25 652 20 520 20zm48-965c-210 0-288 177-288 416 0 218 87 392 286 392 117 0 203-53 257-158v-497c-55-102-140-153-255-153" id="W"/><g id="j"><use transform="matrix(0.00868055555555554,0,0,0.00868055555555554,0,0)" xlink:href="#R"/><use transform="matrix(0.00868055555555554,0,0,0.00868055555555554,9.670138888888872,0)" xlink:href="#S"/><use transform="matrix(0.00868055555555554,0,0,0.00868055555555554,13.984374999999975,0)" xlink:href="#S"/><use transform="matrix(0.00868055555555554,0,0,0.00868055555555554,18.29861111111108,0)" xlink:href="#T"/><use transform="matrix(0.00868055555555554,0,0,0.00868055555555554,28.43749999999995,0)" xlink:href="#U"/><use transform="matrix(0.00868055555555554,0,0,0.00868055555555554,37.64756944444438,0)" xlink:href="#V"/><use transform="matrix(0.00868055555555554,0,0,0.00868055555555554,40.23437499999993,0)" xlink:href="#W"/></g><path fill="#5e5e5e" d="M572 20C306 25 99-136 101-391c0-70 20-134 59-193s113-127 223-205c-65-79-108-142-130-190s-33-96-33-143c-3-220 144-354 364-354 187 0 349 127 346 308-3 212-172 290-307 398l324 387c45-87 68-183 68-289h167c0 170-41 311-123 423L1267 0h-222l-97-115C862-36 726 17 572 20zM286-391c0 162 118 260 286 260 98 0 188-37 269-112L486-668c-110 72-200 183-200 277zm297-933c-109 0-180 87-178 196 0 64 39 144 118 240 93-79 236-119 236-280 0-91-82-156-176-156" id="X"/><use transform="matrix(0.00868055555555554,0,0,0.00868055555555554,0,0)" xlink:href="#X" id="k"/><path fill="#5e5e5e" d="M704-1390c-164-38-297 28-288 194v114h231v143H416V0H231v-939H60v-143h171v-111c-12-274 208-416 483-347" id="Y"/><path fill="#5e5e5e" d="M663-916c-163-27-288 18-338 148V0H140v-1082h180l3 125c61-97 147-145 258-145 36 0 63 5 82 14v172" id="Z"/><path fill="#5e5e5e" d="M599-131c141 0 220-65 285-146l113 88C906-50 770 20 589 20 281 21 93-214 93-545c0-223 93-397 233-485 74-48 154-72 240-72 300 2 449 218 445 537v77H278c0 197 129 357 321 357zm227-509c-3-180-88-310-260-310-170 0-264 140-282 310h542" id="aa"/><g id="l"><use transform="matrix(0.00868055555555554,0,0,0.00868055555555554,0,0)" xlink:href="#Y"/><use transform="matrix(0.00868055555555554,0,0,0.00868055555555554,6.171874999999989,0)" xlink:href="#Z"/><use transform="matrix(0.00868055555555554,0,0,0.00868055555555554,12.022569444444423,0)" xlink:href="#aa"/><use transform="matrix(0.00868055555555554,0,0,0.00868055555555554,21.440972222222186,0)" xlink:href="#aa"/><use transform="matrix(0.00868055555555554,0,0,0.00868055555555554,30.859374999999947,0)" xlink:href="#W"/></g><path fill="#5e5e5e" d="M589-945c-131 0-219 81-264 174V0H140v-1082h175l6 136c83-104 191-156 324-156 229 0 346 129 346 387V0H806v-716c-2-153-65-229-217-229" id="ab"/><path fill="#5e5e5e" d="M525-543H37v-151h488v151" id="ac"/><path fill="#5e5e5e" d="M1240-945c-141 0-250 95-250 227V0H804v-709c0-157-77-236-231-236-121 0-204 52-249 155V0H139v-1082h175l5 120c79-93 186-140 321-140 151 0 254 58 309 174 69-98 181-174 345-174 237 0 362 126 362 377V0h-185v-714c-2-159-67-231-231-231" id="ad"/><g id="m"><use transform="matrix(0.00868055555555554,0,0,0.00868055555555554,0,0)" xlink:href="#T"/><use transform="matrix(0.00868055555555554,0,0,0.00868055555555554,10.138888888888872,0)" xlink:href="#ab"/><use transform="matrix(0.00868055555555554,0,0,0.00868055555555554,19.947916666666632,0)" xlink:href="#ac"/><use transform="matrix(0.00868055555555554,0,0,0.00868055555555554,24.852430555555515,0)" xlink:href="#W"/><use transform="matrix(0.00868055555555554,0,0,0.00868055555555554,34.878472222222165,0)" xlink:href="#aa"/><use transform="matrix(0.00868055555555554,0,0,0.00868055555555554,44.29687499999993,0)" xlink:href="#ad"/><use transform="matrix(0.00868055555555554,0,0,0.00868055555555554,59.87847222222212,0)" xlink:href="#R"/><use transform="matrix(0.00868055555555554,0,0,0.00868055555555554,69.548611111111,0)" xlink:href="#ab"/><use transform="matrix(0.00868055555555554,0,0,0.00868055555555554,79.35763888888877,0)" xlink:href="#W"/></g><path fill="#333" d="M589-945c-131 0-219 81-264 174V0H140v-1536h185v585c82-101 189-151 320-151 229 0 346 129 346 387V0H806v-716c-2-153-65-229-217-229" id="ae"/><g id="n"><use transform="matrix(0.008680555555555556,0,0,0.008680555555555556,0,0)" xlink:href="#ae"/><use transform="matrix(0.008680555555555556,0,0,0.008680555555555556,9.791666666666668,0)" xlink:href="#K"/><use transform="matrix(0.008680555555555556,0,0,0.008680555555555556,19.930555555555557,0)" xlink:href="#J"/><use transform="matrix(0.008680555555555556,0,0,0.008680555555555556,24.244791666666668,0)" xlink:href="#I"/></g><path fill="#333" d="M494-271l252-811h198L509 167C425 381 299 474 84 421V271c167 16 242-37 283-173l41-110L22-1082h202" id="af"/><g id="o"><use transform="matrix(0.008680555555555556,0,0,0.008680555555555556,0,0)" xlink:href="#M"/><use transform="matrix(0.008680555555555556,0,0,0.008680555555555556,9.878472222222223,0)" xlink:href="#af"/></g><g id="p"><use transform="matrix(0.008680555555555556,0,0,0.008680555555555556,0,0)" xlink:href="#K"/><use transform="matrix(0.008680555555555556,0,0,0.008680555555555556,10.13888888888889,0)" xlink:href="#M"/><use transform="matrix(0.008680555555555556,0,0,0.008680555555555556,20.11284722222222,0)" xlink:href="#N"/><use transform="matrix(0.008680555555555556,0,0,0.008680555555555556,24.35763888888889,0)" xlink:href="#w"/><use transform="matrix(0.008680555555555556,0,0,0.008680555555555556,33.52430555555556,0)" xlink:href="#L"/><use transform="matrix(0.008680555555555556,0,0,0.008680555555555556,42.942708333333336,0)" xlink:href="#A"/></g><g id="q"><use transform="matrix(0.008680555555555556,0,0,0.008680555555555556,0,0)" xlink:href="#P"/><use transform="matrix(0.008680555555555556,0,0,0.008680555555555556,4.314236111111112,0)" xlink:href="#I"/></g><g id="r"><use transform="matrix(0.00868055555555554,0,0,0.00868055555555554,0,0)" xlink:href="#T"/><use transform="matrix(0.00868055555555554,0,0,0.00868055555555554,10.138888888888872,0)" xlink:href="#ab"/></g><path fill="#5e5e5e" d="M632-1102c291 0 422 251 422 573 0 297-141 548-419 549-131 0-235-42-310-125v521H140v-1498h169l9 120c75-93 180-140 314-140zm-53 971c207 0 290-180 290-419 0-218-92-395-292-395-112 0-196 50-252 149v517c55 99 140 148 254 148" id="ag"/><g id="s"><use transform="matrix(0.00868055555555554,0,0,0.00868055555555554,0,0)" xlink:href="#ag"/><use transform="matrix(0.00868055555555554,0,0,0.00868055555555554,9.973958333333316,0)" xlink:href="#T"/><use transform="matrix(0.00868055555555554,0,0,0.00868055555555554,20.112847222222186,0)" xlink:href="#T"/><use transform="matrix(0.00868055555555554,0,0,0.00868055555555554,30.251736111111057,0)" xlink:href="#S"/></g><path fill="#5e5e5e" d="M341 0H156v-1082h185V0zm-91-1264c-68 0-108-42-109-105 0-62 41-107 109-107s110 44 110 107-42 105-110 105" id="ah"/><path fill="#5e5e5e" d="M456 20C285 20 205-92 206-268v-671H9v-143h197v-262h185v262h202v143H391v671c-9 125 92 149 207 118V0c-49 13-96 20-142 20" id="ai"/><g id="t"><use transform="matrix(0.00868055555555554,0,0,0.00868055555555554,0,0)" xlink:href="#ah"/><use transform="matrix(0.00868055555555554,0,0,0.00868055555555554,4.314236111111104,0)" xlink:href="#ad"/><use transform="matrix(0.00868055555555554,0,0,0.00868055555555554,19.8958333333333,0)" xlink:href="#ag"/><use transform="matrix(0.00868055555555554,0,0,0.00868055555555554,29.869791666666615,0)" xlink:href="#T"/><use transform="matrix(0.00868055555555554,0,0,0.00868055555555554,40.008680555555486,0)" xlink:href="#Z"/><use transform="matrix(0.00868055555555554,0,0,0.00868055555555554,46.45833333333326,0)" xlink:href="#ai"/></g><g id="u"><use transform="matrix(0.00868055555555554,0,0,0.00868055555555554,0,0)" xlink:href="#Y"/><use transform="matrix(0.00868055555555554,0,0,0.00868055555555554,6.171874999999989,0)" xlink:href="#Z"/><use transform="matrix(0.00868055555555554,0,0,0.00868055555555554,12.022569444444423,0)" xlink:href="#aa"/><use transform="matrix(0.00868055555555554,0,0,0.00868055555555554,21.440972222222186,0)" xlink:href="#aa"/><use transform="matrix(0.00868055555555554,0,0,0.00868055555555554,30.859374999999947,0)" xlink:href="#W"/></g><path fill="#5e5e5e" d="M503-687l240-395h216L605-547 970 0H756L506-405 256 0H41l365-547-354-535h214" id="aj"/><g id="v"><use transform="matrix(0.00868055555555554,0,0,0.00868055555555554,0,0)" xlink:href="#aa"/><use transform="matrix(0.00868055555555554,0,0,0.00868055555555554,9.41840277777776,0)" xlink:href="#aj"/><use transform="matrix(0.00868055555555554,0,0,0.00868055555555554,18.229166666666636,0)" xlink:href="#ag"/><use transform="matrix(0.00868055555555554,0,0,0.00868055555555554,28.20312499999995,0)" xlink:href="#T"/><use transform="matrix(0.00868055555555554,0,0,0.00868055555555554,38.34201388888882,0)" xlink:href="#Z"/><use transform="matrix(0.00868055555555554,0,0,0.00868055555555554,44.791666666666586,0)" xlink:href="#ai"/></g></defs></g></svg>