<svg xmlns="http://www.w3.org/2000/svg" xmlns:xlink="http://www.w3.org/1999/xlink" xmlns:lucid="lucid" width="811" height="520"><g transform="translate(-209 -60)" lucid:page-tab-id="0_0"><path d="M680 429.48c0-3.3 2.7-6 6-6h188c3.3 0 6 2.7 6 6V554c0 3.3-2.7 6-6 6H686c-3.3 0-6-2.7-6-6z" fill-opacity="0"/><path d="M681.5 429.48c0 .83-.67 1.5-1.5 1.5s-1.5-.67-1.5-1.5.67-1.5 1.5-1.5 1.5.67 1.5 1.5zm1.9-4.1c0 .82-.68 1.5-1.5 1.5-.83 0-1.5-.68-1.5-1.5 0-.83.67-1.5 1.5-1.5.82 0 1.5.67 1.5 1.5zm4.1-1.9c0 .83-.67 1.5-1.5 1.5s-1.5-.67-1.5-1.5.67-1.5 1.5-1.5 1.5.67 1.5 1.5zm6.06 0c0 .83-.67 1.5-1.5 1.5-.82 0-1.5-.67-1.5-1.5s.68-1.5 1.5-1.5c.83 0 1.5.67 1.5 1.5zm6.07 0c0 .83-.67 1.5-1.5 1.5s-1.5-.67-1.5-1.5.67-1.5 1.5-1.5 1.5.67 1.5 1.5zm6.06 0c0 .83-.68 1.5-1.5 1.5-.83 0-1.5-.67-1.5-1.5s.67-1.5 1.5-1.5c.82 0 1.5.67 1.5 1.5zm6.06 0c0 .83-.67 1.5-1.5 1.5s-1.5-.67-1.5-1.5.67-1.5 1.5-1.5 1.5.67 1.5 1.5zm6.06 0c0 .83-.67 1.5-1.5 1.5s-1.5-.67-1.5-1.5.67-1.5 1.5-1.5 1.5.67 1.5 1.5zm6.07 0c0 .83-.68 1.5-1.5 1.5-.84 0-1.5-.67-1.5-1.5s.66-1.5 1.5-1.5c.82 0 1.5.67 1.5 1.5zm6.05 0c0 .83-.67 1.5-1.5 1.5s-1.5-.67-1.5-1.5.67-1.5 1.5-1.5 1.5.67 1.5 1.5zm6.07 0c0 .83-.68 1.5-1.5 1.5-.83 0-1.5-.67-1.5-1.5s.67-1.5 1.5-1.5c.82 0 1.5.67 1.5 1.5zm6.06 0c0 .83-.67 1.5-1.5 1.5s-1.5-.67-1.5-1.5.67-1.5 1.5-1.5 1.5.67 1.5 1.5zm6.07 0c0 .83-.68 1.5-1.5 1.5-.83 0-1.5-.67-1.5-1.5s.67-1.5 1.5-1.5c.82 0 1.5.67 1.5 1.5zm6.06 0c0 .83-.66 1.5-1.5 1.5-.82 0-1.5-.67-1.5-1.5s.68-1.5 1.5-1.5c.84 0 1.5.67 1.5 1.5zm6.07 0c0 .83-.67 1.5-1.5 1.5-.82 0-1.5-.67-1.5-1.5s.68-1.5 1.5-1.5c.83 0 1.5.67 1.5 1.5zm6.07 0c0 .83-.67 1.5-1.5 1.5s-1.5-.67-1.5-1.5.67-1.5 1.5-1.5 1.5.67 1.5 1.5zm6.06 0c0 .83-.67 1.5-1.5 1.5s-1.5-.67-1.5-1.5.67-1.5 1.5-1.5 1.5.67 1.5 1.5zm6.07 0c0 .83-.67 1.5-1.5 1.5s-1.5-.67-1.5-1.5.67-1.5 1.5-1.5 1.5.67 1.5 1.5zm6.06 0c0 .83-.67 1.5-1.5 1.5s-1.5-.67-1.5-1.5.67-1.5 1.5-1.5 1.5.67 1.5 1.5zm6.07 0c0 .83-.67 1.5-1.5 1.5s-1.5-.67-1.5-1.5.67-1.5 1.5-1.5 1.5.67 1.5 1.5zm6.06 0c0 .83-.67 1.5-1.5 1.5s-1.5-.67-1.5-1.5.67-1.5 1.5-1.5 1.5.67 1.5 1.5zm6.07 0c0 .83-.68 1.5-1.5 1.5-.83 0-1.5-.67-1.5-1.5s.67-1.5 1.5-1.5c.82 0 1.5.67 1.5 1.5zm6.06 0c0 .83-.68 1.5-1.5 1.5-.84 0-1.5-.67-1.5-1.5s.66-1.5 1.5-1.5c.82 0 1.5.67 1.5 1.5zm6.05 0c0 .83-.67 1.5-1.5 1.5-.82 0-1.5-.67-1.5-1.5s.68-1.5 1.5-1.5c.83 0 1.5.67 1.5 1.5zm6.07 0c0 .83-.67 1.5-1.5 1.5s-1.5-.67-1.5-1.5.67-1.5 1.5-1.5 1.5.67 1.5 1.5zm6.06 0c0 .83-.67 1.5-1.5 1.5-.82 0-1.5-.67-1.5-1.5s.68-1.5 1.5-1.5c.83 0 1.5.67 1.5 1.5zm6.07 0c0 .83-.67 1.5-1.5 1.5s-1.5-.67-1.5-1.5.67-1.5 1.5-1.5 1.5.67 1.5 1.5zm6.06 0c0 .83-.66 1.5-1.5 1.5-.82 0-1.5-.67-1.5-1.5s.68-1.5 1.5-1.5c.84 0 1.5.67 1.5 1.5zm6.08 0c0 .83-.67 1.5-1.5 1.5s-1.5-.67-1.5-1.5.67-1.5 1.5-1.5 1.5.67 1.5 1.5zm6.06 0c0 .83-.67 1.5-1.5 1.5s-1.5-.67-1.5-1.5.67-1.5 1.5-1.5 1.5.67 1.5 1.5zm6.07 0c0 .83-.67 1.5-1.5 1.5-.82 0-1.5-.67-1.5-1.5s.68-1.5 1.5-1.5c.83 0 1.5.67 1.5 1.5zm6.07 0c0 .83-.67 1.5-1.5 1.5s-1.5-.67-1.5-1.5.67-1.5 1.5-1.5 1.5.67 1.5 1.5zm6.07 0c0 .83-.68 1.5-1.5 1.5-.83 0-1.5-.67-1.5-1.5s.67-1.5 1.5-1.5c.82 0 1.5.67 1.5 1.5zm6.06 0c0 .83-.67 1.5-1.5 1.5s-1.5-.67-1.5-1.5.67-1.5 1.5-1.5 1.5.67 1.5 1.5zm4.1 1.9c0 .82-.67 1.5-1.5 1.5-.82 0-1.5-.68-1.5-1.5 0-.83.68-1.5 1.5-1.5.83 0 1.5.67 1.5 1.5zm1.9 4.1c0 .83-.67 1.5-1.5 1.5s-1.5-.67-1.5-1.5.67-1.5 1.5-1.5 1.5.67 1.5 1.5zm0 5.93c0 .84-.67 1.5-1.5 1.5s-1.5-.66-1.5-1.5c0-.82.67-1.5 1.5-1.5s1.5.68 1.5 1.5zm0 5.94c0 .83-.67 1.5-1.5 1.5s-1.5-.67-1.5-1.5.67-1.5 1.5-1.5 1.5.67 1.5 1.5zm0 5.93c0 .83-.67 1.5-1.5 1.5s-1.5-.67-1.5-1.5.67-1.5 1.5-1.5 1.5.67 1.5 1.5zm0 5.93c0 .83-.67 1.5-1.5 1.5s-1.5-.67-1.5-1.5.67-1.5 1.5-1.5 1.5.67 1.5 1.5zm0 5.93c0 .83-.67 1.5-1.5 1.5s-1.5-.67-1.5-1.5.67-1.5 1.5-1.5 1.5.67 1.5 1.5zm0 5.93c0 .83-.67 1.5-1.5 1.5s-1.5-.67-1.5-1.5.67-1.5 1.5-1.5 1.5.67 1.5 1.5zm0 5.93c0 .82-.67 1.5-1.5 1.5s-1.5-.68-1.5-1.5c0-.84.67-1.5 1.5-1.5s1.5.66 1.5 1.5zm0 5.92c0 .82-.67 1.5-1.5 1.5s-1.5-.68-1.5-1.5c0-.83.67-1.5 1.5-1.5s1.5.67 1.5 1.5zm0 5.93c0 .82-.67 1.5-1.5 1.5s-1.5-.68-1.5-1.5c0-.83.67-1.5 1.5-1.5s1.5.67 1.5 1.5zm0 5.93c0 .82-.67 1.5-1.5 1.5s-1.5-.68-1.5-1.5c0-.83.67-1.5 1.5-1.5s1.5.67 1.5 1.5zm0 5.92c0 .83-.67 1.5-1.5 1.5s-1.5-.67-1.5-1.5c0-.82.67-1.5 1.5-1.5s1.5.68 1.5 1.5zm0 5.93c0 .83-.67 1.5-1.5 1.5s-1.5-.67-1.5-1.5c0-.82.67-1.5 1.5-1.5s1.5.68 1.5 1.5zm0 5.93c0 .83-.67 1.5-1.5 1.5s-1.5-.67-1.5-1.5c0-.82.67-1.5 1.5-1.5s1.5.68 1.5 1.5zm0 5.93c0 .82-.67 1.5-1.5 1.5s-1.5-.68-1.5-1.5c0-.83.67-1.5 1.5-1.5s1.5.67 1.5 1.5zm0 5.92c0 .83-.67 1.5-1.5 1.5s-1.5-.67-1.5-1.5.67-1.5 1.5-1.5 1.5.67 1.5 1.5zm0 5.93c0 .83-.67 1.5-1.5 1.5s-1.5-.67-1.5-1.5.67-1.5 1.5-1.5 1.5.67 1.5 1.5zm0 5.93c0 .83-.67 1.5-1.5 1.5s-1.5-.67-1.5-1.5.67-1.5 1.5-1.5 1.5.67 1.5 1.5zm0 5.93c0 .84-.67 1.5-1.5 1.5s-1.5-.66-1.5-1.5c0-.82.67-1.5 1.5-1.5s1.5.68 1.5 1.5zm0 5.94c0 .83-.67 1.5-1.5 1.5s-1.5-.67-1.5-1.5.67-1.5 1.5-1.5 1.5.67 1.5 1.5zm0 5.93c0 .83-.67 1.5-1.5 1.5s-1.5-.67-1.5-1.5.67-1.5 1.5-1.5 1.5.67 1.5 1.5zm0 5.93c0 .83-.67 1.5-1.5 1.5s-1.5-.67-1.5-1.5.67-1.5 1.5-1.5 1.5.67 1.5 1.5zm-1.9 4.1c0 .83-.67 1.5-1.5 1.5-.82 0-1.5-.67-1.5-1.5 0-.82.68-1.5 1.5-1.5.83 0 1.5.68 1.5 1.5zm-4.1 1.9c0 .83-.67 1.5-1.5 1.5s-1.5-.67-1.5-1.5.67-1.5 1.5-1.5 1.5.67 1.5 1.5zm-6.06 0c0 .83-.68 1.5-1.5 1.5-.83 0-1.5-.67-1.5-1.5s.67-1.5 1.5-1.5c.82 0 1.5.67 1.5 1.5zm-6.07 0c0 .83-.67 1.5-1.5 1.5s-1.5-.67-1.5-1.5.67-1.5 1.5-1.5 1.5.67 1.5 1.5zm-6.06 0c0 .83-.67 1.5-1.5 1.5-.82 0-1.5-.67-1.5-1.5s.68-1.5 1.5-1.5c.83 0 1.5.67 1.5 1.5zm-6.06 0c0 .83-.67 1.5-1.5 1.5s-1.5-.67-1.5-1.5.67-1.5 1.5-1.5 1.5.67 1.5 1.5zm-6.06 0c0 .83-.67 1.5-1.5 1.5s-1.5-.67-1.5-1.5.67-1.5 1.5-1.5 1.5.67 1.5 1.5zm-6.07 0c0 .83-.66 1.5-1.5 1.5-.82 0-1.5-.67-1.5-1.5s.68-1.5 1.5-1.5c.84 0 1.5.67 1.5 1.5zm-6.05 0c0 .83-.67 1.5-1.5 1.5s-1.5-.67-1.5-1.5.67-1.5 1.5-1.5 1.5.67 1.5 1.5zm-6.07 0c0 .83-.67 1.5-1.5 1.5-.82 0-1.5-.67-1.5-1.5s.68-1.5 1.5-1.5c.83 0 1.5.67 1.5 1.5zm-6.06 0c0 .83-.67 1.5-1.5 1.5s-1.5-.67-1.5-1.5.67-1.5 1.5-1.5 1.5.67 1.5 1.5zm-6.07 0c0 .83-.67 1.5-1.5 1.5-.82 0-1.5-.67-1.5-1.5s.68-1.5 1.5-1.5c.83 0 1.5.67 1.5 1.5zm-6.06 0c0 .83-.68 1.5-1.5 1.5-.84 0-1.5-.67-1.5-1.5s.66-1.5 1.5-1.5c.82 0 1.5.67 1.5 1.5zm-6.07 0c0 .83-.68 1.5-1.5 1.5-.83 0-1.5-.67-1.5-1.5s.67-1.5 1.5-1.5c.82 0 1.5.67 1.5 1.5zm-6.07 0c0 .83-.67 1.5-1.5 1.5s-1.5-.67-1.5-1.5.67-1.5 1.5-1.5 1.5.67 1.5 1.5zm-6.06 0c0 .83-.67 1.5-1.5 1.5s-1.5-.67-1.5-1.5.67-1.5 1.5-1.5 1.5.67 1.5 1.5zm-6.07 0c0 .83-.67 1.5-1.5 1.5s-1.5-.67-1.5-1.5.67-1.5 1.5-1.5 1.5.67 1.5 1.5zm-6.06 0c0 .83-.67 1.5-1.5 1.5s-1.5-.67-1.5-1.5.67-1.5 1.5-1.5 1.5.67 1.5 1.5zm-6.07 0c0 .83-.67 1.5-1.5 1.5s-1.5-.67-1.5-1.5.67-1.5 1.5-1.5 1.5.67 1.5 1.5zm-6.06 0c0 .83-.67 1.5-1.5 1.5s-1.5-.67-1.5-1.5.67-1.5 1.5-1.5 1.5.67 1.5 1.5zm-6.07 0c0 .83-.67 1.5-1.5 1.5-.82 0-1.5-.67-1.5-1.5s.68-1.5 1.5-1.5c.83 0 1.5.67 1.5 1.5zm-6.06 0c0 .83-.66 1.5-1.5 1.5-.82 0-1.5-.67-1.5-1.5s.68-1.5 1.5-1.5c.84 0 1.5.67 1.5 1.5zm-6.05 0c0 .83-.68 1.5-1.5 1.5-.83 0-1.5-.67-1.5-1.5s.67-1.5 1.5-1.5c.82 0 1.5.67 1.5 1.5zm-6.07 0c0 .83-.67 1.5-1.5 1.5s-1.5-.67-1.5-1.5.67-1.5 1.5-1.5 1.5.67 1.5 1.5zm-6.06 0c0 .83-.68 1.5-1.5 1.5-.83 0-1.5-.67-1.5-1.5s.67-1.5 1.5-1.5c.82 0 1.5.67 1.5 1.5zm-6.07 0c0 .83-.67 1.5-1.5 1.5s-1.5-.67-1.5-1.5.67-1.5 1.5-1.5 1.5.67 1.5 1.5zm-6.06 0c0 .83-.68 1.5-1.5 1.5-.84 0-1.5-.67-1.5-1.5s.66-1.5 1.5-1.5c.82 0 1.5.67 1.5 1.5zm-6.08 0c0 .83-.67 1.5-1.5 1.5s-1.5-.67-1.5-1.5.67-1.5 1.5-1.5 1.5.67 1.5 1.5zm-6.06 0c0 .83-.67 1.5-1.5 1.5s-1.5-.67-1.5-1.5.67-1.5 1.5-1.5 1.5.67 1.5 1.5zm-6.07 0c0 .83-.68 1.5-1.5 1.5-.83 0-1.5-.67-1.5-1.5s.67-1.5 1.5-1.5c.82 0 1.5.67 1.5 1.5zm-6.07 0c0 .83-.67 1.5-1.5 1.5s-1.5-.67-1.5-1.5.67-1.5 1.5-1.5 1.5.67 1.5 1.5zm-6.07 0c0 .83-.67 1.5-1.5 1.5-.82 0-1.5-.67-1.5-1.5s.68-1.5 1.5-1.5c.83 0 1.5.67 1.5 1.5zm-6.06 0c0 .83-.67 1.5-1.5 1.5s-1.5-.67-1.5-1.5.67-1.5 1.5-1.5 1.5.67 1.5 1.5zm-4.1-1.9c0 .83-.68 1.5-1.5 1.5-.83 0-1.5-.67-1.5-1.5 0-.82.67-1.5 1.5-1.5.82 0 1.5.68 1.5 1.5zm-1.9-4.1c0 .83-.67 1.5-1.5 1.5s-1.5-.67-1.5-1.5.67-1.5 1.5-1.5 1.5.67 1.5 1.5zm0-5.93c0 .83-.67 1.5-1.5 1.5s-1.5-.67-1.5-1.5.67-1.5 1.5-1.5 1.5.67 1.5 1.5zm0-5.93c0 .83-.67 1.5-1.5 1.5s-1.5-.67-1.5-1.5.67-1.5 1.5-1.5 1.5.67 1.5 1.5zm0-5.93c0 .84-.67 1.5-1.5 1.5s-1.5-.66-1.5-1.5c0-.82.67-1.5 1.5-1.5s1.5.68 1.5 1.5zm0-5.92c0 .83-.67 1.5-1.5 1.5s-1.5-.67-1.5-1.5.67-1.5 1.5-1.5 1.5.67 1.5 1.5zm0-5.93c0 .83-.67 1.5-1.5 1.5s-1.5-.67-1.5-1.5.67-1.5 1.5-1.5 1.5.67 1.5 1.5zm0-5.93c0 .83-.67 1.5-1.5 1.5s-1.5-.67-1.5-1.5.67-1.5 1.5-1.5 1.5.67 1.5 1.5zm0-5.93c0 .82-.67 1.5-1.5 1.5s-1.5-.68-1.5-1.5c0-.83.67-1.5 1.5-1.5s1.5.67 1.5 1.5zm0-5.94c0 .83-.67 1.5-1.5 1.5s-1.5-.67-1.5-1.5c0-.82.67-1.5 1.5-1.5s1.5.68 1.5 1.5zm0-5.93c0 .83-.67 1.5-1.5 1.5s-1.5-.67-1.5-1.5c0-.82.67-1.5 1.5-1.5s1.5.68 1.5 1.5zm0-5.93c0 .83-.67 1.5-1.5 1.5s-1.5-.67-1.5-1.5c0-.82.67-1.5 1.5-1.5s1.5.68 1.5 1.5zm0-5.92c0 .82-.67 1.5-1.5 1.5s-1.5-.68-1.5-1.5c0-.83.67-1.5 1.5-1.5s1.5.67 1.5 1.5zm0-5.93c0 .82-.67 1.5-1.5 1.5s-1.5-.68-1.5-1.5c0-.83.67-1.5 1.5-1.5s1.5.67 1.5 1.5zm0-5.93c0 .82-.67 1.5-1.5 1.5s-1.5-.68-1.5-1.5c0-.83.67-1.5 1.5-1.5s1.5.67 1.5 1.5zm0-5.93c0 .82-.67 1.5-1.5 1.5s-1.5-.68-1.5-1.5c0-.84.67-1.5 1.5-1.5s1.5.66 1.5 1.5zm0-5.94c0 .83-.67 1.5-1.5 1.5s-1.5-.67-1.5-1.5.67-1.5 1.5-1.5 1.5.67 1.5 1.5zm0-5.93c0 .83-.67 1.5-1.5 1.5s-1.5-.67-1.5-1.5.67-1.5 1.5-1.5 1.5.67 1.5 1.5zm0-5.93c0 .83-.67 1.5-1.5 1.5s-1.5-.67-1.5-1.5.67-1.5 1.5-1.5 1.5.67 1.5 1.5zm0-5.93c0 .83-.67 1.5-1.5 1.5s-1.5-.67-1.5-1.5.67-1.5 1.5-1.5 1.5.67 1.5 1.5zm0-5.93c0 .83-.67 1.5-1.5 1.5s-1.5-.67-1.5-1.5.67-1.5 1.5-1.5 1.5.67 1.5 1.5zm0-5.93c0 .84-.67 1.5-1.5 1.5s-1.5-.66-1.5-1.5c0-.82.67-1.5 1.5-1.5s1.5.68 1.5 1.5zm0-5.92c0 .83-.67 1.5-1.5 1.5s-1.5-.67-1.5-1.5.67-1.5 1.5-1.5 1.5.67 1.5 1.5z" fill="#333"/><path d="M280 426c0-3.3 2.7-6 6-6h188c3.3 0 6 2.7 6 6v124.52c0 3.3-2.7 6-6 6H286c-3.3 0-6-2.7-6-6z" fill-opacity="0"/><path d="M281.5 426c0 .83-.67 1.5-1.5 1.5s-1.5-.67-1.5-1.5.67-1.5 1.5-1.5 1.5.67 1.5 1.5zm1.9-4.1c0 .82-.68 1.5-1.5 1.5-.83 0-1.5-.68-1.5-1.5 0-.83.67-1.5 1.5-1.5.82 0 1.5.67 1.5 1.5zm4.1-1.9c0 .83-.67 1.5-1.5 1.5s-1.5-.67-1.5-1.5.67-1.5 1.5-1.5 1.5.67 1.5 1.5zm6.06 0c0 .83-.67 1.5-1.5 1.5-.82 0-1.5-.67-1.5-1.5s.68-1.5 1.5-1.5c.83 0 1.5.67 1.5 1.5zm6.07 0c0 .83-.67 1.5-1.5 1.5s-1.5-.67-1.5-1.5.67-1.5 1.5-1.5 1.5.67 1.5 1.5zm6.06 0c0 .83-.68 1.5-1.5 1.5-.83 0-1.5-.67-1.5-1.5s.67-1.5 1.5-1.5c.82 0 1.5.67 1.5 1.5zm6.06 0c0 .83-.67 1.5-1.5 1.5s-1.5-.67-1.5-1.5.67-1.5 1.5-1.5 1.5.67 1.5 1.5zm6.06 0c0 .83-.67 1.5-1.5 1.5s-1.5-.67-1.5-1.5.67-1.5 1.5-1.5 1.5.67 1.5 1.5zm6.07 0c0 .83-.68 1.5-1.5 1.5-.84 0-1.5-.67-1.5-1.5s.66-1.5 1.5-1.5c.82 0 1.5.67 1.5 1.5zm6.05 0c0 .83-.67 1.5-1.5 1.5s-1.5-.67-1.5-1.5.67-1.5 1.5-1.5 1.5.67 1.5 1.5zm6.07 0c0 .83-.68 1.5-1.5 1.5-.83 0-1.5-.67-1.5-1.5s.67-1.5 1.5-1.5c.82 0 1.5.67 1.5 1.5zm6.06 0c0 .83-.67 1.5-1.5 1.5s-1.5-.67-1.5-1.5.67-1.5 1.5-1.5 1.5.67 1.5 1.5zm6.07 0c0 .83-.68 1.5-1.5 1.5-.83 0-1.5-.67-1.5-1.5s.67-1.5 1.5-1.5c.82 0 1.5.67 1.5 1.5zm6.06 0c0 .83-.66 1.5-1.5 1.5-.82 0-1.5-.67-1.5-1.5s.68-1.5 1.5-1.5c.84 0 1.5.67 1.5 1.5zm6.07 0c0 .83-.67 1.5-1.5 1.5-.82 0-1.5-.67-1.5-1.5s.68-1.5 1.5-1.5c.83 0 1.5.67 1.5 1.5zm6.07 0c0 .83-.67 1.5-1.5 1.5s-1.5-.67-1.5-1.5.67-1.5 1.5-1.5 1.5.67 1.5 1.5zm6.06 0c0 .83-.67 1.5-1.5 1.5s-1.5-.67-1.5-1.5.67-1.5 1.5-1.5 1.5.67 1.5 1.5zm6.07 0c0 .83-.67 1.5-1.5 1.5s-1.5-.67-1.5-1.5.67-1.5 1.5-1.5 1.5.67 1.5 1.5zm6.06 0c0 .83-.67 1.5-1.5 1.5s-1.5-.67-1.5-1.5.67-1.5 1.5-1.5 1.5.67 1.5 1.5zm6.07 0c0 .83-.67 1.5-1.5 1.5s-1.5-.67-1.5-1.5.67-1.5 1.5-1.5 1.5.67 1.5 1.5zm6.06 0c0 .83-.67 1.5-1.5 1.5s-1.5-.67-1.5-1.5.67-1.5 1.5-1.5 1.5.67 1.5 1.5zm6.07 0c0 .83-.68 1.5-1.5 1.5-.83 0-1.5-.67-1.5-1.5s.67-1.5 1.5-1.5c.82 0 1.5.67 1.5 1.5zm6.06 0c0 .83-.68 1.5-1.5 1.5-.84 0-1.5-.67-1.5-1.5s.66-1.5 1.5-1.5c.82 0 1.5.67 1.5 1.5zm6.05 0c0 .83-.67 1.5-1.5 1.5-.82 0-1.5-.67-1.5-1.5s.68-1.5 1.5-1.5c.83 0 1.5.67 1.5 1.5zm6.07 0c0 .83-.67 1.5-1.5 1.5s-1.5-.67-1.5-1.5.67-1.5 1.5-1.5 1.5.67 1.5 1.5zm6.06 0c0 .83-.67 1.5-1.5 1.5-.82 0-1.5-.67-1.5-1.5s.68-1.5 1.5-1.5c.83 0 1.5.67 1.5 1.5zm6.07 0c0 .83-.67 1.5-1.5 1.5s-1.5-.67-1.5-1.5.67-1.5 1.5-1.5 1.5.67 1.5 1.5zm6.06 0c0 .83-.66 1.5-1.5 1.5-.82 0-1.5-.67-1.5-1.5s.68-1.5 1.5-1.5c.84 0 1.5.67 1.5 1.5zm6.08 0c0 .83-.67 1.5-1.5 1.5s-1.5-.67-1.5-1.5.67-1.5 1.5-1.5 1.5.67 1.5 1.5zm6.06 0c0 .83-.67 1.5-1.5 1.5s-1.5-.67-1.5-1.5.67-1.5 1.5-1.5 1.5.67 1.5 1.5zm6.07 0c0 .83-.67 1.5-1.5 1.5-.82 0-1.5-.67-1.5-1.5s.68-1.5 1.5-1.5c.83 0 1.5.67 1.5 1.5zm6.07 0c0 .83-.67 1.5-1.5 1.5s-1.5-.67-1.5-1.5.67-1.5 1.5-1.5 1.5.67 1.5 1.5zm6.07 0c0 .83-.68 1.5-1.5 1.5-.83 0-1.5-.67-1.5-1.5s.67-1.5 1.5-1.5c.82 0 1.5.67 1.5 1.5zm6.06 0c0 .83-.67 1.5-1.5 1.5s-1.5-.67-1.5-1.5.67-1.5 1.5-1.5 1.5.67 1.5 1.5zm4.1 1.9c0 .82-.67 1.5-1.5 1.5-.82 0-1.5-.68-1.5-1.5 0-.83.68-1.5 1.5-1.5.83 0 1.5.67 1.5 1.5zm1.9 4.1c0 .83-.67 1.5-1.5 1.5s-1.5-.67-1.5-1.5.67-1.5 1.5-1.5 1.5.67 1.5 1.5zm0 5.93c0 .83-.67 1.5-1.5 1.5s-1.5-.67-1.5-1.5.67-1.5 1.5-1.5 1.5.67 1.5 1.5zm0 5.93c0 .83-.67 1.5-1.5 1.5s-1.5-.67-1.5-1.5.67-1.5 1.5-1.5 1.5.67 1.5 1.5zm0 5.93c0 .82-.67 1.5-1.5 1.5s-1.5-.68-1.5-1.5c0-.84.67-1.5 1.5-1.5s1.5.66 1.5 1.5zm0 5.92c0 .83-.67 1.5-1.5 1.5s-1.5-.67-1.5-1.5.67-1.5 1.5-1.5 1.5.67 1.5 1.5zm0 5.93c0 .83-.67 1.5-1.5 1.5s-1.5-.67-1.5-1.5.67-1.5 1.5-1.5 1.5.67 1.5 1.5zm0 5.93c0 .83-.67 1.5-1.5 1.5s-1.5-.67-1.5-1.5.67-1.5 1.5-1.5 1.5.67 1.5 1.5zm0 5.93c0 .83-.67 1.5-1.5 1.5s-1.5-.67-1.5-1.5c0-.82.67-1.5 1.5-1.5s1.5.68 1.5 1.5zm0 5.94c0 .82-.67 1.5-1.5 1.5s-1.5-.68-1.5-1.5c0-.83.67-1.5 1.5-1.5s1.5.67 1.5 1.5zm0 5.93c0 .82-.67 1.5-1.5 1.5s-1.5-.68-1.5-1.5c0-.83.67-1.5 1.5-1.5s1.5.67 1.5 1.5zm0 5.93c0 .82-.67 1.5-1.5 1.5s-1.5-.68-1.5-1.5c0-.83.67-1.5 1.5-1.5s1.5.67 1.5 1.5zm0 5.92c0 .83-.67 1.5-1.5 1.5s-1.5-.67-1.5-1.5c0-.82.67-1.5 1.5-1.5s1.5.68 1.5 1.5zm0 5.93c0 .83-.67 1.5-1.5 1.5s-1.5-.67-1.5-1.5c0-.82.67-1.5 1.5-1.5s1.5.68 1.5 1.5zm0 5.93c0 .83-.67 1.5-1.5 1.5s-1.5-.67-1.5-1.5c0-.82.67-1.5 1.5-1.5s1.5.68 1.5 1.5zm0 5.93c0 .84-.67 1.5-1.5 1.5s-1.5-.66-1.5-1.5c0-.82.67-1.5 1.5-1.5s1.5.68 1.5 1.5zm0 5.94c0 .83-.67 1.5-1.5 1.5s-1.5-.67-1.5-1.5.67-1.5 1.5-1.5 1.5.67 1.5 1.5zm0 5.93c0 .83-.67 1.5-1.5 1.5s-1.5-.67-1.5-1.5.67-1.5 1.5-1.5 1.5.67 1.5 1.5zm0 5.93c0 .83-.67 1.5-1.5 1.5s-1.5-.67-1.5-1.5.67-1.5 1.5-1.5 1.5.67 1.5 1.5zm0 5.93c0 .83-.67 1.5-1.5 1.5s-1.5-.67-1.5-1.5.67-1.5 1.5-1.5 1.5.67 1.5 1.5zm0 5.93c0 .83-.67 1.5-1.5 1.5s-1.5-.67-1.5-1.5.67-1.5 1.5-1.5 1.5.67 1.5 1.5zm0 5.93c0 .82-.67 1.5-1.5 1.5s-1.5-.68-1.5-1.5c0-.84.67-1.5 1.5-1.5s1.5.66 1.5 1.5zm0 5.92c0 .83-.67 1.5-1.5 1.5s-1.5-.67-1.5-1.5.67-1.5 1.5-1.5 1.5.67 1.5 1.5zm-1.9 4.1c0 .83-.67 1.5-1.5 1.5-.82 0-1.5-.67-1.5-1.5 0-.82.68-1.5 1.5-1.5.83 0 1.5.68 1.5 1.5zm-4.1 1.9c0 .83-.67 1.5-1.5 1.5s-1.5-.67-1.5-1.5.67-1.5 1.5-1.5 1.5.67 1.5 1.5zm-6.06 0c0 .83-.68 1.5-1.5 1.5-.83 0-1.5-.67-1.5-1.5s.67-1.5 1.5-1.5c.82 0 1.5.67 1.5 1.5zm-6.07 0c0 .83-.67 1.5-1.5 1.5s-1.5-.67-1.5-1.5.67-1.5 1.5-1.5 1.5.67 1.5 1.5zm-6.06 0c0 .83-.67 1.5-1.5 1.5-.82 0-1.5-.67-1.5-1.5s.68-1.5 1.5-1.5c.83 0 1.5.67 1.5 1.5zm-6.06 0c0 .83-.67 1.5-1.5 1.5s-1.5-.67-1.5-1.5.67-1.5 1.5-1.5 1.5.67 1.5 1.5zm-6.06 0c0 .83-.67 1.5-1.5 1.5s-1.5-.67-1.5-1.5.67-1.5 1.5-1.5 1.5.67 1.5 1.5zm-6.07 0c0 .83-.66 1.5-1.5 1.5-.82 0-1.5-.67-1.5-1.5s.68-1.5 1.5-1.5c.84 0 1.5.67 1.5 1.5zm-6.05 0c0 .83-.67 1.5-1.5 1.5s-1.5-.67-1.5-1.5.67-1.5 1.5-1.5 1.5.67 1.5 1.5zm-6.07 0c0 .83-.67 1.5-1.5 1.5-.82 0-1.5-.67-1.5-1.5s.68-1.5 1.5-1.5c.83 0 1.5.67 1.5 1.5zm-6.06 0c0 .83-.67 1.5-1.5 1.5s-1.5-.67-1.5-1.5.67-1.5 1.5-1.5 1.5.67 1.5 1.5zm-6.07 0c0 .83-.67 1.5-1.5 1.5-.82 0-1.5-.67-1.5-1.5s.68-1.5 1.5-1.5c.83 0 1.5.67 1.5 1.5zm-6.06 0c0 .83-.68 1.5-1.5 1.5-.84 0-1.5-.67-1.5-1.5s.66-1.5 1.5-1.5c.82 0 1.5.67 1.5 1.5zm-6.07 0c0 .83-.68 1.5-1.5 1.5-.83 0-1.5-.67-1.5-1.5s.67-1.5 1.5-1.5c.82 0 1.5.67 1.5 1.5zm-6.07 0c0 .83-.67 1.5-1.5 1.5s-1.5-.67-1.5-1.5.67-1.5 1.5-1.5 1.5.67 1.5 1.5zm-6.06 0c0 .83-.67 1.5-1.5 1.5s-1.5-.67-1.5-1.5.67-1.5 1.5-1.5 1.5.67 1.5 1.5zm-6.07 0c0 .83-.67 1.5-1.5 1.5s-1.5-.67-1.5-1.5.67-1.5 1.5-1.5 1.5.67 1.5 1.5zm-6.06 0c0 .83-.67 1.5-1.5 1.5s-1.5-.67-1.5-1.5.67-1.5 1.5-1.5 1.5.67 1.5 1.5zm-6.07 0c0 .83-.67 1.5-1.5 1.5s-1.5-.67-1.5-1.5.67-1.5 1.5-1.5 1.5.67 1.5 1.5zm-6.06 0c0 .83-.67 1.5-1.5 1.5s-1.5-.67-1.5-1.5.67-1.5 1.5-1.5 1.5.67 1.5 1.5zm-6.07 0c0 .83-.67 1.5-1.5 1.5-.82 0-1.5-.67-1.5-1.5s.68-1.5 1.5-1.5c.83 0 1.5.67 1.5 1.5zm-6.06 0c0 .83-.66 1.5-1.5 1.5-.82 0-1.5-.67-1.5-1.5s.68-1.5 1.5-1.5c.84 0 1.5.67 1.5 1.5zm-6.05 0c0 .83-.68 1.5-1.5 1.5-.83 0-1.5-.67-1.5-1.5s.67-1.5 1.5-1.5c.82 0 1.5.67 1.5 1.5zm-6.07 0c0 .83-.67 1.5-1.5 1.5s-1.5-.67-1.5-1.5.67-1.5 1.5-1.5 1.5.67 1.5 1.5zm-6.06 0c0 .83-.68 1.5-1.5 1.5-.83 0-1.5-.67-1.5-1.5s.67-1.5 1.5-1.5c.82 0 1.5.67 1.5 1.5zm-6.07 0c0 .83-.67 1.5-1.5 1.5s-1.5-.67-1.5-1.5.67-1.5 1.5-1.5 1.5.67 1.5 1.5zm-6.06 0c0 .83-.68 1.5-1.5 1.5-.84 0-1.5-.67-1.5-1.5s.66-1.5 1.5-1.5c.82 0 1.5.67 1.5 1.5zm-6.08 0c0 .83-.67 1.5-1.5 1.5s-1.5-.67-1.5-1.5.67-1.5 1.5-1.5 1.5.67 1.5 1.5zm-6.06 0c0 .83-.67 1.5-1.5 1.5s-1.5-.67-1.5-1.5.67-1.5 1.5-1.5 1.5.67 1.5 1.5zm-6.07 0c0 .83-.68 1.5-1.5 1.5-.83 0-1.5-.67-1.5-1.5s.67-1.5 1.5-1.5c.82 0 1.5.67 1.5 1.5zm-6.07 0c0 .83-.67 1.5-1.5 1.5s-1.5-.67-1.5-1.5.67-1.5 1.5-1.5 1.5.67 1.5 1.5zm-6.07 0c0 .83-.67 1.5-1.5 1.5-.82 0-1.5-.67-1.5-1.5s.68-1.5 1.5-1.5c.83 0 1.5.67 1.5 1.5zm-6.06 0c0 .83-.67 1.5-1.5 1.5s-1.5-.67-1.5-1.5.67-1.5 1.5-1.5 1.5.67 1.5 1.5zm-4.1-1.9c0 .83-.68 1.5-1.5 1.5-.83 0-1.5-.67-1.5-1.5 0-.82.67-1.5 1.5-1.5.82 0 1.5.68 1.5 1.5zm-1.9-4.1c0 .83-.67 1.5-1.5 1.5s-1.5-.67-1.5-1.5.67-1.5 1.5-1.5 1.5.67 1.5 1.5zm0-5.93c0 .82-.67 1.5-1.5 1.5s-1.5-.68-1.5-1.5c0-.84.67-1.5 1.5-1.5s1.5.66 1.5 1.5zm0-5.94c0 .83-.67 1.5-1.5 1.5s-1.5-.67-1.5-1.5.67-1.5 1.5-1.5 1.5.67 1.5 1.5zm0-5.93c0 .83-.67 1.5-1.5 1.5s-1.5-.67-1.5-1.5.67-1.5 1.5-1.5 1.5.67 1.5 1.5zm0-5.93c0 .83-.67 1.5-1.5 1.5s-1.5-.67-1.5-1.5.67-1.5 1.5-1.5 1.5.67 1.5 1.5zm0-5.93c0 .83-.67 1.5-1.5 1.5s-1.5-.67-1.5-1.5.67-1.5 1.5-1.5 1.5.67 1.5 1.5zm0-5.93c0 .83-.67 1.5-1.5 1.5s-1.5-.67-1.5-1.5.67-1.5 1.5-1.5 1.5.67 1.5 1.5zm0-5.93c0 .84-.67 1.5-1.5 1.5s-1.5-.66-1.5-1.5c0-.82.67-1.5 1.5-1.5s1.5.68 1.5 1.5zm0-5.92c0 .83-.67 1.5-1.5 1.5s-1.5-.67-1.5-1.5c0-.82.67-1.5 1.5-1.5s1.5.68 1.5 1.5zm0-5.93c0 .83-.67 1.5-1.5 1.5s-1.5-.67-1.5-1.5c0-.82.67-1.5 1.5-1.5s1.5.68 1.5 1.5zm0-5.93c0 .83-.67 1.5-1.5 1.5s-1.5-.67-1.5-1.5c0-.82.67-1.5 1.5-1.5s1.5.68 1.5 1.5zm0-5.92c0 .82-.67 1.5-1.5 1.5s-1.5-.68-1.5-1.5c0-.83.67-1.5 1.5-1.5s1.5.67 1.5 1.5zm0-5.93c0 .82-.67 1.5-1.5 1.5s-1.5-.68-1.5-1.5c0-.83.67-1.5 1.5-1.5s1.5.67 1.5 1.5zm0-5.93c0 .82-.67 1.5-1.5 1.5s-1.5-.68-1.5-1.5c0-.83.67-1.5 1.5-1.5s1.5.67 1.5 1.5zm0-5.93c0 .83-.67 1.5-1.5 1.5s-1.5-.67-1.5-1.5c0-.82.67-1.5 1.5-1.5s1.5.68 1.5 1.5zm0-5.92c0 .83-.67 1.5-1.5 1.5s-1.5-.67-1.5-1.5.67-1.5 1.5-1.5 1.5.67 1.5 1.5zm0-5.93c0 .83-.67 1.5-1.5 1.5s-1.5-.67-1.5-1.5.67-1.5 1.5-1.5 1.5.67 1.5 1.5zm0-5.93c0 .83-.67 1.5-1.5 1.5s-1.5-.67-1.5-1.5.67-1.5 1.5-1.5 1.5.67 1.5 1.5zm0-5.93c0 .82-.67 1.5-1.5 1.5s-1.5-.68-1.5-1.5c0-.84.67-1.5 1.5-1.5s1.5.66 1.5 1.5zm0-5.94c0 .83-.67 1.5-1.5 1.5s-1.5-.67-1.5-1.5.67-1.5 1.5-1.5 1.5.67 1.5 1.5zm0-5.93c0 .83-.67 1.5-1.5 1.5s-1.5-.67-1.5-1.5.67-1.5 1.5-1.5 1.5.67 1.5 1.5zm0-5.93c0 .83-.67 1.5-1.5 1.5s-1.5-.67-1.5-1.5.67-1.5 1.5-1.5 1.5.67 1.5 1.5z" fill="#333"/><path d="M480 86c0-3.3 2.7-6 6-6h188c3.3 0 6 2.7 6 6v48c0 3.3-2.7 6-6 6H486c-3.3 0-6-2.7-6-6z" stroke="#333" stroke-width="3" fill="#fff"/><use xlink:href="#a" transform="matrix(1,0,0,1,480,80) translate(23.49175347222223 37.677951388888886)"/><use xlink:href="#b" transform="matrix(1,0,0,1,480,80) translate(67.55859375 37.677951388888886)"/><path d="M222 220c0 .55-.45 1-1 1s-1-.45-1-1 .45-1 1-1 1 .45 1 1zm4 0c0 .55-.46 1-1 1-.56 0-1-.45-1-1s.44-1 1-1c.54 0 1 .45 1 1zm3.98 0c0 .55-.45 1-1 1s-1-.45-1-1 .45-1 1-1 1 .45 1 1zm4 0c0 .55-.46 1-1 1-.56 0-1-.45-1-1s.44-1 1-1c.54 0 1 .45 1 1zm3.98 0c0 .55-.45 1-1 1s-1-.45-1-1 .45-1 1-1 1 .45 1 1zm4 0c0 .55-.46 1-1 1-.56 0-1-.45-1-1s.44-1 1-1c.54 0 1 .45 1 1zm3.98 0c0 .55-.45 1-1 1s-1-.45-1-1 .45-1 1-1 1 .45 1 1zm4 0c0 .55-.46 1-1 1-.56 0-1-.45-1-1s.44-1 1-1c.54 0 1 .45 1 1zm3.98 0c0 .55-.45 1-1 1s-1-.45-1-1 .45-1 1-1 1 .45 1 1zm4 0c0 .55-.46 1-1 1-.56 0-1-.45-1-1s.44-1 1-1c.54 0 1 .45 1 1zm3.98 0c0 .55-.45 1-1 1s-1-.45-1-1 .45-1 1-1 1 .45 1 1zm4 0c0 .55-.46 1-1 1-.57 0-1-.45-1-1s.43-1 1-1c.54 0 1 .45 1 1zm3.98 0c0 .55-.45 1-1 1-.56 0-1-.45-1-1s.44-1 1-1c.55 0 1 .45 1 1zm4 0c0 .55-.46 1-1 1-.57 0-1-.45-1-1s.43-1 1-1c.54 0 1 .45 1 1zm3.98 0c0 .55-.45 1-1 1-.56 0-1-.45-1-1s.44-1 1-1c.55 0 1 .45 1 1zm4 0c0 .55-.46 1-1 1-.57 0-1-.45-1-1s.43-1 1-1c.54 0 1 .45 1 1zm3.98 0c0 .55-.45 1-1 1-.56 0-1-.45-1-1s.44-1 1-1c.55 0 1 .45 1 1zm4 0c0 .55-.46 1-1 1-.57 0-1-.45-1-1s.43-1 1-1c.54 0 1 .45 1 1zm3.98 0c0 .55-.45 1-1 1-.56 0-1-.45-1-1s.44-1 1-1c.55 0 1 .45 1 1zm4 0c0 .55-.46 1-1 1-.57 0-1-.45-1-1s.43-1 1-1c.54 0 1 .45 1 1zm3.97 0c0 .55-.45 1-1 1-.56 0-1-.45-1-1s.44-1 1-1c.55 0 1 .45 1 1zm3.98 0c0 .55-.44 1-1 1-.55 0-1-.45-1-1s.45-1 1-1c.56 0 1 .45 1 1zm4 0c0 .55-.45 1-1 1-.56 0-1-.45-1-1s.44-1 1-1c.55 0 1 .45 1 1zm3.98 0c0 .55-.44 1-1 1-.55 0-1-.45-1-1s.45-1 1-1c.56 0 1 .45 1 1zm4 0c0 .55-.45 1-1 1-.56 0-1-.45-1-1s.44-1 1-1c.55 0 1 .45 1 1zm3.98 0c0 .55-.44 1-1 1-.55 0-1-.45-1-1s.45-1 1-1c.56 0 1 .45 1 1zm4 0c0 .55-.45 1-1 1-.56 0-1-.45-1-1s.44-1 1-1c.55 0 1 .45 1 1zm3.98 0c0 .55-.44 1-1 1-.55 0-1-.45-1-1s.45-1 1-1c.56 0 1 .45 1 1zm4 0c0 .55-.45 1-1 1-.56 0-1-.45-1-1s.44-1 1-1c.55 0 1 .45 1 1zm3.98 0c0 .55-.45 1-1 1s-1-.45-1-1 .45-1 1-1 1 .45 1 1zm4 0c0 .55-.46 1-1 1-.56 0-1-.45-1-1s.44-1 1-1c.54 0 1 .45 1 1zm3.98 0c0 .55-.45 1-1 1s-1-.45-1-1 .45-1 1-1 1 .45 1 1zm4 0c0 .55-.46 1-1 1-.56 0-1-.45-1-1s.44-1 1-1c.54 0 1 .45 1 1zm3.98 0c0 .55-.45 1-1 1s-1-.45-1-1 .45-1 1-1 1 .45 1 1zm4 0c0 .55-.46 1-1 1-.56 0-1-.45-1-1s.44-1 1-1c.54 0 1 .45 1 1zm3.98 0c0 .55-.45 1-1 1s-1-.45-1-1 .45-1 1-1 1 .45 1 1zm4 0c0 .55-.46 1-1 1-.56 0-1-.45-1-1s.44-1 1-1c.54 0 1 .45 1 1zm3.98 0c0 .55-.45 1-1 1s-1-.45-1-1 .45-1 1-1 1 .45 1 1zm4 0c0 .55-.46 1-1 1-.56 0-1-.45-1-1s.44-1 1-1c.54 0 1 .45 1 1zm3.98 0c0 .55-.45 1-1 1s-1-.45-1-1 .45-1 1-1 1 .45 1 1zm4 0c0 .55-.46 1-1 1-.56 0-1-.45-1-1s.44-1 1-1c.54 0 1 .45 1 1zm3.98 0c0 .55-.45 1-1 1s-1-.45-1-1 .45-1 1-1 1 .45 1 1zm4 0c0 .55-.46 1-1 1-.56 0-1-.45-1-1s.44-1 1-1c.54 0 1 .45 1 1zm3.98 0c0 .55-.45 1-1 1s-1-.45-1-1 .45-1 1-1 1 .45 1 1zm4 0c0 .55-.46 1-1 1-.56 0-1-.45-1-1s.44-1 1-1c.54 0 1 .45 1 1zm3.98 0c0 .55-.45 1-1 1s-1-.45-1-1 .45-1 1-1 1 .45 1 1zm4 0c0 .55-.46 1-1 1-.56 0-1-.45-1-1s.44-1 1-1c.54 0 1 .45 1 1zm3.98 0c0 .55-.45 1-1 1s-1-.45-1-1 .45-1 1-1 1 .45 1 1zm4 0c0 .55-.46 1-1 1-.56 0-1-.45-1-1s.44-1 1-1c.54 0 1 .45 1 1zm3.98 0c0 .55-.45 1-1 1s-1-.45-1-1 .45-1 1-1 1 .45 1 1zm4 0c0 .55-.46 1-1 1-.57 0-1-.45-1-1s.43-1 1-1c.54 0 1 .45 1 1zm3.98 0c0 .55-.45 1-1 1-.56 0-1-.45-1-1s.44-1 1-1c.55 0 1 .45 1 1zm4 0c0 .55-.46 1-1 1-.57 0-1-.45-1-1s.43-1 1-1c.54 0 1 .45 1 1zm3.98 0c0 .55-.45 1-1 1-.56 0-1-.45-1-1s.44-1 1-1c.55 0 1 .45 1 1zm4 0c0 .55-.46 1-1 1-.57 0-1-.45-1-1s.43-1 1-1c.54 0 1 .45 1 1zm3.98 0c0 .55-.45 1-1 1-.56 0-1-.45-1-1s.44-1 1-1c.55 0 1 .45 1 1zm4 0c0 .55-.46 1-1 1-.57 0-1-.45-1-1s.43-1 1-1c.54 0 1 .45 1 1zm3.98 0c0 .55-.45 1-1 1-.56 0-1-.45-1-1s.44-1 1-1c.55 0 1 .45 1 1zm4 0c0 .55-.46 1-1 1-.57 0-1-.45-1-1s.43-1 1-1c.54 0 1 .45 1 1zm3.97 0c0 .55-.45 1-1 1-.56 0-1-.45-1-1s.44-1 1-1c.55 0 1 .45 1 1zm3.98 0c0 .55-.44 1-1 1-.55 0-1-.45-1-1s.45-1 1-1c.56 0 1 .45 1 1zm4 0c0 .55-.45 1-1 1-.56 0-1-.45-1-1s.44-1 1-1c.55 0 1 .45 1 1zm3.98 0c0 .55-.44 1-1 1-.55 0-1-.45-1-1s.45-1 1-1c.56 0 1 .45 1 1zm4 0c0 .55-.45 1-1 1-.56 0-1-.45-1-1s.44-1 1-1c.55 0 1 .45 1 1zm3.98 0c0 .55-.44 1-1 1-.55 0-1-.45-1-1s.45-1 1-1c.56 0 1 .45 1 1zm4 0c0 .55-.45 1-1 1-.56 0-1-.45-1-1s.44-1 1-1c.55 0 1 .45 1 1zm3.98 0c0 .55-.44 1-1 1-.55 0-1-.45-1-1s.45-1 1-1c.56 0 1 .45 1 1zm4 0c0 .55-.45 1-1 1-.56 0-1-.45-1-1s.44-1 1-1c.55 0 1 .45 1 1zm3.98 0c0 .55-.45 1-1 1s-1-.45-1-1 .45-1 1-1 1 .45 1 1zm4 0c0 .55-.46 1-1 1-.56 0-1-.45-1-1s.44-1 1-1c.54 0 1 .45 1 1zm3.98 0c0 .55-.45 1-1 1s-1-.45-1-1 .45-1 1-1 1 .45 1 1zm4 0c0 .55-.46 1-1 1-.56 0-1-.45-1-1s.44-1 1-1c.54 0 1 .45 1 1zm3.98 0c0 .55-.45 1-1 1s-1-.45-1-1 .45-1 1-1 1 .45 1 1zm4 0c0 .55-.46 1-1 1-.56 0-1-.45-1-1s.44-1 1-1c.54 0 1 .45 1 1zm3.98 0c0 .55-.45 1-1 1s-1-.45-1-1 .45-1 1-1 1 .45 1 1zm4 0c0 .55-.46 1-1 1-.56 0-1-.45-1-1s.44-1 1-1c.54 0 1 .45 1 1zm3.98 0c0 .55-.45 1-1 1s-1-.45-1-1 .45-1 1-1 1 .45 1 1zm4 0c0 .55-.46 1-1 1-.56 0-1-.45-1-1s.44-1 1-1c.54 0 1 .45 1 1zm3.98 0c0 .55-.45 1-1 1s-1-.45-1-1 .45-1 1-1 1 .45 1 1zm4 0c0 .55-.46 1-1 1-.56 0-1-.45-1-1s.44-1 1-1c.54 0 1 .45 1 1zm3.98 0c0 .55-.45 1-1 1s-1-.45-1-1 .45-1 1-1 1 .45 1 1zm4 0c0 .55-.46 1-1 1-.56 0-1-.45-1-1s.44-1 1-1c.54 0 1 .45 1 1zm3.98 0c0 .55-.45 1-1 1s-1-.45-1-1 .45-1 1-1 1 .45 1 1zm4 0c0 .55-.46 1-1 1-.56 0-1-.45-1-1s.44-1 1-1c.54 0 1 .45 1 1zm3.98 0c0 .55-.45 1-1 1s-1-.45-1-1 .45-1 1-1 1 .45 1 1zm4 0c0 .55-.46 1-1 1-.56 0-1-.45-1-1s.44-1 1-1c.54 0 1 .45 1 1zm3.98 0c0 .55-.45 1-1 1s-1-.45-1-1 .45-1 1-1 1 .45 1 1zm4 0c0 .55-.46 1-1 1-.56 0-1-.45-1-1s.44-1 1-1c.54 0 1 .45 1 1zm3.98 0c0 .55-.45 1-1 1s-1-.45-1-1 .45-1 1-1 1 .45 1 1zm4 0c0 .55-.46 1-1 1-.57 0-1-.45-1-1s.43-1 1-1c.54 0 1 .45 1 1zm3.98 0c0 .55-.45 1-1 1-.56 0-1-.45-1-1s.44-1 1-1c.55 0 1 .45 1 1zm4 0c0 .55-.46 1-1 1-.57 0-1-.45-1-1s.43-1 1-1c.54 0 1 .45 1 1zm3.98 0c0 .55-.45 1-1 1-.56 0-1-.45-1-1s.44-1 1-1c.55 0 1 .45 1 1zm4 0c0 .55-.46 1-1 1-.57 0-1-.45-1-1s.43-1 1-1c.54 0 1 .45 1 1zm3.98 0c0 .55-.45 1-1 1-.56 0-1-.45-1-1s.44-1 1-1c.55 0 1 .45 1 1zm4 0c0 .55-.46 1-1 1-.57 0-1-.45-1-1s.43-1 1-1c.54 0 1 .45 1 1zm3.98 0c0 .55-.45 1-1 1-.56 0-1-.45-1-1s.44-1 1-1c.55 0 1 .45 1 1zm4 0c0 .55-.46 1-1 1-.57 0-1-.45-1-1s.43-1 1-1c.54 0 1 .45 1 1zm3.97 0c0 .55-.45 1-1 1-.56 0-1-.45-1-1s.44-1 1-1c.55 0 1 .45 1 1zm3.98 0c0 .55-.44 1-1 1-.55 0-1-.45-1-1s.45-1 1-1c.56 0 1 .45 1 1zm4 0c0 .55-.45 1-1 1-.56 0-1-.45-1-1s.44-1 1-1c.55 0 1 .45 1 1zm3.98 0c0 .55-.44 1-1 1-.55 0-1-.45-1-1s.45-1 1-1c.56 0 1 .45 1 1zm4 0c0 .55-.45 1-1 1-.56 0-1-.45-1-1s.44-1 1-1c.55 0 1 .45 1 1zm3.98 0c0 .55-.44 1-1 1-.55 0-1-.45-1-1s.45-1 1-1c.56 0 1 .45 1 1zm4 0c0 .55-.45 1-1 1-.56 0-1-.45-1-1s.44-1 1-1c.55 0 1 .45 1 1zm3.98 0c0 .55-.44 1-1 1-.55 0-1-.45-1-1s.45-1 1-1c.56 0 1 .45 1 1zm4 0c0 .55-.45 1-1 1-.56 0-1-.45-1-1s.44-1 1-1c.55 0 1 .45 1 1zm3.98 0c0 .55-.45 1-1 1s-1-.45-1-1 .45-1 1-1 1 .45 1 1zm4 0c0 .55-.46 1-1 1-.56 0-1-.45-1-1s.44-1 1-1c.54 0 1 .45 1 1zm3.98 0c0 .55-.45 1-1 1s-1-.45-1-1 .45-1 1-1 1 .45 1 1zm4 0c0 .55-.46 1-1 1-.56 0-1-.45-1-1s.44-1 1-1c.54 0 1 .45 1 1zm3.98 0c0 .55-.45 1-1 1s-1-.45-1-1 .45-1 1-1 1 .45 1 1zm4 0c0 .55-.46 1-1 1-.56 0-1-.45-1-1s.44-1 1-1c.54 0 1 .45 1 1zm3.98 0c0 .55-.45 1-1 1s-1-.45-1-1 .45-1 1-1 1 .45 1 1zm4 0c0 .55-.46 1-1 1-.56 0-1-.45-1-1s.44-1 1-1c.54 0 1 .45 1 1zm3.98 0c0 .55-.45 1-1 1s-1-.45-1-1 .45-1 1-1 1 .45 1 1zm4 0c0 .55-.46 1-1 1-.56 0-1-.45-1-1s.44-1 1-1c.54 0 1 .45 1 1zm3.98 0c0 .55-.45 1-1 1s-1-.45-1-1 .45-1 1-1 1 .45 1 1zm4 0c0 .55-.46 1-1 1-.56 0-1-.45-1-1s.44-1 1-1c.54 0 1 .45 1 1zm3.98 0c0 .55-.45 1-1 1s-1-.45-1-1 .45-1 1-1 1 .45 1 1zm4 0c0 .55-.46 1-1 1-.56 0-1-.45-1-1s.44-1 1-1c.54 0 1 .45 1 1zm3.98 0c0 .55-.45 1-1 1s-1-.45-1-1 .45-1 1-1 1 .45 1 1zm4 0c0 .55-.46 1-1 1-.56 0-1-.45-1-1s.44-1 1-1c.54 0 1 .45 1 1zm3.98 0c0 .55-.45 1-1 1s-1-.45-1-1 .45-1 1-1 1 .45 1 1zm4 0c0 .55-.46 1-1 1-.56 0-1-.45-1-1s.44-1 1-1c.54 0 1 .45 1 1zm3.98 0c0 .55-.45 1-1 1s-1-.45-1-1 .45-1 1-1 1 .45 1 1zm4 0c0 .55-.46 1-1 1-.56 0-1-.45-1-1s.44-1 1-1c.54 0 1 .45 1 1zm3.98 0c0 .55-.45 1-1 1s-1-.45-1-1 .45-1 1-1 1 .45 1 1zm4 0c0 .55-.46 1-1 1-.57 0-1-.45-1-1s.43-1 1-1c.54 0 1 .45 1 1zm3.98 0c0 .55-.45 1-1 1-.56 0-1-.45-1-1s.44-1 1-1c.55 0 1 .45 1 1zm4 0c0 .55-.46 1-1 1-.57 0-1-.45-1-1s.43-1 1-1c.54 0 1 .45 1 1zm3.98 0c0 .55-.45 1-1 1-.56 0-1-.45-1-1s.44-1 1-1c.55 0 1 .45 1 1zm4 0c0 .55-.46 1-1 1-.57 0-1-.45-1-1s.43-1 1-1c.54 0 1 .45 1 1zm3.98 0c0 .55-.45 1-1 1-.56 0-1-.45-1-1s.44-1 1-1c.55 0 1 .45 1 1zm4 0c0 .55-.46 1-1 1-.57 0-1-.45-1-1s.43-1 1-1c.54 0 1 .45 1 1zm3.98 0c0 .55-.45 1-1 1-.56 0-1-.45-1-1s.44-1 1-1c.55 0 1 .45 1 1zm4 0c0 .55-.46 1-1 1-.57 0-1-.45-1-1s.43-1 1-1c.54 0 1 .45 1 1zm3.97 0c0 .55-.45 1-1 1-.56 0-1-.45-1-1s.44-1 1-1c.55 0 1 .45 1 1zm3.98 0c0 .55-.44 1-1 1-.55 0-1-.45-1-1s.45-1 1-1c.56 0 1 .45 1 1zm4 0c0 .55-.45 1-1 1-.56 0-1-.45-1-1s.44-1 1-1c.55 0 1 .45 1 1zm3.98 0c0 .55-.44 1-1 1-.55 0-1-.45-1-1s.45-1 1-1c.56 0 1 .45 1 1zm4 0c0 .55-.45 1-1 1-.56 0-1-.45-1-1s.44-1 1-1c.55 0 1 .45 1 1zm3.98 0c0 .55-.44 1-1 1-.55 0-1-.45-1-1s.45-1 1-1c.56 0 1 .45 1 1zm4 0c0 .55-.45 1-1 1-.56 0-1-.45-1-1s.44-1 1-1c.55 0 1 .45 1 1zm3.98 0c0 .55-.44 1-1 1-.55 0-1-.45-1-1s.45-1 1-1c.56 0 1 .45 1 1zm4 0c0 .55-.45 1-1 1-.56 0-1-.45-1-1s.44-1 1-1c.55 0 1 .45 1 1zm3.98 0c0 .55-.45 1-1 1s-1-.45-1-1 .45-1 1-1 1 .45 1 1zm4 0c0 .55-.46 1-1 1-.56 0-1-.45-1-1s.44-1 1-1c.54 0 1 .45 1 1zm3.98 0c0 .55-.45 1-1 1s-1-.45-1-1 .45-1 1-1 1 .45 1 1zm4 0c0 .55-.46 1-1 1-.56 0-1-.45-1-1s.44-1 1-1c.54 0 1 .45 1 1zm3.98 0c0 .55-.45 1-1 1s-1-.45-1-1 .45-1 1-1 1 .45 1 1zm4 0c0 .55-.46 1-1 1-.56 0-1-.45-1-1s.44-1 1-1c.54 0 1 .45 1 1zm3.98 0c0 .55-.45 1-1 1s-1-.45-1-1 .45-1 1-1 1 .45 1 1zm4 0c0 .55-.46 1-1 1-.56 0-1-.45-1-1s.44-1 1-1c.54 0 1 .45 1 1zm3.98 0c0 .55-.45 1-1 1s-1-.45-1-1 .45-1 1-1 1 .45 1 1zm4 0c0 .55-.46 1-1 1-.56 0-1-.45-1-1s.44-1 1-1c.54 0 1 .45 1 1zm3.98 0c0 .55-.45 1-1 1s-1-.45-1-1 .45-1 1-1 1 .45 1 1zm4 0c0 .55-.46 1-1 1-.56 0-1-.45-1-1s.44-1 1-1c.54 0 1 .45 1 1zm3.98 0c0 .55-.45 1-1 1s-1-.45-1-1 .45-1 1-1 1 .45 1 1zm4 0c0 .55-.46 1-1 1-.56 0-1-.45-1-1s.44-1 1-1c.54 0 1 .45 1 1zm3.98 0c0 .55-.45 1-1 1s-1-.45-1-1 .45-1 1-1 1 .45 1 1zm4 0c0 .55-.46 1-1 1-.56 0-1-.45-1-1s.44-1 1-1c.54 0 1 .45 1 1zm3.98 0c0 .55-.45 1-1 1s-1-.45-1-1 .45-1 1-1 1 .45 1 1zm4 0c0 .55-.46 1-1 1-.56 0-1-.45-1-1s.44-1 1-1c.54 0 1 .45 1 1zm3.98 0c0 .55-.45 1-1 1s-1-.45-1-1 .45-1 1-1 1 .45 1 1zm4 0c0 .55-.46 1-1 1-.56 0-1-.45-1-1s.44-1 1-1c.54 0 1 .45 1 1zm3.98 0c0 .55-.45 1-1 1s-1-.45-1-1 .45-1 1-1 1 .45 1 1zm4 0c0 .55-.46 1-1 1-.57 0-1-.45-1-1s.43-1 1-1c.54 0 1 .45 1 1zm3.98 0c0 .55-.45 1-1 1-.56 0-1-.45-1-1s.44-1 1-1c.55 0 1 .45 1 1zm4 0c0 .55-.46 1-1 1-.57 0-1-.45-1-1s.43-1 1-1c.54 0 1 .45 1 1zm3.98 0c0 .55-.45 1-1 1-.56 0-1-.45-1-1s.44-1 1-1c.55 0 1 .45 1 1zm4 0c0 .55-.46 1-1 1-.57 0-1-.45-1-1s.43-1 1-1c.54 0 1 .45 1 1zm3.98 0c0 .55-.45 1-1 1-.56 0-1-.45-1-1s.44-1 1-1c.55 0 1 .45 1 1zm4 0c0 .55-.46 1-1 1-.57 0-1-.45-1-1s.43-1 1-1c.54 0 1 .45 1 1zm3.98 0c0 .55-.45 1-1 1-.56 0-1-.45-1-1s.44-1 1-1c.55 0 1 .45 1 1zm4 0c0 .55-.46 1-1 1-.57 0-1-.45-1-1s.43-1 1-1c.54 0 1 .45 1 1zm3.97 0c0 .55-.45 1-1 1-.56 0-1-.45-1-1s.44-1 1-1c.55 0 1 .45 1 1zm3.98 0c0 .55-.44 1-1 1-.55 0-1-.45-1-1s.45-1 1-1c.56 0 1 .45 1 1zm4 0c0 .55-.45 1-1 1-.56 0-1-.45-1-1s.44-1 1-1c.55 0 1 .45 1 1zm3.98 0c0 .55-.44 1-1 1-.55 0-1-.45-1-1s.45-1 1-1c.56 0 1 .45 1 1zm4 0c0 .55-.45 1-1 1-.56 0-1-.45-1-1s.44-1 1-1c.55 0 1 .45 1 1zm3.98 0c0 .55-.44 1-1 1-.55 0-1-.45-1-1s.45-1 1-1c.56 0 1 .45 1 1zm4 0c0 .55-.45 1-1 1-.56 0-1-.45-1-1s.44-1 1-1c.55 0 1 .45 1 1zm3.98 0c0 .55-.44 1-1 1-.55 0-1-.45-1-1s.45-1 1-1c.56 0 1 .45 1 1zm4 0c0 .55-.45 1-1 1-.56 0-1-.45-1-1s.44-1 1-1c.55 0 1 .45 1 1zm3.98 0c0 .55-.45 1-1 1s-1-.45-1-1 .45-1 1-1 1 .45 1 1zm4 0c0 .55-.46 1-1 1-.56 0-1-.45-1-1s.44-1 1-1c.54 0 1 .45 1 1zm3.98 0c0 .55-.45 1-1 1s-1-.45-1-1 .45-1 1-1 1 .45 1 1zm4 0c0 .55-.46 1-1 1-.56 0-1-.45-1-1s.44-1 1-1c.54 0 1 .45 1 1zm3.98 0c0 .55-.45 1-1 1s-1-.45-1-1 .45-1 1-1 1 .45 1 1zm4 0c0 .55-.46 1-1 1-.56 0-1-.45-1-1s.44-1 1-1c.54 0 1 .45 1 1zm3.98 0c0 .55-.45 1-1 1s-1-.45-1-1 .45-1 1-1 1 .45 1 1zm4 0c0 .55-.46 1-1 1-.56 0-1-.45-1-1s.44-1 1-1c.54 0 1 .45 1 1zm3.98 0c0 .55-.45 1-1 1s-1-.45-1-1 .45-1 1-1 1 .45 1 1zm4 0c0 .55-.46 1-1 1-.56 0-1-.45-1-1s.44-1 1-1c.54 0 1 .45 1 1z" fill="#333"/><path d="M221.03 220H220M998.97 220h1.03" stroke="#333" stroke-width="2" fill="none"/><path d="M900 186c0-3.3 2.7-6 6-6h88c3.3 0 6 2.7 6 6v28c0 3.3-2.7 6-6 6h-88c-3.3 0-6-2.7-6-6z" stroke="#000" stroke-opacity="0" stroke-width="3" fill="#fff" fill-opacity="0"/><use xlink:href="#c" transform="matrix(1,0,0,1,905,185) translate(51.98459201388893 22.677951388888864)"/><path d="M260 285.75c0-3.3 2.7-6 6-6h168c3.3 0 6 2.7 6 6v48c0 3.3-2.7 6-6 6H266c-3.3 0-6-2.7-6-6z" stroke="#333" stroke-width="3" fill="#fff"/><use xlink:href="#d" transform="matrix(1,0,0,1,269,288.75) translate(3.2683376736111143 30.740451388888886)"/><use xlink:href="#e" transform="matrix(1,0,0,1,269,288.75) translate(54.90245225694444 30.740451388888886)"/><use xlink:href="#f" transform="matrix(1,0,0,1,269,288.75) translate(126.2783203125 30.740451388888886)"/><path d="M720 286c0-3.3 2.7-6 6-6h188c3.3 0 6 2.7 6 6v48c0 3.3-2.7 6-6 6H726c-3.3 0-6-2.7-6-6z" stroke="#333" stroke-width="3" fill="#fff"/><use xlink:href="#g" transform="matrix(1,0,0,1,729,289) translate(50.53179253472223 30.740451388888886)"/><use xlink:href="#f" transform="matrix(1,0,0,1,729,289) translate(99.01486545138889 30.740451388888886)"/><path d="M700 456.15c0-3.32 2.7-6 6-6h28c3.3 0 6 2.68 6 6v28c0 3.3-2.7 6-6 6h-28c-3.3 0-6-2.7-6-6z" stroke="#333" stroke-width="3" fill="#fff"/><use xlink:href="#h" transform="matrix(1,0,0,1,700,450.14549339701375) translate(5.611436631944446 27.802951388888886)"/><path d="M820 456.15c0-3.32 2.7-6 6-6h28c3.3 0 6 2.68 6 6v28c0 3.3-2.7 6-6 6h-28c-3.3 0-6-2.7-6-6z" stroke="#333" stroke-width="3" fill="#fff"/><use xlink:href="#i" transform="matrix(1,0,0,1,820,450.14549339701375) translate(3.7613932291666714 27.802951388888886)"/><path d="M740 449.48c0-3.3 2.7-6 6-6h68c3.3 0 6 2.7 6 6v39.43c0 3.32-2.7 6-6 6h-68c-3.3 0-6-2.68-6-6z" stroke="#000" stroke-opacity="0" stroke-width="3" fill="#fff" fill-opacity="0"/><use xlink:href="#j" transform="matrix(1,0,0,1,745,448.4804289743762) translate(21.840820312500007 33.54947916666665)"/><path d="M260 486c0-3.3 2.7-6 6-6h228c3.3 0 6 2.7 6 6v48c0 3.3-2.7 6-6 6H266c-3.3 0-6-2.7-6-6z" stroke="#000" stroke-opacity="0" stroke-width="3" fill="#fff" fill-opacity="0"/><use xlink:href="#k" transform="matrix(1,0,0,1,265,485) translate(72.53255208333337 32.052951388888864)"/><use xlink:href="#l" transform="matrix(1,0,0,1,265,485) translate(112.4099392361111 32.052951388888864)"/><path d="M260 526c0-3.3 2.7-6 6-6h228c3.3 0 6 2.7 6 6v21.2c0 3.3-2.7 6-6 6H266c-3.3 0-6-2.7-6-6z" stroke="#000" stroke-opacity="0" stroke-width="3" fill="#fff" fill-opacity="0"/><use xlink:href="#m" transform="matrix(1,0,0,1,265,525) translate(54.48350694444456 17.993055555555525)"/><use xlink:href="#n" transform="matrix(1,0,0,1,265,525) translate(125.3862847222222 17.993055555555525)"/><use xlink:href="#o" transform="matrix(1,0,0,1,265,525) translate(165.53385416666657 17.993055555555525)"/><path d="M680 506c0-3.3 2.7-6 6-6h188c3.3 0 6 2.7 6 6v36.57c0 3.32-2.7 6-6 6H686c-3.3 0-6-2.68-6-6z" stroke="#000" stroke-opacity="0" stroke-width="3" fill="#fff" fill-opacity="0"/><use xlink:href="#p" transform="matrix(1,0,0,1,685,505) translate(23.689778645833414 27.552951388888864)"/><use xlink:href="#q" transform="matrix(1,0,0,1,685,505) translate(113.24381510416664 27.552951388888864)"/><path d="M367.5 192.25l-2.93 7.36-2.72 7.84-2.5 8.3-2.24 8.7-1.93 9.15-1.6 9.5-1.25 9.8-.58 6.95-2-.17.6-6.98 1.24-9.9 1.62-9.58 1.96-9.22 2.26-8.8 2.53-8.38 2.75-7.9 2.94-7.44 2.2-4.92H370zm110.02-81.23l-4.27.1-5.05.3-4.87.52-4.72.7-4.57.87-4.46 1.05-4.34 1.22-4.25 1.38-4.16 1.55-4.1 1.7-4 1.9-3.96 2.07-3.9 2.26-3.86 2.44-3.82 2.66-3.78 2.86-3.74 3.1-3.7 3.33-3.7 3.6-.23.26h-2.74l1.54-1.66 3.74-3.66 3.77-3.4 3.8-3.15 3.85-2.92 3.9-2.7 3.92-2.5 3.97-2.28 4.02-2.1 4.1-1.93 4.16-1.76 4.24-1.58 4.33-1.4 4.42-1.24 4.54-1.07 4.68-.9 4.8-.7 4.96-.52 5.13-.32 4.3-.08z" fill="#333"/><path d="M478.5 111l-1 .02-.05-2 1.05-.02zM355.34 260.95l-5.2 14.07-4.07-14.44z" fill="#333"/><path d="M356.75 260L350 278.25l-5.26-18.73zm-6.5 11.78l3.67-9.9-6.5-.25z" fill="#333"/><use xlink:href="#r" transform="matrix(1,0,0,1,352.0623990851125,144.89167122925704) translate(0.004999999999999005 16.49305555555555)"/><use xlink:href="#s" transform="matrix(1,0,0,1,352.0623990851125,144.89167122925704) translate(34.12826388888888 16.49305555555555)"/><use xlink:href="#t" transform="matrix(1,0,0,1,352.0623990851125,144.89167122925704) translate(6.636944444444445 37.32638888888887)"/><path d="M802.1 190.57l3.1 6.98 2.9 7.32 2.68 7.68 2.42 8 2.13 8.3 1.83 8.6 1.5 8.83 1.13 9.04.38 4.62-2 .17-.38-4.57-1.13-8.96-1.48-8.75-1.82-8.5-2.1-8.23-2.4-7.93-2.64-7.6-2.87-7.25-3.07-6.9-3.25-6.54-.03-.06h2.23zm-114.77-81.45l5.65.36 5.47.57 5.33.8 5.2.98 5.05 1.18 4.95 1.4 4.86 1.57 4.76 1.77 4.67 1.97 4.6 2.17 4.53 2.37 4.46 2.58 4.4 2.8 4.35 3 4.3 3.27 4.22 3.48 4.17 3.76h-2.98l-2.5-2.24-4.17-3.45-4.22-3.2-4.27-2.97-4.33-2.75-4.4-2.53-4.45-2.33-4.52-2.13-4.6-1.94-4.68-1.74-4.77-1.55-4.87-1.35-4.98-1.17-5.1-.97-5.25-.76-5.4-.57-5.55-.35-4.77-.1.04-2z" fill="#333"/><path d="M682.55 109.02l-.04 2-1-.02v-2zM819.86 275.27l-5.27-14.05 9.26-.4z" fill="#333"/><path d="M820 278.5l-6.82-18.22 12-.53zm-4-16.34l3.7 9.87 2.83-10.16z" fill="#333"/><use xlink:href="#u" transform="matrix(1,0,0,1,757.0253800913383,143.15123617556907) translate(0.004999999999999005 16.493055555555543)"/><use xlink:href="#v" transform="matrix(1,0,0,1,757.0253800913383,143.15123617556907) translate(34.12826388888887 16.493055555555543)"/><use xlink:href="#w" transform="matrix(1,0,0,1,757.0253800913383,143.15123617556907) translate(8.772361111111103 37.32638888888886)"/><path d="M819.98 342.5l-.03.96-.13 1.88-.2 1.8-.3 1.76-.36 1.7-.44 1.67-.5 1.64-.6 1.63-.68 1.62-.77 1.62-.87 1.63-.98 1.65-1.1 1.68-1.28 1.73-1.43 1.8-1.65 1.86-1.92 1.98-2.25 2.12-2.7 2.3-3.34 2.6-4.3 3-6.03 3.85-11.96 6.8-24.25 13.4-6.05 3.84-4.3 3.03-3.32 2.6-2.7 2.3-2.26 2.12-1.92 1.97-1.66 1.87-1.44 1.78-1.27 1.73-1.12 1.7-.98 1.65-.87 1.63-.77 1.6-.68 1.63-.6 1.64-.5 1.64-.44 1.67-.36 1.7-.3 1.75-.2 1.8-.13 1.88-.03.97" stroke="#333" stroke-width="2" fill="none"/><path d="M820.98 342.55l-2-.05.02-1h2zM721 447.62v1.03h-2v-1.03z" fill="#333"/><path d="M300 446c0-3.3 2.7-6 6-6h28c3.3 0 6 2.7 6 6v28c0 3.3-2.7 6-6 6h-28c-3.3 0-6-2.7-6-6z" stroke="#333" stroke-width="3" fill="#fff"/><use xlink:href="#x" transform="matrix(1,0,0,1,300,440) translate(6.429036458333336 27.802951388888886)"/><path d="M360 446c0-3.3 2.7-6 6-6h28c3.3 0 6 2.7 6 6v28c0 3.3-2.7 6-6 6h-28c-3.3 0-6-2.7-6-6z" stroke="#333" stroke-width="3" fill="#fff"/><use xlink:href="#y" transform="matrix(1,0,0,1,360,440) translate(6.429036458333336 27.802951388888886)"/><path d="M420 446c0-3.3 2.7-6 6-6h28c3.3 0 6 2.7 6 6v28c0 3.3-2.7 6-6 6h-28c-3.3 0-6-2.7-6-6z" stroke="#333" stroke-width="3" fill="#fff"/><use xlink:href="#z" transform="matrix(1,0,0,1,420,440) translate(6.429036458333336 27.802951388888886)"/><path d="M697.5 470.15H500" stroke="#333" stroke-width="2" fill="none"/><path d="M698.5 471.15h-1.03v-2h1.03z" fill="#333"/><path d="M484.74 470.15L499 465.5v9.28z" stroke="#333" stroke-width="2" fill="#333"/><path d="M484.4 388.1l-43 14.12-60.16 16.97-.54-1.94 60.1-16.95 42.94-14.08 12.48-4.7h5.7zm215.63-76.72l-4.66.1-14.6.97-11.25 1.22-9.23 1.4-7.98 1.55-7.2 1.7-6.77 1.93-6.72 2.22-7.08 2.67-8.26 3.52-22.24 11.2h-4.44l25.82-13.02 8.36-3.56 7.17-2.7 6.8-2.24 6.86-1.94 7.27-1.74 8.05-1.56 9.32-1.4 11.33-1.24 14.68-.97 4.7-.12z" fill="#333"/><path d="M381.07 418.5h-4.18l-.05-.15 3.87-1.1zM715.26 310.07L701.1 315l-.2-9.27z" fill="#333"/><path d="M718.5 310l-18.37 6.4-.25-12.03zm-16.43 3.6l9.96-3.47-10.1-3.05z" fill="#333"/><g><use xlink:href="#A" transform="matrix(1,0,0,1,476.42122423078507,339.8637021674941) translate(0.0049999999999954525 16.49305555555555)"/><use xlink:href="#B" transform="matrix(1,0,0,1,476.42122423078507,339.8637021674941) translate(69.1022222222222 16.49305555555555)"/><use xlink:href="#C" transform="matrix(1,0,0,1,476.42122423078507,339.8637021674941) translate(1.432951388888867 37.32638888888887)"/><use xlink:href="#D" transform="matrix(1,0,0,1,476.42122423078507,339.8637021674941) translate(94.41038194444441 37.32638888888887)"/><use xlink:href="#E" transform="matrix(1,0,0,1,476.42122423078507,339.8637021674941) translate(134.55795138888885 37.32638888888887)"/></g><path d="M488.5 305.04l-6.4 1.5-7.87 1.5-7.88 1.17-8.02.85-8.25.52-7.56.16-.04-2 7.52-.16 8.17-.5 7.93-.84 7.8-1.16 7.78-1.48 6.83-1.6zm160.9-8.25l10.36 3.36 9.06 2.54 8.48 2 8.2 1.55 8.1 1.2 6.53.68-.2 2-6.58-.7-8.2-1.2-8.27-1.6-8.56-2-9.14-2.55-10.44-3.4-7.7-3.02v-2.14z" fill="#333"/><path d="M442.55 310.73l-1.05.02v-2l1-.02zM715.27 309.85l-14.47 3.96.44-9.25z" fill="#333"/><path d="M718.5 310l-18.76 5.13.56-12zm-16.64 2.48l10.18-2.78-9.87-3.73z" fill="#333"/><g><use xlink:href="#F" transform="matrix(1,0,0,1,488.51167571726216,245.59578012491158) translate(0.0049999999999954525 16.49305555555555)"/><use xlink:href="#G" transform="matrix(1,0,0,1,488.51167571726216,245.59578012491158) translate(33.36437499999999 16.49305555555555)"/><use xlink:href="#H" transform="matrix(1,0,0,1,488.51167571726216,245.59578012491158) translate(71.66298611111108 16.49305555555555)"/><use xlink:href="#I" transform="matrix(1,0,0,1,488.51167571726216,245.59578012491158) translate(109.33659722222217 16.49305555555555)"/><use xlink:href="#J" transform="matrix(1,0,0,1,488.51167571726216,245.59578012491158) translate(2.2879861111110813 37.32638888888887)"/><use xlink:href="#K" transform="matrix(1,0,0,1,488.51167571726216,245.59578012491158) translate(35.31749999999996 37.32638888888887)"/><use xlink:href="#L" transform="matrix(1,0,0,1,488.51167571726216,245.59578012491158) translate(102.7306944444444 37.32638888888887)"/><use xlink:href="#M" transform="matrix(1,0,0,1,488.51167571726216,245.59578012491158) translate(17.852222222222196 58.1597222222222)"/><use xlink:href="#N" transform="matrix(1,0,0,1,488.51167571726216,245.59578012491158) translate(94.42340277777772 58.1597222222222)"/></g><path d="M581 219h-2v-27.83h2zm0-48.67h-2V160h2z" fill="#333"/><path d="M581 220h-2v-1.03h2zM584.64 159h-9.28l4.64-14.26z" fill="#333"/><path d="M586 160h-12l6-18.5zm-9.26-2h6.52L580 147.97z" fill="#333"/><g><use xlink:href="#O" transform="matrix(1,0,0,1,545.7552083333334,170.33274458922082) translate(0.005000000000002558 16.493055555555554)"/><use xlink:href="#P" transform="matrix(1,0,0,1,545.7552083333334,170.33274458922082) translate(35.26541666666667 16.493055555555554)"/></g><defs><path fill="#333" d="M973-380H363L226 0H28l556-1456h168L1309 0h-197zM421-538h495l-248-681" id="Q"/><path fill="#333" d="M1216-1011c-1 297-202 441-512 441H361V0H169v-1456h537c297-6 510 164 510 445zm-192 2c1-178-126-288-307-289H361v571h345c196 1 318-92 318-282" id="R"/><path fill="#333" d="M375 0H183v-1456h192V0" id="S"/><g id="a"><use transform="matrix(0.011935763888888888,0,0,0.011935763888888888,0,0)" xlink:href="#Q"/><use transform="matrix(0.011935763888888888,0,0,0.011935763888888888,15.946180555555555,0)" xlink:href="#R"/><use transform="matrix(0.011935763888888888,0,0,0.011935763888888888,31.367187499999996,0)" xlink:href="#S"/></g><path fill="#333" d="M277-555c0 244 77 420 297 424 127 2 249-93 255-210h175C980-127 805 20 574 20 258 20 81-222 92-562c11-319 164-533 481-540 237-5 426 165 431 392H829c-7-133-115-242-256-240-209 4-296 166-296 395" id="T"/><path fill="#333" d="M584 20C278 26 81-227 91-551c10-320 175-545 491-551 308-5 503 247 494 573-9 322-175 543-492 549zm-2-970c-208 0-305 185-305 421 0 216 106 398 307 398 211 0 307-186 307-420 0-214-109-399-309-399" id="U"/><path fill="#333" d="M589-945c-131 0-219 81-264 174V0H140v-1082h175l6 136c83-104 191-156 324-156 229 0 346 129 346 387V0H806v-716c-2-153-65-229-217-229" id="V"/><path fill="#333" d="M538-131c121 0 232-49 232-156 0-50-20-88-56-117-73-60-334-92-420-143-92-55-162-110-162-238 0-190 192-317 400-317 223 0 414 129 413 338H759c0-108-110-186-227-186-119 0-215 53-215 159 0 45 18 78 53 101 76 52 331 90 416 139 98 57 169 115 169 251C955-92 760 20 538 20c-176 0-314-68-386-174-38-55-57-115-57-179h185c6 129 116 202 258 202" id="W"/><path fill="#333" d="M491 20c-241-1-355-148-355-398v-704h185v699c0 164 67 246 200 246 141 0 235-53 282-158v-787h185V0H812l-4-107C736-22 630 20 491 20" id="X"/><path fill="#333" d="M1240-945c-141 0-250 95-250 227V0H804v-709c0-157-77-236-231-236-121 0-204 52-249 155V0H139v-1082h175l5 120c79-93 186-140 321-140 151 0 254 58 309 174 69-98 181-174 345-174 237 0 362 126 362 377V0h-185v-714c-2-159-67-231-231-231" id="Y"/><path fill="#333" d="M599-131c141 0 220-65 285-146l113 88C906-50 770 20 589 20 281 21 93-214 93-545c0-223 93-397 233-485 74-48 154-72 240-72 300 2 449 218 445 537v77H278c0 197 129 357 321 357zm227-509c-3-180-88-310-260-310-170 0-264 140-282 310h542" id="Z"/><path fill="#333" d="M663-916c-163-27-288 18-338 148V0H140v-1082h180l3 125c61-97 147-145 258-145 36 0 63 5 82 14v172" id="aa"/><g id="b"><use transform="matrix(0.011935763888888888,0,0,0.011935763888888888,0,0)" xlink:href="#T"/><use transform="matrix(0.011935763888888888,0,0,0.011935763888888888,12.795138888888888,0)" xlink:href="#U"/><use transform="matrix(0.011935763888888888,0,0,0.011935763888888888,26.73611111111111,0)" xlink:href="#V"/><use transform="matrix(0.011935763888888888,0,0,0.011935763888888888,40.22352430555555,0)" xlink:href="#W"/><use transform="matrix(0.011935763888888888,0,0,0.011935763888888888,52.82769097222222,0)" xlink:href="#X"/><use transform="matrix(0.011935763888888888,0,0,0.011935763888888888,66.30316840277777,0)" xlink:href="#Y"/><use transform="matrix(0.011935763888888888,0,0,0.011935763888888888,87.72786458333333,0)" xlink:href="#Z"/><use transform="matrix(0.011935763888888888,0,0,0.011935763888888888,100.67816840277777,0)" xlink:href="#aa"/></g><g id="c"><use transform="matrix(0.011935763888888876,0,0,0.011935763888888876,0,0)" xlink:href="#Q"/><use transform="matrix(0.011935763888888876,0,0,0.011935763888888876,15.946180555555538,0)" xlink:href="#R"/><use transform="matrix(0.011935763888888876,0,0,0.011935763888888876,31.367187499999964,0)" xlink:href="#S"/></g><path fill="#333" d="M1098-255l208-827h185L1176 0h-150L763-820 507 0H357L43-1082h184l213 810 252-810h149" id="ab"/><path fill="#333" d="M561-1102c238-4 403 126 403 351v498c0 99 13 178 38 237V0H808c-11-21-19-59-26-114C696-25 593 20 474 20c-199 0-368-130-365-320 4-251 214-359 490-356h180v-85c-1-135-86-212-229-212-115 0-232 67-233 171H131c20-205 206-316 430-320zM294-326c0 117 90 185 207 185 122 0 239-75 278-162v-222H634c-227 0-340 66-340 199" id="ac"/><path fill="#333" d="M341 0H156v-1082h185V0zm-91-1264c-68 0-108-42-109-105 0-62 41-107 109-107s110 44 110 107-42 105-110 105" id="ad"/><path fill="#333" d="M456 20C285 20 205-92 206-268v-671H9v-143h197v-262h185v262h202v143H391v671c-9 125 92 149 207 118V0c-49 13-96 20-142 20" id="ae"/><g id="d"><use transform="matrix(0.011935763888888888,0,0,0.011935763888888888,0,0)" xlink:href="#ab"/><use transform="matrix(0.011935763888888888,0,0,0.011935763888888888,18.369140625,0)" xlink:href="#ac"/><use transform="matrix(0.011935763888888888,0,0,0.011935763888888888,31.66558159722222,0)" xlink:href="#ad"/><use transform="matrix(0.011935763888888888,0,0,0.011935763888888888,37.59765625,0)" xlink:href="#ae"/></g><path fill="#333" d="M632-1102c291 0 422 251 422 573 0 297-141 548-419 549-131 0-235-42-310-125v521H140v-1498h169l9 120c75-93 180-140 314-140zm-53 971c207 0 290-180 290-419 0-218-92-395-292-395-112 0-196 50-252 149v517c55 99 140 148 254 148" id="af"/><path fill="#333" d="M341 0H156v-1536h185V0" id="ag"/><path fill="#333" d="M494-271l252-811h198L509 167C425 381 299 474 84 421V271c167 16 242-37 283-173l41-110L22-1082h202" id="ah"/><g id="e"><use transform="matrix(0.011935763888888888,0,0,0.011935763888888888,0,0)" xlink:href="#aa"/><use transform="matrix(0.011935763888888888,0,0,0.011935763888888888,8.04470486111111,0)" xlink:href="#Z"/><use transform="matrix(0.011935763888888888,0,0,0.011935763888888888,20.995008680555554,0)" xlink:href="#af"/><use transform="matrix(0.011935763888888888,0,0,0.011935763888888888,34.709201388888886,0)" xlink:href="#ag"/><use transform="matrix(0.011935763888888888,0,0,0.011935763888888888,40.641276041666664,0)" xlink:href="#ac"/><use transform="matrix(0.011935763888888888,0,0,0.011935763888888888,53.75868055555555,0)" xlink:href="#ah"/></g><g id="f"><use transform="matrix(0.011935763888888888,0,0,0.011935763888888888,0,0)" xlink:href="#ag"/><use transform="matrix(0.011935763888888888,0,0,0.011935763888888888,5.932074652777778,0)" xlink:href="#ad"/><use transform="matrix(0.011935763888888888,0,0,0.011935763888888888,11.864149305555555,0)" xlink:href="#W"/><use transform="matrix(0.011935763888888888,0,0,0.011935763888888888,24.46831597222222,0)" xlink:href="#ae"/></g><path fill="#333" d="M704-1390c-164-38-297 28-288 194v114h231v143H416V0H231v-939H60v-143h171v-111c-12-274 208-416 483-347" id="ai"/><g id="g"><use transform="matrix(0.011935763888888888,0,0,0.011935763888888888,0,0)" xlink:href="#ai"/><use transform="matrix(0.011935763888888888,0,0,0.011935763888888888,8.486328125,0)" xlink:href="#aa"/><use transform="matrix(0.011935763888888888,0,0,0.011935763888888888,16.53103298611111,0)" xlink:href="#Z"/><use transform="matrix(0.011935763888888888,0,0,0.011935763888888888,29.481336805555554,0)" xlink:href="#Z"/></g><path fill="#333" d="M765-410H501L421 0H278l80-410H119v-137h265l69-354H195v-139h285l82-416h143l-82 416h264l82-416h144l-82 416h204v139h-231l-69 354h225v137H909L829 0H685zM527-547h264l69-354H596" id="aj"/><path fill="#333" d="M574-1476c351 0 454 237 460 615v240c0 217-37 378-111 483S733 20 576 20c-346 0-454-246-461-616v-247c0-214 37-373 111-477s190-156 348-156zm275 905c0-337 59-752-275-753-95 0-160 38-207 107-80 118-66 409-67 625 0 157 22 273 68 348s115 113 208 113c91 0 160-35 204-106s69-182 69-334" id="ak"/><g id="h"><use transform="matrix(0.011935763888888886,0,0,0.011935763888888886,0,0)" xlink:href="#aj"/><use transform="matrix(0.011935763888888886,0,0,0.011935763888888886,15.050998263888886,0)" xlink:href="#ak"/></g><path fill="#333" d="M1288 0h-193L362-1122V0H169v-1456h193l735 1127v-1127h191V0" id="al"/><g id="i"><use transform="matrix(0.011935763888888886,0,0,0.011935763888888886,0,0)" xlink:href="#aj"/><use transform="matrix(0.011935763888888886,0,0,0.011935763888888886,15.050998263888886,0)" xlink:href="#al"/></g><path fill="#333" d="M258 11c-71 0-114-43-114-108 0-67 42-112 114-112s116 45 116 112c-1 65-45 108-116 108" id="am"/><g id="j"><use transform="matrix(0.016276041666666657,0,0,0.016276041666666657,0,0)" xlink:href="#am"/><use transform="matrix(0.016276041666666657,0,0,0.016276041666666657,8.772786458333329,0)" xlink:href="#am"/><use transform="matrix(0.016276041666666657,0,0,0.016276041666666657,17.545572916666657,0)" xlink:href="#am"/></g><g id="k"><use transform="matrix(0.011935763888888876,0,0,0.011935763888888876,0,0)" xlink:href="#ai"/><use transform="matrix(0.011935763888888876,0,0,0.011935763888888876,8.486328124999991,0)" xlink:href="#X"/><use transform="matrix(0.011935763888888876,0,0,0.011935763888888876,21.961805555555532,0)" xlink:href="#ag"/><use transform="matrix(0.011935763888888876,0,0,0.011935763888888876,27.893880208333304,0)" xlink:href="#ag"/></g><g id="l"><use transform="matrix(0.011935763888888876,0,0,0.011935763888888876,0,0)" xlink:href="#ag"/><use transform="matrix(0.011935763888888876,0,0,0.011935763888888876,5.9320746527777715,0)" xlink:href="#ad"/><use transform="matrix(0.011935763888888876,0,0,0.011935763888888876,11.864149305555543,0)" xlink:href="#W"/><use transform="matrix(0.011935763888888876,0,0,0.011935763888888876,24.468315972222197,0)" xlink:href="#ae"/><use transform="matrix(0.011935763888888876,0,0,0.011935763888888876,32.45334201388886,0)" xlink:href="#W"/></g><path fill="#333" d="M503-687l240-395h216L605-547 970 0H756L506-405 256 0H41l365-547-354-535h214" id="an"/><path fill="#333" d="M920 151H4V0h916v151" id="ao"/><path fill="#333" d="M521 20C240 20 96-239 96-550c0-303 147-552 427-552 132 0 235 47 309 140l9-120h169V-26c4 277-183 454-459 452-165-1-334-81-400-187l96-111c79 98 176 147 291 147 180 1 288-109 286-290v-93C750-23 649 20 521 20zm48-965c-209 0-287 178-287 416 0 217 86 392 285 392 117 0 202-53 257-159v-494c-57-103-142-155-255-155" id="ap"/><g id="m"><use transform="matrix(0.00868055555555554,0,0,0.00868055555555554,0,0)" xlink:href="#Y"/><use transform="matrix(0.00868055555555554,0,0,0.00868055555555554,15.581597222222195,0)" xlink:href="#ac"/><use transform="matrix(0.00868055555555554,0,0,0.00868055555555554,25.251736111111065,0)" xlink:href="#an"/><use transform="matrix(0.00868055555555554,0,0,0.00868055555555554,34.062499999999936,0)" xlink:href="#ao"/><use transform="matrix(0.00868055555555554,0,0,0.00868055555555554,42.08333333333326,0)" xlink:href="#ae"/><use transform="matrix(0.00868055555555554,0,0,0.00868055555555554,47.890624999999915,0)" xlink:href="#an"/><use transform="matrix(0.00868055555555554,0,0,0.00868055555555554,56.52777777777767,0)" xlink:href="#ap"/></g><path fill="#333" d="M520 20C244 20 95-247 95-550c0-298 151-550 427-552 127 0 227 43 301 130v-564h185V0H838l-9-116C755-25 652 20 520 20zm48-965c-210 0-288 177-288 416 0 218 87 392 286 392 117 0 203-53 257-158v-497c-55-102-140-153-255-153" id="aq"/><g id="n"><use transform="matrix(0.00868055555555554,0,0,0.00868055555555554,0,0)" xlink:href="#Y"/><use transform="matrix(0.00868055555555554,0,0,0.00868055555555554,15.581597222222195,0)" xlink:href="#U"/><use transform="matrix(0.00868055555555554,0,0,0.00868055555555554,25.720486111111065,0)" xlink:href="#aq"/></g><path fill="#333" d="M832-402c-1-179-119-264-303-265H390v-151h139c164 0 281-91 281-250 0-171-85-256-255-256-154 0-265 99-263 250H107c-4-235 205-402 448-402 266 0 444 150 440 412-2 148-109 272-229 317 147 45 249 158 251 341 3 262-197 426-461 426C299 20 91-135 94-384h186c-2 156 116 253 276 253 176 0 277-96 276-271" id="ar"/><use transform="matrix(0.00868055555555554,0,0,0.00868055555555554,0,0)" xlink:href="#ar" id="o"/><g id="p"><use transform="matrix(0.011935763888888876,0,0,0.011935763888888876,0,0)" xlink:href="#T"/><use transform="matrix(0.011935763888888876,0,0,0.011935763888888876,12.795138888888875,0)" xlink:href="#U"/><use transform="matrix(0.011935763888888876,0,0,0.011935763888888876,26.736111111111082,0)" xlink:href="#Y"/><use transform="matrix(0.011935763888888876,0,0,0.011935763888888876,48.160807291666615,0)" xlink:href="#Y"/><use transform="matrix(0.011935763888888876,0,0,0.011935763888888876,69.58550347222214,0)" xlink:href="#ad"/><use transform="matrix(0.011935763888888876,0,0,0.011935763888888876,75.51757812499991,0)" xlink:href="#ae"/></g><g id="q"><use transform="matrix(0.011935763888888876,0,0,0.011935763888888876,0,0)" xlink:href="#W"/><use transform="matrix(0.011935763888888876,0,0,0.011935763888888876,12.604166666666654,0)" xlink:href="#ag"/><use transform="matrix(0.011935763888888876,0,0,0.011935763888888876,18.536241319444425,0)" xlink:href="#U"/><use transform="matrix(0.011935763888888876,0,0,0.011935763888888876,32.47721354166663,0)" xlink:href="#ae"/><use transform="matrix(0.011935763888888876,0,0,0.011935763888888876,40.462239583333286,0)" xlink:href="#W"/></g><g id="r"><use transform="matrix(0.008680555555555552,0,0,0.008680555555555552,0,0)" xlink:href="#ac"/><use transform="matrix(0.008680555555555552,0,0,0.008680555555555552,9.670138888888886,0)" xlink:href="#aq"/><use transform="matrix(0.008680555555555552,0,0,0.008680555555555552,19.69618055555555,0)" xlink:href="#aq"/></g><g id="s"><use transform="matrix(0.008680555555555552,0,0,0.008680555555555552,0,0)" xlink:href="#ai"/><use transform="matrix(0.008680555555555552,0,0,0.008680555555555552,6.171874999999998,0)" xlink:href="#U"/><use transform="matrix(0.008680555555555552,0,0,0.008680555555555552,16.310763888888886,0)" xlink:href="#aa"/></g><g id="t"><use transform="matrix(0.008680555555555552,0,0,0.008680555555555552,0,0)" xlink:href="#T"/><use transform="matrix(0.008680555555555552,0,0,0.008680555555555552,9.305555555555552,0)" xlink:href="#ag"/><use transform="matrix(0.008680555555555552,0,0,0.008680555555555552,13.619791666666659,0)" xlink:href="#ac"/><use transform="matrix(0.008680555555555552,0,0,0.008680555555555552,23.289930555555546,0)" xlink:href="#ad"/><use transform="matrix(0.008680555555555552,0,0,0.008680555555555552,27.604166666666657,0)" xlink:href="#Y"/></g><g id="u"><use transform="matrix(0.008680555555555549,0,0,0.008680555555555549,0,0)" xlink:href="#ac"/><use transform="matrix(0.008680555555555549,0,0,0.008680555555555549,9.670138888888882,0)" xlink:href="#aq"/><use transform="matrix(0.008680555555555549,0,0,0.008680555555555549,19.696180555555543,0)" xlink:href="#aq"/></g><g id="v"><use transform="matrix(0.008680555555555549,0,0,0.008680555555555549,0,0)" xlink:href="#ai"/><use transform="matrix(0.008680555555555549,0,0,0.008680555555555549,6.171874999999996,0)" xlink:href="#U"/><use transform="matrix(0.008680555555555549,0,0,0.008680555555555549,16.310763888888875,0)" xlink:href="#aa"/></g><g id="w"><use transform="matrix(0.008680555555555549,0,0,0.008680555555555549,0,0)" xlink:href="#ab"/><use transform="matrix(0.008680555555555549,0,0,0.008680555555555549,13.35937499999999,0)" xlink:href="#aa"/><use transform="matrix(0.008680555555555549,0,0,0.008680555555555549,19.374999999999986,0)" xlink:href="#ad"/><use transform="matrix(0.008680555555555549,0,0,0.008680555555555549,23.689236111111093,0)" xlink:href="#ae"/><use transform="matrix(0.008680555555555549,0,0,0.008680555555555549,29.496527777777757,0)" xlink:href="#Z"/></g><path fill="#333" d="M986-814H152v-161h834v161zm0 415H152v-160h834v160" id="as"/><g id="x"><use transform="matrix(0.011935763888888886,0,0,0.011935763888888886,0,0)" xlink:href="#as"/><use transform="matrix(0.011935763888888886,0,0,0.011935763888888886,13.415798611111109,0)" xlink:href="#ak"/></g><path fill="#333" d="M729 0H543v-1233l-373 137v-168l530-199h29V0" id="at"/><g id="y"><use transform="matrix(0.011935763888888886,0,0,0.011935763888888886,0,0)" xlink:href="#as"/><use transform="matrix(0.011935763888888886,0,0,0.011935763888888886,13.415798611111109,0)" xlink:href="#at"/></g><path fill="#333" d="M569-1476c255 0 440 146 439 390 0 143-91 314-274 512L344-151h731V0H121v-133l504-560c75-85 125-155 155-207 105-184 6-424-211-424-183 0-293 113-291 297H93c-3-270 199-449 476-449" id="au"/><g id="z"><use transform="matrix(0.011935763888888886,0,0,0.011935763888888886,0,0)" xlink:href="#as"/><use transform="matrix(0.011935763888888886,0,0,0.011935763888888886,13.415798611111109,0)" xlink:href="#au"/></g><path fill="#333" d="M634-1102c292 0 422 254 422 573 0 298-143 547-420 549-137 0-242-48-317-145L310 0H140v-1536h185v573c75-93 178-139 309-139zm-44 965c207 0 281-175 281-413 0-224-79-395-283-395-122 0-210 57-263 170v468c57 113 145 170 265 170" id="av"/><g id="A"><use transform="matrix(0.008680555555555552,0,0,0.008680555555555552,0,0)" xlink:href="#ap"/><use transform="matrix(0.008680555555555552,0,0,0.008680555555555552,9.97395833333333,0)" xlink:href="#ac"/><use transform="matrix(0.008680555555555552,0,0,0.008680555555555552,19.644097222222214,0)" xlink:href="#aa"/><use transform="matrix(0.008680555555555552,0,0,0.008680555555555552,25.659722222222214,0)" xlink:href="#av"/><use transform="matrix(0.008680555555555552,0,0,0.008680555555555552,35.63368055555554,0)" xlink:href="#ac"/><use transform="matrix(0.008680555555555552,0,0,0.008680555555555552,45.30381944444443,0)" xlink:href="#ap"/><use transform="matrix(0.008680555555555552,0,0,0.008680555555555552,55.27777777777776,0)" xlink:href="#Z"/></g><g id="B"><use transform="matrix(0.008680555555555552,0,0,0.008680555555555552,0,0)" xlink:href="#T"/><use transform="matrix(0.008680555555555552,0,0,0.008680555555555552,9.305555555555552,0)" xlink:href="#U"/><use transform="matrix(0.008680555555555552,0,0,0.008680555555555552,19.444444444444436,0)" xlink:href="#ag"/><use transform="matrix(0.008680555555555552,0,0,0.008680555555555552,23.758680555555546,0)" xlink:href="#ag"/><use transform="matrix(0.008680555555555552,0,0,0.008680555555555552,28.072916666666657,0)" xlink:href="#Z"/><use transform="matrix(0.008680555555555552,0,0,0.008680555555555552,37.49131944444443,0)" xlink:href="#T"/><use transform="matrix(0.008680555555555552,0,0,0.008680555555555552,46.79687499999998,0)" xlink:href="#ae"/><use transform="matrix(0.008680555555555552,0,0,0.008680555555555552,52.60416666666664,0)" xlink:href="#ad"/><use transform="matrix(0.008680555555555552,0,0,0.008680555555555552,56.91840277777775,0)" xlink:href="#U"/><use transform="matrix(0.008680555555555552,0,0,0.008680555555555552,67.05729166666663,0)" xlink:href="#V"/></g><g id="C"><use transform="matrix(0.008680555555555552,0,0,0.008680555555555552,0,0)" xlink:href="#W"/><use transform="matrix(0.008680555555555552,0,0,0.008680555555555552,9.166666666666664,0)" xlink:href="#ah"/><use transform="matrix(0.008680555555555552,0,0,0.008680555555555552,17.578124999999993,0)" xlink:href="#V"/><use transform="matrix(0.008680555555555552,0,0,0.008680555555555552,27.387152777777768,0)" xlink:href="#T"/><use transform="matrix(0.008680555555555552,0,0,0.008680555555555552,36.69270833333332,0)" xlink:href="#Z"/><use transform="matrix(0.008680555555555552,0,0,0.008680555555555552,46.1111111111111,0)" xlink:href="#aq"/><use transform="matrix(0.008680555555555552,0,0,0.008680555555555552,56.137152777777764,0)" xlink:href="#ao"/><use transform="matrix(0.008680555555555552,0,0,0.008680555555555552,64.1579861111111,0)" xlink:href="#ae"/><use transform="matrix(0.008680555555555552,0,0,0.008680555555555552,69.96527777777777,0)" xlink:href="#an"/><use transform="matrix(0.008680555555555552,0,0,0.008680555555555552,78.60243055555554,0)" xlink:href="#ap"/></g><g id="D"><use transform="matrix(0.008680555555555552,0,0,0.008680555555555552,0,0)" xlink:href="#Y"/><use transform="matrix(0.008680555555555552,0,0,0.008680555555555552,15.581597222222216,0)" xlink:href="#U"/><use transform="matrix(0.008680555555555552,0,0,0.008680555555555552,25.720486111111104,0)" xlink:href="#aq"/></g><use transform="matrix(0.008680555555555552,0,0,0.008680555555555552,0,0)" xlink:href="#ar" id="E"/><g id="F"><use transform="matrix(0.008680555555555552,0,0,0.008680555555555552,0,0)" xlink:href="#ag"/><use transform="matrix(0.008680555555555552,0,0,0.008680555555555552,4.31423611111111,0)" xlink:href="#ac"/><use transform="matrix(0.008680555555555552,0,0,0.008680555555555552,13.984374999999996,0)" xlink:href="#W"/><use transform="matrix(0.008680555555555552,0,0,0.008680555555555552,23.15104166666666,0)" xlink:href="#ae"/></g><path fill="#333" d="M1288 0h-193v-673H361V0H169v-1456h192v626h734v-626h193V0" id="aw"/><path fill="#333" d="M1222-777c17 480-206 763-650 777H169v-1456h411c408 9 627 269 642 679zm-190 4c3-312-149-522-447-525H361v1141h202c308 0 473-209 469-531v-85" id="ax"/><path fill="#333" d="M362-157h690V0H169v-1456h193v1299" id="ay"/><g id="G"><use transform="matrix(0.008680555555555552,0,0,0.008680555555555552,0,0)" xlink:href="#aw"/><use transform="matrix(0.008680555555555552,0,0,0.008680555555555552,12.673611111111107,0)" xlink:href="#ax"/><use transform="matrix(0.008680555555555552,0,0,0.008680555555555552,24.331597222222214,0)" xlink:href="#ay"/></g><path fill="#333" d="M589-945c-131 0-219 81-264 174V0H140v-1536h185v585c82-101 189-151 320-151 229 0 346 129 346 387V0H806v-716c-2-153-65-229-217-229" id="az"/><g id="H"><use transform="matrix(0.008680555555555552,0,0,0.008680555555555552,0,0)" xlink:href="#ab"/><use transform="matrix(0.008680555555555552,0,0,0.008680555555555552,13.359374999999995,0)" xlink:href="#ad"/><use transform="matrix(0.008680555555555552,0,0,0.008680555555555552,17.673611111111104,0)" xlink:href="#ae"/><use transform="matrix(0.008680555555555552,0,0,0.008680555555555552,23.480902777777768,0)" xlink:href="#az"/></g><g id="I"><use transform="matrix(0.008680555555555552,0,0,0.008680555555555552,0,0)" xlink:href="#T"/><use transform="matrix(0.008680555555555552,0,0,0.008680555555555552,9.305555555555552,0)" xlink:href="#ag"/><use transform="matrix(0.008680555555555552,0,0,0.008680555555555552,13.619791666666659,0)" xlink:href="#ac"/><use transform="matrix(0.008680555555555552,0,0,0.008680555555555552,23.289930555555546,0)" xlink:href="#ad"/><use transform="matrix(0.008680555555555552,0,0,0.008680555555555552,27.604166666666657,0)" xlink:href="#Y"/></g><g id="J"><use transform="matrix(0.008680555555555552,0,0,0.008680555555555552,0,0)" xlink:href="#az"/><use transform="matrix(0.008680555555555552,0,0,0.008680555555555552,9.791666666666663,0)" xlink:href="#ac"/><use transform="matrix(0.008680555555555552,0,0,0.008680555555555552,19.46180555555555,0)" xlink:href="#W"/></g><g id="K"><use transform="matrix(0.008680555555555552,0,0,0.008680555555555552,0,0)" xlink:href="#ai"/><use transform="matrix(0.008680555555555552,0,0,0.008680555555555552,6.171874999999998,0)" xlink:href="#ad"/><use transform="matrix(0.008680555555555552,0,0,0.008680555555555552,10.486111111111107,0)" xlink:href="#V"/><use transform="matrix(0.008680555555555552,0,0,0.008680555555555552,20.295138888888882,0)" xlink:href="#ad"/><use transform="matrix(0.008680555555555552,0,0,0.008680555555555552,24.609374999999993,0)" xlink:href="#W"/><use transform="matrix(0.008680555555555552,0,0,0.008680555555555552,33.77604166666666,0)" xlink:href="#az"/><use transform="matrix(0.008680555555555552,0,0,0.008680555555555552,43.567708333333314,0)" xlink:href="#Z"/><use transform="matrix(0.008680555555555552,0,0,0.008680555555555552,52.9861111111111,0)" xlink:href="#aq"/></g><g id="L"><use transform="matrix(0.008680555555555552,0,0,0.008680555555555552,0,0)" xlink:href="#aa"/><use transform="matrix(0.008680555555555552,0,0,0.008680555555555552,5.850694444444444,0)" xlink:href="#Z"/><use transform="matrix(0.008680555555555552,0,0,0.008680555555555552,15.26909722222222,0)" xlink:href="#af"/><use transform="matrix(0.008680555555555552,0,0,0.008680555555555552,25.24305555555555,0)" xlink:href="#ag"/><use transform="matrix(0.008680555555555552,0,0,0.008680555555555552,29.55729166666666,0)" xlink:href="#ac"/><use transform="matrix(0.008680555555555552,0,0,0.008680555555555552,39.097222222222214,0)" xlink:href="#ah"/></g><path fill="#333" d="M319-664C304-226 428 158 661 357l-38 113c-89-49-172-133-254-248C142-97 71-578 194-1025c67-244 240-513 429-618l38 122c-201 153-330 502-342 857" id="aA"/><g id="M"><use transform="matrix(0.008680555555555552,0,0,0.008680555555555552,0,0)" xlink:href="#aA"/><use transform="matrix(0.008680555555555552,0,0,0.008680555555555552,6.076388888888887,0)" xlink:href="#aa"/><use transform="matrix(0.008680555555555552,0,0,0.008680555555555552,11.927083333333329,0)" xlink:href="#Z"/><use transform="matrix(0.008680555555555552,0,0,0.008680555555555552,21.345486111111104,0)" xlink:href="#ai"/><use transform="matrix(0.008680555555555552,0,0,0.008680555555555552,27.30902777777777,0)" xlink:href="#T"/><use transform="matrix(0.008680555555555552,0,0,0.008680555555555552,36.61458333333332,0)" xlink:href="#U"/><use transform="matrix(0.008680555555555552,0,0,0.008680555555555552,46.75347222222221,0)" xlink:href="#X"/><use transform="matrix(0.008680555555555552,0,0,0.008680555555555552,56.553819444444436,0)" xlink:href="#V"/><use transform="matrix(0.008680555555555552,0,0,0.008680555555555552,66.3628472222222,0)" xlink:href="#ae"/></g><path fill="#333" d="M314-151h633V0H88v-136l597-793H97v-153h820v131" id="aB"/><path fill="#333" d="M38 357C331 141 457-487 337-984c-53-219-157-429-299-546l39-113c190 106 362 378 431 621 75 268 76 597 0 868C440 88 266 365 77 470" id="aC"/><g id="N"><use transform="matrix(0.008680555555555552,0,0,0.008680555555555552,0,0)" xlink:href="#aB"/><use transform="matrix(0.008680555555555552,0,0,0.008680555555555552,8.671874999999996,0)" xlink:href="#Z"/><use transform="matrix(0.008680555555555552,0,0,0.008680555555555552,18.09027777777777,0)" xlink:href="#aa"/><use transform="matrix(0.008680555555555552,0,0,0.008680555555555552,23.932291666666657,0)" xlink:href="#U"/><use transform="matrix(0.008680555555555552,0,0,0.008680555555555552,34.07118055555554,0)" xlink:href="#aC"/></g><g id="O"><use transform="matrix(0.008680555555555554,0,0,0.008680555555555554,0,0)" xlink:href="#ai"/><use transform="matrix(0.008680555555555554,0,0,0.008680555555555554,6.171874999999999,0)" xlink:href="#aa"/><use transform="matrix(0.008680555555555554,0,0,0.008680555555555554,12.022569444444443,0)" xlink:href="#Z"/><use transform="matrix(0.008680555555555554,0,0,0.008680555555555554,21.44097222222222,0)" xlink:href="#Z"/></g><path fill="#333" d="M1161-1018c0 201-122 330-278 388l342 618V0h-206L703-589H361V0H168v-1456h482c310-2 511 139 511 438zm-193 0c0-187-120-280-313-280H361v552h295c179 3 313-101 312-272" id="aD"/><path fill="#333" d="M1160-420C1159-145 963 0 674 0H169v-1456h476c294-1 476 112 476 388 0 153-99 253-216 302 146 38 255 167 255 346zM678-157c171 2 289-95 289-261 0-175-95-263-286-263H361v524h317zm250-912c-2-172-104-229-283-229H361v463h290c157 3 278-84 277-234" id="aE"/><g id="P"><use transform="matrix(0.008680555555555554,0,0,0.008680555555555554,0,0)" xlink:href="#R"/><use transform="matrix(0.008680555555555554,0,0,0.008680555555555554,11.215277777777777,0)" xlink:href="#aD"/><use transform="matrix(0.008680555555555554,0,0,0.008680555555555554,22.16145833333333,0)" xlink:href="#aE"/></g></defs></g></svg>