<svg xmlns="http://www.w3.org/2000/svg" xmlns:xlink="http://www.w3.org/1999/xlink" xmlns:lucid="lucid" width="806" height="770.5"><g transform="translate(-220 -5460)" lucid:page-tab-id="_UeFmtbjp3et"><path d="M340 5563.95v306.9M340 5563.98v-1.03M340 5870.82v1.03M241.74 5623.6H499M241.76 5623.6h-1.02M498.97 5623.6H500" stroke="#202124" stroke-width="2" fill="none"/><path d="M240 5560h100v63.14H240z" stroke="#000" stroke-opacity="0" fill="#fff" fill-opacity="0"/><use xlink:href="#a" transform="matrix(1,0,0,1,251,5571) translate(1.3485243055556282 30.552951388888864)"/><use xlink:href="#b" transform="matrix(1,0,0,1,251,5571) translate(41.846571180555586 30.552951388888864)"/><use xlink:href="#c" transform="matrix(1,0,0,1,251,5571) translate(63.975477430555564 30.552951388888864)"/><path d="M340 5560.45h59.53v63.14H340z" stroke="#000" stroke-opacity="0" fill="#fff" fill-opacity="0"/><use xlink:href="#d" transform="matrix(1,0,0,1,351,5571.446858940235) translate(1.7945963541666856 30.552951388888864)"/><path d="M400 5560.45h80.7v63.14H400z" stroke="#000" stroke-opacity="0" fill="#fff" fill-opacity="0"/><use xlink:href="#e" transform="matrix(1,0,0,1,410.99999999999994,5571.446858940235) translate(0 29.355034722222214)"/><path d="M280.43 5623.6h59.53v61h-59.53z" stroke="#000" stroke-opacity="0" fill="#fff" fill-opacity="0"/><use xlink:href="#f" transform="matrix(1,0,0,1,291.43099003469683,5634.5853633222205) translate(11.987738715277786 27.677951388888864)"/><path d="M280.43 5684.27h59.53v59.65h-59.53z" stroke="#000" stroke-opacity="0" fill="#fff" fill-opacity="0"/><use xlink:href="#g" transform="matrix(1,0,0,1,291.43099003469683,5695.267451525018) translate(11.987738715277786 27.427951388888864)"/><path d="M280.43 5743.92h59.53v63.14h-59.53z" stroke="#000" stroke-opacity="0" fill="#fff" fill-opacity="0"/><use xlink:href="#h" transform="matrix(1,0,0,1,291.43099003469683,5754.9208770324585) translate(11.987738715277786 30.552951388888864)"/><path d="M280.43 5807.4h59.53v63.13h-59.53z" stroke="#000" stroke-opacity="0" fill="#fff" fill-opacity="0"/><use xlink:href="#i" transform="matrix(1,0,0,1,291.43099003469683,5818.394895124681) translate(11.987738715277786 30.552951388888864)"/><path d="M400 5563.95v306.9M400 5563.98v-1.03M400 5870.82v1.03" stroke="#202124" stroke-width="2" fill="none"/><path d="M340.43 5623.6h59.53v61h-59.53z" stroke="#000" stroke-opacity="0" fill="#fff" fill-opacity="0"/><use xlink:href="#j" transform="matrix(1,0,0,1,351.43099003469683,5634.5853633222205) translate(6.903103298611125 27.677951388888864)"/><path d="M340.43 5683.6h59.53v61h-59.53z" stroke="#000" stroke-opacity="0" fill="#fff" fill-opacity="0"/><use xlink:href="#k" transform="matrix(1,0,0,1,351.43099003469683,5694.5853633222205) translate(6.903103298611125 27.677951388888864)"/><path d="M340.43 5744.98h59.53V5806h-59.53z" stroke="#000" stroke-opacity="0" fill="#fff" fill-opacity="0"/><use xlink:href="#l" transform="matrix(1,0,0,1,351.43099003469683,5755.981328266933) translate(6.903103298611125 27.677951388888864)"/><path d="M340.12 5807.4h59.53v61h-59.53z" stroke="#000" stroke-opacity="0" fill="#fff" fill-opacity="0"/><use xlink:href="#m" transform="matrix(1,0,0,1,351.12068463110467,5818.394895124681) translate(6.903103298611125 27.677951388888864)"/><path d="M400.43 5623.6h59.53v61h-59.53z" stroke="#000" stroke-opacity="0" fill="#fff" fill-opacity="0"/><use xlink:href="#n" transform="matrix(1,0,0,1,411.4309900346969,5634.5853633222205) translate(6.240668402777793 27.677951388888864)"/><path d="M400.43 5683.6h59.53v61h-59.53z" stroke="#000" stroke-opacity="0" fill="#fff" fill-opacity="0"/><use xlink:href="#o" transform="matrix(1,0,0,1,411.4309900346969,5694.5853633222205) translate(6.240668402777793 27.677951388888864)"/><path d="M400.43 5744.98h59.53V5806h-59.53z" stroke="#000" stroke-opacity="0" fill="#fff" fill-opacity="0"/><use xlink:href="#p" transform="matrix(1,0,0,1,411.4309900346969,5755.981328266933) translate(6.240668402777793 27.677951388888864)"/><path d="M400.12 5807.4h59.53v61h-59.53z" stroke="#000" stroke-opacity="0" fill="#fff" fill-opacity="0"/><use xlink:href="#q" transform="matrix(1,0,0,1,411.1206846311048,5818.394895124681) translate(6.240668402777793 27.677951388888864)"/><path d="M581 5663.14h158M581.03 5663.14H580M738.97 5663.14H740" stroke="#202124" stroke-width="2" fill="none"/><path d="M594.6 5600h59.54v63.14H594.6z" stroke="#000" stroke-opacity="0" fill="#fff" fill-opacity="0"/><use xlink:href="#d" transform="matrix(1,0,0,1,605.6091165969108,5611) translate(1.7945963541666856 30.552951388888864)"/><path d="M654.6 5600h80.72v63.14h-80.7z" stroke="#000" stroke-opacity="0" fill="#fff" fill-opacity="0"/><use xlink:href="#e" transform="matrix(1,0,0,1,665.6091165969107,5611) translate(0 29.355034722222214)"/><path d="M654.6 5603.5v247.13M654.6 5603.53v-1.02M654.6 5850.6v1.03" stroke="#202124" stroke-width="2" fill="none"/><path d="M595.04 5663.14h59.53v61.02h-59.53z" stroke="#000" stroke-opacity="0" fill="#fff" fill-opacity="0"/><use xlink:href="#r" transform="matrix(1,0,0,1,606.0401066316076,5674.1385043819855) translate(1.967664930555575 27.677951388888864)"/><path d="M595.04 5723.14h59.53v61.02h-59.53z" stroke="#000" stroke-opacity="0" fill="#fff" fill-opacity="0"/><use xlink:href="#s" transform="matrix(1,0,0,1,606.0401066316076,5734.1385043819855) translate(1.967664930555575 27.677951388888864)"/><path d="M595.04 5784.53h59.53v61.02h-59.53z" stroke="#000" stroke-opacity="0" fill="#fff" fill-opacity="0"/><use xlink:href="#t" transform="matrix(1,0,0,1,606.0401066316076,5795.534469326698) translate(1.967664930555575 27.677951388888864)"/><path d="M655.04 5663.14h59.53v61.02h-59.53z" stroke="#000" stroke-opacity="0" fill="#fff" fill-opacity="0"/><use xlink:href="#u" transform="matrix(1,0,0,1,666.0401066316076,5674.1385043819855) translate(0.0519748263889106 27.677951388888864)"/><path d="M655.04 5723.14h59.53v61.02h-59.53z" stroke="#000" stroke-opacity="0" fill="#fff" fill-opacity="0"/><use xlink:href="#v" transform="matrix(1,0,0,1,666.0401066316076,5734.1385043819855) translate(0.0519748263889106 27.677951388888864)"/><path d="M655.04 5784.53h59.53v61.02h-59.53z" stroke="#000" stroke-opacity="0" fill="#fff" fill-opacity="0"/><use xlink:href="#w" transform="matrix(1,0,0,1,666.0401066316076,5795.534469326698) translate(0.0519748263889106 27.677951388888864)"/><path d="M840 5620h160v39.2H840z" stroke="#202124" fill="#fff"/><use xlink:href="#r" transform="matrix(1,0,0,1,845,5625) translate(57.96766493055557 22.677951388888864)"/><path d="M840 5659.2h160v39.17H840z" stroke="#202124" fill="#fff"/><use xlink:href="#u" transform="matrix(1,0,0,1,845,5664.185966404264) translate(56.051974826388914 22.677951388888864)"/><path d="M840 5698.5h160v39.18H840z" stroke="#202124" fill="#fff"/><use xlink:href="#v" transform="matrix(1,0,0,1,845,5703.495109167663) translate(56.051974826388914 22.677951388888864)"/><path d="M840 5737.68h160v39.2H840z" stroke="#202124" fill="#fff"/><use xlink:href="#w" transform="matrix(1,0,0,1,845,5742.681075571927) translate(56.051974826388914 22.677951388888864)"/><g fill="none"><path d="M500 5480v80H240.43v-80z"/><path d="M240.43 5560c0-5.52 4.48-10 10-10h109.8c5.5 0 10-4.48 10-10 0 5.52 4.46 10 10 10H490c5.52 0 10 4.48 10 10" stroke="#202124"/></g><use xlink:href="#x" transform="matrix(1,-2.4492935982947064e-16,2.4492935982947064e-16,1,245.4309900346967,5485.000000000001) translate(74.33865017361117 22.677951388888864)"/><use xlink:href="#y" transform="matrix(1,-2.4492935982947064e-16,2.4492935982947064e-16,1,245.4309900346967,5485.000000000001) translate(120.84038628472223 22.677951388888864)"/><use xlink:href="#z" transform="matrix(1,-2.4492935982947064e-16,2.4492935982947064e-16,1,245.4309900346967,5485.000000000001) translate(4.938151041666799 51.32378472222217)"/><use xlink:href="#A" transform="matrix(1,-2.4492935982947064e-16,2.4492935982947064e-16,1,245.4309900346967,5485.000000000001) translate(108.49283854166669 51.32378472222217)"/><use xlink:href="#B" transform="matrix(1,-2.4492935982947064e-16,2.4492935982947064e-16,1,245.4309900346967,5485.000000000001) translate(137.16254340277777 51.32378472222217)"/><use xlink:href="#C" transform="matrix(1,-2.4492935982947064e-16,2.4492935982947064e-16,1,245.4309900346967,5485.000000000001) translate(181.62326388888883 51.32378472222217)"/><g fill="none"><path d="M741.4 5480v80H580v-80z"/><path d="M580 5560c0-5.52 4.48-10 10-10h60.7c5.52 0 10-4.48 10-10 0 5.52 4.48 10 10 10h60.7c5.53 0 10 4.48 10 10" stroke="#202124"/></g><use xlink:href="#D" transform="matrix(1,-2.4492935982947064e-16,2.4492935982947064e-16,1,585.0000000000009,5485) translate(3.3828125000000853 22.677951388888864)"/><use xlink:href="#y" transform="matrix(1,-2.4492935982947064e-16,2.4492935982947064e-16,1,585.0000000000009,5485) translate(93.79622395833331 22.677951388888864)"/><use xlink:href="#E" transform="matrix(1,-2.4492935982947064e-16,2.4492935982947064e-16,1,585.0000000000009,5485) translate(30.864908854166714 51.32378472222217)"/><g fill="none"><path d="M1001.4 5480.45v80H840v-80z"/><path d="M840 5560.45c0-5.53 4.48-10 10-10h60.7c5.52 0 10-4.48 10-10 0 5.52 4.48 10 10 10h60.7c5.53 0 10 4.47 10 10" stroke="#202124"/></g><use xlink:href="#D" transform="matrix(1,-2.4492935982947064e-16,2.4492935982947064e-16,1,845.0000000000005,5485.446858940235) translate(3.3828125000000853 22.677951388888864)"/><use xlink:href="#y" transform="matrix(1,-2.4492935982947064e-16,2.4492935982947064e-16,1,845.0000000000005,5485.446858940235) translate(93.79622395833331 22.677951388888864)"/><use xlink:href="#F" transform="matrix(1,-2.4492935982947064e-16,2.4492935982947064e-16,1,845.0000000000005,5485.446858940235) translate(20.28385416666673 51.32378472222217)"/><path d="M897.77 5820.5H840v-1h57.77zm102.23 0h-57.77v-1H1000z" fill="#202124"/><path d="M841 5835h-1v-30h1zM1000 5835h-1v-30h1z" fill="#202124"/><use xlink:href="#G" transform="matrix(1,0,0,1,897.7686472154724,5809.583333333333) translate(0.004999999999999005 16.493055555555557)"/><use xlink:href="#H" transform="matrix(1,0,0,1,897.7686472154724,5809.583333333333) translate(24.371319444444445 16.493055555555557)"/><path d="M399.65 5911.2h523.1v79.3h-523.1z" stroke="#000" stroke-opacity="0" fill="#fff" fill-opacity="0"/><g><use xlink:href="#I" transform="matrix(1,0,0,1,410.6512529229374,5922.204426927142) translate(0 37.177951388888864)"/><use xlink:href="#J" transform="matrix(1,0,0,1,410.6512529229374,5922.204426927142) translate(50.01443142361106 37.177951388888864)"/><use xlink:href="#K" transform="matrix(1,0,0,1,410.6512529229374,5922.204426927142) translate(102.46017795138877 37.177951388888864)"/><use xlink:href="#L" transform="matrix(1,0,0,1,410.6512529229374,5922.204426927142) translate(144.01 37.177951388888864)"/><use xlink:href="#M" transform="matrix(1,0,0,1,410.6512529229374,5922.204426927142) translate(162.16429687499996 37.177951388888864)"/><use xlink:href="#N" transform="matrix(1,0,0,1,410.6512529229374,5922.204426927142) translate(203.3641666666666 37.177951388888864)"/><use xlink:href="#O" transform="matrix(1,0,0,1,410.6512529229374,5922.204426927142) translate(212.3983463541666 37.177951388888864)"/><use xlink:href="#P" transform="matrix(1,0,0,1,410.6512529229374,5922.204426927142) translate(271.4911197916665 37.177951388888864)"/><use xlink:href="#Q" transform="matrix(1,0,0,1,410.6512529229374,5922.204426927142) translate(343.32054687499976 37.177951388888864)"/><use xlink:href="#R" transform="matrix(1,0,0,1,410.6512529229374,5922.204426927142) translate(355.3040538194442 37.177951388888864)"/><use xlink:href="#S" transform="matrix(1,0,0,1,410.6512529229374,5922.204426927142) translate(379.8917274305553 37.177951388888864)"/><use xlink:href="#T" transform="matrix(1,0,0,1,410.6512529229374,5922.204426927142) translate(467.83443576388856 37.177951388888864)"/></g><path d="M381 5981.3h516.28v160H381z" stroke="#000" stroke-opacity="0" fill="#fff" fill-opacity="0"/><g><use xlink:href="#U" transform="matrix(1,0,0,1,392.00179434900906,5992.310884289852) translate(36.01 31.302951388888864)"/><use xlink:href="#V" transform="matrix(1,0,0,1,392.00179434900906,5992.310884289852) translate(72.01 31.302951388888864)"/><use xlink:href="#V" transform="matrix(1,0,0,1,392.00179434900906,5992.310884289852) translate(108.01 31.302951388888864)"/><use xlink:href="#V" transform="matrix(1,0,0,1,392.00179434900906,5992.310884289852) translate(144.01 31.302951388888864)"/><use xlink:href="#W" transform="matrix(1,0,0,1,392.00179434900906,5992.310884289852) translate(180.01 31.302951388888864)"/><use xlink:href="#X" transform="matrix(1,0,0,1,392.00179434900906,5992.310884289852) translate(212.9407725694444 31.302951388888864)"/><use xlink:href="#V" transform="matrix(1,0,0,1,392.00179434900906,5992.310884289852) translate(252.01 31.302951388888864)"/><use xlink:href="#Y" transform="matrix(1,0,0,1,392.00179434900906,5992.310884289852) translate(288.01 31.302951388888864)"/><use xlink:href="#Z" transform="matrix(1,0,0,1,392.00179434900906,5992.310884289852) translate(308.4798350694444 31.302951388888864)"/><use xlink:href="#aa" transform="matrix(1,0,0,1,392.00179434900906,5992.310884289852) translate(362.75772135416656 31.302951388888864)"/><use xlink:href="#ab" transform="matrix(1,0,0,1,392.00179434900906,5992.310884289852) translate(381.23428385416656 31.302951388888864)"/><use xlink:href="#ac" transform="matrix(1,0,0,1,392.00179434900906,5992.310884289852) translate(0 77.13628472222214)"/><use xlink:href="#ad" transform="matrix(1,0,0,1,392.00179434900906,5992.310884289852) translate(18.15429687499998 77.13628472222214)"/><use xlink:href="#ae" transform="matrix(1,0,0,1,392.00179434900906,5992.310884289852) translate(68.0016276041666 77.13628472222214)"/><use xlink:href="#K" transform="matrix(1,0,0,1,392.00179434900906,5992.310884289852) translate(120.28027343749987 77.13628472222214)"/><use xlink:href="#V" transform="matrix(1,0,0,1,392.00179434900906,5992.310884289852) translate(144.01 77.13628472222214)"/><use xlink:href="#af" transform="matrix(1,0,0,1,392.00179434900906,5992.310884289852) translate(180.01 77.13628472222214)"/><use xlink:href="#ag" transform="matrix(1,0,0,1,392.00179434900906,5992.310884289852) translate(216.91180121527773 77.13628472222214)"/><use xlink:href="#ah" transform="matrix(1,0,0,1,392.00179434900906,5992.310884289852) translate(227.76141059027773 77.13628472222214)"/><use xlink:href="#ai" transform="matrix(1,0,0,1,392.00179434900906,5992.310884289852) translate(257.63304687499993 77.13628472222214)"/><use xlink:href="#Y" transform="matrix(1,0,0,1,392.00179434900906,5992.310884289852) translate(288.01 77.13628472222214)"/><use xlink:href="#aj" transform="matrix(1,0,0,1,392.00179434900906,5992.310884289852) translate(308.4798350694444 77.13628472222214)"/><use xlink:href="#ak" transform="matrix(1,0,0,1,392.00179434900906,5992.310884289852) translate(336.230486111111 77.13628472222214)"/><use xlink:href="#al" transform="matrix(1,0,0,1,392.00179434900906,5992.310884289852) translate(362.0952864583332 77.13628472222214)"/><use xlink:href="#am" transform="matrix(1,0,0,1,392.00179434900906,5992.310884289852) translate(414.55774305555536 77.13628472222214)"/><use xlink:href="#an" transform="matrix(1,0,0,1,392.00179434900906,5992.310884289852) translate(434.02497395833313 77.13628472222214)"/><use xlink:href="#ao" transform="matrix(1,0,0,1,392.00179434900906,5992.310884289852) translate(464.3871701388887 77.13628472222214)"/><use xlink:href="#ap" transform="matrix(1,0,0,1,392.00179434900906,5992.310884289852) translate(477.18230902777753 77.13628472222214)"/><use xlink:href="#aq" transform="matrix(1,0,0,1,392.00179434900906,5992.310884289852) translate(36.01 122.96961805555543)"/><use xlink:href="#ar" transform="matrix(1,0,0,1,392.00179434900906,5992.310884289852) translate(72.01 122.96961805555543)"/><use xlink:href="#as" transform="matrix(1,0,0,1,392.00179434900906,5992.310884289852) translate(108.01 122.96961805555543)"/><use xlink:href="#as" transform="matrix(1,0,0,1,392.00179434900906,5992.310884289852) translate(144.01 122.96961805555543)"/><use xlink:href="#at" transform="matrix(1,0,0,1,392.00179434900906,5992.310884289852) translate(180.01 122.96961805555543)"/><use xlink:href="#au" transform="matrix(1,0,0,1,392.00179434900906,5992.310884289852) translate(212.9407725694444 122.96961805555543)"/><use xlink:href="#V" transform="matrix(1,0,0,1,392.00179434900906,5992.310884289852) translate(252.01 122.96961805555543)"/><use xlink:href="#av" transform="matrix(1,0,0,1,392.00179434900906,5992.310884289852) translate(288.01 122.96961805555543)"/></g><path d="M480 6000h80v124.73h-80z" fill="none"/><path d="M560 6124.73c-5.52 0-10-4.48-10-10v-42.37c0-5.52-4.48-10-10-10 5.52 0 10-4.47 10-10V6010c0-5.52 4.48-10 10-10" stroke="#202124" fill="none"/><path d="M399.65 6131.2h523.1v79.3h-523.1z" stroke="#000" stroke-opacity="0" fill="#fff" fill-opacity="0"/><g><use xlink:href="#aw" transform="matrix(1,0,0,1,410.6512529229374,6142.204426927142) translate(0 37.177951388888864)"/><use xlink:href="#ax" transform="matrix(1,0,0,1,410.6512529229374,6142.204426927142) translate(62.794053819444365 37.177951388888864)"/><use xlink:href="#am" transform="matrix(1,0,0,1,410.6512529229374,6142.204426927142) translate(101.09472656249989 37.177951388888864)"/><use xlink:href="#ay" transform="matrix(1,0,0,1,410.6512529229374,6142.204426927142) translate(120.56195746527764 37.177951388888864)"/><use xlink:href="#az" transform="matrix(1,0,0,1,410.6512529229374,6142.204426927142) translate(158.86263020833314 37.177951388888864)"/><use xlink:href="#aA" transform="matrix(1,0,0,1,410.6512529229374,6142.204426927142) translate(171.65776909722203 37.177951388888864)"/><use xlink:href="#aB" transform="matrix(1,0,0,1,410.6512529229374,6142.204426927142) translate(210.79991319444423 37.177951388888864)"/><use xlink:href="#aC" transform="matrix(1,0,0,1,410.6512529229374,6142.204426927142) translate(237.14811197916643 37.177951388888864)"/><use xlink:href="#am" transform="matrix(1,0,0,1,410.6512529229374,6142.204426927142) translate(275.44878472222194 37.177951388888864)"/><use xlink:href="#ax" transform="matrix(1,0,0,1,410.6512529229374,6142.204426927142) translate(294.9160156249997 37.177951388888864)"/><use xlink:href="#az" transform="matrix(1,0,0,1,410.6512529229374,6142.204426927142) translate(333.2166883680552 37.177951388888864)"/><use xlink:href="#aD" transform="matrix(1,0,0,1,410.6512529229374,6142.204426927142) translate(346.01182725694406 37.177951388888864)"/><use xlink:href="#aE" transform="matrix(1,0,0,1,410.6512529229374,6142.204426927142) translate(365.7893880208329 37.177951388888864)"/><use xlink:href="#ay" transform="matrix(1,0,0,1,410.6512529229374,6142.204426927142) translate(385.2566189236107 37.177951388888864)"/><use xlink:href="#az" transform="matrix(1,0,0,1,410.6512529229374,6142.204426927142) translate(423.5572916666662 37.177951388888864)"/><use xlink:href="#aF" transform="matrix(1,0,0,1,410.6512529229374,6142.204426927142) translate(436.35243055555503 37.177951388888864)"/></g><g><path d="M520 5500h20.17v-10.47l18.84 20.93-18.83 20.94v-10.47H520z" stroke="#202124" fill="#fff"/></g><g><path d="M774.86 5500h19.75v-10.47l18.85 20.93-18.85 20.94v-10.47h-19.75z" stroke="#202124" fill="#fff"/></g><defs><path fill="#333" d="M457-330c2 83 25 111 111 112 32 0 60-2 85-7V-6c-57 17-115 26-175 26-203 0-310-102-310-307v-583H10v-212h158v-266h289v266h185v212H457v540" id="aG"/><path fill="#333" d="M523-759l182-323h309L706-552 1027 0H717L524-340 332 0H21l321-552-307-530h310" id="aH"/><path fill="#333" d="M505 20C221 18 69-239 69-549c0-302 153-553 438-553 119 0 211 41 277 122l12-102h262V-36c-8 305-208 458-520 462-160 1-335-76-403-170L263 80c72 81 159 121 262 121 172 1 260-107 243-294C701-18 614 20 505 20zm76-887c-165 0-223 147-223 339 0 172 66 314 221 314 88 0 151-33 189-99v-455c-39-66-101-99-187-99" id="aI"/><g id="a"><use transform="matrix(0.011935763888888876,0,0,0.011935763888888876,0,0)" xlink:href="#aG"/><use transform="matrix(0.011935763888888876,0,0,0.011935763888888876,8.259548611111102,0)" xlink:href="#aH"/><use transform="matrix(0.011935763888888876,0,0,0.011935763888888876,20.457899305555536,0)" xlink:href="#aI"/></g><path fill="#333" d="M547 20C279 20 69-136 71-392c0-67 19-130 57-187s106-121 207-191c-69-100-136-179-139-323-5-228 163-383 397-383 204 0 372 143 372 339 0 116-59 218-176 307l-112 81 251 292c39-77 59-163 59-256h246c0 189-44 343-131 460L1320 0H992l-75-86C810-15 686 20 547 20zM361-408c0 115 85 196 200 196 69 0 135-19 197-58L471-602c-66 44-110 119-110 194zm231-835c-83 0-139 61-137 146 0 50 29 113 88 189 75-58 181-88 181-211 0-68-60-124-132-124" id="aJ"/><use transform="matrix(0.011935763888888876,0,0,0.011935763888888876,0,0)" xlink:href="#aJ" id="b"/><path fill="#333" d="M566-213c130 0 220-75 220-199 0-145-80-218-240-218H393v-226h154c138 3 214-73 216-201 1-118-78-186-197-186-103 0-197 64-195 164H82c11-259 212-391 477-397 286-6 493 142 493 415 0 151-107 263-221 313 147 51 242 159 244 340 3 272-230 428-516 428C289 20 61-138 64-399h289c-3 111 100 186 213 186" id="aK"/><use transform="matrix(0.011935763888888876,0,0,0.011935763888888876,0,0)" xlink:href="#aK" id="c"/><g id="d"><use transform="matrix(0.011935763888888876,0,0,0.011935763888888876,0,0)" xlink:href="#aG"/><use transform="matrix(0.011935763888888876,0,0,0.011935763888888876,8.259548611111102,0)" xlink:href="#aH"/><use transform="matrix(0.011935763888888876,0,0,0.011935763888888876,20.457899305555536,0)" xlink:href="#aI"/></g><path fill="#333" d="M355-556c-2 203 30 338 206 343 102 3 181-63 182-161h271C1001-128 821 17 566 20 242 24 66-212 66-554c0-320 184-548 498-548 262 0 451 167 450 423H743c-1-108-75-193-184-189-162 6-202 123-204 312" id="aL"/><path fill="#333" d="M579 20C257 20 58-214 66-551c8-331 182-551 511-551 324 0 514 231 514 572 0 319-198 550-512 550zm-2-888c-169 0-222 141-222 338 0 181 61 317 224 317 170 0 223-137 223-338 0-178-64-317-225-317" id="aM"/><path fill="#333" d="M463 20c-241-1-359-147-359-393v-709h289v699c0 113 51 169 154 169 98 0 165-34 202-102v-766h290V0H767l-8-110C688-23 589 20 463 20" id="aN"/><path fill="#333" d="M750-692c-1-124-48-174-173-175-81 0-142 35-183 104V0H105v-1082h272l9 125c77-97 181-145 311-145 244 0 342 151 342 403V0H750v-692" id="aO"/><g id="e"><use transform="matrix(0.011935763888888876,0,0,0.011935763888888876,0,0)" xlink:href="#aL"/><use transform="matrix(0.011935763888888876,0,0,0.011935763888888876,12.74739583333332,0)" xlink:href="#aM"/><use transform="matrix(0.011935763888888876,0,0,0.011935763888888876,26.56901041666664,0)" xlink:href="#aN"/><use transform="matrix(0.011935763888888876,0,0,0.011935763888888876,40.247395833333286,0)" xlink:href="#aO"/><use transform="matrix(0.011935763888888876,0,0,0.011935763888888876,53.93771701388883,0)" xlink:href="#aG"/></g><path fill="#333" d="M586-1476c342 0 491 246 493 606v268c2 370-143 622-491 622C246 20 97-227 95-587v-268c-2-372 145-621 491-621zm204 926c0-199 18-488-50-610-58-105-243-107-304-4-71 121-52 402-52 600 0 119 19 205 48 264 54 112 254 115 309 4 28-57 49-140 49-254" id="aP"/><use transform="matrix(0.011935763888888876,0,0,0.011935763888888876,0,0)" xlink:href="#aP" id="f"/><path fill="#333" d="M801 0H512v-1114l-345 107v-235l603-216h31V0" id="aQ"/><use transform="matrix(0.011935763888888876,0,0,0.011935763888888876,0,0)" xlink:href="#aQ" id="g"/><path fill="#333" d="M576-1476c284-5 474 140 474 413 0 72-17 146-56 220-110 211-361 428-523 610h626V0H99v-198l471-502c65-71 110-134 144-185 92-140 43-358-143-358-134 0-213 107-211 245H70c11-295 206-473 506-478" id="aR"/><use transform="matrix(0.011935763888888876,0,0,0.011935763888888876,0,0)" xlink:href="#aR" id="h"/><use transform="matrix(0.011935763888888876,0,0,0.011935763888888876,0,0)" xlink:href="#aK" id="i"/><path fill="#333" d="M1175-1298H707V0H516v-1298H49v-158h1126v158" id="aS"/><path fill="#333" d="M574-1476c351 0 454 237 460 615v240c0 217-37 378-111 483S733 20 576 20c-346 0-454-246-461-616v-247c0-214 37-373 111-477s190-156 348-156zm275 905c0-337 59-752-275-753-95 0-160 38-207 107-80 118-66 409-67 625 0 157 22 273 68 348s115 113 208 113c91 0 160-35 204-106s69-182 69-334" id="aT"/><g id="j"><use transform="matrix(0.011935763888888876,0,0,0.011935763888888876,0,0)" xlink:href="#aS"/><use transform="matrix(0.008355034722222213,0,0,0.008355034722222213,14.585503472222207,3.9686414930555514)" xlink:href="#aT"/></g><path fill="#333" d="M729 0H543v-1233l-373 137v-168l530-199h29V0" id="aU"/><g id="k"><use transform="matrix(0.011935763888888876,0,0,0.011935763888888876,0,0)" xlink:href="#aS"/><use transform="matrix(0.008355034722222213,0,0,0.008355034722222213,14.585503472222207,3.9686414930555514)" xlink:href="#aU"/></g><path fill="#333" d="M569-1476c255 0 440 146 439 390 0 143-91 314-274 512L344-151h731V0H121v-133l504-560c75-85 125-155 155-207 105-184 6-424-211-424-183 0-293 113-291 297H93c-3-270 199-449 476-449" id="aV"/><g id="l"><use transform="matrix(0.011935763888888876,0,0,0.011935763888888876,0,0)" xlink:href="#aS"/><use transform="matrix(0.008355034722222213,0,0,0.008355034722222213,14.585503472222207,3.9686414930555514)" xlink:href="#aV"/></g><path fill="#333" d="M832-402c-1-179-119-264-303-265H390v-151h139c164 0 281-91 281-250 0-171-85-256-255-256-154 0-265 99-263 250H107c-4-235 205-402 448-402 266 0 444 150 440 412-2 148-109 272-229 317 147 45 249 158 251 341 3 262-197 426-461 426C299 20 91-135 94-384h186c-2 156 116 253 276 253 176 0 277-96 276-271" id="aW"/><g id="m"><use transform="matrix(0.011935763888888876,0,0,0.011935763888888876,0,0)" xlink:href="#aS"/><use transform="matrix(0.008355034722222213,0,0,0.008355034722222213,14.585503472222207,3.9686414930555514)" xlink:href="#aW"/></g><path fill="#333" d="M688-137c238 0 323-102 359-325h193c-32 297-228 482-552 482-361 0-569-299-569-680 0-197 8-360 73-497 88-186 257-317 513-319 316-2 509 195 535 488h-193c-31-212-118-330-342-330-272 0-397 224-393 523v141c-3 282 115 517 376 517" id="aX"/><g id="n"><use transform="matrix(0.011935763888888876,0,0,0.011935763888888876,0,0)" xlink:href="#aX"/><use transform="matrix(0.008355034722222213,0,0,0.008355034722222213,15.910373263888872,3.9686414930555514)" xlink:href="#aT"/></g><g id="o"><use transform="matrix(0.011935763888888876,0,0,0.011935763888888876,0,0)" xlink:href="#aX"/><use transform="matrix(0.008355034722222213,0,0,0.008355034722222213,15.910373263888872,3.9686414930555514)" xlink:href="#aU"/></g><g id="p"><use transform="matrix(0.011935763888888876,0,0,0.011935763888888876,0,0)" xlink:href="#aX"/><use transform="matrix(0.008355034722222213,0,0,0.008355034722222213,15.910373263888872,3.9686414930555514)" xlink:href="#aV"/></g><g id="q"><use transform="matrix(0.011935763888888876,0,0,0.011935763888888876,0,0)" xlink:href="#aX"/><use transform="matrix(0.008355034722222213,0,0,0.008355034722222213,15.910373263888872,3.9686414930555514)" xlink:href="#aW"/></g><path fill="#333" d="M362-157h690V0H169v-1456h193v1299" id="aY"/><g id="r"><use transform="matrix(0.011935763888888876,0,0,0.011935763888888876,0,0)" xlink:href="#aY"/><use transform="matrix(0.011935763888888876,0,0,0.011935763888888876,9.8708767361111,0)" xlink:href="#aS"/><use transform="matrix(0.008355034722222213,0,0,0.008355034722222213,24.456380208333307,3.9686414930555514)" xlink:href="#aT"/></g><g id="s"><use transform="matrix(0.011935763888888876,0,0,0.011935763888888876,0,0)" xlink:href="#aY"/><use transform="matrix(0.011935763888888876,0,0,0.011935763888888876,9.8708767361111,0)" xlink:href="#aS"/><use transform="matrix(0.008355034722222213,0,0,0.008355034722222213,24.456380208333307,3.9686414930555514)" xlink:href="#aU"/></g><g id="t"><use transform="matrix(0.011935763888888876,0,0,0.011935763888888876,0,0)" xlink:href="#aY"/><use transform="matrix(0.011935763888888876,0,0,0.011935763888888876,9.8708767361111,0)" xlink:href="#aS"/><use transform="matrix(0.008355034722222213,0,0,0.008355034722222213,24.456380208333307,3.9686414930555514)" xlink:href="#aV"/></g><g id="u"><use transform="matrix(0.011935763888888876,0,0,0.011935763888888876,0,0)" xlink:href="#aY"/><use transform="matrix(0.011935763888888876,0,0,0.011935763888888876,12.377387152777764,0)" xlink:href="#aX"/><use transform="matrix(0.008355034722222213,0,0,0.008355034722222213,28.287760416666636,3.9686414930555514)" xlink:href="#aT"/></g><g id="v"><use transform="matrix(0.011935763888888876,0,0,0.011935763888888876,0,0)" xlink:href="#aY"/><use transform="matrix(0.011935763888888876,0,0,0.011935763888888876,12.377387152777764,0)" xlink:href="#aX"/><use transform="matrix(0.008355034722222213,0,0,0.008355034722222213,28.287760416666636,3.9686414930555514)" xlink:href="#aU"/></g><g id="w"><use transform="matrix(0.011935763888888876,0,0,0.011935763888888876,0,0)" xlink:href="#aY"/><use transform="matrix(0.011935763888888876,0,0,0.011935763888888876,12.377387152777764,0)" xlink:href="#aX"/><use transform="matrix(0.008355034722222213,0,0,0.008355034722222213,28.287760416666636,3.9686414930555514)" xlink:href="#aV"/></g><path fill="#333" d="M416 0H126v-1536h290V0" id="aZ"/><path fill="#333" d="M552-1102c254-4 435 134 435 383v469c1 103 15 180 43 233V0H738c-13-26-23-58-29-97C639-19 548 20 436 20 238 20 64-113 68-304c5-258 212-357 496-357h133c11-137-29-227-160-227-90 0-156 45-156 131H92c15-231 213-342 460-345zM357-325c0 76 61 124 142 124 88 0 168-45 198-105v-186H589c-152 2-232 51-232 167" id="ba"/><path fill="#333" d="M529-185c94 0 168-33 168-114 0-35-18-63-53-83s-91-39-168-55C219-491 90-600 90-765c0-208 203-337 432-337 246 0 451 124 453 349H686c-2-91-62-143-165-143-86 0-151 41-153 117 0 32 16 57 46 77 63 43 257 69 335 100 151 60 229 153 229 291C978-13 554 93 282-28 162-81 60-190 56-344h274c5 106 86 159 199 159" id="bb"/><g id="x"><use transform="matrix(0.011935763888888876,0,0,0.011935763888888876,0,0)" xlink:href="#aZ"/><use transform="matrix(0.011935763888888876,0,0,0.011935763888888876,6.48111979166666,0)" xlink:href="#ba"/><use transform="matrix(0.011935763888888876,0,0,0.011935763888888876,19.586588541666647,0)" xlink:href="#bb"/><use transform="matrix(0.011935763888888876,0,0,0.011935763888888876,32.15494791666663,0)" xlink:href="#aG"/></g><path fill="#333" d="M663-1102c295 0 423 246 423 571 0 313-131 551-421 551-117 0-211-45-281-135L371 0H111v-1536h289v551c67-78 154-117 263-117zm-71 889c164 0 209-139 205-339-3-189-44-315-207-315-92 0-155 38-190 113v427c35 76 99 114 192 114" id="bc"/><path fill="#333" d="M1031-175C952-60 797 20 609 20 287 20 60-206 72-543c12-330 180-559 505-559 309 0 482 214 477 537v118H365c15 134 115 234 263 234 111 0 198-40 261-121zM770-644c5-139-62-226-194-224-130 1-191 97-208 224h402" id="bd"/><g id="y"><use transform="matrix(0.011935763888888876,0,0,0.011935763888888876,0,0)" xlink:href="#aG"/><use transform="matrix(0.011935763888888876,0,0,0.011935763888888876,8.259548611111102,0)" xlink:href="#ba"/><use transform="matrix(0.011935763888888876,0,0,0.011935763888888876,21.365017361111086,0)" xlink:href="#bc"/><use transform="matrix(0.011935763888888876,0,0,0.011935763888888876,35.12695312499996,0)" xlink:href="#aZ"/><use transform="matrix(0.011935763888888876,0,0,0.011935763888888876,41.608072916666615,0)" xlink:href="#bd"/></g><path fill="#333" d="M369-598c0 393 97 738 310 900l-56 153c-200-92-361-334-433-572-84-277-87-628-5-911 71-244 234-495 438-588l56 156c-205 153-310 488-310 862" id="be"/><path fill="#333" d="M663-1102c295 0 422 250 422 571 0 300-141 549-420 551-109 0-198-38-265-114v510H111v-1498h268l10 106c70-84 161-126 274-126zm133 550c0-175-53-315-209-315-91 0-153 35-187 104v443c35 71 98 107 189 107 138 0 207-113 207-339" id="bf"/><path fill="#333" d="M750-685c-1-124-48-182-173-182-85 0-146 33-184 98V0H104v-1536h289v572c77-92 173-138 289-138 235 0 357 136 357 409V0H750v-685" id="bg"/><g id="z"><use transform="matrix(0.011935763888888876,0,0,0.011935763888888876,0,0)" xlink:href="#be"/><use transform="matrix(0.011935763888888876,0,0,0.011935763888888876,8.581814236111102,0)" xlink:href="#bb"/><use transform="matrix(0.011935763888888876,0,0,0.011935763888888876,21.150173611111086,0)" xlink:href="#aO"/><use transform="matrix(0.011935763888888876,0,0,0.011935763888888876,34.84049479166663,0)" xlink:href="#ba"/><use transform="matrix(0.011935763888888876,0,0,0.011935763888888876,47.945963541666615,0)" xlink:href="#bf"/><use transform="matrix(0.011935763888888876,0,0,0.011935763888888876,61.707899305555486,0)" xlink:href="#bg"/><use transform="matrix(0.011935763888888876,0,0,0.011935763888888876,75.38628472222214,0)" xlink:href="#aM"/><use transform="matrix(0.011935763888888876,0,0,0.011935763888888876,89.20789930555546,0)" xlink:href="#aG"/></g><path fill="#333" d="M190-1174c-11-296 244-440 544-363l-3 224c-24-6-53-9-88-9-109 0-163 51-163 153v87h215v212H480V0H190v-870H29v-212h161v-92" id="bh"/><g id="A"><use transform="matrix(0.011935763888888876,0,0,0.011935763888888876,0,0)" xlink:href="#aM"/><use transform="matrix(0.011935763888888876,0,0,0.011935763888888876,13.821614583333318,0)" xlink:href="#bh"/></g><path fill="#333" d="M416 0H126v-1082h290V0zM271-1212c-92 0-162-61-162-150s68-149 162-149c93 0 162 60 162 149s-70 150-162 150" id="bi"/><path fill="#333" d="M516-353l201-729h302L654 0H378L13-1082h302" id="bj"/><g id="B"><use transform="matrix(0.011935763888888876,0,0,0.011935763888888876,0,0)" xlink:href="#aZ"/><use transform="matrix(0.011935763888888876,0,0,0.011935763888888876,6.48111979166666,0)" xlink:href="#bi"/><use transform="matrix(0.011935763888888876,0,0,0.011935763888888876,12.96223958333332,0)" xlink:href="#bj"/><use transform="matrix(0.011935763888888876,0,0,0.011935763888888876,25.16059027777775,0)" xlink:href="#bd"/></g><path fill="#333" d="M349-541c6-400-96-755-309-922l56-153c203 91 368 336 444 575 89 280 91 621 4 907-74 244-242 497-448 589L40 302c199-150 304-484 309-843" id="bk"/><g id="C"><use transform="matrix(0.011935763888888876,0,0,0.011935763888888876,0,0)" xlink:href="#aG"/><use transform="matrix(0.011935763888888876,0,0,0.011935763888888876,8.259548611111102,0)" xlink:href="#ba"/><use transform="matrix(0.011935763888888876,0,0,0.011935763888888876,21.365017361111086,0)" xlink:href="#bc"/><use transform="matrix(0.011935763888888876,0,0,0.011935763888888876,35.12695312499996,0)" xlink:href="#aZ"/><use transform="matrix(0.011935763888888876,0,0,0.011935763888888876,41.608072916666615,0)" xlink:href="#bd"/><use transform="matrix(0.011935763888888876,0,0,0.011935763888888876,54.82096354166659,0)" xlink:href="#bk"/></g><path fill="#333" d="M719-811c-143-24-279 1-319 103V0H111v-1082h273l8 129c74-124 180-175 331-136" id="bl"/><g id="D"><use transform="matrix(0.011935763888888876,0,0,0.011935763888888876,0,0)" xlink:href="#aL"/><use transform="matrix(0.011935763888888876,0,0,0.011935763888888876,12.74739583333332,0)" xlink:href="#aM"/><use transform="matrix(0.011935763888888876,0,0,0.011935763888888876,26.56901041666664,0)" xlink:href="#aN"/><use transform="matrix(0.011935763888888876,0,0,0.011935763888888876,40.247395833333286,0)" xlink:href="#aO"/><use transform="matrix(0.011935763888888876,0,0,0.011935763888888876,53.93771701388883,0)" xlink:href="#aG"/><use transform="matrix(0.011935763888888876,0,0,0.011935763888888876,62.197265624999936,0)" xlink:href="#bd"/><use transform="matrix(0.011935763888888876,0,0,0.011935763888888876,75.41015624999991,0)" xlink:href="#bl"/></g><g id="E"><use transform="matrix(0.011935763888888876,0,0,0.011935763888888876,0,0)" xlink:href="#be"/><use transform="matrix(0.011935763888888876,0,0,0.011935763888888876,8.581814236111102,0)" xlink:href="#aZ"/><use transform="matrix(0.011935763888888876,0,0,0.011935763888888876,15.06293402777776,0)" xlink:href="#aM"/><use transform="matrix(0.011935763888888876,0,0,0.011935763888888876,28.88454861111108,0)" xlink:href="#aI"/><use transform="matrix(0.011935763888888876,0,0,0.011935763888888876,42.83745659722217,0)" xlink:href="#bi"/><use transform="matrix(0.011935763888888876,0,0,0.011935763888888876,49.31857638888882,0)" xlink:href="#aL"/><use transform="matrix(0.011935763888888876,0,0,0.011935763888888876,62.06597222222216,0)" xlink:href="#ba"/><use transform="matrix(0.011935763888888876,0,0,0.011935763888888876,75.17144097222214,0)" xlink:href="#aZ"/><use transform="matrix(0.011935763888888876,0,0,0.011935763888888876,81.6525607638888,0)" xlink:href="#bk"/></g><path fill="#333" d="M488 20C204 20 66-234 66-549c0-305 140-551 424-553 105 0 192 39 261 118v-552h290V0H780l-14-115C694-25 601 20 488 20zM355-528c0 176 51 314 207 314 89 0 152-38 189-113v-427c-36-75-98-113-187-113-139 0-209 113-209 339" id="bm"/><g id="F"><use transform="matrix(0.011935763888888876,0,0,0.011935763888888876,0,0)" xlink:href="#be"/><use transform="matrix(0.011935763888888876,0,0,0.011935763888888876,8.581814236111102,0)" xlink:href="#bd"/><use transform="matrix(0.011935763888888876,0,0,0.011935763888888876,21.794704861111086,0)" xlink:href="#aO"/><use transform="matrix(0.011935763888888876,0,0,0.011935763888888876,35.48502604166663,0)" xlink:href="#aL"/><use transform="matrix(0.011935763888888876,0,0,0.011935763888888876,48.23242187499995,0)" xlink:href="#aM"/><use transform="matrix(0.011935763888888876,0,0,0.011935763888888876,62.05403645833328,0)" xlink:href="#bm"/><use transform="matrix(0.011935763888888876,0,0,0.011935763888888876,75.82790798611103,0)" xlink:href="#bd"/><use transform="matrix(0.011935763888888876,0,0,0.011935763888888876,89.04079861111101,0)" xlink:href="#bm"/><use transform="matrix(0.011935763888888876,0,0,0.011935763888888876,102.81467013888877,0)" xlink:href="#bk"/></g><path fill="#333" d="M132-554c0-555 187-908 715-903v157c-320-8-501 179-526 477 77-88 181-132 314-132 259 0 417 214 417 480 0 286-172 495-451 495-293 0-469-266-469-574zm737 88c0-181-95-335-265-335-133 0-252 96-286 200v68c-6 207 101 397 283 400 175 3 268-150 268-333" id="bn"/><path fill="#333" d="M902-489h202v151H902V0H716v-338H53v-109l652-1009h197v967zm-639 0h453v-714l-22 40" id="bo"/><g id="G"><use transform="matrix(0.008680555555555556,0,0,0.008680555555555556,0,0)" xlink:href="#bn"/><use transform="matrix(0.008680555555555556,0,0,0.008680555555555556,9.98263888888889,0)" xlink:href="#bo"/></g><path fill="#333" d="M634-1102c292 0 422 254 422 573 0 298-143 547-420 549-137 0-242-48-317-145L310 0H140v-1536h185v573c75-93 178-139 309-139zm-44 965c207 0 281-175 281-413 0-224-79-395-283-395-122 0-210 57-263 170v468c57 113 145 170 265 170" id="bp"/><path fill="#333" d="M341 0H156v-1082h185V0zm-91-1264c-68 0-108-42-109-105 0-62 41-107 109-107s110 44 110 107-42 105-110 105" id="bq"/><path fill="#333" d="M456 20C285 20 205-92 206-268v-671H9v-143h197v-262h185v262h202v143H391v671c-9 125 92 149 207 118V0c-49 13-96 20-142 20" id="br"/><g id="H"><use transform="matrix(0.008680555555555556,0,0,0.008680555555555556,0,0)" xlink:href="#bp"/><use transform="matrix(0.008680555555555556,0,0,0.008680555555555556,9.973958333333334,0)" xlink:href="#bq"/><use transform="matrix(0.008680555555555556,0,0,0.008680555555555556,14.288194444444446,0)" xlink:href="#br"/></g><path fill="#333" d="M319-664C304-226 428 158 661 357l-38 113c-89-49-172-133-254-248C142-97 71-578 194-1025c67-244 240-513 429-618l38 122c-201 153-330 502-342 857" id="bs"/><path fill="#333" d="M134 290L29 218c97-132 105-239 98-437h181c1 144 5 239-50 347-34 67-74 121-124 162" id="bt"/><g id="I"><use transform="matrix(0.011935763888888876,0,0,0.011935763888888876,0,0)" xlink:href="#bs"/><use transform="matrix(0.011935763888888876,0,0,0.011935763888888876,8.355034722222213,0)" xlink:href="#aY"/><use transform="matrix(0.011935763888888876,0,0,0.011935763888888876,18.225911458333314,0)" xlink:href="#aS"/><use transform="matrix(0.008355034722222213,0,0,0.008355034722222213,32.81141493055552,3.9686414930555514)" xlink:href="#aT"/><use transform="matrix(0.008355034722222213,0,0,0.008355034722222213,42.419704861111065,3.9686414930555514)" xlink:href="#bt"/></g><path fill="#333" d="M38 357C331 141 457-487 337-984c-53-219-157-429-299-546l39-113c190 106 362 378 431 621 75 268 76 597 0 868C440 88 266 365 77 470" id="bu"/><g id="J"><use transform="matrix(0.011935763888888876,0,0,0.011935763888888876,0,0)" xlink:href="#aY"/><use transform="matrix(0.011935763888888876,0,0,0.011935763888888876,12.377387152777764,0)" xlink:href="#aX"/><use transform="matrix(0.008355034722222213,0,0,0.008355034722222213,28.287760416666636,3.9686414930555514)" xlink:href="#aT"/><use transform="matrix(0.011935763888888876,0,0,0.011935763888888876,37.89605034722218,0)" xlink:href="#bu"/></g><path fill="#333" d="M248 11c-71 0-114-43-114-108 0-67 42-112 114-112s116 45 116 112c-1 65-45 108-116 108zm1-883c-71 0-114-43-114-108 0-67 42-112 114-112s116 45 116 112c-1 65-45 108-116 108" id="bv"/><path fill="#333" d="M986-814H152v-161h834v161zm0 415H152v-160h834v160" id="bw"/><g id="K"><use transform="matrix(0.011935763888888876,0,0,0.011935763888888876,0,0)" xlink:href="#bv"/><use transform="matrix(0.011935763888888876,0,0,0.011935763888888876,5.920138888888882,0)" xlink:href="#bw"/></g><g id="M"><use transform="matrix(0.011935763888888876,0,0,0.011935763888888876,0,0)" xlink:href="#bs"/><use transform="matrix(0.011935763888888876,0,0,0.011935763888888876,8.355034722222213,0)" xlink:href="#aY"/><use transform="matrix(0.011935763888888876,0,0,0.011935763888888876,18.225911458333314,0)" xlink:href="#aS"/><use transform="matrix(0.008355034722222213,0,0,0.008355034722222213,32.81141493055552,3.9686414930555514)" xlink:href="#bq"/></g><use transform="matrix(0.011935763888888876,0,0,0.011935763888888876,0,0)" xlink:href="#bt" id="N"/><g id="O"><use transform="matrix(0.011935763888888876,0,0,0.011935763888888876,0,0)" xlink:href="#aY"/><use transform="matrix(0.011935763888888876,0,0,0.011935763888888876,12.377387152777764,0)" xlink:href="#aX"/><use transform="matrix(0.008355034722222213,0,0,0.008355034722222213,28.287760416666636,3.9686414930555514)" xlink:href="#bq"/><use transform="matrix(0.011935763888888876,0,0,0.011935763888888876,32.44021267361108,0)" xlink:href="#bu"/></g><path fill="#333" d="M1098-255l208-827h185L1176 0h-150L763-820 507 0H357L43-1082h184l213 810 252-810h149" id="bx"/><path fill="#333" d="M589-945c-131 0-219 81-264 174V0H140v-1536h185v585c82-101 189-151 320-151 229 0 346 129 346 387V0H806v-716c-2-153-65-229-217-229" id="by"/><path fill="#333" d="M599-131c141 0 220-65 285-146l113 88C906-50 770 20 589 20 281 21 93-214 93-545c0-223 93-397 233-485 74-48 154-72 240-72 300 2 449 218 445 537v77H278c0 197 129 357 321 357zm227-509c-3-180-88-310-260-310-170 0-264 140-282 310h542" id="bz"/><path fill="#333" d="M663-916c-163-27-288 18-338 148V0H140v-1082h180l3 125c61-97 147-145 258-145 36 0 63 5 82 14v172" id="bA"/><g id="P"><use transform="matrix(0.011935763888888876,0,0,0.011935763888888876,0,0)" xlink:href="#bx"/><use transform="matrix(0.011935763888888876,0,0,0.011935763888888876,18.36914062499998,0)" xlink:href="#by"/><use transform="matrix(0.011935763888888876,0,0,0.011935763888888876,31.832682291666625,0)" xlink:href="#bz"/><use transform="matrix(0.011935763888888876,0,0,0.011935763888888876,44.78298611111106,0)" xlink:href="#bA"/><use transform="matrix(0.011935763888888876,0,0,0.011935763888888876,52.827690972222165,0)" xlink:href="#bz"/></g><use transform="matrix(0.011935763888888876,0,0,0.011935763888888876,0,0)" xlink:href="#bq" id="Q"/><path fill="#333" d="M538-131c121 0 232-49 232-156 0-50-20-88-56-117-73-60-334-92-420-143-92-55-162-110-162-238 0-190 192-317 400-317 223 0 414 129 413 338H759c0-108-110-186-227-186-119 0-215 53-215 159 0 45 18 78 53 101 76 52 331 90 416 139 98 57 169 115 169 251C955-92 760 20 538 20c-176 0-314-68-386-174-38-55-57-115-57-179h185c6 129 116 202 258 202" id="bB"/><g id="R"><use transform="matrix(0.011935763888888876,0,0,0.011935763888888876,0,0)" xlink:href="#bq"/><use transform="matrix(0.011935763888888876,0,0,0.011935763888888876,5.9320746527777715,0)" xlink:href="#bB"/></g><path fill="#333" d="M561-1102c238-4 403 126 403 351v498c0 99 13 178 38 237V0H808c-11-21-19-59-26-114C696-25 593 20 474 20c-199 0-368-130-365-320 4-251 214-359 490-356h180v-85c-1-135-86-212-229-212-115 0-232 67-233 171H131c20-205 206-316 430-320zM294-326c0 117 90 185 207 185 122 0 239-75 278-162v-222H634c-227 0-340 66-340 199" id="bC"/><path fill="#333" d="M521 20C240 20 96-239 96-550c0-303 147-552 427-552 132 0 235 47 309 140l9-120h169V-26c4 277-183 454-459 452-165-1-334-81-400-187l96-111c79 98 176 147 291 147 180 1 288-109 286-290v-93C750-23 649 20 521 20zm48-965c-209 0-287 178-287 416 0 217 86 392 285 392 117 0 202-53 257-159v-494c-57-103-142-155-255-155" id="bD"/><path fill="#333" d="M1240-945c-141 0-250 95-250 227V0H804v-709c0-157-77-236-231-236-121 0-204 52-249 155V0H139v-1082h175l5 120c79-93 186-140 321-140 151 0 254 58 309 174 69-98 181-174 345-174 237 0 362 126 362 377V0h-185v-714c-2-159-67-231-231-231" id="bE"/><path fill="#333" d="M503-687l240-395h216L605-547 970 0H756L506-405 256 0H41l365-547-354-535h214" id="bF"/><g id="S"><use transform="matrix(0.011935763888888876,0,0,0.011935763888888876,0,0)" xlink:href="#bC"/><use transform="matrix(0.011935763888888876,0,0,0.011935763888888876,13.296440972222207,0)" xlink:href="#bA"/><use transform="matrix(0.011935763888888876,0,0,0.011935763888888876,21.341145833333307,0)" xlink:href="#bD"/><use transform="matrix(0.011935763888888876,0,0,0.011935763888888876,35.05533854166663,0)" xlink:href="#bE"/><use transform="matrix(0.011935763888888876,0,0,0.011935763888888876,56.480034722222165,0)" xlink:href="#bC"/><use transform="matrix(0.011935763888888876,0,0,0.011935763888888876,69.77647569444437,0)" xlink:href="#bF"/></g><g id="T"><use transform="matrix(0.011935763888888876,0,0,0.011935763888888876,0,0)" xlink:href="#aS"/><use transform="matrix(0.008355034722222213,0,0,0.008355034722222213,14.585503472222207,3.9686414930555514)" xlink:href="#bq"/></g><g id="W"><use transform="matrix(0.011935763888888876,0,0,0.011935763888888876,0,0)" xlink:href="#bs"/><use transform="matrix(0.011935763888888876,0,0,0.011935763888888876,8.355034722222213,0)" xlink:href="#aT"/><use transform="matrix(0.011935763888888876,0,0,0.011935763888888876,22.08116319444442,0)" xlink:href="#bt"/></g><g id="X"><use transform="matrix(0.011935763888888876,0,0,0.011935763888888876,0,0)" xlink:href="#aT"/><use transform="matrix(0.011935763888888876,0,0,0.011935763888888876,13.726128472222207,0)" xlink:href="#bu"/></g><path fill="#333" d="M704-1390c-164-38-297 28-288 194v114h231v143H416V0H231v-939H60v-143h171v-111c-12-274 208-416 483-347" id="bG"/><g id="Y"><use transform="matrix(0.011935763888888876,0,0,0.011935763888888876,0,0)" xlink:href="#bq"/><use transform="matrix(0.011935763888888876,0,0,0.011935763888888876,5.9320746527777715,0)" xlink:href="#bG"/></g><path fill="#333" d="M589-945c-131 0-219 81-264 174V0H140v-1082h175l6 136c83-104 191-156 324-156 229 0 346 129 346 387V0H806v-716c-2-153-65-229-217-229" id="bH"/><path fill="#333" d="M525-543H37v-151h488v151" id="bI"/><g id="Z"><use transform="matrix(0.011935763888888876,0,0,0.011935763888888876,0,0)" xlink:href="#aY"/><use transform="matrix(0.011935763888888876,0,0,0.011935763888888876,9.8708767361111,0)" xlink:href="#aS"/><use transform="matrix(0.008355034722222213,0,0,0.008355034722222213,24.456380208333307,3.9686414930555514)" xlink:href="#bH"/><use transform="matrix(0.008355034722222213,0,0,0.008355034722222213,33.89756944444441,3.9686414930555514)" xlink:href="#bI"/><use transform="matrix(0.008355034722222213,0,0,0.008355034722222213,38.61816406249996,3.9686414930555514)" xlink:href="#aU"/></g><path fill="#333" d="M264-677l626 228v176L72-614v-131l818-340v176zM897-2H62v-151h835V-2" id="bJ"/><use transform="matrix(0.011935763888888876,0,0,0.011935763888888876,0,0)" xlink:href="#bJ" id="aa"/><use transform="matrix(0.011935763888888876,0,0,0.011935763888888876,0,0)" xlink:href="#aU" id="ab"/><g id="ad"><use transform="matrix(0.011935763888888876,0,0,0.011935763888888876,0,0)" xlink:href="#bs"/><use transform="matrix(0.011935763888888876,0,0,0.011935763888888876,8.355034722222213,0)" xlink:href="#aY"/><use transform="matrix(0.011935763888888876,0,0,0.011935763888888876,18.225911458333314,0)" xlink:href="#aS"/><use transform="matrix(0.008355034722222213,0,0,0.008355034722222213,32.81141493055552,3.9686414930555514)" xlink:href="#bH"/><use transform="matrix(0.008355034722222213,0,0,0.008355034722222213,42.25260416666662,3.9686414930555514)" xlink:href="#bt"/></g><g id="ae"><use transform="matrix(0.011935763888888876,0,0,0.011935763888888876,0,0)" xlink:href="#aY"/><use transform="matrix(0.011935763888888876,0,0,0.011935763888888876,12.377387152777764,0)" xlink:href="#aX"/><use transform="matrix(0.008355034722222213,0,0,0.008355034722222213,28.287760416666636,3.9686414930555514)" xlink:href="#bH"/><use transform="matrix(0.011935763888888876,0,0,0.011935763888888876,37.728949652777736,0)" xlink:href="#bu"/></g><path fill="#333" d="M524 20C238 18 95-240 95-550c0-307 146-552 431-552 128 0 229 43 303 129l8-109h170V416H822v-516C747-20 648 20 524 20zm48-970c-208 0-292 182-292 421 0 219 92 398 290 398 110 0 194-49 252-146v-530c-59-95-142-143-250-143" id="bK"/><g id="af"><use transform="matrix(0.011935763888888876,0,0,0.011935763888888876,0,0)" xlink:href="#bs"/><use transform="matrix(0.011935763888888876,0,0,0.011935763888888876,8.355034722222213,0)" xlink:href="#aS"/><use transform="matrix(0.008355034722222213,0,0,0.008355034722222213,22.94053819444442,3.9686414930555514)" xlink:href="#bK"/></g><use transform="matrix(0.011935763888888876,0,0,0.011935763888888876,0,0)" xlink:href="#bt" id="ag"/><g id="ah"><use transform="matrix(0.011935763888888876,0,0,0.011935763888888876,0,0)" xlink:href="#aX"/><use transform="matrix(0.008355034722222213,0,0,0.008355034722222213,15.910373263888872,3.9686414930555514)" xlink:href="#bK"/></g><use transform="matrix(0.011935763888888876,0,0,0.011935763888888876,0,0)" xlink:href="#bu" id="ai"/><path fill="#333" d="M1161-1490V0H200v-171h762v-489H200v-171h762v-495H200v-165h961" id="bL"/><path fill="#333" d="M347-411H180l-13-1045h194zM269 11c-68 0-108-41-109-104 0-63 41-106 109-106s110 43 110 106S337 11 269 11" id="bM"/><g id="aj"><use transform="matrix(0.011935763888888876,0,0,0.011935763888888876,0,0)" xlink:href="#bL"/><use transform="matrix(0.011935763888888876,0,0,0.011935763888888876,15.40907118055554,0)" xlink:href="#bM"/></g><g id="ak"><use transform="matrix(0.011935763888888876,0,0,0.011935763888888876,0,0)" xlink:href="#bK"/><use transform="matrix(0.011935763888888876,0,0,0.011935763888888876,13.893229166666652,0)" xlink:href="#bv"/></g><g id="al"><use transform="matrix(0.011935763888888876,0,0,0.011935763888888876,0,0)" xlink:href="#aY"/><use transform="matrix(0.011935763888888876,0,0,0.011935763888888876,9.8708767361111,0)" xlink:href="#aS"/><use transform="matrix(0.008355034722222213,0,0,0.008355034722222213,24.456380208333307,3.9686414930555514)" xlink:href="#bH"/><use transform="matrix(0.008355034722222213,0,0,0.008355034722222213,33.89756944444441,3.9686414930555514)" xlink:href="#bI"/><use transform="matrix(0.008355034722222213,0,0,0.008355034722222213,38.61816406249996,3.9686414930555514)" xlink:href="#aU"/></g><use transform="matrix(0.011935763888888876,0,0,0.011935763888888876,0,0)" xlink:href="#bw" id="am"/><g id="an"><use transform="matrix(0.011935763888888876,0,0,0.011935763888888876,0,0)" xlink:href="#aS"/><use transform="matrix(0.008355034722222213,0,0,0.008355034722222213,14.585503472222207,3.9686414930555514)" xlink:href="#bK"/></g><use transform="matrix(0.011935763888888876,0,0,0.011935763888888876,0,0)" xlink:href="#bI" id="ao"/><use transform="matrix(0.011935763888888876,0,0,0.011935763888888876,0,0)" xlink:href="#aU" id="ap"/><g id="at"><use transform="matrix(0.011935763888888876,0,0,0.011935763888888876,0,0)" xlink:href="#bs"/><use transform="matrix(0.011935763888888876,0,0,0.011935763888888876,8.355034722222213,0)" xlink:href="#aT"/><use transform="matrix(0.011935763888888876,0,0,0.011935763888888876,22.08116319444442,0)" xlink:href="#bt"/></g><g id="au"><use transform="matrix(0.011935763888888876,0,0,0.011935763888888876,0,0)" xlink:href="#aT"/><use transform="matrix(0.011935763888888876,0,0,0.011935763888888876,13.726128472222207,0)" xlink:href="#bu"/></g><path fill="#333" d="M584 20C278 26 81-227 91-551c10-320 175-545 491-551 308-5 503 247 494 573-9 322-175 543-492 549zm-2-970c-208 0-305 185-305 421 0 216 106 398 307 398 211 0 307-186 307-420 0-214-109-399-309-399" id="bN"/><g id="av"><use transform="matrix(0.011935763888888876,0,0,0.011935763888888876,0,0)" xlink:href="#bN"/><use transform="matrix(0.011935763888888876,0,0,0.011935763888888876,13.940972222222207,0)" xlink:href="#br"/><use transform="matrix(0.011935763888888876,0,0,0.011935763888888876,21.925998263888864,0)" xlink:href="#by"/><use transform="matrix(0.011935763888888876,0,0,0.011935763888888876,35.389539930555515,0)" xlink:href="#bz"/><use transform="matrix(0.011935763888888876,0,0,0.011935763888888876,48.33984374999994,0)" xlink:href="#bA"/><use transform="matrix(0.011935763888888876,0,0,0.011935763888888876,56.81423611111105,0)" xlink:href="#bx"/><use transform="matrix(0.011935763888888876,0,0,0.011935763888888876,75.18337673611103,0)" xlink:href="#bq"/><use transform="matrix(0.011935763888888876,0,0,0.011935763888888876,81.1154513888888,0)" xlink:href="#bB"/><use transform="matrix(0.011935763888888876,0,0,0.011935763888888876,93.71961805555546,0)" xlink:href="#bz"/></g><path fill="#333" d="M1314-535l108-108-108-102H119v-119h1075l-91-97 119-119 393 393v91l-393 393-119-119 91-91H119v-119h1195" id="bO"/><use transform="matrix(0.011935763888888876,0,0,0.011935763888888876,0,0)" xlink:href="#bO" id="aw"/><g id="ax"><use transform="matrix(0.011935763888888876,0,0,0.011935763888888876,0,0)" xlink:href="#aY"/><use transform="matrix(0.011935763888888876,0,0,0.011935763888888876,9.8708767361111,0)" xlink:href="#aS"/><use transform="matrix(0.008355034722222213,0,0,0.008355034722222213,24.456380208333307,3.9686414930555514)" xlink:href="#aU"/></g><g id="ay"><use transform="matrix(0.011935763888888876,0,0,0.011935763888888876,0,0)" xlink:href="#aY"/><use transform="matrix(0.011935763888888876,0,0,0.011935763888888876,9.8708767361111,0)" xlink:href="#aS"/><use transform="matrix(0.008355034722222213,0,0,0.008355034722222213,24.456380208333307,3.9686414930555514)" xlink:href="#aT"/></g><use transform="matrix(0.011935763888888876,0,0,0.011935763888888876,0,0)" xlink:href="#bI" id="az"/><use transform="matrix(0.011935763888888876,0,0,0.011935763888888876,0,0)" xlink:href="#aU" id="aA"/><path fill="#333" d="M225-872c-71 0-114-43-114-108 0-67 42-112 114-112s116 45 116 112c-1 65-45 108-116 108zM146 290L41 218c97-132 105-239 98-437h181c1 144 5 239-50 347-34 67-74 121-124 162" id="bP"/><use transform="matrix(0.011935763888888876,0,0,0.011935763888888876,0,0)" xlink:href="#bP" id="aB"/><g id="aC"><use transform="matrix(0.011935763888888876,0,0,0.011935763888888876,0,0)" xlink:href="#aY"/><use transform="matrix(0.011935763888888876,0,0,0.011935763888888876,9.8708767361111,0)" xlink:href="#aS"/><use transform="matrix(0.008355034722222213,0,0,0.008355034722222213,24.456380208333307,3.9686414930555514)" xlink:href="#aV"/></g><use transform="matrix(0.011935763888888876,0,0,0.011935763888888876,0,0)" xlink:href="#aU" id="aD"/><use transform="matrix(0.011935763888888876,0,0,0.011935763888888876,0,0)" xlink:href="#bw" id="aE"/><use transform="matrix(0.011935763888888876,0,0,0.011935763888888876,0,0)" xlink:href="#aV" id="aF"/></defs></g></svg>