<svg xmlns="http://www.w3.org/2000/svg" xmlns:xlink="http://www.w3.org/1999/xlink" xmlns:lucid="lucid" width="679.89" height="518.82"><g transform="translate(-280 -80)" lucid:page-tab-id="ESeFA3L-qctZ"><path d="M572.84 267.65v5.13m0 5.13v10.26m0 5.13v10.24m0 5.13v10.25m0 5.13v10.25m0 5.13v10.25m0 5.13v10.26m0 5.13v10.24m0 5.13v10.25m0 5.13v10.25m0 5.13v10.25m0 5.13v10.26m0 5.13v10.24m0 5.13v10.25m0 5.13v10.25m0 5.13v10.25m0 5.13v10.26m0 5.13v10.24m0 5.13v10.25m0 5.13v5.13M572.84 267.66v-.26M572.84 559.87v.26" stroke="#ccc" stroke-width=".5" fill="none"/><path d="M502 106c0-3.3 2.7-6 6-6h40.56c3.3 0 6 2.7 6 6v43.2c0 3.32-2.7 6-6 6H508c-3.3 0-6-2.68-6-6z" stroke="#333" fill-opacity="0"/><path d="M652.77 267.65v5.13m0 5.13v10.26m0 5.13v10.24m0 5.13v10.25m0 5.13v10.25m0 5.13v10.25m0 5.13v10.26m0 5.13v10.24m0 5.13v10.25m0 5.13v10.25m0 5.13v10.25m0 5.13v10.26m0 5.13v10.24m0 5.13v10.25m0 5.13v10.25m0 5.13v10.25m0 5.13v10.26m0 5.13v10.24m0 5.13v10.25m0 5.13v5.13M652.77 267.66v-.26M652.77 559.87v.26M732.7 267.65v5.13m0 5.13v10.26m0 5.13v10.24m0 5.13v10.25m0 5.13v10.25m0 5.13v10.25m0 5.13v10.26m0 5.13v10.24m0 5.13v10.25m0 5.13v10.25m0 5.13v10.25m0 5.13v10.26m0 5.13v10.24m0 5.13v10.25m0 5.13v10.25m0 5.13v10.25m0 5.13v10.26m0 5.13v10.24m0 5.13v10.25m0 5.13v5.13M732.7 267.66v-.26M732.7 559.87v.26M812.64 267.65v5.13m0 5.13v10.26m0 5.13v10.24m0 5.13v10.25m0 5.13v10.25m0 5.13v10.25m0 5.13v10.26m0 5.13v10.24m0 5.13v10.25m0 5.13v10.25m0 5.13v10.25m0 5.13v10.26m0 5.13v10.24m0 5.13v10.25m0 5.13v10.25m0 5.13v10.25m0 5.13v10.26m0 5.13v10.24m0 5.13v10.25m0 5.13v5.13M812.64 267.66v-.26M812.64 559.87v.26M892.58 267.65v5.13m0 5.13v10.26m0 5.13v10.24m0 5.13v10.25m0 5.13v10.25m0 5.13v10.25m0 5.13v10.26m0 5.13v10.24m0 5.13v10.25m0 5.13v10.25m0 5.13v10.25m0 5.13v10.26m0 5.13v10.24m0 5.13v10.25m0 5.13v10.25m0 5.13v10.25m0 5.13v10.26m0 5.13v10.24m0 5.13v10.25m0 5.13v5.13M892.58 267.66v-.26M892.58 559.87v.26" stroke="#ccc" stroke-width=".5" fill="none"/><path d="M872.02 225.15c0-3.3 2.7-6 6-6h46.46c3.32 0 6 2.7 6 6v48c0 3.3-2.68 6-6 6h-46.46c-3.3 0-6-2.7-6-6z" stroke="#000" stroke-opacity="0" stroke-width="3" fill="#fff" fill-opacity="0"/><use xlink:href="#a" transform="matrix(1,0,0,1,877.0197285141384,224.1496031109183) translate(4.424045138888911 32.052951388888864)"/><path d="M669.3 106c0-3.3 2.7-6 6-6h23.32c3.3 0 6 2.7 6 6v43.2c0 3.32-2.7 6-6 6h-23.3c-3.32 0-6-2.68-6-6zM583.93 106c0-3.3 2.7-6 6-6h23.3c3.33 0 6 2.7 6 6v43.2c0 3.32-2.67 6-6 6h-23.3c-3.3 0-6-2.68-6-6z" stroke="#333" fill-opacity="0"/><path d="M493.24 287.6v261.72M493.24 287.63v-1.03" stroke="#333" stroke-width="2" fill="none"/><path d="M493.24 564.58l-4.64-14.26h9.27z" stroke="#333" stroke-width="2" fill="#333"/><path d="M514.06 268.36H910.4M514.1 268.36h-1.04" stroke="#333" stroke-width="2" fill="none"/><path d="M925.66 268.36L911.4 273v-9.27z" stroke="#333" stroke-width="2" fill="#333"/><path d="M453.24 268.75v259.6l-40-10.65V279.4z" stroke="#333" fill="#fff"/><use xlink:href="#b" transform="matrix(-1.8369701987210297e-16,-1,1,-1.8369701987210297e-16,418.2378304153063,523.3631182290806) translate(53.0621831597223 22.677951388888864)"/><use xlink:href="#c" transform="matrix(-1.8369701987210297e-16,-1,1,-1.8369701987210297e-16,418.2378304153063,523.3631182290806) translate(92.68891927083337 22.677951388888864)"/><use xlink:href="#d" transform="matrix(-1.8369701987210297e-16,-1,1,-1.8369701987210297e-16,418.2378304153063,523.3631182290806) translate(149.1928255208333 22.677951388888864)"/><use xlink:href="#e" transform="matrix(-1.8369701987210297e-16,-1,1,-1.8369701987210297e-16,418.2378304153063,523.3631182290806) translate(170.4384852430555 22.677951388888864)"/><path d="M480.4 328.36h11.84M480.42 328.36h-1.03M492.2 328.36h1.04" stroke="#333" stroke-width="2" fill="none"/><path d="M467.64 274.75c0-3.32 2.68-6 6-6h13.52c3.3 0 6 2.68 6 6v47c0 3.32-2.7 6-6 6h-13.52c-3.32 0-6-2.68-6-6z" stroke="#000" stroke-opacity="0" stroke-width="3" fill="#fff" fill-opacity="0"/><use xlink:href="#f" transform="matrix(1,0,0,1,472.63518781724895,273.74597995425773) translate(2.384765625000009 31.05468749999997)"/><path d="M480.4 388.36h11.84M480.42 388.36h-1.03M492.2 388.36h1.04" stroke="#333" stroke-width="2" fill="none"/><path d="M467.64 334.75c0-3.32 2.68-6 6-6h13.52c3.3 0 6 2.68 6 6v47c0 3.32-2.7 6-6 6h-13.52c-3.32 0-6-2.68-6-6z" stroke="#000" stroke-opacity="0" stroke-width="3" fill="#fff" fill-opacity="0"/><use xlink:href="#g" transform="matrix(1,0,0,1,472.63518781724895,333.74597995425773) translate(2.384765625000009 31.05468749999997)"/><path d="M480.4 448.36h11.84M480.42 448.36h-1.03M492.2 448.36h1.04" stroke="#333" stroke-width="2" fill="none"/><path d="M467.64 394.75c0-3.32 2.68-6 6-6h13.52c3.3 0 6 2.68 6 6v47c0 3.32-2.7 6-6 6h-13.52c-3.32 0-6-2.68-6-6z" stroke="#000" stroke-opacity="0" stroke-width="3" fill="#fff" fill-opacity="0"/><use xlink:href="#h" transform="matrix(1,0,0,1,472.63518781724895,393.74597995425785) translate(2.384765625000009 31.05468749999997)"/><path d="M480.4 508.36h11.84M480.42 508.36h-1.03M492.2 508.36h1.04" stroke="#333" stroke-width="2" fill="none"/><path d="M467.64 454.75c0-3.32 2.68-6 6-6h13.52c3.3 0 6 2.68 6 6v47c0 3.32-2.7 6-6 6h-13.52c-3.32 0-6-2.68-6-6z" stroke="#000" stroke-opacity="0" stroke-width="3" fill="#fff" fill-opacity="0"/><use xlink:href="#i" transform="matrix(1,0,0,1,472.63518781724895,453.74597995425785) translate(2.384765625000009 31.05468749999997)"/><path d="M573.03 255.42v11.85M573.03 255.45v-1.03M573.03 267.24v1.03" stroke="#333" stroke-width="2" fill="none"/><path d="M500.26 268.13c-3.32 0-6-2.7-6-6V248.6c0-3.3 2.68-6 6-6h66.58c3.32 0 6 2.7 6 6v13.53c0 3.3-2.68 6-6 6z" stroke="#000" stroke-opacity="0" stroke-width="3" fill="#fff" fill-opacity="0"/><use xlink:href="#j" transform="matrix(1,0,0,1,499.25837431274067,247.6019414512026) translate(23.269531250000018 18.55468749999997)"/><path d="M652.62 255.4v11.84M652.62 255.42v-1.03M652.62 267.2v1.04" stroke="#333" stroke-width="2" fill="none"/><path d="M578.84 268.13c-3.3 0-6-2.7-6-6V248.6c0-3.3 2.7-6 6-6h66.6c3.3 0 6 2.7 6 6v13.53c0 3.3-2.7 6-6 6z" stroke="#000" stroke-opacity="0" stroke-width="3" fill="#fff" fill-opacity="0"/><use xlink:href="#k" transform="matrix(1,0,0,1,577.8430119765363,247.6019414512025) translate(23.269531250000018 18.55468749999997)"/><path d="M732.77 255.42v11.85M732.77 255.45v-1.03M732.77 267.24v1.03" stroke="#333" stroke-width="2" fill="none"/><path d="M660 268.13c-3.3 0-6-2.7-6-6V248.6c0-3.3 2.7-6 6-6h66.58c3.32 0 6 2.7 6 6v13.53c0 3.3-2.68 6-6 6z" stroke="#000" stroke-opacity="0" stroke-width="3" fill="#fff" fill-opacity="0"/><use xlink:href="#l" transform="matrix(1,0,0,1,658.9995534534731,247.6019414512025) translate(23.269531250000018 18.55468749999997)"/><path d="M812.72 255.42v11.85M812.72 255.45v-1.03M812.72 267.24v1.03" stroke="#333" stroke-width="2" fill="none"/><path d="M739.95 268.13c-3.32 0-6-2.7-6-6V248.6c0-3.3 2.68-6 6-6h66.58c3.32 0 6 2.7 6 6v13.53c0 3.3-2.68 6-6 6z" stroke="#000" stroke-opacity="0" stroke-width="3" fill="#fff" fill-opacity="0"/><use xlink:href="#m" transform="matrix(1,0,0,1,738.9481491061031,247.6019414512025) translate(23.269531250000018 18.55468749999997)"/><path d="M820.47 268.13c-3.3 0-6-2.7-6-6V248.6c0-3.3 2.7-6 6-6h66.58c3.32 0 6 2.7 6 6v13.53c0 3.3-2.68 6-6 6z" stroke="#000" stroke-opacity="0" stroke-width="3" fill="#fff" fill-opacity="0"/><use xlink:href="#n" transform="matrix(1,0,0,1,819.4699969288592,247.60194145120238) translate(23.269531250000018 18.55468749999997)"/><path d="M896.34 233.23H493.7l10.44-39.16H885.9z" stroke="#333" fill="#fff"/><use xlink:href="#o" transform="matrix(1,-2.4492935982947064e-16,2.4492935982947064e-16,1,498.70134805570075,199.06842654749832) translate(82.01118489583347 22.677951388888864)"/><use xlink:href="#p" transform="matrix(1,-2.4492935982947064e-16,2.4492935982947064e-16,1,498.70134805570075,199.06842654749832) translate(159.60558593750005 22.677951388888864)"/><path d="M498.42 289.04c0-3.3 2.7-6 6-6h23.8c3.3 0 6 2.7 6 6v18.42c0 3.3-2.7 6-6 6h-23.8c-3.3 0-6-2.7-6-6z" stroke="#000" stroke-opacity="0" stroke-width="3" fill="#fff" fill-opacity="0"/><use xlink:href="#q" transform="matrix(1,0,0,1,498.4235710540085,283.0415892944726) translate(10.031909722222231 22.677951388888864)"/><path d="M531.3 289.04c0-3.3 2.68-6 6-6h23.78c3.32 0 6 2.7 6 6v18.42c0 3.3-2.68 6-6 6h-23.8c-3.3 0-6-2.7-6-6z" stroke="#000" stroke-opacity="0" stroke-width="3" fill="#fff" fill-opacity="0"/><use xlink:href="#r" transform="matrix(1,0,0,1,531.2927600711669,283.0415892944726) translate(10.395950520833342 22.677951388888864)"/><path d="M514.23 347.4c0-3.32 2.7-6 6-6h23.8c3.3 0 6 2.68 6 6v18.4c0 3.33-2.7 6-6 6h-23.8c-3.3 0-6-2.67-6-6z" stroke="#000" stroke-opacity="0" stroke-width="3" fill="#fff" fill-opacity="0"/><use xlink:href="#s" transform="matrix(1,0,0,1,514.231473369451,341.3959604349873) translate(10.049813368055565 22.677951388888864)"/><path d="M515.66 409.04c0-3.3 2.68-6 6-6h23.78c3.32 0 6 2.7 6 6v18.42c0 3.3-2.68 6-6 6h-23.78c-3.32 0-6-2.7-6-6z" stroke="#000" stroke-opacity="0" stroke-width="3" fill="#fff" fill-opacity="0"/><use xlink:href="#t" transform="matrix(1,0,0,1,515.6564216102713,403.0415892944725) translate(9.990134548611119 22.677951388888864)"/><path d="M595.1 347.4c0-3.32 2.7-6 6-6h23.8c3.32 0 6 2.68 6 6v18.4c0 3.33-2.68 6-6 6h-23.8c-3.3 0-6-2.67-6-6z" stroke="#000" stroke-opacity="0" stroke-width="3" fill="#fff" fill-opacity="0"/><use xlink:href="#u" transform="matrix(1,0,0,1,595.1144183500011,341.3959604349873) translate(11.058385416666674 22.677951388888864)"/><path d="M752.94 347.4c0-3.32 2.7-6 6-6h23.8c3.3 0 6 2.68 6 6v18.4c0 3.33-2.7 6-6 6h-23.8c-3.3 0-6-2.67-6-6z" stroke="#000" stroke-opacity="0" stroke-width="3" fill="#fff" fill-opacity="0"/><use xlink:href="#v" transform="matrix(1,0,0,1,752.9406308343362,341.3959604349873) translate(9.679804687500008 22.677951388888864)"/><path d="M752.94 408.28c0-3.32 2.7-6 6-6h23.8c3.3 0 6 2.68 6 6v18.4c0 3.33-2.7 6-6 6h-23.8c-3.3 0-6-2.67-6-6z" stroke="#000" stroke-opacity="0" stroke-width="3" fill="#fff" fill-opacity="0"/><use xlink:href="#w" transform="matrix(1,0,0,1,752.9406308343362,402.27790575784616) translate(9.291892361111122 22.677951388888864)"/><path d="M677.13 469.04c0-3.3 2.68-6 6-6h23.78c3.33 0 6 2.7 6 6v18.42c0 3.3-2.67 6-6 6h-23.77c-3.32 0-6-2.7-6-6z" stroke="#000" stroke-opacity="0" stroke-width="3" fill="#fff" fill-opacity="0"/><use xlink:href="#x" transform="matrix(1,0,0,1,677.1256282525811,463.0415892944725) translate(11.249357638888897 22.677951388888864)"/><path d="M834.78 468.28c0-3.32 2.7-6 6-6h23.8c3.3 0 6 2.68 6 6v18.4c0 3.33-2.7 6-6 6h-23.8c-3.3 0-6-2.67-6-6z" stroke="#000" stroke-opacity="0" stroke-width="3" fill="#fff" fill-opacity="0"/><use xlink:href="#y" transform="matrix(1,0,0,1,834.781172862207,462.27790575784616) translate(14.680889756944447 22.677951388888864)"/><path d="M429.44 540.3c0-3.3 2.7-6 6-6h46.46c3.32 0 6 2.7 6 6v25.15c0 3.32-2.68 6-6 6h-46.46c-3.3 0-6-2.68-6-6z" stroke="#000" stroke-opacity="0" stroke-width="3" fill="#fff" fill-opacity="0"/><use xlink:href="#z" transform="matrix(1,0,0,1,434.43873492736145,539.3139289606207) translate(7.712348090277796 22.677951388888864)"/><path d="M494.1 268.37h2.65m3.52 0h5.27m3.52 0h2.63M494.14 268.37h-1.03M511.67 268.37h1.02M493.26 268.38v2.4m0 3.18v4.8m0 3.18v2.4M493.26 268.4v-1.02M493.26 284.3v1.03" stroke="#333" stroke-width="2" fill="none"/><path d="M494.96 328.37h5.1m5.1 0h10.18m5.1 0h10.18m5.1 0h10.18m5.1 0h10.2m5.08 0h10.2m5.08 0h10.2m5.1 0h10.18m5.1 0h10.18m5.1 0h10.18m5.1 0h10.2m5.08 0h10.2m5.08 0h10.2m5.1 0h10.18m5.1 0H714m5.1 0h10.18m5.1 0h10.2m5.08 0h10.2m5.1 0h10.18m5.1 0h10.18m5.1 0h10.18m5.1 0h10.2m5.08 0h10.2m5.08 0h10.2m5.1 0h10.18m5.1 0h10.18m5.1 0h5.1M494.96 328.37h-.25M892.32 328.37h.26M494.96 388.37h5.1m5.08 0h10.2m5.1 0h10.18m5.1 0h10.18m5.1 0h10.18m5.1 0h10.2m5.08 0h10.2m5.1 0h10.18m5.1 0h10.18m5.1 0h10.18m5.1 0h10.2m5.08 0h10.2m5.08 0h10.2m5.1 0h10.18m5.1 0H714m5.1 0h10.18m5.1 0h10.2m5.08 0h10.2m5.1 0h10.17m5.1 0h10.2m5.08 0h10.2m5.1 0H821m5.1 0h10.2m5.08 0h10.2m5.1 0h10.18m5.1 0h10.18m5.1 0h5.1M494.96 388.37h-.25M892.32 388.37h.26M494.96 448.37h5.1m5.08 0h10.2m5.1 0h10.18m5.1 0h10.18m5.1 0h10.18m5.1 0h10.2m5.08 0h10.2m5.1 0h10.18m5.1 0h10.18m5.1 0h10.18m5.1 0h10.2m5.08 0h10.2m5.08 0h10.2m5.1 0h10.18m5.1 0H714m5.1 0h10.18m5.1 0h10.2m5.08 0h10.2m5.1 0h10.17m5.1 0h10.2m5.08 0h10.2m5.1 0H821m5.1 0h10.2m5.08 0h10.2m5.1 0h10.18m5.1 0h10.18m5.1 0h5.1M494.96 448.37h-.25M892.32 448.37h.26M494.96 508.37h5.1m5.08 0h10.2m5.1 0h10.18m5.1 0h10.18m5.1 0h10.18m5.1 0h10.2m5.08 0h10.2m5.1 0h10.18m5.1 0h10.18m5.1 0h10.18m5.1 0h10.2m5.08 0h10.2m5.08 0h10.2m5.1 0h10.18m5.1 0H714m5.1 0h10.18m5.1 0h10.2m5.08 0h10.2m5.1 0h10.17m5.1 0h10.2m5.08 0h10.2m5.1 0H821m5.1 0h10.2m5.08 0h10.2m5.1 0h10.18m5.1 0h10.18m5.1 0h5.1M494.96 508.37h-.25M892.32 508.37h.26" stroke="#ccc" stroke-width=".5" fill="none"/><path d="M501.87 108.28c0-3.32 2.7-6 6-6h23.3c3.32 0 6 2.68 6 6v18.4c0 3.33-2.68 6-6 6h-23.3c-3.3 0-6-2.67-6-6z" stroke="#000" stroke-opacity="0" stroke-width="3" fill="#fff" fill-opacity="0"/><use xlink:href="#q" transform="matrix(1,0,0,1,501.86938796114583,102.27790575784627) translate(10.031909722222231 22.677951388888864)"/><path d="M519.25 108.28c0-3.32 2.68-6 6-6h23.3c3.32 0 6 2.68 6 6v18.4c0 3.33-2.68 6-6 6h-23.3c-3.32 0-6-2.67-6-6z" stroke="#000" stroke-opacity="0" stroke-width="3" fill="#fff" fill-opacity="0"/><use xlink:href="#r" transform="matrix(1,0,0,1,519.2480973392801,102.27790575784627) translate(10.395950520833342 22.677951388888864)"/><path d="M501.8 127.4c0-3.32 2.7-6 6-6h23.3c3.32 0 6 2.68 6 6v18.4c0 3.33-2.68 6-6 6h-23.3c-3.3 0-6-2.67-6-6z" stroke="#000" stroke-opacity="0" stroke-width="3" fill="#fff" fill-opacity="0"/><use xlink:href="#s" transform="matrix(1,0,0,1,501.80142384582547,121.39596043498727) translate(10.049813368055565 22.677951388888864)"/><path d="M519.25 127.4c0-3.32 2.68-6 6-6h23.3c3.32 0 6 2.68 6 6v18.4c0 3.33-2.68 6-6 6h-23.3c-3.32 0-6-2.67-6-6z" stroke="#000" stroke-opacity="0" stroke-width="3" fill="#fff" fill-opacity="0"/><use xlink:href="#t" transform="matrix(1,0,0,1,519.2480973392802,121.39596043498727) translate(9.990134548611119 22.677951388888864)"/><path d="M583.93 118.4c0-3.32 2.7-6 6-6h23.3c3.33 0 6 2.68 6 6v18.4c0 3.33-2.67 6-6 6h-23.3c-3.3 0-6-2.67-6-6z" stroke="#000" stroke-opacity="0" stroke-width="3" fill="#fff" fill-opacity="0"/><use xlink:href="#u" transform="matrix(1,0,0,1,583.9340722242324,112.39742575380376) translate(11.058385416666674 22.677951388888864)"/><path d="M752.6 108.83c0-3.32 2.7-6 6-6h23.32c3.32 0 6 2.68 6 6v18.4c0 3.33-2.68 6-6 6h-23.3c-3.32 0-6-2.67-6-6z" stroke="#000" stroke-opacity="0" stroke-width="3" fill="#fff" fill-opacity="0"/><use xlink:href="#v" transform="matrix(1,0,0,1,752.6129265660986,102.82601405559058) translate(9.679804687500008 22.677951388888864)"/><path d="M752.6 130.8c0-3.32 2.7-6 6-6h23.32c3.32 0 6 2.68 6 6v18.4c0 3.32-2.68 6-6 6h-23.3c-3.32 0-6-2.68-6-6z" stroke="#000" stroke-opacity="0" stroke-width="3" fill="#fff" fill-opacity="0"/><use xlink:href="#w" transform="matrix(1,0,0,1,752.6129265660986,124.79485150760752) translate(9.291892361111122 22.677951388888864)"/><path d="M669.3 119.43c0-3.3 2.7-6 6-6h23.32c3.3 0 6 2.7 6 6v18.42c0 3.3-2.7 6-6 6h-23.3c-3.32 0-6-2.7-6-6z" stroke="#000" stroke-opacity="0" stroke-width="3" fill="#fff" fill-opacity="0"/><use xlink:href="#x" transform="matrix(1,0,0,1,669.309247307114,113.42975074909452) translate(11.249357638888897 22.677951388888864)"/><path d="M828.1 122.83c0-3.32 2.68-6 6-6h23.3c3.3 0 6 2.68 6 6v18.4c0 3.33-2.7 6-6 6h-23.3c-3.32 0-6-2.67-6-6z" stroke="#000" stroke-opacity="0" stroke-width="3" fill="#fff" fill-opacity="0"/><use xlink:href="#y" transform="matrix(1,0,0,1,828.0911454059461,116.82864182171477) translate(14.680889756944447 22.677951388888864)"/><path d="M752.6 106c0-3.3 2.7-6 6-6h24.13c3.3 0 6 2.7 6 6v43.2c0 3.32-2.7 6-6 6H758.6c-3.3 0-6-2.68-6-6zM828.1 106c0-3.3 2.68-6 6-6h23.3c3.3 0 6 2.7 6 6v43.2c0 3.32-2.7 6-6 6h-23.3c-3.32 0-6-2.68-6-6z" stroke="#333" fill-opacity="0"/><path d="M556.06 127.6h8.87" stroke="#333" stroke-width="2" fill="none"/><path d="M556.08 128.6h-1.02v-2h1.02z" fill="#333"/><path d="M580.2 127.6l-14.27 4.64v-9.27z" stroke="#333" stroke-width="2" fill="#333"/><path d="M620.74 127.6h30.07" stroke="#333" stroke-width="2" fill="none"/><path d="M620.77 128.6h-1.03v-2h1.03z" fill="#333"/><path d="M666.07 127.6l-14.26 4.64v-9.27z" stroke="#333" stroke-width="2" fill="#333"/><path d="M706.12 127.6h28.97" stroke="#333" stroke-width="2" fill="none"/><path d="M706.14 128.6h-1.02v-2h1.02z" fill="#333"/><path d="M750.36 127.6l-14.27 4.64v-9.27z" stroke="#333" stroke-width="2" fill="#333"/><path d="M790.23 127.6h19.36" stroke="#333" stroke-width="2" fill="none"/><path d="M790.25 128.6h-1.02v-2h1.02z" fill="#333"/><path d="M824.86 127.6l-14.27 4.64v-9.27z" stroke="#333" stroke-width="2" fill="#333"/><path d="M300 288.28c0-3.32 2.7-6 6-6h88.04c3.3 0 6 2.68 6 6v18.4c0 3.33-2.7 6-6 6H306c-3.3 0-6-2.67-6-6z" stroke="#000" stroke-opacity="0" stroke-width="3" fill="#fff" fill-opacity="0"/><use xlink:href="#A" transform="matrix(1,0,0,1,300,282.27790575784627) translate(61.03754340277782 22.677951388888864)"/><path d="M300 347.4c0-3.32 2.7-6 6-6h88.04c3.3 0 6 2.68 6 6v18.4c0 3.33-2.7 6-6 6H306c-3.3 0-6-2.67-6-6z" stroke="#000" stroke-opacity="0" stroke-width="3" fill="#fff" fill-opacity="0"/><use xlink:href="#B" transform="matrix(1,0,0,1,300,341.3959604349873) translate(40.94965277777784 22.677951388888864)"/><path d="M300 408.28c0-3.32 2.7-6 6-6h88.04c3.3 0 6 2.68 6 6v18.4c0 3.33-2.7 6-6 6H306c-3.3 0-6-2.67-6-6z" stroke="#000" stroke-opacity="0" stroke-width="3" fill="#fff" fill-opacity="0"/><g><use xlink:href="#C" transform="matrix(1,0,0,1,300,402.27790575784616) translate(59.96332465277782 22.677951388888864)"/></g><path d="M300 468.28c0-3.32 2.7-6 6-6h88.04c3.3 0 6 2.68 6 6v18.4c0 3.33-2.7 6-6 6H306c-3.3 0-6-2.67-6-6z" stroke="#000" stroke-opacity="0" stroke-width="3" fill="#fff" fill-opacity="0"/><g><use xlink:href="#D" transform="matrix(1,0,0,1,300,462.27790575784616) translate(72.04231770833336 22.677951388888864)"/></g><defs><path fill="#333" d="M521 20C240 20 96-239 96-550c0-303 147-552 427-552 132 0 235 47 309 140l9-120h169V-26c4 277-183 454-459 452-165-1-334-81-400-187l96-111c79 98 176 147 291 147 180 1 288-109 286-290v-93C750-23 649 20 521 20zm48-965c-209 0-287 178-287 416 0 217 86 392 285 392 117 0 202-53 257-159v-494c-57-103-142-155-255-155" id="E"/><path fill="#333" d="M599-131c141 0 220-65 285-146l113 88C906-50 770 20 589 20 281 21 93-214 93-545c0-223 93-397 233-485 74-48 154-72 240-72 300 2 449 218 445 537v77H278c0 197 129 357 321 357zm227-509c-3-180-88-310-260-310-170 0-264 140-282 310h542" id="F"/><path fill="#333" d="M589-945c-131 0-219 81-264 174V0H140v-1082h175l6 136c83-104 191-156 324-156 229 0 346 129 346 387V0H806v-716c-2-153-65-229-217-229" id="G"/><g id="a"><use transform="matrix(0.011935763888888876,0,0,0.011935763888888876,0,0)" xlink:href="#E"/><use transform="matrix(0.011935763888888876,0,0,0.011935763888888876,13.714192708333318,0)" xlink:href="#F"/><use transform="matrix(0.011935763888888876,0,0,0.011935763888888876,26.66449652777775,0)" xlink:href="#G"/></g><path fill="#333" d="M456 20C285 20 205-92 206-268v-671H9v-143h197v-262h185v262h202v143H391v671c-9 125 92 149 207 118V0c-49 13-96 20-142 20" id="H"/><path fill="#333" d="M503-687l240-395h216L605-547 970 0H756L506-405 256 0H41l365-547-354-535h214" id="I"/><g id="b"><use transform="matrix(0.011935763888888876,0,0,0.011935763888888876,0,0)" xlink:href="#H"/><use transform="matrix(0.011935763888888876,0,0,0.011935763888888876,7.985026041666658,0)" xlink:href="#I"/><use transform="matrix(0.011935763888888876,0,0,0.011935763888888876,19.86111111111109,0)" xlink:href="#E"/></g><path fill="#333" d="M538-131c121 0 232-49 232-156 0-50-20-88-56-117-73-60-334-92-420-143-92-55-162-110-162-238 0-190 192-317 400-317 223 0 414 129 413 338H759c0-108-110-186-227-186-119 0-215 53-215 159 0 45 18 78 53 101 76 52 331 90 416 139 98 57 169 115 169 251C955-92 760 20 538 20c-176 0-314-68-386-174-38-55-57-115-57-179h185c6 129 116 202 258 202" id="J"/><path fill="#333" d="M494-271l252-811h198L509 167C425 381 299 474 84 421V271c167 16 242-37 283-173l41-110L22-1082h202" id="K"/><path fill="#333" d="M277-555c0 244 77 420 297 424 127 2 249-93 255-210h175C980-127 805 20 574 20 258 20 81-222 92-562c11-319 164-533 481-540 237-5 426 165 431 392H829c-7-133-115-242-256-240-209 4-296 166-296 395" id="L"/><g id="c"><use transform="matrix(0.011935763888888876,0,0,0.011935763888888876,0,0)" xlink:href="#J"/><use transform="matrix(0.011935763888888876,0,0,0.011935763888888876,12.604166666666654,0)" xlink:href="#K"/><use transform="matrix(0.011935763888888876,0,0,0.011935763888888876,24.169921874999975,0)" xlink:href="#G"/><use transform="matrix(0.011935763888888876,0,0,0.011935763888888876,37.65733506944441,0)" xlink:href="#L"/></g><path fill="#333" d="M572 20C306 25 99-136 101-391c0-70 20-134 59-193s113-127 223-205c-65-79-108-142-130-190s-33-96-33-143c-3-220 144-354 364-354 187 0 349 127 346 308-3 212-172 290-307 398l324 387c45-87 68-183 68-289h167c0 170-41 311-123 423L1267 0h-222l-97-115C862-36 726 17 572 20zM286-391c0 162 118 260 286 260 98 0 188-37 269-112L486-668c-110 72-200 183-200 277zm297-933c-109 0-180 87-178 196 0 64 39 144 118 240 93-79 236-119 236-280 0-91-82-156-176-156" id="M"/><use transform="matrix(0.011935763888888876,0,0,0.011935763888888876,0,0)" xlink:href="#M" id="d"/><g id="e"><use transform="matrix(0.011935763888888876,0,0,0.011935763888888876,0,0)" xlink:href="#E"/><use transform="matrix(0.011935763888888876,0,0,0.011935763888888876,13.714192708333318,0)" xlink:href="#L"/></g><path fill="#333" d="M902-489h202v151H902V0H716v-338H53v-109l652-1009h197v967zm-639 0h453v-714l-22 40" id="N"/><use transform="matrix(0.009765624999999984,0,0,0.009765624999999984,0,0)" xlink:href="#N" id="f"/><path fill="#333" d="M884-462c0-185-111-323-291-323-113 0-183 39-239 93l-148-38 74-726h746v171H437l-44 397c71-42 152-63 243-63 273-2 433 205 433 487 0 293-170 484-461 484-260 0-436-159-454-403h175c20 156 111 252 279 252 182 0 276-140 276-331" id="O"/><use transform="matrix(0.009765624999999984,0,0,0.009765624999999984,0,0)" xlink:href="#O" id="g"/><path fill="#333" d="M132-554c0-555 187-908 715-903v157c-320-8-501 179-526 477 77-88 181-132 314-132 259 0 417 214 417 480 0 286-172 495-451 495-293 0-469-266-469-574zm737 88c0-181-95-335-265-335-133 0-252 96-286 200v68c-6 207 101 397 283 400 175 3 268-150 268-333" id="P"/><use transform="matrix(0.009765624999999984,0,0,0.009765624999999984,0,0)" xlink:href="#P" id="h"/><path fill="#333" d="M1061-1352L458 0H264l601-1304H77v-152h984v104" id="Q"/><use transform="matrix(0.009765624999999984,0,0,0.009765624999999984,0,0)" xlink:href="#Q" id="i"/><path fill="#333" d="M729 0H543v-1233l-373 137v-168l530-199h29V0" id="R"/><path fill="#333" d="M574-1476c351 0 454 237 460 615v240c0 217-37 378-111 483S733 20 576 20c-346 0-454-246-461-616v-247c0-214 37-373 111-477s190-156 348-156zm275 905c0-337 59-752-275-753-95 0-160 38-207 107-80 118-66 409-67 625 0 157 22 273 68 348s115 113 208 113c91 0 160-35 204-106s69-182 69-334" id="S"/><g id="j"><use transform="matrix(0.009765624999999984,0,0,0.009765624999999984,0,0)" xlink:href="#R"/><use transform="matrix(0.009765624999999984,0,0,0.009765624999999984,11.230468749999982,0)" xlink:href="#S"/></g><g id="k"><use transform="matrix(0.009765624999999984,0,0,0.009765624999999984,0,0)" xlink:href="#R"/><use transform="matrix(0.009765624999999984,0,0,0.009765624999999984,11.230468749999982,0)" xlink:href="#R"/></g><path fill="#333" d="M569-1476c255 0 440 146 439 390 0 143-91 314-274 512L344-151h731V0H121v-133l504-560c75-85 125-155 155-207 105-184 6-424-211-424-183 0-293 113-291 297H93c-3-270 199-449 476-449" id="T"/><g id="l"><use transform="matrix(0.009765624999999984,0,0,0.009765624999999984,0,0)" xlink:href="#R"/><use transform="matrix(0.009765624999999984,0,0,0.009765624999999984,11.230468749999982,0)" xlink:href="#T"/></g><path fill="#333" d="M832-402c-1-179-119-264-303-265H390v-151h139c164 0 281-91 281-250 0-171-85-256-255-256-154 0-265 99-263 250H107c-4-235 205-402 448-402 266 0 444 150 440 412-2 148-109 272-229 317 147 45 249 158 251 341 3 262-197 426-461 426C299 20 91-135 94-384h186c-2 156 116 253 276 253 176 0 277-96 276-271" id="U"/><g id="m"><use transform="matrix(0.009765624999999984,0,0,0.009765624999999984,0,0)" xlink:href="#R"/><use transform="matrix(0.009765624999999984,0,0,0.009765624999999984,11.230468749999982,0)" xlink:href="#U"/></g><g id="n"><use transform="matrix(0.009765624999999984,0,0,0.009765624999999984,0,0)" xlink:href="#R"/><use transform="matrix(0.009765624999999984,0,0,0.009765624999999984,11.230468749999982,0)" xlink:href="#N"/></g><path fill="#333" d="M341 0H156v-1536h185V0" id="V"/><path fill="#333" d="M584 20C278 26 81-227 91-551c10-320 175-545 491-551 308-5 503 247 494 573-9 322-175 543-492 549zm-2-970c-208 0-305 185-305 421 0 216 106 398 307 398 211 0 307-186 307-420 0-214-109-399-309-399" id="W"/><path fill="#333" d="M341 0H156v-1082h185V0zm-91-1264c-68 0-108-42-109-105 0-62 41-107 109-107s110 44 110 107-42 105-110 105" id="X"/><path fill="#333" d="M561-1102c238-4 403 126 403 351v498c0 99 13 178 38 237V0H808c-11-21-19-59-26-114C696-25 593 20 474 20c-199 0-368-130-365-320 4-251 214-359 490-356h180v-85c-1-135-86-212-229-212-115 0-232 67-233 171H131c20-205 206-316 430-320zM294-326c0 117 90 185 207 185 122 0 239-75 278-162v-222H634c-227 0-340 66-340 199" id="Y"/><g id="o"><use transform="matrix(0.011935763888888876,0,0,0.011935763888888876,0,0)" xlink:href="#V"/><use transform="matrix(0.011935763888888876,0,0,0.011935763888888876,5.9320746527777715,0)" xlink:href="#W"/><use transform="matrix(0.011935763888888876,0,0,0.011935763888888876,19.87304687499998,0)" xlink:href="#E"/><use transform="matrix(0.011935763888888876,0,0,0.011935763888888876,33.5872395833333,0)" xlink:href="#X"/><use transform="matrix(0.011935763888888876,0,0,0.011935763888888876,39.51931423611107,0)" xlink:href="#L"/><use transform="matrix(0.011935763888888876,0,0,0.011935763888888876,52.31445312499994,0)" xlink:href="#Y"/><use transform="matrix(0.011935763888888876,0,0,0.011935763888888876,65.61089409722214,0)" xlink:href="#V"/></g><path fill="#333" d="M520 20C244 20 95-247 95-550c0-298 151-550 427-552 127 0 227 43 301 130v-564h185V0H838l-9-116C755-25 652 20 520 20zm48-965c-210 0-288 177-288 416 0 218 87 392 286 392 117 0 203-53 257-158v-497c-55-102-140-153-255-153" id="Z"/><path fill="#333" d="M632-1102c291 0 422 251 422 573 0 297-141 548-419 549-131 0-235-42-310-125v521H140v-1498h169l9 120c75-93 180-140 314-140zm-53 971c207 0 290-180 290-419 0-218-92-395-292-395-112 0-196 50-252 149v517c55 99 140 148 254 148" id="aa"/><g id="p"><use transform="matrix(0.011935763888888876,0,0,0.011935763888888876,0,0)" xlink:href="#Z"/><use transform="matrix(0.011935763888888876,0,0,0.011935763888888876,13.785807291666652,0)" xlink:href="#F"/><use transform="matrix(0.011935763888888876,0,0,0.011935763888888876,26.736111111111082,0)" xlink:href="#aa"/><use transform="matrix(0.011935763888888876,0,0,0.011935763888888876,40.4503038194444,0)" xlink:href="#F"/><use transform="matrix(0.011935763888888876,0,0,0.011935763888888876,53.40060763888883,0)" xlink:href="#G"/><use transform="matrix(0.011935763888888876,0,0,0.011935763888888876,66.88802083333326,0)" xlink:href="#Z"/><use transform="matrix(0.011935763888888876,0,0,0.011935763888888876,80.67382812499991,0)" xlink:href="#F"/><use transform="matrix(0.011935763888888876,0,0,0.011935763888888876,93.62413194444434,0)" xlink:href="#G"/><use transform="matrix(0.011935763888888876,0,0,0.011935763888888876,107.11154513888877,0)" xlink:href="#L"/><use transform="matrix(0.011935763888888876,0,0,0.011935763888888876,119.90668402777764,0)" xlink:href="#X"/><use transform="matrix(0.011935763888888876,0,0,0.011935763888888876,125.83875868055542,0)" xlink:href="#F"/><use transform="matrix(0.011935763888888876,0,0,0.011935763888888876,138.78906249999986,0)" xlink:href="#J"/></g><path fill="#333" d="M973-380H363L226 0H28l556-1456h168L1309 0h-197zM421-538h495l-248-681" id="ab"/><use transform="matrix(0.011935763888888876,0,0,0.011935763888888876,0,0)" xlink:href="#ab" id="q"/><path fill="#333" d="M1160-420C1159-145 963 0 674 0H169v-1456h476c294-1 476 112 476 388 0 153-99 253-216 302 146 38 255 167 255 346zM678-157c171 2 289-95 289-261 0-175-95-263-286-263H361v524h317zm250-912c-2-172-104-229-283-229H361v463h290c157 3 278-84 277-234" id="ac"/><use transform="matrix(0.011935763888888876,0,0,0.011935763888888876,0,0)" xlink:href="#ac" id="r"/><path fill="#333" d="M688-137c238 0 323-102 359-325h193c-32 297-228 482-552 482-361 0-569-299-569-680 0-197 8-360 73-497 88-186 257-317 513-319 316-2 509 195 535 488h-193c-31-212-118-330-342-330-272 0-397 224-393 523v141c-3 282 115 517 376 517" id="ad"/><use transform="matrix(0.011935763888888876,0,0,0.011935763888888876,0,0)" xlink:href="#ad" id="s"/><path fill="#333" d="M1222-777c17 480-206 763-650 777H169v-1456h411c408 9 627 269 642 679zm-190 4c3-312-149-522-447-525H361v1141h202c308 0 473-209 469-531v-85" id="ae"/><use transform="matrix(0.011935763888888876,0,0,0.011935763888888876,0,0)" xlink:href="#ae" id="t"/><path fill="#333" d="M992-673H361v516h733V0H169v-1456h915v158H361v468h631v157" id="af"/><use transform="matrix(0.011935763888888876,0,0,0.011935763888888876,0,0)" xlink:href="#af" id="u"/><path fill="#333" d="M730-137c145 0 253-29 323-105v-327H716v-156h528v534C1148-51 964 20 729 20c-394 0-598-279-607-678v-127c-5-410 194-690 585-691 310-1 499 171 537 447h-192c-36-193-151-289-344-289-285 0-393 220-393 528v119c-5 296 140 534 415 534" id="ag"/><use transform="matrix(0.011935763888888876,0,0,0.011935763888888876,0,0)" xlink:href="#ag" id="v"/><path fill="#333" d="M1288 0h-193v-673H361V0H169v-1456h192v626h734v-626h193V0" id="ah"/><use transform="matrix(0.011935763888888876,0,0,0.011935763888888876,0,0)" xlink:href="#ah" id="w"/><path fill="#333" d="M972-643H361V0H169v-1456h902v158H361v498h611v157" id="ai"/><use transform="matrix(0.011935763888888876,0,0,0.011935763888888876,0,0)" xlink:href="#ai" id="x"/><path fill="#333" d="M375 0H183v-1456h192V0" id="aj"/><use transform="matrix(0.011935763888888876,0,0,0.011935763888888876,0,0)" xlink:href="#aj" id="y"/><g id="z"><use transform="matrix(0.011935763888888876,0,0,0.011935763888888876,0,0)" xlink:href="#H"/><use transform="matrix(0.011935763888888876,0,0,0.011935763888888876,7.985026041666658,0)" xlink:href="#I"/><use transform="matrix(0.011935763888888876,0,0,0.011935763888888876,19.86111111111109,0)" xlink:href="#E"/></g><path fill="#333" d="M134 290L29 218c97-132 105-239 98-437h181c1 144 5 239-50 347-34 67-74 121-124 162" id="ak"/><g id="A"><use transform="matrix(0.011935763888888876,0,0,0.011935763888888876,0,0)" xlink:href="#ab"/><use transform="matrix(0.011935763888888876,0,0,0.011935763888888876,15.946180555555538,0)" xlink:href="#ak"/><use transform="matrix(0.011935763888888876,0,0,0.011935763888888876,20.744357638888864,0)" xlink:href="#ac"/></g><g id="B"><use transform="matrix(0.011935763888888876,0,0,0.011935763888888876,0,0)" xlink:href="#ad"/><use transform="matrix(0.011935763888888876,0,0,0.011935763888888876,15.910373263888872,0)" xlink:href="#ak"/><use transform="matrix(0.011935763888888876,0,0,0.011935763888888876,20.7085503472222,0)" xlink:href="#af"/><use transform="matrix(0.011935763888888876,0,0,0.011935763888888876,34.60177951388885,0)" xlink:href="#ak"/><use transform="matrix(0.011935763888888876,0,0,0.011935763888888876,39.39995659722218,0)" xlink:href="#ag"/></g><g id="C"><use transform="matrix(0.011935763888888876,0,0,0.011935763888888876,0,0)" xlink:href="#ae"/><use transform="matrix(0.011935763888888876,0,0,0.011935763888888876,14.812282986111095,0)" xlink:href="#ak"/><use transform="matrix(0.011935763888888876,0,0,0.011935763888888876,19.61046006944442,0)" xlink:href="#ah"/></g><g id="D"><use transform="matrix(0.011935763888888876,0,0,0.011935763888888876,0,0)" xlink:href="#ai"/><use transform="matrix(0.011935763888888876,0,0,0.011935763888888876,13.511284722222207,0)" xlink:href="#ak"/><use transform="matrix(0.011935763888888876,0,0,0.011935763888888876,18.309461805555536,0)" xlink:href="#aj"/></g></defs></g></svg>