<svg xmlns="http://www.w3.org/2000/svg" xmlns:xlink="http://www.w3.org/1999/xlink" xmlns:lucid="lucid" width="881.92" height="313.68"><g transform="translate(-180 -39.99999999999996)" lucid:page-tab-id="BTeFElFehcEP"><path d="M454.7 180.06c-7 0-12.66 5.67-12.66 12.67v43.76c0 7 5.67 12.66 12.66 12.66h38c7 0 12.68-5.67 12.68-12.67v-43.77c0-7-5.68-12.67-12.67-12.67z" stroke="#333" stroke-width="3" fill="#fff"/><use xlink:href="#a" transform="matrix(1,0,0,1,450.0363549842967,188.062638361511) translate(3.280598958333357 21.574652777777786)"/><use xlink:href="#b" transform="matrix(1,0,0,1,450.0363549842967,188.062638361511) translate(-2.9911024305555216 47.61631944444442)"/><path d="M607.18 180.06c-7.63 0-13.82 6.2-13.82 13.82v41.46c0 7.63 6.2 13.82 13.82 13.82h75.32c7.63 0 13.82-6.2 13.82-13.82v-41.46c0-7.63-6.2-13.82-13.82-13.82z" stroke="#333" stroke-width="3" fill="#fff"/><use xlink:href="#c" transform="matrix(1,0,0,1,601.3586917314597,188.06263836151078) translate(-1.2536892361110716 34.5954861111111)"/><path d="M803.62 180.06c-7.63 0-13.82 6.2-13.82 13.82v41.46c0 7.63 6.2 13.82 13.82 13.82h52.6c7.62 0 13.8-6.2 13.8-13.82v-41.46c0-7.63-6.18-13.82-13.8-13.82z" stroke="#333" stroke-width="3" fill="#fff"/><use xlink:href="#d" transform="matrix(1,0,0,1,797.8030017217349,188.062638361511) translate(9.219835069444468 34.5954861111111)"/><path d="M970.1 180.06c-7.64 0-13.83 6.2-13.83 13.82v41.46c0 7.63 6.2 13.82 13.82 13.82h58c7.63 0 13.82-6.2 13.82-13.82v-41.46c0-7.63-6.2-13.82-13.82-13.82z" stroke="#333" stroke-width="3" fill="#fff"/><use xlink:href="#e" transform="matrix(1,0,0,1,964.2744346043607,188.062638361511) translate(-1.5614149305555145 34.5954861111111)"/><path d="M507.88 214.6h65.48" stroke="#999" stroke-width="2" fill="none"/><path d="M507.9 215.6h-1.02v-2h1.02z" fill="#999"/><path d="M588.62 214.6l-14.26 4.65v-9.27z" stroke="#999" stroke-width="2" fill="#999"/><use xlink:href="#f" transform="matrix(1,0,0,1,518.0519926922389,189.7781025609199) translate(0.004999999999999005 16.493055555555557)"/><path d="M698.82 214.6h70.98" stroke="#999" stroke-width="2" fill="none"/><path d="M698.85 215.6h-1.03v-2h1.03z" fill="#999"/><path d="M785.07 214.6l-14.27 4.65v-9.27z" stroke="#999" stroke-width="2" fill="#999"/><use xlink:href="#g" transform="matrix(1,0,0,1,697.4109645594583,168.94476922780933) translate(0.005000000000002558 16.493055555555557)"/><use xlink:href="#h" transform="matrix(1,0,0,1,697.4109645594583,168.94476922780933) translate(51.91472222222223 16.493055555555557)"/><use xlink:href="#i" transform="matrix(1,0,0,1,697.4109645594583,168.94476922780933) translate(4.636076388888895 37.32638888888889)"/><use xlink:href="#j" transform="matrix(1,0,0,1,697.4109645594583,168.94476922780933) translate(25.191631944444453 37.32638888888889)"/><path d="M872.53 214.63l63.74 1.03" stroke="#333" stroke-width="2" fill="none"/><path d="M872.57 213.63l-.03 2-1-.02v-2z" fill="#333"/><path d="M951.54 215.9l-14.34 4.4.15-9.26z" stroke="#333" stroke-width="2" fill="#333"/><use xlink:href="#k" transform="matrix(1,0,0,1,881.2706578407546,190.34141333738094) translate(0.004999999999999005 16.493055555555557)"/><path d="M1000.07 251.68v.7l-.12 1.66-.17 1.62-.23 1.6-.3 1.54-.35 1.52-.42 1.5-.48 1.48-.55 1.46-.6 1.45-.68 1.45-.76 1.44-.8 1.42-.92 1.44-1 1.44-1.1 1.44-1.2 1.45-1.32 1.45-1.44 1.48-1.6 1.5-1.73 1.5-1.92 1.5-2.1 1.54-2.34 1.54-2.56 1.56-2.83 1.56-3.13 1.55-3.46 1.53-3.8 1.5-4.2 1.47-4.6 1.4-5.02 1.28-5.44 1.15-5.82.98-6.18.78-6.44.54-6.62.28h-6.68l-6.62-.28-6.45-.54-6.18-.78-5.82-.98-5.44-1.16-5.02-1.28-4.6-1.4-4.2-1.45-3.8-1.5-3.46-1.54-3.12-1.55-2.83-1.54-2.57-1.56-2.32-1.54-2.1-1.53-1.92-1.52-1.74-1.5-1.6-1.48-1.43-1.47-1.32-1.46-1.2-1.46-1.1-1.45-1-1.44-.9-1.44-.83-1.43-.1-.22 1.76-.93.1.17.78 1.36.86 1.37.95 1.37 1.05 1.37 1.15 1.38 1.26 1.4 1.4 1.42 1.5 1.43 1.7 1.44 1.84 1.47 2.04 1.48 2.25 1.5 2.5 1.5 2.75 1.52 3.06 1.5 3.37 1.52 3.75 1.47 4.1 1.44 4.53 1.36 4.94 1.27 5.35 1.13 5.74.97 6.1.77 6.36.53 6.54.28h6.6l6.53-.27 6.36-.53 6.08-.77 5.75-.97 5.35-1.13 4.94-1.27 4.52-1.36 4.12-1.43 3.73-1.48 3.37-1.5 3.05-1.52 2.76-1.5 2.5-1.52 2.25-1.5 2.04-1.48 1.85-1.46 1.67-1.45 1.52-1.43 1.38-1.42 1.26-1.4 1.15-1.38 1.06-1.38.95-1.37.87-1.36.8-1.37.7-1.37.65-1.36.57-1.38.5-1.38.46-1.4.4-1.42.34-1.44.28-1.47.22-1.5.16-1.52.1-1.6v-.64z" fill="#333"/><path d="M1000.07 251.7l-2-.03.02-1h2zM838.67 266.5l-9 2.26 1.03-14.96z" fill="#333"/><path d="M840.25 267.14l-11.66 2.93 1.32-19.4zm-9.48.32l6.33-1.6-5.6-8.92z" fill="#333"/><use xlink:href="#l" transform="matrix(1,0,0,1,879.1318413419914,276.54552233742714) translate(0.005000000000002558 16.493055555555557)"/><path d="M825.33 268.6l-1.24 2.4-5 7.88-8.02 10.6-10.4 11.53h-2.77l.52-.47 11.12-12.34 7.92-10.46 4.9-7.73 1.2-2.3z" fill="#333"/><path fill="#333"/><path d="M829.1 268.75l-8.84-2.77 8.7-12.23z" fill="#333"/><path d="M830.12 270.1l-11.47-3.58 11.27-15.86zm-8.25-4.67l6.22 1.95-.12-10.54z" fill="#333"/><use xlink:href="#m" transform="matrix(1,0,0,1,739.041636773004,301.0101912246474) translate(14.879131944444449 16.493055555555557)"/><use xlink:href="#n" transform="matrix(1,0,0,1,739.041636773004,301.0101912246474) translate(0.005000000000002558 37.32638888888889)"/><path d="M788.5 260.24l-21.08 11-28.9 13.56-26.7 11.18-24.92 9.24-23.5 7.6-22.43 6.23-21.63 5.05-21.13 4-20.97 3.07-21.22 2.2-22.05 1.35-24 .45-28.86-.67-8.2-.4-24.85-1.84L428.7 330l-16.6-2.66-15.16-3.08-4.47-1.1v-2.06l4.9 1.2 15.07 3.08 16.55 2.64 19.24 2.25 24.8 1.84 8.12.4 28.78.67 23.93-.45 21.98-1.35 21.13-2.2 20.9-3.04 21.05-4 21.55-5 22.34-6.22 23.42-7.57 24.85-9.2 26.6-11.16 28.83-13.53 21.04-10.97zm-519.86 6.58l21.5 12.78 5.47 2.96h-4.2l-2.26-1.22-21.56-12.82-25.22-16.47 1.1-1.68z" fill="#999"/><path d="M242.38 252.06l-2.14-1.4h3.06zM791.1 262.98l-4.36-8.18 14.77-2.62z" fill="#999"/><path d="M790.86 264.66l-5.65-10.6 19.16-3.4zm-2.6-9.12l3.07 5.75 7.32-7.6z" fill="#999"/><use xlink:href="#o" transform="matrix(1,0,0,1,279.349904710743,282.5591395250266) translate(0.005000000000002558 16.493055555555557)"/><use xlink:href="#p" transform="matrix(1,0,0,1,279.349904710743,282.5591395250266) translate(73.2515277777778 16.493055555555557)"/><use xlink:href="#q" transform="matrix(1,0,0,1,279.349904710743,282.5591395250266) translate(30.313159722222238 37.32638888888889)"/><use xlink:href="#r" transform="matrix(1,0,0,1,279.349904710743,282.5591395250266) translate(44.47114583333335 37.32638888888889)"/><path d="M773.55 246.54l-2.17 1.47-17.16 10.65-16.28 9.17-15.44 7.85-14.62 6.7-13.83 5.63-13.1 4.7-12.4 3.9-11.75 3.13-11.14 2.5-10.57 1.9-10.06 1.36-9.58.9-9.12.46-8.72.1-8.33-.27-8-.6-7.68-.9-7.38-1.17-7.1-1.44-6.88-1.7-6.65-1.93-6.42-2.17-6.25-2.4-6.08-2.64-5.92-2.86-5.77-3.1-5.64-3.35-5.52-3.58-5.4-3.85-5.3-4.12-5.22-4.4-5.12-4.73-5.04-5.04-4.27-4.65 1.47-1.36 4.24 4.62 4.98 5 5.06 4.65 5.15 4.34 5.24 4.07 5.33 3.8 5.45 3.56 5.56 3.3 5.7 3.05 5.85 2.84 6 2.6 6.16 2.38 6.35 2.14 6.58 1.9 6.78 1.68 7.03 1.42 7.3 1.16 7.58.88 7.9.6 8.27.25 8.63-.1 9.04-.46 9.5-.9 9.96-1.36 10.5-1.88 11.05-2.47 11.66-3.13 12.3-3.86 13.03-4.67 13.76-5.6 14.53-6.66 15.36-7.82 16.2-9.13 17.1-10.58 2.13-1.45z" fill="#999"/><path d="M475.14 250.74l-1.47 1.35-1.32-1.44h2.7zM776.42 249l-5.2-7.68 14.4-4.17z" fill="#999"/><path d="M776.36 250.7l-6.74-9.96 18.68-5.4zm-3.54-8.8l3.65 5.4 6.48-8.34z" fill="#999"/><use xlink:href="#s" transform="matrix(1,0,0,1,553.1758919059572,277.3676492262264) translate(0.005000000000002558 16.493055555555557)"/><use xlink:href="#t" transform="matrix(1,0,0,1,553.1758919059572,277.3676492262264) translate(28.833125000000006 16.493055555555557)"/><path d="M200.67 66c0-3.3 2.7-6 6-6h71.47c3.3 0 6 2.7 6 6v57.1c0 3.3-2.7 6-6 6h-71.47c-3.3 0-6-2.7-6-6z" stroke="#333" stroke-width="3" fill="#fff"/><use xlink:href="#u" transform="matrix(1,0,0,1,214.6723560953297,73.99999999999996) translate(-11.40429687499995 28.595486111111104)"/><path d="M996.64 94.47l2.53 2.53.92 3.42v77.14h-2v-76.88l-.72-2.64-1.78-1.78-2.64-.7H410.82v-2h582.4zm-692.5 1.08v-2h49.13v2z" fill="#999"/><path d="M1000.1 178.56h-2v-1.02h2zM303.14 99.18l-14.27-4.63 14.27-4.64z" fill="#999"/><path d="M304.14 100.56l-18.5-6 18.5-6.02zm-12.03-6l10.04 3.25v-6.5zM827.46 94.47L830 97l.92 3.42v77.14h-2v-76.88l-.72-2.64-1.77-1.78-2.65-.7H410.82v-2h413.23zm-523.32 1.08v-2h49.13v2z" fill="#999"/><path d="M830.92 178.56h-2v-1.02h2zM303.14 99.18l-14.27-4.63 14.27-4.64z" fill="#999"/><path d="M304.14 100.56l-18.5-6 18.5-6.02zm-12.03-6l10.04 3.25v-6.5zM642.4 94.47L644.9 97l.92 3.42v77.14h-2v-76.88l-.7-2.64-1.8-1.78-2.63-.7H410.83v-2h228.15zm-338.26 1.08v-2h49.13v2z" fill="#999"/><path d="M645.84 178.56h-2v-1.02h2zM303.14 99.18l-14.27-4.63 14.27-4.64z" fill="#999"/><path d="M304.14 100.56l-18.5-6 18.5-6.02zm-12.03-6l10.04 3.25v-6.5zM471.25 94.47l2.53 2.53.93 3.42v77.14h-2v-76.88l-.7-2.64-1.78-1.78-2.65-.7h-56.75v-2h57.02zm-167.1 1.08v-2h49.12v2z" fill="#999"/><path d="M474.7 178.56h-2v-1.02h2zM303.14 99.18l-14.27-4.63 14.27-4.64z" fill="#999"/><path d="M304.14 100.56l-18.5-6 18.5-6.02zm-12.03-6l10.04 3.25v-6.5z" fill="#999"/><use xlink:href="#v" transform="matrix(1,0,0,1,353.27216730235574,73.71546424580487) translate(0.004999999999999005 16.493055555555557)"/><use xlink:href="#w" transform="matrix(1,0,0,1,353.27216730235574,73.71546424580487) translate(6.979826388888888 37.32638888888889)"/><path d="M200 186.06c0-3.3 2.7-6 6-6h72.14c3.3 0 6 2.7 6 6v57.1c0 3.3-2.7 6-6 6H206c-3.3 0-6-2.7-6-6z" stroke="#333" stroke-width="3" fill="#fff"/><g><use xlink:href="#x" transform="matrix(1,0,0,1,214,194.062638361511) translate(-4.1660156249999645 28.595486111111104)"/></g><path d="M242.4 131.6l-.2 28.46" stroke="#999" stroke-width="2" fill="none"/><path d="M243.4 131.63h-2v-1.03h2z" fill="#999"/><path d="M242.1 175.33l-4.54-14.3 9.27.06z" stroke="#999" stroke-width="2" fill="#999"/><path d="M305.2 215.6h-18.56v-2h18.57zm116.83 0H401.5v-2h20.53z" fill="#999"/><path d="M286.66 215.6h-1.02v-2h1.02zM437.3 214.6l-14.27 4.65v-9.27z" fill="#999"/><path d="M440.54 214.6l-18.5 6.02V208.6zm-16.5 3.27l10.02-3.26-10.03-3.25z" fill="#999"/><g><use xlink:href="#y" transform="matrix(1,0,0,1,305.2134661446258,193.77810258126794) translate(13.723749999999995 16.493055555555557)"/><use xlink:href="#z" transform="matrix(1,0,0,1,305.2134661446258,193.77810258126794) translate(0.005000000000002558 37.32638888888889)"/><use xlink:href="#A" transform="matrix(1,0,0,1,305.2134661446258,193.77810258126794) translate(44.27583333333334 37.32638888888889)"/><use xlink:href="#r" transform="matrix(1,0,0,1,305.2134661446258,193.77810258126794) translate(57.945972222222224 37.32638888888889)"/></g><defs><path fill="#333" d="M1098-255l208-827h185L1176 0h-150L763-820 507 0H357L43-1082h184l213 810 252-810h149" id="B"/><path fill="#333" d="M561-1102c238-4 403 126 403 351v498c0 99 13 178 38 237V0H808c-11-21-19-59-26-114C696-25 593 20 474 20c-199 0-368-130-365-320 4-251 214-359 490-356h180v-85c-1-135-86-212-229-212-115 0-232 67-233 171H131c20-205 206-316 430-320zM294-326c0 117 90 185 207 185 122 0 239-75 278-162v-222H634c-227 0-340 66-340 199" id="C"/><path fill="#333" d="M341 0H156v-1082h185V0zm-91-1264c-68 0-108-42-109-105 0-62 41-107 109-107s110 44 110 107-42 105-110 105" id="D"/><path fill="#333" d="M456 20C285 20 205-92 206-268v-671H9v-143h197v-262h185v262h202v143H391v671c-9 125 92 149 207 118V0c-49 13-96 20-142 20" id="E"/><g id="a"><use transform="matrix(0.010850694444444432,0,0,0.010850694444444432,0,0)" xlink:href="#B"/><use transform="matrix(0.010850694444444432,0,0,0.010850694444444432,16.699218749999982,0)" xlink:href="#C"/><use transform="matrix(0.010850694444444432,0,0,0.010850694444444432,28.78689236111108,0)" xlink:href="#D"/><use transform="matrix(0.010850694444444432,0,0,0.010850694444444432,34.179687499999964,0)" xlink:href="#E"/></g><path fill="#333" d="M277-555c0 244 77 420 297 424 127 2 249-93 255-210h175C980-127 805 20 574 20 258 20 81-222 92-562c11-319 164-533 481-540 237-5 426 165 431 392H829c-7-133-115-242-256-240-209 4-296 166-296 395" id="F"/><path fill="#333" d="M341 0H156v-1536h185V0" id="G"/><path fill="#333" d="M1240-945c-141 0-250 95-250 227V0H804v-709c0-157-77-236-231-236-121 0-204 52-249 155V0H139v-1082h175l5 120c79-93 186-140 321-140 151 0 254 58 309 174 69-98 181-174 345-174 237 0 362 126 362 377V0h-185v-714c-2-159-67-231-231-231" id="H"/><g id="b"><use transform="matrix(0.010850694444444432,0,0,0.010850694444444432,0,0)" xlink:href="#F"/><use transform="matrix(0.010850694444444432,0,0,0.010850694444444432,11.63194444444443,0)" xlink:href="#G"/><use transform="matrix(0.010850694444444432,0,0,0.010850694444444432,17.024739583333314,0)" xlink:href="#C"/><use transform="matrix(0.010850694444444432,0,0,0.010850694444444432,29.11241319444441,0)" xlink:href="#D"/><use transform="matrix(0.010850694444444432,0,0,0.010850694444444432,34.50520833333329,0)" xlink:href="#H"/></g><path fill="#333" d="M663-916c-163-27-288 18-338 148V0H140v-1082h180l3 125c61-97 147-145 258-145 36 0 63 5 82 14v172" id="I"/><path fill="#333" d="M599-131c141 0 220-65 285-146l113 88C906-50 770 20 589 20 281 21 93-214 93-545c0-223 93-397 233-485 74-48 154-72 240-72 300 2 449 218 445 537v77H278c0 197 129 357 321 357zm227-509c-3-180-88-310-260-310-170 0-264 140-282 310h542" id="J"/><path fill="#333" d="M632-1102c291 0 422 251 422 573 0 297-141 548-419 549-131 0-235-42-310-125v521H140v-1498h169l9 120c75-93 180-140 314-140zm-53 971c207 0 290-180 290-419 0-218-92-395-292-395-112 0-196 50-252 149v517c55 99 140 148 254 148" id="K"/><path fill="#333" d="M494-271l252-811h198L509 167C425 381 299 474 84 421V271c167 16 242-37 283-173l41-110L22-1082h202" id="L"/><path fill="#333" d="M589-945c-131 0-219 81-264 174V0H140v-1082h175l6 136c83-104 191-156 324-156 229 0 346 129 346 387V0H806v-716c-2-153-65-229-217-229" id="M"/><path fill="#333" d="M521 20C240 20 96-239 96-550c0-303 147-552 427-552 132 0 235 47 309 140l9-120h169V-26c4 277-183 454-459 452-165-1-334-81-400-187l96-111c79 98 176 147 291 147 180 1 288-109 286-290v-93C750-23 649 20 521 20zm48-965c-209 0-287 178-287 416 0 217 86 392 285 392 117 0 202-53 257-159v-494c-57-103-142-155-255-155" id="N"/><g id="c"><use transform="matrix(0.010850694444444432,0,0,0.010850694444444432,0,0)" xlink:href="#I"/><use transform="matrix(0.010850694444444432,0,0,0.010850694444444432,7.313368055555546,0)" xlink:href="#J"/><use transform="matrix(0.010850694444444432,0,0,0.010850694444444432,19.086371527777757,0)" xlink:href="#K"/><use transform="matrix(0.010850694444444432,0,0,0.010850694444444432,31.553819444444407,0)" xlink:href="#G"/><use transform="matrix(0.010850694444444432,0,0,0.010850694444444432,36.94661458333329,0)" xlink:href="#C"/><use transform="matrix(0.010850694444444432,0,0,0.010850694444444432,48.87152777777773,0)" xlink:href="#L"/><use transform="matrix(0.010850694444444432,0,0,0.010850694444444432,59.385850694444386,0)" xlink:href="#D"/><use transform="matrix(0.010850694444444432,0,0,0.010850694444444432,64.77864583333327,0)" xlink:href="#M"/><use transform="matrix(0.010850694444444432,0,0,0.010850694444444432,77.03993055555549,0)" xlink:href="#N"/></g><path fill="#333" d="M584 20C278 26 81-227 91-551c10-320 175-545 491-551 308-5 503 247 494 573-9 322-175 543-492 549zm-2-970c-208 0-305 185-305 421 0 216 106 398 307 398 211 0 307-186 307-420 0-214-109-399-309-399" id="O"/><path fill="#333" d="M314-151h633V0H88v-136l597-793H97v-153h820v131" id="P"/><g id="d"><use transform="matrix(0.010850694444444432,0,0,0.010850694444444432,0,0)" xlink:href="#M"/><use transform="matrix(0.010850694444444432,0,0,0.010850694444444432,12.261284722222207,0)" xlink:href="#O"/><use transform="matrix(0.010850694444444432,0,0,0.010850694444444432,24.761284722222193,0)" xlink:href="#P"/><use transform="matrix(0.010850694444444432,0,0,0.010850694444444432,35.77473958333329,0)" xlink:href="#D"/><use transform="matrix(0.010850694444444432,0,0,0.010850694444444432,41.16753472222218,0)" xlink:href="#G"/></g><g id="e"><use transform="matrix(0.010850694444444432,0,0,0.010850694444444432,0,0)" xlink:href="#G"/><use transform="matrix(0.010850694444444432,0,0,0.010850694444444432,5.392795138888883,0)" xlink:href="#O"/><use transform="matrix(0.010850694444444432,0,0,0.010850694444444432,18.06640624999998,0)" xlink:href="#N"/><use transform="matrix(0.010850694444444432,0,0,0.010850694444444432,30.533854166666625,0)" xlink:href="#N"/><use transform="matrix(0.010850694444444432,0,0,0.010850694444444432,43.00130208333328,0)" xlink:href="#D"/><use transform="matrix(0.010850694444444432,0,0,0.010850694444444432,48.394097222222165,0)" xlink:href="#M"/><use transform="matrix(0.010850694444444432,0,0,0.010850694444444432,60.65538194444437,0)" xlink:href="#N"/></g><path fill="#333" d="M520 20C244 20 95-247 95-550c0-298 151-550 427-552 127 0 227 43 301 130v-564h185V0H838l-9-116C755-25 652 20 520 20zm48-965c-210 0-288 177-288 416 0 218 87 392 286 392 117 0 203-53 257-158v-497c-55-102-140-153-255-153" id="Q"/><g id="f"><use transform="matrix(0.008680555555555556,0,0,0.008680555555555556,0,0)" xlink:href="#F"/><use transform="matrix(0.008680555555555556,0,0,0.008680555555555556,9.305555555555555,0)" xlink:href="#G"/><use transform="matrix(0.008680555555555556,0,0,0.008680555555555556,13.619791666666668,0)" xlink:href="#C"/><use transform="matrix(0.008680555555555556,0,0,0.008680555555555556,23.289930555555557,0)" xlink:href="#D"/><use transform="matrix(0.008680555555555556,0,0,0.008680555555555556,27.604166666666668,0)" xlink:href="#H"/><use transform="matrix(0.008680555555555556,0,0,0.008680555555555556,43.18576388888889,0)" xlink:href="#J"/><use transform="matrix(0.008680555555555556,0,0,0.008680555555555556,52.60416666666667,0)" xlink:href="#Q"/></g><g id="g"><use transform="matrix(0.008680555555555556,0,0,0.008680555555555556,0,0)" xlink:href="#I"/><use transform="matrix(0.008680555555555556,0,0,0.008680555555555556,5.850694444444445,0)" xlink:href="#J"/><use transform="matrix(0.008680555555555556,0,0,0.008680555555555556,15.269097222222223,0)" xlink:href="#K"/><use transform="matrix(0.008680555555555556,0,0,0.008680555555555556,25.243055555555557,0)" xlink:href="#G"/><use transform="matrix(0.008680555555555556,0,0,0.008680555555555556,29.557291666666668,0)" xlink:href="#C"/><use transform="matrix(0.008680555555555556,0,0,0.008680555555555556,39.09722222222223,0)" xlink:href="#L"/></g><g id="h"><use transform="matrix(0.008680555555555556,0,0,0.008680555555555556,0,0)" xlink:href="#Q"/><use transform="matrix(0.008680555555555556,0,0,0.008680555555555556,10.026041666666668,0)" xlink:href="#O"/><use transform="matrix(0.008680555555555556,0,0,0.008680555555555556,20.164930555555557,0)" xlink:href="#M"/><use transform="matrix(0.008680555555555556,0,0,0.008680555555555556,29.973958333333336,0)" xlink:href="#J"/></g><g id="i"><use transform="matrix(0.008680555555555556,0,0,0.008680555555555556,0,0)" xlink:href="#O"/><use transform="matrix(0.008680555555555556,0,0,0.008680555555555556,10.13888888888889,0)" xlink:href="#I"/></g><path fill="#333" d="M634-1102c292 0 422 254 422 573 0 298-143 547-420 549-137 0-242-48-317-145L310 0H140v-1536h185v573c75-93 178-139 309-139zm-44 965c207 0 281-175 281-413 0-224-79-395-283-395-122 0-210 57-263 170v468c57 113 145 170 265 170" id="R"/><g id="j"><use transform="matrix(0.008680555555555556,0,0,0.008680555555555556,0,0)" xlink:href="#C"/><use transform="matrix(0.008680555555555556,0,0,0.008680555555555556,9.67013888888889,0)" xlink:href="#R"/><use transform="matrix(0.008680555555555556,0,0,0.008680555555555556,19.64409722222222,0)" xlink:href="#O"/><use transform="matrix(0.008680555555555556,0,0,0.008680555555555556,29.78298611111111,0)" xlink:href="#I"/><use transform="matrix(0.008680555555555556,0,0,0.008680555555555556,36.232638888888886,0)" xlink:href="#E"/><use transform="matrix(0.008680555555555556,0,0,0.008680555555555556,42.03993055555555,0)" xlink:href="#J"/><use transform="matrix(0.008680555555555556,0,0,0.008680555555555556,51.45833333333333,0)" xlink:href="#Q"/></g><path fill="#333" d="M491 20c-241-1-355-148-355-398v-704h185v699c0 164 67 246 200 246 141 0 235-53 282-158v-787h185V0H812l-4-107C736-22 630 20 491 20" id="S"/><g id="k"><use transform="matrix(0.008680555555555556,0,0,0.008680555555555556,0,0)" xlink:href="#H"/><use transform="matrix(0.008680555555555556,0,0,0.008680555555555556,15.581597222222223,0)" xlink:href="#O"/><use transform="matrix(0.008680555555555556,0,0,0.008680555555555556,25.720486111111118,0)" xlink:href="#S"/><use transform="matrix(0.008680555555555556,0,0,0.008680555555555556,35.520833333333336,0)" xlink:href="#M"/><use transform="matrix(0.008680555555555556,0,0,0.008680555555555556,45.329861111111114,0)" xlink:href="#E"/></g><g id="l"><use transform="matrix(0.008680555555555556,0,0,0.008680555555555556,0,0)" xlink:href="#S"/><use transform="matrix(0.008680555555555556,0,0,0.008680555555555556,9.800347222222223,0)" xlink:href="#M"/><use transform="matrix(0.008680555555555556,0,0,0.008680555555555556,19.609375,0)" xlink:href="#H"/><use transform="matrix(0.008680555555555556,0,0,0.008680555555555556,35.19097222222222,0)" xlink:href="#O"/><use transform="matrix(0.008680555555555556,0,0,0.008680555555555556,45.329861111111114,0)" xlink:href="#S"/><use transform="matrix(0.008680555555555556,0,0,0.008680555555555556,55.130208333333336,0)" xlink:href="#M"/><use transform="matrix(0.008680555555555556,0,0,0.008680555555555556,64.93923611111111,0)" xlink:href="#E"/></g><g id="m"><use transform="matrix(0.008680555555555556,0,0,0.008680555555555556,0,0)" xlink:href="#K"/><use transform="matrix(0.008680555555555556,0,0,0.008680555555555556,9.973958333333334,0)" xlink:href="#O"/><use transform="matrix(0.008680555555555556,0,0,0.008680555555555556,20.11284722222222,0)" xlink:href="#O"/><use transform="matrix(0.008680555555555556,0,0,0.008680555555555556,30.25173611111111,0)" xlink:href="#G"/></g><g id="n"><use transform="matrix(0.008680555555555556,0,0,0.008680555555555556,0,0)" xlink:href="#F"/><use transform="matrix(0.008680555555555556,0,0,0.008680555555555556,9.305555555555555,0)" xlink:href="#I"/><use transform="matrix(0.008680555555555556,0,0,0.008680555555555556,15.15625,0)" xlink:href="#J"/><use transform="matrix(0.008680555555555556,0,0,0.008680555555555556,24.57465277777778,0)" xlink:href="#C"/><use transform="matrix(0.008680555555555556,0,0,0.008680555555555556,34.24479166666667,0)" xlink:href="#E"/><use transform="matrix(0.008680555555555556,0,0,0.008680555555555556,40.052083333333336,0)" xlink:href="#D"/><use transform="matrix(0.008680555555555556,0,0,0.008680555555555556,44.36631944444444,0)" xlink:href="#O"/><use transform="matrix(0.008680555555555556,0,0,0.008680555555555556,54.50520833333334,0)" xlink:href="#M"/></g><path fill="#333" d="M538-131c121 0 232-49 232-156 0-50-20-88-56-117-73-60-334-92-420-143-92-55-162-110-162-238 0-190 192-317 400-317 223 0 414 129 413 338H759c0-108-110-186-227-186-119 0-215 53-215 159 0 45 18 78 53 101 76 52 331 90 416 139 98 57 169 115 169 251C955-92 760 20 538 20c-176 0-314-68-386-174-38-55-57-115-57-179h185c6 129 116 202 258 202" id="T"/><path fill="#333" d="M589-945c-131 0-219 81-264 174V0H140v-1536h185v585c82-101 189-151 320-151 229 0 346 129 346 387V0H806v-716c-2-153-65-229-217-229" id="U"/><g id="o"><use transform="matrix(0.008680555555555556,0,0,0.008680555555555556,0,0)" xlink:href="#K"/><use transform="matrix(0.008680555555555556,0,0,0.008680555555555556,9.973958333333334,0)" xlink:href="#I"/><use transform="matrix(0.008680555555555556,0,0,0.008680555555555556,15.824652777777779,0)" xlink:href="#J"/><use transform="matrix(0.008680555555555556,0,0,0.008680555555555556,25.243055555555557,0)" xlink:href="#F"/><use transform="matrix(0.008680555555555556,0,0,0.008680555555555556,34.548611111111114,0)" xlink:href="#I"/><use transform="matrix(0.008680555555555556,0,0,0.008680555555555556,40.21701388888889,0)" xlink:href="#C"/><use transform="matrix(0.008680555555555556,0,0,0.008680555555555556,49.887152777777786,0)" xlink:href="#T"/><use transform="matrix(0.008680555555555556,0,0,0.008680555555555556,59.05381944444446,0)" xlink:href="#U"/></g><g id="p"><use transform="matrix(0.008680555555555556,0,0,0.008680555555555556,0,0)" xlink:href="#T"/><use transform="matrix(0.008680555555555556,0,0,0.008680555555555556,9.166666666666668,0)" xlink:href="#E"/><use transform="matrix(0.008680555555555556,0,0,0.008680555555555556,14.973958333333336,0)" xlink:href="#C"/><use transform="matrix(0.008680555555555556,0,0,0.008680555555555556,24.644097222222225,0)" xlink:href="#E"/><use transform="matrix(0.008680555555555556,0,0,0.008680555555555556,30.451388888888893,0)" xlink:href="#J"/></g><path fill="#333" d="M986-814H152v-161h834v161zm0 415H152v-160h834v160" id="V"/><use transform="matrix(0.008680555555555556,0,0,0.008680555555555556,0,0)" xlink:href="#V" id="q"/><path fill="#333" d="M750-692c-1-124-48-174-173-175-81 0-142 35-183 104V0H105v-1082h272l9 125c77-97 181-145 311-145 244 0 342 151 342 403V0H750v-692" id="W"/><path fill="#333" d="M579 20C257 20 58-214 66-551c8-331 182-551 511-551 324 0 514 231 514 572 0 319-198 550-512 550zm-2-888c-169 0-222 141-222 338 0 181 61 317 224 317 170 0 223-137 223-338 0-178-64-317-225-317" id="X"/><path fill="#333" d="M443-233h529V0H74v-176l509-672H89v-234h867v171" id="Y"/><path fill="#333" d="M416 0H126v-1082h290V0zM271-1212c-92 0-162-61-162-150s68-149 162-149c93 0 162 60 162 149s-70 150-162 150" id="Z"/><path fill="#333" d="M416 0H126v-1536h290V0" id="aa"/><g id="r"><use transform="matrix(0.008680555555555556,0,0,0.008680555555555556,0,0)" xlink:href="#W"/><use transform="matrix(0.008680555555555556,0,0,0.008680555555555556,9.956597222222223,0)" xlink:href="#X"/><use transform="matrix(0.008680555555555556,0,0,0.008680555555555556,19.869791666666668,0)" xlink:href="#Y"/><use transform="matrix(0.008680555555555556,0,0,0.008680555555555556,28.914930555555557,0)" xlink:href="#Z"/><use transform="matrix(0.008680555555555556,0,0,0.008680555555555556,33.62847222222222,0)" xlink:href="#aa"/></g><g id="s"><use transform="matrix(0.008680555555555556,0,0,0.008680555555555556,0,0)" xlink:href="#G"/><use transform="matrix(0.008680555555555556,0,0,0.008680555555555556,4.314236111111112,0)" xlink:href="#O"/><use transform="matrix(0.008680555555555556,0,0,0.008680555555555556,14.453125,0)" xlink:href="#N"/></g><g id="t"><use transform="matrix(0.008680555555555556,0,0,0.008680555555555556,0,0)" xlink:href="#C"/><use transform="matrix(0.008680555555555556,0,0,0.008680555555555556,9.67013888888889,0)" xlink:href="#R"/><use transform="matrix(0.008680555555555556,0,0,0.008680555555555556,19.64409722222222,0)" xlink:href="#C"/><use transform="matrix(0.008680555555555556,0,0,0.008680555555555556,29.31423611111111,0)" xlink:href="#M"/><use transform="matrix(0.008680555555555556,0,0,0.008680555555555556,39.123263888888886,0)" xlink:href="#Q"/><use transform="matrix(0.008680555555555556,0,0,0.008680555555555556,49.14930555555556,0)" xlink:href="#O"/><use transform="matrix(0.008680555555555556,0,0,0.008680555555555556,59.288194444444436,0)" xlink:href="#M"/><use transform="matrix(0.008680555555555556,0,0,0.008680555555555556,69.09722222222223,0)" xlink:href="#J"/><use transform="matrix(0.008680555555555556,0,0,0.008680555555555556,78.515625,0)" xlink:href="#Q"/></g><g id="u"><use transform="matrix(0.010850694444444432,0,0,0.010850694444444432,0,0)" xlink:href="#F"/><use transform="matrix(0.010850694444444432,0,0,0.010850694444444432,11.63194444444443,0)" xlink:href="#I"/><use transform="matrix(0.010850694444444432,0,0,0.010850694444444432,18.717447916666643,0)" xlink:href="#C"/><use transform="matrix(0.010850694444444432,0,0,0.010850694444444432,30.805121527777736,0)" xlink:href="#T"/><use transform="matrix(0.010850694444444432,0,0,0.010850694444444432,42.26345486111106,0)" xlink:href="#U"/><use transform="matrix(0.010850694444444432,0,0,0.010850694444444432,54.50303819444438,0)" xlink:href="#J"/><use transform="matrix(0.010850694444444432,0,0,0.010850694444444432,66.27604166666659,0)" xlink:href="#Q"/></g><g id="v"><use transform="matrix(0.008680555555555556,0,0,0.008680555555555556,0,0)" xlink:href="#T"/><use transform="matrix(0.008680555555555556,0,0,0.008680555555555556,9.166666666666668,0)" xlink:href="#L"/><use transform="matrix(0.008680555555555556,0,0,0.008680555555555556,17.578125,0)" xlink:href="#T"/><use transform="matrix(0.008680555555555556,0,0,0.008680555555555556,26.744791666666668,0)" xlink:href="#E"/><use transform="matrix(0.008680555555555556,0,0,0.008680555555555556,32.552083333333336,0)" xlink:href="#J"/><use transform="matrix(0.008680555555555556,0,0,0.008680555555555556,41.970486111111114,0)" xlink:href="#H"/></g><g id="w"><use transform="matrix(0.008680555555555556,0,0,0.008680555555555556,0,0)" xlink:href="#F"/><use transform="matrix(0.008680555555555556,0,0,0.008680555555555556,9.305555555555555,0)" xlink:href="#I"/><use transform="matrix(0.008680555555555556,0,0,0.008680555555555556,14.973958333333334,0)" xlink:href="#C"/><use transform="matrix(0.008680555555555556,0,0,0.008680555555555556,24.644097222222225,0)" xlink:href="#T"/><use transform="matrix(0.008680555555555556,0,0,0.008680555555555556,33.810763888888886,0)" xlink:href="#U"/></g><g id="x"><use transform="matrix(0.010850694444444432,0,0,0.010850694444444432,0,0)" xlink:href="#D"/><use transform="matrix(0.010850694444444432,0,0,0.010850694444444432,5.392795138888883,0)" xlink:href="#H"/><use transform="matrix(0.010850694444444432,0,0,0.010850694444444432,24.86979166666664,0)" xlink:href="#K"/><use transform="matrix(0.010850694444444432,0,0,0.010850694444444432,37.337239583333286,0)" xlink:href="#O"/><use transform="matrix(0.010850694444444432,0,0,0.010850694444444432,50.010850694444386,0)" xlink:href="#I"/><use transform="matrix(0.010850694444444432,0,0,0.010850694444444432,58.0729166666666,0)" xlink:href="#E"/></g><g id="y"><use transform="matrix(0.008680555555555556,0,0,0.008680555555555556,0,0)" xlink:href="#K"/><use transform="matrix(0.008680555555555556,0,0,0.008680555555555556,9.973958333333334,0)" xlink:href="#I"/><use transform="matrix(0.008680555555555556,0,0,0.008680555555555556,15.824652777777779,0)" xlink:href="#J"/><use transform="matrix(0.008680555555555556,0,0,0.008680555555555556,25.243055555555557,0)" xlink:href="#F"/><use transform="matrix(0.008680555555555556,0,0,0.008680555555555556,34.548611111111114,0)" xlink:href="#I"/><use transform="matrix(0.008680555555555556,0,0,0.008680555555555556,40.21701388888889,0)" xlink:href="#C"/><use transform="matrix(0.008680555555555556,0,0,0.008680555555555556,49.887152777777786,0)" xlink:href="#T"/><use transform="matrix(0.008680555555555556,0,0,0.008680555555555556,59.05381944444446,0)" xlink:href="#U"/></g><g id="z"><use transform="matrix(0.008680555555555556,0,0,0.008680555555555556,0,0)" xlink:href="#T"/><use transform="matrix(0.008680555555555556,0,0,0.008680555555555556,9.166666666666668,0)" xlink:href="#E"/><use transform="matrix(0.008680555555555556,0,0,0.008680555555555556,14.973958333333336,0)" xlink:href="#C"/><use transform="matrix(0.008680555555555556,0,0,0.008680555555555556,24.644097222222225,0)" xlink:href="#E"/><use transform="matrix(0.008680555555555556,0,0,0.008680555555555556,30.451388888888893,0)" xlink:href="#J"/></g><path fill="#202124" d="M986-399H455L313-155l-95-59 108-185H152v-160h267l149-255H152v-161h510l153-262 95 59-119 203h195v161H697L549-559h437v160" id="ab"/><use transform="matrix(0.008246527777777776,0,0,0.008246527777777776,0,0)" xlink:href="#ab" id="A"/></defs></g></svg>