<svg xmlns="http://www.w3.org/2000/svg" xmlns:xlink="http://www.w3.org/1999/xlink" xmlns:lucid="lucid" width="796.82" height="873.09"><g transform="translate(-242.72015677839659 -7250.515146075413)" lucid:page-tab-id="kVeF3sM52Qje"><path d="M284.54 7953.3c0-3.3 2.68-6 6-6h343c3.3 0 8.6-.6 11.83-1.37l368.33-87.23c3.22-.77 5.84 1.3 5.84 4.6v213c0 3.33-2.6 5.36-5.82 4.56l-368.36-92.1c-3.22-.8-8.5-1.45-11.82-1.45h-343c-3.32 0-6-2.67-6-6z" stroke="#5e5e5e" fill-opacity="0"/><path d="M369.6 7314.84v4.93m0 4.93v9.86m0 4.92v9.86m0 4.93v9.85m0 4.93v9.86m0 4.94v9.85m0 4.92v9.86m0 4.93v9.86m0 4.93v9.85m0 4.92v9.86m0 4.93v9.86m0 4.92v9.86m0 4.93v9.85m0 4.93v9.87m0 4.93v9.85m0 4.93v9.86m0 4.93v9.85m0 4.93v9.86m0 4.94v9.85m0 4.92v9.86m0 4.92v9.86m0 4.93v9.85m0 4.92v9.86m0 4.93v9.85m0 4.94v9.86m0 4.93v4.92M369.6 7314.85v-.26M369.6 7684.45v.25M428.2 7314.84v4.93m0 4.93v9.86m0 4.92v9.86m0 4.93v9.85m0 4.93v9.86m0 4.94v9.85m0 4.92v9.86m0 4.93v9.86m0 4.93v9.85m0 4.92v9.86m0 4.93v9.86m0 4.92v9.86m0 4.93v9.85m0 4.93v9.87m0 4.93v9.85m0 4.93v9.86m0 4.93v9.85m0 4.93v9.86m0 4.94v9.85m0 4.92v9.86m0 4.92v9.86m0 4.93v9.85m0 4.92v9.86m0 4.93v9.85m0 4.94v9.86m0 4.93v4.92M428.2 7314.85v-.26M428.2 7684.45v.25M486.78 7314.84v4.93m0 4.94v9.87m0 4.93v9.87m0 4.93v9.87m0 4.93v9.86m0 4.94v9.86m0 4.93v9.86m0 4.93v9.86m0 4.93v9.85m0 4.93v9.87m0 4.93v9.87m0 4.93v9.86m0 4.94v9.86m0 4.93v9.87m0 4.93v9.87m0 4.93v9.86m0 4.93v9.87m0 4.93v9.87m0 4.93v9.86m0 4.94v9.86m0 4.93v9.87m0 4.93v9.87m0 4.93v9.86m0 4.95v9.86m0 4.94v9.87m0 4.94v4.93M486.78 7314.85v-.26M486.78 7684.77v.25M545.38 7314.84v4.93m0 4.92v9.84m0 4.92v9.85m0 4.93v9.85m0 4.93v9.85m0 4.93v9.85m0 4.92v9.85m0 4.92v9.85m0 4.92v9.84m0 4.92v9.85m0 4.94v9.84m0 4.93v9.86m0 4.92v9.85m0 4.92v9.85m0 4.92v9.85m0 4.93v9.84m0 4.93v9.85m0 4.92v9.85m0 4.9v9.86m0 4.92v9.85m0 4.93v9.84m0 4.93v9.84m0 4.93v9.85m0 4.92v9.85m0 4.92v9.85m0 4.9v4.94M545.38 7314.85v-.26M545.38 7684.13v.26M603.97 7314.84v4.93m0 4.94v9.87m0 4.93v9.87m0 4.93v9.87m0 4.93v9.86m0 4.94v9.86m0 4.93v9.86m0 4.93v9.86m0 4.93v9.85m0 4.93v9.87m0 4.93v9.87m0 4.93v9.86m0 4.94v9.86m0 4.93v9.87m0 4.93v9.87m0 4.93v9.86m0 4.93v9.87m0 4.93v9.87m0 4.93v9.86m0 4.94v9.86m0 4.93v9.87m0 4.93v9.87m0 4.93v9.86m0 4.95v9.86m0 4.94v9.87m0 4.94v4.93M603.97 7314.85v-.26M603.97 7684.77v.25" stroke="#ccc" stroke-width=".5" fill="none"/><path d="M598.2 7276.52c0-3.32 2.68-6 6-6h30.85c3.3 0 6 2.68 6 6v32.84c0 3.32-2.7 6-6 6H604.2c-3.32 0-6-2.68-6-6z" stroke="#000" stroke-opacity="0" stroke-width="3" fill="#fff" fill-opacity="0"/><use xlink:href="#a" transform="matrix(1,0,0,1,603.1898192250252,7275.515146075413) translate(-3.5759548611110894 25.855034722222214)"/><path d="M311.24 7326.63v350.17M311.24 7326.65v-1.02" stroke="#333" stroke-width="2" fill="none"/><path d="M311.24 7692.06l-4.63-14.26h9.28z" stroke="#333" stroke-width="2" fill="#333"/><path d="M326.78 7315.3h285.3M326.8 7315.3h-1.02" stroke="#333" stroke-width="2" fill="none"/><path d="M627.36 7315.3l-14.27 4.64v-9.27z" stroke="#333" stroke-width="2" fill="#333"/><path d="M302.1 7349.62h8.14M302.12 7349.62h-1.02M310.22 7349.62h1.02" stroke="#333" stroke-width="2" fill="none"/><path d="M292.48 7321.36c0-3.3 2.68-6 6-6h6.7c3.32 0 6 2.7 6 6v21.9c0 3.33-2.68 6-6 6h-6.7c-3.32 0-6-2.67-6-6z" stroke="#000" stroke-opacity="0" stroke-width="3" fill="#fff" fill-opacity="0"/><use xlink:href="#b" transform="matrix(1,0,0,1,297.4764704917009,7320.363372149928) translate(-1.1152343749999911 18.83593749999999)"/><path d="M302.1 7384.1h8.14M302.12 7384.1h-1.02M310.22 7384.1h1.02" stroke="#333" stroke-width="2" fill="none"/><path d="M292.48 7355.84c0-3.3 2.68-6 6-6h6.7c3.32 0 6 2.7 6 6v21.9c0 3.32-2.68 6-6 6h-6.7c-3.32 0-6-2.68-6-6z" stroke="#000" stroke-opacity="0" stroke-width="3" fill="#fff" fill-opacity="0"/><use xlink:href="#c" transform="matrix(1,0,0,1,297.4764704917009,7354.841720633372) translate(-1.1152343749999911 18.83593749999999)"/><path d="M302.1 7418.58h8.14M302.12 7418.58h-1.02M310.22 7418.58h1.02" stroke="#333" stroke-width="2" fill="none"/><path d="M292.48 7390.32c0-3.3 2.68-6 6-6h6.7c3.32 0 6 2.7 6 6v21.9c0 3.32-2.68 6-6 6h-6.7c-3.32 0-6-2.68-6-6z" stroke="#000" stroke-opacity="0" stroke-width="3" fill="#fff" fill-opacity="0"/><use xlink:href="#d" transform="matrix(1,0,0,1,297.4764704917009,7389.320069116814) translate(-1.1152343749999911 18.83593749999999)"/><path d="M302.1 7453.06h8.14M302.12 7453.06h-1.02M310.22 7453.06h1.02" stroke="#333" stroke-width="2" fill="none"/><path d="M292.48 7424.8c0-3.32 2.68-6 6-6h6.7c3.32 0 6 2.68 6 6v21.9c0 3.32-2.68 6-6 6h-6.7c-3.32 0-6-2.68-6-6z" stroke="#000" stroke-opacity="0" stroke-width="3" fill="#fff" fill-opacity="0"/><use xlink:href="#e" transform="matrix(1,0,0,1,297.4764704917009,7423.798417600258) translate(-1.1152343749999911 18.83593749999999)"/><path d="M369.73 7305.9v8.34M369.73 7305.9v-1M369.73 7314.2v1.04" stroke="#333" stroke-width="2" fill="none"/><path d="M317.72 7306.67c-3.3 0-6-2.68-6-6v-7.08c0-3.32 2.7-6 6-6h45.6c3.32 0 6 2.68 6 6v7.07c0 3.32-2.68 6-6 6z" stroke="#000" stroke-opacity="0" stroke-width="3" fill="#fff" fill-opacity="0"/><use xlink:href="#f" transform="matrix(1,0,0,1,316.72469671585384,7292.593285476996) translate(18.384765625000007 18.55468749999997)"/><path d="M428.08 7305.87v8.35M428.08 7305.9v-1.03M428.08 7314.2v1.02" stroke="#333" stroke-width="2" fill="none"/><path d="M375.33 7306.67c-3.3 0-6-2.68-6-6v-7.08c0-3.32 2.7-6 6-6h45.6c3.32 0 6 2.68 6 6v7.07c0 3.32-2.68 6-6 6z" stroke="#000" stroke-opacity="0" stroke-width="3" fill="#fff" fill-opacity="0"/><use xlink:href="#g" transform="matrix(1,0,0,1,374.3293486929573,7292.593285476996) translate(18.384765625000007 18.55468749999997)"/><path d="M486.83 7305.9v8.34M486.83 7305.9v-1M486.83 7314.2v1.04" stroke="#333" stroke-width="2" fill="none"/><path d="M434.82 7306.67c-3.3 0-6-2.68-6-6v-7.08c0-3.32 2.7-6 6-6h45.6c3.32 0 6 2.68 6 6v7.07c0 3.32-2.68 6-6 6z" stroke="#000" stroke-opacity="0" stroke-width="3" fill="#fff" fill-opacity="0"/><use xlink:href="#h" transform="matrix(1,0,0,1,433.81927530488736,7292.593285476996) translate(18.384765625000007 18.55468749999997)"/><path d="M545.43 7305.9v8.34M545.43 7305.9v-1M545.43 7314.2v1.04" stroke="#333" stroke-width="2" fill="none"/><path d="M493.42 7306.67c-3.3 0-6-2.68-6-6v-7.08c0-3.32 2.7-6 6-6h45.6c3.32 0 6 2.68 6 6v7.07c0 3.32-2.68 6-6 6z" stroke="#000" stroke-opacity="0" stroke-width="3" fill="#fff" fill-opacity="0"/><use xlink:href="#b" transform="matrix(1,0,0,1,492.42374515472056,7292.593285476997) translate(18.384765625000007 18.55468749999997)"/><path d="M552.45 7306.67c-3.32 0-6-2.68-6-6v-7.08c0-3.32 2.68-6 6-6h45.6c3.32 0 6 2.68 6 6v7.07c0 3.32-2.68 6-6 6z" stroke="#000" stroke-opacity="0" stroke-width="3" fill="#fff" fill-opacity="0"/><use xlink:href="#c" transform="matrix(1,0,0,1,551.4484242558376,7292.593285476996) translate(18.384765625000007 18.55468749999997)"/><path d="M314.77 7328.13c0-3.32 2.68-6 6-6H335c3.32 0 6 2.68 6 6v5.47c0 3.32-2.68 6-6 6h-14.23c-3.32 0-6-2.68-6-6z" stroke="#000" stroke-opacity="0" stroke-width="3" fill="#fff" fill-opacity="0"/><use xlink:href="#i" transform="matrix(1,0,0,1,314.76791773889454,7322.125745768903) translate(5.526909722222231 22.677951388888864)"/><path d="M341 7328.13c0-3.32 2.7-6 6-6h14.24c3.3 0 6 2.68 6 6v5.47c0 3.32-2.7 6-6 6H347c-3.3 0-6-2.68-6-6z" stroke="#000" stroke-opacity="0" stroke-width="3" fill="#fff" fill-opacity="0"/><use xlink:href="#j" transform="matrix(1,0,0,1,341.0018819019915,7322.125745768903) translate(5.544813368055564 22.677951388888864)"/><path d="M327.35 7361.06c0-3.32 2.7-6 6-6h14.24c3.3 0 6 2.68 6 6v5.48c0 3.3-2.7 6-6 6h-14.25c-3.3 0-6-2.7-6-6z" stroke="#000" stroke-opacity="0" stroke-width="3" fill="#fff" fill-opacity="0"/><use xlink:href="#k" transform="matrix(1,0,0,1,327.351721017835,7355.057674559181) translate(5.890950520833342 22.677951388888864)"/><path d="M327.68 7394c0-3.32 2.68-6 6-6h14.23c3.32 0 6 2.68 6 6v5.47c0 3.3-2.68 6-6 6H333.7c-3.32 0-6-2.7-6-6z" stroke="#000" stroke-opacity="0" stroke-width="3" fill="#fff" fill-opacity="0"/><use xlink:href="#l" transform="matrix(1,0,0,1,327.67732580381545,7387.989603349459) translate(5.48513454861112 22.677951388888864)"/><path d="M385.28 7363.1c0-3.3 2.7-6 6-6h14.24c3.3 0 6 2.7 6 6v5.5c0 3.3-2.7 6-6 6h-14.24c-3.3 0-6-2.7-6-6z" stroke="#000" stroke-opacity="0" stroke-width="3" fill="#fff" fill-opacity="0"/><use xlink:href="#m" transform="matrix(1,0,0,1,385.28197778091896,7357.110894555427) translate(6.553385416666674 22.677951388888864)"/><path d="M444.77 7394c0-3.32 2.7-6 6-6H465c3.32 0 6 2.68 6 6v5.47c0 3.3-2.68 6-6 6h-14.23c-3.3 0-6-2.7-6-6z" stroke="#000" stroke-opacity="0" stroke-width="3" fill="#fff" fill-opacity="0"/><use xlink:href="#n" transform="matrix(1,0,0,1,444.77190439284897,7387.989603349459) translate(5.174804687500009 22.677951388888864)"/><path d="M501.32 7427.6c0-3.32 2.7-6 6-6h14.23c3.32 0 6 2.68 6 6v5.47c0 3.32-2.68 6-6 6h-14.23c-3.3 0-6-2.68-6-6z" stroke="#000" stroke-opacity="0" stroke-width="3" fill="#fff" fill-opacity="0"/><use xlink:href="#o" transform="matrix(1,0,0,1,501.3198278258234,7421.596057284306) translate(4.786892361111121 22.677951388888864)"/><path d="M388.16 7433c0-3.3 2.7-6 6-6h14.24c3.3 0 6 2.7 6 6v5.5c0 3.3-2.7 6-6 6h-14.24c-3.3 0-6-2.7-6-6z" stroke="#000" stroke-opacity="0" stroke-width="3" fill="#fff" fill-opacity="0"/><use xlink:href="#p" transform="matrix(1,0,0,1,388.1633932388457,7427.013234277177) translate(6.744357638888896 22.677951388888864)"/><path d="M557.2 7634.35c0-3.3 2.7-6 6-6h14.23c3.32 0 6 2.7 6 6v5.48c0 3.32-2.68 6-6 6H563.2c-3.3 0-6-2.68-6-6z" stroke="#000" stroke-opacity="0" stroke-width="3" fill="#fff" fill-opacity="0"/><use xlink:href="#q" transform="matrix(1,0,0,1,557.1994921698366,7628.353318962418) translate(6.756293402777785 22.677951388888864)"/><path d="M262.72 7676.43c0-3.3 2.7-6 6-6h30.86c3.3 0 6 2.7 6 6v9.34c0 3.32-2.7 6-6 6h-30.86c-3.3 0-6-2.68-6-6z" stroke="#000" stroke-opacity="0" stroke-width="3" fill="#fff" fill-opacity="0"/><use xlink:href="#r" transform="matrix(1,0,0,1,267.7201567783966,7675.431667698344) translate(-0.28765190972220367 22.677951388888864)"/><path d="M312.15 7315.3h3.7m4.95 0h3.7M312.18 7315.3h-1.03M324.48 7315.3h1.03M311.26 7315.57v3.43m0 4.57v3.42M311.26 7315.6v-1.03M311.26 7326.97v1.02M301.6 7487.54h8.14M301.62 7487.54h-1.03M309.72 7487.54h1.02" stroke="#333" stroke-width="2" fill="none"/><path d="M291.97 7459.28c0-3.32 2.7-6 6-6h6.7c3.33 0 6 2.68 6 6v21.9c0 3.32-2.67 6-6 6h-6.7c-3.3 0-6-2.68-6-6z" stroke="#000" stroke-opacity="0" stroke-width="3" fill="#fff" fill-opacity="0"/><use xlink:href="#s" transform="matrix(1,0,0,1,296.9739652781327,7458.276766083701) translate(-1.1152343749999911 18.83593749999999)"/><path d="M301.6 7522h8.14M301.62 7522h-1.03M309.72 7522h1.02" stroke="#333" stroke-width="2" fill="none"/><path d="M291.97 7493.76c0-3.32 2.7-6 6-6h6.7c3.33 0 6 2.68 6 6v21.9c0 3.32-2.67 6-6 6h-6.7c-3.3 0-6-2.68-6-6z" stroke="#000" stroke-opacity="0" stroke-width="3" fill="#fff" fill-opacity="0"/><use xlink:href="#t" transform="matrix(1,0,0,1,296.9739652781327,7492.755114567144) translate(-1.1152343749999911 18.83593749999999)"/><path d="M292.98 7556.5h16.76M293 7556.5H292M309.72 7556.5h1.02" stroke="#333" stroke-width="2" fill="none"/><path d="M276.05 7528.23c0-3.3 2.7-6 6-6h22.6c3.3 0 6 2.7 6 6v21.9c0 3.33-2.7 6-6 6h-22.6c-3.3 0-6-2.67-6-6z" stroke="#000" stroke-opacity="0" stroke-width="3" fill="#fff" fill-opacity="0"/><use xlink:href="#u" transform="matrix(1,0,0,1,281.0549580825982,7527.233463050587) translate(2.5390625000000355 18.55468749999997)"/><path d="M292.88 7590.4h16.76M292.9 7590.4h-1.02M309.6 7590.4h1.04" stroke="#333" stroke-width="2" fill="none"/><path d="M275.95 7562.14c0-3.3 2.7-6 6-6h22.58c3.3 0 6 2.7 6 6v21.9c0 3.32-2.7 6-6 6h-22.58c-3.3 0-6-2.68-6-6z" stroke="#000" stroke-opacity="0" stroke-width="3" fill="#fff" fill-opacity="0"/><use xlink:href="#v" transform="matrix(1,0,0,1,280.9493392288504,7561.14151119739) translate(2.5390625000000355 18.55468749999997)"/><path d="M292.77 7624.3h16.76M292.8 7624.3h-1.03M309.5 7624.3h1.03" stroke="#333" stroke-width="2" fill="none"/><path d="M275.84 7596.05c0-3.3 2.7-6 6-6h22.58c3.32 0 6 2.7 6 6v21.9c0 3.32-2.68 6-6 6h-22.58c-3.3 0-6-2.68-6-6z" stroke="#000" stroke-opacity="0" stroke-width="3" fill="#fff" fill-opacity="0"/><use xlink:href="#w" transform="matrix(1,0,0,1,280.84372037510263,7595.049559344193) translate(2.5390625000000355 18.55468749999997)"/><path d="M292.67 7658.22h16.75M292.7 7658.22h-1.03M309.4 7658.22h1.02" stroke="#333" stroke-width="2" fill="none"/><path d="M275.74 7629.96c0-3.32 2.68-6 6-6h22.58c3.3 0 6 2.68 6 6v21.9c0 3.32-2.7 6-6 6h-22.58c-3.32 0-6-2.68-6-6z" stroke="#000" stroke-opacity="0" stroke-width="3" fill="#fff" fill-opacity="0"/><use xlink:href="#x" transform="matrix(1,0,0,1,280.73810152135485,7628.9576074909955) translate(2.5390625000000355 18.55468749999997)"/><path d="M312.92 7349.56h5.1m5.12 0h10.2m5.12 0h10.22m5.1 0H364m5.1 0h10.22m5.1 0h10.23m5.1 0h10.22m5.1 0h10.22m5.1 0h10.22m5.1 0h10.22m5.1 0h10.22m5.1 0h10.23m5.1 0h10.2m5.12 0h10.22m5.1 0h10.22m5.1 0h10.22m5.1 0h10.23m5.12 0h10.2m5.12 0h10.2m5.12 0h5.1M312.93 7349.56h-.26M604.06 7349.56h.26M312.92 7384.03h5.1m5.12 0h10.2m5.12 0h10.22m5.1 0H364m5.1 0h10.22m5.1 0h10.23m5.1 0h10.22m5.1 0h10.22m5.1 0h10.22m5.1 0h10.22m5.1 0h10.22m5.1 0h10.23m5.1 0h10.2m5.12 0h10.22m5.1 0h10.22m5.1 0h10.22m5.1 0h10.23m5.12 0h10.2m5.12 0h10.2m5.12 0h5.1M312.93 7384.03h-.26M604.06 7384.03h.26M312.92 7418.5h5.1m5.12 0h10.2m5.12 0h10.22m5.1 0H364m5.1 0h10.22m5.1 0h10.23m5.1 0h10.22m5.1 0h10.22m5.1 0h10.22m5.1 0h10.22m5.1 0h10.22m5.1 0h10.23m5.1 0h10.2m5.12 0h10.22m5.1 0h10.22m5.1 0h10.22m5.1 0h10.23m5.12 0h10.2m5.12 0h10.2m5.12 0h5.1M312.93 7418.5h-.26M604.06 7418.5h.26M312.92 7453h5.1m5.12 0h10.2m5.12 0h10.22m5.1 0H364m5.1 0h10.22m5.1 0h10.23m5.1 0h10.22m5.1 0h10.22m5.1 0h10.22m5.1 0h10.22m5.1 0h10.22m5.1 0h10.23m5.1 0h10.2m5.12 0h10.22m5.1 0h10.22m5.1 0h10.22m5.1 0h10.23m5.12 0h10.2m5.12 0h10.2m5.12 0h5.1M312.93 7453h-.26M604.06 7453h.26M312.92 7487.47h5.1m5.12 0h10.2m5.12 0h10.22m5.1 0H364m5.1 0h10.22m5.1 0h10.23m5.1 0h10.22m5.1 0h10.22m5.1 0h10.22m5.1 0h10.22m5.1 0h10.22m5.1 0h10.23m5.1 0h10.2m5.12 0h10.22m5.1 0h10.22m5.1 0h10.22m5.1 0h10.23m5.12 0h10.2m5.12 0h10.2m5.12 0h5.1M312.93 7487.47h-.26M604.06 7487.47h.26M312.92 7521.95h5.1m5.12 0h10.2m5.12 0h10.22m5.1 0H364m5.1 0h10.22m5.1 0h10.23m5.1 0h10.22m5.1 0h10.22m5.1 0h10.22m5.1 0h10.22m5.1 0h10.22m5.1 0h10.23m5.1 0h10.2m5.12 0h10.22m5.1 0h10.22m5.1 0h10.22m5.1 0h10.23m5.12 0h10.2m5.12 0h10.2m5.12 0h5.1M312.93 7521.95h-.26M604.06 7521.95h.26M312.92 7556.43h5.1m5.12 0h10.2m5.12 0h10.22m5.1 0H364m5.1 0h10.22m5.1 0h10.23m5.1 0h10.22m5.1 0h10.22m5.1 0h10.22m5.1 0h10.22m5.1 0h10.22m5.1 0h10.23m5.1 0h10.2m5.12 0h10.22m5.1 0h10.22m5.1 0h10.22m5.1 0h10.23m5.12 0h10.2m5.12 0h10.2m5.12 0h5.1M312.93 7556.43h-.26M604.06 7556.43h.26M312.92 7590.05h5.1m5.12 0h10.2m5.12 0h10.22m5.1 0H364m5.1 0h10.22m5.1 0h10.23m5.1 0h10.22m5.1 0h10.22m5.1 0h10.22m5.1 0h10.22m5.1 0h10.22m5.1 0h10.23m5.1 0h10.2m5.12 0h10.22m5.1 0h10.22m5.1 0h10.22m5.1 0h10.23m5.12 0h10.2m5.12 0h10.2m5.12 0h5.1M312.93 7590.05h-.26M604.06 7590.05h.26M312.92 7623.96h5.1m5.12 0h10.2m5.12 0h10.22m5.1 0H364m5.1 0h10.22m5.1 0h10.23m5.1 0h10.22m5.1 0h10.22m5.1 0h10.22m5.1 0h10.22m5.1 0h10.22m5.1 0h10.23m5.1 0h10.2m5.12 0h10.22m5.1 0h10.22m5.1 0h10.22m5.1 0h10.23m5.12 0h10.2m5.12 0h10.2m5.12 0h5.1M312.93 7623.96h-.26M604.06 7623.96h.26M312.92 7658.44h5.1m5.12 0h10.2m5.12 0h10.22m5.1 0H364m5.1 0h10.22m5.1 0h10.23m5.1 0h10.22m5.1 0h10.22m5.1 0h10.22m5.1 0h10.22m5.1 0h10.22m5.1 0h10.23m5.1 0h10.2m5.12 0h10.22m5.1 0h10.22m5.1 0h10.22m5.1 0h10.23m5.12 0h10.2m5.12 0h10.2m5.12 0h5.1M312.93 7658.44h-.26M604.06 7658.44h.26" stroke="#ccc" stroke-width=".5" fill="none"/><path d="M800 7400.93v225.02M800 7400.96v-1.03M800 7625.93v1.02M721.74 7460.56H979M721.76 7460.56h-1.02M978.97 7460.56H980" stroke="#202124" stroke-width="2" fill="none"/><path d="M720 7356.98h81.82v103.14H720z" stroke="#000" stroke-opacity="0" fill="#fff" fill-opacity="0"/><use xlink:href="#y" transform="matrix(-1.8369701987210297e-16,-1,1,-1.8369701987210297e-16,731.0000000000009,7449.116607859529) translate(0 37.677951388888864)"/><path d="M799.96 7397.42h79.57v63.14h-79.57z" stroke="#000" stroke-opacity="0" fill="#fff" fill-opacity="0"/><use xlink:href="#z" transform="matrix(1,0,0,1,810.9615583265296,7408.424962417778) translate(11.794596354166686 30.552951388888864)"/><path d="M880 7397.42h80.7v63.14H880z" stroke="#000" stroke-opacity="0" fill="#fff" fill-opacity="0"/><use xlink:href="#A" transform="matrix(1,0,0,1,891,7408.424962417778) translate(0 29.355034722222214)"/><path d="M740.43 7460.56h59.53v39.82h-59.53z" stroke="#000" stroke-opacity="0" fill="#fff" fill-opacity="0"/><use xlink:href="#B" transform="matrix(1,0,0,1,751.4309900346968,7471.563466799764) translate(11.987738715277786 22.677951388888864)"/><path d="M740.43 7500.17h59.53v38.93h-59.53z" stroke="#000" stroke-opacity="0" fill="#fff" fill-opacity="0"/><use xlink:href="#C" transform="matrix(1,0,0,1,751.4309900346968,7511.165963775876) translate(11.987738715277786 22.677951388888864)"/><path d="M740.43 7539.1h59.53v41.2h-59.53z" stroke="#000" stroke-opacity="0" fill="#fff" fill-opacity="0"/><use xlink:href="#D" transform="matrix(1,0,0,1,751.4309900346968,7550.0971323173735) translate(11.987738715277786 22.677951388888864)"/><path d="M740.43 7580.52h59.53v41.2h-59.53z" stroke="#000" stroke-opacity="0" fill="#fff" fill-opacity="0"/><use xlink:href="#E" transform="matrix(1,0,0,1,751.4309900346968,7591.521705597682) translate(11.987738715277786 22.677951388888864)"/><path d="M880 7400.93v230.58M880 7400.96v-1.03M880 7631.48v1.03" stroke="#202124" stroke-width="2" fill="none"/><path d="M800.03 7460.56h79.93v39.82h-79.93z" stroke="#000" stroke-opacity="0" fill="#fff" fill-opacity="0"/><use xlink:href="#F" transform="matrix(1,0,0,1,811.0288426705577,7471.563466799764) translate(0 22.677951388888864)"/><path d="M800.03 7499.72h79.93v39.82h-79.93z" stroke="#000" stroke-opacity="0" fill="#fff" fill-opacity="0"/><use xlink:href="#G" transform="matrix(1,0,0,1,811.0288426705577,7510.720817657989) translate(0 22.677951388888864)"/><path d="M800.03 7539.8h79.93v39.8h-79.93z" stroke="#000" stroke-opacity="0" fill="#fff" fill-opacity="0"/><use xlink:href="#H" transform="matrix(1,0,0,1,811.0288426705577,7550.7892066683125) translate(0 22.677951388888864)"/><path d="M799.6 7581.2h79.94v39.84H799.6z" stroke="#000" stroke-opacity="0" fill="#fff" fill-opacity="0"/><use xlink:href="#I" transform="matrix(1,0,0,1,810.6121902799699,7592.213779948621) translate(0 22.677951388888864)"/><path d="M880.7 7460.56h113.57v39.82H880.7z" stroke="#000" stroke-opacity="0" fill="#fff" fill-opacity="0"/><use xlink:href="#J" transform="matrix(1,0,0,1,891.7126011729931,7471.563466799764) translate(0 22.677951388888864)"/><use xlink:href="#K" transform="matrix(1,0,0,1,891.7126011729931,7471.563466799764) translate(42.70616319444439 22.677951388888864)"/><use xlink:href="#L" transform="matrix(1,0,0,1,891.7126011729931,7471.563466799764) translate(54.7135416666666 22.677951388888864)"/><path d="M880.7 7499.72h113.57v39.82H880.7z" stroke="#000" stroke-opacity="0" fill="#fff" fill-opacity="0"/><use xlink:href="#M" transform="matrix(1,0,0,1,891.7126011729931,7510.720817657989) translate(0 22.677951388888864)"/><use xlink:href="#K" transform="matrix(1,0,0,1,891.7126011729931,7510.720817657989) translate(39.96093749999995 22.677951388888864)"/><use xlink:href="#N" transform="matrix(1,0,0,1,891.7126011729931,7510.720817657989) translate(51.96831597222216 22.677951388888864)"/><path d="M880.7 7539.8h113.57v39.8H880.7z" stroke="#000" stroke-opacity="0" fill="#fff" fill-opacity="0"/><use xlink:href="#O" transform="matrix(1,0,0,1,891.7126011729931,7550.7892066683125) translate(0 22.677951388888864)"/><path d="M880.12 7581.2h113.56v39.84H880.12z" stroke="#000" stroke-opacity="0" fill="#fff" fill-opacity="0"/><use xlink:href="#p" transform="matrix(1,0,0,1,891.120684631105,7592.213779948621) translate(0 22.677951388888864)"/><path d="M360.8 7842.86v262.3M360.8 7842.9v-1.04M360.8 8105.13v1.02M282.55 7902.5H623M282.57 7902.5h-1.02M622.98 7902.5H624" stroke="#202124" stroke-width="2" fill="none"/><path d="M280 7831.9h82.64v79.28H280z" stroke="#000" stroke-opacity="0" fill="#fff" fill-opacity="0"/><use xlink:href="#P" transform="matrix(1,0,0,1,291,7842.892266436386) translate(6.9309895833333925 23.03211805555556)"/><use xlink:href="#Q" transform="matrix(1,0,0,1,291,7842.892266436386) translate(-2.916015624999929 51.677951388888864)"/><path d="M362 7811.06h239.24v46.8H362z" stroke="#000" stroke-opacity="0" fill="#fff" fill-opacity="0"/><use xlink:href="#R" transform="matrix(1,0,0,1,372.99846201324505,7822.055244672028) translate(56.55902777777783 22.677951388888864)"/><use xlink:href="#S" transform="matrix(1,0,0,1,372.99846201324505,7822.055244672028) translate(101.67740885416667 22.677951388888864)"/><use xlink:href="#T" transform="matrix(1,0,0,1,372.99846201324505,7822.055244672028) translate(113.73253038194443 22.677951388888864)"/><use xlink:href="#U" transform="matrix(1,0,0,1,372.99846201324505,7822.055244672028) translate(152.8233506944444 22.677951388888864)"/><path d="M440.8 7886.8v218.35M440.8 7886.83v-1.03M440.8 8105.13v1.02" stroke="#202124" stroke-width="2" fill="none"/><path d="M360.65 7857.86h79.6v44.63h-79.6z" stroke="#000" stroke-opacity="0" fill="#fff" fill-opacity="0"/><use xlink:href="#V" transform="matrix(1,0,0,1,371.64906530994233,7868.857447483511) translate(11.752821180555575 17.03211805555556)"/><path d="M440.65 7857.86h79.6v44.63h-79.6z" stroke="#000" stroke-opacity="0" fill="#fff" fill-opacity="0"/><use xlink:href="#W" transform="matrix(1,0,0,1,451.64906530994233,7868.857447483511) translate(11.752821180555575 17.03211805555556)"/><path d="M520.8 7886.8v216.37M520.8 7886.83v-1.03M520.8 8103.14v1.03M600.8 7846.03v258.63M600.8 7846.06v-1.03M600.8 8104.63v1.03" stroke="#202124" stroke-width="2" fill="none"/><path d="M521.22 7857.86h79.6v44.63h-79.6z" stroke="#000" stroke-opacity="0" fill="#fff" fill-opacity="0"/><use xlink:href="#X" transform="matrix(1,0,0,1,532.2161978516506,7868.857447483511) translate(11.752821180555575 17.03211805555556)"/><path d="M886.42 7929.56h120.7M886.44 7929.56h-1.02M1007.1 7929.56h1.03" stroke="#5e5e5e" stroke-width="2" fill="none"/><path d="M896.62 7889h45.66v40.56h-45.66z" stroke="#000" stroke-opacity="0" fill="#fff" fill-opacity="0"/><use xlink:href="#Y" transform="matrix(1,0,0,1,907.6203358367375,7900.004315351283) translate(-2.0771484374999787 18.554687499999975)"/><path d="M942.64 7889h61.9v40.56h-61.9z" stroke="#000" stroke-opacity="0" fill="#fff" fill-opacity="0"/><use xlink:href="#Z" transform="matrix(1,0,0,1,953.6401621004725,7900.004315351283) translate(0 18.554687499999975)"/><path d="M942.64 7891.6v158.02M942.64 7891.64v-1.03M942.64 8049.6v1.02" stroke="#5e5e5e" stroke-width="2" fill="none"/><path d="M896.95 7929.56h45.66v39.2h-45.65z" stroke="#000" stroke-opacity="0" fill="#fff" fill-opacity="0"/><use xlink:href="#aa" transform="matrix(1,0,0,1,907.9509039453733,7940.556496239148) translate(6.384765625000008 18.554687499999975)"/><path d="M896.95 7968.1h45.66v39.18h-45.65z" stroke="#000" stroke-opacity="0" fill="#fff" fill-opacity="0"/><use xlink:href="#ab" transform="matrix(1,0,0,1,907.9509039453733,7979.092899296017) translate(6.384765625000008 18.554687499999975)"/><path d="M896.95 8007.53h45.66v39.2h-45.65z" stroke="#000" stroke-opacity="0" fill="#fff" fill-opacity="0"/><use xlink:href="#ac" transform="matrix(1,0,0,1,907.9509039453733,8018.525893482265) translate(6.384765625000008 18.554687499999975)"/><path d="M942.97 7929.56h45.66v39.2h-45.66z" stroke="#000" stroke-opacity="0" fill="#fff" fill-opacity="0"/><use xlink:href="#ad" transform="matrix(1,0,0,1,953.9707302091085,7940.556496239148) translate(6.384765625000008 18.554687499999975)"/><path d="M942.97 7968.1h45.66v39.18h-45.66z" stroke="#000" stroke-opacity="0" fill="#fff" fill-opacity="0"/><use xlink:href="#ad" transform="matrix(1,0,0,1,953.9707302091085,7979.092899296017) translate(6.384765625000008 18.554687499999975)"/><path d="M942.97 8007.53h45.66v39.2h-45.66z" stroke="#000" stroke-opacity="0" fill="#fff" fill-opacity="0"/><use xlink:href="#ae" transform="matrix(1,0,0,1,953.9707302091085,8018.525893482265) translate(6.384765625000008 18.554687499999975)"/><path d="M669.4 7918.5h233.8v95.93H669.4z" stroke="#000" stroke-opacity="0" fill="#fff" fill-opacity="0"/><use xlink:href="#af" transform="matrix(1,0,0,1,674.3859494735659,7923.496756968592) translate(0 37.36718749999997)"/><use xlink:href="#ag" transform="matrix(1,0,0,1,674.3859494735659,7923.496756968592) translate(47.91015624999992 37.36718749999997)"/><use xlink:href="#ah" transform="matrix(1,0,0,1,674.3859494735659,7923.496756968592) translate(85.86914062499986 37.36718749999997)"/><use xlink:href="#ai" transform="matrix(1,0,0,1,674.3859494735659,7923.496756968592) translate(0 60.804687499999936)"/><use xlink:href="#aj" transform="matrix(1,0,0,1,674.3859494735659,7923.496756968592) translate(37.988281249999936 60.804687499999936)"/><use xlink:href="#ak" transform="matrix(1,0,0,1,674.3859494735659,7923.496756968592) translate(110.7714843749998 60.804687499999936)"/><path d="M301.24 7902.5h59.54v40.1h-59.54z" stroke="#000" stroke-opacity="0" fill="#fff" fill-opacity="0"/><use xlink:href="#C" transform="matrix(1,0,0,1,312.2449236268074,7913.49375966647) translate(11.987738715277786 22.677951388888864)"/><path d="M301.24 7942.38h59.54v39.22h-59.54z" stroke="#000" stroke-opacity="0" fill="#fff" fill-opacity="0"/><use xlink:href="#D" transform="matrix(1,0,0,1,312.2449236268074,7953.384092977104) translate(11.987738715277786 22.677951388888864)"/><path d="M301.24 7981.6h59.54v41.5h-59.54z" stroke="#000" stroke-opacity="0" fill="#fff" fill-opacity="0"/><use xlink:href="#E" transform="matrix(1,0,0,1,312.2449236268074,7992.59821854675) translate(11.987738715277786 22.677951388888864)"/><path d="M301.24 8023.32h59.54v41.5h-59.54z" stroke="#000" stroke-opacity="0" fill="#fff" fill-opacity="0"/><use xlink:href="#al" transform="matrix(1,0,0,1,312.2449236268074,8034.323871259989) translate(11.987738715277786 22.677951388888864)"/><path d="M360.84 7902.5h38.7v40.1h-38.7z" stroke="#000" stroke-opacity="0" fill="#fff" fill-opacity="0"/><use xlink:href="#am" transform="matrix(1,0,0,1,371.84277626266834,7913.49375966647) translate(0 22.677951388888864)"/><path d="M399.54 7902.5h41.24v40.1h-41.24z" stroke="#000" stroke-opacity="0" fill="#fff" fill-opacity="0"/><use xlink:href="#am" transform="matrix(1,0,0,1,410.53648235960577,7913.49375966647) translate(0 22.677951388888864)"/><path d="M440.84 7902.5h38.7v40.1h-38.7z" stroke="#000" stroke-opacity="0" fill="#fff" fill-opacity="0"/><use xlink:href="#am" transform="matrix(1,0,0,1,451.84277626266834,7913.49375966647) translate(0 22.677951388888864)"/><path d="M479.54 7902.5h41.24v40.1h-41.24z" stroke="#000" stroke-opacity="0" fill="#fff" fill-opacity="0"/><use xlink:href="#am" transform="matrix(1,0,0,1,490.53648235960577,7913.49375966647) translate(0 22.677951388888864)"/><path d="M520.84 7902.5h38.7v40.1h-38.7z" stroke="#000" stroke-opacity="0" fill="#fff" fill-opacity="0"/><use xlink:href="#am" transform="matrix(1,0,0,1,531.8427762626682,7913.49375966647) translate(0 22.677951388888864)"/><path d="M559.54 7902.5h41.24v40.1h-41.24z" stroke="#000" stroke-opacity="0" fill="#fff" fill-opacity="0"/><use xlink:href="#am" transform="matrix(1,0,0,1,570.5364823596059,7913.49375966647) translate(0 22.677951388888864)"/><path d="M361.66 7941.5h38.7v40.1h-38.7z" stroke="#000" stroke-opacity="0" fill="#fff" fill-opacity="0"/><use xlink:href="#H" transform="matrix(1,0,0,1,372.6553349920403,7952.487329976268) translate(0 22.677951388888864)"/><path d="M400.35 7941.5h41.24v40.1h-41.25z" stroke="#000" stroke-opacity="0" fill="#fff" fill-opacity="0"/><use xlink:href="#an" transform="matrix(1,0,0,1,411.34904108897774,7952.487329976268) translate(0 22.677951388888864)"/><path d="M441.66 7941.5h38.7v40.1h-38.7z" stroke="#000" stroke-opacity="0" fill="#fff" fill-opacity="0"/><use xlink:href="#ao" transform="matrix(1,0,0,1,452.6553349920403,7952.487329976268) translate(0 22.677951388888864)"/><path d="M480.35 7941.5h41.24v40.1h-41.25z" stroke="#000" stroke-opacity="0" fill="#fff" fill-opacity="0"/><use xlink:href="#an" transform="matrix(1,0,0,1,491.34904108897774,7952.487329976268) translate(0 22.677951388888864)"/><path d="M521.66 7941.5h38.7v40.1h-38.7z" stroke="#000" stroke-opacity="0" fill="#fff" fill-opacity="0"/><use xlink:href="#ap" transform="matrix(1,0,0,1,532.6553349920403,7952.487329976268) translate(0 22.677951388888864)"/><path d="M560.35 7941.5h41.24v40.1h-41.25z" stroke="#000" stroke-opacity="0" fill="#fff" fill-opacity="0"/><use xlink:href="#aq" transform="matrix(1,0,0,1,571.3490410889777,7952.487329976268) translate(0 22.677951388888864)"/><path d="M360.88 7983.2h38.7v40.12h-38.7z" stroke="#000" stroke-opacity="0" fill="#fff" fill-opacity="0"/><use xlink:href="#I" transform="matrix(1,0,0,1,371.88121793613897,7994.212982689505) translate(0 22.677951388888864)"/><path d="M399.57 7983.2h41.24v40.12h-41.23z" stroke="#000" stroke-opacity="0" fill="#fff" fill-opacity="0"/><use xlink:href="#an" transform="matrix(1,0,0,1,410.5749240330764,7994.212982689505) translate(0 22.677951388888864)"/><path d="M440.88 7983.2h38.7v40.12h-38.7z" stroke="#000" stroke-opacity="0" fill="#fff" fill-opacity="0"/><use xlink:href="#H" transform="matrix(1,0,0,1,451.88121793613897,7994.212982689505) translate(0 22.677951388888864)"/><path d="M479.57 7983.2h41.24v40.12h-41.23z" stroke="#000" stroke-opacity="0" fill="#fff" fill-opacity="0"/><use xlink:href="#an" transform="matrix(1,0,0,1,490.5749240330764,7994.212982689505) translate(0 22.677951388888864)"/><path d="M520.88 7983.2h38.7v40.12h-38.7z" stroke="#000" stroke-opacity="0" fill="#fff" fill-opacity="0"/><use xlink:href="#ao" transform="matrix(1,0,0,1,531.8812179361389,7994.212982689505) translate(0 22.677951388888864)"/><path d="M559.57 7983.2h41.24v40.12h-41.23z" stroke="#000" stroke-opacity="0" fill="#fff" fill-opacity="0"/><use xlink:href="#aq" transform="matrix(1,0,0,1,570.5749240330764,7994.212982689505) translate(0 22.677951388888864)"/><path d="M360.88 8024.72h38.7v40.1h-38.7z" stroke="#000" stroke-opacity="0" fill="#fff" fill-opacity="0"/><use xlink:href="#I" transform="matrix(1,0,0,1,371.88121793613897,8035.718080142896) translate(0 22.677951388888864)"/><path d="M399.57 8024.72h41.24v40.1h-41.23z" stroke="#000" stroke-opacity="0" fill="#fff" fill-opacity="0"/><use xlink:href="#an" transform="matrix(1,0,0,1,410.5749240330764,8035.718080142896) translate(0 22.677951388888864)"/><path d="M440.88 8024.72h38.7v40.1h-38.7z" stroke="#000" stroke-opacity="0" fill="#fff" fill-opacity="0"/><use xlink:href="#H" transform="matrix(1,0,0,1,451.88121793613897,8035.718080142896) translate(0 22.677951388888864)"/><path d="M479.57 8024.72h41.24v40.1h-41.23z" stroke="#000" stroke-opacity="0" fill="#fff" fill-opacity="0"/><use xlink:href="#aq" transform="matrix(1,0,0,1,490.5749240330764,8035.718080142896) translate(0 22.677951388888864)"/><path d="M520.88 8024.72h38.7v40.1h-38.7z" stroke="#000" stroke-opacity="0" fill="#fff" fill-opacity="0"/><use xlink:href="#ao" transform="matrix(1,0,0,1,531.8812179361389,8035.718080142896) translate(0 22.677951388888864)"/><path d="M559.57 8024.72h41.24v40.1h-41.23z" stroke="#000" stroke-opacity="0" fill="#fff" fill-opacity="0"/><use xlink:href="#aq" transform="matrix(1,0,0,1,570.5749240330764,8035.718080142896) translate(0 22.677951388888864)"/><path d="M301.35 8062.1h59.53v41.5h-59.53z" stroke="#000" stroke-opacity="0" fill="#fff" fill-opacity="0"/><use xlink:href="#ar" transform="matrix(1,0,0,1,312.35064964430615,8073.096886309937) translate(11.987738715277786 22.677951388888864)"/><path d="M362.4 8063.5h38.68v40.1h-38.7z" stroke="#000" stroke-opacity="0" fill="#fff" fill-opacity="0"/><use xlink:href="#as" transform="matrix(1,0,0,1,373.39059064605914,8074.491095192844) translate(0 22.677951388888864)"/><path d="M401.08 8063.5h41.24v40.1h-41.24z" stroke="#000" stroke-opacity="0" fill="#fff" fill-opacity="0"/><use xlink:href="#an" transform="matrix(1,0,0,1,412.08429674299657,8074.491095192844) translate(0 22.677951388888864)"/><path d="M442.4 8063.5h38.68v40.1h-38.7z" stroke="#000" stroke-opacity="0" fill="#fff" fill-opacity="0"/><g><use xlink:href="#I" transform="matrix(1,0,0,1,453.390590646059,8074.491095192844) translate(0 22.677951388888864)"/></g><path d="M481.08 8063.5h41.24v40.1h-41.24z" stroke="#000" stroke-opacity="0" fill="#fff" fill-opacity="0"/><g><use xlink:href="#an" transform="matrix(1,0,0,1,492.0842967429965,8074.491095192844) translate(0 22.677951388888864)"/></g><path d="M522.4 8063.5h38.68v40.1h-38.7z" stroke="#000" stroke-opacity="0" fill="#fff" fill-opacity="0"/><g><use xlink:href="#H" transform="matrix(1,0,0,1,533.3905906460591,8074.491095192844) translate(0 22.677951388888864)"/></g><path d="M561.08 8063.5h41.24v40.1h-41.24z" stroke="#000" stroke-opacity="0" fill="#fff" fill-opacity="0"/><g><use xlink:href="#aq" transform="matrix(1,0,0,1,572.0842967429966,8074.491095192844) translate(0 22.677951388888864)"/></g><path d="M736.08 7323.37h240v60h-240z" stroke="#000" stroke-opacity="0" fill="#fff" fill-opacity="0"/><g><use xlink:href="#at" transform="matrix(1,0,0,1,741.0779590626674,7328.371649542696) translate(10.72916666666677 32.052951388888864)"/><use xlink:href="#au" transform="matrix(1,0,0,1,741.0779590626674,7328.371649542696) translate(55.189887152777835 32.052951388888864)"/><use xlink:href="#av" transform="matrix(1,0,0,1,741.0779590626674,7328.371649542696) translate(116.09809027777777 32.052951388888864)"/><use xlink:href="#aw" transform="matrix(1,0,0,1,741.0779590626674,7328.371649542696) translate(170.1551649305555 32.052951388888864)"/></g><path d="M287.5 7733.74H939.8v95.94H287.5z" stroke="#000" stroke-opacity="0" fill="#fff" fill-opacity="0"/><g><use xlink:href="#ax" transform="matrix(1,0,0,1,292.4943701637072,7738.7396463442565) translate(87.12934027777806 52.240451388888864)"/><use xlink:href="#ay" transform="matrix(1,0,0,1,292.4943701637072,7738.7396463442565) translate(177.57855902777794 52.240451388888864)"/><use xlink:href="#az" transform="matrix(1,0,0,1,292.4943701637072,7738.7396463442565) translate(267.9919704861112 52.240451388888864)"/><use xlink:href="#aA" transform="matrix(1,0,0,1,292.4943701637072,7738.7396463442565) translate(341.4685329861111 52.240451388888864)"/><use xlink:href="#aB" transform="matrix(1,0,0,1,292.4943701637072,7738.7396463442565) translate(379.0542534722222 52.240451388888864)"/><use xlink:href="#aC" transform="matrix(1,0,0,1,292.4943701637072,7738.7396463442565) translate(437.88563368055543 52.240451388888864)"/></g><defs><path fill="#333" d="M521 20C240 20 96-239 96-550c0-303 147-552 427-552 132 0 235 47 309 140l9-120h169V-26c4 277-183 454-459 452-165-1-334-81-400-187l96-111c79 98 176 147 291 147 180 1 288-109 286-290v-93C750-23 649 20 521 20zm48-965c-209 0-287 178-287 416 0 217 86 392 285 392 117 0 202-53 257-159v-494c-57-103-142-155-255-155" id="aD"/><path fill="#333" d="M599-131c141 0 220-65 285-146l113 88C906-50 770 20 589 20 281 21 93-214 93-545c0-223 93-397 233-485 74-48 154-72 240-72 300 2 449 218 445 537v77H278c0 197 129 357 321 357zm227-509c-3-180-88-310-260-310-170 0-264 140-282 310h542" id="aE"/><path fill="#333" d="M589-945c-131 0-219 81-264 174V0H140v-1082h175l6 136c83-104 191-156 324-156 229 0 346 129 346 387V0H806v-716c-2-153-65-229-217-229" id="aF"/><g id="a"><use transform="matrix(0.011935763888888876,0,0,0.011935763888888876,0,0)" xlink:href="#aD"/><use transform="matrix(0.011935763888888876,0,0,0.011935763888888876,13.714192708333318,0)" xlink:href="#aE"/><use transform="matrix(0.011935763888888876,0,0,0.011935763888888876,26.66449652777775,0)" xlink:href="#aF"/></g><path fill="#333" d="M902-489h202v151H902V0H716v-338H53v-109l652-1009h197v967zm-639 0h453v-714l-22 40" id="aG"/><use transform="matrix(0.009765624999999984,0,0,0.009765624999999984,0,0)" xlink:href="#aG" id="b"/><path fill="#333" d="M884-462c0-185-111-323-291-323-113 0-183 39-239 93l-148-38 74-726h746v171H437l-44 397c71-42 152-63 243-63 273-2 433 205 433 487 0 293-170 484-461 484-260 0-436-159-454-403h175c20 156 111 252 279 252 182 0 276-140 276-331" id="aH"/><use transform="matrix(0.009765624999999984,0,0,0.009765624999999984,0,0)" xlink:href="#aH" id="c"/><path fill="#333" d="M132-554c0-555 187-908 715-903v157c-320-8-501 179-526 477 77-88 181-132 314-132 259 0 417 214 417 480 0 286-172 495-451 495-293 0-469-266-469-574zm737 88c0-181-95-335-265-335-133 0-252 96-286 200v68c-6 207 101 397 283 400 175 3 268-150 268-333" id="aI"/><use transform="matrix(0.009765624999999984,0,0,0.009765624999999984,0,0)" xlink:href="#aI" id="d"/><path fill="#333" d="M1061-1352L458 0H264l601-1304H77v-152h984v104" id="aJ"/><use transform="matrix(0.009765624999999984,0,0,0.009765624999999984,0,0)" xlink:href="#aJ" id="e"/><path fill="#333" d="M729 0H543v-1233l-373 137v-168l530-199h29V0" id="aK"/><use transform="matrix(0.009765624999999984,0,0,0.009765624999999984,0,0)" xlink:href="#aK" id="f"/><path fill="#333" d="M569-1476c255 0 440 146 439 390 0 143-91 314-274 512L344-151h731V0H121v-133l504-560c75-85 125-155 155-207 105-184 6-424-211-424-183 0-293 113-291 297H93c-3-270 199-449 476-449" id="aL"/><use transform="matrix(0.009765624999999984,0,0,0.009765624999999984,0,0)" xlink:href="#aL" id="g"/><path fill="#333" d="M832-402c-1-179-119-264-303-265H390v-151h139c164 0 281-91 281-250 0-171-85-256-255-256-154 0-265 99-263 250H107c-4-235 205-402 448-402 266 0 444 150 440 412-2 148-109 272-229 317 147 45 249 158 251 341 3 262-197 426-461 426C299 20 91-135 94-384h186c-2 156 116 253 276 253 176 0 277-96 276-271" id="aM"/><use transform="matrix(0.009765624999999984,0,0,0.009765624999999984,0,0)" xlink:href="#aM" id="h"/><path fill="#333" d="M973-380H363L226 0H28l556-1456h168L1309 0h-197zM421-538h495l-248-681" id="aN"/><use transform="matrix(0.011935763888888876,0,0,0.011935763888888876,0,0)" xlink:href="#aN" id="i"/><path fill="#333" d="M688-137c238 0 323-102 359-325h193c-32 297-228 482-552 482-361 0-569-299-569-680 0-197 8-360 73-497 88-186 257-317 513-319 316-2 509 195 535 488h-193c-31-212-118-330-342-330-272 0-397 224-393 523v141c-3 282 115 517 376 517" id="aO"/><use transform="matrix(0.011935763888888876,0,0,0.011935763888888876,0,0)" xlink:href="#aO" id="j"/><path fill="#333" d="M1160-420C1159-145 963 0 674 0H169v-1456h476c294-1 476 112 476 388 0 153-99 253-216 302 146 38 255 167 255 346zM678-157c171 2 289-95 289-261 0-175-95-263-286-263H361v524h317zm250-912c-2-172-104-229-283-229H361v463h290c157 3 278-84 277-234" id="aP"/><use transform="matrix(0.011935763888888876,0,0,0.011935763888888876,0,0)" xlink:href="#aP" id="k"/><path fill="#333" d="M1222-777c17 480-206 763-650 777H169v-1456h411c408 9 627 269 642 679zm-190 4c3-312-149-522-447-525H361v1141h202c308 0 473-209 469-531v-85" id="aQ"/><use transform="matrix(0.011935763888888876,0,0,0.011935763888888876,0,0)" xlink:href="#aQ" id="l"/><path fill="#333" d="M992-673H361v516h733V0H169v-1456h915v158H361v468h631v157" id="aR"/><use transform="matrix(0.011935763888888876,0,0,0.011935763888888876,0,0)" xlink:href="#aR" id="m"/><path fill="#333" d="M730-137c145 0 253-29 323-105v-327H716v-156h528v534C1148-51 964 20 729 20c-394 0-598-279-607-678v-127c-5-410 194-690 585-691 310-1 499 171 537 447h-192c-36-193-151-289-344-289-285 0-393 220-393 528v119c-5 296 140 534 415 534" id="aS"/><use transform="matrix(0.011935763888888876,0,0,0.011935763888888876,0,0)" xlink:href="#aS" id="n"/><path fill="#333" d="M1288 0h-193v-673H361V0H169v-1456h192v626h734v-626h193V0" id="aT"/><use transform="matrix(0.011935763888888876,0,0,0.011935763888888876,0,0)" xlink:href="#aT" id="o"/><path fill="#333" d="M972-643H361V0H169v-1456h902v158H361v498h611v157" id="aU"/><use transform="matrix(0.011935763888888876,0,0,0.011935763888888876,0,0)" xlink:href="#aU" id="p"/><path fill="#333" d="M512-137c164 0 267-115 267-285v-1034h193v1031c4 276-186 445-460 445C234 20 52-130 53-402h192c0 167 97 265 267 265" id="aV"/><use transform="matrix(0.011935763888888876,0,0,0.011935763888888876,0,0)" xlink:href="#aV" id="q"/><path fill="#333" d="M456 20C285 20 205-92 206-268v-671H9v-143h197v-262h185v262h202v143H391v671c-9 125 92 149 207 118V0c-49 13-96 20-142 20" id="aW"/><path fill="#333" d="M503-687l240-395h216L605-547 970 0H756L506-405 256 0H41l365-547-354-535h214" id="aX"/><g id="r"><use transform="matrix(0.011935763888888876,0,0,0.011935763888888876,0,0)" xlink:href="#aW"/><use transform="matrix(0.011935763888888876,0,0,0.011935763888888876,7.985026041666658,0)" xlink:href="#aX"/><use transform="matrix(0.011935763888888876,0,0,0.011935763888888876,19.86111111111109,0)" xlink:href="#aD"/></g><path fill="#333" d="M575-1476c247 0 432 154 429 400-2 161-97 271-213 327 135 56 245 179 247 356 3 257-200 413-463 413-265 0-466-156-463-413 2-176 108-302 243-357-115-56-207-166-209-326-4-246 181-400 429-400zm0 1345c168 0 278-101 278-266 0-161-118-276-280-276-163 0-276 113-276 276 0 167 108 266 278 266zm244-942c0-143-104-251-244-251-146 0-244 102-244 251 0 145 98 248 244 248s244-103 244-248" id="aY"/><use transform="matrix(0.009765624999999984,0,0,0.009765624999999984,0,0)" xlink:href="#aY" id="s"/><path fill="#333" d="M1016-874C1016-303 841 2 305 1v-156c342 4 512-148 525-485-69 82-173 153-315 153-275 0-415-209-415-485 0-296 155-504 451-504 312 0 465 266 465 602zM282-982c0 180 93 342 263 342 134 0 246-99 286-198v-74c5-208-96-410-279-410-174 0-270 155-270 340" id="aZ"/><use transform="matrix(0.009765624999999984,0,0,0.009765624999999984,0,0)" xlink:href="#aZ" id="t"/><path fill="#333" d="M574-1476c351 0 454 237 460 615v240c0 217-37 378-111 483S733 20 576 20c-346 0-454-246-461-616v-247c0-214 37-373 111-477s190-156 348-156zm275 905c0-337 59-752-275-753-95 0-160 38-207 107-80 118-66 409-67 625 0 157 22 273 68 348s115 113 208 113c91 0 160-35 204-106s69-182 69-334" id="ba"/><g id="u"><use transform="matrix(0.009765624999999984,0,0,0.009765624999999984,0,0)" xlink:href="#aK"/><use transform="matrix(0.009765624999999984,0,0,0.009765624999999984,11.230468749999982,0)" xlink:href="#ba"/></g><g id="v"><use transform="matrix(0.009765624999999984,0,0,0.009765624999999984,0,0)" xlink:href="#aK"/><use transform="matrix(0.009765624999999984,0,0,0.009765624999999984,11.230468749999982,0)" xlink:href="#aK"/></g><g id="w"><use transform="matrix(0.009765624999999984,0,0,0.009765624999999984,0,0)" xlink:href="#aK"/><use transform="matrix(0.009765624999999984,0,0,0.009765624999999984,11.230468749999982,0)" xlink:href="#aL"/></g><g id="x"><use transform="matrix(0.009765624999999984,0,0,0.009765624999999984,0,0)" xlink:href="#aK"/><use transform="matrix(0.009765624999999984,0,0,0.009765624999999984,11.230468749999982,0)" xlink:href="#aM"/></g><path fill="#333" d="M457-330c2 83 25 111 111 112 32 0 60-2 85-7V-6c-57 17-115 26-175 26-203 0-310-102-310-307v-583H10v-212h158v-266h289v266h185v212H457v540" id="bb"/><path fill="#333" d="M523-759l182-323h309L706-552 1027 0H717L524-340 332 0H21l321-552-307-530h310" id="bc"/><path fill="#333" d="M505 20C221 18 69-239 69-549c0-302 153-553 438-553 119 0 211 41 277 122l12-102h262V-36c-8 305-208 458-520 462-160 1-335-76-403-170L263 80c72 81 159 121 262 121 172 1 260-107 243-294C701-18 614 20 505 20zm76-887c-165 0-223 147-223 339 0 172 66 314 221 314 88 0 151-33 189-99v-455c-39-66-101-99-187-99" id="bd"/><path fill="#333" d="M547 20C279 20 69-136 71-392c0-67 19-130 57-187s106-121 207-191c-69-100-136-179-139-323-5-228 163-383 397-383 204 0 372 143 372 339 0 116-59 218-176 307l-112 81 251 292c39-77 59-163 59-256h246c0 189-44 343-131 460L1320 0H992l-75-86C810-15 686 20 547 20zM361-408c0 115 85 196 200 196 69 0 135-19 197-58L471-602c-66 44-110 119-110 194zm231-835c-83 0-139 61-137 146 0 50 29 113 88 189 75-58 181-88 181-211 0-68-60-124-132-124" id="be"/><path fill="#333" d="M566-213c130 0 220-75 220-199 0-145-80-218-240-218H393v-226h154c138 3 214-73 216-201 1-118-78-186-197-186-103 0-197 64-195 164H82c11-259 212-391 477-397 286-6 493 142 493 415 0 151-107 263-221 313 147 51 242 159 244 340 3 272-230 428-516 428C289 20 61-138 64-399h289c-3 111 100 186 213 186" id="bf"/><g id="y"><use transform="matrix(0.011935763888888876,0,0,0.011935763888888876,0,0)" xlink:href="#bb"/><use transform="matrix(0.011935763888888876,0,0,0.011935763888888876,8.259548611111102,0)" xlink:href="#bc"/><use transform="matrix(0.011935763888888876,0,0,0.011935763888888876,20.457899305555536,0)" xlink:href="#bd"/><use transform="matrix(0.011935763888888876,0,0,0.011935763888888876,34.41080729166663,0)" xlink:href="#be"/><use transform="matrix(0.011935763888888876,0,0,0.011935763888888876,50.45247395833328,0)" xlink:href="#bf"/></g><g id="z"><use transform="matrix(0.011935763888888876,0,0,0.011935763888888876,0,0)" xlink:href="#bb"/><use transform="matrix(0.011935763888888876,0,0,0.011935763888888876,8.259548611111102,0)" xlink:href="#bc"/><use transform="matrix(0.011935763888888876,0,0,0.011935763888888876,20.457899305555536,0)" xlink:href="#bd"/></g><path fill="#333" d="M355-556c-2 203 30 338 206 343 102 3 181-63 182-161h271C1001-128 821 17 566 20 242 24 66-212 66-554c0-320 184-548 498-548 262 0 451 167 450 423H743c-1-108-75-193-184-189-162 6-202 123-204 312" id="bg"/><path fill="#333" d="M579 20C257 20 58-214 66-551c8-331 182-551 511-551 324 0 514 231 514 572 0 319-198 550-512 550zm-2-888c-169 0-222 141-222 338 0 181 61 317 224 317 170 0 223-137 223-338 0-178-64-317-225-317" id="bh"/><path fill="#333" d="M463 20c-241-1-359-147-359-393v-709h289v699c0 113 51 169 154 169 98 0 165-34 202-102v-766h290V0H767l-8-110C688-23 589 20 463 20" id="bi"/><path fill="#333" d="M750-692c-1-124-48-174-173-175-81 0-142 35-183 104V0H105v-1082h272l9 125c77-97 181-145 311-145 244 0 342 151 342 403V0H750v-692" id="bj"/><g id="A"><use transform="matrix(0.011935763888888876,0,0,0.011935763888888876,0,0)" xlink:href="#bg"/><use transform="matrix(0.011935763888888876,0,0,0.011935763888888876,12.74739583333332,0)" xlink:href="#bh"/><use transform="matrix(0.011935763888888876,0,0,0.011935763888888876,26.56901041666664,0)" xlink:href="#bi"/><use transform="matrix(0.011935763888888876,0,0,0.011935763888888876,40.247395833333286,0)" xlink:href="#bj"/><use transform="matrix(0.011935763888888876,0,0,0.011935763888888876,53.93771701388883,0)" xlink:href="#bb"/></g><path fill="#333" d="M586-1476c342 0 491 246 493 606v268c2 370-143 622-491 622C246 20 97-227 95-587v-268c-2-372 145-621 491-621zm204 926c0-199 18-488-50-610-58-105-243-107-304-4-71 121-52 402-52 600 0 119 19 205 48 264 54 112 254 115 309 4 28-57 49-140 49-254" id="bk"/><use transform="matrix(0.011935763888888876,0,0,0.011935763888888876,0,0)" xlink:href="#bk" id="B"/><path fill="#333" d="M801 0H512v-1114l-345 107v-235l603-216h31V0" id="bl"/><use transform="matrix(0.011935763888888876,0,0,0.011935763888888876,0,0)" xlink:href="#bl" id="C"/><path fill="#333" d="M576-1476c284-5 474 140 474 413 0 72-17 146-56 220-110 211-361 428-523 610h626V0H99v-198l471-502c65-71 110-134 144-185 92-140 43-358-143-358-134 0-213 107-211 245H70c11-295 206-473 506-478" id="bm"/><use transform="matrix(0.011935763888888876,0,0,0.011935763888888876,0,0)" xlink:href="#bm" id="D"/><use transform="matrix(0.011935763888888876,0,0,0.011935763888888876,0,0)" xlink:href="#bf" id="E"/><path fill="#333" d="M324 270H175v-1726h149V270" id="bn"/><g id="F"><use transform="matrix(0.011935763888888876,0,0,0.011935763888888876,0,0)" xlink:href="#aG"/><use transform="matrix(0.011935763888888876,0,0,0.011935763888888876,13.726128472222207,0)" xlink:href="#bn"/><use transform="matrix(0.011935763888888876,0,0,0.011935763888888876,19.682074652777757,0)" xlink:href="#aY"/></g><g id="G"><use transform="matrix(0.011935763888888876,0,0,0.011935763888888876,0,0)" xlink:href="#aH"/><use transform="matrix(0.011935763888888876,0,0,0.011935763888888876,13.726128472222207,0)" xlink:href="#bn"/><use transform="matrix(0.011935763888888876,0,0,0.011935763888888876,19.682074652777757,0)" xlink:href="#aK"/><use transform="matrix(0.011935763888888876,0,0,0.011935763888888876,33.408203124999964,0)" xlink:href="#aM"/></g><use transform="matrix(0.011935763888888876,0,0,0.011935763888888876,0,0)" xlink:href="#aI" id="H"/><use transform="matrix(0.011935763888888876,0,0,0.011935763888888876,0,0)" xlink:href="#aJ" id="I"/><path fill="#333" d="M134 290L29 218c97-132 105-239 98-437h181c1 144 5 239-50 347-34 67-74 121-124 162" id="bo"/><g id="J"><use transform="matrix(0.011935763888888876,0,0,0.011935763888888876,0,0)" xlink:href="#aN"/><use transform="matrix(0.011935763888888876,0,0,0.011935763888888876,15.946180555555538,0)" xlink:href="#bo"/><use transform="matrix(0.011935763888888876,0,0,0.011935763888888876,20.744357638888864,0)" xlink:href="#aO"/></g><use transform="matrix(0.011935763888888876,0,0,0.011935763888888876,0,0)" xlink:href="#bn" id="K"/><use transform="matrix(0.011935763888888876,0,0,0.011935763888888876,0,0)" xlink:href="#aT" id="L"/><g id="M"><use transform="matrix(0.011935763888888876,0,0,0.011935763888888876,0,0)" xlink:href="#aP"/><use transform="matrix(0.011935763888888876,0,0,0.011935763888888876,15.218098958333316,0)" xlink:href="#bo"/><use transform="matrix(0.011935763888888876,0,0,0.011935763888888876,20.016276041666643,0)" xlink:href="#aR"/></g><use transform="matrix(0.011935763888888876,0,0,0.011935763888888876,0,0)" xlink:href="#aV" id="N"/><g id="O"><use transform="matrix(0.011935763888888876,0,0,0.011935763888888876,0,0)" xlink:href="#aQ"/><use transform="matrix(0.011935763888888876,0,0,0.011935763888888876,14.812282986111095,0)" xlink:href="#bo"/><use transform="matrix(0.011935763888888876,0,0,0.011935763888888876,19.61046006944442,0)" xlink:href="#aS"/></g><path fill="#333" d="M1031-175C952-60 797 20 609 20 287 20 60-206 72-543c12-330 180-559 505-559 309 0 482 214 477 537v118H365c15 134 115 234 263 234 111 0 198-40 261-121zM770-644c5-139-62-226-194-224-130 1-191 97-208 224h402" id="bp"/><g id="P"><use transform="matrix(0.011935763888888876,0,0,0.011935763888888876,0,0)" xlink:href="#bd"/><use transform="matrix(0.011935763888888876,0,0,0.011935763888888876,13.952907986111097,0)" xlink:href="#bp"/><use transform="matrix(0.011935763888888876,0,0,0.011935763888888876,27.165798611111082,0)" xlink:href="#bj"/><use transform="matrix(0.011935763888888876,0,0,0.011935763888888876,40.85611979166662,0)" xlink:href="#bp"/></g><path fill="#333" d="M719-811c-143-24-279 1-319 103V0H111v-1082h273l8 129c74-124 180-175 331-136" id="bq"/><path fill="#333" d="M552-1102c254-4 435 134 435 383v469c1 103 15 180 43 233V0H738c-13-26-23-58-29-97C639-19 548 20 436 20 238 20 64-113 68-304c5-258 212-357 496-357h133c11-137-29-227-160-227-90 0-156 45-156 131H92c15-231 213-342 460-345zM357-325c0 76 61 124 142 124 88 0 168-45 198-105v-186H589c-152 2-232 51-232 167" id="br"/><path fill="#333" d="M416 0H126v-1082h290V0zM271-1212c-92 0-162-61-162-150s68-149 162-149c93 0 162 60 162 149s-70 150-162 150" id="bs"/><g id="Q"><use transform="matrix(0.011935763888888876,0,0,0.011935763888888876,0,0)" xlink:href="#bq"/><use transform="matrix(0.011935763888888876,0,0,0.011935763888888876,8.557942708333325,0)" xlink:href="#br"/><use transform="matrix(0.011935763888888876,0,0,0.011935763888888876,21.66341145833331,0)" xlink:href="#bb"/><use transform="matrix(0.011935763888888876,0,0,0.011935763888888876,29.92296006944441,0)" xlink:href="#bs"/><use transform="matrix(0.011935763888888876,0,0,0.011935763888888876,36.40407986111107,0)" xlink:href="#bh"/><use transform="matrix(0.011935763888888876,0,0,0.011935763888888876,50.22569444444439,0)" xlink:href="#bj"/></g><path fill="#333" d="M369-598c0 393 97 738 310 900l-56 153c-200-92-361-334-433-572-84-277-87-628-5-911 71-244 234-495 438-588l56 156c-205 153-310 488-310 862" id="bt"/><path fill="#333" d="M430-241h637V0H130v-1456h300v1215" id="bu"/><path fill="#333" d="M1226-1213H780V0H480v-1213H40v-243h1186v243" id="bv"/><g id="R"><use transform="matrix(0.011935763888888876,0,0,0.011935763888888876,0,0)" xlink:href="#bt"/><use transform="matrix(0.011935763888888876,0,0,0.011935763888888876,8.581814236111102,0)" xlink:href="#bu"/><use transform="matrix(0.011935763888888876,0,0,0.011935763888888876,19.371744791666643,0)" xlink:href="#bv"/><use transform="matrix(0.008355034722222213,0,0,0.008355034722222213,34.49435763888885,3.9686414930555514)" xlink:href="#bs"/></g><path fill="#333" d="M186 365L35 286C86 203 140 81 140-22v-224h244c-2 173 10 296-57 424-39 74-84 138-141 187" id="bw"/><use transform="matrix(0.011935763888888876,0,0,0.011935763888888876,0,0)" xlink:href="#bw" id="S"/><path fill="#333" d="M687-225c189-1 272-84 286-260h300c-19 311-251 505-586 505C296 20 86-277 86-686c0-466 174-782 605-790 340-6 557 198 584 514H975c-15-183-92-268-284-268-100 0-173 38-225 108-63 84-76 264-76 443 0 157 24 272 72 345s122 109 225 109" id="bx"/><g id="T"><use transform="matrix(0.011935763888888876,0,0,0.011935763888888876,0,0)" xlink:href="#bu"/><use transform="matrix(0.011935763888888876,0,0,0.011935763888888876,12.472873263888875,0)" xlink:href="#bx"/><use transform="matrix(0.008355034722222213,0,0,0.008355034722222213,28.466796874999968,3.9686414930555514)" xlink:href="#bs"/></g><path fill="#333" d="M349-541c6-400-96-755-309-922l56-153c203 91 368 336 444 575 89 280 91 621 4 907-74 244-242 497-448 589L40 302c199-150 304-484 309-843" id="by"/><use transform="matrix(0.011935763888888876,0,0,0.011935763888888876,0,0)" xlink:href="#by" id="U"/><path fill="#333" d="M1030-746H136v-236h894v236zm0 433H136v-236h894v236" id="bz"/><g id="V"><use transform="matrix(0.011935763888888876,0,0,0.011935763888888876,0,0)" xlink:href="#bs"/><use transform="matrix(0.011935763888888876,0,0,0.011935763888888876,6.48111979166666,0)" xlink:href="#bz"/><use transform="matrix(0.011935763888888876,0,0,0.011935763888888876,20.46983506944442,0)" xlink:href="#bk"/></g><g id="W"><use transform="matrix(0.011935763888888876,0,0,0.011935763888888876,0,0)" xlink:href="#bs"/><use transform="matrix(0.011935763888888876,0,0,0.011935763888888876,6.48111979166666,0)" xlink:href="#bz"/><use transform="matrix(0.011935763888888876,0,0,0.011935763888888876,20.46983506944442,0)" xlink:href="#bl"/></g><g id="X"><use transform="matrix(0.011935763888888876,0,0,0.011935763888888876,0,0)" xlink:href="#bs"/><use transform="matrix(0.011935763888888876,0,0,0.011935763888888876,6.48111979166666,0)" xlink:href="#bz"/><use transform="matrix(0.011935763888888876,0,0,0.011935763888888876,20.46983506944442,0)" xlink:href="#bm"/></g><path fill="#5e5e5e" d="M457-330c2 83 25 111 111 112 32 0 60-2 85-7V-6c-57 17-115 26-175 26-203 0-310-102-310-307v-583H10v-212h158v-266h289v266h185v212H457v540" id="bA"/><path fill="#5e5e5e" d="M523-759l182-323h309L706-552 1027 0H717L524-340 332 0H21l321-552-307-530h310" id="bB"/><path fill="#5e5e5e" d="M505 20C221 18 69-239 69-549c0-302 153-553 438-553 119 0 211 41 277 122l12-102h262V-36c-8 305-208 458-520 462-160 1-335-76-403-170L263 80c72 81 159 121 262 121 172 1 260-107 243-294C701-18 614 20 505 20zm76-887c-165 0-223 147-223 339 0 172 66 314 221 314 88 0 151-33 189-99v-455c-39-66-101-99-187-99" id="bC"/><g id="Y"><use transform="matrix(0.009765624999999986,0,0,0.009765624999999986,0,0)" xlink:href="#bA"/><use transform="matrix(0.009765624999999986,0,0,0.009765624999999986,6.75781249999999,0)" xlink:href="#bB"/><use transform="matrix(0.009765624999999986,0,0,0.009765624999999986,16.738281249999975,0)" xlink:href="#bC"/></g><path fill="#5e5e5e" d="M355-556c-2 203 30 338 206 343 102 3 181-63 182-161h271C1001-128 821 17 566 20 242 24 66-212 66-554c0-320 184-548 498-548 262 0 451 167 450 423H743c-1-108-75-193-184-189-162 6-202 123-204 312" id="bD"/><path fill="#5e5e5e" d="M579 20C257 20 58-214 66-551c8-331 182-551 511-551 324 0 514 231 514 572 0 319-198 550-512 550zm-2-888c-169 0-222 141-222 338 0 181 61 317 224 317 170 0 223-137 223-338 0-178-64-317-225-317" id="bE"/><path fill="#5e5e5e" d="M463 20c-241-1-359-147-359-393v-709h289v699c0 113 51 169 154 169 98 0 165-34 202-102v-766h290V0H767l-8-110C688-23 589 20 463 20" id="bF"/><path fill="#5e5e5e" d="M750-692c-1-124-48-174-173-175-81 0-142 35-183 104V0H105v-1082h272l9 125c77-97 181-145 311-145 244 0 342 151 342 403V0H750v-692" id="bG"/><g id="Z"><use transform="matrix(0.009765624999999986,0,0,0.009765624999999986,0,0)" xlink:href="#bD"/><use transform="matrix(0.009765624999999986,0,0,0.009765624999999986,10.429687499999986,0)" xlink:href="#bE"/><use transform="matrix(0.009765624999999986,0,0,0.009765624999999986,21.738281249999975,0)" xlink:href="#bF"/><use transform="matrix(0.009765624999999986,0,0,0.009765624999999986,32.92968749999996,0)" xlink:href="#bG"/><use transform="matrix(0.009765624999999986,0,0,0.009765624999999986,44.13085937499994,0)" xlink:href="#bA"/></g><path fill="#5e5e5e" d="M132-554c0-555 187-908 715-903v157c-320-8-501 179-526 477 77-88 181-132 314-132 259 0 417 214 417 480 0 286-172 495-451 495-293 0-469-266-469-574zm737 88c0-181-95-335-265-335-133 0-252 96-286 200v68c-6 207 101 397 283 400 175 3 268-150 268-333" id="bH"/><use transform="matrix(0.009765624999999986,0,0,0.009765624999999986,0,0)" xlink:href="#bH" id="aa"/><path fill="#5e5e5e" d="M884-462c0-185-111-323-291-323-113 0-183 39-239 93l-148-38 74-726h746v171H437l-44 397c71-42 152-63 243-63 273-2 433 205 433 487 0 293-170 484-461 484-260 0-436-159-454-403h175c20 156 111 252 279 252 182 0 276-140 276-331" id="bI"/><use transform="matrix(0.009765624999999986,0,0,0.009765624999999986,0,0)" xlink:href="#bI" id="ab"/><path fill="#5e5e5e" d="M902-489h202v151H902V0H716v-338H53v-109l652-1009h197v967zm-639 0h453v-714l-22 40" id="bJ"/><use transform="matrix(0.009765624999999986,0,0,0.009765624999999986,0,0)" xlink:href="#bJ" id="ac"/><path fill="#5e5e5e" d="M729 0H543v-1233l-373 137v-168l530-199h29V0" id="bK"/><use transform="matrix(0.009765624999999986,0,0,0.009765624999999986,0,0)" xlink:href="#bK" id="ad"/><path fill="#5e5e5e" d="M569-1476c255 0 440 146 439 390 0 143-91 314-274 512L344-151h731V0H121v-133l504-560c75-85 125-155 155-207 105-184 6-424-211-424-183 0-293 113-291 297H93c-3-270 199-449 476-449" id="bL"/><use transform="matrix(0.009765624999999986,0,0,0.009765624999999986,0,0)" xlink:href="#bL" id="ae"/><path fill="#5e5e5e" d="M599-131c141 0 220-65 285-146l113 88C906-50 770 20 589 20 281 21 93-214 93-545c0-223 93-397 233-485 74-48 154-72 240-72 300 2 449 218 445 537v77H278c0 197 129 357 321 357zm227-509c-3-180-88-310-260-310-170 0-264 140-282 310h542" id="bM"/><path fill="#5e5e5e" d="M561-1102c238-4 403 126 403 351v498c0 99 13 178 38 237V0H808c-11-21-19-59-26-114C696-25 593 20 474 20c-199 0-368-130-365-320 4-251 214-359 490-356h180v-85c-1-135-86-212-229-212-115 0-232 67-233 171H131c20-205 206-316 430-320zM294-326c0 117 90 185 207 185 122 0 239-75 278-162v-222H634c-227 0-340 66-340 199" id="bN"/><path fill="#5e5e5e" d="M277-555c0 244 77 420 297 424 127 2 249-93 255-210h175C980-127 805 20 574 20 258 20 81-222 92-562c11-319 164-533 481-540 237-5 426 165 431 392H829c-7-133-115-242-256-240-209 4-296 166-296 395" id="bO"/><path fill="#5e5e5e" d="M589-945c-131 0-219 81-264 174V0H140v-1536h185v585c82-101 189-151 320-151 229 0 346 129 346 387V0H806v-716c-2-153-65-229-217-229" id="bP"/><g id="af"><use transform="matrix(0.009765624999999984,0,0,0.009765624999999984,0,0)" xlink:href="#bM"/><use transform="matrix(0.009765624999999984,0,0,0.009765624999999984,10.595703124999982,0)" xlink:href="#bN"/><use transform="matrix(0.009765624999999984,0,0,0.009765624999999984,21.474609374999964,0)" xlink:href="#bO"/><use transform="matrix(0.009765624999999984,0,0,0.009765624999999984,31.94335937499995,0)" xlink:href="#bP"/></g><path fill="#5e5e5e" d="M663-916c-163-27-288 18-338 148V0H140v-1082h180l3 125c61-97 147-145 258-145 36 0 63 5 82 14v172" id="bQ"/><path fill="#5e5e5e" d="M584 20C278 26 81-227 91-551c10-320 175-545 491-551 308-5 503 247 494 573-9 322-175 543-492 549zm-2-970c-208 0-305 185-305 421 0 216 106 398 307 398 211 0 307-186 307-420 0-214-109-399-309-399" id="bR"/><path fill="#5e5e5e" d="M1098-255l208-827h185L1176 0h-150L763-820 507 0H357L43-1082h184l213 810 252-810h149" id="bS"/><g id="ag"><use transform="matrix(0.009765624999999984,0,0,0.009765624999999984,0,0)" xlink:href="#bQ"/><use transform="matrix(0.009765624999999984,0,0,0.009765624999999984,6.572265624999989,0)" xlink:href="#bR"/><use transform="matrix(0.009765624999999984,0,0,0.009765624999999984,17.97851562499997,0)" xlink:href="#bS"/></g><path fill="#5e5e5e" d="M632-1102c291 0 422 251 422 573 0 297-141 548-419 549-131 0-235-42-310-125v521H140v-1498h169l9 120c75-93 180-140 314-140zm-53 971c207 0 290-180 290-419 0-218-92-395-292-395-112 0-196 50-252 149v517c55 99 140 148 254 148" id="bT"/><path fill="#5e5e5e" d="M538-131c121 0 232-49 232-156 0-50-20-88-56-117-73-60-334-92-420-143-92-55-162-110-162-238 0-190 192-317 400-317 223 0 414 129 413 338H759c0-108-110-186-227-186-119 0-215 53-215 159 0 45 18 78 53 101 76 52 331 90 416 139 98 57 169 115 169 251C955-92 760 20 538 20c-176 0-314-68-386-174-38-55-57-115-57-179h185c6 129 116 202 258 202" id="bU"/><path fill="#5e5e5e" d="M589-945c-131 0-219 81-264 174V0H140v-1082h175l6 136c83-104 191-156 324-156 229 0 346 129 346 387V0H806v-716c-2-153-65-229-217-229" id="bV"/><path fill="#5e5e5e" d="M456 20C285 20 205-92 206-268v-671H9v-143h197v-262h185v262h202v143H391v671c-9 125 92 149 207 118V0c-49 13-96 20-142 20" id="bW"/><g id="ah"><use transform="matrix(0.009765624999999984,0,0,0.009765624999999984,0,0)" xlink:href="#bQ"/><use transform="matrix(0.009765624999999984,0,0,0.009765624999999984,6.582031249999989,0)" xlink:href="#bM"/><use transform="matrix(0.009765624999999984,0,0,0.009765624999999984,17.17773437499997,0)" xlink:href="#bT"/><use transform="matrix(0.009765624999999984,0,0,0.009765624999999984,28.398437499999954,0)" xlink:href="#bQ"/><use transform="matrix(0.009765624999999984,0,0,0.009765624999999984,34.98046874999994,0)" xlink:href="#bM"/><use transform="matrix(0.009765624999999984,0,0,0.009765624999999984,45.57617187499993,0)" xlink:href="#bU"/><use transform="matrix(0.009765624999999984,0,0,0.009765624999999984,55.88867187499991,0)" xlink:href="#bM"/><use transform="matrix(0.009765624999999984,0,0,0.009765624999999984,66.4843749999999,0)" xlink:href="#bV"/><use transform="matrix(0.009765624999999984,0,0,0.009765624999999984,77.51953124999989,0)" xlink:href="#bW"/><use transform="matrix(0.009765624999999984,0,0,0.009765624999999984,84.05273437499987,0)" xlink:href="#bU"/></g><g id="ai"><use transform="matrix(0.009765624999999984,0,0,0.009765624999999984,0,0)" xlink:href="#bR"/><use transform="matrix(0.009765624999999984,0,0,0.009765624999999984,11.406249999999982,0)" xlink:href="#bV"/><use transform="matrix(0.009765624999999984,0,0,0.009765624999999984,22.441406249999964,0)" xlink:href="#bM"/></g><path fill="#5e5e5e" d="M491 20c-241-1-355-148-355-398v-704h185v699c0 164 67 246 200 246 141 0 235-53 282-158v-787h185V0H812l-4-107C736-22 630 20 491 20" id="bX"/><g id="aj"><use transform="matrix(0.009765624999999984,0,0,0.009765624999999984,0,0)" xlink:href="#bO"/><use transform="matrix(0.009765624999999984,0,0,0.009765624999999984,10.468749999999984,0)" xlink:href="#bR"/><use transform="matrix(0.009765624999999984,0,0,0.009765624999999984,21.874999999999964,0)" xlink:href="#bX"/><use transform="matrix(0.009765624999999984,0,0,0.009765624999999984,32.90039062499994,0)" xlink:href="#bV"/><use transform="matrix(0.009765624999999984,0,0,0.009765624999999984,43.93554687499993,0)" xlink:href="#bW"/><use transform="matrix(0.009765624999999984,0,0,0.009765624999999984,50.46874999999991,0)" xlink:href="#bM"/><use transform="matrix(0.009765624999999984,0,0,0.009765624999999984,61.0644531249999,0)" xlink:href="#bQ"/></g><path fill="#5e5e5e" d="M634-1102c292 0 422 254 422 573 0 298-143 547-420 549-137 0-242-48-317-145L310 0H140v-1536h185v573c75-93 178-139 309-139zm-44 965c207 0 281-175 281-413 0-224-79-395-283-395-122 0-210 57-263 170v468c57 113 145 170 265 170" id="bY"/><path fill="#5e5e5e" d="M341 0H156v-1536h185V0" id="bZ"/><g id="ak"><use transform="matrix(0.009765624999999984,0,0,0.009765624999999984,0,0)" xlink:href="#bW"/><use transform="matrix(0.009765624999999984,0,0,0.009765624999999984,6.533203124999989,0)" xlink:href="#bN"/><use transform="matrix(0.009765624999999984,0,0,0.009765624999999984,17.41210937499997,0)" xlink:href="#bY"/><use transform="matrix(0.009765624999999984,0,0,0.009765624999999984,28.632812499999954,0)" xlink:href="#bZ"/><use transform="matrix(0.009765624999999984,0,0,0.009765624999999984,33.48632812499994,0)" xlink:href="#bM"/></g><path fill="#333" d="M954-548h165v233H954V0H665v-315H68L55-497l607-959h292v908zm-611 0h322v-514C560-888 450-720 343-548" id="ca"/><use transform="matrix(0.011935763888888876,0,0,0.011935763888888876,0,0)" xlink:href="#ca" id="al"/><use transform="matrix(0.011935763888888876,0,0,0.011935763888888876,0,0)" xlink:href="#ba" id="am"/><use transform="matrix(0.011935763888888876,0,0,0.011935763888888876,0,0)" xlink:href="#aK" id="an"/><use transform="matrix(0.011935763888888876,0,0,0.011935763888888876,0,0)" xlink:href="#aH" id="ao"/><use transform="matrix(0.011935763888888876,0,0,0.011935763888888876,0,0)" xlink:href="#aG" id="ap"/><use transform="matrix(0.011935763888888876,0,0,0.011935763888888876,0,0)" xlink:href="#aL" id="aq"/><path fill="#333" d="M801-483c0-159-80-256-234-256-85 0-151 32-195 80l-230-57 84-740h816v241H463l-36 313c69-37 142-55 219-55 285-1 450 195 444 490-6 302-185 487-492 487-277 0-477-157-493-425h286c10 115 84 193 206 192 143-1 204-115 204-270" id="cb"/><use transform="matrix(0.011935763888888876,0,0,0.011935763888888876,0,0)" xlink:href="#cb" id="ar"/><use transform="matrix(0.011935763888888876,0,0,0.011935763888888876,0,0)" xlink:href="#aY" id="as"/><path fill="#333" d="M416 0H126v-1536h290V0" id="cc"/><path fill="#333" d="M516-353l201-729h302L654 0H378L13-1082h302" id="cd"/><g id="at"><use transform="matrix(0.011935763888888876,0,0,0.011935763888888876,0,0)" xlink:href="#cc"/><use transform="matrix(0.011935763888888876,0,0,0.011935763888888876,6.48111979166666,0)" xlink:href="#bs"/><use transform="matrix(0.011935763888888876,0,0,0.011935763888888876,12.96223958333332,0)" xlink:href="#cd"/><use transform="matrix(0.011935763888888876,0,0,0.011935763888888876,25.16059027777775,0)" xlink:href="#bp"/><path fill="#333" d="M-1.22 1.2h46.9v1.18H-1.2z"/></g><path fill="#333" d="M663-1102c295 0 423 246 423 571 0 313-131 551-421 551-117 0-211-45-281-135L371 0H111v-1536h289v551c67-78 154-117 263-117zm-71 889c164 0 209-139 205-339-3-189-44-315-207-315-92 0-155 38-190 113v427c35 76 99 114 192 114" id="ce"/><g id="au"><use transform="matrix(0.011935763888888876,0,0,0.011935763888888876,0,0)" xlink:href="#bb"/><use transform="matrix(0.011935763888888876,0,0,0.011935763888888876,8.259548611111102,0)" xlink:href="#br"/><use transform="matrix(0.011935763888888876,0,0,0.011935763888888876,21.365017361111086,0)" xlink:href="#ce"/><use transform="matrix(0.011935763888888876,0,0,0.011935763888888876,35.12695312499996,0)" xlink:href="#cc"/><use transform="matrix(0.011935763888888876,0,0,0.011935763888888876,41.608072916666615,0)" xlink:href="#bp"/><path fill="#333" d="M-1.22 1.2h63.35v1.18H-1.22z"/></g><g id="av"><use transform="matrix(0.011935763888888876,0,0,0.011935763888888876,0,0)" xlink:href="#bh"/><use transform="matrix(0.011935763888888876,0,0,0.011935763888888876,13.642578124999986,0)" xlink:href="#cd"/><use transform="matrix(0.011935763888888876,0,0,0.011935763888888876,25.840928819444418,0)" xlink:href="#bp"/><use transform="matrix(0.011935763888888876,0,0,0.011935763888888876,39.0538194444444,0)" xlink:href="#bq"/><path fill="#333" d="M-1.22 1.2h56.5v1.18h-56.5z"/></g><path fill="#333" d="M741-689c-2-124-40-177-163-178-82 0-141 34-178 102V0H111v-1082h271l9 121c77-94 180-141 311-141 139 0 235 55 287 165 76-110 184-165 325-165 249 0 348 151 348 411V0h-290v-690c-2-123-39-176-163-177-87 0-147 41-180 124l1 743H741v-689" id="cf"/><g id="aw"><use transform="matrix(0.011935763888888876,0,0,0.011935763888888876,0,0)" xlink:href="#bb"/><use transform="matrix(0.011935763888888876,0,0,0.011935763888888876,8.259548611111102,0)" xlink:href="#bs"/><use transform="matrix(0.011935763888888876,0,0,0.011935763888888876,14.740668402777763,0)" xlink:href="#cf"/><use transform="matrix(0.011935763888888876,0,0,0.011935763888888876,35.90277777777774,0)" xlink:href="#bp"/><path fill="#333" d="M-1.22 1.2h51.56v1.18H-1.22z"/></g><path fill="#333" d="M488 20C204 20 66-234 66-549c0-305 140-551 424-553 105 0 192 39 261 118v-552h290V0H780l-14-115C694-25 601 20 488 20zM355-528c0 176 51 314 207 314 89 0 152-38 189-113v-427c-36-75-98-113-187-113-139 0-209 113-209 339" id="cg"/><g id="ax"><use transform="matrix(0.011935763888888876,0,0,0.011935763888888876,0,0)" xlink:href="#bp"/><use transform="matrix(0.011935763888888876,0,0,0.011935763888888876,13.212890624999986,0)" xlink:href="#cf"/><use transform="matrix(0.011935763888888876,0,0,0.011935763888888876,34.374999999999964,0)" xlink:href="#bs"/><use transform="matrix(0.011935763888888876,0,0,0.011935763888888876,40.85611979166662,0)" xlink:href="#bb"/><use transform="matrix(0.011935763888888876,0,0,0.011935763888888876,49.11566840277772,0)" xlink:href="#bb"/><use transform="matrix(0.011935763888888876,0,0,0.011935763888888876,57.37521701388883,0)" xlink:href="#bp"/><use transform="matrix(0.011935763888888876,0,0,0.011935763888888876,70.5881076388888,0)" xlink:href="#cg"/><path fill="#333" d="M-1.22 1.2h92.9v1.18h-92.9z"/></g><g id="ay"><use transform="matrix(0.011935763888888876,0,0,0.011935763888888876,0,0)" xlink:href="#bg"/><use transform="matrix(0.011935763888888876,0,0,0.011935763888888876,12.74739583333332,0)" xlink:href="#bh"/><use transform="matrix(0.011935763888888876,0,0,0.011935763888888876,26.56901041666664,0)" xlink:href="#bi"/><use transform="matrix(0.011935763888888876,0,0,0.011935763888888876,40.247395833333286,0)" xlink:href="#bj"/><use transform="matrix(0.011935763888888876,0,0,0.011935763888888876,53.93771701388883,0)" xlink:href="#bb"/><use transform="matrix(0.011935763888888876,0,0,0.011935763888888876,62.197265624999936,0)" xlink:href="#bp"/><use transform="matrix(0.011935763888888876,0,0,0.011935763888888876,75.41015624999991,0)" xlink:href="#bq"/><path fill="#333" d="M-1.22 1.2h92.86v1.18H-1.22z"/></g><path fill="#333" d="M529-185c94 0 168-33 168-114 0-35-18-63-53-83s-91-39-168-55C219-491 90-600 90-765c0-208 203-337 432-337 246 0 451 124 453 349H686c-2-91-62-143-165-143-86 0-151 41-153 117 0 32 16 57 46 77 63 43 257 69 335 100 151 60 229 153 229 291C978-13 554 93 282-28 162-81 60-190 56-344h274c5 106 86 159 199 159" id="ch"/><g id="az"><use transform="matrix(0.011935763888888876,0,0,0.011935763888888876,0,0)" xlink:href="#bb"/><use transform="matrix(0.011935763888888876,0,0,0.011935763888888876,8.259548611111102,0)" xlink:href="#br"/><use transform="matrix(0.011935763888888876,0,0,0.011935763888888876,21.365017361111086,0)" xlink:href="#ce"/><use transform="matrix(0.011935763888888876,0,0,0.011935763888888876,35.12695312499996,0)" xlink:href="#cc"/><use transform="matrix(0.011935763888888876,0,0,0.011935763888888876,41.608072916666615,0)" xlink:href="#bp"/><use transform="matrix(0.011935763888888876,0,0,0.011935763888888876,54.82096354166659,0)" xlink:href="#ch"/><path fill="#333" d="M-1.22 1.2H74.7v1.18H-1.22z"/></g><path fill="#333" d="M190-1174c-11-296 244-440 544-363l-3 224c-24-6-53-9-88-9-109 0-163 51-163 153v87h215v212H480V0H190v-870H29v-212h161v-92" id="ci"/><g id="aA"><use transform="matrix(0.011935763888888876,0,0,0.011935763888888876,0,0)" xlink:href="#ci"/><use transform="matrix(0.011935763888888876,0,0,0.011935763888888876,8.760850694444436,0)" xlink:href="#bh"/><use transform="matrix(0.011935763888888876,0,0,0.011935763888888876,22.582465277777754,0)" xlink:href="#bq"/><path fill="#333" d="M-1.22 1.2H38.8v1.18H-1.2z"/></g><path fill="#333" d="M750-685c-1-124-48-182-173-182-85 0-146 33-184 98V0H104v-1536h289v572c77-92 173-138 289-138 235 0 357 136 357 409V0H750v-685" id="cj"/><g id="aB"><use transform="matrix(0.011935763888888876,0,0,0.011935763888888876,0,0)" xlink:href="#bp"/><use transform="matrix(0.011935763888888876,0,0,0.011935763888888876,13.212890624999986,0)" xlink:href="#br"/><use transform="matrix(0.011935763888888876,0,0,0.011935763888888876,26.31835937499997,0)" xlink:href="#bg"/><use transform="matrix(0.011935763888888876,0,0,0.011935763888888876,39.06575520833329,0)" xlink:href="#cj"/><path fill="#333" d="M-1.22 1.2h61.28v1.18H-1.22z"/></g><g id="aC"><use transform="matrix(0.011935763888888876,0,0,0.011935763888888876,0,0)" xlink:href="#bd"/><use transform="matrix(0.011935763888888876,0,0,0.011935763888888876,13.952907986111097,0)" xlink:href="#bp"/><use transform="matrix(0.011935763888888876,0,0,0.011935763888888876,27.165798611111082,0)" xlink:href="#bj"/><use transform="matrix(0.011935763888888876,0,0,0.011935763888888876,40.85611979166662,0)" xlink:href="#bp"/><use transform="matrix(0.011935763888888876,0,0,0.011935763888888876,54.06901041666661,0)" xlink:href="#bq"/><use transform="matrix(0.011935763888888876,0,0,0.011935763888888876,62.62695312499993,0)" xlink:href="#br"/><use transform="matrix(0.011935763888888876,0,0,0.011935763888888876,75.73242187499991,0)" xlink:href="#bb"/><use transform="matrix(0.011935763888888876,0,0,0.011935763888888876,83.99197048611101,0)" xlink:href="#bs"/><use transform="matrix(0.011935763888888876,0,0,0.011935763888888876,90.47309027777767,0)" xlink:href="#bh"/><use transform="matrix(0.011935763888888876,0,0,0.011935763888888876,104.29470486111097,0)" xlink:href="#bj"/><path fill="#333" d="M-1.22 1.2H119.2v1.18H-1.2z"/></g></defs></g></svg>