<svg xmlns="http://www.w3.org/2000/svg" xmlns:xlink="http://www.w3.org/1999/xlink" xmlns:lucid="lucid" width="833.84" height="548.02"><g transform="translate(-203.43398724748954 -3735.3075458232374)" lucid:page-tab-id="JUeFc64-hEZi"><path d="M489.8 3755.3h104.15v97.5H489.8z" stroke="#202124" fill="#b2d6ef"/><use xlink:href="#a" transform="matrix(1,0,0,1,494.79790034467464,3760.3075458232406) translate(19.301757812500032 39.177951388888864)"/><use xlink:href="#b" transform="matrix(1,0,0,1,494.79790034467464,3760.3075458232406) translate(10.141059027777821 67.82378472222217)"/><path d="M593.95 3755.3H843.1v97.5H593.95z" stroke="#202124" fill="#999"/><use xlink:href="#c" transform="matrix(1,0,0,1,598.9453256371692,3760.3075458232374) translate(40.3347439236112 39.177951388888864)"/><use xlink:href="#d" transform="matrix(1,0,0,1,598.9453256371692,3760.3075458232374) translate(93.49663628472226 67.82378472222217)"/><path d="M417.28 3920.05h560v100h-560z" stroke="#202124" fill="#e5e5e5"/><path d="M417.28 3910.8h19.92v9.25h-19.92zM437.2 3910.8h20.08v9.25H437.2zM457.28 3910.8h19.92v9.25h-19.92zM477.2 3910.8h20.08v9.25H477.2z" stroke="#202124" fill="#fff"/><path d="M497.28 3910.8h19.92v9.25h-19.92zM517.2 3910.8h20.08v9.25H517.2z" stroke="#202124" fill="#fff"/><path d="M537.28 3910.8h19.92v9.25h-19.92zM557.2 3910.8h20.08v9.25H557.2z" stroke="#202124" fill="#fff"/><path d="M577.28 3910.8h19.92v9.25h-19.92zM597.2 3910.8h20.08v9.25H597.2z" stroke="#202124" fill="#fff"/><path d="M617.28 3910.8h19.92v9.25h-19.92zM637.2 3910.8h20.08v9.25H637.2z" stroke="#202124" fill="#fff"/><path d="M657.28 3910.8h19.92v9.25h-19.92zM677.2 3910.8h20.08v9.25H677.2z" stroke="#202124" fill="#fff"/><path d="M697.28 3910.8h19.92v9.25h-19.92zM717.2 3910.8h20.08v9.25H717.2z" stroke="#202124" fill="#fff"/><path d="M737.28 3910.8h19.92v9.25h-19.92zM757.2 3910.8h20.08v9.25H757.2z" stroke="#202124" fill="#fff"/><path d="M777.28 3910.8h19.92v9.25h-19.92zM797.2 3910.8h20.08v9.25H797.2z" stroke="#202124" fill="#fff"/><path d="M817.28 3910.8h19.92v9.25h-19.92zM837.2 3910.8h20.08v9.25H837.2z" stroke="#202124" fill="#fff"/><path d="M857.28 3910.8h19.92v9.25h-19.92zM877.2 3910.8h20.08v9.25H877.2z" stroke="#202124" fill="#fff"/><path d="M897.28 3910.8h19.92v9.25h-19.92zM917.2 3910.8h20.08v9.25H917.2z" stroke="#202124" fill="#fff"/><path d="M937.28 3910.8h19.92v9.25h-19.92zM957.2 3910.8h20.08v9.25H957.2z" stroke="#202124" fill="#fff"/><path d="M417.28 3920.05h19.92v100h-19.92z" stroke="#202124" fill="#b2d6ef"/><path d="M437.2 3920.05h73.47v100H437.2z" stroke="#202124" fill="#b2b2b2"/><path d="M510.67 3920.05h6.53v100h-6.53z" stroke="#202124" fill="#fff"/><path d="M517.2 3920.05h19.92v100H517.2z" stroke="#202124" fill="#b2d6ef"/><path d="M537.12 3920.05h120.16v100H537.12z" stroke="#202124" fill="#b2b2b2"/><path d="M657.28 3920.05h19.92v100h-19.92z" stroke="#202124" fill="#b2d6ef"/><path d="M677.28 3920.05h26.25v100h-26.25z" stroke="#202124" fill="#b2b2b2"/><path d="M703.53 3920.05h13.67v100h-13.67z" stroke="#202124" fill="#fff"/><path d="M717.2 3920.05h20.08v100H717.2z" stroke="#202124" fill="#ffbbb1"/><path d="M717.28 3920.05h20.08v100h-20.08z" stroke="#000" stroke-opacity="0" fill="#fff" fill-opacity="0"/><use xlink:href="#e" transform="matrix(1,0,0,1,722.2774512325044,3925.0460178970407) translate(1.1325954861111205 14.43142361111108)"/><use xlink:href="#e" transform="matrix(1,0,0,1,722.2774512325044,3925.0460178970407) translate(1.1325954861111205 32.66059027777771)"/><use xlink:href="#e" transform="matrix(1,0,0,1,722.2774512325044,3925.0460178970407) translate(1.1325954861111205 50.889756944444336)"/><use xlink:href="#e" transform="matrix(1,0,0,1,722.2774512325044,3925.0460178970407) translate(1.1325954861111205 69.11892361111097)"/><use xlink:href="#e" transform="matrix(1,0,0,1,722.2774512325044,3925.0460178970407) translate(1.1325954861111205 87.3480902777776)"/><use xlink:href="#f" transform="matrix(1,0,0,1,722.2774512325044,3925.0460178970407) translate(5.5 105.57725694444423)"/><path d="M843.1 3755.3h174.18v97.5H843.1z" stroke="#202124" fill="#fff"/><use xlink:href="#g" transform="matrix(1,0,0,1,848.1006211028889,3760.3075458232415) translate(24.772677951388957 22.677951388888864)"/><use xlink:href="#h" transform="matrix(1,0,0,1,848.1006211028889,3760.3075458232415) translate(118.54003906249996 22.677951388888864)"/><use xlink:href="#i" transform="matrix(1,0,0,1,848.1006211028889,3760.3075458232415) translate(28.007269965277843 51.32378472222217)"/><use xlink:href="#j" transform="matrix(1,0,0,1,848.1006211028889,3760.3075458232415) translate(80.59624565972223 51.32378472222217)"/><use xlink:href="#k" transform="matrix(1,0,0,1,848.1006211028889,3760.3075458232415) translate(38.82703993055561 79.96961805555547)"/><path d="M489.74 3852.78l-72.26 57.6M489.73 3852.8l.4-.33M417.5 3910.38l-.4.32M1017.06 3852.8l-499.5 57.93M1017.05 3852.8l.5-.05M517.57 3910.73l-.5.06" stroke="#202124" fill="none"/><path d="M223.43 4155.22h158.75v68.95H223.43z" stroke="#202124" fill="#e5e5e5"/><path d="M223.43 4147h158.75v8.22H223.43z" stroke="#202124" fill="#fff"/><path d="M382.12 4155.22h158.74v68.95H382.12z" stroke="#202124" fill="#e5e5e5"/><path d="M382.12 4147h158.74v8.22H382.12z" stroke="#202124" fill="#fff"/><path d="M540.86 4155.22H699.6v68.95H540.87z" stroke="#202124" fill="#e5e5e5"/><path d="M540.86 4147H699.6v8.22H540.87z" stroke="#202124" fill="#fff"/><path d="M699.55 4155.22H858.3v68.95H699.55z" stroke="#202124" fill="#e5e5e5"/><path d="M699.55 4147H858.3v8.22H699.55z" stroke="#202124" fill="#fff"/><path d="M858.3 4155.22h158.74v68.95H858.3z" stroke="#202124" fill="#e5e5e5"/><path d="M858.3 4147h158.74v8.22H858.3z" stroke="#202124" fill="#fff"/><path d="M223.43 4224.17h158.75v39.15H223.43z" stroke="#000" stroke-opacity="0" fill="#fff" fill-opacity="0"/><use xlink:href="#l" transform="matrix(1,0,0,1,228.43398724748954,4229.167835448421) translate(36.843750000000064 20.243055555555525)"/><use xlink:href="#m" transform="matrix(1,0,0,1,228.43398724748954,4229.167835448421) translate(91.22743055555553 20.243055555555525)"/><path d="M382.12 4224.17h158.74v39.15H382.12z" stroke="#000" stroke-opacity="0" fill="#fff" fill-opacity="0"/><use xlink:href="#l" transform="matrix(1,0,0,1,387.1207343326005,4229.167835448421) translate(36.843750000000064 20.243055555555525)"/><use xlink:href="#n" transform="matrix(1,0,0,1,387.1207343326005,4229.167835448421) translate(91.22743055555553 20.243055555555525)"/><path d="M541.88 4224.17h158.74v39.15H541.88z" stroke="#000" stroke-opacity="0" fill="#fff" fill-opacity="0"/><use xlink:href="#l" transform="matrix(1,0,0,1,546.8765879346947,4229.167835448421) translate(36.843750000000064 20.243055555555525)"/><use xlink:href="#o" transform="matrix(1,0,0,1,546.8765879346947,4229.167835448421) translate(91.22743055555553 20.243055555555525)"/><path d="M699.08 4224.17h158.74v39.15H699.08z" stroke="#000" stroke-opacity="0" fill="#fff" fill-opacity="0"/><use xlink:href="#l" transform="matrix(1,0,0,1,704.0807867967955,4229.167835448421) translate(36.843750000000064 20.243055555555525)"/><use xlink:href="#p" transform="matrix(1,0,0,1,704.0807867967955,4229.167835448421) translate(91.22743055555553 20.243055555555525)"/><path d="M858.53 4224.17h158.75v39.15H858.53z" stroke="#000" stroke-opacity="0" fill="#fff" fill-opacity="0"/><use xlink:href="#l" transform="matrix(1,0,0,1,863.5335597930069,4229.167835448421) translate(36.843750000000064 20.243055555555525)"/><use xlink:href="#q" transform="matrix(1,0,0,1,863.5335597930069,4229.167835448421) translate(91.22743055555553 20.243055555555525)"/><path d="M858.53 4155.22h5.7v68.95h-5.7z" stroke="#202124" fill="#b2d6ef"/><path d="M864.22 4155.22h20.97v68.95H864.2z" stroke="#202124" fill="#b2b2b2"/><path d="M885.2 4155.22h1.86v68.95h-1.87z" stroke="#202124" fill="#fff"/><path d="M887.06 4155.22h5.7v68.95h-5.7z" stroke="#202124" fill="#b2d6ef"/><path d="M892.75 4155.22h34.3v68.95h-34.3z" stroke="#202124" fill="#b2b2b2"/><path d="M927.05 4155.22h5.68v68.95h-5.68z" stroke="#202124" fill="#b2d6ef"/><path d="M932.76 4155.22h7.5v68.95h-7.5z" stroke="#202124" fill="#b2b2b2"/><path d="M940.25 4155.22h3.9v68.95h-3.9z" stroke="#202124" fill="#fff"/><path d="M944.15 4155.22h5.73v68.95h-5.73z" stroke="#202124" fill="#ffbbb1"/><path d="M944.17 4155.22h5.74v68.95h-5.73z" stroke="#000" stroke-opacity="0" fill="#fff" fill-opacity="0"/><path d="M699.55 4155.22h5.7v68.95h-5.7z" stroke="#202124" fill="#b2d6ef"/><path d="M705.24 4155.22h34.3v68.95h-34.3z" stroke="#202124" fill="#b2b2b2"/><path d="M741.4 4155.22h5.7v68.95h-5.7z" stroke="#202124" fill="#ffbbb1"/><path d="M739.54 4155.22h1.86v68.95h-1.86z" stroke="#202124" fill="#fff"/><path d="M540.86 4155.22h5.7v68.95h-5.7z" stroke="#202124" fill="#ffbbb1"/><path d="M417.43 4020.2l440.9 126.67M417.44 4020.2l-.5-.13M858.3 4146.87l.5.14M977.35 4020.12l39.56 126.07M977.35 4020.13l-.15-.48M1016.9 4146.18l.16.5" stroke="#202124" fill="none"/><path d="M382.18 4155.22h5.68v68.95h-5.68z" stroke="#202124" fill="#b2d6ef"/><path d="M387.86 4155.22H460v68.95h-72.14z" stroke="#202124" fill="#999"/><path d="M463.22 4155.22h5.68v68.95h-5.68z" stroke="#202124" fill="#b2d6ef"/><path d="M468.9 4155.22H480v68.95h-11.1z" stroke="#202124" fill="#999"/><path d="M460 4155.22h3.22v68.95H460z" stroke="#202124" fill="#fff"/><path d="M480 4155.22h5.7v68.95H480z" stroke="#202124" fill="#b2d6ef"/><path d="M485.7 4155.22h11.08v68.95h-11.1z" stroke="#202124" fill="#999"/><path d="M496.78 4155.22h5.7v68.95h-5.7z" stroke="#202124" fill="#b2d6ef"/><path d="M502.47 4155.22h5.7v68.95h-5.7z" stroke="#202124" fill="#999"/><path d="M508.16 4155.22h5.68v68.95h-5.68z" stroke="#202124" fill="#b2d6ef"/><path d="M513.84 4155.22h5.7v68.95h-5.7z" stroke="#202124" fill="#999"/><path d="M519.32 4155.22h5.7v68.95h-5.7z" stroke="#202124" fill="#b2d6ef"/><path d="M525 4155.22h5.7v68.95H525z" stroke="#202124" fill="#999"/><path d="M529.65 4155.22h5.68v68.95h-5.68z" stroke="#202124" fill="#b2d6ef"/><path d="M535.33 4155.22h5.7v68.95h-5.7z" stroke="#202124" fill="#999"/><path d="M272.94 4048.66H485.7v55.66H272.93z" stroke="#000" stroke-opacity="0" fill="#fff" fill-opacity="0"/><use xlink:href="#r" transform="matrix(1,0,0,1,277.93661987098966,4053.6642063701847) translate(0 20.61631944444442)"/><use xlink:href="#s" transform="matrix(1,0,0,1,277.93661987098966,4053.6642063701847) translate(77.90798611111103 20.61631944444442)"/><use xlink:href="#t" transform="matrix(1,0,0,1,277.93661987098966,4053.6642063701847) translate(0 46.65798611111106)"/><use xlink:href="#u" transform="matrix(1,0,0,1,277.93661987098966,4053.6642063701847) translate(28.363715277777743 46.65798611111106)"/><use xlink:href="#v" transform="matrix(1,0,0,1,277.93661987098966,4053.6642063701847) translate(93.51128472222211 46.65798611111106)"/><path d="M257.56 4155.22h5.68v68.95h-5.68z" stroke="#202124" fill="#ffbbb1"/><path d="M223.43 4155.22h5.7v68.95h-5.7z" stroke="#202124" fill="#b2d6ef"/><path d="M229.12 4155.22h5.7v68.95h-5.7z" stroke="#202124" fill="#999"/><path d="M234.8 4155.22h5.7v68.95h-5.7z" stroke="#202124" fill="#b2d6ef"/><path d="M240.5 4155.22h5.68v68.95h-5.68z" stroke="#202124" fill="#999"/><path d="M246.18 4155.22h5.7v68.95h-5.7z" stroke="#202124" fill="#b2d6ef"/><path d="M251.87 4155.22h5.7v68.95h-5.7z" stroke="#202124" fill="#999"/><path d="M767 4054.77H974.8v57.5H767z" stroke="#000" stroke-opacity="0" fill="#fff" fill-opacity="0"/><g><use xlink:href="#w" transform="matrix(1,0,0,1,771.9938137547441,4059.7682424868317) translate(0 20.61631944444442)"/><use xlink:href="#x" transform="matrix(1,0,0,1,771.9938137547441,4059.7682424868317) translate(75.8246527777777 20.61631944444442)"/><use xlink:href="#y" transform="matrix(1,0,0,1,771.9938137547441,4059.7682424868317) translate(0 46.65798611111106)"/><use xlink:href="#z" transform="matrix(1,0,0,1,771.9938137547441,4059.7682424868317) translate(28.363715277777743 46.65798611111106)"/><use xlink:href="#A" transform="matrix(1,0,0,1,771.9938137547441,4059.7682424868317) translate(76.45399305555547 46.65798611111106)"/></g><path d="M858.94 4060.44l-112.1-32.6M858.92 4060.44l.98.28" stroke="#202124" stroke-width="2" fill="none"/><path d="M732.17 4023.6l15-.48-2.6 8.9z" stroke="#202124" stroke-width="2" fill="#202124"/><path d="M384.83 4110.04L460 4137M384.85 4110.05l-.96-.35" stroke="#202124" stroke-width="2" fill="none"/><path d="M474.38 4142.16l-15-.45 3.14-8.72z" stroke="#202124" stroke-width="2" fill="#202124"/><defs><path fill="#333" d="M569-1476c255 0 440 146 439 390 0 143-91 314-274 512L344-151h731V0H121v-133l504-560c75-85 125-155 155-207 105-184 6-424-211-424-183 0-293 113-291 297H93c-3-270 199-449 476-449" id="B"/><path fill="#333" d="M884-462c0-185-111-323-291-323-113 0-183 39-239 93l-148-38 74-726h746v171H437l-44 397c71-42 152-63 243-63 273-2 433 205 433 487 0 293-170 484-461 484-260 0-436-159-454-403h175c20 156 111 252 279 252 182 0 276-140 276-331" id="C"/><path fill="#333" d="M132-554c0-555 187-908 715-903v157c-320-8-501 179-526 477 77-88 181-132 314-132 259 0 417 214 417 480 0 286-172 495-451 495-293 0-469-266-469-574zm737 88c0-181-95-335-265-335-133 0-252 96-286 200v68c-6 207 101 397 283 400 175 3 268-150 268-333" id="D"/><path fill="#333" d="M1160-420C1159-145 963 0 674 0H169v-1456h476c294-1 476 112 476 388 0 153-99 253-216 302 146 38 255 167 255 346zM678-157c171 2 289-95 289-261 0-175-95-263-286-263H361v524h317zm250-912c-2-172-104-229-283-229H361v463h290c157 3 278-84 277-234" id="E"/><g id="a"><use transform="matrix(0.011935763888888876,0,0,0.011935763888888876,0,0)" xlink:href="#B"/><use transform="matrix(0.011935763888888876,0,0,0.011935763888888876,13.726128472222207,0)" xlink:href="#C"/><use transform="matrix(0.011935763888888876,0,0,0.011935763888888876,27.452256944444414,0)" xlink:href="#D"/><use transform="matrix(0.011935763888888876,0,0,0.011935763888888876,41.17838541666662,0)" xlink:href="#E"/></g><path fill="#333" d="M589-945c-131 0-219 81-264 174V0H140v-1536h185v585c82-101 189-151 320-151 229 0 346 129 346 387V0H806v-716c-2-153-65-229-217-229" id="F"/><path fill="#333" d="M599-131c141 0 220-65 285-146l113 88C906-50 770 20 589 20 281 21 93-214 93-545c0-223 93-397 233-485 74-48 154-72 240-72 300 2 449 218 445 537v77H278c0 197 129 357 321 357zm227-509c-3-180-88-310-260-310-170 0-264 140-282 310h542" id="G"/><path fill="#333" d="M561-1102c238-4 403 126 403 351v498c0 99 13 178 38 237V0H808c-11-21-19-59-26-114C696-25 593 20 474 20c-199 0-368-130-365-320 4-251 214-359 490-356h180v-85c-1-135-86-212-229-212-115 0-232 67-233 171H131c20-205 206-316 430-320zM294-326c0 117 90 185 207 185 122 0 239-75 278-162v-222H634c-227 0-340 66-340 199" id="H"/><path fill="#333" d="M520 20C244 20 95-247 95-550c0-298 151-550 427-552 127 0 227 43 301 130v-564h185V0H838l-9-116C755-25 652 20 520 20zm48-965c-210 0-288 177-288 416 0 218 87 392 286 392 117 0 203-53 257-158v-497c-55-102-140-153-255-153" id="I"/><path fill="#333" d="M663-916c-163-27-288 18-338 148V0H140v-1082h180l3 125c61-97 147-145 258-145 36 0 63 5 82 14v172" id="J"/><g id="b"><use transform="matrix(0.011935763888888876,0,0,0.011935763888888876,0,0)" xlink:href="#F"/><use transform="matrix(0.011935763888888876,0,0,0.011935763888888876,13.463541666666652,0)" xlink:href="#G"/><use transform="matrix(0.011935763888888876,0,0,0.011935763888888876,26.413845486111082,0)" xlink:href="#H"/><use transform="matrix(0.011935763888888876,0,0,0.011935763888888876,39.710286458333286,0)" xlink:href="#I"/><use transform="matrix(0.011935763888888876,0,0,0.011935763888888876,53.49609374999993,0)" xlink:href="#G"/><use transform="matrix(0.011935763888888876,0,0,0.011935763888888876,66.44639756944437,0)" xlink:href="#J"/></g><path fill="#fff" d="M497-251l268-831h189L566 0H425L33-1082h189" id="K"/><path fill="#fff" d="M561-1102c238-4 403 126 403 351v498c0 99 13 178 38 237V0H808c-11-21-19-59-26-114C696-25 593 20 474 20c-199 0-368-130-365-320 4-251 214-359 490-356h180v-85c-1-135-86-212-229-212-115 0-232 67-233 171H131c20-205 206-316 430-320zM294-326c0 117 90 185 207 185 122 0 239-75 278-162v-222H634c-227 0-340 66-340 199" id="L"/><path fill="#fff" d="M663-916c-163-27-288 18-338 148V0H140v-1082h180l3 125c61-97 147-145 258-145 36 0 63 5 82 14v172" id="M"/><path fill="#fff" d="M341 0H156v-1082h185V0zm-91-1264c-68 0-108-42-109-105 0-62 41-107 109-107s110 44 110 107-42 105-110 105" id="N"/><path fill="#fff" d="M634-1102c292 0 422 254 422 573 0 298-143 547-420 549-137 0-242-48-317-145L310 0H140v-1536h185v573c75-93 178-139 309-139zm-44 965c207 0 281-175 281-413 0-224-79-395-283-395-122 0-210 57-263 170v468c57 113 145 170 265 170" id="O"/><path fill="#fff" d="M341 0H156v-1536h185V0" id="P"/><path fill="#fff" d="M599-131c141 0 220-65 285-146l113 88C906-50 770 20 589 20 281 21 93-214 93-545c0-223 93-397 233-485 74-48 154-72 240-72 300 2 449 218 445 537v77H278c0 197 129 357 321 357zm227-509c-3-180-88-310-260-310-170 0-264 140-282 310h542" id="Q"/><path fill="#fff" d="M525-543H37v-151h488v151" id="R"/><path fill="#fff" d="M589-945c-131 0-219 81-264 174V0H140v-1082h175l6 136c83-104 191-156 324-156 229 0 346 129 346 387V0H806v-716c-2-153-65-229-217-229" id="S"/><path fill="#fff" d="M521 20C240 20 96-239 96-550c0-303 147-552 427-552 132 0 235 47 309 140l9-120h169V-26c4 277-183 454-459 452-165-1-334-81-400-187l96-111c79 98 176 147 291 147 180 1 288-109 286-290v-93C750-23 649 20 521 20zm48-965c-209 0-287 178-287 416 0 217 86 392 285 392 117 0 202-53 257-159v-494c-57-103-142-155-255-155" id="T"/><path fill="#fff" d="M456 20C285 20 205-92 206-268v-671H9v-143h197v-262h185v262h202v143H391v671c-9 125 92 149 207 118V0c-49 13-96 20-142 20" id="U"/><path fill="#fff" d="M589-945c-131 0-219 81-264 174V0H140v-1536h185v585c82-101 189-151 320-151 229 0 346 129 346 387V0H806v-716c-2-153-65-229-217-229" id="V"/><g id="c"><use transform="matrix(0.011935763888888876,0,0,0.011935763888888876,0,0)" xlink:href="#K"/><use transform="matrix(0.011935763888888876,0,0,0.011935763888888876,11.66124131944443,0)" xlink:href="#L"/><use transform="matrix(0.011935763888888876,0,0,0.011935763888888876,24.957682291666636,0)" xlink:href="#M"/><use transform="matrix(0.011935763888888876,0,0,0.011935763888888876,33.22916666666663,0)" xlink:href="#N"/><use transform="matrix(0.011935763888888876,0,0,0.011935763888888876,39.1612413194444,0)" xlink:href="#L"/><use transform="matrix(0.011935763888888876,0,0,0.011935763888888876,52.45768229166661,0)" xlink:href="#O"/><use transform="matrix(0.011935763888888876,0,0,0.011935763888888876,66.17187499999993,0)" xlink:href="#P"/><use transform="matrix(0.011935763888888876,0,0,0.011935763888888876,72.1039496527777,0)" xlink:href="#Q"/><use transform="matrix(0.011935763888888876,0,0,0.011935763888888876,85.05425347222213,0)" xlink:href="#R"/><use transform="matrix(0.011935763888888876,0,0,0.011935763888888876,91.79796006944434,0)" xlink:href="#P"/><use transform="matrix(0.011935763888888876,0,0,0.011935763888888876,97.73003472222211,0)" xlink:href="#Q"/><use transform="matrix(0.011935763888888876,0,0,0.011935763888888876,110.68033854166654,0)" xlink:href="#S"/><use transform="matrix(0.011935763888888876,0,0,0.011935763888888876,124.16775173611097,0)" xlink:href="#T"/><use transform="matrix(0.011935763888888876,0,0,0.011935763888888876,137.8819444444443,0)" xlink:href="#U"/><use transform="matrix(0.011935763888888876,0,0,0.011935763888888876,145.86697048611094,0)" xlink:href="#V"/></g><path fill="#fff" d="M584 20C278 26 81-227 91-551c10-320 175-545 491-551 308-5 503 247 494 573-9 322-175 543-492 549zm-2-970c-208 0-305 185-305 421 0 216 106 398 307 398 211 0 307-186 307-420 0-214-109-399-309-399" id="W"/><path fill="#fff" d="M520 20C244 20 95-247 95-550c0-298 151-550 427-552 127 0 227 43 301 130v-564h185V0H838l-9-116C755-25 652 20 520 20zm48-965c-210 0-288 177-288 416 0 218 87 392 286 392 117 0 203-53 257-158v-497c-55-102-140-153-255-153" id="X"/><path fill="#fff" d="M494-271l252-811h198L509 167C425 381 299 474 84 421V271c167 16 242-37 283-173l41-110L22-1082h202" id="Y"/><g id="d"><use transform="matrix(0.011935763888888876,0,0,0.011935763888888876,0,0)" xlink:href="#O"/><use transform="matrix(0.011935763888888876,0,0,0.011935763888888876,13.714192708333318,0)" xlink:href="#W"/><use transform="matrix(0.011935763888888876,0,0,0.011935763888888876,27.655164930555525,0)" xlink:href="#X"/><use transform="matrix(0.011935763888888876,0,0,0.011935763888888876,41.44097222222218,0)" xlink:href="#Y"/></g><path fill="#333" d="M574-1476c351 0 454 237 460 615v240c0 217-37 378-111 483S733 20 576 20c-346 0-454-246-461-616v-247c0-214 37-373 111-477s190-156 348-156zm275 905c0-337 59-752-275-753-95 0-160 38-207 107-80 118-66 409-67 625 0 157 22 273 68 348s115 113 208 113c91 0 160-35 204-106s69-182 69-334" id="Z"/><use transform="matrix(0.007595486111111095,0,0,0.007595486111111095,0,0)" xlink:href="#Z" id="e"/><path fill="#333" d="M632-1102c291 0 422 251 422 573 0 297-141 548-419 549-131 0-235-42-310-125v521H140v-1498h169l9 120c75-93 180-140 314-140zm-53 971c207 0 290-180 290-419 0-218-92-395-292-395-112 0-196 50-252 149v517c55 99 140 148 254 148" id="aa"/><path fill="#333" d="M341 0H156v-1082h185V0zm-91-1264c-68 0-108-42-109-105 0-62 41-107 109-107s110 44 110 107-42 105-110 105" id="ab"/><path fill="#333" d="M589-945c-131 0-219 81-264 174V0H140v-1082h175l6 136c83-104 191-156 324-156 229 0 346 129 346 387V0H806v-716c-2-153-65-229-217-229" id="ac"/><path fill="#333" d="M521 20C240 20 96-239 96-550c0-303 147-552 427-552 132 0 235 47 309 140l9-120h169V-26c4 277-183 454-459 452-165-1-334-81-400-187l96-111c79 98 176 147 291 147 180 1 288-109 286-290v-93C750-23 649 20 521 20zm48-965c-209 0-287 178-287 416 0 217 86 392 285 392 117 0 202-53 257-159v-494c-57-103-142-155-255-155" id="ad"/><g id="g"><use transform="matrix(0.011935763888888876,0,0,0.011935763888888876,0,0)" xlink:href="#aa"/><use transform="matrix(0.011935763888888876,0,0,0.011935763888888876,13.714192708333318,0)" xlink:href="#H"/><use transform="matrix(0.011935763888888876,0,0,0.011935763888888876,27.010633680555525,0)" xlink:href="#I"/><use transform="matrix(0.011935763888888876,0,0,0.011935763888888876,40.79644097222218,0)" xlink:href="#I"/><use transform="matrix(0.011935763888888876,0,0,0.011935763888888876,54.58224826388883,0)" xlink:href="#ab"/><use transform="matrix(0.011935763888888876,0,0,0.011935763888888876,60.5143229166666,0)" xlink:href="#ac"/><use transform="matrix(0.011935763888888876,0,0,0.011935763888888876,74.00173611111103,0)" xlink:href="#ad"/></g><path fill="#333" d="M456 20C285 20 205-92 206-268v-671H9v-143h197v-262h185v262h202v143H391v671c-9 125 92 149 207 118V0c-49 13-96 20-142 20" id="ae"/><path fill="#333" d="M584 20C278 26 81-227 91-551c10-320 175-545 491-551 308-5 503 247 494 573-9 322-175 543-492 549zm-2-970c-208 0-305 185-305 421 0 216 106 398 307 398 211 0 307-186 307-420 0-214-109-399-309-399" id="af"/><g id="h"><use transform="matrix(0.011935763888888876,0,0,0.011935763888888876,0,0)" xlink:href="#ae"/><use transform="matrix(0.011935763888888876,0,0,0.011935763888888876,7.74631076388888,0)" xlink:href="#af"/></g><path fill="#333" d="M503-687l240-395h216L605-547 970 0H756L506-405 256 0H41l365-547-354-535h214" id="ag"/><g id="i"><use transform="matrix(0.011935763888888876,0,0,0.011935763888888876,0,0)" xlink:href="#ac"/><use transform="matrix(0.011935763888888876,0,0,0.011935763888888876,13.48741319444443,0)" xlink:href="#G"/><use transform="matrix(0.011935763888888876,0,0,0.011935763888888876,26.43771701388886,0)" xlink:href="#ag"/><use transform="matrix(0.011935763888888876,0,0,0.011935763888888876,38.55251736111107,0)" xlink:href="#ae"/></g><g id="j"><use transform="matrix(0.011935763888888876,0,0,0.011935763888888876,0,0)" xlink:href="#B"/><use transform="matrix(0.011935763888888876,0,0,0.011935763888888876,13.726128472222207,0)" xlink:href="#C"/><use transform="matrix(0.011935763888888876,0,0,0.011935763888888876,27.452256944444414,0)" xlink:href="#D"/><use transform="matrix(0.011935763888888876,0,0,0.011935763888888876,41.17838541666662,0)" xlink:href="#E"/></g><path fill="#333" d="M1240-945c-141 0-250 95-250 227V0H804v-709c0-157-77-236-231-236-121 0-204 52-249 155V0H139v-1082h175l5 120c79-93 186-140 321-140 151 0 254 58 309 174 69-98 181-174 345-174 237 0 362 126 362 377V0h-185v-714c-2-159-67-231-231-231" id="ah"/><path fill="#333" d="M491 20c-241-1-355-148-355-398v-704h185v699c0 164 67 246 200 246 141 0 235-53 282-158v-787h185V0H812l-4-107C736-22 630 20 491 20" id="ai"/><path fill="#333" d="M341 0H156v-1536h185V0" id="aj"/><g id="k"><use transform="matrix(0.011935763888888876,0,0,0.011935763888888876,0,0)" xlink:href="#ah"/><use transform="matrix(0.011935763888888876,0,0,0.011935763888888876,21.424696180555532,0)" xlink:href="#ai"/><use transform="matrix(0.011935763888888876,0,0,0.011935763888888876,34.90017361111107,0)" xlink:href="#aj"/><use transform="matrix(0.011935763888888876,0,0,0.011935763888888876,40.83224826388884,0)" xlink:href="#ae"/><use transform="matrix(0.011935763888888876,0,0,0.011935763888888876,48.8172743055555,0)" xlink:href="#ab"/><use transform="matrix(0.011935763888888876,0,0,0.011935763888888876,54.74934895833327,0)" xlink:href="#aa"/><use transform="matrix(0.011935763888888876,0,0,0.011935763888888876,68.46354166666659,0)" xlink:href="#aj"/><use transform="matrix(0.011935763888888876,0,0,0.011935763888888876,74.39561631944436,0)" xlink:href="#G"/></g><path fill="#333" d="M688-137c238 0 323-102 359-325h193c-32 297-228 482-552 482-361 0-569-299-569-680 0-197 8-360 73-497 88-186 257-317 513-319 316-2 509 195 535 488h-193c-31-212-118-330-342-330-272 0-397 224-393 523v141c-3 282 115 517 376 517" id="ak"/><path fill="#333" d="M442-501L326-380V0H141v-1536h185v929c135-169 291-317 436-475h225L566-630 1036 0H819" id="al"/><g id="l"><use transform="matrix(0.00868055555555554,0,0,0.00868055555555554,0,0)" xlink:href="#ak"/><use transform="matrix(0.00868055555555554,0,0,0.00868055555555554,11.571180555555536,0)" xlink:href="#F"/><use transform="matrix(0.00868055555555554,0,0,0.00868055555555554,21.362847222222186,0)" xlink:href="#ai"/><use transform="matrix(0.00868055555555554,0,0,0.00868055555555554,31.163194444444393,0)" xlink:href="#ac"/><use transform="matrix(0.00868055555555554,0,0,0.00868055555555554,40.97222222222216,0)" xlink:href="#al"/></g><path fill="#333" d="M765-410H501L421 0H278l80-410H119v-137h265l69-354H195v-139h285l82-416h143l-82 416h264l82-416h144l-82 416h204v139h-231l-69 354h225v137H909L829 0H685zM527-547h264l69-354H596" id="am"/><g id="m"><use transform="matrix(0.00868055555555554,0,0,0.00868055555555554,0,0)" xlink:href="#am"/><use transform="matrix(0.00868055555555554,0,0,0.00868055555555554,10.946180555555536,0)" xlink:href="#Z"/></g><path fill="#333" d="M729 0H543v-1233l-373 137v-168l530-199h29V0" id="an"/><g id="n"><use transform="matrix(0.00868055555555554,0,0,0.00868055555555554,0,0)" xlink:href="#am"/><use transform="matrix(0.00868055555555554,0,0,0.00868055555555554,10.946180555555536,0)" xlink:href="#an"/></g><g id="o"><use transform="matrix(0.00868055555555554,0,0,0.00868055555555554,0,0)" xlink:href="#am"/><use transform="matrix(0.00868055555555554,0,0,0.00868055555555554,10.946180555555536,0)" xlink:href="#B"/></g><path fill="#333" d="M832-402c-1-179-119-264-303-265H390v-151h139c164 0 281-91 281-250 0-171-85-256-255-256-154 0-265 99-263 250H107c-4-235 205-402 448-402 266 0 444 150 440 412-2 148-109 272-229 317 147 45 249 158 251 341 3 262-197 426-461 426C299 20 91-135 94-384h186c-2 156 116 253 276 253 176 0 277-96 276-271" id="ao"/><g id="p"><use transform="matrix(0.00868055555555554,0,0,0.00868055555555554,0,0)" xlink:href="#am"/><use transform="matrix(0.00868055555555554,0,0,0.00868055555555554,10.946180555555536,0)" xlink:href="#ao"/></g><path fill="#333" d="M902-489h202v151H902V0H716v-338H53v-109l652-1009h197v967zm-639 0h453v-714l-22 40" id="ap"/><g id="q"><use transform="matrix(0.00868055555555554,0,0,0.00868055555555554,0,0)" xlink:href="#am"/><use transform="matrix(0.00868055555555554,0,0,0.00868055555555554,10.946180555555536,0)" xlink:href="#ap"/></g><path fill="#333" d="M277-555c0 244 77 420 297 424 127 2 249-93 255-210h175C980-127 805 20 574 20 258 20 81-222 92-562c11-319 164-533 481-540 237-5 426 165 431 392H829c-7-133-115-242-256-240-209 4-296 166-296 395" id="aq"/><g id="r"><use transform="matrix(0.010850694444444432,0,0,0.010850694444444432,0,0)" xlink:href="#ab"/><use transform="matrix(0.010850694444444432,0,0,0.010850694444444432,5.392795138888883,0)" xlink:href="#ah"/><use transform="matrix(0.010850694444444432,0,0,0.010850694444444432,24.86979166666664,0)" xlink:href="#aa"/><use transform="matrix(0.010850694444444432,0,0,0.010850694444444432,37.337239583333286,0)" xlink:href="#aj"/><use transform="matrix(0.010850694444444432,0,0,0.010850694444444432,42.73003472222217,0)" xlink:href="#ab"/><use transform="matrix(0.010850694444444432,0,0,0.010850694444444432,48.12282986111106,0)" xlink:href="#aq"/><use transform="matrix(0.010850694444444432,0,0,0.010850694444444432,59.754774305555486,0)" xlink:href="#ab"/><use transform="matrix(0.010850694444444432,0,0,0.010850694444444432,65.14756944444437,0)" xlink:href="#ae"/></g><g id="s"><use transform="matrix(0.010850694444444432,0,0,0.010850694444444432,0,0)" xlink:href="#ae"/><use transform="matrix(0.010850694444444432,0,0,0.010850694444444432,7.259114583333325,0)" xlink:href="#G"/><use transform="matrix(0.010850694444444432,0,0,0.010850694444444432,19.032118055555536,0)" xlink:href="#J"/><use transform="matrix(0.010850694444444432,0,0,0.010850694444444432,26.55164930555553,0)" xlink:href="#ah"/><use transform="matrix(0.010850694444444432,0,0,0.010850694444444432,46.02864583333329,0)" xlink:href="#ab"/><use transform="matrix(0.010850694444444432,0,0,0.010850694444444432,51.42144097222217,0)" xlink:href="#ac"/><use transform="matrix(0.010850694444444432,0,0,0.010850694444444432,63.68272569444438,0)" xlink:href="#H"/><use transform="matrix(0.010850694444444432,0,0,0.010850694444444432,75.77039930555547,0)" xlink:href="#ae"/><use transform="matrix(0.010850694444444432,0,0,0.010850694444444432,83.0295138888888,0)" xlink:href="#ab"/><use transform="matrix(0.010850694444444432,0,0,0.010850694444444432,88.42230902777769,0)" xlink:href="#af"/><use transform="matrix(0.010850694444444432,0,0,0.010850694444444432,101.09592013888879,0)" xlink:href="#ac"/></g><path fill="#333" d="M634-1102c292 0 422 254 422 573 0 298-143 547-420 549-137 0-242-48-317-145L310 0H140v-1536h185v573c75-93 178-139 309-139zm-44 965c207 0 281-175 281-413 0-224-79-395-283-395-122 0-210 57-263 170v468c57 113 145 170 265 170" id="ar"/><path fill="#333" d="M494-271l252-811h198L509 167C425 381 299 474 84 421V271c167 16 242-37 283-173l41-110L22-1082h202" id="as"/><g id="t"><use transform="matrix(0.010850694444444432,0,0,0.010850694444444432,0,0)" xlink:href="#ar"/><use transform="matrix(0.010850694444444432,0,0,0.010850694444444432,12.348090277777764,0)" xlink:href="#as"/></g><g id="u"><use transform="matrix(0.010850694444444432,0,0,0.010850694444444432,0,0)" xlink:href="#aq"/><use transform="matrix(0.010850694444444432,0,0,0.010850694444444432,11.63194444444443,0)" xlink:href="#F"/><use transform="matrix(0.010850694444444432,0,0,0.010850694444444432,23.87152777777775,0)" xlink:href="#ai"/><use transform="matrix(0.010850694444444432,0,0,0.010850694444444432,36.121961805555515,0)" xlink:href="#ac"/><use transform="matrix(0.010850694444444432,0,0,0.010850694444444432,48.38324652777772,0)" xlink:href="#al"/></g><g id="v"><use transform="matrix(0.010850694444444432,0,0,0.010850694444444432,0,0)" xlink:href="#aj"/><use transform="matrix(0.010850694444444432,0,0,0.010850694444444432,5.392795138888883,0)" xlink:href="#G"/><use transform="matrix(0.010850694444444432,0,0,0.010850694444444432,17.165798611111093,0)" xlink:href="#ac"/><use transform="matrix(0.010850694444444432,0,0,0.010850694444444432,29.4270833333333,0)" xlink:href="#ad"/><use transform="matrix(0.010850694444444432,0,0,0.010850694444444432,41.89453124999995,0)" xlink:href="#ae"/><use transform="matrix(0.010850694444444432,0,0,0.010850694444444432,49.15364583333328,0)" xlink:href="#F"/></g><g id="w"><use transform="matrix(0.010850694444444432,0,0,0.010850694444444432,0,0)" xlink:href="#G"/><use transform="matrix(0.010850694444444432,0,0,0.010850694444444432,11.773003472222209,0)" xlink:href="#ag"/><use transform="matrix(0.010850694444444432,0,0,0.010850694444444432,22.786458333333307,0)" xlink:href="#aa"/><use transform="matrix(0.010850694444444432,0,0,0.010850694444444432,35.25390624999996,0)" xlink:href="#aj"/><use transform="matrix(0.010850694444444432,0,0,0.010850694444444432,40.64670138888884,0)" xlink:href="#ab"/><use transform="matrix(0.010850694444444432,0,0,0.010850694444444432,46.03949652777772,0)" xlink:href="#aq"/><use transform="matrix(0.010850694444444432,0,0,0.010850694444444432,57.67144097222216,0)" xlink:href="#ab"/><use transform="matrix(0.010850694444444432,0,0,0.010850694444444432,63.064236111111036,0)" xlink:href="#ae"/></g><g id="x"><use transform="matrix(0.010850694444444432,0,0,0.010850694444444432,0,0)" xlink:href="#ae"/><use transform="matrix(0.010850694444444432,0,0,0.010850694444444432,7.259114583333325,0)" xlink:href="#G"/><use transform="matrix(0.010850694444444432,0,0,0.010850694444444432,19.032118055555536,0)" xlink:href="#J"/><use transform="matrix(0.010850694444444432,0,0,0.010850694444444432,26.55164930555553,0)" xlink:href="#ah"/><use transform="matrix(0.010850694444444432,0,0,0.010850694444444432,46.02864583333329,0)" xlink:href="#ab"/><use transform="matrix(0.010850694444444432,0,0,0.010850694444444432,51.42144097222217,0)" xlink:href="#ac"/><use transform="matrix(0.010850694444444432,0,0,0.010850694444444432,63.68272569444438,0)" xlink:href="#H"/><use transform="matrix(0.010850694444444432,0,0,0.010850694444444432,75.77039930555547,0)" xlink:href="#ae"/><use transform="matrix(0.010850694444444432,0,0,0.010850694444444432,83.0295138888888,0)" xlink:href="#ab"/><use transform="matrix(0.010850694444444432,0,0,0.010850694444444432,88.42230902777769,0)" xlink:href="#af"/><use transform="matrix(0.010850694444444432,0,0,0.010850694444444432,101.09592013888879,0)" xlink:href="#ac"/></g><g id="y"><use transform="matrix(0.010850694444444432,0,0,0.010850694444444432,0,0)" xlink:href="#ar"/><use transform="matrix(0.010850694444444432,0,0,0.010850694444444432,12.348090277777764,0)" xlink:href="#as"/></g><path fill="#333" d="M314-151h633V0H88v-136l597-793H97v-153h820v131" id="at"/><g id="z"><use transform="matrix(0.010850694444444432,0,0,0.010850694444444432,0,0)" xlink:href="#at"/><use transform="matrix(0.010850694444444432,0,0,0.010850694444444432,10.839843749999988,0)" xlink:href="#G"/><use transform="matrix(0.010850694444444432,0,0,0.010850694444444432,22.612847222222197,0)" xlink:href="#J"/><use transform="matrix(0.010850694444444432,0,0,0.010850694444444432,29.9153645833333,0)" xlink:href="#af"/></g><g id="A"><use transform="matrix(0.010850694444444432,0,0,0.010850694444444432,0,0)" xlink:href="#F"/><use transform="matrix(0.010850694444444432,0,0,0.010850694444444432,12.23958333333332,0)" xlink:href="#G"/><use transform="matrix(0.010850694444444432,0,0,0.010850694444444432,24.01258680555553,0)" xlink:href="#H"/><use transform="matrix(0.010850694444444432,0,0,0.010850694444444432,36.10026041666663,0)" xlink:href="#I"/><use transform="matrix(0.010850694444444432,0,0,0.010850694444444432,48.63281249999995,0)" xlink:href="#G"/><use transform="matrix(0.010850694444444432,0,0,0.010850694444444432,60.405815972222165,0)" xlink:href="#J"/></g></defs></g></svg>