<svg xmlns="http://www.w3.org/2000/svg" xmlns:xlink="http://www.w3.org/1999/xlink" xmlns:lucid="lucid" width="878.66" height="586.77"><g transform="translate(-173.58307252386288 -1980)" lucid:page-tab-id="qUeFI-x9sEUJ"><path d="M772.25 2040.7l.1 17.7" stroke="#202124" stroke-width="2" fill="none"/><path d="M773.25 2040.73h-2v-1.02h2z" fill="#202124"/><path d="M772.46 2073.66l-4.73-14.23 9.27-.06z" stroke="#202124" stroke-width="2" fill="#202124"/><path d="M772.48 2213.23v18.9M772.48 2213.26v-1.03" stroke="#202124" stroke-width="2" fill="none"/><path d="M772.48 2247.4l-4.64-14.26h9.27z" stroke="#202124" stroke-width="2" fill="#202124"/><path d="M872.35 2387.9v19.42M872.35 2387.94v-1.03" stroke="#202124" stroke-width="2" fill="none"/><path d="M872.35 2422.58l-4.64-14.26H877z" stroke="#202124" stroke-width="2" fill="#202124"/><path d="M470.74 2136.62l-.72.02-1.67.1-1.62.17-1.58.25-1.55.3-1.52.35-1.5.42-1.48.48-1.46.54-1.45.6-1.46.7-1.43.74-1.43.83-1.44.92-1.44 1-1.46 1.1-1.46 1.2-1.46 1.34-1.5 1.45-1.5 1.6-1.5 1.76-1.53 1.94-1.56 2.13-1.56 2.35-1.57 2.6-1.57 2.87-1.57 3.17-1.57 3.5-1.54 3.9-1.48 4.25-1.42 4.7-1.3 5.1-1.18 5.54-1 5.96-.8 6.3-.55 6.57-.3 6.76v6.8l.3 6.77.55 6.57.8 6.3 1 5.94 1.17 5.54 1.32 5.1 1.4 4.7 1.5 4.27 1.53 3.86 1.56 3.5 1.57 3.18 1.58 2.87 1.58 2.6 1.56 2.36 1.55 2.13 1.52 1.92 1.52 1.76 1.5 1.6 1.48 1.45 1.47 1.32 1.45 1.2 1.45 1.1 1.44 1 1.43.92 1.44.83.65.34" stroke="#202124" stroke-width="2" fill="none"/><path d="M471.74 2137.6l-1 .02-.05-2 1.04-.02z" fill="#202124"/><path d="M468.6 2309.6l-14.96 1.13 2.2-9z" stroke="#202124" stroke-width="2" fill="#202124"/><path d="M470.74 2310.4l-.72.02-1.67.1-1.63.17-1.6.23-1.54.3-1.53.35-1.5.42-1.48.48-1.47.55-1.45.6-1.45.7-1.44.75-1.44.83-1.44.92-1.45 1-1.45 1.1-1.46 1.22-1.48 1.33-1.48 1.45-1.5 1.6-1.53 1.77-1.53 1.92-1.55 2.14-1.57 2.36-1.57 2.6-1.57 2.88-1.58 3.18-1.57 3.52-1.54 3.9-1.48 4.27-1.42 4.7-1.32 5.12-1.18 5.55-1 5.96-.8 6.32-.55 6.6-.3 6.77v6.83l.3 6.77.54 6.6.8 6.3 1 5.97 1.2 5.56 1.3 5.12 1.42 4.7 1.5 4.28 1.52 3.88 1.57 3.53 1.58 3.18 1.58 2.9 1.6 2.6 1.55 2.35 1.55 2.14 1.54 1.92 1.52 1.76 1.5 1.6 1.5 1.46 1.46 1.33 1.46 1.2 1.45 1.1 1.45 1.02 1.44.9 1.44.83.68.36" stroke="#202124" stroke-width="2" fill="none"/><path d="M471.74 2311.38l-1 .02-.05-2 1.04-.02z" fill="#202124"/><path d="M468.6 2483.86l-14.96 1.13 2.2-9.02z" stroke="#202124" stroke-width="2" fill="#202124"/><path d="M671.24 2000h202v39.7h-202z" stroke="#000" stroke-opacity="0" fill="#fff" fill-opacity="0"/><use xlink:href="#a" transform="matrix(1,0,0,1,676.2360465335219,2005) translate(9.053710937500114 22.304687499999975)"/><use xlink:href="#b" transform="matrix(1,0,0,1,676.2360465335219,2005) translate(90.6162109375 22.304687499999975)"/><use xlink:href="#c" transform="matrix(1,0,0,1,676.2360465335219,2005) translate(145.15722656249994 22.304687499999975)"/><path d="M194.3 2136.43h219.42v153.23H194.3z" stroke="#000" stroke-opacity="0" fill="#fff" fill-opacity="0"/><use xlink:href="#d" transform="matrix(1,0,0,1,194.30334162108488,2136.426435238209) translate(1.2797309027779988 56.365451388888864)"/><use xlink:href="#e" transform="matrix(1,0,0,1,194.30334162108488,2136.426435238209) translate(63.90668402777793 56.365451388888864)"/><use xlink:href="#f" transform="matrix(1,0,0,1,194.30334162108488,2136.426435238209) translate(126.48589409722231 56.365451388888864)"/><use xlink:href="#g" transform="matrix(1,0,0,1,194.30334162108488,2136.426435238209) translate(26.22547743055577 85.01128472222217)"/><use xlink:href="#h" transform="matrix(1,0,0,1,194.30334162108488,2136.426435238209) translate(105.86089409722234 85.01128472222217)"/><use xlink:href="#i" transform="matrix(1,0,0,1,194.30334162108488,2136.426435238209) translate(178.5138888888889 85.01128472222217)"/><use xlink:href="#j" transform="matrix(1,0,0,1,194.30334162108488,2136.426435238209) translate(59.729166666666856 113.65711805555546)"/><use xlink:href="#k" transform="matrix(1,0,0,1,194.30334162108488,2136.426435238209) translate(124.76714409722234 113.65711805555546)"/><use xlink:href="#l" transform="matrix(1,0,0,1,194.30334162108488,2136.426435238209) translate(146.01280381944454 113.65711805555546)"/><path d="M200.6 2318.76h207.84V2472H200.6z" stroke="#000" stroke-opacity="0" fill="#fff" fill-opacity="0"/><use xlink:href="#d" transform="matrix(1,0,0,1,200.61345905571503,2318.7647960850973) translate(70.65516493055571 70.80295138888886)"/><use xlink:href="#m" transform="matrix(1,0,0,1,200.61345905571503,2318.7647960850973) translate(133.28211805555566 70.80295138888886)"/><use xlink:href="#j" transform="matrix(1,0,0,1,200.61345905571503,2318.7647960850973) translate(48.729166666666856 99.44878472222217)"/><use xlink:href="#k" transform="matrix(1,0,0,1,200.61345905571503,2318.7647960850973) translate(113.76714409722234 99.44878472222217)"/><use xlink:href="#l" transform="matrix(1,0,0,1,200.61345905571503,2318.7647960850973) translate(135.01280381944454 99.44878472222217)"/><path d="M472.24 2086.14h560v100h-560z" stroke="#202124" fill="#e5e5e5"/><path d="M472.24 2076.9h19.93v9.24h-19.93zM492.17 2076.9h20.07v9.24h-20.07zM512.24 2076.9h19.93v9.24h-19.93zM532.17 2076.9h20.07v9.24h-20.07zM552.24 2076.9h19.93v9.24h-19.93zM572.17 2076.9h20.07v9.24h-20.07zM592.24 2076.9h19.93v9.24h-19.93zM612.17 2076.9h20.07v9.24h-20.07zM632.24 2076.9h19.93v9.24h-19.93zM652.17 2076.9h20.07v9.24h-20.07zM672.24 2076.9h19.93v9.24h-19.93zM692.17 2076.9h20.07v9.24h-20.07zM712.24 2076.9h19.93v9.24h-19.93zM732.17 2076.9h20.07v9.24h-20.07zM752.24 2076.9h19.93v9.24h-19.93zM772.17 2076.9h20.07v9.24h-20.07zM792.24 2076.9h19.93v9.24h-19.93zM812.17 2076.9h20.07v9.24h-20.07zM832.24 2076.9h19.93v9.24h-19.93zM852.17 2076.9h20.07v9.24h-20.07zM872.24 2076.9h19.93v9.24h-19.93zM892.17 2076.9h20.07v9.24h-20.07zM912.24 2076.9h19.93v9.24h-19.93zM932.17 2076.9h20.07v9.24h-20.07zM952.24 2076.9h19.93v9.24h-19.93zM972.17 2076.9h20.07v9.24h-20.07zM992.24 2076.9h19.93v9.24h-19.93zM1012.17 2076.9h20.07v9.24h-20.07z" stroke="#202124" fill="#fff"/><path d="M472.24 2086.14h19.93v100h-19.93z" stroke="#202124" fill="#b2d6ef"/><path d="M492.17 2086.14h73.46v100h-73.46z" stroke="#202124" fill="#b2b2b2"/><path d="M565.63 2086.14h6.54v100h-6.54z" stroke="#202124" fill="#fff"/><path d="M572.17 2086.14h19.92v100h-19.93z" stroke="#202124" fill="#b2d6ef"/><path d="M592.1 2086.14h120.14v100H592.1z" stroke="#202124" fill="#b2b2b2"/><path d="M712.24 2086.14h19.93v100h-19.93z" stroke="#202124" fill="#b2d6ef"/><path d="M732.24 2086.14h26.26v100h-26.26z" stroke="#202124" fill="#b2b2b2"/><path d="M758.5 2086.14h13.67v100H758.5z" stroke="#202124" fill="#fff"/><path d="M772.17 2086.14h20.07v100h-20.07z" stroke="#202124" fill="#ffbbb1"/><path d="M772.24 2086.14h20.08v100h-20.08z" stroke="#000" stroke-opacity="0" fill="#fff" fill-opacity="0"/><use xlink:href="#n" transform="matrix(1,0,0,1,777.243187450194,2091.1398340429423) translate(1.1325954861111205 14.43142361111108)"/><use xlink:href="#n" transform="matrix(1,0,0,1,777.243187450194,2091.1398340429423) translate(1.1325954861111205 32.66059027777771)"/><use xlink:href="#n" transform="matrix(1,0,0,1,777.243187450194,2091.1398340429423) translate(1.1325954861111205 50.889756944444336)"/><use xlink:href="#n" transform="matrix(1,0,0,1,777.243187450194,2091.1398340429423) translate(1.1325954861111205 69.11892361111097)"/><use xlink:href="#n" transform="matrix(1,0,0,1,777.243187450194,2091.1398340429423) translate(1.1325954861111205 87.3480902777776)"/><use xlink:href="#o" transform="matrix(1,0,0,1,777.243187450194,2091.1398340429423) translate(5.5 105.57725694444423)"/><path d="M472.24 2260.38h560v100h-560z" stroke="#202124" fill="#e5e5e5"/><path d="M472.24 2251.14h19.93v9.24h-19.93zM492.17 2251.14h20.07v9.24h-20.07zM512.24 2251.14h19.93v9.24h-19.93zM532.17 2251.14h20.07v9.24h-20.07zM552.24 2251.14h19.93v9.24h-19.93zM572.17 2251.14h20.07v9.24h-20.07zM592.24 2251.14h19.93v9.24h-19.93zM612.17 2251.14h20.07v9.24h-20.07zM632.24 2251.14h19.93v9.24h-19.93zM652.17 2251.14h20.07v9.24h-20.07zM672.24 2251.14h19.93v9.24h-19.93zM692.17 2251.14h20.07v9.24h-20.07zM712.24 2251.14h19.93v9.24h-19.93zM732.17 2251.14h20.07v9.24h-20.07zM752.24 2251.14h19.93v9.24h-19.93zM772.17 2251.14h20.07v9.24h-20.07zM792.24 2251.14h19.93v9.24h-19.93zM812.17 2251.14h20.07v9.24h-20.07zM832.24 2251.14h19.93v9.24h-19.93zM852.17 2251.14h20.07v9.24h-20.07zM872.24 2251.14h19.93v9.24h-19.93zM892.17 2251.14h20.07v9.24h-20.07zM912.24 2251.14h19.93v9.24h-19.93zM932.17 2251.14h20.07v9.24h-20.07zM952.24 2251.14h19.93v9.24h-19.93zM972.17 2251.14h20.07v9.24h-20.07zM992.24 2251.14h19.93v9.24h-19.93zM1012.17 2251.14h20.07v9.24h-20.07z" stroke="#202124" fill="#fff"/><path d="M472.24 2260.38h19.93v100h-19.93z" stroke="#202124" fill="#b2d6ef"/><path d="M492.17 2260.38h73.46v100h-73.46z" stroke="#202124" fill="#b2b2b2"/><path d="M565.63 2260.38h6.46v100h-6.47z" stroke="#202124" fill="#fff"/><path d="M572.17 2260.38h19.92v100h-19.93z" stroke="#202124" fill="#b2d6ef"/><path d="M592.1 2260.38h120.14v100H592.1z" stroke="#202124" fill="#b2b2b2"/><path d="M712.24 2260.38h19.93v100h-19.93z" stroke="#202124" fill="#b2d6ef"/><path d="M732.24 2260.38h26.26v100h-26.26zM792.24 2260.38h77.34v100h-77.34z" stroke="#202124" fill="#b2b2b2"/><path d="M758.5 2260.38h13.67v100H758.5zM869.58 2260.38h2.66v100h-2.66z" stroke="#202124" fill="#fff"/><path d="M772.24 2260.38h20.08v100h-20.08z" stroke="#202124" fill="#ffbbb1"/><path d="M772.32 2260.38h20.08v100h-20.08z" stroke="#000" stroke-opacity="0" fill="#fff" fill-opacity="0"/><use xlink:href="#n" transform="matrix(1,0,0,1,777.3211465128618,2265.38213651776) translate(1.1325954861111205 14.43142361111108)"/><use xlink:href="#n" transform="matrix(1,0,0,1,777.3211465128618,2265.38213651776) translate(1.1325954861111205 32.66059027777771)"/><use xlink:href="#n" transform="matrix(1,0,0,1,777.3211465128618,2265.38213651776) translate(1.1325954861111205 50.889756944444336)"/><use xlink:href="#n" transform="matrix(1,0,0,1,777.3211465128618,2265.38213651776) translate(1.1325954861111205 69.11892361111097)"/><use xlink:href="#n" transform="matrix(1,0,0,1,777.3211465128618,2265.38213651776) translate(1.1325954861111205 87.3480902777776)"/><use xlink:href="#o" transform="matrix(1,0,0,1,777.3211465128618,2265.38213651776) translate(5.5 105.57725694444423)"/><path d="M872.24 2260.38h20.08v100h-20.08z" stroke="#202124" fill="#ffbbb1"/><path d="M872.32 2260.38h20.08v100h-20.08z" stroke="#000" stroke-opacity="0" fill="#fff" fill-opacity="0"/><use xlink:href="#n" transform="matrix(1,0,0,1,877.321146512862,2265.3821365177914) translate(1.1325954861111205 14.43142361111108)"/><use xlink:href="#n" transform="matrix(1,0,0,1,877.321146512862,2265.3821365177914) translate(1.1325954861111205 32.66059027777771)"/><use xlink:href="#n" transform="matrix(1,0,0,1,877.321146512862,2265.3821365177914) translate(1.1325954861111205 50.889756944444336)"/><use xlink:href="#n" transform="matrix(1,0,0,1,877.321146512862,2265.3821365177914) translate(1.1325954861111205 69.11892361111097)"/><use xlink:href="#n" transform="matrix(1,0,0,1,877.321146512862,2265.3821365177914) translate(1.1325954861111205 87.3480902777776)"/><use xlink:href="#o" transform="matrix(1,0,0,1,877.321146512862,2265.3821365177914) translate(5.5 105.57725694444423)"/><path d="M472.24 2434.62h560v100h-560z" stroke="#202124" fill="#e5e5e5"/><path d="M472.24 2425.38h19.93v9.24h-19.93zM492.17 2425.38h20.07v9.24h-20.07zM512.24 2425.38h19.93v9.24h-19.93zM532.17 2425.38h20.07v9.24h-20.07zM552.24 2425.38h19.93v9.24h-19.93zM572.17 2425.38h20.07v9.24h-20.07zM592.24 2425.38h19.93v9.24h-19.93zM612.17 2425.38h20.07v9.24h-20.07zM632.24 2425.38h19.93v9.24h-19.93zM652.17 2425.38h20.07v9.24h-20.07zM672.24 2425.38h19.93v9.24h-19.93zM692.17 2425.38h20.07v9.24h-20.07zM712.24 2425.38h19.93v9.24h-19.93zM732.17 2425.38h20.07v9.24h-20.07zM752.24 2425.38h19.93v9.24h-19.93zM772.17 2425.38h20.07v9.24h-20.07zM792.24 2425.38h19.93v9.24h-19.93zM812.17 2425.38h20.07v9.24h-20.07zM832.24 2425.38h19.93v9.24h-19.93zM852.17 2425.38h20.07v9.24h-20.07zM872.24 2425.38h19.93v9.24h-19.93zM892.17 2425.38h20.07v9.24h-20.07zM912.24 2425.38h19.93v9.24h-19.93zM932.17 2425.38h20.07v9.24h-20.07zM952.24 2425.38h19.93v9.24h-19.93zM972.17 2425.38h20.07v9.24h-20.07zM992.24 2425.38h19.93v9.24h-19.93zM1012.17 2425.38h20.07v9.24h-20.07z" stroke="#202124" fill="#fff"/><path d="M472.24 2434.62h19.93v100h-19.93z" stroke="#202124" fill="#b2d6ef"/><path d="M492.17 2434.62h73.46v100h-73.46z" stroke="#202124" fill="#b2b2b2"/><path d="M565.63 2434.62h6.46v100h-6.47z" stroke="#202124" fill="#fff"/><path d="M572.17 2434.62h19.92v100h-19.93z" stroke="#202124" fill="#b2d6ef"/><path d="M592.1 2434.62h120.14v100H592.1z" stroke="#202124" fill="#b2b2b2"/><path d="M712.24 2434.62h19.93v100h-19.93z" stroke="#202124" fill="#b2d6ef"/><path d="M732.24 2434.62h26.26v100h-26.26zM792.24 2434.62h77.34v100h-77.34z" stroke="#202124" fill="#b2b2b2"/><path d="M758.5 2434.62h13.67v100H758.5zM869.58 2434.62h2.66v100h-2.66z" stroke="#202124" fill="#fff"/><path d="M872.24 2434.62h20.08v100h-20.08z" stroke="#202124" fill="#ffbbb1"/><path d="M872.32 2434.62h20.08v100h-20.08z" stroke="#000" stroke-opacity="0" fill="#fff" fill-opacity="0"/><g><use xlink:href="#n" transform="matrix(1,0,0,1,877.321146512862,2439.624438992609) translate(1.1325954861111205 14.43142361111108)"/><use xlink:href="#n" transform="matrix(1,0,0,1,877.321146512862,2439.624438992609) translate(1.1325954861111205 32.66059027777771)"/><use xlink:href="#n" transform="matrix(1,0,0,1,877.321146512862,2439.624438992609) translate(1.1325954861111205 50.889756944444336)"/><use xlink:href="#n" transform="matrix(1,0,0,1,877.321146512862,2439.624438992609) translate(1.1325954861111205 69.11892361111097)"/><use xlink:href="#n" transform="matrix(1,0,0,1,877.321146512862,2439.624438992609) translate(1.1325954861111205 87.3480902777776)"/><use xlink:href="#o" transform="matrix(1,0,0,1,877.321146512862,2439.624438992609) translate(5.5 105.57725694444423)"/></g><path d="M772.48 2434.62h19.92v100h-19.92z" stroke="#202124" fill="#b2d6ef"/><defs><path fill="#333" d="M456 20C285 20 205-92 206-268v-671H9v-143h197v-262h185v262h202v143H391v671c-9 125 92 149 207 118V0c-49 13-96 20-142 20" id="p"/><path fill="#333" d="M663-916c-163-27-288 18-338 148V0H140v-1082h180l3 125c61-97 147-145 258-145 36 0 63 5 82 14v172" id="q"/><path fill="#333" d="M561-1102c238-4 403 126 403 351v498c0 99 13 178 38 237V0H808c-11-21-19-59-26-114C696-25 593 20 474 20c-199 0-368-130-365-320 4-251 214-359 490-356h180v-85c-1-135-86-212-229-212-115 0-232 67-233 171H131c20-205 206-316 430-320zM294-326c0 117 90 185 207 185 122 0 239-75 278-162v-222H634c-227 0-340 66-340 199" id="r"/><path fill="#333" d="M497-251l268-831h189L566 0H425L33-1082h189" id="s"/><path fill="#333" d="M599-131c141 0 220-65 285-146l113 88C906-50 770 20 589 20 281 21 93-214 93-545c0-223 93-397 233-485 74-48 154-72 240-72 300 2 449 218 445 537v77H278c0 197 129 357 321 357zm227-509c-3-180-88-310-260-310-170 0-264 140-282 310h542" id="t"/><path fill="#333" d="M538-131c121 0 232-49 232-156 0-50-20-88-56-117-73-60-334-92-420-143-92-55-162-110-162-238 0-190 192-317 400-317 223 0 414 129 413 338H759c0-108-110-186-227-186-119 0-215 53-215 159 0 45 18 78 53 101 76 52 331 90 416 139 98 57 169 115 169 251C955-92 760 20 538 20c-176 0-314-68-386-174-38-55-57-115-57-179h185c6 129 116 202 258 202" id="u"/><path fill="#333" d="M341 0H156v-1536h185V0" id="v"/><g id="a"><use transform="matrix(0.009765624999999986,0,0,0.009765624999999986,0,0)" xlink:href="#p"/><use transform="matrix(0.009765624999999986,0,0,0.009765624999999986,6.533203124999991,0)" xlink:href="#q"/><use transform="matrix(0.009765624999999986,0,0,0.009765624999999986,12.910156249999982,0)" xlink:href="#r"/><use transform="matrix(0.009765624999999986,0,0,0.009765624999999986,23.642578124999968,0)" xlink:href="#s"/><use transform="matrix(0.009765624999999986,0,0,0.009765624999999986,33.20312499999995,0)" xlink:href="#t"/><use transform="matrix(0.009765624999999986,0,0,0.009765624999999986,43.798828124999936,0)" xlink:href="#q"/><use transform="matrix(0.009765624999999986,0,0,0.009765624999999986,50.56640624999993,0)" xlink:href="#u"/><use transform="matrix(0.009765624999999986,0,0,0.009765624999999986,60.878906249999915,0)" xlink:href="#r"/><use transform="matrix(0.009765624999999986,0,0,0.009765624999999986,71.7578124999999,0)" xlink:href="#v"/></g><path fill="#333" d="M584 20C278 26 81-227 91-551c10-320 175-545 491-551 308-5 503 247 494 573-9 322-175 543-492 549zm-2-970c-208 0-305 185-305 421 0 216 106 398 307 398 211 0 307-186 307-420 0-214-109-399-309-399" id="w"/><path fill="#333" d="M632-1102c291 0 422 251 422 573 0 297-141 548-419 549-131 0-235-42-310-125v521H140v-1498h169l9 120c75-93 180-140 314-140zm-53 971c207 0 290-180 290-419 0-218-92-395-292-395-112 0-196 50-252 149v517c55 99 140 148 254 148" id="x"/><g id="b"><use transform="matrix(0.009765624999999986,0,0,0.009765624999999986,0,0)" xlink:href="#u"/><use transform="matrix(0.009765624999999986,0,0,0.009765624999999986,10.312499999999986,0)" xlink:href="#p"/><use transform="matrix(0.009765624999999986,0,0,0.009765624999999986,16.65039062499998,0)" xlink:href="#w"/><use transform="matrix(0.009765624999999986,0,0,0.009765624999999986,28.056640624999964,0)" xlink:href="#x"/><use transform="matrix(0.009765624999999986,0,0,0.009765624999999986,39.27734374999995,0)" xlink:href="#u"/></g><path fill="#333" d="M589-945c-131 0-219 81-264 174V0H140v-1536h185v585c82-101 189-151 320-151 229 0 346 129 346 387V0H806v-716c-2-153-65-229-217-229" id="y"/><g id="c"><use transform="matrix(0.009765624999999986,0,0,0.009765624999999986,0,0)" xlink:href="#y"/><use transform="matrix(0.009765624999999986,0,0,0.009765624999999986,11.015624999999984,0)" xlink:href="#t"/><use transform="matrix(0.009765624999999986,0,0,0.009765624999999986,21.611328124999975,0)" xlink:href="#q"/><use transform="matrix(0.009765624999999986,0,0,0.009765624999999986,28.19335937499996,0)" xlink:href="#t"/></g><path fill="#333" d="M483-459l28 192 41-173 288-1016h162l281 1016 40 176 31-196 226-996h193L1420 0h-175L945-1061l-23-111-23 111L588 0H413L61-1456h192" id="z"/><path fill="#333" d="M341 0H156v-1082h185V0zm-91-1264c-68 0-108-42-109-105 0-62 41-107 109-107s110 44 110 107-42 105-110 105" id="A"/><g id="d"><use transform="matrix(0.011935763888888876,0,0,0.011935763888888876,0,0)" xlink:href="#z"/><use transform="matrix(0.011935763888888876,0,0,0.011935763888888876,21.43663194444442,0)" xlink:href="#q"/><use transform="matrix(0.011935763888888876,0,0,0.011935763888888876,29.70811631944441,0)" xlink:href="#A"/><use transform="matrix(0.011935763888888876,0,0,0.011935763888888876,35.640190972222186,0)" xlink:href="#p"/><use transform="matrix(0.011935763888888876,0,0,0.011935763888888876,43.62521701388884,0)" xlink:href="#t"/></g><path fill="#333" d="M634-1102c292 0 422 254 422 573 0 298-143 547-420 549-137 0-242-48-317-145L310 0H140v-1536h185v573c75-93 178-139 309-139zm-44 965c207 0 281-175 281-413 0-224-79-395-283-395-122 0-210 57-263 170v468c57 113 145 170 265 170" id="B"/><path fill="#333" d="M520 20C244 20 95-247 95-550c0-298 151-550 427-552 127 0 227 43 301 130v-564h185V0H838l-9-116C755-25 652 20 520 20zm48-965c-210 0-288 177-288 416 0 218 87 392 286 392 117 0 203-53 257-158v-497c-55-102-140-153-255-153" id="C"/><path fill="#333" d="M494-271l252-811h198L509 167C425 381 299 474 84 421V271c167 16 242-37 283-173l41-110L22-1082h202" id="D"/><path fill="#333" d="M134 290L29 218c97-132 105-239 98-437h181c1 144 5 239-50 347-34 67-74 121-124 162" id="E"/><g id="e"><use transform="matrix(0.011935763888888876,0,0,0.011935763888888876,0,0)" xlink:href="#B"/><use transform="matrix(0.011935763888888876,0,0,0.011935763888888876,13.714192708333318,0)" xlink:href="#w"/><use transform="matrix(0.011935763888888876,0,0,0.011935763888888876,27.655164930555525,0)" xlink:href="#C"/><use transform="matrix(0.011935763888888876,0,0,0.011935763888888876,41.44097222222218,0)" xlink:href="#D"/><use transform="matrix(0.011935763888888876,0,0,0.011935763888888876,51.729600694444386,0)" xlink:href="#E"/></g><path fill="#333" d="M589-945c-131 0-219 81-264 174V0H140v-1082h175l6 136c83-104 191-156 324-156 229 0 346 129 346 387V0H806v-716c-2-153-65-229-217-229" id="F"/><path fill="#333" d="M521 20C240 20 96-239 96-550c0-303 147-552 427-552 132 0 235 47 309 140l9-120h169V-26c4 277-183 454-459 452-165-1-334-81-400-187l96-111c79 98 176 147 291 147 180 1 288-109 286-290v-93C750-23 649 20 521 20zm48-965c-209 0-287 178-287 416 0 217 86 392 285 392 117 0 202-53 257-159v-494c-57-103-142-155-255-155" id="G"/><g id="f"><use transform="matrix(0.011935763888888876,0,0,0.011935763888888876,0,0)" xlink:href="#x"/><use transform="matrix(0.011935763888888876,0,0,0.011935763888888876,13.714192708333318,0)" xlink:href="#r"/><use transform="matrix(0.011935763888888876,0,0,0.011935763888888876,27.010633680555525,0)" xlink:href="#C"/><use transform="matrix(0.011935763888888876,0,0,0.011935763888888876,40.79644097222218,0)" xlink:href="#C"/><use transform="matrix(0.011935763888888876,0,0,0.011935763888888876,54.58224826388883,0)" xlink:href="#A"/><use transform="matrix(0.011935763888888876,0,0,0.011935763888888876,60.5143229166666,0)" xlink:href="#F"/><use transform="matrix(0.011935763888888876,0,0,0.011935763888888876,74.00173611111103,0)" xlink:href="#G"/><use transform="matrix(0.011935763888888876,0,0,0.011935763888888876,87.71592881944434,0)" xlink:href="#E"/></g><path fill="#333" d="M314-151h633V0H88v-136l597-793H97v-153h820v131" id="H"/><g id="g"><use transform="matrix(0.011935763888888876,0,0,0.011935763888888876,0,0)" xlink:href="#H"/><use transform="matrix(0.011935763888888876,0,0,0.011935763888888876,11.923828124999988,0)" xlink:href="#t"/><use transform="matrix(0.011935763888888876,0,0,0.011935763888888876,24.874131944444418,0)" xlink:href="#q"/><use transform="matrix(0.011935763888888876,0,0,0.011935763888888876,32.90690104166663,0)" xlink:href="#w"/><use transform="matrix(0.011935763888888876,0,0,0.011935763888888876,46.847873263888836,0)" xlink:href="#t"/><use transform="matrix(0.011935763888888876,0,0,0.011935763888888876,59.79817708333327,0)" xlink:href="#C"/></g><path fill="#333" d="M704-1390c-164-38-297 28-288 194v114h231v143H416V0H231v-939H60v-143h171v-111c-12-274 208-416 483-347" id="I"/><path fill="#333" d="M1098-255l208-827h185L1176 0h-150L763-820 507 0H357L43-1082h184l213 810 252-810h149" id="J"/><g id="h"><use transform="matrix(0.011935763888888876,0,0,0.011935763888888876,0,0)" xlink:href="#I"/><use transform="matrix(0.011935763888888876,0,0,0.011935763888888876,8.486328124999991,0)" xlink:href="#w"/><use transform="matrix(0.011935763888888876,0,0,0.011935763888888876,22.4273003472222,0)" xlink:href="#v"/><use transform="matrix(0.011935763888888876,0,0,0.011935763888888876,28.359374999999968,0)" xlink:href="#v"/><use transform="matrix(0.011935763888888876,0,0,0.011935763888888876,34.29144965277774,0)" xlink:href="#w"/><use transform="matrix(0.011935763888888876,0,0,0.011935763888888876,48.23242187499995,0)" xlink:href="#J"/></g><path fill="#333" d="M258 11c-71 0-114-43-114-108 0-67 42-112 114-112s116 45 116 112c-1 65-45 108-116 108" id="K"/><g id="i"><use transform="matrix(0.011935763888888876,0,0,0.011935763888888876,0,0)" xlink:href="#y"/><use transform="matrix(0.011935763888888876,0,0,0.011935763888888876,13.463541666666652,0)" xlink:href="#C"/><use transform="matrix(0.011935763888888876,0,0,0.011935763888888876,27.249348958333304,0)" xlink:href="#q"/><use transform="matrix(0.011935763888888876,0,0,0.011935763888888876,34.052734374999964,0)" xlink:href="#K"/></g><path fill="#333" d="M972-643H361V0H169v-1456h902v158H361v498h611v157" id="L"/><path fill="#333" d="M491 20c-241-1-355-148-355-398v-704h185v699c0 164 67 246 200 246 141 0 235-53 282-158v-787h185V0H812l-4-107C736-22 630 20 491 20" id="M"/><g id="j"><use transform="matrix(0.011935763888888876,0,0,0.011935763888888876,0,0)" xlink:href="#L"/><use transform="matrix(0.011935763888888876,0,0,0.011935763888888876,13.511284722222207,0)" xlink:href="#v"/><use transform="matrix(0.011935763888888876,0,0,0.011935763888888876,19.44335937499998,0)" xlink:href="#M"/><use transform="matrix(0.011935763888888876,0,0,0.011935763888888876,32.91883680555552,0)" xlink:href="#u"/><use transform="matrix(0.011935763888888876,0,0,0.011935763888888876,45.52300347222217,0)" xlink:href="#y"/></g><path fill="#333" d="M572 20C306 25 99-136 101-391c0-70 20-134 59-193s113-127 223-205c-65-79-108-142-130-190s-33-96-33-143c-3-220 144-354 364-354 187 0 349 127 346 308-3 212-172 290-307 398l324 387c45-87 68-183 68-289h167c0 170-41 311-123 423L1267 0h-222l-97-115C862-36 726 17 572 20zM286-391c0 162 118 260 286 260 98 0 188-37 269-112L486-668c-110 72-200 183-200 277zm297-933c-109 0-180 87-178 196 0 64 39 144 118 240 93-79 236-119 236-280 0-91-82-156-176-156" id="N"/><use transform="matrix(0.011935763888888876,0,0,0.011935763888888876,0,0)" xlink:href="#N" id="k"/><path fill="#333" d="M277-555c0 244 77 420 297 424 127 2 249-93 255-210h175C980-127 805 20 574 20 258 20 81-222 92-562c11-319 164-533 481-540 237-5 426 165 431 392H829c-7-133-115-242-256-240-209 4-296 166-296 395" id="O"/><g id="l"><use transform="matrix(0.011935763888888876,0,0,0.011935763888888876,0,0)" xlink:href="#u"/><use transform="matrix(0.011935763888888876,0,0,0.011935763888888876,12.604166666666654,0)" xlink:href="#I"/><use transform="matrix(0.011935763888888876,0,0,0.011935763888888876,20.804036458333314,0)" xlink:href="#t"/><use transform="matrix(0.011935763888888876,0,0,0.011935763888888876,33.75434027777774,0)" xlink:href="#F"/><use transform="matrix(0.011935763888888876,0,0,0.011935763888888876,47.24175347222217,0)" xlink:href="#O"/><use transform="matrix(0.011935763888888876,0,0,0.011935763888888876,60.03689236111104,0)" xlink:href="#t"/></g><g id="m"><use transform="matrix(0.011935763888888876,0,0,0.011935763888888876,0,0)" xlink:href="#y"/><use transform="matrix(0.011935763888888876,0,0,0.011935763888888876,13.463541666666652,0)" xlink:href="#t"/><use transform="matrix(0.011935763888888876,0,0,0.011935763888888876,26.413845486111082,0)" xlink:href="#r"/><use transform="matrix(0.011935763888888876,0,0,0.011935763888888876,39.710286458333286,0)" xlink:href="#C"/><use transform="matrix(0.011935763888888876,0,0,0.011935763888888876,53.49609374999993,0)" xlink:href="#t"/><use transform="matrix(0.011935763888888876,0,0,0.011935763888888876,66.44639756944437,0)" xlink:href="#q"/></g><path fill="#333" d="M574-1476c351 0 454 237 460 615v240c0 217-37 378-111 483S733 20 576 20c-346 0-454-246-461-616v-247c0-214 37-373 111-477s190-156 348-156zm275 905c0-337 59-752-275-753-95 0-160 38-207 107-80 118-66 409-67 625 0 157 22 273 68 348s115 113 208 113c91 0 160-35 204-106s69-182 69-334" id="P"/><use transform="matrix(0.007595486111111095,0,0,0.007595486111111095,0,0)" xlink:href="#P" id="n"/></defs></g></svg>