<svg xmlns="http://www.w3.org/2000/svg" xmlns:xlink="http://www.w3.org/1999/xlink" xmlns:lucid="lucid" width="671.97" height="719.22"><g transform="translate(-290.83688341870254 -3840)" lucid:page-tab-id="TUeFqcWnyFPZ"><path d="M460 3860h60v60.53h-60z" stroke="#202124" fill="#fff"/><use xlink:href="#a" transform="matrix(1,0,0,1,465,3865) translate(18.136935763888896 35.427951388888864)"/><path d="M520 3860h60v60.53h-60z" stroke="#202124" fill="#fff"/><use xlink:href="#b" transform="matrix(1,0,0,1,525,3865) translate(18.136935763888896 35.427951388888864)"/><path d="M580 3860h60v60.53h-60z" stroke="#202124" fill="#fff"/><use xlink:href="#c" transform="matrix(1,0,0,1,585,3865) translate(18.136935763888896 35.427951388888864)"/><path d="M640 3860h60v60.53h-60z" stroke="#202124" fill="#fff"/><use xlink:href="#d" transform="matrix(1,0,0,1,645,3865) translate(18.136935763888896 35.427951388888864)"/><path d="M700 3860h60v60.53h-60z" stroke="#202124" fill="#fff"/><use xlink:href="#e" transform="matrix(1,0,0,1,705,3865) translate(18.136935763888896 35.427951388888864)"/><path d="M760 3860h60v60.53h-60z" stroke="#202124" fill="#fff"/><use xlink:href="#f" transform="matrix(1,0,0,1,765,3865) translate(18.136935763888896 35.427951388888864)"/><path d="M820 3860h60v60.53h-60z" stroke="#202124" fill="#fff"/><use xlink:href="#g" transform="matrix(1,0,0,1,825,3865) translate(18.136935763888896 35.427951388888864)"/><path d="M370.07 3870.7h72.05v39.14h-72.05z" stroke="#000" stroke-opacity="0" fill="#fff" fill-opacity="0"/><use xlink:href="#h" transform="matrix(1,0,0,1,375.0695523456443,3875.6859254314186) translate(-9.1651475694444 23.355034722222214)"/><path d="M321 4060h578M321.03 4060H320M898.97 4060H900M540 4001v318M540 4001.03V4000M540 4318.97v1.03" stroke="#202124" stroke-width="2" fill="none"/><path d="M310.84 3992.7h183.1v67.3h-183.1z" stroke="#000" stroke-opacity="0" fill="#fff" fill-opacity="0"/><use xlink:href="#i" transform="matrix(1,0,0,1,315.83688341870254,3997.7083333333326) translate(57.041449652777914 37.177951388888864)"/><use xlink:href="#j" transform="matrix(1,0,0,1,315.83688341870254,3997.7083333333326) translate(108.67556423611119 37.177951388888864)"/><path d="M323.43 4060h170.5v60.04h-170.5z" stroke="#000" stroke-opacity="0" fill="#fff" fill-opacity="0"/><use xlink:href="#k" transform="matrix(1,0,0,1,328.43398724748954,4065) translate(0 35.427951388888864)"/><path d="M360 4100h140v60H360z" stroke="#000" stroke-opacity="0" fill="#fff" fill-opacity="0"/><use xlink:href="#l" transform="matrix(1,0,0,1,365,4105) translate(102.8580729166667 32.052951388888864)"/><path d="M360 4150h140v60H360z" stroke="#000" stroke-opacity="0" fill="#fff" fill-opacity="0"/><use xlink:href="#m" transform="matrix(1,0,0,1,365,4155) translate(102.8580729166667 32.052951388888864)"/><path d="M360 4200h140v60H360z" stroke="#000" stroke-opacity="0" fill="#fff" fill-opacity="0"/><use xlink:href="#n" transform="matrix(1,0,0,1,365,4205) translate(102.8580729166667 32.052951388888864)"/><path d="M366.88 4067.67h173.98v52.86H366.88z" stroke="#000" stroke-opacity="0" fill="#fff" fill-opacity="0"/><use xlink:href="#o" transform="matrix(1,0,0,1,371.8810600164091,4072.6731029117946) translate(0 27.86892361111108)"/><use xlink:href="#p" transform="matrix(1,0,0,1,371.8810600164091,4072.6731029117946) translate(107.88628472222199 27.86892361111108)"/><use xlink:href="#q" transform="matrix(1,0,0,1,371.8810600164091,4072.6731029117946) translate(143.0154079861108 27.86892361111108)"/><path d="M321 4261.67h578M321.03 4261.67H320M898.97 4261.67H900" stroke="#202124" stroke-width="2" fill="none"/><path d="M310.84 4260h183.1v67.3h-183.1z" stroke="#000" stroke-opacity="0" fill="#fff" fill-opacity="0"/><use xlink:href="#r" transform="matrix(1,0,0,1,315.83688341870254,4265) translate(131.56835937500006 37.177951388888864)"/><path d="M532.4 4260h241.32v67.3H532.4z" stroke="#000" stroke-opacity="0" fill="#fff" fill-opacity="0"/><use xlink:href="#s" transform="matrix(1,0,0,1,537.3957397793527,4265) translate(0 37.177951388888864)"/><use xlink:href="#t" transform="matrix(1,0,0,1,537.3957397793527,4265) translate(38.86284722222218 37.177951388888864)"/><use xlink:href="#u" transform="matrix(1,0,0,1,537.3957397793527,4265) translate(63.99956597222216 37.177951388888864)"/><use xlink:href="#t" transform="matrix(1,0,0,1,537.3957397793527,4265) translate(83.77712673611103 37.177951388888864)"/><use xlink:href="#v" transform="matrix(1,0,0,1,537.3957397793527,4265) translate(108.913845486111 37.177951388888864)"/><use xlink:href="#t" transform="matrix(1,0,0,1,537.3957397793527,4265) translate(128.69140624999986 37.177951388888864)"/><use xlink:href="#w" transform="matrix(1,0,0,1,537.3957397793527,4265) translate(153.82812499999983 37.177951388888864)"/><path d="M532.4 3992.7h366.8v67.3H532.4z" stroke="#000" stroke-opacity="0" fill="#fff" fill-opacity="0"/><use xlink:href="#x" transform="matrix(1,0,0,1,537.3957397793529,3997.7083333333317) translate(0 37.177951388888864)"/><use xlink:href="#t" transform="matrix(1,0,0,1,537.3957397793529,3997.7083333333317) translate(38.86284722222218 37.177951388888864)"/><use xlink:href="#y" transform="matrix(1,0,0,1,537.3957397793529,3997.7083333333317) translate(63.99956597222216 37.177951388888864)"/><use xlink:href="#t" transform="matrix(1,0,0,1,537.3957397793529,3997.7083333333317) translate(83.77712673611103 37.177951388888864)"/><use xlink:href="#z" transform="matrix(1,0,0,1,537.3957397793529,3997.7083333333317) translate(108.913845486111 37.177951388888864)"/><use xlink:href="#t" transform="matrix(1,0,0,1,537.3957397793529,3997.7083333333317) translate(128.69140624999986 37.177951388888864)"/><use xlink:href="#A" transform="matrix(1,0,0,1,537.3957397793529,3997.7083333333317) translate(153.82812499999983 37.177951388888864)"/><use xlink:href="#t" transform="matrix(1,0,0,1,537.3957397793529,3997.7083333333317) translate(173.6056857638887 37.177951388888864)"/><use xlink:href="#B" transform="matrix(1,0,0,1,537.3957397793529,3997.7083333333317) translate(198.74240451388866 37.177951388888864)"/><use xlink:href="#t" transform="matrix(1,0,0,1,537.3957397793529,3997.7083333333317) translate(218.51996527777752 37.177951388888864)"/><use xlink:href="#u" transform="matrix(1,0,0,1,537.3957397793529,3997.7083333333317) translate(243.6566840277775 37.177951388888864)"/><use xlink:href="#t" transform="matrix(1,0,0,1,537.3957397793529,3997.7083333333317) translate(263.43424479166634 37.177951388888864)"/><use xlink:href="#C" transform="matrix(1,0,0,1,537.3957397793529,3997.7083333333317) translate(288.57096354166634 37.177951388888864)"/><use xlink:href="#t" transform="matrix(1,0,0,1,537.3957397793529,3997.7083333333317) translate(308.3485243055552 37.177951388888864)"/><use xlink:href="#D" transform="matrix(1,0,0,1,537.3957397793529,3997.7083333333317) translate(333.4852430555552 37.177951388888864)"/><path d="M532.4 4146.35h183.1v67.3H532.4z" stroke="#000" stroke-opacity="0" fill="#fff" fill-opacity="0"/><use xlink:href="#E" transform="matrix(1,0,0,1,537.3957397793528,4151.354166666666) translate(0 37.177951388888864)"/><path d="M868.84 4138.6l-6.45 10.82-8.8 16.28-35.52 70.54-5.77 9.67-4.73 7.24-4.13 5.76-3.72 4.75-3.42 4-3.2 3.45-3 3-2.9 2.6-2.77 2.33-2.68 2.06-2.62 1.84-2.57 1.65-2.53 1.47-2.5 1.32-2.5 1.18-2.5 1.07-2.5.95-2.52.83-1.07.3-.28-.95 1.06-.3 2.5-.83 2.47-.93 2.45-1.05 2.46-1.17 2.47-1.3 2.5-1.47 2.52-1.62 2.6-1.8 2.64-2.05 2.75-2.3 2.85-2.6 3-2.95 3.15-3.4 3.4-4 3.7-4.7 4.1-5.73 4.7-7.2 5.75-9.6 35.5-70.54 8.82-16.3 6.48-10.86 1.05-1.6h1.2zm-1.07-163.38l11.4 1.18 8.68 1.26 7.05 1.34 6 1.4 4.58 1.26 4.3 1.37 3.63 1.32 3.1 1.27 2.67 1.24 2.33 1.2 2.04 1.16 1.8 1.13 1.62 1.1 1.43 1.07 1.3 1.06 1.15 1.04 1.06 1.02.98 1.02.88 1 .8 1 .74 1 .67 1 .62 1 .56 1.03.52 1.02.47 1.04.43 1.07.4 1.08.33 1.13.3 1.15.27 1.2.22 1.22.16 1.3.12 1.33.07 1.42v1.5l-.05 1.6-.13 1.7-.22 1.86-.33 2-.45 2.2-.6 2.4-.8 2.7-1.05 3.06-1.36 3.5-1.8 4.1-2.4 4.92-3.34 6.13-4.85 8.13-8.07 12.25-20.8 28.93h-1.24l21.2-29.48 8.06-12.23 4.83-8.08 3.3-6.1 2.4-4.88 1.78-4.06 1.35-3.46 1.03-3 .8-2.67.6-2.38.44-2.14.3-1.96.23-1.8.13-1.67.06-1.56v-1.46l-.08-1.38-.1-1.3-.18-1.25-.2-1.2-.26-1.14-.3-1.1-.32-1.07-.38-1.05-.4-1.02-.46-1-.5-1-.55-.98-.6-.97-.65-.96-.7-.97-.8-.96-.84-.97-.94-.98-1.03-1-1.13-1-1.26-1.04-1.4-1.04-1.58-1.08-1.77-1.1-2-1.14-2.3-1.18-2.63-1.22-3.06-1.26-3.58-1.3-4.26-1.36-4.55-1.25-5.95-1.4-7.02-1.32-8.63-1.26-11.36-1.2-16.86-1-169.48.66v-1l169.5-.67z" fill="#5e5e5e"/><path d="M681.37 3975.86h-.5l-.02-1h.52zM760.56 4295.9l-14.8-2.37 13.36-6.78z" fill="#5e5e5e"/><path d="M761.16 4296.5l-17-2.72 15.35-7.8zm-13.82-3.22l12.62 2.03-1.22-7.8z" fill="#5e5e5e"/><use xlink:href="#F" transform="matrix(1,0,0,1,819.8008078454294,4102.61111469642) translate(0.005000000000002558 26.801215277777775)"/><use xlink:href="#G" transform="matrix(1,0,0,1,819.8008078454294,4102.61111469642) translate(33.59115451388889 26.801215277777775)"/><use xlink:href="#H" transform="matrix(1,0,0,1,819.8008078454294,4102.61111469642) translate(91.89085069444442 26.801215277777775)"/><path d="M652.16 4011.88l29.15-36.5M652.17 4011.87l-.32.4M681.3 3975.4l.32-.4M788.1 4012.5l29.92-37.6M788.1 4012.48l-.3.4M818.02 3974.9l.32-.4M876.8 4012.58l22.6-31.42M876.8 4012.57l-.3.42M899.4 3981.17l.28-.42" stroke="#5e5e5e" fill="none"/><path d="M600.9 4421.4v117.55M600.9 4421.4v-1M600.9 4538.92v1.03M420.05 4480.3h451.7M420.08 4480.3h-1.03M871.72 4480.3h1.03" stroke="#202124" stroke-width="2" fill="none"/><path d="M397.8 4480.3h183.1v58.92H397.8z" stroke="#000" stroke-opacity="0" fill="#fff" fill-opacity="0"/><use xlink:href="#I" transform="matrix(1,0,0,1,402.7940378040643,4485.2888091920095) translate(43.148220486111256 31.865451388888864)"/><use xlink:href="#J" transform="matrix(1,0,0,1,402.7940378040643,4485.2888091920095) translate(132.86935763888894 31.865451388888864)"/><path d="M397.8 4420.4h183.1v59.9H397.8z" stroke="#000" stroke-opacity="0" fill="#fff" fill-opacity="0"/><use xlink:href="#K" transform="matrix(1,0,0,1,402.7940378040642,4425.4097492142355) translate(46.57378472222234 32.052951388888864)"/><use xlink:href="#L" transform="matrix(1,0,0,1,402.7940378040642,4425.4097492142355) translate(107.1477864583334 32.052951388888864)"/><path d="M660.7 4421.4v117.5M660.7 4421.4v-1M660.7 4538.86v1.03M719.54 4421.4v117.68M719.54 4421.4v-1M719.54 4539.06v1.02M780.9 4421.4v117.68M780.9 4421.4v-1M780.9 4539.06v1.02M840 4421.4v117.57M840 4421.4v-1M840 4538.94v1.03" stroke="#202124" stroke-width="2" fill="none"/><path d="M720 4420.4h60.9v59.9H720z" fill="#fff" fill-opacity="0"/><use xlink:href="#M" transform="matrix(1,0,0,1,725.0000000000001,4425.4097492142355) translate(14.871202256944455 32.052951388888864)"/><path d="M660 4420.4h60.9v59.9H660z" fill="#fff" fill-opacity="0"/><use xlink:href="#M" transform="matrix(1,0,0,1,665,4425.4097492142355) translate(14.871202256944455 32.052951388888864)"/><path d="M780 4420.4h60.9v59.9H780z" fill="#fff" fill-opacity="0"/><use xlink:href="#M" transform="matrix(1,0,0,1,785.0000000000001,4425.4097492142355) translate(14.871202256944455 32.052951388888864)"/><path d="M720.7 4480.3h60.9v52.96h-60.9z" fill="#fff" fill-opacity="0"/><g><use xlink:href="#N" transform="matrix(1,0,0,1,725.7103186907965,4485.2888091920095) translate(18.487738715277786 30.740451388888864)"/></g><path d="M660.7 4480.3h60.9v52.96h-60.9z" fill="#fff" fill-opacity="0"/><g><use xlink:href="#O" transform="matrix(1,0,0,1,665.7103186907965,4485.2888091920095) translate(18.487738715277786 30.740451388888864)"/></g><path d="M780.7 4480.3h60.9v52.96h-60.9z" fill="#fff" fill-opacity="0"/><g><use xlink:href="#P" transform="matrix(1,0,0,1,785.7103186907965,4485.2888091920095) translate(18.487738715277786 30.740451388888864)"/></g><path d="M600.7 4480.3h60.9v52.96h-60.9z" fill="#fff" fill-opacity="0"/><g><use xlink:href="#Q" transform="matrix(1,0,0,1,605.7103186907965,4485.2888091920095) translate(18.487738715277786 30.740451388888864)"/></g><path d="M600.7 4420.4h60v59.9h-60z" stroke="#000" stroke-opacity="0" fill="#fff" fill-opacity="0"/><g><use xlink:href="#b" transform="matrix(1,0,0,1,605.7103186907965,4425.4097492142355) translate(18.636935763888896 32.052951388888864)"/></g><path d="M567.48 4309.04l76 28 13.75 5.95 6.6 3.2 3.8 2.1 2.45 1.5 1.67 1.13 1.2.88.86.74.68.6.5.5.42.45.32.38.26.34.22.3.17.3.14.25.13.24.1.23.08.2.08.2.05.18.04.2.03.15.02.17.02.15V4357.82l-.02.14-.02.15-.02.15-.04.14-.04.13-.05.15-.05.14-.07.15-.08.15-.08.16-.1.16-.12.16-.13.18-.15.18-.18.2-.22.2-.24.2-.28.24-.34.25-.2.14-33.13 23.9-4.86 4.65-2.1 2.58-1.18 1.87-.45.9-1.1 3.14-.3 3v1M567.5 4309.05l-.5-.18" stroke="#5e5e5e" fill="none"/><path d="M631.53 4417.02l-4.67-14.25 9.27-.03z" stroke="#5e5e5e" fill="#5e5e5e"/><g><use xlink:href="#R" transform="matrix(1,0,0,1,683.444384509226,4336.073538734631) translate(0.0049999999999954525 26.801215277777775)"/><use xlink:href="#S" transform="matrix(1,0,0,1,683.444384509226,4336.073538734631) translate(32.58963541666665 26.801215277777775)"/><use xlink:href="#T" transform="matrix(1,0,0,1,683.444384509226,4336.073538734631) translate(87.56033854166664 26.801215277777775)"/><use xlink:href="#U" transform="matrix(1,0,0,1,683.444384509226,4336.073538734631) translate(110.93381944444441 26.801215277777775)"/><use xlink:href="#V" transform="matrix(1,0,0,1,683.444384509226,4336.073538734631) translate(195.82314236111108 26.801215277777775)"/></g><path d="M571.98 4371.57l10.47 1.2 5.33.85 3.72.76 2.88.7 2.36.7 2 .68 1.76.68 1.55.68 1.4.68 1.3.7 1.17.7 1.1.72 1.05.75 1 .77.94.8.9.84.9.88.84.93.83.98.82 1.06.8 1.14.8 1.23.8 1.37.78 1.5.8 1.66.8 1.88.82 2.15.84 2.5.84 2.96.87 3.6.9 4.48.8 5.33-.97.16-.83-5.3-.87-4.45-.86-3.54-.84-2.9-.82-2.47-.8-2.12-.8-1.84-.77-1.63-.8-1.44-.76-1.32-.78-1.2-.78-1.1-.8-1.03-.8-.95-.8-.9-.86-.85-.88-.8-.9-.8-.96-.73-1-.72-1.1-.7-1.14-.7-1.24-.66-1.37-.67-1.5-.67-1.72-.66-1.96-.66-2.32-.68-2.84-.7-3.68-.75-5.3-.84-10.43-1.2-16.73-1.7v-1.02zm-35.13-178.66l-1.8.63-13.23 3.86-67.3 14.5-10.8 2.65-7.14 2.08-5.46 1.85-4.46 1.72-3.8 1.65-3.3 1.6-2.95 1.6-2.64 1.57-2.42 1.58-2.23 1.6-2.06 1.6-1.94 1.65-1.83 1.7-1.74 1.73-1.65 1.8-.96 1.14-1.1 1.4-1 1.42-.97 1.47-.9 1.53-.84 1.56-.77 1.6-.73 1.67-.66 1.73-.6 1.78-.53 1.85-.46 1.92-.4 2-.32 2.07-.25 2.15-.15 2.24-.06 2.33.03 2.42.14 2.5.26 2.62.4 2.7.5 2.82.68 2.9.83 3 1 3.07 1.18 3.17 1.35 3.23 1.55 3.3 1.75 3.36 1.96 3.38 2.15 3.4 2.38 3.42 2.58 3.38 2.8 3.36 2.98 3.3 3.2 3.23 3.36 3.13 3.56 3.04 3.73 2.93 3.9 2.8 3.58 2.35h-1.8l-2.33-1.52-3.94-2.83-3.76-2.95-3.6-3.07-3.4-3.18-3.2-3.26-3.03-3.33-2.82-3.37-2.6-3.42-2.4-3.43-2.2-3.44-1.96-3.42-1.77-3.38-1.58-3.34-1.37-3.28-1.2-3.2-1-3.13-.84-3.03-.67-2.95-.53-2.86-.4-2.75-.26-2.66-.15-2.55-.04-2.47.06-2.37.16-2.28.25-2.2.32-2.1.4-2.04.5-1.96.54-1.9.6-1.82.68-1.77.74-1.7.8-1.67.86-1.6.92-1.55 1-1.5 1.03-1.47 1.1-1.4 1-1.18 1.68-1.83 1.77-1.78 1.86-1.72 1.98-1.67 2.1-1.64 2.28-1.63 2.45-1.6 2.7-1.6 2.97-1.6 3.35-1.63 3.83-1.66 4.5-1.74 5.5-1.86 7.17-2.1 10.84-2.66 67.27-14.5 13.17-3.85 1.8-.6z" fill="#5e5e5e"/><path d="M624.24 4417.9l-1 .15-.07-.5 1-.16zM538.7 4196.65l-3.08-8.75 15-.37z" fill="#5e5e5e"/><path d="M538.46 4197.46l-3.54-10.04 17.22-.42zm-2.14-9.08l2.62 7.45 10.15-7.76z" fill="#5e5e5e"/><g><use xlink:href="#W" transform="matrix(1,0,0,1,397.41900419010676,4340.951084155236) translate(0.0049999999999954525 26.801215277777775)"/><use xlink:href="#X" transform="matrix(1,0,0,1,397.41900419010676,4340.951084155236) translate(33.055130208333324 26.801215277777775)"/><use xlink:href="#Y" transform="matrix(1,0,0,1,397.41900419010676,4340.951084155236) translate(117.74697048611108 26.801215277777775)"/></g><path d="M583.93 4179.75l106.83.67 3.54.28 2.9.36 2.8.47 3.3.7 5.46 1.4 11.84 3.46 1.17.37 1.15.43 1.13.5 1.1.53 1.1.6 1.1.66 1.1.7 1.06.8 1.08.88 1.07.95 1.06 1.04 1.07 1.14 1.05 1.25 1.05 1.36 1.04 1.5 1.03 1.6 1 1.78 1 1.93.95 2.1.92 2.3.86 2.48.8 2.68.7 2.9.62 3.07.5 3.28.35 3.47.2 3.6.04 3.73-.13 3.8-.32 3.87-.5 3.86-.67 3.83-.84 3.76-1 3.67-1.13 3.53-1.28 3.4-1.4 3.26-1.5 3.1-1.6 2.93-1.67 2.78-1.75 2.63-1.83 2.47-1.88 2.32-.62.7M583.94 4179.75h-.5" stroke="#0c7cba" fill="none"/><path d="M716.68 4294.3l7.68-12.88 6.1 6.97z" stroke="#0c7cba" fill="#0c7cba"/><g><use xlink:href="#Z" transform="matrix(1,0,0,1,602.9398173366217,4142.566951578155) translate(0.0049999999999954525 26.801215277777775)"/><use xlink:href="#aa" transform="matrix(1,0,0,1,602.9398173366217,4142.566951578155) translate(32.928177083333324 26.801215277777775)"/><use xlink:href="#ab" transform="matrix(1,0,0,1,602.9398173366217,4142.566951578155) translate(148.34267361111108 26.801215277777775)"/></g><path d="M532.4 4092.7h366.8v67.3H532.4z" stroke="#000" stroke-opacity="0" fill="#fff" fill-opacity="0"/><g><use xlink:href="#ac" transform="matrix(1,0,0,1,537.3957397793529,4097.708333333332) translate(0 37.177951388888864)"/></g><path d="M532.4 4192.7h366.8v67.3H532.4z" stroke="#000" stroke-opacity="0" fill="#fff" fill-opacity="0"/><g><use xlink:href="#ac" transform="matrix(1,0,0,1,537.3957397793529,4197.708333333332) translate(0 37.177951388888864)"/></g><defs><path fill="#333" d="M729 0H543v-1233l-373 137v-168l530-199h29V0" id="ad"/><use transform="matrix(0.011935763888888876,0,0,0.011935763888888876,0,0)" xlink:href="#ad" id="a"/><path fill="#333" d="M569-1476c255 0 440 146 439 390 0 143-91 314-274 512L344-151h731V0H121v-133l504-560c75-85 125-155 155-207 105-184 6-424-211-424-183 0-293 113-291 297H93c-3-270 199-449 476-449" id="ae"/><use transform="matrix(0.011935763888888876,0,0,0.011935763888888876,0,0)" xlink:href="#ae" id="b"/><path fill="#333" d="M832-402c-1-179-119-264-303-265H390v-151h139c164 0 281-91 281-250 0-171-85-256-255-256-154 0-265 99-263 250H107c-4-235 205-402 448-402 266 0 444 150 440 412-2 148-109 272-229 317 147 45 249 158 251 341 3 262-197 426-461 426C299 20 91-135 94-384h186c-2 156 116 253 276 253 176 0 277-96 276-271" id="af"/><use transform="matrix(0.011935763888888876,0,0,0.011935763888888876,0,0)" xlink:href="#af" id="c"/><path fill="#333" d="M902-489h202v151H902V0H716v-338H53v-109l652-1009h197v967zm-639 0h453v-714l-22 40" id="ag"/><use transform="matrix(0.011935763888888876,0,0,0.011935763888888876,0,0)" xlink:href="#ag" id="d"/><path fill="#333" d="M884-462c0-185-111-323-291-323-113 0-183 39-239 93l-148-38 74-726h746v171H437l-44 397c71-42 152-63 243-63 273-2 433 205 433 487 0 293-170 484-461 484-260 0-436-159-454-403h175c20 156 111 252 279 252 182 0 276-140 276-331" id="ah"/><use transform="matrix(0.011935763888888876,0,0,0.011935763888888876,0,0)" xlink:href="#ah" id="e"/><path fill="#333" d="M132-554c0-555 187-908 715-903v157c-320-8-501 179-526 477 77-88 181-132 314-132 259 0 417 214 417 480 0 286-172 495-451 495-293 0-469-266-469-574zm737 88c0-181-95-335-265-335-133 0-252 96-286 200v68c-6 207 101 397 283 400 175 3 268-150 268-333" id="ai"/><use transform="matrix(0.011935763888888876,0,0,0.011935763888888876,0,0)" xlink:href="#ai" id="f"/><path fill="#333" d="M1061-1352L458 0H264l601-1304H77v-152h984v104" id="aj"/><use transform="matrix(0.011935763888888876,0,0,0.011935763888888876,0,0)" xlink:href="#aj" id="g"/><path fill="#333" d="M688-137c238 0 323-102 359-325h193c-32 297-228 482-552 482-361 0-569-299-569-680 0-197 8-360 73-497 88-186 257-317 513-319 316-2 509 195 535 488h-193c-31-212-118-330-342-330-272 0-397 224-393 523v141c-3 282 115 517 376 517" id="ak"/><path fill="#333" d="M589-945c-131 0-219 81-264 174V0H140v-1536h185v585c82-101 189-151 320-151 229 0 346 129 346 387V0H806v-716c-2-153-65-229-217-229" id="al"/><path fill="#333" d="M491 20c-241-1-355-148-355-398v-704h185v699c0 164 67 246 200 246 141 0 235-53 282-158v-787h185V0H812l-4-107C736-22 630 20 491 20" id="am"/><path fill="#333" d="M589-945c-131 0-219 81-264 174V0H140v-1082h175l6 136c83-104 191-156 324-156 229 0 346 129 346 387V0H806v-716c-2-153-65-229-217-229" id="an"/><path fill="#333" d="M442-501L326-380V0H141v-1536h185v929c135-169 291-317 436-475h225L566-630 1036 0H819" id="ao"/><path fill="#333" d="M538-131c121 0 232-49 232-156 0-50-20-88-56-117-73-60-334-92-420-143-92-55-162-110-162-238 0-190 192-317 400-317 223 0 414 129 413 338H759c0-108-110-186-227-186-119 0-215 53-215 159 0 45 18 78 53 101 76 52 331 90 416 139 98 57 169 115 169 251C955-92 760 20 538 20c-176 0-314-68-386-174-38-55-57-115-57-179h185c6 129 116 202 258 202" id="ap"/><g id="h"><use transform="matrix(0.011935763888888876,0,0,0.011935763888888876,0,0)" xlink:href="#ak"/><use transform="matrix(0.011935763888888876,0,0,0.011935763888888876,15.910373263888872,0)" xlink:href="#al"/><use transform="matrix(0.011935763888888876,0,0,0.011935763888888876,29.373914930555525,0)" xlink:href="#am"/><use transform="matrix(0.011935763888888876,0,0,0.011935763888888876,42.849392361111065,0)" xlink:href="#an"/><use transform="matrix(0.011935763888888876,0,0,0.011935763888888876,56.33680555555549,0)" xlink:href="#ao"/><use transform="matrix(0.011935763888888876,0,0,0.011935763888888876,68.72612847222214,0)" xlink:href="#ap"/></g><path fill="#333" d="M1098-255l208-827h185L1176 0h-150L763-820 507 0H357L43-1082h184l213 810 252-810h149" id="aq"/><path fill="#333" d="M561-1102c238-4 403 126 403 351v498c0 99 13 178 38 237V0H808c-11-21-19-59-26-114C696-25 593 20 474 20c-199 0-368-130-365-320 4-251 214-359 490-356h180v-85c-1-135-86-212-229-212-115 0-232 67-233 171H131c20-205 206-316 430-320zM294-326c0 117 90 185 207 185 122 0 239-75 278-162v-222H634c-227 0-340 66-340 199" id="ar"/><path fill="#333" d="M341 0H156v-1082h185V0zm-91-1264c-68 0-108-42-109-105 0-62 41-107 109-107s110 44 110 107-42 105-110 105" id="as"/><path fill="#333" d="M456 20C285 20 205-92 206-268v-671H9v-143h197v-262h185v262h202v143H391v671c-9 125 92 149 207 118V0c-49 13-96 20-142 20" id="at"/><g id="i"><use transform="matrix(0.011935763888888876,0,0,0.011935763888888876,0,0)" xlink:href="#aq"/><use transform="matrix(0.011935763888888876,0,0,0.011935763888888876,18.36914062499998,0)" xlink:href="#ar"/><use transform="matrix(0.011935763888888876,0,0,0.011935763888888876,31.66558159722219,0)" xlink:href="#as"/><use transform="matrix(0.011935763888888876,0,0,0.011935763888888876,37.59765624999996,0)" xlink:href="#at"/></g><path fill="#333" d="M663-916c-163-27-288 18-338 148V0H140v-1082h180l3 125c61-97 147-145 258-145 36 0 63 5 82 14v172" id="au"/><path fill="#333" d="M599-131c141 0 220-65 285-146l113 88C906-50 770 20 589 20 281 21 93-214 93-545c0-223 93-397 233-485 74-48 154-72 240-72 300 2 449 218 445 537v77H278c0 197 129 357 321 357zm227-509c-3-180-88-310-260-310-170 0-264 140-282 310h542" id="av"/><path fill="#333" d="M632-1102c291 0 422 251 422 573 0 297-141 548-419 549-131 0-235-42-310-125v521H140v-1498h169l9 120c75-93 180-140 314-140zm-53 971c207 0 290-180 290-419 0-218-92-395-292-395-112 0-196 50-252 149v517c55 99 140 148 254 148" id="aw"/><path fill="#333" d="M341 0H156v-1536h185V0" id="ax"/><path fill="#333" d="M494-271l252-811h198L509 167C425 381 299 474 84 421V271c167 16 242-37 283-173l41-110L22-1082h202" id="ay"/><g id="j"><use transform="matrix(0.011935763888888876,0,0,0.011935763888888876,0,0)" xlink:href="#au"/><use transform="matrix(0.011935763888888876,0,0,0.011935763888888876,8.044704861111102,0)" xlink:href="#av"/><use transform="matrix(0.011935763888888876,0,0,0.011935763888888876,20.995008680555532,0)" xlink:href="#aw"/><use transform="matrix(0.011935763888888876,0,0,0.011935763888888876,34.70920138888885,0)" xlink:href="#ax"/><use transform="matrix(0.011935763888888876,0,0,0.011935763888888876,40.64127604166662,0)" xlink:href="#ar"/><use transform="matrix(0.011935763888888876,0,0,0.011935763888888876,53.7586805555555,0)" xlink:href="#ay"/></g><path fill="#333" d="M704-1390c-164-38-297 28-288 194v114h231v143H416V0H231v-939H60v-143h171v-111c-12-274 208-416 483-347" id="az"/><path fill="#333" d="M248 11c-71 0-114-43-114-108 0-67 42-112 114-112s116 45 116 112c-1 65-45 108-116 108zm1-883c-71 0-114-43-114-108 0-67 42-112 114-112s116 45 116 112c-1 65-45 108-116 108" id="aA"/><g id="k"><use transform="matrix(0.011935763888888876,0,0,0.011935763888888876,0,0)" xlink:href="#az"/><use transform="matrix(0.011935763888888876,0,0,0.011935763888888876,8.486328124999991,0)" xlink:href="#am"/><use transform="matrix(0.011935763888888876,0,0,0.011935763888888876,21.961805555555532,0)" xlink:href="#ax"/><use transform="matrix(0.011935763888888876,0,0,0.011935763888888876,27.893880208333304,0)" xlink:href="#ax"/><use transform="matrix(0.011935763888888876,0,0,0.011935763888888876,33.82595486111107,0)" xlink:href="#aA"/></g><path fill="#333" d="M986-814H152v-161h834v161zm0 415H152v-160h834v160" id="aB"/><path fill="#333" d="M574-1476c351 0 454 237 460 615v240c0 217-37 378-111 483S733 20 576 20c-346 0-454-246-461-616v-247c0-214 37-373 111-477s190-156 348-156zm275 905c0-337 59-752-275-753-95 0-160 38-207 107-80 118-66 409-67 625 0 157 22 273 68 348s115 113 208 113c91 0 160-35 204-106s69-182 69-334" id="aC"/><g id="l"><use transform="matrix(0.011935763888888876,0,0,0.011935763888888876,0,0)" xlink:href="#aB"/><use transform="matrix(0.011935763888888876,0,0,0.011935763888888876,13.415798611111097,0)" xlink:href="#aC"/></g><g id="m"><use transform="matrix(0.011935763888888876,0,0,0.011935763888888876,0,0)" xlink:href="#aB"/><use transform="matrix(0.011935763888888876,0,0,0.011935763888888876,13.415798611111097,0)" xlink:href="#ad"/></g><g id="n"><use transform="matrix(0.011935763888888876,0,0,0.011935763888888876,0,0)" xlink:href="#aB"/><use transform="matrix(0.011935763888888876,0,0,0.011935763888888876,13.415798611111097,0)" xlink:href="#ae"/></g><path fill="#333" d="M277-555c0 244 77 420 297 424 127 2 249-93 255-210h175C980-127 805 20 574 20 258 20 81-222 92-562c11-319 164-533 481-540 237-5 426 165 431 392H829c-7-133-115-242-256-240-209 4-296 166-296 395" id="aD"/><path fill="#333" d="M258 11c-71 0-114-43-114-108 0-67 42-112 114-112s116 45 116 112c-1 65-45 108-116 108" id="aE"/><path fill="#333" d="M1240-945c-141 0-250 95-250 227V0H804v-709c0-157-77-236-231-236-121 0-204 52-249 155V0H139v-1082h175l5 120c79-93 186-140 321-140 151 0 254 58 309 174 69-98 181-174 345-174 237 0 362 126 362 377V0h-185v-714c-2-159-67-231-231-231" id="aF"/><path fill="#333" d="M503-687l240-395h216L605-547 970 0H756L506-405 256 0H41l365-547-354-535h214" id="aG"/><path fill="#333" d="M920 151H4V0h916v151" id="aH"/><path fill="#333" d="M521 20C240 20 96-239 96-550c0-303 147-552 427-552 132 0 235 47 309 140l9-120h169V-26c4 277-183 454-459 452-165-1-334-81-400-187l96-111c79 98 176 147 291 147 180 1 288-109 286-290v-93C750-23 649 20 521 20zm48-965c-209 0-287 178-287 416 0 217 86 392 285 392 117 0 202-53 257-159v-494c-57-103-142-155-255-155" id="aI"/><g id="o"><use transform="matrix(0.007595486111111095,0,0,0.007595486111111095,0,0)" xlink:href="#aD"/><use transform="matrix(0.007595486111111095,0,0,0.007595486111111095,8.142361111111095,0)" xlink:href="#al"/><use transform="matrix(0.007595486111111095,0,0,0.007595486111111095,16.71006944444441,0)" xlink:href="#am"/><use transform="matrix(0.007595486111111095,0,0,0.007595486111111095,25.285373263888836,0)" xlink:href="#an"/><use transform="matrix(0.007595486111111095,0,0,0.007595486111111095,33.86827256944437,0)" xlink:href="#ao"/><use transform="matrix(0.007595486111111095,0,0,0.007595486111111095,41.752387152777686,0)" xlink:href="#aE"/><use transform="matrix(0.007595486111111095,0,0,0.007595486111111095,45.846354166666565,0)" xlink:href="#aF"/><use transform="matrix(0.007595486111111095,0,0,0.007595486111111095,59.48025173611098,0)" xlink:href="#ar"/><use transform="matrix(0.007595486111111095,0,0,0.007595486111111095,67.94162326388874,0)" xlink:href="#aG"/><use transform="matrix(0.007595486111111095,0,0,0.007595486111111095,75.6510416666665,0)" xlink:href="#aH"/><use transform="matrix(0.007595486111111095,0,0,0.007595486111111095,82.66927083333316,0)" xlink:href="#at"/><use transform="matrix(0.007595486111111095,0,0,0.007595486111111095,87.75065104166649,0)" xlink:href="#aG"/><use transform="matrix(0.007595486111111095,0,0,0.007595486111111095,95.30815972222202,0)" xlink:href="#aI"/></g><path fill="#333" d="M584 20C278 26 81-227 91-551c10-320 175-545 491-551 308-5 503 247 494 573-9 322-175 543-492 549zm-2-970c-208 0-305 185-305 421 0 216 106 398 307 398 211 0 307-186 307-420 0-214-109-399-309-399" id="aJ"/><path fill="#333" d="M520 20C244 20 95-247 95-550c0-298 151-550 427-552 127 0 227 43 301 130v-564h185V0H838l-9-116C755-25 652 20 520 20zm48-965c-210 0-288 177-288 416 0 218 87 392 286 392 117 0 203-53 257-158v-497c-55-102-140-153-255-153" id="aK"/><g id="p"><use transform="matrix(0.007595486111111095,0,0,0.007595486111111095,0,0)" xlink:href="#aF"/><use transform="matrix(0.007595486111111095,0,0,0.007595486111111095,13.633897569444416,0)" xlink:href="#aJ"/><use transform="matrix(0.007595486111111095,0,0,0.007595486111111095,22.505425347222175,0)" xlink:href="#aK"/></g><use transform="matrix(0.007595486111111095,0,0,0.007595486111111095,0,0)" xlink:href="#af" id="q"/><g id="r"><use transform="matrix(0.011935763888888876,0,0,0.011935763888888876,0,0)" xlink:href="#az"/><use transform="matrix(0.011935763888888876,0,0,0.011935763888888876,8.486328124999991,0)" xlink:href="#au"/><use transform="matrix(0.011935763888888876,0,0,0.011935763888888876,16.531032986111093,0)" xlink:href="#av"/><use transform="matrix(0.011935763888888876,0,0,0.011935763888888876,29.481336805555525,0)" xlink:href="#av"/></g><path fill="#202124" d="M1481-651H145v-151h1336v151" id="aL"/><path fill="#202124" d="M569-1476c255 0 440 146 439 390 0 143-91 314-274 512L344-151h731V0H121v-133l504-560c75-85 125-155 155-207 105-184 6-424-211-424-183 0-293 113-291 297H93c-3-270 199-449 476-449" id="aM"/><g id="s"><use transform="matrix(0.011935763888888876,0,0,0.011935763888888876,0,0)" xlink:href="#aL"/><use transform="matrix(0.011935763888888876,0,0,0.011935763888888876,19.085286458333314,0)" xlink:href="#aM"/></g><use transform="matrix(0.011935763888888876,0,0,0.011935763888888876,0,0)" xlink:href="#aL" id="t"/><path fill="#202124" d="M884-462c0-185-111-323-291-323-113 0-183 39-239 93l-148-38 74-726h746v171H437l-44 397c71-42 152-63 243-63 273-2 433 205 433 487 0 293-170 484-461 484-260 0-436-159-454-403h175c20 156 111 252 279 252 182 0 276-140 276-331" id="aN"/><use transform="matrix(0.011935763888888876,0,0,0.011935763888888876,0,0)" xlink:href="#aN" id="u"/><path fill="#202124" d="M1061-1352L458 0H264l601-1304H77v-152h984v104" id="aO"/><use transform="matrix(0.011935763888888876,0,0,0.011935763888888876,0,0)" xlink:href="#aO" id="v"/><path fill="#202124" d="M253-1536c2 169-14 319-21 479H103l1-479h149" id="aP"/><g id="w"><use transform="matrix(0.011935763888888876,0,0,0.011935763888888876,0,0)" xlink:href="#aM"/><use transform="matrix(0.008355034722222213,0,0,0.008355034722222213,13.726128472222207,-7.937282986111103)" xlink:href="#aP"/></g><path fill="#202124" d="M574-1476c351 0 454 237 460 615v240c0 217-37 378-111 483S733 20 576 20c-346 0-454-246-461-616v-247c0-214 37-373 111-477s190-156 348-156zm275 905c0-337 59-752-275-753-95 0-160 38-207 107-80 118-66 409-67 625 0 157 22 273 68 348s115 113 208 113c91 0 160-35 204-106s69-182 69-334" id="aQ"/><g id="x"><use transform="matrix(0.011935763888888876,0,0,0.011935763888888876,0,0)" xlink:href="#aL"/><use transform="matrix(0.011935763888888876,0,0,0.011935763888888876,19.085286458333314,0)" xlink:href="#aQ"/></g><path fill="#202124" d="M729 0H543v-1233l-373 137v-168l530-199h29V0" id="aR"/><use transform="matrix(0.011935763888888876,0,0,0.011935763888888876,0,0)" xlink:href="#aR" id="y"/><use transform="matrix(0.011935763888888876,0,0,0.011935763888888876,0,0)" xlink:href="#aM" id="z"/><path fill="#202124" d="M832-402c-1-179-119-264-303-265H390v-151h139c164 0 281-91 281-250 0-171-85-256-255-256-154 0-265 99-263 250H107c-4-235 205-402 448-402 266 0 444 150 440 412-2 148-109 272-229 317 147 45 249 158 251 341 3 262-197 426-461 426C299 20 91-135 94-384h186c-2 156 116 253 276 253 176 0 277-96 276-271" id="aS"/><use transform="matrix(0.011935763888888876,0,0,0.011935763888888876,0,0)" xlink:href="#aS" id="A"/><path fill="#202124" d="M902-489h202v151H902V0H716v-338H53v-109l652-1009h197v967zm-639 0h453v-714l-22 40" id="aT"/><use transform="matrix(0.011935763888888876,0,0,0.011935763888888876,0,0)" xlink:href="#aT" id="B"/><path fill="#202124" d="M132-554c0-555 187-908 715-903v157c-320-8-501 179-526 477 77-88 181-132 314-132 259 0 417 214 417 480 0 286-172 495-451 495-293 0-469-266-469-574zm737 88c0-181-95-335-265-335-133 0-252 96-286 200v68c-6 207 101 397 283 400 175 3 268-150 268-333" id="aU"/><use transform="matrix(0.011935763888888876,0,0,0.011935763888888876,0,0)" xlink:href="#aU" id="C"/><use transform="matrix(0.011935763888888876,0,0,0.011935763888888876,0,0)" xlink:href="#aO" id="D"/><g id="E"><use transform="matrix(0.011935763888888876,0,0,0.011935763888888876,0,0)" xlink:href="#aL"/><use transform="matrix(0.011935763888888876,0,0,0.011935763888888876,19.085286458333314,0)" xlink:href="#aM"/></g><path fill="#5e5e5e" d="M952-300H426L326 0H7l542-1456h278L1372 0h-319zM507-543h364l-183-545" id="aV"/><path fill="#5e5e5e" d="M248 11c-71 0-114-43-114-108 0-67 42-112 114-112s116 45 116 112c-1 65-45 108-116 108zm1-883c-71 0-114-43-114-108 0-67 42-112 114-112s116 45 116 112c-1 65-45 108-116 108" id="aW"/><g id="F"><use transform="matrix(0.014105902777777776,0,0,0.014105902777777776,0,0)" xlink:href="#aV"/><use transform="matrix(0.014105902777777776,0,0,0.014105902777777776,19.437934027777775,0)" xlink:href="#aW"/></g><path fill="#5e5e5e" d="M704-1390c-164-38-297 28-288 194v114h231v143H416V0H231v-939H60v-143h171v-111c-12-274 208-416 483-347" id="aX"/><path fill="#5e5e5e" d="M341 0H156v-1082h185V0zm-91-1264c-68 0-108-42-109-105 0-62 41-107 109-107s110 44 110 107-42 105-110 105" id="aY"/><path fill="#5e5e5e" d="M663-916c-163-27-288 18-338 148V0H140v-1082h180l3 125c61-97 147-145 258-145 36 0 63 5 82 14v172" id="aZ"/><path fill="#5e5e5e" d="M538-131c121 0 232-49 232-156 0-50-20-88-56-117-73-60-334-92-420-143-92-55-162-110-162-238 0-190 192-317 400-317 223 0 414 129 413 338H759c0-108-110-186-227-186-119 0-215 53-215 159 0 45 18 78 53 101 76 52 331 90 416 139 98 57 169 115 169 251C955-92 760 20 538 20c-176 0-314-68-386-174-38-55-57-115-57-179h185c6 129 116 202 258 202" id="ba"/><path fill="#5e5e5e" d="M456 20C285 20 205-92 206-268v-671H9v-143h197v-262h185v262h202v143H391v671c-9 125 92 149 207 118V0c-49 13-96 20-142 20" id="bb"/><g id="G"><use transform="matrix(0.014105902777777776,0,0,0.014105902777777776,0,0)" xlink:href="#aX"/><use transform="matrix(0.014105902777777776,0,0,0.014105902777777776,10.029296874999998,0)" xlink:href="#aY"/><use transform="matrix(0.014105902777777776,0,0,0.014105902777777776,17.039930555555554,0)" xlink:href="#aZ"/><use transform="matrix(0.014105902777777776,0,0,0.014105902777777776,26.81532118055555,0)" xlink:href="#ba"/><use transform="matrix(0.014105902777777776,0,0,0.014105902777777776,41.711154513888886,0)" xlink:href="#bb"/></g><path fill="#5e5e5e" d="M521 20C240 20 96-239 96-550c0-303 147-552 427-552 132 0 235 47 309 140l9-120h169V-26c4 277-183 454-459 452-165-1-334-81-400-187l96-111c79 98 176 147 291 147 180 1 288-109 286-290v-93C750-23 649 20 521 20zm48-965c-209 0-287 178-287 416 0 217 86 392 285 392 117 0 202-53 257-159v-494c-57-103-142-155-255-155" id="bc"/><path fill="#5e5e5e" d="M277-555c0 244 77 420 297 424 127 2 249-93 255-210h175C980-127 805 20 574 20 258 20 81-222 92-562c11-319 164-533 481-540 237-5 426 165 431 392H829c-7-133-115-242-256-240-209 4-296 166-296 395" id="bd"/><g id="H"><use transform="matrix(0.014105902777777776,0,0,0.014105902777777776,0,0)" xlink:href="#bc"/><use transform="matrix(0.014105902777777776,0,0,0.014105902777777776,16.207682291666664,0)" xlink:href="#bd"/></g><path fill="#333" d="M355-556c-2 203 30 338 206 343 102 3 181-63 182-161h271C1001-128 821 17 566 20 242 24 66-212 66-554c0-320 184-548 498-548 262 0 451 167 450 423H743c-1-108-75-193-184-189-162 6-202 123-204 312" id="be"/><path fill="#333" d="M579 20C257 20 58-214 66-551c8-331 182-551 511-551 324 0 514 231 514 572 0 319-198 550-512 550zm-2-888c-169 0-222 141-222 338 0 181 61 317 224 317 170 0 223-137 223-338 0-178-64-317-225-317" id="bf"/><path fill="#333" d="M741-689c-2-124-40-177-163-178-82 0-141 34-178 102V0H111v-1082h271l9 121c77-94 180-141 311-141 139 0 235 55 287 165 76-110 184-165 325-165 249 0 348 151 348 411V0h-290v-690c-2-123-39-176-163-177-87 0-147 41-180 124l1 743H741v-689" id="bg"/><path fill="#333" d="M416 0H126v-1082h290V0zM271-1212c-92 0-162-61-162-150s68-149 162-149c93 0 162 60 162 149s-70 150-162 150" id="bh"/><path fill="#333" d="M457-330c2 83 25 111 111 112 32 0 60-2 85-7V-6c-57 17-115 26-175 26-203 0-310-102-310-307v-583H10v-212h158v-266h289v266h185v212H457v540" id="bi"/><g id="I"><use transform="matrix(0.011935763888888876,0,0,0.011935763888888876,0,0)" xlink:href="#be"/><use transform="matrix(0.011935763888888876,0,0,0.011935763888888876,12.74739583333332,0)" xlink:href="#bf"/><use transform="matrix(0.011935763888888876,0,0,0.011935763888888876,26.56901041666664,0)" xlink:href="#bg"/><use transform="matrix(0.011935763888888876,0,0,0.011935763888888876,47.731119791666615,0)" xlink:href="#bg"/><use transform="matrix(0.011935763888888876,0,0,0.011935763888888876,68.8932291666666,0)" xlink:href="#bh"/><use transform="matrix(0.011935763888888876,0,0,0.011935763888888876,75.37434895833326,0)" xlink:href="#bi"/></g><path fill="#333" d="M529-185c94 0 168-33 168-114 0-35-18-63-53-83s-91-39-168-55C219-491 90-600 90-765c0-208 203-337 432-337 246 0 451 124 453 349H686c-2-91-62-143-165-143-86 0-151 41-153 117 0 32 16 57 46 77 63 43 257 69 335 100 151 60 229 153 229 291C978-13 554 93 282-28 162-81 60-190 56-344h274c5 106 86 159 199 159" id="bj"/><path fill="#333" d="M416 0H126v-1536h290V0" id="bk"/><g id="J"><use transform="matrix(0.011935763888888876,0,0,0.011935763888888876,0,0)" xlink:href="#bj"/><use transform="matrix(0.011935763888888876,0,0,0.011935763888888876,12.568359374999986,0)" xlink:href="#bk"/><use transform="matrix(0.011935763888888876,0,0,0.011935763888888876,19.049479166666647,0)" xlink:href="#bf"/><use transform="matrix(0.011935763888888876,0,0,0.011935763888888876,32.871093749999964,0)" xlink:href="#bi"/></g><path fill="#333" d="M663-1102c295 0 422 250 422 571 0 300-141 549-420 551-109 0-198-38-265-114v510H111v-1498h268l10 106c70-84 161-126 274-126zm133 550c0-175-53-315-209-315-91 0-153 35-187 104v443c35 71 98 107 189 107 138 0 207-113 207-339" id="bl"/><path fill="#333" d="M1031-175C952-60 797 20 609 20 287 20 60-206 72-543c12-330 180-559 505-559 309 0 482 214 477 537v118H365c15 134 115 234 263 234 111 0 198-40 261-121zM770-644c5-139-62-226-194-224-130 1-191 97-208 224h402" id="bm"/><path fill="#333" d="M750-692c-1-124-48-174-173-175-81 0-142 35-183 104V0H105v-1082h272l9 125c77-97 181-145 311-145 244 0 342 151 342 403V0H750v-692" id="bn"/><g id="K"><use transform="matrix(0.011935763888888876,0,0,0.011935763888888876,0,0)" xlink:href="#bf"/><use transform="matrix(0.011935763888888876,0,0,0.011935763888888876,13.821614583333318,0)" xlink:href="#bl"/><use transform="matrix(0.011935763888888876,0,0,0.011935763888888876,27.583550347222193,0)" xlink:href="#bm"/><use transform="matrix(0.011935763888888876,0,0,0.011935763888888876,40.79644097222218,0)" xlink:href="#bn"/></g><path fill="#333" d="M750-685c-1-124-48-182-173-182-85 0-146 33-184 98V0H104v-1536h289v572c77-92 173-138 289-138 235 0 357 136 357 409V0H750v-685" id="bo"/><path fill="#333" d="M463 20c-241-1-359-147-359-393v-709h289v699c0 113 51 169 154 169 98 0 165-34 202-102v-766h290V0H767l-8-110C688-23 589 20 463 20" id="bp"/><path fill="#333" d="M504-434L400-330V0H111v-1536h289v851c106-137 222-264 333-397h347L689-631 1114 0H782" id="bq"/><g id="L"><use transform="matrix(0.011935763888888876,0,0,0.011935763888888876,0,0)" xlink:href="#be"/><use transform="matrix(0.011935763888888876,0,0,0.011935763888888876,12.74739583333332,0)" xlink:href="#bo"/><use transform="matrix(0.011935763888888876,0,0,0.011935763888888876,26.42578124999997,0)" xlink:href="#bp"/><use transform="matrix(0.011935763888888876,0,0,0.011935763888888876,40.10416666666662,0)" xlink:href="#bn"/><use transform="matrix(0.011935763888888876,0,0,0.011935763888888876,53.794487847222165,0)" xlink:href="#bq"/></g><path fill="#333" d="M176 0v-125h654v-1308h125v1308h654V0H175" id="br"/><use transform="matrix(0.011935763888888876,0,0,0.011935763888888876,0,0)" xlink:href="#br" id="M"/><path fill="#333" d="M576-1476c284-5 474 140 474 413 0 72-17 146-56 220-110 211-361 428-523 610h626V0H99v-198l471-502c65-71 110-134 144-185 92-140 43-358-143-358-134 0-213 107-211 245H70c11-295 206-473 506-478" id="bs"/><use transform="matrix(0.011935763888888876,0,0,0.011935763888888876,0,0)" xlink:href="#bs" id="N"/><path fill="#333" d="M801 0H512v-1114l-345 107v-235l603-216h31V0" id="bt"/><use transform="matrix(0.011935763888888876,0,0,0.011935763888888876,0,0)" xlink:href="#bt" id="O"/><path fill="#333" d="M566-213c130 0 220-75 220-199 0-145-80-218-240-218H393v-226h154c138 3 214-73 216-201 1-118-78-186-197-186-103 0-197 64-195 164H82c11-259 212-391 477-397 286-6 493 142 493 415 0 151-107 263-221 313 147 51 242 159 244 340 3 272-230 428-516 428C289 20 61-138 64-399h289c-3 111 100 186 213 186" id="bu"/><use transform="matrix(0.011935763888888876,0,0,0.011935763888888876,0,0)" xlink:href="#bu" id="P"/><path fill="#333" d="M586-1476c342 0 491 246 493 606v268c2 370-143 622-491 622C246 20 97-227 95-587v-268c-2-372 145-621 491-621zm204 926c0-199 18-488-50-610-58-105-243-107-304-4-71 121-52 402-52 600 0 119 19 205 48 264 54 112 254 115 309 4 28-57 49-140 49-254" id="bv"/><use transform="matrix(0.011935763888888876,0,0,0.011935763888888876,0,0)" xlink:href="#bv" id="Q"/><path fill="#5e5e5e" d="M1212-428C1211-131 1004 0 696 0H130v-1456h510c318-1 539 108 539 399 0 155-89 264-208 308 141 33 242 151 241 321zM687-241c132 2 225-65 225-190 0-133-69-203-207-203H430v393h257zm192-786c0-145-86-186-239-186H430v367h222c151-3 227-63 227-181" id="bw"/><g id="R"><use transform="matrix(0.014105902777777776,0,0,0.014105902777777776,0,0)" xlink:href="#bw"/><use transform="matrix(0.014105902777777776,0,0,0.014105902777777776,18.436414930555554,0)" xlink:href="#aW"/></g><path fill="#5e5e5e" d="M341 0H156v-1536h185V0" id="bx"/><path fill="#5e5e5e" d="M584 20C278 26 81-227 91-551c10-320 175-545 491-551 308-5 503 247 494 573-9 322-175 543-492 549zm-2-970c-208 0-305 185-305 421 0 216 106 398 307 398 211 0 307-186 307-420 0-214-109-399-309-399" id="by"/><g id="S"><use transform="matrix(0.014105902777777776,0,0,0.014105902777777776,0,0)" xlink:href="#ba"/><use transform="matrix(0.014105902777777776,0,0,0.014105902777777776,14.895833333333332,0)" xlink:href="#bx"/><use transform="matrix(0.014105902777777776,0,0,0.014105902777777776,21.906467013888886,0)" xlink:href="#by"/><use transform="matrix(0.014105902777777776,0,0,0.014105902777777776,38.38216145833333,0)" xlink:href="#bb"/></g><path fill="#5e5e5e" d="M574-1476c351 0 454 237 460 615v240c0 217-37 378-111 483S733 20 576 20c-346 0-454-246-461-616v-247c0-214 37-373 111-477s190-156 348-156zm275 905c0-337 59-752-275-753-95 0-160 38-207 107-80 118-66 409-67 625 0 157 22 273 68 348s115 113 208 113c91 0 160-35 204-106s69-182 69-334" id="bz"/><use transform="matrix(0.014105902777777776,0,0,0.014105902777777776,0,0)" xlink:href="#bz" id="T"/><path fill="#5e5e5e" d="M589-945c-131 0-219 81-264 174V0H140v-1082h175l6 136c83-104 191-156 324-156 229 0 346 129 346 387V0H806v-716c-2-153-65-229-217-229" id="bA"/><path fill="#5e5e5e" d="M599-131c141 0 220-65 285-146l113 88C906-50 770 20 589 20 281 21 93-214 93-545c0-223 93-397 233-485 74-48 154-72 240-72 300 2 449 218 445 537v77H278c0 197 129 357 321 357zm227-509c-3-180-88-310-260-310-170 0-264 140-282 310h542" id="bB"/><path fill="#5e5e5e" d="M520 20C244 20 95-247 95-550c0-298 151-550 427-552 127 0 227 43 301 130v-564h185V0H838l-9-116C755-25 652 20 520 20zm48-965c-210 0-288 177-288 416 0 218 87 392 286 392 117 0 203-53 257-158v-497c-55-102-140-153-255-153" id="bC"/><g id="U"><use transform="matrix(0.014105902777777776,0,0,0.014105902777777776,0,0)" xlink:href="#bA"/><use transform="matrix(0.014105902777777776,0,0,0.014105902777777776,15.939670138888888,0)" xlink:href="#bB"/><use transform="matrix(0.014105902777777776,0,0,0.014105902777777776,31.244574652777775,0)" xlink:href="#bB"/><use transform="matrix(0.014105902777777776,0,0,0.014105902777777776,46.549479166666664,0)" xlink:href="#bC"/><use transform="matrix(0.014105902777777776,0,0,0.014105902777777776,62.84179687500001,0)" xlink:href="#ba"/></g><path fill="#5e5e5e" d="M589-945c-131 0-219 81-264 174V0H140v-1536h185v585c82-101 189-151 320-151 229 0 346 129 346 387V0H806v-716c-2-153-65-229-217-229" id="bD"/><path fill="#5e5e5e" d="M491 20c-241-1-355-148-355-398v-704h185v699c0 164 67 246 200 246 141 0 235-53 282-158v-787h185V0H812l-4-107C736-22 630 20 491 20" id="bE"/><path fill="#5e5e5e" d="M442-501L326-380V0H141v-1536h185v929c135-169 291-317 436-475h225L566-630 1036 0H819" id="bF"/><g id="V"><use transform="matrix(0.014105902777777776,0,0,0.014105902777777776,0,0)" xlink:href="#bd"/><use transform="matrix(0.014105902777777776,0,0,0.014105902777777776,15.121527777777777,0)" xlink:href="#bD"/><use transform="matrix(0.014105902777777776,0,0,0.014105902777777776,31.032986111111107,0)" xlink:href="#bE"/><use transform="matrix(0.014105902777777776,0,0,0.014105902777777776,46.958550347222214,0)" xlink:href="#bA"/><use transform="matrix(0.014105902777777776,0,0,0.014105902777777776,62.89822048611111,0)" xlink:href="#bF"/></g><path fill="#5e5e5e" d="M687-225c189-1 272-84 286-260h300c-19 311-251 505-586 505C296 20 86-277 86-686c0-466 174-782 605-790 340-6 557 198 584 514H975c-15-183-92-268-284-268-100 0-173 38-225 108-63 84-76 264-76 443 0 157 24 272 72 345s122 109 225 109" id="bG"/><g id="W"><use transform="matrix(0.014105902777777776,0,0,0.014105902777777776,0,0)" xlink:href="#bG"/><use transform="matrix(0.014105902777777776,0,0,0.014105902777777776,18.90190972222222,0)" xlink:href="#aW"/></g><g id="X"><use transform="matrix(0.014105902777777776,0,0,0.014105902777777776,0,0)" xlink:href="#bd"/><use transform="matrix(0.014105902777777776,0,0,0.014105902777777776,15.121527777777777,0)" xlink:href="#bD"/><use transform="matrix(0.014105902777777776,0,0,0.014105902777777776,31.032986111111107,0)" xlink:href="#bE"/><use transform="matrix(0.014105902777777776,0,0,0.014105902777777776,46.958550347222214,0)" xlink:href="#bA"/><use transform="matrix(0.014105902777777776,0,0,0.014105902777777776,62.89822048611111,0)" xlink:href="#bF"/></g><g id="Y"><use transform="matrix(0.014105902777777776,0,0,0.014105902777777776,0,0)" xlink:href="#aX"/><use transform="matrix(0.014105902777777776,0,0,0.014105902777777776,10.029296874999998,0)" xlink:href="#bE"/><use transform="matrix(0.014105902777777776,0,0,0.014105902777777776,25.954861111111107,0)" xlink:href="#bx"/><use transform="matrix(0.014105902777777776,0,0,0.014105902777777776,32.965494791666664,0)" xlink:href="#bx"/></g><path fill="#0c7cba" d="M130 0v-1456h448c435 14 673 299 665 762-5 285-130 500-319 606C822-31 708 0 581 0H130zm809-685c9-311-79-526-361-528H430v972h145c252-2 356-181 364-444" id="bH"/><path fill="#0c7cba" d="M248 11c-71 0-114-43-114-108 0-67 42-112 114-112s116 45 116 112c-1 65-45 108-116 108zm1-883c-71 0-114-43-114-108 0-67 42-112 114-112s116 45 116 112c-1 65-45 108-116 108" id="bI"/><g id="Z"><use transform="matrix(0.014105902777777776,0,0,0.014105902777777776,0,0)" xlink:href="#bH"/><use transform="matrix(0.014105902777777776,0,0,0.014105902777777776,18.77495659722222,0)" xlink:href="#bI"/></g><path fill="#0c7cba" d="M599-131c141 0 220-65 285-146l113 88C906-50 770 20 589 20 281 21 93-214 93-545c0-223 93-397 233-485 74-48 154-72 240-72 300 2 449 218 445 537v77H278c0 197 129 357 321 357zm227-509c-3-180-88-310-260-310-170 0-264 140-282 310h542" id="bJ"/><path fill="#0c7cba" d="M497-251l268-831h189L566 0H425L33-1082h189" id="bK"/><path fill="#0c7cba" d="M589-945c-131 0-219 81-264 174V0H140v-1082h175l6 136c83-104 191-156 324-156 229 0 346 129 346 387V0H806v-716c-2-153-65-229-217-229" id="bL"/><path fill="#0c7cba" d="M456 20C285 20 205-92 206-268v-671H9v-143h197v-262h185v262h202v143H391v671c-9 125 92 149 207 118V0c-49 13-96 20-142 20" id="bM"/><path fill="#0c7cba" d="M491 20c-241-1-355-148-355-398v-704h185v699c0 164 67 246 200 246 141 0 235-53 282-158v-787h185V0H812l-4-107C736-22 630 20 491 20" id="bN"/><path fill="#0c7cba" d="M561-1102c238-4 403 126 403 351v498c0 99 13 178 38 237V0H808c-11-21-19-59-26-114C696-25 593 20 474 20c-199 0-368-130-365-320 4-251 214-359 490-356h180v-85c-1-135-86-212-229-212-115 0-232 67-233 171H131c20-205 206-316 430-320zM294-326c0 117 90 185 207 185 122 0 239-75 278-162v-222H634c-227 0-340 66-340 199" id="bO"/><path fill="#0c7cba" d="M341 0H156v-1536h185V0" id="bP"/><g id="aa"><use transform="matrix(0.014105902777777776,0,0,0.014105902777777776,0,0)" xlink:href="#bJ"/><use transform="matrix(0.014105902777777776,0,0,0.014105902777777776,15.121527777777777,0)" xlink:href="#bK"/><use transform="matrix(0.014105902777777776,0,0,0.014105902777777776,28.931206597222218,0)" xlink:href="#bJ"/><use transform="matrix(0.014105902777777776,0,0,0.014105902777777776,44.23611111111111,0)" xlink:href="#bL"/><use transform="matrix(0.014105902777777776,0,0,0.014105902777777776,60.17578124999999,0)" xlink:href="#bM"/><use transform="matrix(0.014105902777777776,0,0,0.014105902777777776,69.61263020833333,0)" xlink:href="#bN"/><use transform="matrix(0.014105902777777776,0,0,0.014105902777777776,85.53819444444444,0)" xlink:href="#bO"/><use transform="matrix(0.014105902777777776,0,0,0.014105902777777776,101.25217013888889,0)" xlink:href="#bP"/></g><path fill="#0c7cba" d="M521 20C240 20 96-239 96-550c0-303 147-552 427-552 132 0 235 47 309 140l9-120h169V-26c4 277-183 454-459 452-165-1-334-81-400-187l96-111c79 98 176 147 291 147 180 1 288-109 286-290v-93C750-23 649 20 521 20zm48-965c-209 0-287 178-287 416 0 217 86 392 285 392 117 0 202-53 257-159v-494c-57-103-142-155-255-155" id="bQ"/><path fill="#0c7cba" d="M277-555c0 244 77 420 297 424 127 2 249-93 255-210h175C980-127 805 20 574 20 258 20 81-222 92-562c11-319 164-533 481-540 237-5 426 165 431 392H829c-7-133-115-242-256-240-209 4-296 166-296 395" id="bR"/><g id="ab"><use transform="matrix(0.014105902777777776,0,0,0.014105902777777776,0,0)" xlink:href="#bQ"/><use transform="matrix(0.014105902777777776,0,0,0.014105902777777776,16.207682291666664,0)" xlink:href="#bR"/></g><use transform="matrix(0.011935763888888876,0,0,0.011935763888888876,0,0)" xlink:href="#aL" id="ac"/></defs></g></svg>