<svg xmlns="http://www.w3.org/2000/svg" xmlns:xlink="http://www.w3.org/1999/xlink" xmlns:lucid="lucid" width="843.47" height="801.15"><g transform="translate(-196.90439629158936 -1860)" lucid:page-tab-id="4TeFW-VZW2dL"><path d="M580 1881v458M580 1881.03V1880M580 2338.97v1.03M309.13 1960.17h719.25M309.15 1960.17h-1.02M1028.35 1960.17h1.03" stroke="#202124" stroke-width="2" fill="none"/><path d="M320 1886c0-3.3 2.7-6 6-6h232.7c3.32 0 6 2.7 6 6v75.3c0 3.3-2.68 6-6 6H326c-3.3 0-6-2.7-6-6z" stroke="#000" stroke-opacity="0" stroke-width="3" fill="#fff" fill-opacity="0"/><use xlink:href="#a" transform="matrix(1,0,0,1,335,1895) translate(55.14377170138894 37.177951388888864)"/><path d="M641.4 1881l-1.4 458M641.4 1881.03l.02-1.03M640 2338.97v1.03" stroke="#202124" stroke-width="2" fill="none"/><path d="M580.28 1886c0-3.3 2.7-6 6-6h48.34c3.3 0 6 2.7 6 6v75.3c0 3.3-2.7 6-6 6h-48.34c-3.3 0-6-2.7-6-6z" stroke="#000" stroke-opacity="0" stroke-width="3" fill="#fff" fill-opacity="0"/><use xlink:href="#b" transform="matrix(-1.8369701987210297e-16,-1,1,-1.8369701987210297e-16,595.2797714834021,1952.291666666666) translate(0.718207465277807 22.677951388888864)"/><path d="M639.63 1886c0-3.3 2.68-6 6-6h49c3.3 0 6 2.7 6 6v75.3c0 3.3-2.7 6-6 6h-49c-3.32 0-6-2.7-6-6z" stroke="#000" stroke-opacity="0" stroke-width="3" fill="#fff" fill-opacity="0"/><use xlink:href="#c" transform="matrix(-1.8369701987210297e-16,-1,1,-1.8369701987210297e-16,654.6284780609831,1952.291666666667) translate(11.794596354166686 22.677951388888864)"/><path d="M700 1881v458M700 1881.03V1880M700 2338.97v1.03" stroke="#202124" stroke-width="2" fill="none"/><path d="M700 1886c0-3.3 2.7-6 6-6h247.38c3.3 0 6 2.7 6 6v75.3c0 3.3-2.7 6-6 6H706c-3.3 0-6-2.7-6-6z" stroke="#000" stroke-opacity="0" stroke-width="3" fill="#fff" fill-opacity="0"/><use xlink:href="#d" transform="matrix(1,0,0,1,715,1895) translate(55.5598958333334 22.677951388888864)"/><use xlink:href="#e" transform="matrix(1,0,0,1,715,1895) translate(44.82367621527786 51.32378472222217)"/><use xlink:href="#f" transform="matrix(1,0,0,1,715,1895) translate(85.16655815972226 51.32378472222217)"/><path d="M216.9 1888.25c0-3.32 2.7-6 6-6h68c3.32 0 6 2.68 6 6v445.88c0 3.3-2.68 6-6 6h-68c-3.3 0-6-2.7-6-6z" fill="none"/><path d="M296.9 2340.13c-5.52 0-10-4.48-10-10V2121.2c0-5.54-4.47-10-10-10 5.53 0 10-4.5 10-10v-208.95c0-5.53 4.48-10 10-10" stroke="#202124" stroke-width="3" fill="none"/><use xlink:href="#g" transform="matrix(-1.8369701987210297e-16,-1,1,-1.8369701987210297e-16,221.90439629158936,2335.128247129719) translate(169.13726128472229 28.355034722222214)"/><use xlink:href="#h" transform="matrix(-1.8369701987210297e-16,-1,1,-1.8369701987210297e-16,221.90439629158936,2335.128247129719) translate(230.05740017361111 28.355034722222214)"/><path d="M500 2402.3v236.62M500 2402.3v-1M500 2638.9v1.02M309.13 2460.17h524.85M309.15 2460.17h-1.02M833.96 2460.17h1.02" stroke="#202124" stroke-width="2" fill="none"/><path d="M280 2405.5c0-3.3 2.7-6 6-6h232.7c3.32 0 6 2.7 6 6v55.8c0 3.3-2.68 6-6 6H286c-3.3 0-6-2.7-6-6z" stroke="#000" stroke-opacity="0" stroke-width="3" fill="#fff" fill-opacity="0"/><use xlink:href="#i" transform="matrix(1,0,0,1,295,2414.503999343395) translate(39.0901692708334 27.427951388888864)"/><use xlink:href="#j" transform="matrix(1,0,0,1,295,2414.503999343395) translate(141.49902343749997 27.427951388888864)"/><path d="M521.1 2405.5c0-3.3 2.7-6 6-6h247.4c3.3 0 6 2.7 6 6v50.28c0 3.3-2.7 6-6 6H527.1c-3.3 0-6-2.7-6-6z" stroke="#000" stroke-opacity="0" stroke-width="3" fill="#fff" fill-opacity="0"/><use xlink:href="#k" transform="matrix(1,0,0,1,536.1125829503366,2414.503999343395) translate(25.219184027777885 24.740451388888864)"/><use xlink:href="#l" transform="matrix(1,0,0,1,536.1125829503366,2414.503999343395) translate(98.64800347222224 24.740451388888864)"/><path d="M522.46 2612.3c0 2.5-2.03 4.54-4.53 4.54-2.5 0-4.54-2.04-4.54-4.54s2.02-4.54 4.53-4.54c2.5 0 4.53 2.03 4.53 4.54z" stroke="#202124" stroke-width="3" fill="#202124"/><path d="M367.24 2486.44c0-3.3 2.68-6 6-6h48.5c3.3 0 6 2.7 6 6v39.5c0 3.33-2.7 6-6 6h-48.5c-3.32 0-6-2.67-6-6z" stroke="#000" stroke-opacity="0" stroke-width="3" fill="#fff" fill-opacity="0"/><use xlink:href="#m" transform="matrix(1,0,0,1,382.2358460650885,2495.4425345812047) translate(8.636935763888896 22.677951388888864)"/><path d="M367.24 2537.95c0-3.3 2.68-6 6-6h48.5c3.3 0 6 2.7 6 6v39.52c0 3.3-2.7 6-6 6h-48.5c-3.32 0-6-2.7-6-6z" stroke="#000" stroke-opacity="0" stroke-width="3" fill="#fff" fill-opacity="0"/><use xlink:href="#n" transform="matrix(1,0,0,1,382.2358460650885,2546.954471183677) translate(8.636935763888896 22.677951388888864)"/><path d="M367.24 2589.47c0-3.32 2.68-6 6-6h48.5c3.3 0 6 2.68 6 6v39.5c0 3.32-2.7 6-6 6h-48.5c-3.32 0-6-2.68-6-6z" stroke="#000" stroke-opacity="0" stroke-width="3" fill="#fff" fill-opacity="0"/><use xlink:href="#o" transform="matrix(1,0,0,1,382.2358460650885,2598.4664077861494) translate(8.636935763888896 22.677951388888864)"/><path d="M216.9 2405.5c0-3.3 2.7-6 6-6h68c3.32 0 6 2.7 6 6v229.65c0 3.3-2.68 6-6 6h-68c-3.3 0-6-2.7-6-6z" fill="none"/><path d="M296.9 2641.15c-5.52 0-10-4.48-10-10v-100.82c0-5.53-4.47-10-10-10 5.53 0 10-4.48 10-10V2409.5c0-5.52 4.48-10 10-10" stroke="#202124" stroke-width="3" fill="none"/><use xlink:href="#p" transform="matrix(-1.8369701987210297e-16,-1,1,-1.8369701987210297e-16,221.90439629158982,2636.1460384822158) translate(68.44791666666673 28.355034722222214)"/><path d="M666.3 2566.26c0 11.04-8.94 20-20 20-11.03 0-20-8.96-20-20 0-11.05 8.97-20 20-20 11.06 0 20 8.95 20 20z" stroke="#202124" stroke-width="3" fill="#ffeca9"/><use xlink:href="#m" transform="matrix(1,0,0,1,631.3124277730642,2551.258465837796) translate(8.141935763888897 22.677951388888864)"/><path d="M812.5 2565.9c0 11.05-8.95 20-20 20-11.04 0-20-8.95-20-20 0-11.04 8.96-20 20-20 11.05 0 20 8.96 20 20z" stroke="#202124" stroke-width="3" fill="#d1bcd2"/><use xlink:href="#n" transform="matrix(1,0,0,1,777.5080954415645,2550.906724773784) translate(8.141935763888897 22.677951388888864)"/><path d="M668.8 2566.26h83.72" stroke="#202124" stroke-width="2" fill="none"/><path d="M668.84 2567.26h-1.14l.12-.93-.04-1.07h1.06z" fill="#202124"/><path d="M767.78 2566.26l-14.26 4.63v-9.28z" stroke="#202124" stroke-width="2" fill="#202124"/><path d="M522.46 2565.9c0 2.5-2.03 4.54-4.53 4.54-2.5 0-4.54-2.03-4.54-4.53 0-2.5 2.02-4.53 4.53-4.53 2.5 0 4.53 2.03 4.53 4.54z" stroke="#202124" stroke-width="3" fill="#202124"/><path d="M524.97 2565.9l81.34.3" stroke="#202124" stroke-width="2" fill="none"/><path d="M525 2564.9v2h-1.3l.3-.8-.13-1.2z" fill="#202124"/><path d="M621.58 2566.25l-14.3 4.58.05-9.27z" stroke="#202124" stroke-width="2" fill="#202124"/><path d="M594.46 2510.44c0 11.05-8.95 20-20 20-11.04 0-20-8.95-20-20 0-11.04 8.96-20 20-20 11.05 0 20 8.96 20 20z" stroke="#202124" stroke-width="3" fill="#b2d6ef"/><use xlink:href="#q" transform="matrix(1,0,0,1,559.4619796536392,2495.4425345812047) translate(8.141935763888897 22.677951388888864)"/><path d="M666.46 2510.44c0 11.05-8.95 20-20 20-11.04 0-20-8.95-20-20 0-11.04 8.96-20 20-20 11.05 0 20 8.96 20 20z" stroke="#202124" stroke-width="3" fill="#ffeca9"/><use xlink:href="#m" transform="matrix(1,0,0,1,631.4619796536392,2495.4425345812047) translate(8.141935763888897 22.677951388888864)"/><path d="M738.46 2510.44c0 11.05-8.95 20-20 20-11.04 0-20-8.95-20-20 0-11.04 8.96-20 20-20 11.05 0 20 8.96 20 20z" stroke="#202124" stroke-width="3" fill="#99d5ca"/><use xlink:href="#r" transform="matrix(1,0,0,1,703.4619796536392,2495.4425345812047) translate(8.141935763888897 22.677951388888864)"/><path d="M810.46 2510.44c0 11.05-8.95 20-20 20-11.04 0-20-8.95-20-20 0-11.04 8.96-20 20-20 11.05 0 20 8.96 20 20z" stroke="#202124" stroke-width="3" fill="#d1bcd2"/><use xlink:href="#n" transform="matrix(1,0,0,1,775.4619796536392,2495.4425345812047) translate(8.141935763888897 22.677951388888864)"/><path d="M596.96 2510.45l9.5.12" stroke="#202124" stroke-width="2" fill="none"/><path d="M597 2509.46l-.02 2-1.13-.02.12-.93-.04-1.06z" fill="#202124"/><path d="M621.74 2510.76l-14.32 4.46.1-9.27z" stroke="#202124" stroke-width="2" fill="#202124"/><path d="M668.96 2510.44h9.5" stroke="#202124" stroke-width="2" fill="none"/><path d="M669 2511.44h-1.15l.12-.93-.04-1.06H669z" fill="#202124"/><path d="M693.72 2510.44l-14.26 4.64v-9.27z" stroke="#202124" stroke-width="2" fill="#202124"/><path d="M740.96 2510.44h9.5" stroke="#202124" stroke-width="2" fill="none"/><path d="M741 2511.44h-1.15l.12-.93-.04-1.06H741z" fill="#202124"/><path d="M765.72 2510.44l-14.26 4.64v-9.27z" stroke="#202124" stroke-width="2" fill="#202124"/><path d="M522.46 2510.44c0 2.5-2.03 4.54-4.53 4.54-2.5 0-4.54-2.03-4.54-4.54 0-2.5 2.02-4.53 4.53-4.53 2.5 0 4.53 2.04 4.53 4.54z" stroke="#202124" stroke-width="3" fill="#202124"/><path d="M524.97 2510.44h9.5" stroke="#202124" stroke-width="2" fill="none"/><path d="M525 2511.44h-1.3l.3-.8-.13-1.2H525z" fill="#202124"/><path d="M549.72 2510.44l-14.26 4.64v-9.27z" stroke="#202124" stroke-width="2" fill="#202124"/><path d="M320.4 2265.8c0-3.32 2.67-6 6-6H552.8c3.3 0 6 2.68 6 6v37.86c0 3.32-2.7 6-6 6H326.4c-3.33 0-6-2.68-6-6z" stroke="#000" stroke-opacity="0" stroke-width="3" fill="#fff" fill-opacity="0"/><use xlink:href="#s" transform="matrix(1,0,0,1,320.3878097200301,2259.7983534529417) translate(0 31.07204861111109)"/><use xlink:href="#t" transform="matrix(1,0,0,1,320.3878097200301,2259.7983534529417) translate(73.58398437499991 31.07204861111109)"/><path d="M320 2217c0-3.3 2.7-6 6-6h226.43c3.3 0 6 2.7 6 6v37.87c0 3.3-2.7 6-6 6H326c-3.3 0-6-2.7-6-6z" stroke="#000" stroke-opacity="0" stroke-width="3" fill="#fff" fill-opacity="0"/><use xlink:href="#s" transform="matrix(1,0,0,1,320,2211) translate(0 31.07204861111109)"/><use xlink:href="#u" transform="matrix(1,0,0,1,320,2211) translate(73.58398437499991 31.07204861111109)"/><path d="M723.32 2181c0 2.5-2.03 4.54-4.53 4.54-2.52 0-4.55-2.03-4.55-4.54 0-2.5 2.03-4.54 4.54-4.54 2.5 0 4.52 2.03 4.52 4.54z" stroke="#202124" stroke-width="3" fill="#202124"/><path d="M320 2162.07c0-3.32 2.7-6 6-6h226.43c3.3 0 6 2.68 6 6v37.86c0 3.32-2.7 6-6 6H326c-3.3 0-6-2.68-6-6z" stroke="#000" stroke-opacity="0" stroke-width="3" fill="#fff" fill-opacity="0"/><use xlink:href="#v" transform="matrix(1,0,0,1,320,2156.0672155156863) translate(0 31.07204861111109)"/><use xlink:href="#w" transform="matrix(1,0,0,1,320,2156.0672155156863) translate(73.58398437499991 31.07204861111109)"/><use xlink:href="#x" transform="matrix(1,0,0,1,320,2156.0672155156863) translate(132.45117187499986 31.07204861111109)"/><use xlink:href="#t" transform="matrix(1,0,0,1,320,2156.0672155156863) translate(176.6015624999998 31.07204861111109)"/><path d="M627.04 2181c0 11.05-8.95 20-20 20-11.04 0-20-8.95-20-20s8.96-20 20-20c11.05 0 20 8.95 20 20z" stroke="#202124" stroke-width="3" fill="#d1bcd2"/><use xlink:href="#n" transform="matrix(1,0,0,1,592.0407566204419,2166) translate(8.141935763888897 22.677951388888864)"/><path d="M638.58 2157c0-3.3 2.7-6 6-6h48.5c3.3 0 6 2.7 6 6v48c0 3.3-2.7 6-6 6h-48.5c-3.3 0-6-2.7-6-6z" stroke="#000" stroke-opacity="0" stroke-width="3" fill="#fff" fill-opacity="0"/><use xlink:href="#o" transform="matrix(1,0,0,1,653.5844741557396,2166) translate(8.636935763888896 22.677951388888864)"/><path d="M723.32 2124c0 2.5-2.03 4.54-4.53 4.54-2.52 0-4.55-2.03-4.55-4.54 0-2.5 2.03-4.54 4.54-4.54 2.5 0 4.52 2.03 4.52 4.54z" stroke="#202124" stroke-width="3" fill="#202124"/><path d="M320 2105.07c0-3.32 2.7-6 6-6h226.43c3.3 0 6 2.68 6 6v37.86c0 3.32-2.7 6-6 6H326c-3.3 0-6-2.68-6-6z" stroke="#000" stroke-opacity="0" stroke-width="3" fill="#fff" fill-opacity="0"/><use xlink:href="#v" transform="matrix(1,0,0,1,320,2099.0672155156863) translate(0 31.07204861111109)"/><use xlink:href="#y" transform="matrix(1,0,0,1,320,2099.0672155156863) translate(73.58398437499991 31.07204861111109)"/><use xlink:href="#x" transform="matrix(1,0,0,1,320,2099.0672155156863) translate(132.45117187499986 31.07204861111109)"/><use xlink:href="#u" transform="matrix(1,0,0,1,320,2099.0672155156863) translate(176.6015624999998 31.07204861111109)"/><path d="M628.56 2124c0 11.05-8.96 20-20 20-11.05 0-20-8.95-20-20s8.95-20 20-20c11.04 0 20 8.95 20 20z" stroke="#202124" stroke-width="3" fill="#ffeca9"/><use xlink:href="#m" transform="matrix(1,0,0,1,593.5561516709912,2109) translate(8.141935763888897 22.677951388888864)"/><path d="M638.58 2100c0-3.3 2.7-6 6-6h48.5c3.3 0 6 2.7 6 6v48c0 3.3-2.7 6-6 6h-48.5c-3.3 0-6-2.7-6-6z" stroke="#000" stroke-opacity="0" stroke-width="3" fill="#fff" fill-opacity="0"/><use xlink:href="#o" transform="matrix(1,0,0,1,653.5844741557396,2109) translate(8.636935763888896 22.677951388888864)"/><path d="M723.32 2067c0 2.5-2.03 4.54-4.53 4.54-2.52 0-4.55-2.03-4.55-4.54 0-2.5 2.03-4.54 4.54-4.54 2.5 0 4.52 2.03 4.52 4.54z" stroke="#202124" stroke-width="3" fill="#202124"/><path d="M320 2048.07c0-3.32 2.7-6 6-6h226.43c3.3 0 6 2.68 6 6v37.86c0 3.32-2.7 6-6 6H326c-3.3 0-6-2.68-6-6z" stroke="#000" stroke-opacity="0" stroke-width="3" fill="#fff" fill-opacity="0"/><use xlink:href="#z" transform="matrix(1,0,0,1,320,2042.067215515686) translate(0 31.07204861111109)"/><use xlink:href="#t" transform="matrix(1,0,0,1,320,2042.067215515686) translate(88.3007812499999 31.07204861111109)"/><path d="M628.73 2067c0 11.05-8.96 20-20 20-11.05 0-20-8.95-20-20s8.95-20 20-20c11.04 0 20 8.95 20 20z" stroke="#202124" stroke-width="3" fill="#99d5ca"/><use xlink:href="#r" transform="matrix(1,0,0,1,593.7268345308812,2052) translate(8.141935763888897 22.677951388888864)"/><path d="M638.58 2043c0-3.3 2.7-6 6-6h48.5c3.3 0 6 2.7 6 6v48c0 3.3-2.7 6-6 6h-48.5c-3.3 0-6-2.7-6-6z" stroke="#000" stroke-opacity="0" stroke-width="3" fill="#fff" fill-opacity="0"/><use xlink:href="#n" transform="matrix(1,0,0,1,653.5844741557396,2052) translate(8.636935763888896 22.677951388888864)"/><path d="M723.32 2010c0 2.5-2.03 4.54-4.53 4.54-2.52 0-4.55-2.03-4.55-4.54 0-2.5 2.03-4.54 4.54-4.54 2.5 0 4.52 2.03 4.52 4.54z" stroke="#202124" stroke-width="3" fill="#202124"/><path d="M320 1991.07c0-3.32 2.7-6 6-6h226.43c3.3 0 6 2.68 6 6v37.86c0 3.32-2.7 6-6 6H326c-3.3 0-6-2.68-6-6z" stroke="#000" stroke-opacity="0" stroke-width="3" fill="#fff" fill-opacity="0"/><use xlink:href="#z" transform="matrix(1,0,0,1,320,1985.067215515686) translate(0 31.07204861111109)"/><use xlink:href="#u" transform="matrix(1,0,0,1,320,1985.067215515686) translate(88.3007812499999 31.07204861111109)"/><path d="M628.73 2010c0 11.05-8.96 20-20 20-11.05 0-20-8.95-20-20s8.95-20 20-20c11.04 0 20 8.95 20 20z" stroke="#202124" stroke-width="3" fill="#b2d6ef"/><use xlink:href="#q" transform="matrix(1,0,0,1,593.7268345308812,1995) translate(8.141935763888897 22.677951388888864)"/><path d="M638.58 1986c0-3.3 2.7-6 6-6h48.5c3.3 0 6 2.7 6 6v48c0 3.3-2.7 6-6 6h-48.5c-3.3 0-6-2.7-6-6z" stroke="#000" stroke-opacity="0" stroke-width="3" fill="#fff" fill-opacity="0"/><use xlink:href="#n" transform="matrix(1,0,0,1,653.5844741557396,1995) translate(8.636935763888896 22.677951388888864)"/><path d="M800.9 2231c0 11.05-8.96 20-20 20-11.06 0-20-8.95-20-20s8.94-20 20-20c11.04 0 20 8.95 20 20z" stroke="#202124" stroke-width="3" fill="#b2d6ef"/><use xlink:href="#q" transform="matrix(1,0,0,1,765.8896415124748,2216) translate(8.141935763888897 22.677951388888864)"/><path d="M872.9 2231c0 11.05-8.96 20-20 20-11.06 0-20-8.95-20-20s8.94-20 20-20c11.04 0 20 8.95 20 20z" stroke="#202124" stroke-width="3" fill="#ffeca9"/><use xlink:href="#m" transform="matrix(1,0,0,1,837.8896415124747,2216) translate(8.141935763888897 22.677951388888864)"/><path d="M803.4 2231l9.5.13" stroke="#202124" stroke-width="2" fill="none"/><path d="M803.43 2230l-.03 2h-1.12l.1-.93-.02-1.07z" fill="#202124"/><path d="M828.17 2231.3l-14.33 4.47.12-9.27z" stroke="#202124" stroke-width="2" fill="#202124"/><path d="M723.32 2231c0 2.5-2.03 4.54-4.53 4.54-2.52 0-4.55-2.03-4.55-4.54 0-2.5 2.03-4.54 4.54-4.54 2.5 0 4.52 2.03 4.52 4.54z" stroke="#202124" stroke-width="3" fill="#202124"/><path d="M725.83 2231h15.06" stroke="#202124" stroke-width="2" fill="none"/><path d="M725.85 2232h-1.3l.3-.8-.12-1.2h1.12z" fill="#202124"/><path d="M756.15 2231l-14.26 4.64v-9.28z" stroke="#202124" stroke-width="2" fill="#202124"/><path d="M801.28 2284.73c0 11.05-8.96 20-20 20-11.05 0-20-8.95-20-20 0-11.04 8.95-20 20-20 11.04 0 20 8.96 20 20z" stroke="#202124" stroke-width="3" fill="#b2d6ef"/><use xlink:href="#q" transform="matrix(1,0,0,1,766.2774512325049,2269.7311379372554) translate(8.141935763888897 22.677951388888864)"/><path d="M873.28 2284.73c0 11.05-8.96 20-20 20-11.05 0-20-8.95-20-20 0-11.04 8.95-20 20-20 11.04 0 20 8.96 20 20z" stroke="#202124" stroke-width="3" fill="#ffeca9"/><use xlink:href="#m" transform="matrix(1,0,0,1,838.2774512325049,2269.7311379372554) translate(8.141935763888897 22.677951388888864)"/><path d="M945.28 2284.73c0 11.05-8.96 20-20 20-11.05 0-20-8.95-20-20 0-11.04 8.95-20 20-20 11.04 0 20 8.96 20 20z" stroke="#202124" stroke-width="3" fill="#99d5ca"/><use xlink:href="#r" transform="matrix(1,0,0,1,910.2774512325049,2269.7311379372554) translate(8.141935763888897 22.677951388888864)"/><path d="M1017.28 2284.73c0 11.05-8.96 20-20 20-11.05 0-20-8.95-20-20 0-11.04 8.95-20 20-20 11.04 0 20 8.96 20 20z" stroke="#202124" stroke-width="3" fill="#d1bcd2"/><g><use xlink:href="#n" transform="matrix(1,0,0,1,982.2774512325049,2269.7311379372554) translate(8.141935763888897 22.677951388888864)"/></g><path d="M803.78 2284.74l9.5.12" stroke="#202124" stroke-width="2" fill="none"/><path d="M803.82 2283.74l-.03 2h-1.14l.12-.94-.04-1.07z" fill="#202124"/><path d="M828.55 2285.04l-14.32 4.47.1-9.26z" stroke="#202124" stroke-width="2" fill="#202124"/><path d="M875.78 2284.73h9.5" stroke="#202124" stroke-width="2" fill="none"/><path d="M875.8 2285.73h-1.14l.12-.93-.04-1.07h1.06z" fill="#202124"/><path d="M900.54 2284.73l-14.27 4.64v-9.27z" stroke="#202124" stroke-width="2" fill="#202124"/><path d="M947.78 2284.73h9.5" stroke="#202124" stroke-width="2" fill="none"/><path d="M947.8 2285.73h-1.14l.12-.93-.04-1.07h1.06z" fill="#202124"/><path d="M972.54 2284.73l-14.27 4.64v-9.27z" stroke="#202124" stroke-width="2" fill="#202124"/><path d="M723.7 2284.73c0 2.5-2.02 4.54-4.53 4.54-2.5 0-4.53-2.03-4.53-4.54 0-2.5 2.03-4.53 4.53-4.53 2.5 0 4.54 2.03 4.54 4.53z" stroke="#202124" stroke-width="3" fill="#202124"/><path d="M726.22 2284.73h15.05" stroke="#202124" stroke-width="2" fill="none"/><path d="M726.24 2285.73h-1.3l.3-.8-.12-1.2h1.12z" fill="#202124"/><path d="M756.54 2284.73l-14.27 4.64v-9.27z" stroke="#202124" stroke-width="2" fill="#202124"/><defs><path fill="#333" d="M579 20C257 20 58-214 66-551c8-331 182-551 511-551 324 0 514 231 514 572 0 319-198 550-512 550zm-2-888c-169 0-222 141-222 338 0 181 61 317 224 317 170 0 223-137 223-338 0-178-64-317-225-317" id="A"/><path fill="#333" d="M663-1102c295 0 422 250 422 571 0 300-141 549-420 551-109 0-198-38-265-114v510H111v-1498h268l10 106c70-84 161-126 274-126zm133 550c0-175-53-315-209-315-91 0-153 35-187 104v443c35 71 98 107 189 107 138 0 207-113 207-339" id="B"/><path fill="#333" d="M1031-175C952-60 797 20 609 20 287 20 60-206 72-543c12-330 180-559 505-559 309 0 482 214 477 537v118H365c15 134 115 234 263 234 111 0 198-40 261-121zM770-644c5-139-62-226-194-224-130 1-191 97-208 224h402" id="C"/><path fill="#333" d="M719-811c-143-24-279 1-319 103V0H111v-1082h273l8 129c74-124 180-175 331-136" id="D"/><path fill="#333" d="M552-1102c254-4 435 134 435 383v469c1 103 15 180 43 233V0H738c-13-26-23-58-29-97C639-19 548 20 436 20 238 20 64-113 68-304c5-258 212-357 496-357h133c11-137-29-227-160-227-90 0-156 45-156 131H92c15-231 213-342 460-345zM357-325c0 76 61 124 142 124 88 0 168-45 198-105v-186H589c-152 2-232 51-232 167" id="E"/><path fill="#333" d="M457-330c2 83 25 111 111 112 32 0 60-2 85-7V-6c-57 17-115 26-175 26-203 0-310-102-310-307v-583H10v-212h158v-266h289v266h185v212H457v540" id="F"/><path fill="#333" d="M416 0H126v-1082h290V0zM271-1212c-92 0-162-61-162-150s68-149 162-149c93 0 162 60 162 149s-70 150-162 150" id="G"/><path fill="#333" d="M750-692c-1-124-48-174-173-175-81 0-142 35-183 104V0H105v-1082h272l9 125c77-97 181-145 311-145 244 0 342 151 342 403V0H750v-692" id="H"/><g id="a"><use transform="matrix(0.011935763888888876,0,0,0.011935763888888876,0,0)" xlink:href="#A"/><use transform="matrix(0.011935763888888876,0,0,0.011935763888888876,13.821614583333318,0)" xlink:href="#B"/><use transform="matrix(0.011935763888888876,0,0,0.011935763888888876,27.583550347222193,0)" xlink:href="#C"/><use transform="matrix(0.011935763888888876,0,0,0.011935763888888876,40.79644097222218,0)" xlink:href="#D"/><use transform="matrix(0.011935763888888876,0,0,0.011935763888888876,49.3543836805555,0)" xlink:href="#E"/><use transform="matrix(0.011935763888888876,0,0,0.011935763888888876,62.459852430555486,0)" xlink:href="#F"/><use transform="matrix(0.011935763888888876,0,0,0.011935763888888876,70.7194010416666,0)" xlink:href="#G"/><use transform="matrix(0.011935763888888876,0,0,0.011935763888888876,77.20052083333326,0)" xlink:href="#A"/><use transform="matrix(0.011935763888888876,0,0,0.011935763888888876,91.02213541666657,0)" xlink:href="#H"/></g><path fill="#333" d="M515-409l200-673h310L590 168c-66 202-236 321-472 250V199c127 7 198-15 230-107l34-89L3-1082h311" id="I"/><g id="b"><use transform="matrix(0.011935763888888876,0,0,0.011935763888888876,0,0)" xlink:href="#C"/><use transform="matrix(0.011935763888888876,0,0,0.011935763888888876,13.212890624999986,0)" xlink:href="#H"/><use transform="matrix(0.011935763888888876,0,0,0.011935763888888876,26.903211805555525,0)" xlink:href="#F"/><use transform="matrix(0.011935763888888876,0,0,0.011935763888888876,35.16276041666663,0)" xlink:href="#D"/><use transform="matrix(0.011935763888888876,0,0,0.011935763888888876,44.29361979166662,0)" xlink:href="#I"/></g><path fill="#333" d="M523-759l182-323h309L706-552 1027 0H717L524-340 332 0H21l321-552-307-530h310" id="J"/><path fill="#333" d="M505 20C221 18 69-239 69-549c0-302 153-553 438-553 119 0 211 41 277 122l12-102h262V-36c-8 305-208 458-520 462-160 1-335-76-403-170L263 80c72 81 159 121 262 121 172 1 260-107 243-294C701-18 614 20 505 20zm76-887c-165 0-223 147-223 339 0 172 66 314 221 314 88 0 151-33 189-99v-455c-39-66-101-99-187-99" id="K"/><g id="c"><use transform="matrix(0.011935763888888876,0,0,0.011935763888888876,0,0)" xlink:href="#F"/><use transform="matrix(0.011935763888888876,0,0,0.011935763888888876,8.259548611111102,0)" xlink:href="#J"/><use transform="matrix(0.011935763888888876,0,0,0.011935763888888876,20.457899305555536,0)" xlink:href="#K"/></g><path fill="#333" d="M355-556c-2 203 30 338 206 343 102 3 181-63 182-161h271C1001-128 821 17 566 20 242 24 66-212 66-554c0-320 184-548 498-548 262 0 451 167 450 423H743c-1-108-75-193-184-189-162 6-202 123-204 312" id="L"/><path fill="#333" d="M741-689c-2-124-40-177-163-178-82 0-141 34-178 102V0H111v-1082h271l9 121c77-94 180-141 311-141 139 0 235 55 287 165 76-110 184-165 325-165 249 0 348 151 348 411V0h-290v-690c-2-123-39-176-163-177-87 0-147 41-180 124l1 743H741v-689" id="M"/><path fill="#333" d="M488 20C204 20 66-234 66-549c0-305 140-551 424-553 105 0 192 39 261 118v-552h290V0H780l-14-115C694-25 601 20 488 20zM355-528c0 176 51 314 207 314 89 0 152-38 189-113v-427c-36-75-98-113-187-113-139 0-209 113-209 339" id="N"/><g id="d"><use transform="matrix(0.011935763888888876,0,0,0.011935763888888876,0,0)" xlink:href="#L"/><use transform="matrix(0.011935763888888876,0,0,0.011935763888888876,12.74739583333332,0)" xlink:href="#A"/><use transform="matrix(0.011935763888888876,0,0,0.011935763888888876,26.56901041666664,0)" xlink:href="#M"/><use transform="matrix(0.011935763888888876,0,0,0.011935763888888876,47.731119791666615,0)" xlink:href="#M"/><use transform="matrix(0.011935763888888876,0,0,0.011935763888888876,68.8932291666666,0)" xlink:href="#G"/><use transform="matrix(0.011935763888888876,0,0,0.011935763888888876,75.37434895833326,0)" xlink:href="#F"/><use transform="matrix(0.011935763888888876,0,0,0.011935763888888876,83.63389756944436,0)" xlink:href="#F"/><use transform="matrix(0.011935763888888876,0,0,0.011935763888888876,91.89344618055546,0)" xlink:href="#C"/><use transform="matrix(0.011935763888888876,0,0,0.011935763888888876,105.10633680555544,0)" xlink:href="#N"/></g><path fill="#333" d="M416 0H126v-1536h290V0" id="O"/><g id="e"><use transform="matrix(0.011935763888888876,0,0,0.011935763888888876,0,0)" xlink:href="#O"/><use transform="matrix(0.011935763888888876,0,0,0.011935763888888876,6.48111979166666,0)" xlink:href="#A"/><use transform="matrix(0.011935763888888876,0,0,0.011935763888888876,20.30273437499998,0)" xlink:href="#K"/></g><path fill="#333" d="M529-185c94 0 168-33 168-114 0-35-18-63-53-83s-91-39-168-55C219-491 90-600 90-765c0-208 203-337 432-337 246 0 451 124 453 349H686c-2-91-62-143-165-143-86 0-151 41-153 117 0 32 16 57 46 77 63 43 257 69 335 100 151 60 229 153 229 291C978-13 554 93 282-28 162-81 60-190 56-344h274c5 106 86 159 199 159" id="P"/><path fill="#333" d="M463 20c-241-1-359-147-359-393v-709h289v699c0 113 51 169 154 169 98 0 165-34 202-102v-766h290V0H767l-8-110C688-23 589 20 463 20" id="Q"/><g id="f"><use transform="matrix(0.011935763888888876,0,0,0.011935763888888876,0,0)" xlink:href="#P"/><use transform="matrix(0.011935763888888876,0,0,0.011935763888888876,12.568359374999986,0)" xlink:href="#F"/><use transform="matrix(0.011935763888888876,0,0,0.011935763888888876,20.827907986111086,0)" xlink:href="#D"/><use transform="matrix(0.011935763888888876,0,0,0.011935763888888876,29.74392361111108,0)" xlink:href="#Q"/><use transform="matrix(0.011935763888888876,0,0,0.011935763888888876,43.42230902777773,0)" xlink:href="#L"/><use transform="matrix(0.011935763888888876,0,0,0.011935763888888876,56.16970486111105,0)" xlink:href="#F"/><use transform="matrix(0.011935763888888876,0,0,0.011935763888888876,64.42925347222216,0)" xlink:href="#Q"/><use transform="matrix(0.011935763888888876,0,0,0.011935763888888876,78.10763888888881,0)" xlink:href="#D"/><use transform="matrix(0.011935763888888876,0,0,0.011935763888888876,86.79687499999991,0)" xlink:href="#C"/></g><path fill="#333" d="M1052-393l142-689h279L1197 0H955L750-681 545 0H304L28-1082h279l141 688 198-688h209" id="R"/><g id="g"><use transform="matrix(0.011935763888888876,0,0,0.011935763888888876,0,0)" xlink:href="#R"/><use transform="matrix(0.011935763888888876,0,0,0.011935763888888876,17.963324652777757,0)" xlink:href="#D"/><use transform="matrix(0.011935763888888876,0,0,0.011935763888888876,26.87934027777775,0)" xlink:href="#G"/><use transform="matrix(0.011935763888888876,0,0,0.011935763888888876,33.36046006944441,0)" xlink:href="#F"/><use transform="matrix(0.011935763888888876,0,0,0.011935763888888876,41.62000868055551,0)" xlink:href="#C"/></g><path fill="#333" d="M750-685c-1-124-48-182-173-182-85 0-146 33-184 98V0H104v-1536h289v572c77-92 173-138 289-138 235 0 357 136 357 409V0H750v-685" id="S"/><g id="h"><use transform="matrix(0.011935763888888876,0,0,0.011935763888888876,0,0)" xlink:href="#B"/><use transform="matrix(0.011935763888888876,0,0,0.011935763888888876,13.761935763888873,0)" xlink:href="#E"/><use transform="matrix(0.011935763888888876,0,0,0.011935763888888876,26.86740451388886,0)" xlink:href="#F"/><use transform="matrix(0.011935763888888876,0,0,0.011935763888888876,35.12695312499996,0)" xlink:href="#S"/></g><g id="i"><use transform="matrix(0.011935763888888876,0,0,0.011935763888888876,0,0)" xlink:href="#B"/><use transform="matrix(0.011935763888888876,0,0,0.011935763888888876,13.761935763888873,0)" xlink:href="#D"/><use transform="matrix(0.011935763888888876,0,0,0.011935763888888876,22.451171874999975,0)" xlink:href="#C"/><use transform="matrix(0.011935763888888876,0,0,0.011935763888888876,35.66406249999996,0)" xlink:href="#L"/><use transform="matrix(0.011935763888888876,0,0,0.011935763888888876,48.41145833333328,0)" xlink:href="#D"/><use transform="matrix(0.011935763888888876,0,0,0.011935763888888876,56.96940104166661,0)" xlink:href="#E"/><use transform="matrix(0.011935763888888876,0,0,0.011935763888888876,70.0748697916666,0)" xlink:href="#P"/><use transform="matrix(0.011935763888888876,0,0,0.011935763888888876,82.64322916666659,0)" xlink:href="#S"/></g><g id="j"><use transform="matrix(0.011935763888888876,0,0,0.011935763888888876,0,0)" xlink:href="#F"/><use transform="matrix(0.011935763888888876,0,0,0.011935763888888876,8.259548611111102,0)" xlink:href="#J"/><use transform="matrix(0.011935763888888876,0,0,0.011935763888888876,20.457899305555536,0)" xlink:href="#K"/></g><g id="k"><use transform="matrix(0.011935763888888876,0,0,0.011935763888888876,0,0)" xlink:href="#D"/><use transform="matrix(0.011935763888888876,0,0,0.011935763888888876,8.689236111111102,0)" xlink:href="#C"/><use transform="matrix(0.011935763888888876,0,0,0.011935763888888876,21.902126736111086,0)" xlink:href="#B"/><use transform="matrix(0.011935763888888876,0,0,0.011935763888888876,35.66406249999996,0)" xlink:href="#O"/><use transform="matrix(0.011935763888888876,0,0,0.011935763888888876,42.145182291666615,0)" xlink:href="#E"/><use transform="matrix(0.011935763888888876,0,0,0.011935763888888876,55.071614583333265,0)" xlink:href="#I"/></g><path fill="#333" d="M489 20C202 20 66-232 66-551c0-308 139-551 425-551 116 0 208 44 277 133l19-113h254V416H751V-93C684-18 597 20 489 20zM355-530c-1 177 53 317 208 317 89 0 151-35 188-106v-447c-51-122-269-140-341-21-34 56-55 140-55 257" id="T"/><g id="l"><use transform="matrix(0.011935763888888876,0,0,0.011935763888888876,0,0)" xlink:href="#P"/><use transform="matrix(0.011935763888888876,0,0,0.011935763888888876,12.568359374999986,0)" xlink:href="#C"/><use transform="matrix(0.011935763888888876,0,0,0.011935763888888876,25.78124999999997,0)" xlink:href="#T"/><use transform="matrix(0.011935763888888876,0,0,0.011935763888888876,39.5909288194444,0)" xlink:href="#Q"/><use transform="matrix(0.011935763888888876,0,0,0.011935763888888876,53.26931423611105,0)" xlink:href="#C"/><use transform="matrix(0.011935763888888876,0,0,0.011935763888888876,66.48220486111103,0)" xlink:href="#H"/><use transform="matrix(0.011935763888888876,0,0,0.011935763888888876,80.17252604166657,0)" xlink:href="#L"/><use transform="matrix(0.011935763888888876,0,0,0.011935763888888876,92.91992187499989,0)" xlink:href="#C"/></g><path fill="#333" d="M832-402c-1-179-119-264-303-265H390v-151h139c164 0 281-91 281-250 0-171-85-256-255-256-154 0-265 99-263 250H107c-4-235 205-402 448-402 266 0 444 150 440 412-2 148-109 272-229 317 147 45 249 158 251 341 3 262-197 426-461 426C299 20 91-135 94-384h186c-2 156 116 253 276 253 176 0 277-96 276-271" id="U"/><use transform="matrix(0.011935763888888876,0,0,0.011935763888888876,0,0)" xlink:href="#U" id="m"/><path fill="#333" d="M902-489h202v151H902V0H716v-338H53v-109l652-1009h197v967zm-639 0h453v-714l-22 40" id="V"/><use transform="matrix(0.011935763888888876,0,0,0.011935763888888876,0,0)" xlink:href="#V" id="n"/><path fill="#333" d="M884-462c0-185-111-323-291-323-113 0-183 39-239 93l-148-38 74-726h746v171H437l-44 397c71-42 152-63 243-63 273-2 433 205 433 487 0 293-170 484-461 484-260 0-436-159-454-403h175c20 156 111 252 279 252 182 0 276-140 276-331" id="W"/><use transform="matrix(0.011935763888888876,0,0,0.011935763888888876,0,0)" xlink:href="#W" id="o"/><path fill="#333" d="M516-353l201-729h302L654 0H378L13-1082h302" id="X"/><g id="p"><use transform="matrix(0.011935763888888876,0,0,0.011935763888888876,0,0)" xlink:href="#D"/><use transform="matrix(0.011935763888888876,0,0,0.011935763888888876,8.689236111111102,0)" xlink:href="#C"/><use transform="matrix(0.011935763888888876,0,0,0.011935763888888876,21.902126736111086,0)" xlink:href="#L"/><use transform="matrix(0.011935763888888876,0,0,0.011935763888888876,34.64952256944441,0)" xlink:href="#A"/><use transform="matrix(0.011935763888888876,0,0,0.011935763888888876,48.292100694444386,0)" xlink:href="#X"/><use transform="matrix(0.011935763888888876,0,0,0.011935763888888876,60.490451388888815,0)" xlink:href="#C"/><use transform="matrix(0.011935763888888876,0,0,0.011935763888888876,73.7033420138888,0)" xlink:href="#D"/><use transform="matrix(0.011935763888888876,0,0,0.011935763888888876,82.83420138888879,0)" xlink:href="#I"/></g><path fill="#333" d="M729 0H543v-1233l-373 137v-168l530-199h29V0" id="Y"/><use transform="matrix(0.011935763888888876,0,0,0.011935763888888876,0,0)" xlink:href="#Y" id="q"/><path fill="#333" d="M569-1476c255 0 440 146 439 390 0 143-91 314-274 512L344-151h731V0H121v-133l504-560c75-85 125-155 155-207 105-184 6-424-211-424-183 0-293 113-291 297H93c-3-270 199-449 476-449" id="Z"/><use transform="matrix(0.011935763888888876,0,0,0.011935763888888876,0,0)" xlink:href="#Z" id="r"/><path fill="#333" d="M637-1147c132 1 237 25 336 66v180c-92-53-190-92-322-92-145 0-248 35-248 164 0 50 15 87 46 112 23 30 197 67 303 86 166 30 278 123 278 307 0 239-191 356-446 353-140-2-251-31-371-70v-190c114 58 228 103 375 106 145 3 253-56 256-188 3-87-90-149-253-179-210-38-374-93-374-319 0-232 173-338 420-336" id="aa"/><path fill="#333" d="M1153-1120C1010-750 884-433 741-52c-66 176-110 283-133 322-55 94-138 156-276 156H184V272c97 0 188 7 236-47 29-33 70-112 117-243L104-1120h195l332 876 327-876h195" id="ab"/><path fill="#333" d="M711-1147c253 0 340 178 340 453V0H866v-694c-1-183-51-293-219-293-189 0-268 148-268 354V0H195v-1120h184v168c60-118 165-195 332-195" id="ac"/><path fill="#333" d="M748-127c144 0 233-46 313-121v191C974-6 875 28 748 29c-351 3-553-232-553-588 0-357 202-591 553-588 129 2 222 35 313 86v193c-88-76-165-123-313-123-245 0-359 174-359 432 0 257 115 432 359 432" id="ad"/><g id="s"><use transform="matrix(0.011935763888888876,0,0,0.011935763888888876,0,0)" xlink:href="#aa"/><use transform="matrix(0.011935763888888876,0,0,0.011935763888888876,14.716796874999984,0)" xlink:href="#ab"/><use transform="matrix(0.011935763888888876,0,0,0.011935763888888876,29.433593749999968,0)" xlink:href="#ac"/><use transform="matrix(0.011935763888888876,0,0,0.011935763888888876,44.15039062499995,0)" xlink:href="#ad"/></g><path fill="#333" d="M889-1493h190L293 190H102" id="ae"/><path fill="#333" d="M934-430c0-206-112-282-326-283H369v547h239c220-2 326-58 326-264zm-53-684c0-168-96-213-277-213H369v450h235c186-1 277-59 277-237zm256 704C1133-113 928 1 608 0H166v-1493h442c280-3 477 118 477 379 0 189-93 290-262 315 190 26 317 174 314 389" id="af"/><g id="t"><use transform="matrix(0.011935763888888876,0,0,0.011935763888888876,0,0)" xlink:href="#ae"/><use transform="matrix(0.011935763888888876,0,0,0.011935763888888876,14.716796874999984,0)" xlink:href="#af"/></g><path fill="#333" d="M616-1315L403-551h426zm-122-178h245L1196 0H987L877-389H354L246 0H37" id="ag"/><g id="u"><use transform="matrix(0.011935763888888876,0,0,0.011935763888888876,0,0)" xlink:href="#ae"/><use transform="matrix(0.011935763888888876,0,0,0.011935763888888876,14.716796874999984,0)" xlink:href="#ag"/></g><path fill="#333" d="M651-1147c298 0 466 229 461 541v90H315c-4 242 129 392 365 389 156-2 268-51 389-113v183C949-8 828 27 678 29c-351 3-555-232-555-588 0-338 200-588 528-588zm277 487c-4-201-91-331-285-331-193 0-305 144-321 332" id="ah"/><path fill="#333" d="M711-1147c253 0 340 178 340 453V0H866v-694c-1-183-51-293-219-293-189 0-268 148-268 354V0H195v-1556h184v604c60-118 165-195 332-195" id="ai"/><path fill="#333" d="M616-991c-93 0-161 39-212 109-92 126-92 520 0 646 52 70 119 109 212 109 94 0 161-39 213-109 93-126 92-520 0-646-52-70-119-109-213-109zM137-559c0-353 146-588 479-588s480 235 480 588c0 355-145 588-480 588-334 0-479-234-479-588" id="aj"/><g id="v"><use transform="matrix(0.011935763888888876,0,0,0.011935763888888876,0,0)" xlink:href="#ah"/><use transform="matrix(0.011935763888888876,0,0,0.011935763888888876,14.716796874999984,0)" xlink:href="#ad"/><use transform="matrix(0.011935763888888876,0,0,0.011935763888888876,29.433593749999968,0)" xlink:href="#ai"/><use transform="matrix(0.011935763888888876,0,0,0.011935763888888876,44.15039062499995,0)" xlink:href="#aj"/></g><path fill="#333" d="M850-236c87-126 87-521 0-646-49-70-112-109-201-109s-154 38-203 109c-89 127-89 518 0 645 49 71 114 110 203 110s152-39 201-109zM676 29c-146 0-244-69-299-170V0H193v-1556h184v579c53-101 154-170 301-170 297 0 434 260 434 584 0 329-136 592-436 592" id="ak"/><path fill="#333" d="M547-125c229-2 340-186 327-438H641c-189 0-321 55-324 225-3 137 91 215 230 213zm-332-944c167-71 431-115 615-37 106 45 186 120 213 246 11 49 16 123 16 221V0H874v-166C800-42 695 26 508 29c-220 3-378-138-375-355 4-274 199-382 494-381h247c6-204-80-285-282-284-149 1-272 46-377 106v-184" id="al"/><path fill="#333" d="M915-1147c102 0 174 26 240 70v188c-71-55-140-88-254-88-243 0-354 165-354 420V0H362v-1120h185v219c55-146 178-246 368-246" id="am"/><g id="w"><use transform="matrix(0.011935763888888876,0,0,0.011935763888888876,0,0)" xlink:href="#ak"/><use transform="matrix(0.011935763888888876,0,0,0.011935763888888876,14.716796874999984,0)" xlink:href="#al"/><use transform="matrix(0.011935763888888876,0,0,0.011935763888888876,29.433593749999968,0)" xlink:href="#am"/></g><path fill="#333" d="M88-961v-182l1057 418v166L88-141v-183l850-317" id="an"/><g id="x"><use transform="matrix(0.011935763888888876,0,0,0.011935763888888876,0,0)" xlink:href="#an"/><use transform="matrix(0.011935763888888876,0,0,0.011935763888888876,14.716796874999984,0)" xlink:href="#an"/></g><path fill="#333" d="M494-1120c-16-286 77-439 348-436h221v153H854c-136 2-174 46-176 184v99h385v143H678V0H494v-977H195v-143h299" id="ao"/><g id="y"><use transform="matrix(0.011935763888888876,0,0,0.011935763888888876,0,0)" xlink:href="#ao"/><use transform="matrix(0.011935763888888876,0,0,0.011935763888888876,14.716796874999984,0)" xlink:href="#aj"/><use transform="matrix(0.011935763888888876,0,0,0.011935763888888876,29.433593749999968,0)" xlink:href="#aj"/></g><path fill="#333" d="M807 0C529-4 430-92 430-369v-608H131v-143h299v-318h184v318h418v143H614v608c2 165 49 222 211 222h207V0H807" id="ap"/><path fill="#333" d="M535 29c-255 0-340-177-340-453v-694h184v694c1 183 52 293 219 293 191 0 268-148 268-354v-633h185V0H866v-168C807-50 701 29 535 29" id="aq"/><g id="z"><use transform="matrix(0.011935763888888876,0,0,0.011935763888888876,0,0)" xlink:href="#ap"/><use transform="matrix(0.011935763888888876,0,0,0.011935763888888876,14.716796874999984,0)" xlink:href="#aj"/><use transform="matrix(0.011935763888888876,0,0,0.011935763888888876,29.433593749999968,0)" xlink:href="#aq"/><use transform="matrix(0.011935763888888876,0,0,0.011935763888888876,44.15039062499995,0)" xlink:href="#ad"/><use transform="matrix(0.011935763888888876,0,0,0.011935763888888876,58.867187499999936,0)" xlink:href="#ai"/></g></defs></g></svg>