<svg xmlns="http://www.w3.org/2000/svg" xmlns:xlink="http://www.w3.org/1999/xlink" xmlns:lucid="lucid" width="882.74" height="628.58"><g transform="translate(-189.0037315460221 -10891.5625)" lucid:page-tab-id="YVeF-zE.-2Bu"><path d="M541.18 11000h99.53v140H541.2z" fill="#fff"/><path d="M546.06 11000H548m3.9 0h1.96m3.9 0h1.96m3.9 0h1.95m3.9 0h1.96m3.9 0h1.95m3.9 0h1.96m3.9 0H589m3.9 0h1.95m3.9 0h1.95m3.9 0h1.95m3.9 0h1.96m3.9 0h1.96m3.9 0h1.96m3.9 0h1.95m3.9 0h1.96m3.9 0h.98v1m0 4.07v2.03m0 4.06v2.03m0 4.05v2.03m0 4.05v2.03m0 4.06v2.03m0 4.06v2.04m0 4.05v2.02m0 4.06v2.03m0 4.07v2.03m0 4.06v2.02m0 4.06v2.03m0 4.06v2.03m0 4.06v2.02m0 4.06v2.03m0 4.06v2.02m0 4.06v2.03m0 4.06v2.03m0 4.05v2.03m0 4.06v2.03m0 4.05v2.03m0 4.06v2.04m0 4.06v2.03m0 4.06v1h-.97m-3.9 0h-1.95m-3.9 0H628m-3.9 0h-1.95m-3.9 0h-1.96m-3.9 0h-1.94m-3.9 0h-1.96m-3.9 0h-1.95m-3.9 0h-1.96m-3.9 0h-1.96m-3.9 0h-1.96m-3.9 0h-1.95m-3.9 0h-1.96m-3.9 0h-1.95m-3.9 0h-1.96m-3.9 0h-1.95m-3.9 0h-1.94m-3.9 0h-.98v-1m0-4.07v-2.03m0-4.06v-2.03m0-4.05v-2.03m0-4.05v-2.03m0-4.06v-2.03m0-4.06v-2.04m0-4.05v-2.02m0-4.06v-2.03m0-4.07v-2.03m0-4.06v-2.02m0-4.06v-2.03m0-4.06v-2.03m0-4.06v-2.02m0-4.06v-2.03m0-4.06v-2.02m0-4.06v-2.03m0-4.06v-2.03m0-4.05v-2.03m0-4.06v-2.03m0-4.05v-2.03m0-4.06v-2.04m0-4.06v-2.03m0-4.06v-1h.97" stroke="#202124" fill="none"/><path d="M361.18 11000h60.95v40h-60.95z" stroke="#202124" fill="#fff"/><use xlink:href="#a" transform="matrix(1,0,0,1,366.1764423098927,11005) translate(14.871202256944455 22.677951388888864)"/><path d="M422.13 11000h39.05v40h-39.05z" stroke="#202124" fill="#fff"/><path d="M422.13 11000h20.8v40h-20.8z" stroke="#000" stroke-opacity="0" fill-opacity="0"/><path d="M361.18 10920h60.95v40h-60.95z" stroke="#202124" fill="#fff"/><use xlink:href="#a" transform="matrix(1,0,0,1,366.1764423098927,10925) translate(14.871202256944455 22.677951388888864)"/><path d="M422.13 10920h39.05v40h-39.05z" stroke="#202124" fill="#fff"/><path d="M422.13 10920h20.8v40h-20.8z" stroke="#000" stroke-opacity="0" fill-opacity="0"/><path d="M541.18 11220h100v100h-100zM541.18 11180h60.95v40h-60.95zM602.13 11180h39.05v40h-39.05z" stroke="#202124" fill="#fff"/><path d="M576.74 11260H605v40h-28.26zM544.28 11180h29.65v40h-29.65z" stroke="#000" stroke-opacity="0" fill-opacity="0"/><use xlink:href="#b" transform="matrix(1,0,0,1,549.2794357746357,11185) translate(-2.4414062499999822 21.835937499999993)"/><path d="M574.93 11200.04l1.03.04 1.72.22 1.5.3 1.3.4 1.18.46 1.07.53 1 .6.9.66.9.75.84.86.8.98.8 1.13.78 1.34.77 1.6.75 2 .72 2.54.66 3.43.55 5 .23 8.88-.37 9.76" stroke="#5e5e5e" stroke-width="2" fill="none"/><path d="M575 11199.04l-.1 2-.97-.04v-2z" fill="#5e5e5e"/><path d="M591.5 11256.77l-4.1-14.43 9.26.34z" stroke="#5e5e5e" stroke-width="2" fill="#5e5e5e"/><path d="M602.13 11180h20.8v40h-20.8z" stroke="#000" stroke-opacity="0" fill-opacity="0"/><path d="M361.18 11180h60.95v40h-60.95z" stroke="#202124" fill="#fff"/><use xlink:href="#a" transform="matrix(1,0,0,1,366.17644230989276,11185) translate(14.871202256944455 22.677951388888864)"/><path d="M422.13 11180h39.05v40h-39.05z" stroke="#202124" fill="#fff"/><path d="M422.13 11180h20.8v40h-20.8z" stroke="#000" stroke-opacity="0" fill-opacity="0"/><path d="M443.44 11200h80.85" stroke="#202124" fill="none"/><path d="M443.45 11200.5h-.52v-1h.52z" fill="#202124"/><path d="M539.06 11200l-14.27 4.64v-9.28z" stroke="#202124" fill="#202124"/><path d="M443.44 11020h80.85" stroke="#202124" fill="none"/><path d="M443.45 11020.5h-.52v-1h.52z" fill="#202124"/><path d="M539.06 11020l-14.27 4.64v-9.28z" stroke="#202124" fill="#202124"/><path d="M722.54 11180h99.53v140h-99.53z" fill="#fff"/><path d="M727.4 11180h1.97m3.9 0h1.95m3.9 0h1.96m3.9 0h1.95m3.9 0h1.95m3.9 0h1.96m3.9 0h1.95m3.9 0h1.95m3.9 0h1.95m3.9 0h1.96m3.9 0h1.95m3.92 0h1.95m3.9 0h1.95m3.9 0h1.96m3.9 0h1.95m3.9 0h1.96m3.9 0h.97v1m0 4.07v2.03m0 4.06v2.03m0 4.05v2.03m0 4.05v2.03m0 4.06v2.03m0 4.06v2.04m0 4.05v2.02m0 4.06v2.03m0 4.07v2.03m0 4.06v2.02m0 4.06v2.03m0 4.06v2.03m0 4.06v2.02m0 4.06v2.03m0 4.06v2.02m0 4.06v2.03m0 4.06v2.03m0 4.05v2.03m0 4.06v2.03m0 4.05v2.03m0 4.06v2.04m0 4.06v2.03m0 4.06v1h-.98m-3.9 0h-1.96m-3.9 0h-1.96m-3.9 0h-1.95m-3.9 0h-1.96m-3.9 0h-1.95m-3.9 0h-1.96m-3.9 0h-1.95m-3.9 0h-1.95m-3.9 0h-1.95m-3.9 0h-1.96m-3.9 0h-1.95m-3.92 0h-1.95m-3.9 0h-1.95m-3.9 0h-1.96m-3.9 0h-1.95m-3.9 0h-1.96m-3.9 0h-.96v-1m0-4.07v-2.03m0-4.06v-2.03m0-4.05v-2.03m0-4.05v-2.03m0-4.06v-2.03m0-4.06v-2.04m0-4.05v-2.02m0-4.06v-2.03m0-4.07v-2.03m0-4.06v-2.02m0-4.06v-2.03m0-4.06v-2.03m0-4.06v-2.02m0-4.06v-2.03m0-4.06v-2.02m0-4.06v-2.03m0-4.06v-2.03m0-4.05v-2.03m0-4.06v-2.03m0-4.05v-2.03m0-4.06v-2.04m0-4.06v-2.03m0-4.06v-1h.97M623.44 11200h80.85" stroke="#202124" fill="none"/><path d="M623.45 11200.5h-.52v-1h.52z" fill="#202124"/><path d="M719.06 11200l-14.27 4.64v-9.28z" stroke="#202124" fill="#202124"/><path d="M538.73 11400h100v100h-100zM538.73 11360h60.95v40h-60.95z" stroke="#202124" fill="#fff"/><path d="M599.68 11360h39.05v40h-39.05z" stroke="#202124" fill="#fff"/><path d="M574.3 11440h28.25v40H574.3zM541.84 11360h29.64v40h-29.64z" stroke="#000" stroke-opacity="0" fill-opacity="0"/><use xlink:href="#b" transform="matrix(1,0,0,1,546.8359964255571,11365) translate(-2.4414062499999822 21.835937499999993)"/><path d="M572.48 11380.04l1.04.04 1.72.22 1.5.3 1.3.4 1.17.46 1.08.53 1 .6.92.66.88.75.84.86.82.98.8 1.13.77 1.34.78 1.6.75 2 .72 2.54.67 3.43.55 5 .2 8.88-.35 9.76" stroke="#5e5e5e" stroke-width="2" fill="none"/><path d="M572.55 11379.04l-.08 2-1-.04v-2z" fill="#5e5e5e"/><path d="M589.05 11436.77l-4.1-14.43 9.26.34z" stroke="#5e5e5e" stroke-width="2" fill="#5e5e5e"/><path d="M599.68 11360h20.8v40h-20.8z" stroke="#000" stroke-opacity="0" fill-opacity="0"/><path d="M358.73 11360h60.95v40h-60.95z" stroke="#202124" fill="#fff"/><use xlink:href="#a" transform="matrix(1,0,0,1,363.73300296081413,11365) translate(14.871202256944455 22.677951388888864)"/><path d="M419.68 11360h39.05v40h-39.05z" stroke="#202124" fill="#fff"/><path d="M419.68 11360h20.8v40h-20.8z" stroke="#000" stroke-opacity="0" fill-opacity="0"/><path d="M441 11380h80.85" stroke="#202124" fill="none"/><path d="M441 11380.5h-.5v-1h.5z" fill="#202124"/><path d="M536.6 11380l-14.25 4.64v-9.28z" stroke="#202124" fill="#202124"/><path d="M718.73 11400h100v100h-100zM718.73 11360h60.95v40h-60.95z" stroke="#202124" fill="#fff"/><path d="M779.68 11360h39.05v40h-39.05z" stroke="#202124" fill="#fff"/><path d="M754.3 11440h28.25v40H754.3zM721.84 11360h29.64v40h-29.64z" stroke="#000" stroke-opacity="0" fill-opacity="0"/><use xlink:href="#b" transform="matrix(1,0,0,1,726.8359964255569,11365) translate(-2.4414062499999822 21.835937499999993)"/><path d="M752.48 11380.04l1.04.04 1.72.22 1.5.3 1.3.4 1.17.46 1.08.53 1 .6.92.66.88.75.84.86.82.98.8 1.13.77 1.34.78 1.6.75 2 .72 2.54.67 3.43.55 5 .2 8.88-.35 9.76" stroke="#5e5e5e" stroke-width="2" fill="none"/><path d="M752.55 11379.04l-.08 2-1-.04v-2z" fill="#5e5e5e"/><path d="M769.05 11436.77l-4.1-14.43 9.26.34z" stroke="#5e5e5e" stroke-width="2" fill="#5e5e5e"/><path d="M899.62 11360.14h99.53v140h-99.53z" fill="#fff"/><path d="M904.5 11360.14h1.95m3.9 0h1.96m3.9 0h1.96m3.9 0h1.96m3.9 0h1.95m3.9 0h1.96m3.9 0h1.95m3.9 0h1.96m3.9 0h1.95m3.9 0h1.95m3.9 0H965m3.9 0h1.96m3.9 0h1.95m3.9 0h1.97m3.9 0h1.95m3.9 0h1.95m3.9 0h.98v1.02m0 4.06v2.03m0 4.05v2.03m0 4.06v2.02m0 4.06v2.03m0 4.06v2.03m0 4.05v2.03m0 4.06v2.03m0 4.06v2.02m0 4.06v2.04m0 4.06v2.03m0 4.06v2.02m0 4.05v2.03m0 4.06v2.03m0 4.05v2.03m0 4.05v2.03m0 4.06v2.03m0 4.06v2.04m0 4.05v2.02m0 4.06v2.03m0 4.07v2.03m0 4.06v2.02m0 4.06v2.03m0 4.06v1h-.97m-3.9 0h-1.96m-3.9 0h-1.95m-3.9 0h-1.96m-3.9 0h-1.94m-3.9 0h-1.96m-3.9 0h-1.95m-3.9 0h-1.96m-3.9 0h-1.96m-3.9 0h-1.96m-3.9 0h-1.95m-3.9 0h-1.95m-3.9 0h-1.96m-3.9 0h-1.95m-3.9 0h-1.96m-3.9 0h-1.94m-3.9 0h-1.96m-3.9 0h-.98v-1m0-4.06v-2.03m0-4.06v-2.02m0-4.06v-2.03m0-4.06v-2.02m0-4.06v-2.03m0-4.06v-2.03m0-4.05v-2.03m0-4.06v-2.03m0-4.05v-2.03m0-4.06v-2.04m0-4.06v-2.03m0-4.05v-2.03m0-4.07v-2.03m0-4.06v-2.03m0-4.05v-2.02m0-4.06v-2.03m0-4.06v-2.03m0-4.06v-2.04m0-4.05v-2.02m0-4.06v-2.03m0-4.07v-2.03m0-4.05v-2.03m0-4.06v-1.02h.98" stroke="#202124" fill="none"/><path d="M779.68 11360h20.8v40h-20.8z" stroke="#000" stroke-opacity="0" fill-opacity="0"/><path d="M801 11380h81.74" stroke="#202124" fill="none"/><path d="M801 11380.5h-.5v-1h.5z" fill="#202124"/><path d="M897.5 11380l-14.26 4.64v-9.28z" stroke="#202124" fill="#202124"/><path d="M621 11380h80.85" stroke="#202124" fill="none"/><path d="M621 11380.5h-.5v-1h.5z" fill="#202124"/><path d="M716.6 11380l-14.25 4.64v-9.28z" stroke="#202124" fill="#202124"/><path d="M201 10980h4.12m8.22 0h8.23m8.22 0H238m8.22 0h8.23m8.23 0h8.22m8.23 0h8.22m8.23 0h8.22m8.23 0h8.23m8.22 0h8.23m8.22 0h8.23m8.22 0h8.23m8.22 0h8.23m8.23 0h8.23m8.23 0h8.22m8.23 0h8.23m8.23 0h4.1M201.03 10980H200M447.75 10980h1.02" stroke="#999" stroke-width="2" fill="none"/><path d="M220 11060h125.3v56.88H220z" stroke="#000" stroke-opacity="0" stroke-width="2" fill="#fff" fill-opacity="0"/><use xlink:href="#c" transform="matrix(1,0,0,1,225,11065) translate(0 30.304687499999975)"/><use xlink:href="#d" transform="matrix(1,0,0,1,225,11065) translate(38.33984374999994 30.304687499999975)"/><path d="M201 11160h4.12m8.22 0h8.23m8.22 0H238m8.22 0h8.23m8.23 0h8.22m8.23 0h8.22m8.23 0h8.22m8.23 0h8.23m8.22 0h8.23m8.22 0h8.23m8.22 0h8.23m8.22 0h8.23m8.23 0h8.23m8.23 0h8.22m8.23 0h8.23m8.23 0h4.1M201.03 11160H200M447.75 11160h1.02" stroke="#999" stroke-width="2" fill="none"/><path d="M216.9 10911.56h125.3v56.88H216.9z" stroke="#000" stroke-opacity="0" stroke-width="2" fill="#fff" fill-opacity="0"/><use xlink:href="#e" transform="matrix(1,0,0,1,221.90439629158936,10916.5625) translate(0 18.554687499999975)"/><use xlink:href="#f" transform="matrix(1,0,0,1,221.90439629158936,10916.5625) translate(0 41.99218749999994)"/><path d="M220 11240h168.16v56.88H220z" stroke="#000" stroke-opacity="0" stroke-width="2" fill="#fff" fill-opacity="0"/><use xlink:href="#g" transform="matrix(1,0,0,1,225,11245) translate(0 30.304687499999975)"/><use xlink:href="#h" transform="matrix(1,0,0,1,225,11245) translate(44.47265624999994 30.304687499999975)"/><use xlink:href="#i" transform="matrix(1,0,0,1,225,11245) translate(88.98437499999989 30.304687499999975)"/><path d="M201 11340h4.12m8.22 0h8.23m8.22 0H238m8.22 0h8.23m8.23 0h8.22m8.23 0h8.22m8.23 0h8.22m8.23 0h8.23m8.22 0h8.23m8.22 0h8.23m8.22 0h8.23m8.22 0h8.23m8.23 0h8.23m8.23 0h8.22m8.23 0h8.23m8.23 0h4.1M201.03 11340H200M447.75 11340h1.02" stroke="#999" stroke-width="2" fill="none"/><path d="M220 11420h188.44v56.88H220z" stroke="#000" stroke-opacity="0" stroke-width="2" fill="#fff" fill-opacity="0"/><use xlink:href="#j" transform="matrix(1,0,0,1,225,11425) translate(0 30.304687499999975)"/><use xlink:href="#h" transform="matrix(1,0,0,1,225,11425) translate(71.60156249999991 30.304687499999975)"/><use xlink:href="#i" transform="matrix(1,0,0,1,225,11425) translate(116.11328124999986 30.304687499999975)"/><path d="M705.04 10918.44h111.74v50H705.04z" fill="#fff"/><path d="M709.94 10918.44h1.96m3.92 0h1.96m3.92 0h1.96m3.93 0h1.95m3.92 0h1.96m3.92 0h1.96m3.93 0h1.96m3.9 0h1.97m3.92 0h1.95m3.92 0h1.96m3.92 0h1.96m3.93 0h1.96m3.92 0h1.96m3.92 0h1.96m3.92 0h1.96m3.92 0h1.96m3.92 0H806m3.92 0h1.96m3.92 0h.98v1.04m0 4.17v2.08m0 4.17v2.08m0 4.17v2.08m0 4.17v2.08m0 4.17v2.08m0 4.17v2.08m0 4.17v2.08m0 4.17v1.04h-.98m-3.92 0h-1.96m-3.92 0h-1.96m-3.92 0h-1.96m-3.92 0h-1.96m-3.92 0h-1.96m-3.92 0h-1.96m-3.93 0h-1.97m-3.92 0h-1.95m-3.92 0h-1.96m-3.92 0H757m-3.93 0h-1.96m-3.9 0h-1.97m-3.92 0h-1.95m-3.92 0h-1.96m-3.92 0h-1.96m-3.94 0h-1.96m-3.92 0h-1.96m-3.92 0h-1.96m-3.92 0h-.98v-1.04m0-4.17v-2.08m0-4.17v-2.08m0-4.17v-2.08m0-4.17v-2.08m0-4.17v-2.08m0-4.17v-2.08m0-4.17v-2.08m0-4.17v-1.04h.98" stroke="#202124" fill="none"/><g><use xlink:href="#k" transform="matrix(1,0,0,1,711.041317247973,10924.4375) translate(5.091688368055543 14.431423611111112)"/><use xlink:href="#l" transform="matrix(1,0,0,1,711.041317247973,10924.4375) translate(72.5244140625 14.431423611111112)"/><use xlink:href="#m" transform="matrix(1,0,0,1,711.041317247973,10924.4375) translate(12.949218749999993 32.66059027777778)"/><use xlink:href="#n" transform="matrix(1,0,0,1,711.041317247973,10924.4375) translate(39.3359375 32.66059027777778)"/></g><path d="M840.9 10928.33h111.73v33.34H840.9z" stroke="#202124" fill="#fff"/><g><use xlink:href="#o" transform="matrix(1,0,0,1,845.8896415124749,10933.333333333332) translate(27.142578124999996 17.431423611111114)"/></g><path d="M657.28 11040h394.47v95.94H657.28z" stroke="#000" stroke-opacity="0" fill="#fff" fill-opacity="0"/><g><use xlink:href="#p" transform="matrix(1,0,0,1,662.2774512325044,11045) translate(0 36.115451388888864)"/><use xlink:href="#q" transform="matrix(1,0,0,1,662.2774512325044,11045) translate(24.444444444444418 36.115451388888864)"/><use xlink:href="#r" transform="matrix(1,0,0,1,662.2774512325044,11045) translate(91.45182291666656 36.115451388888864)"/><use xlink:href="#s" transform="matrix(1,0,0,1,662.2774512325044,11045) translate(131.79470486111094 36.115451388888864)"/><use xlink:href="#t" transform="matrix(1,0,0,1,662.2774512325044,11045) translate(0 64.76128472222217)"/><use xlink:href="#u" transform="matrix(1,0,0,1,662.2774512325044,11045) translate(24.444444444444418 64.76128472222217)"/><use xlink:href="#v" transform="matrix(1,0,0,1,662.2774512325044,11045) translate(101.23914930555544 64.76128472222217)"/><use xlink:href="#w" transform="matrix(1,0,0,1,662.2774512325044,11045) translate(239.6223958333331 64.76128472222217)"/><use xlink:href="#x" transform="matrix(1,0,0,1,662.2774512325044,11045) translate(285.89735243055526 64.76128472222217)"/><use xlink:href="#y" transform="matrix(1,0,0,1,662.2774512325044,11045) translate(314.3760850694441 64.76128472222217)"/></g><defs><path fill="#5e5e5e" d="M176 0v-125h654v-1308h125v1308h654V0H175" id="z"/><use transform="matrix(0.011935763888888876,0,0,0.011935763888888876,0,0)" xlink:href="#z" id="a"/><path fill="#5e5e5e" d="M688-137c238 0 323-102 359-325h193c-32 297-228 482-552 482-361 0-569-299-569-680 0-197 8-360 73-497 88-186 257-317 513-319 316-2 509 195 535 488h-193c-31-212-118-330-342-330-272 0-397 224-393 523v141c-3 282 115 517 376 517" id="A"/><path fill="#5e5e5e" d="M631-137c179 0 314-70 314-231 0-71-25-127-75-166s-141-77-272-115c-165-47-285-106-360-175s-112-154-112-255c0-245 231-397 495-397 206 0 369 89 449 218 43 68 65 142 65 223H942c0-184-129-283-321-283-172 0-299 76-301 236 0 59 26 109 76 150s135 78 256 113c205 59 345 116 436 256 35 53 50 119 50 193-2 256-231 398-507 390C333 12 90-129 80-422h193c0 187 160 285 358 285" id="B"/><g id="b"><use transform="matrix(0.009765624999999986,0,0,0.009765624999999986,0,0)" xlink:href="#A"/><use transform="matrix(0.009765624999999986,0,0,0.009765624999999986,13.017578124999982,0)" xlink:href="#B"/></g><path fill="#5e5e5e" d="M362-157h690V0H169v-1456h193v1299" id="C"/><path fill="#5e5e5e" d="M584 20C278 26 81-227 91-551c10-320 175-545 491-551 308-5 503 247 494 573-9 322-175 543-492 549zm-2-970c-208 0-305 185-305 421 0 216 106 398 307 398 211 0 307-186 307-420 0-214-109-399-309-399" id="D"/><path fill="#5e5e5e" d="M521 20C240 20 96-239 96-550c0-303 147-552 427-552 132 0 235 47 309 140l9-120h169V-26c4 277-183 454-459 452-165-1-334-81-400-187l96-111c79 98 176 147 291 147 180 1 288-109 286-290v-93C750-23 649 20 521 20zm48-965c-209 0-287 178-287 416 0 217 86 392 285 392 117 0 202-53 257-159v-494c-57-103-142-155-255-155" id="E"/><g id="c"><use transform="matrix(0.009765624999999986,0,0,0.009765624999999986,0,0)" xlink:href="#C"/><use transform="matrix(0.009765624999999986,0,0,0.009765624999999986,10.761718749999984,0)" xlink:href="#D"/><use transform="matrix(0.009765624999999986,0,0,0.009765624999999986,22.167968749999968,0)" xlink:href="#E"/></g><path fill="#5e5e5e" d="M277-555c0 244 77 420 297 424 127 2 249-93 255-210h175C980-127 805 20 574 20 258 20 81-222 92-562c11-319 164-533 481-540 237-5 426 165 431 392H829c-7-133-115-242-256-240-209 4-296 166-296 395" id="F"/><path fill="#5e5e5e" d="M663-916c-163-27-288 18-338 148V0H140v-1082h180l3 125c61-97 147-145 258-145 36 0 63 5 82 14v172" id="G"/><path fill="#5e5e5e" d="M599-131c141 0 220-65 285-146l113 88C906-50 770 20 589 20 281 21 93-214 93-545c0-223 93-397 233-485 74-48 154-72 240-72 300 2 449 218 445 537v77H278c0 197 129 357 321 357zm227-509c-3-180-88-310-260-310-170 0-264 140-282 310h542" id="H"/><path fill="#5e5e5e" d="M561-1102c238-4 403 126 403 351v498c0 99 13 178 38 237V0H808c-11-21-19-59-26-114C696-25 593 20 474 20c-199 0-368-130-365-320 4-251 214-359 490-356h180v-85c-1-135-86-212-229-212-115 0-232 67-233 171H131c20-205 206-316 430-320zM294-326c0 117 90 185 207 185 122 0 239-75 278-162v-222H634c-227 0-340 66-340 199" id="I"/><path fill="#5e5e5e" d="M456 20C285 20 205-92 206-268v-671H9v-143h197v-262h185v262h202v143H391v671c-9 125 92 149 207 118V0c-49 13-96 20-142 20" id="J"/><path fill="#5e5e5e" d="M520 20C244 20 95-247 95-550c0-298 151-550 427-552 127 0 227 43 301 130v-564h185V0H838l-9-116C755-25 652 20 520 20zm48-965c-210 0-288 177-288 416 0 218 87 392 286 392 117 0 203-53 257-158v-497c-55-102-140-153-255-153" id="K"/><g id="d"><use transform="matrix(0.009765624999999986,0,0,0.009765624999999986,0,0)" xlink:href="#F"/><use transform="matrix(0.009765624999999986,0,0,0.009765624999999986,10.468749999999986,0)" xlink:href="#G"/><use transform="matrix(0.009765624999999986,0,0,0.009765624999999986,17.050781249999975,0)" xlink:href="#H"/><use transform="matrix(0.009765624999999986,0,0,0.009765624999999986,27.64648437499996,0)" xlink:href="#I"/><use transform="matrix(0.009765624999999986,0,0,0.009765624999999986,38.52539062499994,0)" xlink:href="#J"/><use transform="matrix(0.009765624999999986,0,0,0.009765624999999986,45.058593749999936,0)" xlink:href="#H"/><use transform="matrix(0.009765624999999986,0,0,0.009765624999999986,55.65429687499992,0)" xlink:href="#K"/></g><g id="e"><use transform="matrix(0.009765624999999986,0,0,0.009765624999999986,0,0)" xlink:href="#C"/><use transform="matrix(0.009765624999999986,0,0,0.009765624999999986,10.761718749999984,0)" xlink:href="#D"/><use transform="matrix(0.009765624999999986,0,0,0.009765624999999986,22.167968749999968,0)" xlink:href="#E"/></g><path fill="#5e5e5e" d="M589-945c-131 0-219 81-264 174V0H140v-1082h175l6 136c83-104 191-156 324-156 229 0 346 129 346 387V0H806v-716c-2-153-65-229-217-229" id="L"/><path fill="#5e5e5e" d="M503-687l240-395h216L605-547 970 0H756L506-405 256 0H41l365-547-354-535h214" id="M"/><path fill="#5e5e5e" d="M341 0H156v-1082h185V0zm-91-1264c-68 0-108-42-109-105 0-62 41-107 109-107s110 44 110 107-42 105-110 105" id="N"/><path fill="#5e5e5e" d="M538-131c121 0 232-49 232-156 0-50-20-88-56-117-73-60-334-92-420-143-92-55-162-110-162-238 0-190 192-317 400-317 223 0 414 129 413 338H759c0-108-110-186-227-186-119 0-215 53-215 159 0 45 18 78 53 101 76 52 331 90 416 139 98 57 169 115 169 251C955-92 760 20 538 20c-176 0-314-68-386-174-38-55-57-115-57-179h185c6 129 116 202 258 202" id="O"/><g id="f"><use transform="matrix(0.009765624999999986,0,0,0.009765624999999986,0,0)" xlink:href="#L"/><use transform="matrix(0.009765624999999986,0,0,0.009765624999999986,11.035156249999984,0)" xlink:href="#D"/><use transform="matrix(0.009765624999999986,0,0,0.009765624999999986,22.441406249999968,0)" xlink:href="#L"/><use transform="matrix(0.009765624999999986,0,0,0.009765624999999986,33.47656249999995,0)" xlink:href="#H"/><use transform="matrix(0.009765624999999986,0,0,0.009765624999999986,44.072265624999936,0)" xlink:href="#M"/><use transform="matrix(0.009765624999999986,0,0,0.009765624999999986,53.98437499999992,0)" xlink:href="#N"/><use transform="matrix(0.009765624999999986,0,0,0.009765624999999986,58.837890624999915,0)" xlink:href="#O"/><use transform="matrix(0.009765624999999986,0,0,0.009765624999999986,69.1503906249999,0)" xlink:href="#J"/><use transform="matrix(0.009765624999999986,0,0,0.009765624999999986,75.68359374999989,0)" xlink:href="#H"/><use transform="matrix(0.009765624999999986,0,0,0.009765624999999986,86.27929687499987,0)" xlink:href="#L"/><use transform="matrix(0.009765624999999986,0,0,0.009765624999999986,97.31445312499986,0)" xlink:href="#J"/></g><path fill="#5e5e5e" d="M972-643H361V0H169v-1456h902v158H361v498h611v157" id="P"/><g id="g"><use transform="matrix(0.009765624999999986,0,0,0.009765624999999986,0,0)" xlink:href="#P"/><use transform="matrix(0.009765624999999986,0,0,0.009765624999999986,11.054687499999984,0)" xlink:href="#N"/><use transform="matrix(0.009765624999999986,0,0,0.009765624999999986,15.908203124999977,0)" xlink:href="#G"/><use transform="matrix(0.009765624999999986,0,0,0.009765624999999986,22.675781249999968,0)" xlink:href="#O"/><use transform="matrix(0.009765624999999986,0,0,0.009765624999999986,32.98828124999996,0)" xlink:href="#J"/></g><path fill="#5e5e5e" d="M483-459l28 192 41-173 288-1016h162l281 1016 40 176 31-196 226-996h193L1420 0h-175L945-1061l-23-111-23 111L588 0H413L61-1456h192" id="Q"/><path fill="#5e5e5e" d="M1160-420C1159-145 963 0 674 0H169v-1456h476c294-1 476 112 476 388 0 153-99 253-216 302 146 38 255 167 255 346zM678-157c171 2 289-95 289-261 0-175-95-263-286-263H361v524h317zm250-912c-2-172-104-229-283-229H361v463h290c157 3 278-84 277-234" id="R"/><g id="h"><use transform="matrix(0.009765624999999986,0,0,0.009765624999999986,0,0)" xlink:href="#C"/><use transform="matrix(0.009765624999999986,0,0,0.009765624999999986,9.365234374999986,0)" xlink:href="#Q"/><use transform="matrix(0.009765624999999986,0,0,0.009765624999999986,27.10937499999996,0)" xlink:href="#R"/></g><path fill="#5e5e5e" d="M1098-255l208-827h185L1176 0h-150L763-820 507 0H357L43-1082h184l213 810 252-810h149" id="S"/><g id="i"><use transform="matrix(0.009765624999999986,0,0,0.009765624999999986,0,0)" xlink:href="#S"/><use transform="matrix(0.009765624999999986,0,0,0.009765624999999986,15.029296874999979,0)" xlink:href="#G"/><use transform="matrix(0.009765624999999986,0,0,0.009765624999999986,21.796874999999968,0)" xlink:href="#N"/><use transform="matrix(0.009765624999999986,0,0,0.009765624999999986,26.65039062499996,0)" xlink:href="#J"/><use transform="matrix(0.009765624999999986,0,0,0.009765624999999986,33.18359374999995,0)" xlink:href="#J"/><use transform="matrix(0.009765624999999986,0,0,0.009765624999999986,39.71679687499994,0)" xlink:href="#H"/><use transform="matrix(0.009765624999999986,0,0,0.009765624999999986,50.31249999999993,0)" xlink:href="#L"/></g><g id="j"><use transform="matrix(0.009765624999999986,0,0,0.009765624999999986,0,0)" xlink:href="#B"/><use transform="matrix(0.009765624999999986,0,0,0.009765624999999986,11.865234374999984,0)" xlink:href="#H"/><use transform="matrix(0.009765624999999986,0,0,0.009765624999999986,22.46093749999997,0)" xlink:href="#F"/><use transform="matrix(0.009765624999999986,0,0,0.009765624999999986,32.92968749999996,0)" xlink:href="#D"/><use transform="matrix(0.009765624999999986,0,0,0.009765624999999986,44.33593749999994,0)" xlink:href="#L"/><use transform="matrix(0.009765624999999986,0,0,0.009765624999999986,55.37109374999993,0)" xlink:href="#K"/></g><path fill="#333" d="M561-1102c238-4 403 126 403 351v498c0 99 13 178 38 237V0H808c-11-21-19-59-26-114C696-25 593 20 474 20c-199 0-368-130-365-320 4-251 214-359 490-356h180v-85c-1-135-86-212-229-212-115 0-232 67-233 171H131c20-205 206-316 430-320zM294-326c0 117 90 185 207 185 122 0 239-75 278-162v-222H634c-227 0-340 66-340 199" id="T"/><path fill="#333" d="M341 0H156v-1536h185V0" id="U"/><path fill="#333" d="M584 20C278 26 81-227 91-551c10-320 175-545 491-551 308-5 503 247 494 573-9 322-175 543-492 549zm-2-970c-208 0-305 185-305 421 0 216 106 398 307 398 211 0 307-186 307-420 0-214-109-399-309-399" id="V"/><path fill="#333" d="M277-555c0 244 77 420 297 424 127 2 249-93 255-210h175C980-127 805 20 574 20 258 20 81-222 92-562c11-319 164-533 481-540 237-5 426 165 431 392H829c-7-133-115-242-256-240-209 4-296 166-296 395" id="W"/><path fill="#333" d="M456 20C285 20 205-92 206-268v-671H9v-143h197v-262h185v262h202v143H391v671c-9 125 92 149 207 118V0c-49 13-96 20-142 20" id="X"/><path fill="#333" d="M599-131c141 0 220-65 285-146l113 88C906-50 770 20 589 20 281 21 93-214 93-545c0-223 93-397 233-485 74-48 154-72 240-72 300 2 449 218 445 537v77H278c0 197 129 357 321 357zm227-509c-3-180-88-310-260-310-170 0-264 140-282 310h542" id="Y"/><path fill="#333" d="M520 20C244 20 95-247 95-550c0-298 151-550 427-552 127 0 227 43 301 130v-564h185V0H838l-9-116C755-25 652 20 520 20zm48-965c-210 0-288 177-288 416 0 218 87 392 286 392 117 0 203-53 257-158v-497c-55-102-140-153-255-153" id="Z"/><g id="k"><use transform="matrix(0.007595486111111112,0,0,0.007595486111111112,0,0)" xlink:href="#T"/><use transform="matrix(0.007595486111111112,0,0,0.007595486111111112,8.461371527777779,0)" xlink:href="#U"/><use transform="matrix(0.007595486111111112,0,0,0.007595486111111112,12.236328125000002,0)" xlink:href="#U"/><use transform="matrix(0.007595486111111112,0,0,0.007595486111111112,16.011284722222225,0)" xlink:href="#V"/><use transform="matrix(0.007595486111111112,0,0,0.007595486111111112,24.882812500000004,0)" xlink:href="#W"/><use transform="matrix(0.007595486111111112,0,0,0.007595486111111112,33.025173611111114,0)" xlink:href="#T"/><use transform="matrix(0.007595486111111112,0,0,0.007595486111111112,41.48654513888889,0)" xlink:href="#X"/><use transform="matrix(0.007595486111111112,0,0,0.007595486111111112,46.56792534722223,0)" xlink:href="#Y"/><use transform="matrix(0.007595486111111112,0,0,0.007595486111111112,54.809027777777786,0)" xlink:href="#Z"/></g><path fill="#333" d="M634-1102c292 0 422 254 422 573 0 298-143 547-420 549-137 0-242-48-317-145L310 0H140v-1536h185v573c75-93 178-139 309-139zm-44 965c207 0 281-175 281-413 0-224-79-395-283-395-122 0-210 57-263 170v468c57 113 145 170 265 170" id="aa"/><path fill="#333" d="M491 20c-241-1-355-148-355-398v-704h185v699c0 164 67 246 200 246 141 0 235-53 282-158v-787h185V0H812l-4-107C736-22 630 20 491 20" id="ab"/><g id="l"><use transform="matrix(0.007595486111111112,0,0,0.007595486111111112,0,0)" xlink:href="#aa"/><use transform="matrix(0.007595486111111112,0,0,0.007595486111111112,8.727213541666668,0)" xlink:href="#ab"/><use transform="matrix(0.007595486111111112,0,0,0.007595486111111112,17.302517361111114,0)" xlink:href="#X"/></g><path fill="#333" d="M589-945c-131 0-219 81-264 174V0H140v-1082h175l6 136c83-104 191-156 324-156 229 0 346 129 346 387V0H806v-716c-2-153-65-229-217-229" id="ac"/><g id="m"><use transform="matrix(0.007595486111111112,0,0,0.007595486111111112,0,0)" xlink:href="#ac"/><use transform="matrix(0.007595486111111112,0,0,0.007595486111111112,8.582899305555557,0)" xlink:href="#V"/><use transform="matrix(0.007595486111111112,0,0,0.007595486111111112,17.454427083333336,0)" xlink:href="#X"/></g><path fill="#333" d="M1098-255l208-827h185L1176 0h-150L763-820 507 0H357L43-1082h184l213 810 252-810h149" id="ad"/><path fill="#333" d="M663-916c-163-27-288 18-338 148V0H140v-1082h180l3 125c61-97 147-145 258-145 36 0 63 5 82 14v172" id="ae"/><path fill="#333" d="M341 0H156v-1082h185V0zm-91-1264c-68 0-108-42-109-105 0-62 41-107 109-107s110 44 110 107-42 105-110 105" id="af"/><g id="n"><use transform="matrix(0.007595486111111112,0,0,0.007595486111111112,0,0)" xlink:href="#ad"/><use transform="matrix(0.007595486111111112,0,0,0.007595486111111112,11.689453125000002,0)" xlink:href="#ae"/><use transform="matrix(0.007595486111111112,0,0,0.007595486111111112,16.953125000000004,0)" xlink:href="#af"/><use transform="matrix(0.007595486111111112,0,0,0.007595486111111112,20.728081597222225,0)" xlink:href="#X"/><use transform="matrix(0.007595486111111112,0,0,0.007595486111111112,25.809461805555557,0)" xlink:href="#X"/><use transform="matrix(0.007595486111111112,0,0,0.007595486111111112,30.890842013888893,0)" xlink:href="#Y"/><use transform="matrix(0.007595486111111112,0,0,0.007595486111111112,39.13194444444445,0)" xlink:href="#ac"/></g><g id="o"><use transform="matrix(0.007595486111111112,0,0,0.007595486111111112,0,0)" xlink:href="#ad"/><use transform="matrix(0.007595486111111112,0,0,0.007595486111111112,11.689453125000002,0)" xlink:href="#ae"/><use transform="matrix(0.007595486111111112,0,0,0.007595486111111112,16.953125000000004,0)" xlink:href="#af"/><use transform="matrix(0.007595486111111112,0,0,0.007595486111111112,20.728081597222225,0)" xlink:href="#X"/><use transform="matrix(0.007595486111111112,0,0,0.007595486111111112,25.809461805555557,0)" xlink:href="#X"/><use transform="matrix(0.007595486111111112,0,0,0.007595486111111112,30.890842013888893,0)" xlink:href="#Y"/><use transform="matrix(0.007595486111111112,0,0,0.007595486111111112,39.13194444444445,0)" xlink:href="#ac"/></g><path fill="#333" d="M729 0H543v-1233l-373 137v-168l530-199h29V0" id="ag"/><path fill="#333" d="M258 11c-71 0-114-43-114-108 0-67 42-112 114-112s116 45 116 112c-1 65-45 108-116 108" id="ah"/><g id="p"><use transform="matrix(0.011935763888888876,0,0,0.011935763888888876,0,0)" xlink:href="#ag"/><use transform="matrix(0.011935763888888876,0,0,0.011935763888888876,13.726128472222207,0)" xlink:href="#ah"/></g><path fill="#333" d="M362-157h690V0H169v-1456h193v1299" id="ai"/><path fill="#333" d="M483-459l28 192 41-173 288-1016h162l281 1016 40 176 31-196 226-996h193L1420 0h-175L945-1061l-23-111-23 111L588 0H413L61-1456h192" id="aj"/><path fill="#333" d="M1160-420C1159-145 963 0 674 0H169v-1456h476c294-1 476 112 476 388 0 153-99 253-216 302 146 38 255 167 255 346zM678-157c171 2 289-95 289-261 0-175-95-263-286-263H361v524h317zm250-912c-2-172-104-229-283-229H361v463h290c157 3 278-84 277-234" id="ak"/><path fill="#333" d="M538-131c121 0 232-49 232-156 0-50-20-88-56-117-73-60-334-92-420-143-92-55-162-110-162-238 0-190 192-317 400-317 223 0 414 129 413 338H759c0-108-110-186-227-186-119 0-215 53-215 159 0 45 18 78 53 101 76 52 331 90 416 139 98 57 169 115 169 251C955-92 760 20 538 20c-176 0-314-68-386-174-38-55-57-115-57-179h185c6 129 116 202 258 202" id="al"/><g id="q"><use transform="matrix(0.011935763888888876,0,0,0.011935763888888876,0,0)" xlink:href="#ai"/><use transform="matrix(0.011935763888888876,0,0,0.011935763888888876,11.446397569444432,0)" xlink:href="#aj"/><use transform="matrix(0.011935763888888876,0,0,0.011935763888888876,33.13368055555552,0)" xlink:href="#ak"/><use transform="matrix(0.011935763888888876,0,0,0.011935763888888876,48.351779513888836,0)" xlink:href="#al"/></g><g id="r"><use transform="matrix(0.011935763888888876,0,0,0.011935763888888876,0,0)" xlink:href="#T"/><use transform="matrix(0.011935763888888876,0,0,0.011935763888888876,13.296440972222207,0)" xlink:href="#ae"/><use transform="matrix(0.011935763888888876,0,0,0.011935763888888876,21.341145833333307,0)" xlink:href="#Y"/></g><path fill="#333" d="M704-1390c-164-38-297 28-288 194v114h231v143H416V0H231v-939H60v-143h171v-111c-12-274 208-416 483-347" id="am"/><path fill="#333" d="M525-543H37v-151h488v151" id="an"/><path fill="#333" d="M589-945c-131 0-219 81-264 174V0H140v-1536h185v585c82-101 189-151 320-151 229 0 346 129 346 387V0H806v-716c-2-153-65-229-217-229" id="ao"/><path fill="#333" d="M442-501L326-380V0H141v-1536h185v929c135-169 291-317 436-475h225L566-630 1036 0H819" id="ap"/><path fill="#333" d="M1240-945c-141 0-250 95-250 227V0H804v-709c0-157-77-236-231-236-121 0-204 52-249 155V0H139v-1082h175l5 120c79-93 186-140 321-140 151 0 254 58 309 174 69-98 181-174 345-174 237 0 362 126 362 377V0h-185v-714c-2-159-67-231-231-231" id="aq"/><path fill="#333" d="M521 20C240 20 96-239 96-550c0-303 147-552 427-552 132 0 235 47 309 140l9-120h169V-26c4 277-183 454-459 452-165-1-334-81-400-187l96-111c79 98 176 147 291 147 180 1 288-109 286-290v-93C750-23 649 20 521 20zm48-965c-209 0-287 178-287 416 0 217 86 392 285 392 117 0 202-53 257-159v-494c-57-103-142-155-255-155" id="ar"/><g id="s"><use transform="matrix(0.011935763888888876,0,0,0.011935763888888876,0,0)" xlink:href="#al"/><use transform="matrix(0.011935763888888876,0,0,0.011935763888888876,12.604166666666654,0)" xlink:href="#Y"/><use transform="matrix(0.011935763888888876,0,0,0.011935763888888876,25.554470486111082,0)" xlink:href="#U"/><use transform="matrix(0.011935763888888876,0,0,0.011935763888888876,31.486545138888854,0)" xlink:href="#am"/><use transform="matrix(0.011935763888888876,0,0,0.011935763888888876,39.97287326388885,0)" xlink:href="#an"/><use transform="matrix(0.011935763888888876,0,0,0.011935763888888876,46.716579861111065,0)" xlink:href="#W"/><use transform="matrix(0.011935763888888876,0,0,0.011935763888888876,59.51171874999994,0)" xlink:href="#ao"/><use transform="matrix(0.011935763888888876,0,0,0.011935763888888876,72.9752604166666,0)" xlink:href="#Y"/><use transform="matrix(0.011935763888888876,0,0,0.011935763888888876,85.92556423611103,0)" xlink:href="#W"/><use transform="matrix(0.011935763888888876,0,0,0.011935763888888876,98.72070312499989,0)" xlink:href="#ap"/><use transform="matrix(0.011935763888888876,0,0,0.011935763888888876,111.11002604166657,0)" xlink:href="#al"/><use transform="matrix(0.011935763888888876,0,0,0.011935763888888876,123.71419270833321,0)" xlink:href="#ab"/><use transform="matrix(0.011935763888888876,0,0,0.011935763888888876,137.18967013888874,0)" xlink:href="#aq"/><use transform="matrix(0.011935763888888876,0,0,0.011935763888888876,158.6143663194443,0)" xlink:href="#aq"/><use transform="matrix(0.011935763888888876,0,0,0.011935763888888876,180.03906249999983,0)" xlink:href="#af"/><use transform="matrix(0.011935763888888876,0,0,0.011935763888888876,185.9711371527776,0)" xlink:href="#ac"/><use transform="matrix(0.011935763888888876,0,0,0.011935763888888876,199.45855034722206,0)" xlink:href="#ar"/><use transform="matrix(0.011935763888888876,0,0,0.011935763888888876,213.17274305555532,0)" xlink:href="#ah"/></g><path fill="#333" d="M569-1476c255 0 440 146 439 390 0 143-91 314-274 512L344-151h731V0H121v-133l504-560c75-85 125-155 155-207 105-184 6-424-211-424-183 0-293 113-291 297H93c-3-270 199-449 476-449" id="as"/><g id="t"><use transform="matrix(0.011935763888888876,0,0,0.011935763888888876,0,0)" xlink:href="#as"/><use transform="matrix(0.011935763888888876,0,0,0.011935763888888876,13.726128472222207,0)" xlink:href="#ah"/></g><path fill="#333" d="M375 0H183v-1456h192V0" id="at"/><path fill="#333" d="M497-251l268-831h189L566 0H425L33-1082h189" id="au"/><g id="u"><use transform="matrix(0.011935763888888876,0,0,0.011935763888888876,0,0)" xlink:href="#at"/><use transform="matrix(0.011935763888888876,0,0,0.011935763888888876,6.648220486111104,0)" xlink:href="#ac"/><use transform="matrix(0.011935763888888876,0,0,0.011935763888888876,20.135633680555536,0)" xlink:href="#au"/><use transform="matrix(0.011935763888888876,0,0,0.011935763888888876,31.796874999999964,0)" xlink:href="#T"/><use transform="matrix(0.011935763888888876,0,0,0.011935763888888876,45.09331597222217,0)" xlink:href="#U"/><use transform="matrix(0.011935763888888876,0,0,0.011935763888888876,51.02539062499994,0)" xlink:href="#af"/><use transform="matrix(0.011935763888888876,0,0,0.011935763888888876,56.957465277777715,0)" xlink:href="#Z"/></g><path fill="#333" d="M398-535h916l108-108-108-102H398L296-643zm797 120H518l97 91-119 119-393-393v-91l393-393 119 119-97 97h677l-91-97 119-119 393 393v91l-393 393-119-119" id="av"/><g id="v"><use transform="matrix(0.011935763888888876,0,0,0.011935763888888876,0,0)" xlink:href="#W"/><use transform="matrix(0.011935763888888876,0,0,0.011935763888888876,12.795138888888875,0)" xlink:href="#ao"/><use transform="matrix(0.011935763888888876,0,0,0.011935763888888876,26.25868055555553,0)" xlink:href="#Y"/><use transform="matrix(0.011935763888888876,0,0,0.011935763888888876,39.20898437499996,0)" xlink:href="#W"/><use transform="matrix(0.011935763888888876,0,0,0.011935763888888876,52.004123263888836,0)" xlink:href="#ap"/><use transform="matrix(0.011935763888888876,0,0,0.011935763888888876,64.39344618055549,0)" xlink:href="#al"/><use transform="matrix(0.011935763888888876,0,0,0.011935763888888876,76.99761284722214,0)" xlink:href="#ab"/><use transform="matrix(0.011935763888888876,0,0,0.011935763888888876,90.47309027777769,0)" xlink:href="#aq"/><use transform="matrix(0.011935763888888876,0,0,0.011935763888888876,111.89778645833321,0)" xlink:href="#av"/></g><g id="w"><use transform="matrix(0.011935763888888876,0,0,0.011935763888888876,0,0)" xlink:href="#Y"/><use transform="matrix(0.011935763888888876,0,0,0.011935763888888876,12.95030381944443,0)" xlink:href="#ac"/><use transform="matrix(0.011935763888888876,0,0,0.011935763888888876,26.43771701388886,0)" xlink:href="#Z"/></g><g id="x"><use transform="matrix(0.011935763888888876,0,0,0.011935763888888876,0,0)" xlink:href="#V"/><use transform="matrix(0.011935763888888876,0,0,0.011935763888888876,13.940972222222207,0)" xlink:href="#am"/></g><g id="y"><use transform="matrix(0.011935763888888876,0,0,0.011935763888888876,0,0)" xlink:href="#W"/><use transform="matrix(0.011935763888888876,0,0,0.011935763888888876,12.795138888888875,0)" xlink:href="#ao"/><use transform="matrix(0.011935763888888876,0,0,0.011935763888888876,26.25868055555553,0)" xlink:href="#T"/><use transform="matrix(0.011935763888888876,0,0,0.011935763888888876,39.555121527777736,0)" xlink:href="#af"/><use transform="matrix(0.011935763888888876,0,0,0.011935763888888876,45.48719618055551,0)" xlink:href="#ac"/><use transform="matrix(0.011935763888888876,0,0,0.011935763888888876,58.974609374999936,0)" xlink:href="#ah"/></g></defs></g></svg>