<svg xmlns="http://www.w3.org/2000/svg" xmlns:xlink="http://www.w3.org/1999/xlink" xmlns:lucid="lucid" width="871.07" height="614.35"><g transform="translate(-200 -10940)" lucid:page-tab-id="jWeF7Pe8h6PX"><path d="M320.44 10980h119.12v40H320.44z" stroke="#202124" fill="#fff"/><use xlink:href="#a" transform="matrix(1,0,0,1,325.4442968036589,10985) translate(25.178493923611143 22.677951388888864)"/><path d="M220 11060h122.56v40H220z" stroke="#202124" fill="#fff"/><use xlink:href="#b" transform="matrix(1,0,0,1,225.00000000000003,11065) translate(15.548394097222271 22.677951388888864)"/><path d="M438.9 11060H561.5v40H438.9z" stroke="#202124" fill="#fff"/><use xlink:href="#b" transform="matrix(1,0,0,1,443.9124439579356,11065) translate(15.548394097222271 22.677951388888864)"/><path d="M363.4 11060h33.2v40h-33.2z" stroke="#000" stroke-opacity="0" fill="#fff" fill-opacity="0"/><use xlink:href="#c" transform="matrix(1,0,0,1,368.401062269549,11065) translate(5.24495442708334 22.677951388888864)"/><path d="M379.53 11020.68l-1.88.75m-3.76 1.48l-3.77 1.5m-3.76 1.48l-3.76 1.5m-3.75 1.48l-3.76 1.48m-3.77 1.5l-3.76 1.47m-3.77 1.5l-3.76 1.5m-3.76 1.47l-3.76 1.5m-3.76 1.47l-3.76 1.5m-3.76 1.47l-3.76 1.5m-3.76 1.5l-3.76 1.47m-3.77 1.5l-3.77 1.47m-3.76 1.5l-3.76 1.48m-3.75 1.48l-3.76 1.5m-3.77 1.47l-1.88.75" stroke="#202124" fill="none"/><path d="M379.7 11021.15l-.25-.65h1.9zM281.83 11059.5h-1.9l1.65-.65z" fill="#202124"/><path d="M380 11021v1.92m0 3.85v3.85m0 3.85v3.86m0 3.84v3.85m0 3.85v3.85m0 3.86v1.92" stroke="#202124" fill="none"/><path d="M380.5 11021h-1v-.5h1zM380.5 11060h-1v-.5h1z" fill="#202124"/><path d="M380.48 11020.65l1.86.6m3.73 1.22l3.72 1.2m3.72 1.22l3.72 1.2m3.73 1.2l3.73 1.2m3.72 1.22l3.73 1.2m3.73 1.22l3.72 1.2m3.73 1.22l3.72 1.2m3.73 1.22l3.73 1.2m3.73 1.22l3.73 1.2m3.73 1.2l3.7 1.22m3.74 1.2l3.73 1.22m3.72 1.2l3.72 1.22m3.72 1.2l3.73 1.22m3.73 1.2l3.72 1.22m3.73 1.2l3.73 1.2m3.72 1.22l3.73 1.2m3.73 1.22l1.86.6" stroke="#202124" fill="none"/><path d="M380.33 11021.13l-1.95-.63h2.16zM501.8 11059.5h-2.14l.2-.63z" fill="#202124"/><path d="M301.68 11140h160.94v43.65H301.68z" stroke="#202124" fill="#fff"/><use xlink:href="#d" transform="matrix(1,0,0,1,306.67687179558106,11145) translate(5.950303819444514 24.802951388888864)"/><use xlink:href="#e" transform="matrix(1,0,0,1,306.67687179558106,11145) translate(65.22330729166667 24.802951388888864)"/><path d="M497.88 11140h146.08v43.65H497.88z" stroke="#202124" fill="#fff"/><use xlink:href="#f" transform="matrix(1,0,0,1,502.8813533147271,11145) translate(10.898003472222285 24.802951388888864)"/><use xlink:href="#g" transform="matrix(1,0,0,1,502.8813533147271,11145) translate(51.38411458333335 24.802951388888864)"/><path d="M365.72 11210h33.2v40h-33.2z" stroke="#000" stroke-opacity="0" fill="#fff" fill-opacity="0"/><use xlink:href="#c" transform="matrix(1,0,0,1,370.723671255305,11215) translate(5.24495442708334 22.677951388888864)"/><path d="M382.15 11184.65l.02 2.07m.03 4.14l.02 4.14m.03 4.14l.03 4.15m.03 4.13l.02 2.07" stroke="#202124" fill="none"/><path d="M382.65 11184.66h-1v-.5h1zM382.82 11210h-1v-.5l1-.02z" fill="#202124"/><path d="M499.72 11100.66l-1.95.64m-3.9 1.3l-3.9 1.28m-3.9 1.3l-3.9 1.28m-3.92 1.3l-3.9 1.28m-3.9 1.3l-3.9 1.28m-3.9 1.3l-3.9 1.28m-3.92 1.3l-3.9 1.28m-3.9 1.3l-3.9 1.28m-3.9 1.28l-3.9 1.3m-3.92 1.28l-3.9 1.3m-3.9 1.28l-3.9 1.3m-3.9 1.28l-3.9 1.3m-3.9 1.28l-3.9 1.3m-3.9 1.28l-3.9 1.3m-3.92 1.28l-3.9 1.3m-3.9 1.28l-1.95.64" stroke="#202124" fill="none"/><path d="M499.86 11101.14l-.2-.64h2.13zM382.7 11139.5h-2.14l1.92-.64z" fill="#202124"/><path d="M500.63 11100.74l1.75.96m3.5 1.93l3.48 1.93m3.5 1.92l3.5 1.93m3.48 1.93l3.5 1.93m3.5 1.93l3.48 1.9m3.5 1.94l3.48 1.92m3.5 1.93l3.5 1.9m3.48 1.94l3.5 1.93m3.48 1.92l3.5 1.92m3.5 1.92l3.48 1.93m3.5 1.93l1.74.96" stroke="#202124" fill="none"/><path d="M500.4 11101.2l-1.24-.7h1.62zM571.95 11139.5h-1.62l.38-.7z" fill="#202124"/><path d="M497.88 11183.65h89.03v36.35H497.9z" stroke="#202124" fill="#fff"/><use xlink:href="#h" transform="matrix(1,0,0,1,502.8813533147271,11188.645833333332) translate(29.371202256944457 22.677951388888864)"/><path d="M586.9 11183.65h57.06v36.35H586.9z" stroke="#202124" fill="#fff"/><path d="M586.9 11183.65h30.4v36.35h-30.4z" stroke="#000" stroke-opacity="0" fill-opacity="0"/><path d="M497.88 11220h146.08v40H497.88z" stroke="#202124" fill="#fff"/><use xlink:href="#i" transform="matrix(1,0,0,1,502.88135331472733,11225) translate(58.84993489583334 24.615451388888864)"/><path d="M723.83 11160h100v140h-100zM723.83 11120h60.95v40h-60.95z" stroke="#202124" fill="#fff"/><use xlink:href="#i" transform="matrix(1,0,0,1,728.8270091590223,11125) translate(15.849934895833343 22.677951388888864)"/><path d="M784.78 11120h39.05v40h-39.05z" stroke="#202124" fill="#fff"/><path d="M759.4 11200h28.25v40H759.4zM784.78 11120h20.8v40h-20.8z" stroke="#000" stroke-opacity="0" fill-opacity="0"/><path d="M879.7 11060h100v279.94h-100zM879.7 11020h60.94v40H879.7z" stroke="#202124" fill="#fff"/><use xlink:href="#i" transform="matrix(1,0,0,1,884.6875223371212,11025) translate(15.849934895833343 22.677951388888864)"/><path d="M940.64 11020h39.05v40h-39.06z" stroke="#202124" fill="#fff"/><path d="M915.25 11100h28.26v40h-28.25zM940.64 11020h20.8v40h-20.8z" stroke="#000" stroke-opacity="0" fill-opacity="0"/><path d="M961.95 11040h21.67" stroke="#202124" fill="none"/><path d="M961.96 11040.5h-.5v-1h.5z" fill="#202124"/><path d="M998.38 11040l-14.26 4.64v-9.28z" stroke="#202124" fill="#202124"/><path d="M806.1 11140l.48-.02.97-.08.95-.12.92-.16.9-.2.92-.26.9-.3.9-.36.92-.42.92-.47.95-.54.97-.63 1-.72 1.04-.83 1.1-.96 1.14-1.12 1.23-1.34 1.34-1.6 1.45-1.92 1.6-2.4 1.85-3.03 2.18-4.05 2.76-5.8 4.28-10.36 13.5-34.95 2.76-5.8 2.18-4.04 1.84-3.03 1.62-2.4 1.45-1.92 1.33-1.6 1.23-1.33.85-.84" stroke="#202124" fill="none"/><path d="M806.1 11140.5h-.52v-1h.5z" fill="#202124"/><path d="M877.7 11040.65l-11.22 9.95-3.7-8.5z" stroke="#202124" fill="#202124"/><path d="M723.83 11160h100v23.65h-100z" stroke="#202124" fill="#fff"/><use xlink:href="#j" transform="matrix(1,0,0,1,728.8270091590223,11165) translate(32.41406250000003 12.369791666666636)"/><use xlink:href="#k" transform="matrix(1,0,0,1,728.8270091590223,11165) translate(51.098958333333314 12.369791666666636)"/><path d="M723.83 11183.65h100v40h-100z" stroke="#202124" fill="#fff"/><use xlink:href="#j" transform="matrix(1,0,0,1,728.8270091590225,11188.645833333332) translate(32.41406250000003 12.369791666666636)"/><use xlink:href="#l" transform="matrix(1,0,0,1,728.8270091590225,11188.645833333332) translate(51.098958333333314 12.369791666666636)"/><path d="M723.83 11223.65h100v66.12h-100z" stroke="#202124" fill="#fff"/><use xlink:href="#j" transform="matrix(1,0,0,1,728.8270091590223,11228.645833333334) translate(32.41406250000003 12.369791666666636)"/><use xlink:href="#m" transform="matrix(1,0,0,1,728.8270091590223,11228.645833333334) translate(51.098958333333314 12.369791666666636)"/><path d="M723.83 11289.77h100v10.4h-100z" stroke="#202124" fill="#fff"/><use xlink:href="#n" transform="matrix(1,0,0,1,723.8270091590225,11289.765343840752) translate(18.056423611111228 8.246527777777747)"/><path d="M879.7 11060h100v23.65h-100z" stroke="#202124" fill="#fff"/><use xlink:href="#j" transform="matrix(1,0,0,1,884.6875223371214,11065) translate(32.41406250000003 12.369791666666636)"/><use xlink:href="#o" transform="matrix(1,0,0,1,884.6875223371214,11065) translate(51.098958333333314 12.369791666666636)"/><path d="M879.63 11083.66h100v23.5h-100z" stroke="#202124" fill="#fff"/><use xlink:href="#j" transform="matrix(1,0,0,1,884.6337124648824,11088.659071312244) translate(32.41406250000003 12.369791666666636)"/><use xlink:href="#p" transform="matrix(1,0,0,1,884.6337124648824,11088.659071312244) translate(51.098958333333314 12.369791666666636)"/><path d="M879.7 11153.88h100v66.12h-100z" stroke="#202124" fill="#fff"/><use xlink:href="#j" transform="matrix(1,0,0,1,884.6875223371214,11158.880489492582) translate(32.41406250000003 12.369791666666636)"/><use xlink:href="#q" transform="matrix(1,0,0,1,884.6875223371214,11158.880489492582) translate(51.098958333333314 12.369791666666636)"/><path d="M879.74 11107.15h100v23.65h-100z" stroke="#202124" fill="#fff"/><use xlink:href="#j" transform="matrix(1,0,0,1,884.7413322093605,11112.149459430166) translate(32.41406250000003 12.369791666666636)"/><use xlink:href="#r" transform="matrix(1,0,0,1,884.7413322093605,11112.149459430166) translate(51.098958333333314 12.369791666666636)"/><path d="M879.7 11130.8h100v23.5h-100z" stroke="#202124" fill="#fff"/><use xlink:href="#j" transform="matrix(1,0,0,1,884.6875223371214,11135.80853074241) translate(32.41406250000003 12.369791666666636)"/><use xlink:href="#s" transform="matrix(1,0,0,1,884.6875223371214,11135.80853074241) translate(51.098958333333314 12.369791666666636)"/><path d="M879.74 11220h100v40h-100z" stroke="#202124" fill="#fff"/><use xlink:href="#j" transform="matrix(1,0,0,1,884.7413322093605,11224.999999999998) translate(32.41406250000003 12.369791666666636)"/><use xlink:href="#t" transform="matrix(1,0,0,1,884.7413322093605,11224.999999999998) translate(51.098958333333314 12.369791666666636)"/><path d="M879.74 11260h100v79.94h-100z" stroke="#202124" fill="#fff"/><use xlink:href="#u" transform="matrix(1,0,0,1,882.7413322093605,11263) translate(3.8259548611112137 14.431423611111077)"/><use xlink:href="#v" transform="matrix(1,0,0,1,882.7413322093605,11263) translate(3.8259548611112137 32.6605902777777)"/><use xlink:href="#v" transform="matrix(1,0,0,1,882.7413322093605,11263) translate(3.8259548611112137 50.88975694444432)"/><use xlink:href="#v" transform="matrix(1,0,0,1,882.7413322093605,11263) translate(3.8259548611112137 69.11892361111094)"/><use xlink:href="#w" transform="matrix(1,0,0,1,882.7413322093605,11263) translate(47.5 87.34809027777756)"/><path d="M1000 11020h33.2v40H1000z" stroke="#000" stroke-opacity="0" fill="#fff" fill-opacity="0"/><use xlink:href="#c" transform="matrix(1,0,0,1,1005,11025) translate(5.24495442708334 22.677951388888864)"/><path d="M692.7 11001v3.96m0 7.9v7.92m0 7.9v7.92m0 7.9v7.93m0 7.9v7.92m0 7.9v7.92m0 7.92v7.9m0 7.9v7.92m0 7.9v7.92m0 7.92v7.9m0 7.92v7.9m0 7.92v7.9m0 7.93v7.9m0 7.92v7.9m0 7.92v7.92m0 7.9v7.9m0 7.92v7.9m0 7.92v7.92m0 7.9v7.92m0 7.9v7.92m0 7.9v7.93m0 7.9v7.92m0 7.9v7.92m0 7.92v7.9m0 7.9v7.92m0 7.9v7.92m0 7.92v7.9m0 7.92v7.9m0 7.92v7.9m0 7.93v7.9m0 7.92v7.9m0 7.92v7.92m0 7.9v7.9m0 7.92v7.9m0 7.92v3.96" stroke="#999" stroke-width="2" fill="none"/><path d="M693.7 11001.03h-2v-1.03h2z" fill="#999"/><path d="M692.7 11538.97v1.03" stroke="#999" stroke-width="2" fill="none"/><path d="M617.8 11201.8l2.6-.05 2.88-.2 2.7-.32 2.56-.43 2.44-.52 2.35-.63 2.27-.72 2.23-.82 2.2-.92 2.17-1.04 2.2-1.2 2.2-1.33 2.3-1.53 2.42-1.78 2.6-2.13 2.9-2.6 3.53-3.5 5.38-5.86 14.56-16.46 3.5-3.47 2.92-2.62 2.6-2.12 2.4-1.78 2.3-1.54 2.23-1.33 2.2-1.18 2.17-1.06 2.2-.93 2.2-.8 2.13-.68" stroke="#202124" fill="none"/><path d="M617.84 11202.3l-.53.02v-1h.5z" fill="#202124"/><path d="M721.72 11140.22l-13.5 6.53-1.26-9.18z" stroke="#202124" fill="#202124"/><path d="M582.56 10960h220.28v40H582.56z" stroke="#000" stroke-opacity="0" stroke-width="2" fill="#fff" fill-opacity="0"/><use xlink:href="#x" transform="matrix(1,0,0,1,587.5639697093156,10965) translate(62.06250000000006 22.304687499999975)"/><use xlink:href="#y" transform="matrix(1,0,0,1,587.5639697093156,10965) translate(128.36132812499997 22.304687499999975)"/><path d="M581.67 10995.65h100.46v56.87H581.67z" stroke="#000" stroke-opacity="0" stroke-width="2" fill="#fff" fill-opacity="0"/><use xlink:href="#z" transform="matrix(1,0,0,1,586.6720597431064,11000.64952800125) translate(17.2988281250001 30.304687499999975)"/><use xlink:href="#A" transform="matrix(1,0,0,1,586.6720597431064,11000.64952800125) translate(49.72070312500006 30.304687499999975)"/><path d="M702.13 10995.65h79.82v56.87h-79.82z" stroke="#000" stroke-opacity="0" stroke-width="2" fill="#fff" fill-opacity="0"/><use xlink:href="#B" transform="matrix(1,0,0,1,707.132979674619,11000.64952800125) translate(0 30.335937499999993)"/><path d="M220 11345.6h161.78v34.34H220z" stroke="#000" stroke-opacity="0" stroke-width="2" fill="#fff" fill-opacity="0"/><use xlink:href="#C" transform="matrix(1,0,0,1,225,11350.598337072675) translate(0 20.117187499999975)"/><use xlink:href="#D" transform="matrix(1,0,0,1,225,11350.598337072675) translate(69.39453124999991 20.117187499999975)"/><path d="M221 11389.97h3.97m7.94 0h7.95m7.94 0h7.92m7.94 0h7.94m7.94 0h7.94m7.94 0h7.94m7.94 0h7.93m7.94 0h7.94m7.95 0H352m7.93 0h7.94m7.94 0h7.94m7.94 0h7.94m7.94 0h7.94m7.94 0h7.94m7.94 0h7.94m7.93 0h7.93m7.94 0H479m7.95 0h7.94m7.93 0h7.94m7.93 0h7.94m7.94 0h7.94m7.94 0h7.94m7.94 0h7.94m7.93 0h7.95m7.94 0h7.93m7.94 0h7.94m7.95 0h7.94m7.92 0h7.94m7.94 0h7.94m7.94 0h7.94m7.94 0h7.94m7.93 0h7.94m7.94 0h7.95m7.94 0h7.93m7.94 0h7.94m7.94 0h7.94m7.94 0h7.94m7.94 0h7.94m7.94 0h7.94m7.94 0h7.93m7.93 0h7.94m7.94 0h7.95m7.94 0h7.93m7.94 0h7.93m7.94 0h7.94m7.94 0h7.94m7.94 0h7.94m7.94 0h7.93m7.95 0h7.94m7.93 0H999M221.03 11389.97H220M998.97 11389.97h1.03" stroke="#999" stroke-width="2" fill="none"/><path d="M220 11400h161.78v34.35H220z" stroke="#000" stroke-opacity="0" stroke-width="2" fill="#fff" fill-opacity="0"/><use xlink:href="#E" transform="matrix(1,0,0,1,225,11405) translate(0 20.117187499999975)"/><use xlink:href="#F" transform="matrix(1,0,0,1,225,11405) translate(94.28710937499989 20.117187499999975)"/><path d="M220.34 11454.4h161.78v34.35H220.34z" stroke="#000" stroke-opacity="0" stroke-width="2" fill="#fff" fill-opacity="0"/><use xlink:href="#G" transform="matrix(1,0,0,1,225.34360274225634,11459.401662927325) translate(0 20.117187499999975)"/><path d="M221 11447.17h3.97m7.94 0h7.95m7.94 0h7.92m7.94 0h7.94m7.94 0h7.94m7.94 0h7.94m7.94 0h7.93m7.94 0h7.94m7.95 0H352m7.93 0h7.94m7.94 0h7.94m7.94 0h7.94m7.94 0h7.94m7.94 0h7.94m7.94 0h7.94m7.93 0h7.93m7.94 0H479m7.95 0h7.94m7.93 0h7.94m7.93 0h7.94m7.94 0h7.94m7.94 0h7.94m7.94 0h7.94m7.93 0h7.95m7.94 0h7.93m7.94 0h7.94m7.95 0h7.94m7.92 0h7.94m7.94 0h7.94m7.94 0h7.94m7.94 0h7.94m7.93 0h7.94m7.94 0h7.95m7.94 0h7.93m7.94 0h7.94m7.94 0h7.94m7.94 0h7.94m7.94 0h7.94m7.94 0h7.94m7.94 0h7.93m7.93 0h7.94m7.94 0h7.95m7.94 0h7.93m7.94 0h7.93m7.94 0h7.94m7.94 0h7.94m7.94 0h7.94m7.94 0h7.93m7.95 0h7.94m7.93 0H999M221.03 11447.17H220M998.97 11447.17h1.03" stroke="#999" stroke-width="2" fill="none"/><path d="M482.22 11400H644v34.35H482.22z" stroke="#000" stroke-opacity="0" stroke-width="2" fill="#fff" fill-opacity="0"/><use xlink:href="#H" transform="matrix(1,0,0,1,487.222868409656,11405) translate(44.76464843750004 20.117187499999975)"/><path d="M770.4 11400h161.77v34.35H770.4z" stroke="#000" stroke-opacity="0" stroke-width="2" fill="#fff" fill-opacity="0"/><use xlink:href="#I" transform="matrix(1,0,0,1,775.3880967971822,11405) translate(62.259765625000014 20.117187499999975)"/><path d="M325.88 11454.4h161.77v34.35H325.88z" stroke="#000" stroke-opacity="0" stroke-width="2" fill="#fff" fill-opacity="0"/><use xlink:href="#J" transform="matrix(1,0,0,1,330.87644300133377,11459.401662927325) translate(54.34960937500003 20.117187499999975)"/><path d="M309.16 11500h63.14v34.35h-63.14z" stroke="#000" stroke-opacity="0" stroke-width="2" fill="#fff" fill-opacity="0"/><use xlink:href="#K" transform="matrix(1,0,0,1,314.15527884101516,11505) translate(8.708984375000025 20.117187499999975)"/><path d="M373.73 11500h63.15v34.35h-63.15z" stroke="#000" stroke-opacity="0" stroke-width="2" fill="#fff" fill-opacity="0"/><use xlink:href="#K" transform="matrix(1,0,0,1,378.73291826152274,11505) translate(8.708984375000025 20.117187499999975)"/><path d="M433.73 11500h63.15v34.35h-63.15z" stroke="#000" stroke-opacity="0" stroke-width="2" fill="#fff" fill-opacity="0"/><use xlink:href="#K" transform="matrix(1,0,0,1,438.73291826152274,11505) translate(8.708984375000025 20.117187499999975)"/><path d="M507.3 11454.4h161.78v34.35H507.3z" stroke="#000" stroke-opacity="0" stroke-width="2" fill="#fff" fill-opacity="0"/><use xlink:href="#J" transform="matrix(1,0,0,1,512.3033353022333,11459.401662927325) translate(54.34960937500003 20.117187499999975)"/><path d="M490.58 11500h63.15v34.35h-63.15z" stroke="#000" stroke-opacity="0" stroke-width="2" fill="#fff" fill-opacity="0"/><use xlink:href="#K" transform="matrix(1,0,0,1,495.5821711419147,11505) translate(8.708984375000025 20.117187499999975)"/><path d="M555.16 11500h63.14v34.35h-63.14z" stroke="#000" stroke-opacity="0" stroke-width="2" fill="#fff" fill-opacity="0"/><use xlink:href="#K" transform="matrix(1,0,0,1,560.1598105624223,11505) translate(8.708984375000025 20.117187499999975)"/><path d="M615.16 11500h63.14v34.35h-63.14z" stroke="#000" stroke-opacity="0" stroke-width="2" fill="#fff" fill-opacity="0"/><use xlink:href="#K" transform="matrix(1,0,0,1,620.1598105624223,11505) translate(8.708984375000025 20.117187499999975)"/><path d="M406.27 11488.83l-65.05 11.1" stroke="#202124" fill="none"/><path d="M406.34 11489.33l-.1-.58h3.5zM341.25 11500h-3.5l3.4-.58z" fill="#202124"/><path d="M406.77 11489.25v10.25" stroke="#202124" fill="none"/><path d="M407.27 11489.26h-1v-.5h1zM407.27 11500h-1v-.5h1z" fill="#202124"/><path d="M407.26 11488.84l57.55 11.07" stroke="#202124" fill="none"/><path d="M407.17 11489.34l-3.05-.6h3.17zM467.95 11500h-3.17l.12-.6z" fill="#202124"/><path d="M587.7 11488.83l-65.05 11.1" stroke="#202124" fill="none"/><path d="M587.77 11489.33l-.1-.58h3.5zM522.67 11500h-3.5l3.4-.58z" fill="#202124"/><path d="M588.2 11489.25v10.25" stroke="#202124" fill="none"/><path d="M588.7 11489.26h-1v-.5h1zM588.7 11500h-1v-.5h1z" fill="#202124"/><path d="M588.68 11488.84l57.56 11.07" stroke="#202124" fill="none"/><path d="M588.6 11489.34l-3.06-.6h3.17zM649.38 11500h-3.17l.12-.6z" fill="#202124"/><path d="M720.58 11460h63.14v56.88h-63.14z" stroke="#000" stroke-opacity="0" stroke-width="2" fill="#fff" fill-opacity="0"/><use xlink:href="#L" transform="matrix(1,0,0,1,725.5779688012058,11465) translate(9.666015625000025 18.617187500000007)"/><use xlink:href="#M" transform="matrix(1,0,0,1,725.5779688012058,11465) translate(-3.341796874999961 42.05468749999997)"/><path d="M802.84 11460H866v56.88h-63.16z" stroke="#000" stroke-opacity="0" stroke-width="2" fill="#fff" fill-opacity="0"/><use xlink:href="#N" transform="matrix(1,0,0,1,807.8432983654153,11465) translate(17.913085937500014 30.304687499999975)"/><path d="M860 11454.4h161.78v34.35H860z" stroke="#000" stroke-opacity="0" stroke-width="2" fill="#fff" fill-opacity="0"/><g><use xlink:href="#O" transform="matrix(1,0,0,1,865,11459.401662927325) translate(49.051757812500036 20.117187499999975)"/></g><path d="M871.1 11500h63.16v34.35H871.1z" stroke="#000" stroke-opacity="0" stroke-width="2" fill="#fff" fill-opacity="0"/><g><use xlink:href="#K" transform="matrix(1,0,0,1,876.1136074521552,11505) translate(8.708984375000025 20.117187499999975)"/></g><path d="M951.1 11500h63.16v34.35H951.1z" stroke="#000" stroke-opacity="0" stroke-width="2" fill="#fff" fill-opacity="0"/><g><use xlink:href="#K" transform="matrix(1,0,0,1,956.1136074521552,11505) translate(8.708984375000025 20.117187499999975)"/></g><path d="M940.4 11488.9l-37.23 10.96" stroke="#202124" fill="none"/><path d="M940.54 11489.37l-.2-.62h2.32zM903.22 11500h-2.3l2.12-.62z" fill="#202124"/><path d="M941.37 11488.88l40.83 11" stroke="#202124" fill="none"/><path d="M941.25 11489.36l-2.28-.6h2.45zM984.6 11500h-2.45l.17-.62z" fill="#202124"/><path d="M723.32 11080h100v40h-100z" stroke="#000" stroke-opacity="0" fill="#fff" fill-opacity="0"/><g><use xlink:href="#P" transform="matrix(1,0,0,1,728.3222611701706,11085) translate(18.53352864583339 30.30342361111108)"/><use xlink:href="#Q" transform="matrix(1,0,0,1,728.3222611701706,11085) translate(53.15375434027776 30.30342361111108)"/></g><path d="M879.38 10980h100v40h-100z" stroke="#000" stroke-opacity="0" fill="#fff" fill-opacity="0"/><g><use xlink:href="#P" transform="matrix(1,0,0,1,884.3798851886424,10985) translate(18.53352864583339 30.30342361111108)"/><use xlink:href="#R" transform="matrix(1,0,0,1,884.3798851886424,10985) translate(53.15375434027776 30.30342361111108)"/></g><path d="M982.2 11260h53.35v79.94H982.2z" fill="none"/><path d="M982.2 11339.94c5.53 0 10-4.47 10-10v-19.97c0-5.52 4.48-10 10-10-5.52 0-10-4.47-10-10V11270c0-5.52-4.47-10-10-10" stroke="#202124" fill="none"/><g><use xlink:href="#S" transform="matrix(1,0,0,1,1017.2042079188602,11265) translate(-18.133463541666615 31.20225694444445)"/><use xlink:href="#T" transform="matrix(1,0,0,1,1017.2042079188602,11265) translate(-13.796440972222179 49.43142361111108)"/></g><defs><path fill="#333" d="M314-151h633V0H88v-136l597-793H97v-153h820v131" id="U"/><path fill="#333" d="M632-1102c291 0 422 251 422 573 0 297-141 548-419 549-131 0-235-42-310-125v521H140v-1498h169l9 120c75-93 180-140 314-140zm-53 971c207 0 290-180 290-419 0-218-92-395-292-395-112 0-196 50-252 149v517c55 99 140 148 254 148" id="V"/><path fill="#333" d="M584 20C278 26 81-227 91-551c10-320 175-545 491-551 308-5 503 247 494 573-9 322-175 543-492 549zm-2-970c-208 0-305 185-305 421 0 216 106 398 307 398 211 0 307-186 307-420 0-214-109-399-309-399" id="W"/><path fill="#333" d="M341 0H156v-1536h185V0" id="X"/><g id="a"><use transform="matrix(0.011935763888888876,0,0,0.011935763888888876,0,0)" xlink:href="#U"/><use transform="matrix(0.011935763888888876,0,0,0.011935763888888876,12.114800347222209,0)" xlink:href="#V"/><use transform="matrix(0.011935763888888876,0,0,0.011935763888888876,25.82899305555553,0)" xlink:href="#W"/><use transform="matrix(0.011935763888888876,0,0,0.011935763888888876,39.769965277777736,0)" xlink:href="#W"/><use transform="matrix(0.011935763888888876,0,0,0.011935763888888876,53.71093749999994,0)" xlink:href="#X"/></g><path fill="#333" d="M520 20C244 20 95-247 95-550c0-298 151-550 427-552 127 0 227 43 301 130v-564h185V0H838l-9-116C755-25 652 20 520 20zm48-965c-210 0-288 177-288 416 0 218 87 392 286 392 117 0 203-53 257-158v-497c-55-102-140-153-255-153" id="Y"/><path fill="#333" d="M561-1102c238-4 403 126 403 351v498c0 99 13 178 38 237V0H808c-11-21-19-59-26-114C696-25 593 20 474 20c-199 0-368-130-365-320 4-251 214-359 490-356h180v-85c-1-135-86-212-229-212-115 0-232 67-233 171H131c20-205 206-316 430-320zM294-326c0 117 90 185 207 185 122 0 239-75 278-162v-222H634c-227 0-340 66-340 199" id="Z"/><path fill="#333" d="M456 20C285 20 205-92 206-268v-671H9v-143h197v-262h185v262h202v143H391v671c-9 125 92 149 207 118V0c-49 13-96 20-142 20" id="aa"/><path fill="#333" d="M538-131c121 0 232-49 232-156 0-50-20-88-56-117-73-60-334-92-420-143-92-55-162-110-162-238 0-190 192-317 400-317 223 0 414 129 413 338H759c0-108-110-186-227-186-119 0-215 53-215 159 0 45 18 78 53 101 76 52 331 90 416 139 98 57 169 115 169 251C955-92 760 20 538 20c-176 0-314-68-386-174-38-55-57-115-57-179h185c6 129 116 202 258 202" id="ab"/><path fill="#333" d="M599-131c141 0 220-65 285-146l113 88C906-50 770 20 589 20 281 21 93-214 93-545c0-223 93-397 233-485 74-48 154-72 240-72 300 2 449 218 445 537v77H278c0 197 129 357 321 357zm227-509c-3-180-88-310-260-310-170 0-264 140-282 310h542" id="ac"/><g id="b"><use transform="matrix(0.011935763888888876,0,0,0.011935763888888876,0,0)" xlink:href="#Y"/><use transform="matrix(0.011935763888888876,0,0,0.011935763888888876,13.785807291666652,0)" xlink:href="#Z"/><use transform="matrix(0.011935763888888876,0,0,0.011935763888888876,27.08224826388886,0)" xlink:href="#aa"/><use transform="matrix(0.011935763888888876,0,0,0.011935763888888876,35.067274305555515,0)" xlink:href="#Z"/><use transform="matrix(0.011935763888888876,0,0,0.011935763888888876,48.36371527777772,0)" xlink:href="#ab"/><use transform="matrix(0.011935763888888876,0,0,0.011935763888888876,60.967881944444365,0)" xlink:href="#ac"/><use transform="matrix(0.011935763888888876,0,0,0.011935763888888876,73.9181857638888,0)" xlink:href="#aa"/></g><path fill="#333" d="M258 11c-71 0-114-43-114-108 0-67 42-112 114-112s116 45 116 112c-1 65-45 108-116 108" id="ad"/><g id="c"><use transform="matrix(0.008355034722222213,0,0,0.008355034722222213,0,-7.937282986111103)" xlink:href="#ad"/><use transform="matrix(0.008355034722222213,0,0,0.008355034722222213,4.503363715277773,-7.937282986111103)" xlink:href="#ad"/><use transform="matrix(0.008355034722222213,0,0,0.008355034722222213,9.006727430555546,-7.937282986111103)" xlink:href="#ad"/></g><path fill="#333" d="M1222-777c17 480-206 763-650 777H169v-1456h411c408 9 627 269 642 679zm-190 4c3-312-149-522-447-525H361v1141h202c308 0 473-209 469-531v-85" id="ae"/><path fill="#333" d="M417-1456L893-268l476-1188h249V0h-192c-4-403 4-794 18-1179L966 0H819L342-1176c15 384 23 773 19 1176H169v-1456h248" id="af"/><path fill="#333" d="M665-137c214 0 337-121 336-332v-987h193v990c-3 300-218 486-529 486-309 0-526-181-525-484v-992h190v986c-1 210 123 333 335 333" id="ag"/><g id="d"><use transform="matrix(0.011935763888888876,0,0,0.011935763888888876,0,0)" xlink:href="#ae"/><use transform="matrix(0.011935763888888876,0,0,0.011935763888888876,16.02973090277776,0)" xlink:href="#af"/><use transform="matrix(0.011935763888888876,0,0,0.011935763888888876,37.37087673611107,0)" xlink:href="#ag"/></g><path fill="#333" d="M634-1102c292 0 422 254 422 573 0 298-143 547-420 549-137 0-242-48-317-145L310 0H140v-1536h185v573c75-93 178-139 309-139zm-44 965c207 0 281-175 281-413 0-224-79-395-283-395-122 0-210 57-263 170v468c57 113 145 170 265 170" id="ah"/><path fill="#333" d="M19 279c92 0 127-48 127-150v-1211h185V125c0 208-94 312-283 312-41 0-78-6-113-18V271c21 5 49 8 84 8zm216-1543c-68 0-107-42-108-105 0-61 42-107 108-107 68 0 110 44 110 107s-42 105-110 105" id="ai"/><path fill="#333" d="M277-555c0 244 77 420 297 424 127 2 249-93 255-210h175C980-127 805 20 574 20 258 20 81-222 92-562c11-319 164-533 481-540 237-5 426 165 431 392H829c-7-133-115-242-256-240-209 4-296 166-296 395" id="aj"/><g id="e"><use transform="matrix(0.011935763888888876,0,0,0.011935763888888876,0,0)" xlink:href="#W"/><use transform="matrix(0.011935763888888876,0,0,0.011935763888888876,13.940972222222207,0)" xlink:href="#ah"/><use transform="matrix(0.011935763888888876,0,0,0.011935763888888876,27.655164930555525,0)" xlink:href="#ai"/><use transform="matrix(0.011935763888888876,0,0,0.011935763888888876,33.491753472222186,0)" xlink:href="#ac"/><use transform="matrix(0.011935763888888876,0,0,0.011935763888888876,46.442057291666615,0)" xlink:href="#aj"/><use transform="matrix(0.011935763888888876,0,0,0.011935763888888876,59.23719618055549,0)" xlink:href="#aa"/><use transform="matrix(0.011935763888888876,0,0,0.011935763888888876,67.22222222222214,0)" xlink:href="#ab"/></g><path fill="#333" d="M313-157h833V0H86v-144l798-1154H99v-158h1015v141" id="ak"/><path fill="#333" d="M375 0H183v-1456h192V0" id="al"/><path fill="#333" d="M362-157h690V0H169v-1456h193v1299" id="am"/><g id="f"><use transform="matrix(0.011935763888888876,0,0,0.011935763888888876,0,0)" xlink:href="#ak"/><use transform="matrix(0.011935763888888876,0,0,0.011935763888888876,14.633246527777763,0)" xlink:href="#al"/><use transform="matrix(0.011935763888888876,0,0,0.011935763888888876,21.281467013888864,0)" xlink:href="#am"/></g><path fill="#333" d="M589-945c-131 0-219 81-264 174V0H140v-1536h185v585c82-101 189-151 320-151 229 0 346 129 346 387V0H806v-716c-2-153-65-229-217-229" id="an"/><path fill="#333" d="M663-916c-163-27-288 18-338 148V0H140v-1082h180l3 125c61-97 147-145 258-145 36 0 63 5 82 14v172" id="ao"/><g id="g"><use transform="matrix(0.011935763888888876,0,0,0.011935763888888876,0,0)" xlink:href="#an"/><use transform="matrix(0.011935763888888876,0,0,0.011935763888888876,13.463541666666652,0)" xlink:href="#ac"/><use transform="matrix(0.011935763888888876,0,0,0.011935763888888876,26.413845486111082,0)" xlink:href="#Z"/><use transform="matrix(0.011935763888888876,0,0,0.011935763888888876,39.710286458333286,0)" xlink:href="#Y"/><use transform="matrix(0.011935763888888876,0,0,0.011935763888888876,53.49609374999993,0)" xlink:href="#ac"/><use transform="matrix(0.011935763888888876,0,0,0.011935763888888876,66.44639756944437,0)" xlink:href="#ao"/></g><path fill="#5e5e5e" d="M176 0v-125h654v-1308h125v1308h654V0H175" id="ap"/><use transform="matrix(0.011935763888888876,0,0,0.011935763888888876,0,0)" xlink:href="#ap" id="h"/><g id="i"><use transform="matrix(0.011935763888888876,0,0,0.011935763888888876,0,0)" xlink:href="#ad"/><use transform="matrix(0.011935763888888876,0,0,0.011935763888888876,6.4333767361111045,0)" xlink:href="#ad"/><use transform="matrix(0.011935763888888876,0,0,0.011935763888888876,12.866753472222209,0)" xlink:href="#ad"/></g><path fill="#333" d="M1161-1018c0 201-122 330-278 388l342 618V0h-206L703-589H361V0H168v-1456h482c310-2 511 139 511 438zm-193 0c0-187-120-280-313-280H361v552h295c179 3 313-101 312-272" id="aq"/><g id="j"><use transform="matrix(0.0065104166666666505,0,0,0.0065104166666666505,0,0)" xlink:href="#am"/><use transform="matrix(0.0065104166666666505,0,0,0.0065104166666666505,7.174479166666649,0)" xlink:href="#aq"/></g><path fill="#333" d="M729 0H543v-1233l-373 137v-168l530-199h29V0" id="ar"/><use transform="matrix(0.0065104166666666505,0,0,0.0065104166666666505,0,0)" xlink:href="#ar" id="k"/><path fill="#333" d="M569-1476c255 0 440 146 439 390 0 143-91 314-274 512L344-151h731V0H121v-133l504-560c75-85 125-155 155-207 105-184 6-424-211-424-183 0-293 113-291 297H93c-3-270 199-449 476-449" id="as"/><use transform="matrix(0.0065104166666666505,0,0,0.0065104166666666505,0,0)" xlink:href="#as" id="l"/><path fill="#333" d="M832-402c-1-179-119-264-303-265H390v-151h139c164 0 281-91 281-250 0-171-85-256-255-256-154 0-265 99-263 250H107c-4-235 205-402 448-402 266 0 444 150 440 412-2 148-109 272-229 317 147 45 249 158 251 341 3 262-197 426-461 426C299 20 91-135 94-384h186c-2 156 116 253 276 253 176 0 277-96 276-271" id="at"/><use transform="matrix(0.0065104166666666505,0,0,0.0065104166666666505,0,0)" xlink:href="#at" id="m"/><path fill="#333" d="M574-1476c351 0 454 237 460 615v240c0 217-37 378-111 483S733 20 576 20c-346 0-454-246-461-616v-247c0-214 37-373 111-477s190-156 348-156zm275 905c0-337 59-752-275-753-95 0-160 38-207 107-80 118-66 409-67 625 0 157 22 273 68 348s115 113 208 113c91 0 160-35 204-106s69-182 69-334" id="au"/><g id="n"><use transform="matrix(0.0043402777777777615,0,0,0.0043402777777777615,0,0)" xlink:href="#au"/><use transform="matrix(0.0043402777777777615,0,0,0.0043402777777777615,4.991319444444426,0)" xlink:href="#au"/><use transform="matrix(0.0043402777777777615,0,0,0.0043402777777777615,9.982638888888852,0)" xlink:href="#au"/><use transform="matrix(0.0043402777777777615,0,0,0.0043402777777777615,14.973958333333279,0)" xlink:href="#au"/><use transform="matrix(0.0043402777777777615,0,0,0.0043402777777777615,19.965277777777704,0)" xlink:href="#au"/><use transform="matrix(0.0043402777777777615,0,0,0.0043402777777777615,24.95659722222213,0)" xlink:href="#au"/><use transform="matrix(0.0043402777777777615,0,0,0.0043402777777777615,29.947916666666554,0)" xlink:href="#au"/><use transform="matrix(0.0043402777777777615,0,0,0.0043402777777777615,34.93923611111098,0)" xlink:href="#au"/><use transform="matrix(0.0043402777777777615,0,0,0.0043402777777777615,39.93055555555541,0)" xlink:href="#au"/><use transform="matrix(0.0043402777777777615,0,0,0.0043402777777777615,44.92187499999984,0)" xlink:href="#au"/><use transform="matrix(0.0043402777777777615,0,0,0.0043402777777777615,49.913194444444265,0)" xlink:href="#au"/><use transform="matrix(0.0043402777777777615,0,0,0.0043402777777777615,54.904513888888694,0)" xlink:href="#au"/><use transform="matrix(0.0043402777777777615,0,0,0.0043402777777777615,59.89583333333312,0)" xlink:href="#au"/></g><path fill="#333" d="M902-489h202v151H902V0H716v-338H53v-109l652-1009h197v967zm-639 0h453v-714l-22 40" id="av"/><use transform="matrix(0.0065104166666666505,0,0,0.0065104166666666505,0,0)" xlink:href="#av" id="o"/><path fill="#333" d="M884-462c0-185-111-323-291-323-113 0-183 39-239 93l-148-38 74-726h746v171H437l-44 397c71-42 152-63 243-63 273-2 433 205 433 487 0 293-170 484-461 484-260 0-436-159-454-403h175c20 156 111 252 279 252 182 0 276-140 276-331" id="aw"/><use transform="matrix(0.0065104166666666505,0,0,0.0065104166666666505,0,0)" xlink:href="#aw" id="p"/><path fill="#333" d="M575-1476c247 0 432 154 429 400-2 161-97 271-213 327 135 56 245 179 247 356 3 257-200 413-463 413-265 0-466-156-463-413 2-176 108-302 243-357-115-56-207-166-209-326-4-246 181-400 429-400zm0 1345c168 0 278-101 278-266 0-161-118-276-280-276-163 0-276 113-276 276 0 167 108 266 278 266zm244-942c0-143-104-251-244-251-146 0-244 102-244 251 0 145 98 248 244 248s244-103 244-248" id="ax"/><use transform="matrix(0.0065104166666666505,0,0,0.0065104166666666505,0,0)" xlink:href="#ax" id="q"/><path fill="#333" d="M132-554c0-555 187-908 715-903v157c-320-8-501 179-526 477 77-88 181-132 314-132 259 0 417 214 417 480 0 286-172 495-451 495-293 0-469-266-469-574zm737 88c0-181-95-335-265-335-133 0-252 96-286 200v68c-6 207 101 397 283 400 175 3 268-150 268-333" id="ay"/><use transform="matrix(0.0065104166666666505,0,0,0.0065104166666666505,0,0)" xlink:href="#ay" id="r"/><path fill="#333" d="M1061-1352L458 0H264l601-1304H77v-152h984v104" id="az"/><use transform="matrix(0.0065104166666666505,0,0,0.0065104166666666505,0,0)" xlink:href="#az" id="s"/><path fill="#333" d="M1016-874C1016-303 841 2 305 1v-156c342 4 512-148 525-485-69 82-173 153-315 153-275 0-415-209-415-485 0-296 155-504 451-504 312 0 465 266 465 602zM282-982c0 180 93 342 263 342 134 0 246-99 286-198v-74c5-208-96-410-279-410-174 0-270 155-270 340" id="aA"/><use transform="matrix(0.0065104166666666505,0,0,0.0065104166666666505,0,0)" xlink:href="#aA" id="t"/><g id="u"><use transform="matrix(0.007595486111111093,0,0,0.007595486111111093,0,0)" xlink:href="#au"/><use transform="matrix(0.007595486111111093,0,0,0.007595486111111093,8.734809027777757,0)" xlink:href="#au"/><use transform="matrix(0.007595486111111093,0,0,0.007595486111111093,17.469618055555515,0)" xlink:href="#au"/><use transform="matrix(0.007595486111111093,0,0,0.007595486111111093,26.20442708333327,0)" xlink:href="#au"/><use transform="matrix(0.007595486111111093,0,0,0.007595486111111093,34.93923611111103,0)" xlink:href="#au"/><use transform="matrix(0.007595486111111093,0,0,0.007595486111111093,43.674045138888786,0)" xlink:href="#au"/><use transform="matrix(0.007595486111111093,0,0,0.007595486111111093,52.40885416666654,0)" xlink:href="#au"/><use transform="matrix(0.007595486111111093,0,0,0.007595486111111093,61.1436631944443,0)" xlink:href="#au"/><use transform="matrix(0.007595486111111093,0,0,0.007595486111111093,69.87847222222206,0)" xlink:href="#au"/><use transform="matrix(0.007595486111111093,0,0,0.007595486111111093,78.61328124999982,0)" xlink:href="#au"/></g><g id="v"><use transform="matrix(0.007595486111111093,0,0,0.007595486111111093,0,0)" xlink:href="#au"/><use transform="matrix(0.007595486111111093,0,0,0.007595486111111093,8.734809027777757,0)" xlink:href="#au"/><use transform="matrix(0.007595486111111093,0,0,0.007595486111111093,17.469618055555515,0)" xlink:href="#au"/><use transform="matrix(0.007595486111111093,0,0,0.007595486111111093,26.20442708333327,0)" xlink:href="#au"/><use transform="matrix(0.007595486111111093,0,0,0.007595486111111093,34.93923611111103,0)" xlink:href="#au"/><use transform="matrix(0.007595486111111093,0,0,0.007595486111111093,43.674045138888786,0)" xlink:href="#au"/><use transform="matrix(0.007595486111111093,0,0,0.007595486111111093,52.40885416666654,0)" xlink:href="#au"/><use transform="matrix(0.007595486111111093,0,0,0.007595486111111093,61.1436631944443,0)" xlink:href="#au"/><use transform="matrix(0.007595486111111093,0,0,0.007595486111111093,69.87847222222206,0)" xlink:href="#au"/><use transform="matrix(0.007595486111111093,0,0,0.007595486111111093,78.61328124999982,0)" xlink:href="#au"/></g><path fill="#5e5e5e" d="M1098-255l208-827h185L1176 0h-150L763-820 507 0H357L43-1082h184l213 810 252-810h149" id="aB"/><path fill="#5e5e5e" d="M663-916c-163-27-288 18-338 148V0H140v-1082h180l3 125c61-97 147-145 258-145 36 0 63 5 82 14v172" id="aC"/><path fill="#5e5e5e" d="M341 0H156v-1082h185V0zm-91-1264c-68 0-108-42-109-105 0-62 41-107 109-107s110 44 110 107-42 105-110 105" id="aD"/><path fill="#5e5e5e" d="M456 20C285 20 205-92 206-268v-671H9v-143h197v-262h185v262h202v143H391v671c-9 125 92 149 207 118V0c-49 13-96 20-142 20" id="aE"/><path fill="#5e5e5e" d="M599-131c141 0 220-65 285-146l113 88C906-50 770 20 589 20 281 21 93-214 93-545c0-223 93-397 233-485 74-48 154-72 240-72 300 2 449 218 445 537v77H278c0 197 129 357 321 357zm227-509c-3-180-88-310-260-310-170 0-264 140-282 310h542" id="aF"/><path fill="#5e5e5e" d="M589-945c-131 0-219 81-264 174V0H140v-1082h175l6 136c83-104 191-156 324-156 229 0 346 129 346 387V0H806v-716c-2-153-65-229-217-229" id="aG"/><g id="x"><use transform="matrix(0.009765624999999986,0,0,0.009765624999999986,0,0)" xlink:href="#aB"/><use transform="matrix(0.009765624999999986,0,0,0.009765624999999986,15.029296874999979,0)" xlink:href="#aC"/><use transform="matrix(0.009765624999999986,0,0,0.009765624999999986,21.796874999999968,0)" xlink:href="#aD"/><use transform="matrix(0.009765624999999986,0,0,0.009765624999999986,26.65039062499996,0)" xlink:href="#aE"/><use transform="matrix(0.009765624999999986,0,0,0.009765624999999986,33.18359374999995,0)" xlink:href="#aE"/><use transform="matrix(0.009765624999999986,0,0,0.009765624999999986,39.71679687499994,0)" xlink:href="#aF"/><use transform="matrix(0.009765624999999986,0,0,0.009765624999999986,50.31249999999993,0)" xlink:href="#aG"/></g><path fill="#5e5e5e" d="M634-1102c292 0 422 254 422 573 0 298-143 547-420 549-137 0-242-48-317-145L310 0H140v-1536h185v573c75-93 178-139 309-139zm-44 965c207 0 281-175 281-413 0-224-79-395-283-395-122 0-210 57-263 170v468c57 113 145 170 265 170" id="aH"/><path fill="#5e5e5e" d="M494-271l252-811h198L509 167C425 381 299 474 84 421V271c167 16 242-37 283-173l41-110L22-1082h202" id="aI"/><g id="y"><use transform="matrix(0.009765624999999986,0,0,0.009765624999999986,0,0)" xlink:href="#aH"/><use transform="matrix(0.009765624999999986,0,0,0.009765624999999986,11.113281249999984,0)" xlink:href="#aI"/></g><path fill="#5e5e5e" d="M503-687l240-395h216L605-547 970 0H756L506-405 256 0H41l365-547-354-535h214" id="aJ"/><path fill="#5e5e5e" d="M521 20C240 20 96-239 96-550c0-303 147-552 427-552 132 0 235 47 309 140l9-120h169V-26c4 277-183 454-459 452-165-1-334-81-400-187l96-111c79 98 176 147 291 147 180 1 288-109 286-290v-93C750-23 649 20 521 20zm48-965c-209 0-287 178-287 416 0 217 86 392 285 392 117 0 202-53 257-159v-494c-57-103-142-155-255-155" id="aK"/><g id="z"><use transform="matrix(0.009765624999999986,0,0,0.009765624999999986,0,0)" xlink:href="#aE"/><use transform="matrix(0.009765624999999986,0,0,0.009765624999999986,6.533203124999991,0)" xlink:href="#aJ"/><use transform="matrix(0.009765624999999986,0,0,0.009765624999999986,16.24999999999998,0)" xlink:href="#aK"/></g><path fill="#5e5e5e" d="M538-131c121 0 232-49 232-156 0-50-20-88-56-117-73-60-334-92-420-143-92-55-162-110-162-238 0-190 192-317 400-317 223 0 414 129 413 338H759c0-108-110-186-227-186-119 0-215 53-215 159 0 45 18 78 53 101 76 52 331 90 416 139 98 57 169 115 169 251C955-92 760 20 538 20c-176 0-314-68-386-174-38-55-57-115-57-179h185c6 129 116 202 258 202" id="aL"/><path fill="#5e5e5e" d="M277-555c0 244 77 420 297 424 127 2 249-93 255-210h175C980-127 805 20 574 20 258 20 81-222 92-562c11-319 164-533 481-540 237-5 426 165 431 392H829c-7-133-115-242-256-240-209 4-296 166-296 395" id="aM"/><g id="A"><use transform="matrix(0.009765624999999986,0,0,0.009765624999999986,0,0)" xlink:href="#aL"/><use transform="matrix(0.009765624999999986,0,0,0.009765624999999986,10.312499999999986,0)" xlink:href="#aI"/><use transform="matrix(0.009765624999999986,0,0,0.009765624999999986,19.77539062499997,0)" xlink:href="#aG"/><use transform="matrix(0.009765624999999986,0,0,0.009765624999999986,30.810546874999957,0)" xlink:href="#aM"/></g><path fill="#5e5e5e" d="M313-157h833V0H86v-144l798-1154H99v-158h1015v141" id="aN"/><path fill="#5e5e5e" d="M375 0H183v-1456h192V0" id="aO"/><path fill="#5e5e5e" d="M362-157h690V0H169v-1456h193v1299" id="aP"/><path fill="#5e5e5e" d="M525-543H37v-151h488v151" id="aQ"/><path fill="#5e5e5e" d="M483-459l28 192 41-173 288-1016h162l281 1016 40 176 31-196 226-996h193L1420 0h-175L945-1061l-23-111-23 111L588 0H413L61-1456h192" id="aR"/><path fill="#5e5e5e" d="M1160-420C1159-145 963 0 674 0H169v-1456h476c294-1 476 112 476 388 0 153-99 253-216 302 146 38 255 167 255 346zM678-157c171 2 289-95 289-261 0-175-95-263-286-263H361v524h317zm250-912c-2-172-104-229-283-229H361v463h290c157 3 278-84 277-234" id="aS"/><g id="B"><use transform="matrix(0.009765624999999986,0,0,0.009765624999999986,0,0)" xlink:href="#aN"/><use transform="matrix(0.009765624999999986,0,0,0.009765624999999986,11.972656249999982,0)" xlink:href="#aO"/><use transform="matrix(0.009765624999999986,0,0,0.009765624999999986,17.412109374999975,0)" xlink:href="#aP"/><use transform="matrix(0.009765624999999986,0,0,0.009765624999999986,28.173828124999954,0)" xlink:href="#aQ"/><use transform="matrix(0.009765624999999986,0,0,0.009765624999999986,33.69140624999995,0)" xlink:href="#aP"/><use transform="matrix(0.009765624999999986,0,0,0.009765624999999986,43.056640624999936,0)" xlink:href="#aR"/><use transform="matrix(0.009765624999999986,0,0,0.009765624999999986,60.800781249999915,0)" xlink:href="#aS"/></g><path fill="#5e5e5e" d="M584 20C278 26 81-227 91-551c10-320 175-545 491-551 308-5 503 247 494 573-9 322-175 543-492 549zm-2-970c-208 0-305 185-305 421 0 216 106 398 307 398 211 0 307-186 307-420 0-214-109-399-309-399" id="aT"/><path fill="#5e5e5e" d="M561-1102c238-4 403 126 403 351v498c0 99 13 178 38 237V0H808c-11-21-19-59-26-114C696-25 593 20 474 20c-199 0-368-130-365-320 4-251 214-359 490-356h180v-85c-1-135-86-212-229-212-115 0-232 67-233 171H131c20-205 206-316 430-320zM294-326c0 117 90 185 207 185 122 0 239-75 278-162v-222H634c-227 0-340 66-340 199" id="aU"/><path fill="#5e5e5e" d="M341 0H156v-1536h185V0" id="aV"/><g id="C"><use transform="matrix(0.009765624999999986,0,0,0.009765624999999986,0,0)" xlink:href="#aP"/><use transform="matrix(0.009765624999999986,0,0,0.009765624999999986,10.761718749999984,0)" xlink:href="#aT"/><use transform="matrix(0.009765624999999986,0,0,0.009765624999999986,22.167968749999968,0)" xlink:href="#aK"/><use transform="matrix(0.009765624999999986,0,0,0.009765624999999986,33.38867187499995,0)" xlink:href="#aD"/><use transform="matrix(0.009765624999999986,0,0,0.009765624999999986,38.24218749999994,0)" xlink:href="#aM"/><use transform="matrix(0.009765624999999986,0,0,0.009765624999999986,48.71093749999993,0)" xlink:href="#aU"/><use transform="matrix(0.009765624999999986,0,0,0.009765624999999986,59.589843749999915,0)" xlink:href="#aV"/></g><path fill="#5e5e5e" d="M491 20c-241-1-355-148-355-398v-704h185v699c0 164 67 246 200 246 141 0 235-53 282-158v-787h185V0H812l-4-107C736-22 630 20 491 20" id="aW"/><g id="D"><use transform="matrix(0.009765624999999986,0,0,0.009765624999999986,0,0)" xlink:href="#aL"/><use transform="matrix(0.009765624999999986,0,0,0.009765624999999986,10.312499999999986,0)" xlink:href="#aE"/><use transform="matrix(0.009765624999999986,0,0,0.009765624999999986,16.84570312499998,0)" xlink:href="#aC"/><use transform="matrix(0.009765624999999986,0,0,0.009765624999999986,23.613281249999968,0)" xlink:href="#aW"/><use transform="matrix(0.009765624999999986,0,0,0.009765624999999986,34.63867187499995,0)" xlink:href="#aM"/><use transform="matrix(0.009765624999999986,0,0,0.009765624999999986,45.107421874999936,0)" xlink:href="#aE"/><use transform="matrix(0.009765624999999986,0,0,0.009765624999999986,51.64062499999993,0)" xlink:href="#aW"/><use transform="matrix(0.009765624999999986,0,0,0.009765624999999986,62.66601562499991,0)" xlink:href="#aC"/><use transform="matrix(0.009765624999999986,0,0,0.009765624999999986,69.2480468749999,0)" xlink:href="#aF"/></g><path fill="#5e5e5e" d="M973-380H363L226 0H28l556-1456h168L1309 0h-197zM421-538h495l-248-681" id="aX"/><g id="E"><use transform="matrix(0.009765624999999986,0,0,0.009765624999999986,0,0)" xlink:href="#aX"/><use transform="matrix(0.009765624999999986,0,0,0.009765624999999986,13.046874999999982,0)" xlink:href="#aV"/><use transform="matrix(0.009765624999999986,0,0,0.009765624999999986,17.900390624999975,0)" xlink:href="#aV"/><use transform="matrix(0.009765624999999986,0,0,0.009765624999999986,22.753906249999968,0)" xlink:href="#aT"/><use transform="matrix(0.009765624999999986,0,0,0.009765624999999986,34.16015624999995,0)" xlink:href="#aM"/><use transform="matrix(0.009765624999999986,0,0,0.009765624999999986,44.628906249999936,0)" xlink:href="#aU"/><use transform="matrix(0.009765624999999986,0,0,0.009765624999999986,55.50781249999992,0)" xlink:href="#aE"/><use transform="matrix(0.009765624999999986,0,0,0.009765624999999986,62.041015624999915,0)" xlink:href="#aD"/><use transform="matrix(0.009765624999999986,0,0,0.009765624999999986,66.89453124999991,0)" xlink:href="#aT"/><use transform="matrix(0.009765624999999986,0,0,0.009765624999999986,78.3007812499999,0)" xlink:href="#aG"/></g><g id="F"><use transform="matrix(0.009765624999999986,0,0,0.009765624999999986,0,0)" xlink:href="#aM"/><use transform="matrix(0.009765624999999986,0,0,0.009765624999999986,10.468749999999986,0)" xlink:href="#aV"/><use transform="matrix(0.009765624999999986,0,0,0.009765624999999986,15.322265624999979,0)" xlink:href="#aU"/><use transform="matrix(0.009765624999999986,0,0,0.009765624999999986,26.201171874999964,0)" xlink:href="#aL"/><use transform="matrix(0.009765624999999986,0,0,0.009765624999999986,36.51367187499995,0)" xlink:href="#aL"/></g><path fill="#5e5e5e" d="M651-255l416-1201h210L737 0H567L28-1456h209" id="aY"/><path fill="#5e5e5e" d="M1222-777c17 480-206 763-650 777H169v-1456h411c408 9 627 269 642 679zm-190 4c3-312-149-522-447-525H361v1141h202c308 0 473-209 469-531v-85" id="aZ"/><path fill="#5e5e5e" d="M992-673H361v516h733V0H169v-1456h915v158H361v468h631v157" id="ba"/><g id="G"><use transform="matrix(0.009765624999999986,0,0,0.009765624999999986,0,0)" xlink:href="#aY"/><use transform="matrix(0.009765624999999986,0,0,0.009765624999999986,12.724609374999982,0)" xlink:href="#aZ"/><use transform="matrix(0.009765624999999986,0,0,0.009765624999999986,25.839843749999964,0)" xlink:href="#ba"/><use transform="matrix(0.009765624999999986,0,0,0.009765624999999986,37.20703124999995,0)" xlink:href="#aY"/><use transform="matrix(0.009765624999999986,0,0,0.009765624999999986,49.93164062499993,0)" xlink:href="#aL"/></g><path fill="#333" d="M589-945c-131 0-219 81-264 174V0H140v-1082h175l6 136c83-104 191-156 324-156 229 0 346 129 346 387V0H806v-716c-2-153-65-229-217-229" id="bb"/><path fill="#333" d="M1240-945c-141 0-250 95-250 227V0H804v-709c0-157-77-236-231-236-121 0-204 52-249 155V0H139v-1082h175l5 120c79-93 186-140 321-140 151 0 254 58 309 174 69-98 181-174 345-174 237 0 362 126 362 377V0h-185v-714c-2-159-67-231-231-231" id="bc"/><g id="H"><use transform="matrix(0.009765624999999986,0,0,0.009765624999999986,0,0)" xlink:href="#bb"/><use transform="matrix(0.009765624999999986,0,0,0.009765624999999986,11.035156249999984,0)" xlink:href="#W"/><use transform="matrix(0.009765624999999986,0,0,0.009765624999999986,22.441406249999968,0)" xlink:href="#ao"/><use transform="matrix(0.009765624999999986,0,0,0.009765624999999986,29.208984374999957,0)" xlink:href="#bc"/><use transform="matrix(0.009765624999999986,0,0,0.009765624999999986,46.73828124999992,0)" xlink:href="#Z"/><use transform="matrix(0.009765624999999986,0,0,0.009765624999999986,57.617187499999915,0)" xlink:href="#X"/></g><path fill="#333" d="M521 20C240 20 96-239 96-550c0-303 147-552 427-552 132 0 235 47 309 140l9-120h169V-26c4 277-183 454-459 452-165-1-334-81-400-187l96-111c79 98 176 147 291 147 180 1 288-109 286-290v-93C750-23 649 20 521 20zm48-965c-209 0-287 178-287 416 0 217 86 392 285 392 117 0 202-53 257-159v-494c-57-103-142-155-255-155" id="bd"/><g id="I"><use transform="matrix(0.009765624999999986,0,0,0.009765624999999986,0,0)" xlink:href="#X"/><use transform="matrix(0.009765624999999986,0,0,0.009765624999999986,4.853515624999993,0)" xlink:href="#W"/><use transform="matrix(0.009765624999999986,0,0,0.009765624999999986,16.25976562499998,0)" xlink:href="#bd"/></g><path fill="#333" d="M341 0H156v-1082h185V0zm-91-1264c-68 0-108-42-109-105 0-62 41-107 109-107s110 44 110 107-42 105-110 105" id="be"/><g id="J"><use transform="matrix(0.009765624999999986,0,0,0.009765624999999986,0,0)" xlink:href="#ao"/><use transform="matrix(0.009765624999999986,0,0,0.009765624999999986,6.376953124999991,0)" xlink:href="#Z"/><use transform="matrix(0.009765624999999986,0,0,0.009765624999999986,17.255859374999975,0)" xlink:href="#be"/><use transform="matrix(0.009765624999999986,0,0,0.009765624999999986,22.109374999999968,0)" xlink:href="#Y"/><use transform="matrix(0.009765624999999986,0,0,0.009765624999999986,33.38867187499995,0)" xlink:href="#U"/></g><path fill="#333" d="M442-501L326-380V0H141v-1536h185v929c135-169 291-317 436-475h225L566-630 1036 0H819" id="bf"/><g id="K"><use transform="matrix(0.009765624999999986,0,0,0.009765624999999986,0,0)" xlink:href="#Y"/><use transform="matrix(0.009765624999999986,0,0,0.009765624999999986,11.279296874999984,0)" xlink:href="#be"/><use transform="matrix(0.009765624999999986,0,0,0.009765624999999986,16.13281249999998,0)" xlink:href="#ab"/><use transform="matrix(0.009765624999999986,0,0,0.009765624999999986,26.44531249999996,0)" xlink:href="#bf"/></g><path fill="#333" d="M704-1390c-164-38-297 28-288 194v114h231v143H416V0H231v-939H60v-143h171v-111c-12-274 208-416 483-347" id="bg"/><g id="L"><use transform="matrix(0.009765624999999986,0,0,0.009765624999999986,0,0)" xlink:href="#bg"/><use transform="matrix(0.009765624999999986,0,0,0.009765624999999986,6.94335937499999,0)" xlink:href="#Z"/><use transform="matrix(0.009765624999999986,0,0,0.009765624999999986,17.822265624999975,0)" xlink:href="#ab"/><use transform="matrix(0.009765624999999986,0,0,0.009765624999999986,28.13476562499996,0)" xlink:href="#aa"/></g><path fill="#333" d="M319-664C304-226 428 158 661 357l-38 113c-89-49-172-133-254-248C142-97 71-578 194-1025c67-244 240-513 429-618l38 122c-201 153-330 502-342 857" id="bh"/><path fill="#333" d="M38 357C331 141 457-487 337-984c-53-219-157-429-299-546l39-113c190 106 362 378 431 621 75 268 76 597 0 868C440 88 266 365 77 470" id="bi"/><g id="M"><use transform="matrix(0.009765624999999986,0,0,0.009765624999999986,0,0)" xlink:href="#Y"/><use transform="matrix(0.009765624999999986,0,0,0.009765624999999986,11.279296874999984,0)" xlink:href="#be"/><use transform="matrix(0.009765624999999986,0,0,0.009765624999999986,16.13281249999998,0)" xlink:href="#ab"/><use transform="matrix(0.009765624999999986,0,0,0.009765624999999986,26.44531249999996,0)" xlink:href="#bf"/><use transform="matrix(0.009765624999999986,0,0,0.009765624999999986,36.58203124999995,0)" xlink:href="#bh"/><use transform="matrix(0.009765624999999986,0,0,0.009765624999999986,43.41796874999995,0)" xlink:href="#ab"/><use transform="matrix(0.009765624999999986,0,0,0.009765624999999986,53.730468749999936,0)" xlink:href="#bi"/></g><g id="N"><use transform="matrix(0.009765624999999986,0,0,0.009765624999999986,0,0)" xlink:href="#W"/><use transform="matrix(0.009765624999999986,0,0,0.009765624999999986,11.406249999999984,0)" xlink:href="#ao"/></g><g id="O"><use transform="matrix(0.009765624999999986,0,0,0.009765624999999986,0,0)" xlink:href="#bc"/><use transform="matrix(0.009765624999999986,0,0,0.009765624999999986,17.529296874999975,0)" xlink:href="#be"/><use transform="matrix(0.009765624999999986,0,0,0.009765624999999986,22.382812499999968,0)" xlink:href="#ao"/><use transform="matrix(0.009765624999999986,0,0,0.009765624999999986,29.150390624999957,0)" xlink:href="#ao"/><use transform="matrix(0.009765624999999986,0,0,0.009765624999999986,35.72265624999995,0)" xlink:href="#W"/><use transform="matrix(0.009765624999999986,0,0,0.009765624999999986,47.128906249999936,0)" xlink:href="#ao"/></g><path fill="#333" d="M483-459l28 192 41-173 288-1016h162l281 1016 40 176 31-196 226-996h193L1420 0h-175L945-1061l-23-111-23 111L588 0H413L61-1456h192" id="bj"/><path fill="#333" d="M1160-420C1159-145 963 0 674 0H169v-1456h476c294-1 476 112 476 388 0 153-99 253-216 302 146 38 255 167 255 346zM678-157c171 2 289-95 289-261 0-175-95-263-286-263H361v524h317zm250-912c-2-172-104-229-283-229H361v463h290c157 3 278-84 277-234" id="bk"/><g id="P"><use transform="matrix(0.007595486111111095,0,0,0.007595486111111095,0,0)" xlink:href="#am"/><use transform="matrix(0.007595486111111095,0,0,0.007595486111111095,7.28407118055554,0)" xlink:href="#bj"/><use transform="matrix(0.007595486111111095,0,0,0.007595486111111095,21.0850694444444,0)" xlink:href="#bk"/></g><path fill="#333" d="M765-410H501L421 0H278l80-410H119v-137h265l69-354H195v-139h285l82-416h143l-82 416h264l82-416h144l-82 416h204v139h-231l-69 354h225v137H909L829 0H685zM527-547h264l69-354H596" id="bl"/><g id="Q"><use transform="matrix(0.007595486111111095,0,0,0.007595486111111095,0,0)" xlink:href="#bl"/><use transform="matrix(0.007595486111111095,0,0,0.007595486111111095,9.577907986111091,0)" xlink:href="#ar"/></g><g id="R"><use transform="matrix(0.007595486111111095,0,0,0.007595486111111095,0,0)" xlink:href="#bl"/><use transform="matrix(0.007595486111111095,0,0,0.007595486111111095,9.577907986111091,0)" xlink:href="#as"/></g><path fill="#333" d="M1098-255l208-827h185L1176 0h-150L763-820 507 0H357L43-1082h184l213 810 252-810h149" id="bm"/><g id="S"><use transform="matrix(0.007595486111111095,0,0,0.007595486111111095,0,0)" xlink:href="#bm"/><use transform="matrix(0.007595486111111095,0,0,0.007595486111111095,11.689453124999975,0)" xlink:href="#Z"/><use transform="matrix(0.007595486111111095,0,0,0.007595486111111095,20.150824652777736,0)" xlink:href="#ab"/><use transform="matrix(0.007595486111111095,0,0,0.007595486111111095,28.17165798611105,0)" xlink:href="#aa"/><use transform="matrix(0.007595486111111095,0,0,0.007595486111111095,33.25303819444437,0)" xlink:href="#ac"/><use transform="matrix(0.007595486111111095,0,0,0.007595486111111095,41.494140624999915,0)" xlink:href="#Y"/></g><g id="T"><use transform="matrix(0.007595486111111095,0,0,0.007595486111111095,0,0)" xlink:href="#ab"/><use transform="matrix(0.007595486111111095,0,0,0.007595486111111095,8.020833333333316,0)" xlink:href="#V"/><use transform="matrix(0.007595486111111095,0,0,0.007595486111111095,16.748046874999964,0)" xlink:href="#Z"/><use transform="matrix(0.007595486111111095,0,0,0.007595486111111095,25.209418402777725,0)" xlink:href="#aj"/><use transform="matrix(0.007595486111111095,0,0,0.007595486111111095,33.35177951388882,0)" xlink:href="#ac"/></g></defs></g></svg>