<svg xmlns="http://www.w3.org/2000/svg" xmlns:xlink="http://www.w3.org/1999/xlink" xmlns:lucid="lucid" width="820" height="420.12"><g transform="translate(-200 -9080)" lucid:page-tab-id="IVeFHl0rHzA4"><path d="M220 9209c0-3.3 2.7-6 6-6h107.65c3.3 0 6 2.7 6 6v65c0 3.3-2.7 6-6 6H226c-3.3 0-6-2.7-6-6z" stroke="#000" stroke-width="2" fill="#fff" fill-opacity="0"/><use xlink:href="#a" transform="matrix(1,0,0,1,228,9211.00250618176) translate(5.617621527777828 22.677951388888864)"/><use xlink:href="#b" transform="matrix(1,0,0,1,228,9211.00250618176) translate(44.87434895833334 22.677951388888864)"/><use xlink:href="#c" transform="matrix(1,0,0,1,228,9211.00250618176) translate(2.144314236111164 51.32378472222217)"/><use xlink:href="#d" transform="matrix(1,0,0,1,228,9211.00250618176) translate(74.20052083333331 51.32378472222217)"/><path d="M418.05 9137.15c0-3.3 2.7-6 6-6h187.23c3.3 0 6 2.7 6 6v36.7c0 3.3-2.7 6-6 6H424.05c-3.3 0-6-2.7-6-6z" fill="#ffeca9"/><path d="M422.56 9131.56l1.5-.4H426m7.8 0h3.9m7.8 0h3.9m7.8 0h3.9m7.8 0h3.9m7.8 0h3.9m7.8 0h3.9m7.8 0h3.92m7.8 0h3.9m7.8 0h3.9m7.8 0h3.9m7.8 0h3.9m7.8 0h3.9m7.8 0h3.9m7.8 0h3.9m7.8 0h3.9m7.8 0h1.96l1.5.4m4.1 4.1l.4 1.5v2.03m0 8.15v4.07m0 8.16v4.07m0 8.16v2.05l-.4 1.5m-4.1 4.1l-1.5.4h-1.95m-7.8 0h-3.9m-7.8 0h-3.9m-7.8 0h-3.9m-7.8 0h-3.9m-7.8 0h-3.9m-7.8 0h-3.9m-7.8 0h-3.9m-7.8 0h-3.9m-7.8 0H504m-7.8 0h-3.9m-7.8 0h-3.9m-7.8 0h-3.9m-7.8 0h-3.9m-7.8 0h-3.9m-7.8 0h-3.9m-7.8 0h-1.95l-1.5-.4m-4.1-4.1l-.4-1.5v-2.04m0-8.15v-4.07m0-8.16v-4.07m0-8.16v-2.05l.4-1.5" stroke="#000" stroke-width="2" fill="none"/><use xlink:href="#e" transform="matrix(1,0,0,1,423.0549296558605,9136.154590878754) translate(63.12554253472226 27.552951388888864)"/><path d="M418.05 9223.03c0-3.32 2.7-6 6-6h187.23c3.3 0 6 2.68 6 6v36.7c0 3.3-2.7 6-6 6H424.05c-3.3 0-6-2.7-6-6z" stroke="#000" stroke-width="2" fill="#c1e4f7"/><use xlink:href="#f" transform="matrix(1,0,0,1,423.0549296558605,9222.026729789566) translate(23.821072048611185 27.552951388888864)"/><path d="M418.05 9308.9c0-3.3 2.7-6 6-6h187.23c3.3 0 6 2.7 6 6v36.7c0 3.3-2.7 6-6 6H424.05c-3.3 0-6-2.7-6-6z" stroke="#000" stroke-width="2" fill="#fff" fill-opacity="0"/><use xlink:href="#g" transform="matrix(1,0,0,1,423.0549296558605,9307.89886870038) translate(35.74490017361118 27.552951388888864)"/><path d="M760 9106c0-3.3 2.7-6 6-6h228c3.3 0 6 2.7 6 6v39.52c0 3.32-2.7 6-6 6H766c-3.3 0-6-2.68-6-6z" stroke="#000" stroke-width="2" fill="#c1e4f7"/><use xlink:href="#h" transform="matrix(1,0,0,1,765,9105) translate(37.82931857638897 30.552951388888864)"/><use xlink:href="#i" transform="matrix(1,0,0,1,765,9105) translate(70.16330295138894 30.552951388888864)"/><use xlink:href="#j" transform="matrix(1,0,0,1,765,9105) translate(159.71733940972217 30.552951388888864)"/><path d="M760 9171.87c0-3.3 2.7-6 6-6h228c3.3 0 6 2.7 6 6v56.7c0 3.3-2.7 6-6 6H766c-3.3 0-6-2.7-6-6z" stroke="#000" stroke-width="2" fill="#99d5ca"/><use xlink:href="#k" transform="matrix(1,0,0,1,765,9170.872138910812) translate(35.131835937500085 22.677951388888864)"/><use xlink:href="#l" transform="matrix(1,0,0,1,765,9170.872138910812) translate(86.76595052083336 22.677951388888864)"/><use xlink:href="#m" transform="matrix(1,0,0,1,765,9170.872138910812) translate(123.5161675347222 22.677951388888864)"/><use xlink:href="#n" transform="matrix(1,0,0,1,765,9170.872138910812) translate(16.679144965277885 51.32378472222217)"/><use xlink:href="#o" transform="matrix(1,0,0,1,765,9170.872138910812) translate(71.08235677083337 51.32378472222217)"/><use xlink:href="#p" transform="matrix(1,0,0,1,765,9170.872138910812) translate(115.22081163194443 51.32378472222217)"/><path d="M760 9254.92c0-3.32 2.7-6 6-6h228c3.3 0 6 2.68 6 6v56.7c0 3.3-2.7 6-6 6H766c-3.3 0-6-2.7-6-6z" stroke="#000" stroke-width="2" fill="#99d5ca"/><use xlink:href="#k" transform="matrix(1,0,0,1,765,9253.918705603788) translate(1.7594401041667993 22.677951388888864)"/><use xlink:href="#l" transform="matrix(1,0,0,1,765,9253.918705603788) translate(53.39355468750007 22.677951388888864)"/><use xlink:href="#q" transform="matrix(1,0,0,1,765,9253.918705603788) translate(90.14377170138891 22.677951388888864)"/><use xlink:href="#r" transform="matrix(1,0,0,1,765,9253.918705603788) translate(144.5469835069444 22.677951388888864)"/><use xlink:href="#s" transform="matrix(1,0,0,1,765,9253.918705603788) translate(34.91102430555564 51.32378472222217)"/><path d="M760 9337.97c0-3.32 2.7-6 6-6h228c3.3 0 6 2.68 6 6V9374c0 3.3-2.7 6-6 6H766c-3.3 0-6-2.7-6-6z" fill="#99d5ca"/><path d="M764.5 9332.37l1.5-.4h2m8 0h4m8 0h4m8 0h4m8 0h4m8 0h4m8 0h4m8 0h4m8 0h4m8 0h4m8 0h4m8 0h4m8 0h4m8 0h4m8 0h4m8 0h4m8 0h4m8 0h4m8 0h4m8 0h2l1.5.4m4.1 4.1l.4 1.5v2m0 8v4m0 8.02v4m0 8v2l-.4 1.5m-4.1 4.1l-1.5.4h-2m-8 0h-4m-8 0h-4m-8 0h-4m-8 0h-4m-8 0h-4m-8 0h-4m-8 0h-4m-8 0h-4m-8 0h-4m-8 0h-4m-8 0h-4m-8 0h-4m-8 0h-4m-8 0h-4m-8 0h-4m-8 0h-4m-8 0h-4m-8 0h-4m-8 0h-2l-1.5-.4m-4.1-4.1l-.4-1.5v-2m0-8v-4m0-8.02v-4m0-8v-2l.4-1.5" stroke="#000" stroke-width="2" fill="none"/><use xlink:href="#t" transform="matrix(1,0,0,1,765,9336.965272296766) translate(6.384548611111228 27.552951388888864)"/><use xlink:href="#q" transform="matrix(1,0,0,1,765,9336.965272296766) translate(69.04730902777783 27.552951388888864)"/><use xlink:href="#u" transform="matrix(1,0,0,1,765,9336.965272296766) translate(123.45052083333331 27.552951388888864)"/><path d="M341.65 9241.47h.45l1.38-.13 1.34-.2 1.3-.27 1.27-.34 1.25-.4 1.26-.5 1.28-.6 1.28-.7 1.3-.8 1.36-.95 1.4-1.1 1.5-1.33 1.57-1.6 1.7-1.92 1.92-2.4 2.18-3.13 2.63-4.27 3.53-6.58 18.12-38.08 2.62-4.26 2.2-3.1 1.9-2.43 1.7-1.93 1.6-1.6 1.48-1.3 1.4-1.12 1.36-.95 1.3-.8 1.3-.7 1.25-.58 1.25-.5 1.26-.43 1.3-.34 1.3-.27 1.33-.2 1.38-.12h.46" stroke="#202124" stroke-width="2" fill="none"/><path d="M341.7 9242.47l-1.05.03v-2l1-.03zM417.05 9156.5h-1.02v-2h1.02z" fill="#202124"/><path d="M341.65 9241.5l74.4-.13" stroke="#202124" stroke-width="2" fill="none"/><path d="M341.68 9242.5h-1.03v-2h1.03zM417.05 9242.37h-1.02v-2h1.02z" fill="#202124"/><path d="M341.65 9241.53h.46l1.4.14 1.34.2 1.3.26 1.3.35 1.26.42 1.26.5 1.27.6 1.3.7 1.3.8 1.37.96 1.4 1.13 1.5 1.32 1.6 1.6 1.74 1.97 1.93 2.45 2.2 3.18 2.68 4.37 3.66 6.87 17.55 36.87 2.68 4.38 2.2 3.18 1.94 2.46 1.73 1.96 1.6 1.6 1.5 1.34 1.4 1.12 1.37.96 1.3.8 1.3.7 1.27.6 1.27.5 1.28.43 1.28.34 1.3.28 1.35.2 1.4.12.46.02" stroke="#202124" stroke-width="2" fill="none"/><path d="M341.7 9240.53l-.05 2-1-.03v-2zM417.05 9326.24v2h-1.02v-2z" fill="#202124"/><path d="M619.28 9327.22h.52l1.5-.1 1.44-.15 1.43-.2 1.4-.28 1.4-.34 1.4-.4 1.38-.44 1.4-.52 1.38-.58 1.42-.67 1.43-.74 1.45-.84 1.5-.94 1.52-1.06 1.58-1.2 1.63-1.36 1.7-1.53 1.8-1.75 1.88-2.02 2-2.32 2.16-2.72 2.32-3.2 2.55-3.84 2.84-4.7 3.24-5.88 3.8-7.68 4.77-10.74 7.1-18.03 25.97-71 4.77-10.75 3.8-7.68 3.23-5.9 2.84-4.68 2.56-3.85 2.32-3.2 2.15-2.72 2-2.33 1.9-2 1.78-1.76 1.72-1.54 1.63-1.35 1.58-1.2 1.53-1.06 1.5-.96 1.44-.84 1.43-.75 1.4-.66 1.4-.6 1.4-.5 1.38-.46 1.4-.4 1.4-.32 1.4-.27 1.44-.2 1.45-.16 1.48-.1.52-.02" stroke="#202124" stroke-width="2" fill="none"/><path d="M619.33 9328.22l-1.05.03v-2l1-.03zM759 9126.76h-1.03v-2H759z" fill="#202124"/><path d="M619.28 9327.22l1.4-.02 2.3-.15 2.2-.23 2.15-.32 2.1-.4 2.03-.48 2-.56 1.98-.64 1.96-.73 1.95-.83 1.95-.9 1.96-1.04 1.98-1.14 2-1.3 2.06-1.4 2.1-1.62 2.2-1.8 2.27-2.06 2.4-2.35 2.57-2.73 2.78-3.22 3.08-3.9 3.54-4.88 4.34-6.55 6.42-10.67 21.7-37.85 4.34-6.56 3.54-4.88 3.08-3.9 2.78-3.2 2.56-2.74 2.4-2.36 2.28-2.05 2.2-1.82 2.1-1.6 2.05-1.43 2-1.27 2-1.15 1.94-1.02 1.95-.9 1.95-.83 1.96-.73 1.98-.64 2.02-.56 2.04-.48 2.08-.4 2.15-.3 2.2-.24 2.3-.15 1.4-.03" stroke="#202124" stroke-width="2" fill="none"/><path d="M619.33 9328.22l-1.05.03v-2l1-.03zM759 9201.22h-1.03v-2H759z" fill="#202124"/><path d="M619.28 9327.22l5.64-.1 5.9-.38 5.32-.56 4.87-.72 4.53-.86 4.26-1 4.06-1.13 3.97-1.3 3.94-1.46 4.03-1.68 4.3-2.02 4.9-2.57 6.98-4.06 20.3-12.28 4.9-2.6 4.3-2 4.02-1.7 3.95-1.47 3.96-1.28 4.1-1.14 4.25-1 4.52-.85 4.87-.72 5.32-.56 5.9-.37 5.64-.1" stroke="#202124" stroke-width="2" fill="none"/><path d="M619.33 9328.22l-1.05.03v-2l1-.03zM759 9284.27h-1.03v-2H759z" fill="#202124"/><path d="M619.28 9327.27l8.84.17 8.27.52 7.17.75 6.4.96 5.92 1.12 5.63 1.32 5.65 1.6 6.18 2 8.67 3.24 21.9 8.6 6.16 2 5.65 1.58 5.64 1.33 5.9 1.12 6.4.95 7.18.75 8.28.5 8.84.2" stroke="#202124" stroke-width="2" fill="none"/><path d="M619.33 9326.27l-.05 2-1-.02v-2zM759 9354.98v2h-1.03v-2z" fill="#202124"/><path d="M280 9426.57c0-3.3 2.7-6 6-6h88c3.3 0 6 2.7 6 6v35.97c0 3.32-2.7 6-6 6h-88c-3.3 0-6-2.68-6-6z" stroke="#000" stroke-width="2" fill="#ffeca9"/><g><use xlink:href="#v" transform="matrix(1,0,0,1,283,9423.574593596146) translate(23.818576388888943 26.993055555555518)"/></g><path d="M412 9426.57c0-3.3 2.7-6 6-6h88c3.3 0 6 2.7 6 6v35.97c0 3.32-2.7 6-6 6h-88c-3.3 0-6-2.68-6-6z" stroke="#000" stroke-width="2" fill="#c1e4f7"/><g><use xlink:href="#w" transform="matrix(1,0,0,1,415,9423.574593596146) translate(33.83159722222226 26.993055555555518)"/></g><path d="M544 9426.57c0-3.3 2.7-6 6-6h88c3.3 0 6 2.7 6 6v35.97c0 3.32-2.7 6-6 6h-88c-3.3 0-6-2.68-6-6z" stroke="#000" stroke-width="2" fill="#99d5ca"/><g><use xlink:href="#x" transform="matrix(1,0,0,1,547,9423.574593596146) translate(14.443576388888964 16.493055555555518)"/><use xlink:href="#y" transform="matrix(1,0,0,1,547,9423.574593596146) translate(30.663194444444482 37.3263888888888)"/></g><path d="M708 9426.57c0-3.3 2.7-6 6-6h88c3.3 0 6 2.7 6 6v35.97c0 3.32-2.7 6-6 6h-88c-3.3 0-6-2.68-6-6z" stroke="#000" stroke-width="2" fill="#fff" fill-opacity="0"/><g><use xlink:href="#z" transform="matrix(1,0,0,1,711.0000000000001,9423.574593596146) translate(7.5338541666667425 26.993055555555525)"/></g><path d="M840 9426.57c0-3.3 2.7-6 6-6h88c3.3 0 6 2.7 6 6v35.97c0 3.32-2.7 6-6 6h-88c-3.3 0-6-2.68-6-6z" fill="#fff" fill-opacity="0"/><path d="M844.5 9420.98l1.5-.4h2.1m8.38 0h4.2m8.37 0h4.2m8.37 0h4.2m8.37 0h4.18m8.38 0h4.2m8.37 0h4.2m8.37 0h2.1l1.5.4m4.1 4.1l.4 1.5v2m0 8v3.98m0 8v4m0 7.98v2l-.4 1.5m-4.1 4.1l-1.5.4h-2.1m-8.38 0h-4.2m-8.37 0h-4.2m-8.37 0h-4.2m-8.37 0h-4.18m-8.38 0h-4.2m-8.37 0h-4.2m-8.37 0H846l-1.5-.4m-4.1-4.1l-.4-1.5v-2m0-8v-4m0-7.98v-4m0-8v-2l.4-1.48" stroke="#000" stroke-width="2" fill="none"/><g><use xlink:href="#A" transform="matrix(1,0,0,1,843,9423.574593596146) translate(18.14149305555561 26.993055555555525)"/></g><path d="M677 9401c0 .55-.45 1-1 1s-1-.45-1-1 .45-1 1-1 1 .45 1 1zm0 3.96c0 .55-.45 1-1 1s-1-.45-1-1 .45-1 1-1 1 .45 1 1zm0 3.96c0 .55-.45 1-1 1s-1-.45-1-1 .45-1 1-1 1 .45 1 1zm0 3.96c0 .55-.45 1-1 1s-1-.45-1-1 .45-1 1-1 1 .45 1 1zm0 3.96c0 .55-.45 1-1 1s-1-.45-1-1 .45-1 1-1 1 .45 1 1zm0 3.96c0 .55-.45 1-1 1s-1-.45-1-1 .45-1 1-1 1 .45 1 1zm0 3.96c0 .55-.45 1-1 1s-1-.45-1-1 .45-1 1-1 1 .45 1 1zm0 3.96c0 .55-.45 1-1 1s-1-.45-1-1 .45-1 1-1 1 .45 1 1zm0 3.96c0 .55-.45 1-1 1s-1-.45-1-1 .45-1 1-1 1 .45 1 1zm0 3.96c0 .55-.45 1-1 1s-1-.45-1-1 .45-1 1-1 1 .45 1 1zm0 3.96c0 .55-.45 1-1 1s-1-.45-1-1 .45-1 1-1 1 .45 1 1zm0 3.96c0 .55-.45 1-1 1s-1-.45-1-1 .45-1 1-1 1 .45 1 1zm0 3.96c0 .55-.45 1-1 1s-1-.45-1-1 .45-1 1-1 1 .45 1 1zm0 3.96c0 .55-.45 1-1 1s-1-.45-1-1 .45-1 1-1 1 .45 1 1zm0 3.96c0 .55-.45 1-1 1s-1-.45-1-1 .45-1 1-1 1 .45 1 1zm0 3.96c0 .55-.45 1-1 1s-1-.45-1-1 .45-1 1-1 1 .45 1 1zm0 3.96c0 .55-.45 1-1 1s-1-.45-1-1 .45-1 1-1 1 .45 1 1zm0 3.96c0 .55-.45 1-1 1s-1-.45-1-1 .45-1 1-1 1 .45 1 1zm0 3.96c0 .55-.45 1-1 1s-1-.45-1-1 .45-1 1-1 1 .45 1 1zm0 3.96c0 .55-.45 1-1 1s-1-.45-1-1 .45-1 1-1 1 .45 1 1zm0 3.96c0 .55-.45 1-1 1s-1-.45-1-1 .45-1 1-1 1 .45 1 1zm0 3.96c0 .55-.45 1-1 1s-1-.45-1-1c0-.56.45-1 1-1s1 .44 1 1zm0 3.96c0 .55-.45 1-1 1s-1-.45-1-1c0-.56.45-1 1-1s1 .44 1 1z" fill="#202124"/><path d="M676 9401.03V9400M676 9488.1v1.02" stroke="#202124" stroke-width="2" fill="none"/><defs><path fill="#333" d="M314-151h633V0H88v-136l597-793H97v-153h820v131" id="B"/><path fill="#333" d="M704-1390c-164-38-297 28-288 194v114h231v143H416V0H231v-939H60v-143h171v-111c-12-274 208-416 483-347" id="C"/><path fill="#333" d="M538-131c121 0 232-49 232-156 0-50-20-88-56-117-73-60-334-92-420-143-92-55-162-110-162-238 0-190 192-317 400-317 223 0 414 129 413 338H759c0-108-110-186-227-186-119 0-215 53-215 159 0 45 18 78 53 101 76 52 331 90 416 139 98 57 169 115 169 251C955-92 760 20 538 20c-176 0-314-68-386-174-38-55-57-115-57-179h185c6 129 116 202 258 202" id="D"/><g id="a"><use transform="matrix(0.011935763888888876,0,0,0.011935763888888876,0,0)" xlink:href="#B"/><use transform="matrix(0.011935763888888876,0,0,0.011935763888888876,12.114800347222209,0)" xlink:href="#C"/><use transform="matrix(0.011935763888888876,0,0,0.011935763888888876,20.6011284722222,0)" xlink:href="#D"/></g><path fill="#333" d="M1098-255l208-827h185L1176 0h-150L763-820 507 0H357L43-1082h184l213 810 252-810h149" id="E"/><path fill="#333" d="M663-916c-163-27-288 18-338 148V0H140v-1082h180l3 125c61-97 147-145 258-145 36 0 63 5 82 14v172" id="F"/><path fill="#333" d="M341 0H156v-1082h185V0zm-91-1264c-68 0-108-42-109-105 0-62 41-107 109-107s110 44 110 107-42 105-110 105" id="G"/><path fill="#333" d="M456 20C285 20 205-92 206-268v-671H9v-143h197v-262h185v262h202v143H391v671c-9 125 92 149 207 118V0c-49 13-96 20-142 20" id="H"/><path fill="#333" d="M599-131c141 0 220-65 285-146l113 88C906-50 770 20 589 20 281 21 93-214 93-545c0-223 93-397 233-485 74-48 154-72 240-72 300 2 449 218 445 537v77H278c0 197 129 357 321 357zm227-509c-3-180-88-310-260-310-170 0-264 140-282 310h542" id="I"/><g id="b"><use transform="matrix(0.011935763888888876,0,0,0.011935763888888876,0,0)" xlink:href="#E"/><use transform="matrix(0.011935763888888876,0,0,0.011935763888888876,18.36914062499998,0)" xlink:href="#F"/><use transform="matrix(0.011935763888888876,0,0,0.011935763888888876,26.64062499999997,0)" xlink:href="#G"/><use transform="matrix(0.011935763888888876,0,0,0.011935763888888876,32.57269965277774,0)" xlink:href="#H"/><use transform="matrix(0.011935763888888876,0,0,0.011935763888888876,40.5577256944444,0)" xlink:href="#I"/></g><path fill="#333" d="M497-251l268-831h189L566 0H425L33-1082h189" id="J"/><path fill="#333" d="M589-945c-131 0-219 81-264 174V0H140v-1082h175l6 136c83-104 191-156 324-156 229 0 346 129 346 387V0H806v-716c-2-153-65-229-217-229" id="K"/><path fill="#333" d="M584 20C278 26 81-227 91-551c10-320 175-545 491-551 308-5 503 247 494 573-9 322-175 543-492 549zm-2-970c-208 0-305 185-305 421 0 216 106 398 307 398 211 0 307-186 307-420 0-214-109-399-309-399" id="L"/><path fill="#333" d="M520 20C244 20 95-247 95-550c0-298 151-550 427-552 127 0 227 43 301 130v-564h185V0H838l-9-116C755-25 652 20 520 20zm48-965c-210 0-288 177-288 416 0 218 87 392 286 392 117 0 203-53 257-158v-497c-55-102-140-153-255-153" id="M"/><g id="c"><use transform="matrix(0.011935763888888876,0,0,0.011935763888888876,0,0)" xlink:href="#J"/><use transform="matrix(0.011935763888888876,0,0,0.011935763888888876,11.840277777777764,0)" xlink:href="#K"/><use transform="matrix(0.011935763888888876,0,0,0.011935763888888876,25.327690972222197,0)" xlink:href="#L"/><use transform="matrix(0.011935763888888876,0,0,0.011935763888888876,39.2686631944444,0)" xlink:href="#M"/><use transform="matrix(0.011935763888888876,0,0,0.011935763888888876,53.05447048611105,0)" xlink:href="#I"/></g><path fill="#333" d="M632-1102c291 0 422 251 422 573 0 297-141 548-419 549-131 0-235-42-310-125v521H140v-1498h169l9 120c75-93 180-140 314-140zm-53 971c207 0 290-180 290-419 0-218-92-395-292-395-112 0-196 50-252 149v517c55 99 140 148 254 148" id="N"/><g id="d"><use transform="matrix(0.011935763888888876,0,0,0.011935763888888876,0,0)" xlink:href="#L"/><use transform="matrix(0.011935763888888876,0,0,0.011935763888888876,13.940972222222207,0)" xlink:href="#N"/></g><path fill="#333" d="M561-1102c238-4 403 126 403 351v498c0 99 13 178 38 237V0H808c-11-21-19-59-26-114C696-25 593 20 474 20c-199 0-368-130-365-320 4-251 214-359 490-356h180v-85c-1-135-86-212-229-212-115 0-232 67-233 171H131c20-205 206-316 430-320zM294-326c0 117 90 185 207 185 122 0 239-75 278-162v-222H634c-227 0-340 66-340 199" id="O"/><path fill="#333" d="M494-271l252-811h198L509 167C425 381 299 474 84 421V271c167 16 242-37 283-173l41-110L22-1082h202" id="P"/><path fill="#333" d="M277-555c0 244 77 420 297 424 127 2 249-93 255-210h175C980-127 805 20 574 20 258 20 81-222 92-562c11-319 164-533 481-540 237-5 426 165 431 392H829c-7-133-115-242-256-240-209 4-296 166-296 395" id="Q"/><g id="e"><use transform="matrix(0.011935763888888876,0,0,0.011935763888888876,0,0)" xlink:href="#O"/><use transform="matrix(0.011935763888888876,0,0,0.011935763888888876,13.296440972222207,0)" xlink:href="#D"/><use transform="matrix(0.011935763888888876,0,0,0.011935763888888876,25.90060763888886,0)" xlink:href="#P"/><use transform="matrix(0.011935763888888876,0,0,0.011935763888888876,37.466362847222186,0)" xlink:href="#K"/><use transform="matrix(0.011935763888888876,0,0,0.011935763888888876,50.953776041666615,0)" xlink:href="#Q"/></g><path fill="#333" d="M920 151H4V0h916v151" id="R"/><path fill="#333" d="M341 0H156v-1536h185V0" id="S"/><path fill="#333" d="M521 20C240 20 96-239 96-550c0-303 147-552 427-552 132 0 235 47 309 140l9-120h169V-26c4 277-183 454-459 452-165-1-334-81-400-187l96-111c79 98 176 147 291 147 180 1 288-109 286-290v-93C750-23 649 20 521 20zm48-965c-209 0-287 178-287 416 0 217 86 392 285 392 117 0 202-53 257-159v-494c-57-103-142-155-255-155" id="T"/><g id="f"><use transform="matrix(0.011935763888888876,0,0,0.011935763888888876,0,0)" xlink:href="#B"/><use transform="matrix(0.011935763888888876,0,0,0.011935763888888876,12.114800347222209,0)" xlink:href="#C"/><use transform="matrix(0.011935763888888876,0,0,0.011935763888888876,20.6011284722222,0)" xlink:href="#D"/><use transform="matrix(0.011935763888888876,0,0,0.011935763888888876,33.20529513888886,0)" xlink:href="#R"/><use transform="matrix(0.011935763888888876,0,0,0.011935763888888876,44.23394097222218,0)" xlink:href="#S"/><use transform="matrix(0.011935763888888876,0,0,0.011935763888888876,50.16601562499994,0)" xlink:href="#L"/><use transform="matrix(0.011935763888888876,0,0,0.011935763888888876,64.10698784722216,0)" xlink:href="#T"/><use transform="matrix(0.011935763888888876,0,0,0.011935763888888876,77.82118055555547,0)" xlink:href="#R"/><use transform="matrix(0.011935763888888876,0,0,0.011935763888888876,88.8498263888888,0)" xlink:href="#E"/><use transform="matrix(0.011935763888888876,0,0,0.011935763888888876,107.21896701388877,0)" xlink:href="#F"/><use transform="matrix(0.011935763888888876,0,0,0.011935763888888876,115.49045138888876,0)" xlink:href="#G"/><use transform="matrix(0.011935763888888876,0,0,0.011935763888888876,121.42252604166653,0)" xlink:href="#H"/><use transform="matrix(0.011935763888888876,0,0,0.011935763888888876,129.4075520833332,0)" xlink:href="#I"/></g><path fill="#333" d="M1240-945c-141 0-250 95-250 227V0H804v-709c0-157-77-236-231-236-121 0-204 52-249 155V0H139v-1082h175l5 120c79-93 186-140 321-140 151 0 254 58 309 174 69-98 181-174 345-174 237 0 362 126 362 377V0h-185v-714c-2-159-67-231-231-231" id="U"/><g id="g"><use transform="matrix(0.011935763888888876,0,0,0.011935763888888876,0,0)" xlink:href="#B"/><use transform="matrix(0.011935763888888876,0,0,0.011935763888888876,12.114800347222209,0)" xlink:href="#G"/><use transform="matrix(0.011935763888888876,0,0,0.011935763888888876,18.04687499999998,0)" xlink:href="#S"/><use transform="matrix(0.011935763888888876,0,0,0.011935763888888876,23.97894965277775,0)" xlink:href="#R"/><use transform="matrix(0.011935763888888876,0,0,0.011935763888888876,35.00759548611107,0)" xlink:href="#Q"/><use transform="matrix(0.011935763888888876,0,0,0.011935763888888876,47.80273437499994,0)" xlink:href="#L"/><use transform="matrix(0.011935763888888876,0,0,0.011935763888888876,61.74370659722216,0)" xlink:href="#U"/><use transform="matrix(0.011935763888888876,0,0,0.011935763888888876,83.16840277777769,0)" xlink:href="#U"/><use transform="matrix(0.011935763888888876,0,0,0.011935763888888876,104.59309895833321,0)" xlink:href="#G"/><use transform="matrix(0.011935763888888876,0,0,0.011935763888888876,110.52517361111099,0)" xlink:href="#H"/></g><g id="h"><use transform="matrix(0.011935763888888876,0,0,0.011935763888888876,0,0)" xlink:href="#C"/><use transform="matrix(0.011935763888888876,0,0,0.011935763888888876,8.486328124999991,0)" xlink:href="#G"/><use transform="matrix(0.011935763888888876,0,0,0.011935763888888876,14.418402777777763,0)" xlink:href="#S"/><use transform="matrix(0.011935763888888876,0,0,0.011935763888888876,20.350477430555536,0)" xlink:href="#S"/></g><g id="i"><use transform="matrix(0.011935763888888876,0,0,0.011935763888888876,0,0)" xlink:href="#Q"/><use transform="matrix(0.011935763888888876,0,0,0.011935763888888876,12.795138888888875,0)" xlink:href="#L"/><use transform="matrix(0.011935763888888876,0,0,0.011935763888888876,26.736111111111082,0)" xlink:href="#U"/><use transform="matrix(0.011935763888888876,0,0,0.011935763888888876,48.160807291666615,0)" xlink:href="#U"/><use transform="matrix(0.011935763888888876,0,0,0.011935763888888876,69.58550347222214,0)" xlink:href="#G"/><use transform="matrix(0.011935763888888876,0,0,0.011935763888888876,75.51757812499991,0)" xlink:href="#H"/></g><g id="j"><use transform="matrix(0.011935763888888876,0,0,0.011935763888888876,0,0)" xlink:href="#S"/><use transform="matrix(0.011935763888888876,0,0,0.011935763888888876,5.9320746527777715,0)" xlink:href="#G"/><use transform="matrix(0.011935763888888876,0,0,0.011935763888888876,11.864149305555543,0)" xlink:href="#D"/><use transform="matrix(0.011935763888888876,0,0,0.011935763888888876,24.468315972222197,0)" xlink:href="#H"/></g><g id="k"><use transform="matrix(0.011935763888888876,0,0,0.011935763888888876,0,0)" xlink:href="#E"/><use transform="matrix(0.011935763888888876,0,0,0.011935763888888876,18.36914062499998,0)" xlink:href="#O"/><use transform="matrix(0.011935763888888876,0,0,0.011935763888888876,31.66558159722219,0)" xlink:href="#G"/><use transform="matrix(0.011935763888888876,0,0,0.011935763888888876,37.59765624999996,0)" xlink:href="#H"/></g><g id="l"><use transform="matrix(0.011935763888888876,0,0,0.011935763888888876,0,0)" xlink:href="#C"/><use transform="matrix(0.011935763888888876,0,0,0.011935763888888876,8.486328124999991,0)" xlink:href="#L"/><use transform="matrix(0.011935763888888876,0,0,0.011935763888888876,22.4273003472222,0)" xlink:href="#F"/></g><path fill="#333" d="M491 20c-241-1-355-148-355-398v-704h185v699c0 164 67 246 200 246 141 0 235-53 282-158v-787h185V0H812l-4-107C736-22 630 20 491 20" id="V"/><g id="m"><use transform="matrix(0.011935763888888876,0,0,0.011935763888888876,0,0)" xlink:href="#G"/><use transform="matrix(0.011935763888888876,0,0,0.011935763888888876,5.9320746527777715,0)" xlink:href="#D"/><use transform="matrix(0.011935763888888876,0,0,0.011935763888888876,18.536241319444425,0)" xlink:href="#D"/><use transform="matrix(0.011935763888888876,0,0,0.011935763888888876,31.14040798611108,0)" xlink:href="#V"/><use transform="matrix(0.011935763888888876,0,0,0.011935763888888876,44.61588541666662,0)" xlink:href="#I"/><use transform="matrix(0.011935763888888876,0,0,0.011935763888888876,57.56618923611105,0)" xlink:href="#M"/></g><path fill="#333" d="M362-157h690V0H169v-1456h193v1299" id="W"/><path fill="#333" d="M483-459l28 192 41-173 288-1016h162l281 1016 40 176 31-196 226-996h193L1420 0h-175L945-1061l-23-111-23 111L588 0H413L61-1456h192" id="X"/><path fill="#333" d="M1160-420C1159-145 963 0 674 0H169v-1456h476c294-1 476 112 476 388 0 153-99 253-216 302 146 38 255 167 255 346zM678-157c171 2 289-95 289-261 0-175-95-263-286-263H361v524h317zm250-912c-2-172-104-229-283-229H361v463h290c157 3 278-84 277-234" id="Y"/><g id="n"><use transform="matrix(0.011935763888888876,0,0,0.011935763888888876,0,0)" xlink:href="#W"/><use transform="matrix(0.011935763888888876,0,0,0.011935763888888876,11.446397569444432,0)" xlink:href="#X"/><use transform="matrix(0.011935763888888876,0,0,0.011935763888888876,33.13368055555552,0)" xlink:href="#Y"/></g><path fill="#333" d="M313-157h833V0H86v-144l798-1154H99v-158h1015v141" id="Z"/><path fill="#333" d="M375 0H183v-1456h192V0" id="aa"/><path fill="#333" d="M703-1476c426 0 599 333 586 795-11 408-187 701-584 701-422 0-587-333-587-793 0-282 106-507 280-617 89-56 190-86 305-86zm2 1333c312 0 393-279 393-632 0-308-116-536-395-536-269 0-394 232-394 523v107c-4 298 123 538 396 538" id="ab"/><g id="o"><use transform="matrix(0.011935763888888876,0,0,0.011935763888888876,0,0)" xlink:href="#Z"/><use transform="matrix(0.011935763888888876,0,0,0.011935763888888876,14.633246527777763,0)" xlink:href="#aa"/><use transform="matrix(0.011935763888888876,0,0,0.011935763888888876,21.281467013888864,0)" xlink:href="#ab"/></g><path fill="#333" d="M319-664C304-226 428 158 661 357l-38 113c-89-49-172-133-254-248C142-97 71-578 194-1025c67-244 240-513 429-618l38 122c-201 153-330 502-342 857" id="ac"/><path fill="#333" d="M38 357C331 141 457-487 337-984c-53-219-157-429-299-546l39-113c190 106 362 378 431 621 75 268 76 597 0 868C440 88 266 365 77 470" id="ad"/><g id="p"><use transform="matrix(0.011935763888888876,0,0,0.011935763888888876,0,0)" xlink:href="#ac"/><use transform="matrix(0.011935763888888876,0,0,0.011935763888888876,8.355034722222213,0)" xlink:href="#Q"/><use transform="matrix(0.011935763888888876,0,0,0.011935763888888876,21.150173611111086,0)" xlink:href="#J"/><use transform="matrix(0.011935763888888876,0,0,0.011935763888888876,32.99045138888885,0)" xlink:href="#R"/><use transform="matrix(0.011935763888888876,0,0,0.011935763888888876,44.01909722222217,0)" xlink:href="#E"/><use transform="matrix(0.011935763888888876,0,0,0.011935763888888876,62.38823784722216,0)" xlink:href="#O"/><use transform="matrix(0.011935763888888876,0,0,0.011935763888888876,75.68467881944436,0)" xlink:href="#G"/><use transform="matrix(0.011935763888888876,0,0,0.011935763888888876,81.61675347222213,0)" xlink:href="#H"/><use transform="matrix(0.011935763888888876,0,0,0.011935763888888876,89.60177951388879,0)" xlink:href="#ad"/></g><g id="q"><use transform="matrix(0.011935763888888876,0,0,0.011935763888888876,0,0)" xlink:href="#W"/><use transform="matrix(0.011935763888888876,0,0,0.011935763888888876,11.446397569444432,0)" xlink:href="#X"/><use transform="matrix(0.011935763888888876,0,0,0.011935763888888876,33.13368055555552,0)" xlink:href="#Y"/></g><g id="r"><use transform="matrix(0.011935763888888876,0,0,0.011935763888888876,0,0)" xlink:href="#H"/><use transform="matrix(0.011935763888888876,0,0,0.011935763888888876,7.985026041666658,0)" xlink:href="#G"/><use transform="matrix(0.011935763888888876,0,0,0.011935763888888876,13.917100694444429,0)" xlink:href="#U"/><use transform="matrix(0.011935763888888876,0,0,0.011935763888888876,35.34179687499996,0)" xlink:href="#I"/><use transform="matrix(0.011935763888888876,0,0,0.011935763888888876,48.292100694444386,0)" xlink:href="#L"/><use transform="matrix(0.011935763888888876,0,0,0.011935763888888876,62.233072916666586,0)" xlink:href="#V"/><use transform="matrix(0.011935763888888876,0,0,0.011935763888888876,75.70855034722213,0)" xlink:href="#H"/></g><g id="s"><use transform="matrix(0.011935763888888876,0,0,0.011935763888888876,0,0)" xlink:href="#ac"/><use transform="matrix(0.011935763888888876,0,0,0.011935763888888876,8.355034722222213,0)" xlink:href="#Q"/><use transform="matrix(0.011935763888888876,0,0,0.011935763888888876,21.150173611111086,0)" xlink:href="#J"/><use transform="matrix(0.011935763888888876,0,0,0.011935763888888876,32.99045138888885,0)" xlink:href="#R"/><use transform="matrix(0.011935763888888876,0,0,0.011935763888888876,44.01909722222217,0)" xlink:href="#H"/><use transform="matrix(0.011935763888888876,0,0,0.011935763888888876,52.004123263888836,0)" xlink:href="#G"/><use transform="matrix(0.011935763888888876,0,0,0.011935763888888876,57.93619791666661,0)" xlink:href="#U"/><use transform="matrix(0.011935763888888876,0,0,0.011935763888888876,79.36089409722213,0)" xlink:href="#I"/><use transform="matrix(0.011935763888888876,0,0,0.011935763888888876,92.31119791666656,0)" xlink:href="#M"/><use transform="matrix(0.011935763888888876,0,0,0.011935763888888876,106.09700520833321,0)" xlink:href="#E"/><use transform="matrix(0.011935763888888876,0,0,0.011935763888888876,124.4661458333332,0)" xlink:href="#O"/><use transform="matrix(0.011935763888888876,0,0,0.011935763888888876,137.7625868055554,0)" xlink:href="#G"/><use transform="matrix(0.011935763888888876,0,0,0.011935763888888876,143.69466145833317,0)" xlink:href="#H"/><use transform="matrix(0.011935763888888876,0,0,0.011935763888888876,151.67968749999983,0)" xlink:href="#ad"/></g><path fill="#333" d="M589-945c-131 0-219 81-264 174V0H140v-1536h185v585c82-101 189-151 320-151 229 0 346 129 346 387V0H806v-716c-2-153-65-229-217-229" id="ae"/><g id="t"><use transform="matrix(0.011935763888888876,0,0,0.011935763888888876,0,0)" xlink:href="#L"/><use transform="matrix(0.011935763888888876,0,0,0.011935763888888876,13.940972222222207,0)" xlink:href="#H"/><use transform="matrix(0.011935763888888876,0,0,0.011935763888888876,21.925998263888864,0)" xlink:href="#ae"/><use transform="matrix(0.011935763888888876,0,0,0.011935763888888876,35.389539930555515,0)" xlink:href="#I"/><use transform="matrix(0.011935763888888876,0,0,0.011935763888888876,48.33984374999994,0)" xlink:href="#F"/></g><g id="u"><use transform="matrix(0.011935763888888876,0,0,0.011935763888888876,0,0)" xlink:href="#L"/><use transform="matrix(0.011935763888888876,0,0,0.011935763888888876,13.761935763888873,0)" xlink:href="#J"/><use transform="matrix(0.011935763888888876,0,0,0.011935763888888876,25.447048611111082,0)" xlink:href="#I"/><use transform="matrix(0.011935763888888876,0,0,0.011935763888888876,38.397352430555515,0)" xlink:href="#F"/><use transform="matrix(0.011935763888888876,0,0,0.011935763888888876,46.66883680555551,0)" xlink:href="#ae"/><use transform="matrix(0.011935763888888876,0,0,0.011935763888888876,60.13237847222216,0)" xlink:href="#I"/><use transform="matrix(0.011935763888888876,0,0,0.011935763888888876,73.08268229166659,0)" xlink:href="#O"/><use transform="matrix(0.011935763888888876,0,0,0.011935763888888876,86.3791232638888,0)" xlink:href="#M"/></g><g id="v"><use transform="matrix(0.008680555555555535,0,0,0.008680555555555535,0,0)" xlink:href="#O"/><use transform="matrix(0.008680555555555535,0,0,0.008680555555555535,9.670138888888866,0)" xlink:href="#D"/><use transform="matrix(0.008680555555555535,0,0,0.008680555555555535,18.83680555555551,0)" xlink:href="#P"/><use transform="matrix(0.008680555555555535,0,0,0.008680555555555535,27.248263888888825,0)" xlink:href="#K"/><use transform="matrix(0.008680555555555535,0,0,0.008680555555555535,37.05729166666658,0)" xlink:href="#Q"/></g><path fill="#333" d="M1175-1298H707V0H516v-1298H49v-158h1126v158" id="af"/><path fill="#333" d="M644-898l349-558h226L759-734 1230 0h-228L644-568 284 0H57l472-734-461-722h225" id="ag"/><g id="w"><use transform="matrix(0.008680555555555535,0,0,0.008680555555555535,0,0)" xlink:href="#aa"/><use transform="matrix(0.008680555555555535,0,0,0.008680555555555535,4.583333333333322,0)" xlink:href="#af"/><use transform="matrix(0.008680555555555535,0,0,0.008680555555555535,15.190972222222186,0)" xlink:href="#ag"/></g><path fill="#333" d="M525-543H37v-151h488v151" id="ah"/><g id="x"><use transform="matrix(0.008680555555555535,0,0,0.008680555555555535,0,0)" xlink:href="#Z"/><use transform="matrix(0.008680555555555535,0,0,0.008680555555555535,10.642361111111086,0)" xlink:href="#aa"/><use transform="matrix(0.008680555555555535,0,0,0.008680555555555535,15.477430555555516,0)" xlink:href="#W"/><use transform="matrix(0.008680555555555535,0,0,0.008680555555555535,25.043402777777718,0)" xlink:href="#ah"/><use transform="matrix(0.008680555555555535,0,0,0.008680555555555535,29.947916666666597,0)" xlink:href="#W"/><use transform="matrix(0.008680555555555535,0,0,0.008680555555555535,38.27256944444436,0)" xlink:href="#X"/><use transform="matrix(0.008680555555555535,0,0,0.008680555555555535,54.045138888888765,0)" xlink:href="#Y"/></g><g id="y"><use transform="matrix(0.008680555555555535,0,0,0.008680555555555535,0,0)" xlink:href="#L"/><use transform="matrix(0.008680555555555535,0,0,0.008680555555555535,10.138888888888864,0)" xlink:href="#K"/><use transform="matrix(0.008680555555555535,0,0,0.008680555555555535,19.947916666666618,0)" xlink:href="#S"/><use transform="matrix(0.008680555555555535,0,0,0.008680555555555535,24.26215277777772,0)" xlink:href="#P"/></g><g id="z"><use transform="matrix(0.00868055555555554,0,0,0.00868055555555554,0,0)" xlink:href="#U"/><use transform="matrix(0.00868055555555554,0,0,0.00868055555555554,15.581597222222195,0)" xlink:href="#I"/><use transform="matrix(0.00868055555555554,0,0,0.00868055555555554,24.999999999999957,0)" xlink:href="#O"/><use transform="matrix(0.00868055555555554,0,0,0.00868055555555554,34.67013888888883,0)" xlink:href="#D"/><use transform="matrix(0.00868055555555554,0,0,0.00868055555555554,43.83680555555548,0)" xlink:href="#V"/><use transform="matrix(0.00868055555555554,0,0,0.00868055555555554,53.637152777777686,0)" xlink:href="#F"/><use transform="matrix(0.00868055555555554,0,0,0.00868055555555554,59.487847222222115,0)" xlink:href="#I"/><use transform="matrix(0.00868055555555554,0,0,0.00868055555555554,68.90624999999987,0)" xlink:href="#M"/></g><g id="A"><use transform="matrix(0.00868055555555554,0,0,0.00868055555555554,0,0)" xlink:href="#M"/><use transform="matrix(0.00868055555555554,0,0,0.00868055555555554,10.026041666666648,0)" xlink:href="#I"/><use transform="matrix(0.00868055555555554,0,0,0.00868055555555554,19.444444444444407,0)" xlink:href="#F"/><use transform="matrix(0.00868055555555554,0,0,0.00868055555555554,25.460069444444397,0)" xlink:href="#G"/><use transform="matrix(0.00868055555555554,0,0,0.00868055555555554,29.7743055555555,0)" xlink:href="#J"/><use transform="matrix(0.00868055555555554,0,0,0.00868055555555554,38.27256944444437,0)" xlink:href="#I"/><use transform="matrix(0.00868055555555554,0,0,0.00868055555555554,47.69097222222213,0)" xlink:href="#M"/></g></defs></g></svg>