<svg xmlns="http://www.w3.org/2000/svg" xmlns:xlink="http://www.w3.org/1999/xlink" xmlns:lucid="lucid" width="894.14" height="814.5"><g transform="translate(-165.65633249136982 -9119.889111429518)" lucid:page-tab-id="wVeFyTs_.SeO"><path d="M423.4 9139.9h615.65v40H423.4z" stroke="#202124" fill="#fff"/><use xlink:href="#a" transform="matrix(1,0,0,1,428.3890153043785,9144.889111429518) translate(281.39626736111114 22.677951388888864)"/><path d="M418.57 9220H820v40H418.57z" stroke="#202124" fill="#fff"/><use xlink:href="#b" transform="matrix(1,0,0,1,423.5668527797939,9225) translate(178.7826605902778 22.677951388888864)"/><path d="M836.57 9220h201.85v40H836.57z" stroke="#202124" fill="#fff"/><use xlink:href="#c" transform="matrix(1,0,0,1,841.5650590730231,9225) translate(64.12554253472226 22.677951388888864)"/><path d="M418.57 9260h161.7v40h-161.7z" stroke="#202124" fill="#fff"/><use xlink:href="#d" transform="matrix(1,0,0,1,423.5668527797939,9265) translate(57.89344618055557 22.677951388888864)"/><path d="M601.24 9260H820v40H601.24z" stroke="#202124" fill="#fff"/><use xlink:href="#e" transform="matrix(1,0,0,1,606.2449236268071,9265) translate(51.3977864583334 22.677951388888864)"/><use xlink:href="#f" transform="matrix(1,0,0,1,606.2449236268071,9265) translate(91.88389756944446 22.677951388888864)"/><path d="M523.93 9340h155.42v40H523.93z" stroke="#202124" fill="#fff"/><use xlink:href="#g" transform="matrix(1,0,0,1,528.9258741649513,9345) translate(16.412543402777835 22.677951388888864)"/><path d="M729.53 9340h155.42v40H729.53z" stroke="#202124" fill="#fff"/><use xlink:href="#h" transform="matrix(1,0,0,1,734.5282284326653,9345) translate(28.23491753472227 22.677951388888864)"/><path d="M523.93 9400h155.42v40H523.93z" stroke="#202124" fill="#fff"/><use xlink:href="#i" transform="matrix(1,0,0,1,528.9258741649513,9405) translate(49.69542100694447 22.677951388888864)"/><path d="M445.64 9540H765.7v40H445.65z" stroke="#202124" fill="#fff"/><use xlink:href="#j" transform="matrix(1,0,0,1,450.6367531955628,9545) translate(132.65494791666669 22.677951388888864)"/><path d="M446.45 9600h89.78v40h-89.78z" stroke="#202124" fill="#fff"/><use xlink:href="#k" transform="matrix(1,0,0,1,451.4493119249349,9605) translate(5.636935763888928 22.677951388888864)"/><path d="M560.23 9600H650v40h-89.77z" stroke="#202124" fill="#fff"/><use xlink:href="#k" transform="matrix(1,0,0,1,565.2300187050837,9605) translate(5.636935763888928 22.677951388888864)"/><path d="M676.35 9600h89.78v40h-89.78z" stroke="#202124" fill="#fff"/><use xlink:href="#k" transform="matrix(1,0,0,1,681.3484067263661,9605) translate(5.636935763888928 22.677951388888864)"/><path d="M518.82 9680h188.22v40H518.82z" stroke="#202124" fill="#fff"/><use xlink:href="#l" transform="matrix(1,0,0,1,523.8232905320244,9685) translate(2.834418402777885 22.677951388888864)"/><use xlink:href="#m" transform="matrix(1,0,0,1,523.8232905320244,9685) translate(80.88237847222224 22.677951388888864)"/><path d="M420.6 9760h383.6v40H420.6z" stroke="#202124" fill="#fff"/><use xlink:href="#n" transform="matrix(1,0,0,1,425.61336935453323,9765) translate(114.24555121527786 22.677951388888864)"/><path d="M420.9 9874.38h618.15v40H420.9z" stroke="#202124" fill="#fff"/><use xlink:href="#o" transform="matrix(1,0,0,1,425.893542918787,9879.384178204617) translate(274.67849392361114 22.677951388888864)"/><path d="M820.75 9820h219.04v40H820.74z" stroke="#202124" fill="#fff"/><use xlink:href="#p" transform="matrix(1,0,0,1,825.7500192432552,9825) translate(35.4204644097223 22.677951388888864)"/><use xlink:href="#q" transform="matrix(1,0,0,1,825.7500192432552,9825) translate(100.94780815972223 22.677951388888864)"/><path d="M852.17 9500h155.42v40H852.16z" stroke="#202124" fill="#fff"/><use xlink:href="#r" transform="matrix(1,0,0,1,857.1652283875262,9505) translate(53.9564887152778 22.677951388888864)"/><path d="M420.9 9680h97.44v40H420.9z" stroke="#202124" fill="#fff"/><use xlink:href="#s" transform="matrix(1,0,0,1,425.893542918787,9685) translate(0.7621527777778567 22.305555555555525)"/><use xlink:href="#t" transform="matrix(1,0,0,1,425.893542918787,9685) translate(49.54687499999999 22.305555555555525)"/><path d="M707.04 9680h97.45v40h-97.46z" stroke="#202124" fill="#fff"/><use xlink:href="#s" transform="matrix(1,0,0,1,712.042286060399,9685) translate(0.7621527777778567 22.305555555555525)"/><use xlink:href="#t" transform="matrix(1,0,0,1,712.042286060399,9685) translate(49.54687499999999 22.305555555555525)"/><path d="M470.12 9759h-1v-8.58h1zm0-29.42h-1V9721h1zM470.12 9721h-1v-.5h1zM470.12 9759.5h-1v-.5h1z" fill="#202124"/><use xlink:href="#u" transform="matrix(1,0,0,1,457.404958791757,9729.58362583041) translate(0.005000000000000782 16.493055555555557)"/><path d="M756.27 9759h-1v-8.58h1zm0-29.42h-1V9721h1zM756.27 9721h-1v-.5h1zM756.27 9759.5h-1v-.5h1z" fill="#202124"/><use xlink:href="#u" transform="matrix(1,0,0,1,743.5537019333693,9729.58362583041) translate(0.005000000000000782 16.493055555555557)"/><path d="M612.9 9759h-1v-8.58h1zm0-29.42h-1V9721h1zM612.9 9759.5h-1v-.5h1zM612.9 9721h-1v-.5h1z" fill="#202124"/><use xlink:href="#v" transform="matrix(1,0,0,1,590.0515876904433,9729.583040836258) translate(0.004999999999999005 16.493055555555557)"/><path d="M710.15 9300.67l-108.04 38.66" stroke="#202124" fill="none"/><path d="M710.3 9301.14l-.22-.64h2.03zM602.18 9339.5h-2.03l1.8-.64z" fill="#202124"/><path d="M711.1 9300.7l95.67 38.6" stroke="#202124" fill="none"/><path d="M710.9 9301.16l-1.6-.66h1.88zM808.57 9339.5h-1.88l.25-.66z" fill="#202124"/><path d="M601.64 9381v18" stroke="#202124" fill="none"/><path d="M602.14 9381h-1v-.5h1zM602.14 9399.5h-1v-.5h1z" fill="#202124"/><path d="M600 9440.67v98.83M600 9440.68v-.5M600 9539.5v.5M694.78 9480.68l-93.65 59.05M694.77 9480.7l.44-.28M601.14 9539.73l-.43.27M757 9440.48l-4.13 2.67m-4.13 2.67l-8.27 5.34m-4.14 2.67l-8.27 5.34m-4.13 2.68l-8.27 5.34m-4.13 2.66l-8.27 5.34m-4.14 2.67l-4.13 2.67M757 9440.5l.43-.3M695 9480.53l-.43.28M506.6 9482.73l93.68 56.3M506.6 9482.74l-.44-.27M600.27 9539.03l.44.26M438.15 9440.26l4.6 2.86m4.6 2.85l9.2 5.7m4.6 2.86l9.2 5.7m4.58 2.87l9.2 5.7m4.6 2.86l9.2 5.7m4.6 2.86l4.6 2.86" stroke="#202124" fill="none"/><path d="M437.9 9440.7l-1.12-.7h1.55z" fill="#202124"/><path d="M507.1 9483.07l.45.27" stroke="#202124" fill="none"/><path d="M410.56 9400h33.2v40h-33.2z" stroke="#000" stroke-opacity="0" fill="#fff" fill-opacity="0"/><use xlink:href="#w" transform="matrix(1,0,0,1,415.5607614391864,9405) translate(5.24495442708334 22.677951388888864)"/><path d="M745.6 9400h33.2v40h-33.2z" stroke="#000" stroke-opacity="0" fill="#fff" fill-opacity="0"/><use xlink:href="#w" transform="matrix(1,0,0,1,750.6052701884093,9405) translate(5.24495442708334 22.677951388888864)"/><path d="M807.6 9380.85l121.92 118.3" stroke="#202124" fill="none"/><path d="M807.26 9381.22l-.74-.72h1.43zM930.6 9499.5h-1.44l.7-.72z" fill="#202124"/><path d="M930.25 9391.15V9499M930.25 9391.17v-.52" stroke="#202124" fill="none"/><path d="M930.75 9499.5h-1v-.5h1z" fill="#202124"/><path d="M930.2 9380.5v5m0 5.02v10.02m0 5v10.02m0 5v5.02" stroke="#202124" fill="none"/><path d="M930.7 9380.5h-1v-.5h1z" fill="#202124"/><path d="M930.2 9425.57v.5" stroke="#202124" fill="none"/><path d="M913.6 9340h33.2v40h-33.2z" stroke="#000" stroke-opacity="0" fill="#fff" fill-opacity="0"/><use xlink:href="#x" transform="matrix(1,0,0,1,918.5900984372458,9345) translate(5.24495442708334 22.677951388888864)"/><path d="M930.73 9260.24v79.26M930.73 9260.25v-.5" stroke="#202124" fill="none"/><path d="M931.23 9340h-1v-.5h1z" fill="#202124"/><path d="M820.75 9720H920v40h-99.25z" stroke="#202124" fill="#fff"/><use xlink:href="#y" transform="matrix(1,0,0,1,825.7500192432553,9725) translate(-3.4771050347221717 23.355034722222214)"/><path d="M940.25 9720h98.8v40h-98.8z" stroke="#202124" fill="#fff"/><use xlink:href="#y" transform="matrix(1,0,0,1,945.2493121125531,9725) translate(-3.9771050347221717 23.355034722222214)"/><path d="M871 9719.18l-.94-.3 26.08-78.46h1.05zm59.2-178.05l-26.1 78.45h-1.04l26.18-78.76z" fill="#202124"/><path d="M930.2 9541.14l-.96-.3.1-.34h1.06zM871 9719.17l-.1.33h-1.05l.2-.64z" fill="#202124"/><use xlink:href="#u" transform="matrix(1,0,0,1,887.9116990629333,9619.583333333334) translate(0.005000000000000782 16.493055555555557)"/><path d="M989.97 9718.87l-.95.3-26.3-78.75h1.05zm-33.16-99.3h-1.04l-26.2-78.44.95-.3zM930.5 9540.83l-.94.3-.2-.63h1.04z" fill="#202124"/><path d="M990.18 9719.5h-1.06l-.1-.33.94-.3z" fill="#202124"/><use xlink:href="#u" transform="matrix(1,0,0,1,947.5492370366634,9619.583333333334) translate(0.005000000000000782 16.493055555555557)"/><path d="M446.2 9639.73l72.68 40.03M446.2 9639.73l-.44-.24M518.87 9679.75l.45.25M765.9 9640.36l-58 39.2M765.9 9640.36l.43-.28M707.92 9679.55l-.43.3M605.18 9580.58l-113.35 18.84" stroke="#202124" fill="none"/><path d="M608.72 9580.5l-3.47.58-.1-.58h3.57zM491.86 9599.5h-3.56l3.46-.58z" fill="#202124"/><path d="M605.67 9581v18" stroke="#202124" fill="none"/><path d="M606.17 9581h-1v-.5h1zM606.17 9599.5h-1v-.5h1z" fill="#202124"/><path d="M606.17 9580.58l114.58 18.84" stroke="#202124" fill="none"/><path d="M606.1 9581.08l-3.47-.57h3.56zM724.28 9599.5h-3.56l.1-.58z" fill="#202124"/><path d="M420.6 9820h383.6v40H420.6z" stroke="#202124" fill="#fff"/><use xlink:href="#z" transform="matrix(1,0,0,1,425.61336935453323,9825) translate(123.29286024305563 22.677951388888864)"/><use xlink:href="#A" transform="matrix(1,0,0,1,425.61336935453323,9825) translate(189.67957899305554 22.677951388888864)"/><path d="M612.4 9819v-18" stroke="#202124" fill="none"/><path d="M612.9 9819.5h-1v-.5h1zM612.9 9801h-1v-.5h1z" fill="#202124"/><path d="M929.92 9819.15l-58.3-58.3" stroke="#202124" fill="none"/><path d="M930.98 9819.5h-1.42l.7-.72zM872 9760.5l-.72.72-.72-.72h1.42z" fill="#202124"/><path d="M930.62 9819.15l58.3-58.3" stroke="#202124" fill="none"/><path d="M931 9819.5h-1.44l.72-.72zM989.26 9761.22l-.7-.7v-.02h1.42z" fill="#202124"/><path d="M185.66 9179.9h186.48v40.1H185.66z" stroke="#000" stroke-opacity="0" stroke-width="2" fill="#fff" fill-opacity="0"/><use xlink:href="#B" transform="matrix(1,0,0,1,190.65633249136982,9184.889111429518) translate(37.73242187500023 22.429687499999975)"/><use xlink:href="#C" transform="matrix(1,0,0,1,190.65633249136982,9184.889111429518) translate(112.77148437500011 22.429687499999975)"/><use xlink:href="#D" transform="matrix(1,0,0,1,190.65633249136982,9184.889111429518) translate(145.89648437500006 22.429687499999975)"/><path d="M379.1 9200h4.03m8.03 0h8.03m8.02 0h8.03m8.03 0h8.04m8.03 0h8.03m8.03 0h8.04m8.03 0h8.03m8.03 0h8.04m8.03 0h8.03m8.03 0h8.03m8.02 0h8.03m8.03 0h8.03m8.05 0h8.03m8.03 0h8.04m8.03 0H608m8.03 0h8.03m8.03 0h8.03m8.03 0h8.03m8.02 0h8.03m8.03 0h8.03m8.04 0h8.03m8.04 0h8.04m8.03 0h8.03m8.03 0h8.03m8.03 0h8.02m8.04 0h8.03m8.02 0h8.03m8.03 0h8.03m8.04 0h8.03m8.03 0h8.04m8.03 0H865m8.03 0h8.03m8.03 0h8.02m8.03 0h8.03m8.04 0h8.03m8.03 0h8.03m8.04 0h8.03m8.03 0h8.03m8.04 0h8.03m8.03 0h8.03m8.03 0h8.02m8.03 0h4.02M379.14 9200h-1.03M1037.64 9200h1.03" stroke="#999" stroke-width="2" fill="none"/><path d="M202.72 9299.9h137.24v40.1H202.72z" stroke="#000" stroke-opacity="0" stroke-width="2" fill="#fff" fill-opacity="0"/><use xlink:href="#E" transform="matrix(1,0,0,1,207.72162239240285,9304.889111429402) translate(41.105468750000114 22.429687499999975)"/><use xlink:href="#F" transform="matrix(1,0,0,1,207.72162239240285,9304.889111429402) translate(74.23046875000006 22.429687499999975)"/><path d="M345.82 9319.94h3.94m7.9 0h7.87m7.9 0h7.87m7.9 0h7.87m7.9 0h7.87m7.9 0h7.87m7.9 0h7.88m7.9 0h7.87m7.9 0h7.87m7.9 0h7.87m7.88 0h7.88m7.9 0h7.87m7.9 0H539m7.9 0h7.87m7.9 0h7.87m7.9 0h7.87m7.9 0h7.88m7.9 0h7.87m7.88 0h7.9m7.87 0h7.9m7.87 0h7.9m7.87 0h7.9m7.87 0h7.9m7.88 0h7.9m7.87 0h7.9m7.87 0h7.9m7.87 0h7.88m7.88 0h7.9m7.87 0h7.9m7.87 0h7.9m7.87 0h3.94M345.85 9319.94h-1.03M818.9 9319.94h1" stroke="#999" stroke-width="2" fill="none"/><path d="M208.22 9512.7h192.86v67.3H208.22z" stroke="#000" stroke-opacity="0" stroke-width="2" fill="#fff" fill-opacity="0"/><use xlink:href="#G" transform="matrix(1,0,0,1,213.2237374346646,9517.708333333334) translate(23.6445312500002 25.804687499999975)"/><use xlink:href="#H" transform="matrix(1,0,0,1,213.2237374346646,9517.708333333334) translate(34.1816406250002 49.24218749999994)"/><use xlink:href="#I" transform="matrix(1,0,0,1,213.2237374346646,9517.708333333334) translate(66.57421875000016 49.24218749999994)"/><use xlink:href="#J" transform="matrix(1,0,0,1,213.2237374346646,9517.708333333334) translate(89.87500000000013 49.24218749999994)"/><use xlink:href="#K" transform="matrix(1,0,0,1,213.2237374346646,9517.708333333334) translate(122.30664062500009 49.24218749999994)"/><path d="M405.8 9551.15l3.92-.2m7.78-1.07l3-.7 3.5-1.14 1-.43m6.92-3.68l.9-.58 2.98-2.33 2.2-2.05m5.48-5.6l5.4-5.7m5.4-5.7l2.12-2.24 3.77-2.94m6.65-4.18l2.66-1.43 4.38-2.05m7.27-2.96l.06-.02 7.38-2.47m7.56-2.14l4.65-1.26 2.96-.63m7.7-1.63l2.57-.55 5.15-.8m7.77-1.2l1.08-.16 6.73-.66m7.83-.63l6.25-.26h1.6m7.85 0h7.85m7.86 0h7.86m7.86 0h7.86m7.85 0h7.86m7.85 0H629m7.86 0h7.86m7.85 0h7.86m7.85 0h7.86m7.86 0h7.85m7.86 0h3.94M405.83 9551.15l-1.03.05M703.6 9493.7h1.04" stroke="#999" stroke-width="2" fill="none"/><path d="M211.66 9580h183.92v160H211.66z" stroke="#000" stroke-opacity="0" stroke-width="2" fill="#fff" fill-opacity="0"/><g><use xlink:href="#L" transform="matrix(1,0,0,1,216.6649414103262,9585) translate(115.09375000000009 60.74218749999997)"/><use xlink:href="#M" transform="matrix(1,0,0,1,216.6649414103262,9585) translate(54.15625000000017 84.17968749999994)"/><use xlink:href="#N" transform="matrix(1,0,0,1,216.6649414103262,9585) translate(118.33593750000009 107.61718749999991)"/></g><path d="M397 9660.22h4.06m8.14 0h8.13m8.13 0h8.14m8.13 0h8.14m8.13 0h8.13m8.14 0h8.13m8.13 0h8.14m8.13 0h8.14m8.13 0h8.13m8.14 0h8.13m8.14 0h8.14m8.13 0H580m8.14 0h8.13m8.14 0h8.14m8.14 0h8.13m8.14 0h8.14m8.13 0h8.15m8.13 0h8.13m8.15 0h8.13m8.13 0h8.15m8.13 0h8.14m8.13 0h8.13m8.14 0h4.06M397.02 9660.22H396M754.86 9660.22h1.02M186.2 9460h9.7m9.67 0h38.75m9.68 0h19.38m9.68 0h38.75m9.7 0h19.37m9.68 0h38.75m9.68 0h19.38m9.68 0h38.75m9.67 0h19.38m9.68 0h38.75m9.68 0h19.38m9.68 0h38.75m9.68 0h19.38m9.68 0h38.76m9.7 0h19.36m9.68 0h38.75m9.7 0h19.36m9.7 0h38.74m9.7 0h19.36m9.7 0h38.73m9.7 0h19.36m9.68 0h38.74m9.7 0h9.67M186.22 9460h-1.02M1038.57 9460h1.02" stroke="#999" stroke-width="2" fill="none"/><path d="M202.72 9420.58h221.92v40H202.72z" stroke="#000" stroke-opacity="0" fill="#fff" fill-opacity="0"/><g><use xlink:href="#O" transform="matrix(1,0,0,1,207.72162239240288,9425.58234561208) translate(0 22.304687499999975)"/><use xlink:href="#P" transform="matrix(1,0,0,1,207.72162239240288,9425.58234561208) translate(33.53515624999996 22.304687499999975)"/></g><path d="M201.7 9460.58h221.9v40H201.7z" stroke="#000" stroke-opacity="0" fill="#fff" fill-opacity="0"/><g><use xlink:href="#O" transform="matrix(1,0,0,1,206.6873586100926,9465.58234561208) translate(0 22.304687499999975)"/><use xlink:href="#Q" transform="matrix(1,0,0,1,206.6873586100926,9465.58234561208) translate(33.53515624999996 22.304687499999975)"/></g><defs><path fill="#333" d="M313-157h833V0H86v-144l798-1154H99v-158h1015v141" id="R"/><path fill="#333" d="M1216-1011c-1 297-202 441-512 441H361V0H169v-1456h537c297-6 510 164 510 445zm-192 2c1-178-126-288-307-289H361v571h345c196 1 318-92 318-282" id="S"/><path fill="#333" d="M362-157h690V0H169v-1456h193v1299" id="T"/><g id="a"><use transform="matrix(0.011935763888888876,0,0,0.011935763888888876,0,0)" xlink:href="#R"/><use transform="matrix(0.011935763888888876,0,0,0.011935763888888876,14.633246527777763,0)" xlink:href="#S"/><use transform="matrix(0.011935763888888876,0,0,0.011935763888888876,30.05425347222219,0)" xlink:href="#T"/></g><path fill="#333" d="M375 0H183v-1456h192V0" id="U"/><g id="b"><use transform="matrix(0.011935763888888876,0,0,0.011935763888888876,0,0)" xlink:href="#R"/><use transform="matrix(0.011935763888888876,0,0,0.011935763888888876,14.633246527777763,0)" xlink:href="#U"/><use transform="matrix(0.011935763888888876,0,0,0.011935763888888876,21.281467013888864,0)" xlink:href="#T"/></g><path fill="#333" d="M561-1102c238-4 403 126 403 351v498c0 99 13 178 38 237V0H808c-11-21-19-59-26-114C696-25 593 20 474 20c-199 0-368-130-365-320 4-251 214-359 490-356h180v-85c-1-135-86-212-229-212-115 0-232 67-233 171H131c20-205 206-316 430-320zM294-326c0 117 90 185 207 185 122 0 239-75 278-162v-222H634c-227 0-340 66-340 199" id="V"/><path fill="#333" d="M538-131c121 0 232-49 232-156 0-50-20-88-56-117-73-60-334-92-420-143-92-55-162-110-162-238 0-190 192-317 400-317 223 0 414 129 413 338H759c0-108-110-186-227-186-119 0-215 53-215 159 0 45 18 78 53 101 76 52 331 90 416 139 98 57 169 115 169 251C955-92 760 20 538 20c-176 0-314-68-386-174-38-55-57-115-57-179h185c6 129 116 202 258 202" id="W"/><path fill="#333" d="M494-271l252-811h198L509 167C425 381 299 474 84 421V271c167 16 242-37 283-173l41-110L22-1082h202" id="X"/><path fill="#333" d="M589-945c-131 0-219 81-264 174V0H140v-1082h175l6 136c83-104 191-156 324-156 229 0 346 129 346 387V0H806v-716c-2-153-65-229-217-229" id="Y"/><path fill="#333" d="M277-555c0 244 77 420 297 424 127 2 249-93 255-210h175C980-127 805 20 574 20 258 20 81-222 92-562c11-319 164-533 481-540 237-5 426 165 431 392H829c-7-133-115-242-256-240-209 4-296 166-296 395" id="Z"/><g id="c"><use transform="matrix(0.011935763888888876,0,0,0.011935763888888876,0,0)" xlink:href="#V"/><use transform="matrix(0.011935763888888876,0,0,0.011935763888888876,13.296440972222207,0)" xlink:href="#W"/><use transform="matrix(0.011935763888888876,0,0,0.011935763888888876,25.90060763888886,0)" xlink:href="#X"/><use transform="matrix(0.011935763888888876,0,0,0.011935763888888876,37.466362847222186,0)" xlink:href="#Y"/><use transform="matrix(0.011935763888888876,0,0,0.011935763888888876,50.953776041666615,0)" xlink:href="#Z"/></g><path fill="#333" d="M1175-1298H707V0H516v-1298H49v-158h1126v158" id="aa"/><path fill="#333" d="M644-898l349-558h226L759-734 1230 0h-228L644-568 284 0H57l472-734-461-722h225" id="ab"/><g id="d"><use transform="matrix(0.011935763888888876,0,0,0.011935763888888876,0,0)" xlink:href="#U"/><use transform="matrix(0.011935763888888876,0,0,0.011935763888888876,6.302083333333327,0)" xlink:href="#aa"/><use transform="matrix(0.011935763888888876,0,0,0.011935763888888876,20.887586805555532,0)" xlink:href="#ab"/></g><g id="e"><use transform="matrix(0.011935763888888876,0,0,0.011935763888888876,0,0)" xlink:href="#R"/><use transform="matrix(0.011935763888888876,0,0,0.011935763888888876,14.633246527777763,0)" xlink:href="#U"/><use transform="matrix(0.011935763888888876,0,0,0.011935763888888876,21.281467013888864,0)" xlink:href="#T"/></g><path fill="#333" d="M497-251l268-831h189L566 0H425L33-1082h189" id="ac"/><path fill="#333" d="M456 20C285 20 205-92 206-268v-671H9v-143h197v-262h185v262h202v143H391v671c-9 125 92 149 207 118V0c-49 13-96 20-142 20" id="ad"/><path fill="#333" d="M634-1102c292 0 422 254 422 573 0 298-143 547-420 549-137 0-242-48-317-145L310 0H140v-1536h185v573c75-93 178-139 309-139zm-44 965c207 0 281-175 281-413 0-224-79-395-283-395-122 0-210 57-263 170v468c57 113 145 170 265 170" id="ae"/><path fill="#333" d="M341 0H156v-1536h185V0" id="af"/><path fill="#333" d="M599-131c141 0 220-65 285-146l113 88C906-50 770 20 589 20 281 21 93-214 93-545c0-223 93-397 233-485 74-48 154-72 240-72 300 2 449 218 445 537v77H278c0 197 129 357 321 357zm227-509c-3-180-88-310-260-310-170 0-264 140-282 310h542" id="ag"/><g id="f"><use transform="matrix(0.011935763888888876,0,0,0.011935763888888876,0,0)" xlink:href="#ac"/><use transform="matrix(0.011935763888888876,0,0,0.011935763888888876,11.840277777777764,0)" xlink:href="#ad"/><use transform="matrix(0.011935763888888876,0,0,0.011935763888888876,19.82530381944442,0)" xlink:href="#V"/><use transform="matrix(0.011935763888888876,0,0,0.011935763888888876,33.12174479166663,0)" xlink:href="#ae"/><use transform="matrix(0.011935763888888876,0,0,0.011935763888888876,46.83593749999994,0)" xlink:href="#af"/><use transform="matrix(0.011935763888888876,0,0,0.011935763888888876,52.76801215277771,0)" xlink:href="#ag"/></g><path fill="#333" d="M525-543H37v-151h488v151" id="ah"/><path fill="#333" d="M417-1456L893-268l476-1188h249V0h-192c-4-403 4-794 18-1179L966 0H819L342-1176c15 384 23 773 19 1176H169v-1456h248" id="ai"/><path fill="#333" d="M992-673H361v516h733V0H169v-1456h915v158H361v468h631v157" id="aj"/><g id="g"><use transform="matrix(0.011935763888888876,0,0,0.011935763888888876,0,0)" xlink:href="#R"/><use transform="matrix(0.011935763888888876,0,0,0.011935763888888876,14.633246527777763,0)" xlink:href="#U"/><use transform="matrix(0.011935763888888876,0,0,0.011935763888888876,21.281467013888864,0)" xlink:href="#T"/><use transform="matrix(0.011935763888888876,0,0,0.011935763888888876,34.43467881944441,0)" xlink:href="#ah"/><use transform="matrix(0.011935763888888876,0,0,0.011935763888888876,41.17838541666662,0)" xlink:href="#S"/><use transform="matrix(0.011935763888888876,0,0,0.011935763888888876,56.59939236111105,0)" xlink:href="#ai"/><use transform="matrix(0.011935763888888876,0,0,0.011935763888888876,77.94053819444436,0)" xlink:href="#aj"/><use transform="matrix(0.011935763888888876,0,0,0.011935763888888876,91.83376736111101,0)" xlink:href="#ai"/></g><path fill="#333" d="M483-459l28 192 41-173 288-1016h162l281 1016 40 176 31-196 226-996h193L1420 0h-175L945-1061l-23-111-23 111L588 0H413L61-1456h192" id="ak"/><path fill="#333" d="M1160-420C1159-145 963 0 674 0H169v-1456h476c294-1 476 112 476 388 0 153-99 253-216 302 146 38 255 167 255 346zM678-157c171 2 289-95 289-261 0-175-95-263-286-263H361v524h317zm250-912c-2-172-104-229-283-229H361v463h290c157 3 278-84 277-234" id="al"/><g id="h"><use transform="matrix(0.011935763888888876,0,0,0.011935763888888876,0,0)" xlink:href="#R"/><use transform="matrix(0.011935763888888876,0,0,0.011935763888888876,14.633246527777763,0)" xlink:href="#U"/><use transform="matrix(0.011935763888888876,0,0,0.011935763888888876,21.281467013888864,0)" xlink:href="#T"/><use transform="matrix(0.011935763888888876,0,0,0.011935763888888876,34.43467881944441,0)" xlink:href="#ah"/><use transform="matrix(0.011935763888888876,0,0,0.011935763888888876,41.17838541666662,0)" xlink:href="#T"/><use transform="matrix(0.011935763888888876,0,0,0.011935763888888876,52.62478298611106,0)" xlink:href="#ak"/><use transform="matrix(0.011935763888888876,0,0,0.011935763888888876,74.31206597222214,0)" xlink:href="#al"/></g><path fill="#333" d="M1288 0h-193v-673H361V0H169v-1456h192v626h734v-626h193V0" id="am"/><path fill="#333" d="M1222-777c17 480-206 763-650 777H169v-1456h411c408 9 627 269 642 679zm-190 4c3-312-149-522-447-525H361v1141h202c308 0 473-209 469-531v-85" id="an"/><g id="i"><use transform="matrix(0.011935763888888876,0,0,0.011935763888888876,0,0)" xlink:href="#am"/><use transform="matrix(0.011935763888888876,0,0,0.011935763888888876,17.426215277777757,0)" xlink:href="#an"/><use transform="matrix(0.011935763888888876,0,0,0.011935763888888876,33.455946180555515,0)" xlink:href="#T"/></g><path fill="#333" d="M1161-1018c0 201-122 330-278 388l342 618V0h-206L703-589H361V0H168v-1456h482c310-2 511 139 511 438zm-193 0c0-187-120-280-313-280H361v552h295c179 3 313-101 312-272" id="ao"/><g id="j"><use transform="matrix(0.011935763888888876,0,0,0.011935763888888876,0,0)" xlink:href="#S"/><use transform="matrix(0.011935763888888876,0,0,0.011935763888888876,15.421006944444427,0)" xlink:href="#ao"/><use transform="matrix(0.011935763888888876,0,0,0.011935763888888876,30.4720052083333,0)" xlink:href="#al"/></g><path fill="#333" d="M688-137c238 0 323-102 359-325h193c-32 297-228 482-552 482-361 0-569-299-569-680 0-197 8-360 73-497 88-186 257-317 513-319 316-2 509 195 535 488h-193c-31-212-118-330-342-330-272 0-397 224-393 523v141c-3 282 115 517 376 517" id="ap"/><path fill="#333" d="M589-945c-131 0-219 81-264 174V0H140v-1536h185v585c82-101 189-151 320-151 229 0 346 129 346 387V0H806v-716c-2-153-65-229-217-229" id="aq"/><path fill="#333" d="M491 20c-241-1-355-148-355-398v-704h185v699c0 164 67 246 200 246 141 0 235-53 282-158v-787h185V0H812l-4-107C736-22 630 20 491 20" id="ar"/><path fill="#333" d="M442-501L326-380V0H141v-1536h185v929c135-169 291-317 436-475h225L566-630 1036 0H819" id="as"/><g id="k"><use transform="matrix(0.011935763888888876,0,0,0.011935763888888876,0,0)" xlink:href="#ap"/><use transform="matrix(0.011935763888888876,0,0,0.011935763888888876,15.910373263888872,0)" xlink:href="#aq"/><use transform="matrix(0.011935763888888876,0,0,0.011935763888888876,29.373914930555525,0)" xlink:href="#ar"/><use transform="matrix(0.011935763888888876,0,0,0.011935763888888876,42.849392361111065,0)" xlink:href="#Y"/><use transform="matrix(0.011935763888888876,0,0,0.011935763888888876,56.33680555555549,0)" xlink:href="#as"/></g><g id="l"><use transform="matrix(0.011935763888888876,0,0,0.011935763888888876,0,0)" xlink:href="#S"/><use transform="matrix(0.011935763888888876,0,0,0.011935763888888876,15.421006944444427,0)" xlink:href="#ai"/><use transform="matrix(0.011935763888888876,0,0,0.011935763888888876,36.762152777777736,0)" xlink:href="#aj"/><use transform="matrix(0.011935763888888876,0,0,0.011935763888888876,50.65538194444439,0)" xlink:href="#ai"/></g><path fill="#333" d="M1240-945c-141 0-250 95-250 227V0H804v-709c0-157-77-236-231-236-121 0-204 52-249 155V0H139v-1082h175l5 120c79-93 186-140 321-140 151 0 254 58 309 174 69-98 181-174 345-174 237 0 362 126 362 377V0h-185v-714c-2-159-67-231-231-231" id="at"/><path fill="#333" d="M632-1102c291 0 422 251 422 573 0 297-141 548-419 549-131 0-235-42-310-125v521H140v-1498h169l9 120c75-93 180-140 314-140zm-53 971c207 0 290-180 290-419 0-218-92-395-292-395-112 0-196 50-252 149v517c55 99 140 148 254 148" id="au"/><path fill="#333" d="M341 0H156v-1082h185V0zm-91-1264c-68 0-108-42-109-105 0-62 41-107 109-107s110 44 110 107-42 105-110 105" id="av"/><path fill="#333" d="M521 20C240 20 96-239 96-550c0-303 147-552 427-552 132 0 235 47 309 140l9-120h169V-26c4 277-183 454-459 452-165-1-334-81-400-187l96-111c79 98 176 147 291 147 180 1 288-109 286-290v-93C750-23 649 20 521 20zm48-965c-209 0-287 178-287 416 0 217 86 392 285 392 117 0 202-53 257-159v-494c-57-103-142-155-255-155" id="aw"/><g id="m"><use transform="matrix(0.011935763888888876,0,0,0.011935763888888876,0,0)" xlink:href="#at"/><use transform="matrix(0.011935763888888876,0,0,0.011935763888888876,21.424696180555532,0)" xlink:href="#V"/><use transform="matrix(0.011935763888888876,0,0,0.011935763888888876,34.72113715277774,0)" xlink:href="#au"/><use transform="matrix(0.011935763888888876,0,0,0.011935763888888876,48.43532986111106,0)" xlink:href="#au"/><use transform="matrix(0.011935763888888876,0,0,0.011935763888888876,62.14952256944438,0)" xlink:href="#av"/><use transform="matrix(0.011935763888888876,0,0,0.011935763888888876,68.08159722222214,0)" xlink:href="#Y"/><use transform="matrix(0.011935763888888876,0,0,0.011935763888888876,81.56901041666657,0)" xlink:href="#aw"/></g><path fill="#333" d="M177 125H18l608-1581h158" id="ax"/><path fill="#333" d="M520 20C244 20 95-247 95-550c0-298 151-550 427-552 127 0 227 43 301 130v-564h185V0H838l-9-116C755-25 652 20 520 20zm48-965c-210 0-288 177-288 416 0 218 87 392 286 392 117 0 203-53 257-158v-497c-55-102-140-153-255-153" id="ay"/><path fill="#333" d="M1288 0h-193L362-1122V0H169v-1456h193l735 1127v-1127h191V0" id="az"/><g id="n"><use transform="matrix(0.011935763888888876,0,0,0.011935763888888876,0,0)" xlink:href="#ax"/><use transform="matrix(0.011935763888888876,0,0,0.011935763888888876,10.07378472222221,0)" xlink:href="#ay"/><use transform="matrix(0.011935763888888876,0,0,0.011935763888888876,23.859592013888864,0)" xlink:href="#ag"/><use transform="matrix(0.011935763888888876,0,0,0.011935763888888876,36.654730902777736,0)" xlink:href="#ac"/><use transform="matrix(0.011935763888888876,0,0,0.011935763888888876,48.4950086805555,0)" xlink:href="#ax"/><use transform="matrix(0.011935763888888876,0,0,0.011935763888888876,58.568793402777715,0)" xlink:href="#au"/><use transform="matrix(0.011935763888888876,0,0,0.011935763888888876,72.28298611111103,0)" xlink:href="#at"/><use transform="matrix(0.011935763888888876,0,0,0.011935763888888876,93.70768229166656,0)" xlink:href="#ag"/><use transform="matrix(0.011935763888888876,0,0,0.011935763888888876,106.657986111111,0)" xlink:href="#at"/><use transform="matrix(0.011935763888888876,0,0,0.011935763888888876,128.08268229166652,0)" xlink:href="#az"/></g><path fill="#333" d="M314-151h633V0H88v-136l597-793H97v-153h820v131" id="aA"/><path fill="#333" d="M584 20C278 26 81-227 91-551c10-320 175-545 491-551 308-5 503 247 494 573-9 322-175 543-492 549zm-2-970c-208 0-305 185-305 421 0 216 106 398 307 398 211 0 307-186 307-420 0-214-109-399-309-399" id="aB"/><g id="o"><use transform="matrix(0.011935763888888876,0,0,0.011935763888888876,0,0)" xlink:href="#aA"/><use transform="matrix(0.011935763888888876,0,0,0.011935763888888876,12.114800347222209,0)" xlink:href="#au"/><use transform="matrix(0.011935763888888876,0,0,0.011935763888888876,25.82899305555553,0)" xlink:href="#aB"/><use transform="matrix(0.011935763888888876,0,0,0.011935763888888876,39.769965277777736,0)" xlink:href="#aB"/><use transform="matrix(0.011935763888888876,0,0,0.011935763888888876,53.71093749999994,0)" xlink:href="#af"/></g><path fill="#333" d="M703-1476c426 0 599 333 586 795-11 408-187 701-584 701-422 0-587-333-587-793 0-282 106-507 280-617 89-56 190-86 305-86zm2 1333c312 0 393-279 393-632 0-308-116-536-395-536-269 0-394 232-394 523v107c-4 298 123 538 396 538" id="aC"/><path fill="#333" d="M663-916c-163-27-288 18-338 148V0H140v-1082h180l3 125c61-97 147-145 258-145 36 0 63 5 82 14v172" id="aD"/><g id="p"><use transform="matrix(0.011935763888888876,0,0,0.011935763888888876,0,0)" xlink:href="#aC"/><use transform="matrix(0.011935763888888876,0,0,0.011935763888888876,16.805555555555536,0)" xlink:href="#ad"/><use transform="matrix(0.011935763888888876,0,0,0.011935763888888876,24.790581597222197,0)" xlink:href="#aq"/><use transform="matrix(0.011935763888888876,0,0,0.011935763888888876,38.25412326388884,0)" xlink:href="#ag"/><use transform="matrix(0.011935763888888876,0,0,0.011935763888888876,51.204427083333265,0)" xlink:href="#aD"/></g><path fill="#333" d="M651-255l416-1201h210L737 0H567L28-1456h209" id="aE"/><g id="q"><use transform="matrix(0.011935763888888876,0,0,0.011935763888888876,0,0)" xlink:href="#aE"/><use transform="matrix(0.011935763888888876,0,0,0.011935763888888876,15.552300347222205,0)" xlink:href="#an"/><use transform="matrix(0.011935763888888876,0,0,0.011935763888888876,31.582031249999964,0)" xlink:href="#aj"/><use transform="matrix(0.011935763888888876,0,0,0.011935763888888876,45.475260416666615,0)" xlink:href="#aE"/><use transform="matrix(0.011935763888888876,0,0,0.011935763888888876,61.02756076388882,0)" xlink:href="#W"/></g><g id="r"><use transform="matrix(0.011935763888888876,0,0,0.011935763888888876,0,0)" xlink:href="#R"/><use transform="matrix(0.011935763888888876,0,0,0.011935763888888876,14.633246527777763,0)" xlink:href="#U"/><use transform="matrix(0.011935763888888876,0,0,0.011935763888888876,21.281467013888864,0)" xlink:href="#aC"/></g><g id="s"><use transform="matrix(0.00868055555555554,0,0,0.00868055555555554,0,0)" xlink:href="#aE"/><use transform="matrix(0.00868055555555554,0,0,0.00868055555555554,11.31076388888887,0)" xlink:href="#an"/><use transform="matrix(0.00868055555555554,0,0,0.00868055555555554,22.96874999999996,0)" xlink:href="#aj"/><use transform="matrix(0.00868055555555554,0,0,0.00868055555555554,33.07291666666661,0)" xlink:href="#aE"/></g><g id="t"><use transform="matrix(0.00868055555555554,0,0,0.00868055555555554,0,0)" xlink:href="#af"/><use transform="matrix(0.00868055555555554,0,0,0.00868055555555554,4.314236111111104,0)" xlink:href="#V"/><use transform="matrix(0.00868055555555554,0,0,0.00868055555555554,13.984374999999975,0)" xlink:href="#ae"/><use transform="matrix(0.00868055555555554,0,0,0.00868055555555554,23.958333333333293,0)" xlink:href="#ag"/><use transform="matrix(0.00868055555555554,0,0,0.00868055555555554,33.37673611111106,0)" xlink:href="#af"/></g><g id="u"><use transform="matrix(0.008680555555555556,0,0,0.008680555555555556,0,0)" xlink:href="#ae"/><use transform="matrix(0.008680555555555556,0,0,0.008680555555555556,9.973958333333334,0)" xlink:href="#av"/><use transform="matrix(0.008680555555555556,0,0,0.008680555555555556,14.288194444444446,0)" xlink:href="#aB"/></g><g id="v"><use transform="matrix(0.008680555555555556,0,0,0.008680555555555556,0,0)" xlink:href="#ay"/><use transform="matrix(0.008680555555555556,0,0,0.008680555555555556,10.026041666666668,0)" xlink:href="#av"/><use transform="matrix(0.008680555555555556,0,0,0.008680555555555556,14.340277777777779,0)" xlink:href="#aD"/><use transform="matrix(0.008680555555555556,0,0,0.008680555555555556,20.19097222222222,0)" xlink:href="#ag"/><use transform="matrix(0.008680555555555556,0,0,0.008680555555555556,29.609375,0)" xlink:href="#Z"/><use transform="matrix(0.008680555555555556,0,0,0.008680555555555556,38.91493055555556,0)" xlink:href="#ad"/></g><path fill="#333" d="M258 11c-71 0-114-43-114-108 0-67 42-112 114-112s116 45 116 112c-1 65-45 108-116 108" id="aF"/><g id="w"><use transform="matrix(0.008355034722222213,0,0,0.008355034722222213,0,3.9686414930555514)" xlink:href="#aF"/><use transform="matrix(0.008355034722222213,0,0,0.008355034722222213,4.503363715277773,3.9686414930555514)" xlink:href="#aF"/><use transform="matrix(0.008355034722222213,0,0,0.008355034722222213,9.006727430555546,3.9686414930555514)" xlink:href="#aF"/></g><g id="x"><use transform="matrix(0.008355034722222213,0,0,0.008355034722222213,0,-7.937282986111103)" xlink:href="#aF"/><use transform="matrix(0.008355034722222213,0,0,0.008355034722222213,4.503363715277773,-7.937282986111103)" xlink:href="#aF"/><use transform="matrix(0.008355034722222213,0,0,0.008355034722222213,9.006727430555546,-7.937282986111103)" xlink:href="#aF"/></g><g id="y"><use transform="matrix(0.011935763888888876,0,0,0.011935763888888876,0,0)" xlink:href="#ae"/><use transform="matrix(0.011935763888888876,0,0,0.011935763888888876,13.714192708333318,0)" xlink:href="#af"/><use transform="matrix(0.011935763888888876,0,0,0.011935763888888876,19.64626736111109,0)" xlink:href="#aB"/><use transform="matrix(0.011935763888888876,0,0,0.011935763888888876,33.5872395833333,0)" xlink:href="#Z"/><use transform="matrix(0.011935763888888876,0,0,0.011935763888888876,46.38237847222217,0)" xlink:href="#as"/><use transform="matrix(0.011935763888888876,0,0,0.011935763888888876,58.53298611111105,0)" xlink:href="#ay"/><use transform="matrix(0.011935763888888876,0,0,0.011935763888888876,72.3187934027777,0)" xlink:href="#ag"/><use transform="matrix(0.011935763888888876,0,0,0.011935763888888876,85.11393229166657,0)" xlink:href="#ac"/></g><path fill="#333" d="M631-137c179 0 314-70 314-231 0-71-25-127-75-166s-141-77-272-115c-165-47-285-106-360-175s-112-154-112-255c0-245 231-397 495-397 206 0 369 89 449 218 43 68 65 142 65 223H942c0-184-129-283-321-283-172 0-299 76-301 236 0 59 26 109 76 150s135 78 256 113c205 59 345 116 436 256 35 53 50 119 50 193-2 256-231 398-507 390C333 12 90-129 80-422h193c0 187 160 285 358 285" id="aG"/><path fill="#333" d="M730-137c145 0 253-29 323-105v-327H716v-156h528v534C1148-51 964 20 729 20c-394 0-598-279-607-678v-127c-5-410 194-690 585-691 310-1 499 171 537 447h-192c-36-193-151-289-344-289-285 0-393 220-393 528v119c-5 296 140 534 415 534" id="aH"/><g id="z"><use transform="matrix(0.011935763888888876,0,0,0.011935763888888876,0,0)" xlink:href="#aG"/><use transform="matrix(0.011935763888888876,0,0,0.011935763888888876,14.501953124999984,0)" xlink:href="#T"/><use transform="matrix(0.011935763888888876,0,0,0.011935763888888876,26.87934027777775,0)" xlink:href="#aC"/><use transform="matrix(0.011935763888888876,0,0,0.011935763888888876,43.684895833333286,0)" xlink:href="#aH"/></g><g id="A"><use transform="matrix(0.011935763888888876,0,0,0.011935763888888876,0,0)" xlink:href="#aE"/><use transform="matrix(0.011935763888888876,0,0,0.011935763888888876,15.552300347222205,0)" xlink:href="#an"/><use transform="matrix(0.011935763888888876,0,0,0.011935763888888876,31.582031249999964,0)" xlink:href="#aj"/><use transform="matrix(0.011935763888888876,0,0,0.011935763888888876,45.475260416666615,0)" xlink:href="#aE"/></g><path fill="#5e5e5e" d="M992-673H361v516h733V0H169v-1456h915v158H361v468h631v157" id="aI"/><path fill="#5e5e5e" d="M503-687l240-395h216L605-547 970 0H756L506-405 256 0H41l365-547-354-535h214" id="aJ"/><path fill="#5e5e5e" d="M341 0H156v-1082h185V0zm-91-1264c-68 0-108-42-109-105 0-62 41-107 109-107s110 44 110 107-42 105-110 105" id="aK"/><path fill="#5e5e5e" d="M538-131c121 0 232-49 232-156 0-50-20-88-56-117-73-60-334-92-420-143-92-55-162-110-162-238 0-190 192-317 400-317 223 0 414 129 413 338H759c0-108-110-186-227-186-119 0-215 53-215 159 0 45 18 78 53 101 76 52 331 90 416 139 98 57 169 115 169 251C955-92 760 20 538 20c-176 0-314-68-386-174-38-55-57-115-57-179h185c6 129 116 202 258 202" id="aL"/><path fill="#5e5e5e" d="M456 20C285 20 205-92 206-268v-671H9v-143h197v-262h185v262h202v143H391v671c-9 125 92 149 207 118V0c-49 13-96 20-142 20" id="aM"/><path fill="#5e5e5e" d="M589-945c-131 0-219 81-264 174V0H140v-1082h175l6 136c83-104 191-156 324-156 229 0 346 129 346 387V0H806v-716c-2-153-65-229-217-229" id="aN"/><path fill="#5e5e5e" d="M521 20C240 20 96-239 96-550c0-303 147-552 427-552 132 0 235 47 309 140l9-120h169V-26c4 277-183 454-459 452-165-1-334-81-400-187l96-111c79 98 176 147 291 147 180 1 288-109 286-290v-93C750-23 649 20 521 20zm48-965c-209 0-287 178-287 416 0 217 86 392 285 392 117 0 202-53 257-159v-494c-57-103-142-155-255-155" id="aO"/><g id="B"><use transform="matrix(0.009765624999999986,0,0,0.009765624999999986,0,0)" xlink:href="#aI"/><use transform="matrix(0.009765624999999986,0,0,0.009765624999999986,11.367187499999984,0)" xlink:href="#aJ"/><use transform="matrix(0.009765624999999986,0,0,0.009765624999999986,21.279296874999968,0)" xlink:href="#aK"/><use transform="matrix(0.009765624999999986,0,0,0.009765624999999986,26.132812499999964,0)" xlink:href="#aL"/><use transform="matrix(0.009765624999999986,0,0,0.009765624999999986,36.44531249999995,0)" xlink:href="#aM"/><use transform="matrix(0.009765624999999986,0,0,0.009765624999999986,42.978515624999936,0)" xlink:href="#aK"/><use transform="matrix(0.009765624999999986,0,0,0.009765624999999986,47.83203124999993,0)" xlink:href="#aN"/><use transform="matrix(0.009765624999999986,0,0,0.009765624999999986,58.86718749999992,0)" xlink:href="#aO"/></g><path fill="#5e5e5e" d="M313-157h833V0H86v-144l798-1154H99v-158h1015v141" id="aP"/><path fill="#5e5e5e" d="M375 0H183v-1456h192V0" id="aQ"/><path fill="#5e5e5e" d="M362-157h690V0H169v-1456h193v1299" id="aR"/><g id="C"><use transform="matrix(0.009765624999999986,0,0,0.009765624999999986,0,0)" xlink:href="#aP"/><use transform="matrix(0.009765624999999986,0,0,0.009765624999999986,11.972656249999982,0)" xlink:href="#aQ"/><use transform="matrix(0.009765624999999986,0,0,0.009765624999999986,17.412109374999975,0)" xlink:href="#aR"/></g><path fill="#5e5e5e" d="M973-380H363L226 0H28l556-1456h168L1309 0h-197zM421-538h495l-248-681" id="aS"/><path fill="#5e5e5e" d="M1216-1011c-1 297-202 441-512 441H361V0H169v-1456h537c297-6 510 164 510 445zm-192 2c1-178-126-288-307-289H361v571h345c196 1 318-92 318-282" id="aT"/><g id="D"><use transform="matrix(0.009765624999999986,0,0,0.009765624999999986,0,0)" xlink:href="#aS"/><use transform="matrix(0.009765624999999986,0,0,0.009765624999999986,13.046874999999982,0)" xlink:href="#aT"/><use transform="matrix(0.009765624999999986,0,0,0.009765624999999986,25.664062499999964,0)" xlink:href="#aQ"/></g><g id="E"><use transform="matrix(0.009765624999999986,0,0,0.009765624999999986,0,0)" xlink:href="#aP"/><use transform="matrix(0.009765624999999986,0,0,0.009765624999999986,11.972656249999982,0)" xlink:href="#aQ"/><use transform="matrix(0.009765624999999986,0,0,0.009765624999999986,17.412109374999975,0)" xlink:href="#aR"/></g><path fill="#5e5e5e" d="M497-251l268-831h189L566 0H425L33-1082h189" id="aU"/><path fill="#5e5e5e" d="M561-1102c238-4 403 126 403 351v498c0 99 13 178 38 237V0H808c-11-21-19-59-26-114C696-25 593 20 474 20c-199 0-368-130-365-320 4-251 214-359 490-356h180v-85c-1-135-86-212-229-212-115 0-232 67-233 171H131c20-205 206-316 430-320zM294-326c0 117 90 185 207 185 122 0 239-75 278-162v-222H634c-227 0-340 66-340 199" id="aV"/><path fill="#5e5e5e" d="M634-1102c292 0 422 254 422 573 0 298-143 547-420 549-137 0-242-48-317-145L310 0H140v-1536h185v573c75-93 178-139 309-139zm-44 965c207 0 281-175 281-413 0-224-79-395-283-395-122 0-210 57-263 170v468c57 113 145 170 265 170" id="aW"/><path fill="#5e5e5e" d="M341 0H156v-1536h185V0" id="aX"/><path fill="#5e5e5e" d="M599-131c141 0 220-65 285-146l113 88C906-50 770 20 589 20 281 21 93-214 93-545c0-223 93-397 233-485 74-48 154-72 240-72 300 2 449 218 445 537v77H278c0 197 129 357 321 357zm227-509c-3-180-88-310-260-310-170 0-264 140-282 310h542" id="aY"/><g id="F"><use transform="matrix(0.009765624999999986,0,0,0.009765624999999986,0,0)" xlink:href="#aU"/><use transform="matrix(0.009765624999999986,0,0,0.009765624999999986,9.687499999999986,0)" xlink:href="#aM"/><use transform="matrix(0.009765624999999986,0,0,0.009765624999999986,16.22070312499998,0)" xlink:href="#aV"/><use transform="matrix(0.009765624999999986,0,0,0.009765624999999986,27.099609374999964,0)" xlink:href="#aW"/><use transform="matrix(0.009765624999999986,0,0,0.009765624999999986,38.32031249999995,0)" xlink:href="#aX"/><use transform="matrix(0.009765624999999986,0,0,0.009765624999999986,43.17382812499995,0)" xlink:href="#aY"/></g><path fill="#5e5e5e" d="M663-916c-163-27-288 18-338 148V0H140v-1082h180l3 125c61-97 147-145 258-145 36 0 63 5 82 14v172" id="aZ"/><path fill="#5e5e5e" d="M525-543H37v-151h488v151" id="ba"/><path fill="#5e5e5e" d="M277-555c0 244 77 420 297 424 127 2 249-93 255-210h175C980-127 805 20 574 20 258 20 81-222 92-562c11-319 164-533 481-540 237-5 426 165 431 392H829c-7-133-115-242-256-240-209 4-296 166-296 395" id="bb"/><path fill="#5e5e5e" d="M584 20C278 26 81-227 91-551c10-320 175-545 491-551 308-5 503 247 494 573-9 322-175 543-492 549zm-2-970c-208 0-305 185-305 421 0 216 106 398 307 398 211 0 307-186 307-420 0-214-109-399-309-399" id="bc"/><path fill="#5e5e5e" d="M520 20C244 20 95-247 95-550c0-298 151-550 427-552 127 0 227 43 301 130v-564h185V0H838l-9-116C755-25 652 20 520 20zm48-965c-210 0-288 177-288 416 0 218 87 392 286 392 117 0 203-53 257-158v-497c-55-102-140-153-255-153" id="bd"/><g id="G"><use transform="matrix(0.009765624999999986,0,0,0.009765624999999986,0,0)" xlink:href="#aO"/><use transform="matrix(0.009765624999999986,0,0,0.009765624999999986,11.220703124999984,0)" xlink:href="#aV"/><use transform="matrix(0.009765624999999986,0,0,0.009765624999999986,22.099609374999968,0)" xlink:href="#aZ"/><use transform="matrix(0.009765624999999986,0,0,0.009765624999999986,28.867187499999957,0)" xlink:href="#aW"/><use transform="matrix(0.009765624999999986,0,0,0.009765624999999986,40.08789062499994,0)" xlink:href="#aV"/><use transform="matrix(0.009765624999999986,0,0,0.009765624999999986,50.96679687499993,0)" xlink:href="#aO"/><use transform="matrix(0.009765624999999986,0,0,0.009765624999999986,62.187499999999915,0)" xlink:href="#aY"/><use transform="matrix(0.009765624999999986,0,0,0.009765624999999986,72.7832031249999,0)" xlink:href="#ba"/><use transform="matrix(0.009765624999999986,0,0,0.009765624999999986,78.30078124999989,0)" xlink:href="#bb"/><use transform="matrix(0.009765624999999986,0,0,0.009765624999999986,88.76953124999987,0)" xlink:href="#bc"/><use transform="matrix(0.009765624999999986,0,0,0.009765624999999986,100.17578124999986,0)" xlink:href="#aX"/><use transform="matrix(0.009765624999999986,0,0,0.009765624999999986,105.02929687499984,0)" xlink:href="#aX"/><use transform="matrix(0.009765624999999986,0,0,0.009765624999999986,109.88281249999986,0)" xlink:href="#aY"/><use transform="matrix(0.009765624999999986,0,0,0.009765624999999986,120.47851562499984,0)" xlink:href="#bb"/><use transform="matrix(0.009765624999999986,0,0,0.009765624999999986,130.94726562499983,0)" xlink:href="#aM"/><use transform="matrix(0.009765624999999986,0,0,0.009765624999999986,137.48046874999983,0)" xlink:href="#aY"/><use transform="matrix(0.009765624999999986,0,0,0.009765624999999986,148.07617187499983,0)" xlink:href="#bd"/></g><g id="H"><use transform="matrix(0.009765624999999986,0,0,0.009765624999999986,0,0)" xlink:href="#aL"/><use transform="matrix(0.009765624999999986,0,0,0.009765624999999986,10.312499999999986,0)" xlink:href="#aY"/><use transform="matrix(0.009765624999999986,0,0,0.009765624999999986,20.90820312499997,0)" xlink:href="#aM"/></g><path fill="#5e5e5e" d="M704-1390c-164-38-297 28-288 194v114h231v143H416V0H231v-939H60v-143h171v-111c-12-274 208-416 483-347" id="be"/><g id="I"><use transform="matrix(0.009765624999999986,0,0,0.009765624999999986,0,0)" xlink:href="#bc"/><use transform="matrix(0.009765624999999986,0,0,0.009765624999999986,11.406249999999984,0)" xlink:href="#be"/></g><g id="J"><use transform="matrix(0.009765624999999986,0,0,0.009765624999999986,0,0)" xlink:href="#aX"/><use transform="matrix(0.009765624999999986,0,0,0.009765624999999986,4.853515624999993,0)" xlink:href="#bc"/><use transform="matrix(0.009765624999999986,0,0,0.009765624999999986,16.25976562499998,0)" xlink:href="#aO"/></g><g id="K"><use transform="matrix(0.009765624999999986,0,0,0.009765624999999986,0,0)" xlink:href="#aY"/><use transform="matrix(0.009765624999999986,0,0,0.009765624999999986,10.595703124999986,0)" xlink:href="#aN"/><use transform="matrix(0.009765624999999986,0,0,0.009765624999999986,21.630859374999975,0)" xlink:href="#aM"/><use transform="matrix(0.009765624999999986,0,0,0.009765624999999986,28.164062499999964,0)" xlink:href="#aZ"/><use transform="matrix(0.009765624999999986,0,0,0.009765624999999986,34.93164062499996,0)" xlink:href="#aK"/><use transform="matrix(0.009765624999999986,0,0,0.009765624999999986,39.78515624999995,0)" xlink:href="#aY"/><use transform="matrix(0.009765624999999986,0,0,0.009765624999999986,50.380859374999936,0)" xlink:href="#aL"/></g><path fill="#5e5e5e" d="M417-1456L893-268l476-1188h249V0h-192c-4-403 4-794 18-1179L966 0H819L342-1176c15 384 23 773 19 1176H169v-1456h248" id="bf"/><g id="L"><use transform="matrix(0.009765624999999986,0,0,0.009765624999999986,0,0)" xlink:href="#aT"/><use transform="matrix(0.009765624999999986,0,0,0.009765624999999986,12.617187499999982,0)" xlink:href="#bf"/><use transform="matrix(0.009765624999999986,0,0,0.009765624999999986,30.078124999999957,0)" xlink:href="#aI"/><use transform="matrix(0.009765624999999986,0,0,0.009765624999999986,41.44531249999994,0)" xlink:href="#bf"/></g><path fill="#5e5e5e" d="M632-1102c291 0 422 251 422 573 0 297-141 548-419 549-131 0-235-42-310-125v521H140v-1498h169l9 120c75-93 180-140 314-140zm-53 971c207 0 290-180 290-419 0-218-92-395-292-395-112 0-196 50-252 149v517c55 99 140 148 254 148" id="bg"/><path fill="#5e5e5e" d="M1240-945c-141 0-250 95-250 227V0H804v-709c0-157-77-236-231-236-121 0-204 52-249 155V0H139v-1082h175l5 120c79-93 186-140 321-140 151 0 254 58 309 174 69-98 181-174 345-174 237 0 362 126 362 377V0h-185v-714c-2-159-67-231-231-231" id="bh"/><g id="M"><use transform="matrix(0.009765624999999986,0,0,0.009765624999999986,0,0)" xlink:href="#bg"/><use transform="matrix(0.009765624999999986,0,0,0.009765624999999986,11.220703124999984,0)" xlink:href="#aZ"/><use transform="matrix(0.009765624999999986,0,0,0.009765624999999986,17.792968749999975,0)" xlink:href="#bc"/><use transform="matrix(0.009765624999999986,0,0,0.009765624999999986,29.199218749999957,0)" xlink:href="#aO"/><use transform="matrix(0.009765624999999986,0,0,0.009765624999999986,40.41992187499994,0)" xlink:href="#aZ"/><use transform="matrix(0.009765624999999986,0,0,0.009765624999999986,46.796874999999936,0)" xlink:href="#aV"/><use transform="matrix(0.009765624999999986,0,0,0.009765624999999986,57.675781249999915,0)" xlink:href="#bh"/><use transform="matrix(0.009765624999999986,0,0,0.009765624999999986,75.2050781249999,0)" xlink:href="#bh"/><use transform="matrix(0.009765624999999986,0,0,0.009765624999999986,92.73437499999987,0)" xlink:href="#aK"/><use transform="matrix(0.009765624999999986,0,0,0.009765624999999986,97.58789062499986,0)" xlink:href="#aN"/><use transform="matrix(0.009765624999999986,0,0,0.009765624999999986,108.62304687499984,0)" xlink:href="#aO"/></g><g id="N"><use transform="matrix(0.009765624999999986,0,0,0.009765624999999986,0,0)" xlink:href="#bh"/><use transform="matrix(0.009765624999999986,0,0,0.009765624999999986,17.529296874999975,0)" xlink:href="#bc"/><use transform="matrix(0.009765624999999986,0,0,0.009765624999999986,28.935546874999957,0)" xlink:href="#bd"/><use transform="matrix(0.009765624999999986,0,0,0.009765624999999986,40.21484374999994,0)" xlink:href="#aY"/><use transform="matrix(0.009765624999999986,0,0,0.009765624999999986,50.81054687499993,0)" xlink:href="#aX"/></g><g id="O"><use transform="matrix(0.009765624999999986,0,0,0.009765624999999986,0,0)" xlink:href="#bg"/><use transform="matrix(0.009765624999999986,0,0,0.009765624999999986,11.220703124999984,0)" xlink:href="#aY"/><use transform="matrix(0.009765624999999986,0,0,0.009765624999999986,21.816406249999975,0)" xlink:href="#aZ"/></g><path fill="#5e5e5e" d="M494-271l252-811h198L509 167C425 381 299 474 84 421V271c167 16 242-37 283-173l41-110L22-1082h202" id="bi"/><g id="P"><use transform="matrix(0.009765624999999986,0,0,0.009765624999999986,0,0)" xlink:href="#be"/><use transform="matrix(0.009765624999999986,0,0,0.009765624999999986,6.94335937499999,0)" xlink:href="#aK"/><use transform="matrix(0.009765624999999986,0,0,0.009765624999999986,11.796874999999984,0)" xlink:href="#aX"/><use transform="matrix(0.009765624999999986,0,0,0.009765624999999986,16.650390624999975,0)" xlink:href="#aY"/><use transform="matrix(0.009765624999999986,0,0,0.009765624999999986,27.24609374999996,0)" xlink:href="#aL"/><use transform="matrix(0.009765624999999986,0,0,0.009765624999999986,37.55859374999994,0)" xlink:href="#bi"/><use transform="matrix(0.009765624999999986,0,0,0.009765624999999986,47.021484374999936,0)" xlink:href="#aL"/><use transform="matrix(0.009765624999999986,0,0,0.009765624999999986,57.33398437499992,0)" xlink:href="#aM"/><use transform="matrix(0.009765624999999986,0,0,0.009765624999999986,63.86718749999991,0)" xlink:href="#aY"/><use transform="matrix(0.009765624999999986,0,0,0.009765624999999986,74.46289062499989,0)" xlink:href="#bh"/></g><g id="Q"><use transform="matrix(0.009765624999999986,0,0,0.009765624999999986,0,0)" xlink:href="#bg"/><use transform="matrix(0.009765624999999986,0,0,0.009765624999999986,11.220703124999984,0)" xlink:href="#bc"/><use transform="matrix(0.009765624999999986,0,0,0.009765624999999986,22.626953124999968,0)" xlink:href="#bc"/><use transform="matrix(0.009765624999999986,0,0,0.009765624999999986,34.03320312499995,0)" xlink:href="#aX"/></g></defs></g></svg>